<?xml version="1.0" encoding="UTF-8"?>
<svg width="115px" height="323px" viewBox="0 0 115 323" version="1.1" xmlns="http://www.w3.org/2000/svg" xmlns:xlink="http://www.w3.org/1999/xlink">
    <title>illust/mr/stage1</title>
    <defs>
        <polygon id="path-1" points="0 0 17.6578947 0 17.6578947 40.3508772 0 40.3508772"></polygon>
        <polygon id="path-3" points="0 0 17.6578947 0 17.6578947 40.3508772 0 40.3508772"></polygon>
    </defs>
    <g id="Symbols" stroke="none" stroke-width="1" fill="none" fill-rule="evenodd">
        <g id="illust/mr/on/stage1/on" transform="translate(-25.000000, -51.000000)">
            <g id="illust/mr/stage1" transform="translate(25.000000, 51.000000)">
                <g id="Group" transform="translate(61.049471, 68.722190)">
                    <g id="icon/waste/3-copy" transform="translate(20.174667, 31.472481) rotate(30.000000) translate(-20.174667, -31.472481) ">
                        <path d="M40.3484023,13.8042564 C40.3596502,13.7030373 40.2677923,13.6018183 40.1421906,13.5789007 L19.1442185,9.68865111 C19.0204915,9.66573359 18.9005138,9.72684698 18.8742687,9.82615625 L14.9693695,15.1239238 L15.5411382,25.329861 L10.4908269,35.843275 L11.221941,40.2453493 L14.5494475,41.1563208 L38.2056756,33.0778938 L38.3743942,27.65217 L40.2115527,26.1262449 L39.0248983,22.5224643 L34.9287846,20.6527764 L39.7916308,18.8174647 L40.3484023,13.8042564 Z" id="Fill-94" fill="#C5F5DB" transform="translate(25.420081, 25.420081) scale(-1, 1) translate(-25.420081, -25.420081) "></path>
                        <path d="M37.9283741,44.9237803 L22.4892833,25.0165872 C15.1997644,29.1776567 1.61397337,38.1876227 1.61397337,38.1876227 L14.5509192,60.5240012 L37.9283741,44.9237803 Z" id="Fill-96" fill="#C5F5DB" transform="translate(19.771174, 42.770294) scale(-1, 1) translate(-19.771174, -42.770294) "></path>
                        <path d="M7.38043444,11.1734353 L29.4633743,15.3304461 C29.5415647,15.3446063 29.6158457,15.2920115 29.629529,15.2110964 L31.4611405,4.79328328 C31.5295571,4.4069139 31.2813024,4.03672753 30.907943,3.96592686 L9.89425764,0.0112036152 C9.5208982,-0.0575741803 9.16317686,0.197308239 9.09476021,0.58367762 L7.26510352,11.0014908 C7.25142019,11.0824058 7.30224398,11.1592751 7.38043444,11.1734353" id="Fill-100" fill="#8AEAB7" transform="translate(19.367680, 7.666373) scale(-1, 1) translate(-19.367680, -7.666373) "></path>
                        <polygon id="Fill-103" fill="#3CDC87" transform="translate(19.771174, 12.911787) scale(-1, 1) translate(-19.771174, -12.911787) " points="29.8585073 14.7509321 29.7688255 15.332747 9.6838402 11.0726418 9.77352199 10.4908269"></polygon>
                        <path d="M2.23619783,62.9038734 L24.9044789,48.244904 C25.0209867,48.1705574 25.0510532,48.0200509 24.9740077,47.9076244 L23.0873333,45.1912543 L0,60.12041 L1.88667448,62.8367802 C1.96371995,62.9492067 2.11969005,62.97822 2.23619783,62.9038734" id="Fill-105" fill="#8AEAB7" transform="translate(12.508294, 54.068108) scale(-1, 1) translate(-12.508294, -54.068108) "></path>
                        <polygon id="Fill-107" fill="#3CDC87" transform="translate(18.157200, 4.841920) scale(-1, 1) translate(-18.157200, -4.841920) " points="7.34077815 2.42096005 29.0515206 6.78983107 28.9736226 7.26288015 7.26288015 2.89400913"></polygon>
                        <path d="M17.7869898,4.12015772 L21.7886404,4.80286846 C21.5898488,5.83903936 20.5287659,6.52659201 19.423794,6.34017809 C18.3188221,6.14892224 17.5856165,5.15632862 17.7869898,4.12015772" id="Fill-109" fill="#3CDC87" transform="translate(19.771174, 5.245413) scale(-1, 1) translate(-19.771174, -5.245413) "></path>
                        <polygon id="Fill-175" fill="#8AEAB7" transform="translate(29.455014, 29.858507) scale(-1, 1) translate(-29.455014, -29.858507) " points="24.7646499 33.086454 29.4235218 30.8726613 29.3290453 28.2380935 36.3144007 26.6305605 26.6581162 27.3982606 22.5956271 31.0581459"></polygon>
                        <polygon id="Fill-177" fill="#8AEAB7" transform="translate(26.227067, 16.946720) scale(-1, 1) translate(-26.227067, -16.946720) " points="28.3860628 18.5612142 33.8934407 15.4321565 29.5714717 14.1642948 23.7219959 16.5334682 22.1666439 13.7187736 18.5606937 16.3585907 20.3308513 20.1746671 27.1728087 17.9637161"></polygon>
                    </g>
                </g>
                <g id="Group" transform="translate(61.049471, 218.821713)">
                    <g id="icon/waste/3-copy" transform="translate(20.174667, 31.472481) rotate(30.000000) translate(-20.174667, -31.472481) ">
                        <path d="M40.3484023,13.8042564 C40.3596502,13.7030373 40.2677923,13.6018183 40.1421906,13.5789007 L19.1442185,9.68865111 C19.0204915,9.66573359 18.9005138,9.72684698 18.8742687,9.82615625 L14.9693695,15.1239238 L15.5411382,25.329861 L10.4908269,35.843275 L11.221941,40.2453493 L14.5494475,41.1563208 L38.2056756,33.0778938 L38.3743942,27.65217 L40.2115527,26.1262449 L39.0248983,22.5224643 L34.9287846,20.6527764 L39.7916308,18.8174647 L40.3484023,13.8042564 Z" id="Fill-94" fill="#C5F5DB" transform="translate(25.420081, 25.420081) scale(-1, 1) translate(-25.420081, -25.420081) "></path>
                        <path d="M37.9283741,44.9237803 L22.4892833,25.0165872 C15.1997644,29.1776567 1.61397337,38.1876227 1.61397337,38.1876227 L14.5509192,60.5240012 L37.9283741,44.9237803 Z" id="Fill-96" fill="#C5F5DB" transform="translate(19.771174, 42.770294) scale(-1, 1) translate(-19.771174, -42.770294) "></path>
                        <path d="M7.38043444,11.1734353 L29.4633743,15.3304461 C29.5415647,15.3446063 29.6158457,15.2920115 29.629529,15.2110964 L31.4611405,4.79328328 C31.5295571,4.4069139 31.2813024,4.03672753 30.907943,3.96592686 L9.89425764,0.0112036152 C9.5208982,-0.0575741803 9.16317686,0.197308239 9.09476021,0.58367762 L7.26510352,11.0014908 C7.25142019,11.0824058 7.30224398,11.1592751 7.38043444,11.1734353" id="Fill-100" fill="#8AEAB7" transform="translate(19.367680, 7.666373) scale(-1, 1) translate(-19.367680, -7.666373) "></path>
                        <polygon id="Fill-103" fill="#3CDC87" transform="translate(19.771174, 12.911787) scale(-1, 1) translate(-19.771174, -12.911787) " points="29.8585073 14.7509321 29.7688255 15.332747 9.6838402 11.0726418 9.77352199 10.4908269"></polygon>
                        <path d="M2.23619783,62.9038734 L24.9044789,48.244904 C25.0209867,48.1705574 25.0510532,48.0200509 24.9740077,47.9076244 L23.0873333,45.1912543 L0,60.12041 L1.88667448,62.8367802 C1.96371995,62.9492067 2.11969005,62.97822 2.23619783,62.9038734" id="Fill-105" fill="#8AEAB7" transform="translate(12.508294, 54.068108) scale(-1, 1) translate(-12.508294, -54.068108) "></path>
                        <polygon id="Fill-107" fill="#3CDC87" transform="translate(18.157200, 4.841920) scale(-1, 1) translate(-18.157200, -4.841920) " points="7.34077815 2.42096005 29.0515206 6.78983107 28.9736226 7.26288015 7.26288015 2.89400913"></polygon>
                        <path d="M17.7869898,4.12015772 L21.7886404,4.80286846 C21.5898488,5.83903936 20.5287659,6.52659201 19.423794,6.34017809 C18.3188221,6.14892224 17.5856165,5.15632862 17.7869898,4.12015772" id="Fill-109" fill="#3CDC87" transform="translate(19.771174, 5.245413) scale(-1, 1) translate(-19.771174, -5.245413) "></path>
                        <polygon id="Fill-175" fill="#8AEAB7" transform="translate(29.455014, 29.858507) scale(-1, 1) translate(-29.455014, -29.858507) " points="24.7646499 33.086454 29.4235218 30.8726613 29.3290453 28.2380935 36.3144007 26.6305605 26.6581162 27.3982606 22.5956271 31.0581459"></polygon>
                        <polygon id="Fill-177" fill="#8AEAB7" transform="translate(26.227067, 16.946720) scale(-1, 1) translate(-26.227067, -16.946720) " points="28.3860628 18.5612142 33.8934407 15.4321565 29.5714717 14.1642948 23.7219959 16.5334682 22.1666439 13.7187736 18.5606937 16.3585907 20.3308513 20.1746671 27.1728087 17.9637161"></polygon>
                    </g>
                </g>
                <g id="icon/waste/1-copy" transform="translate(15.000000, 0.000000)">
                    <path d="M0,9.41405394 L0,28.8291072 C0,30.8650741 1.59890638,32.515858 3.57200126,32.515858 L17.9432827,32.9996294 L27.0148556,24.0143207 L44.2086509,32.515858 C49.6693604,32.515858 50.3788751,34.7776613 52.3608528,29.5238121 L56.3414634,18.8693775 C54.3594857,13.6155283 49.6693604,5.72730315 44.2086509,5.72730315 L16.9961527,0 L3.57200126,5.72730315 C1.59890638,5.72730315 0,7.37808709 0,9.41405394" id="Fill-85" fill="#C5F5DB"></path>
                    <polygon id="Fill-86" fill="#3CDC87" points="56.8812383 18.5121951 53.1219512 29.1569746 62.2407129 33 66 22.3540751"></polygon>
                    <polygon id="Fill-87" fill="#8AEAB7" points="54.1855482 28.9756098 53.9268293 29.5627913 61.7168908 32.195122 61.9756098 31.6089391"></polygon>
                    <polygon id="Fill-88" fill="#8AEAB7" points="54.9904263 27.3658537 54.7317073 27.9530352 62.5217689 30.5853659 62.7804878 29.999183"></polygon>
                    <polygon id="Fill-89" fill="#8AEAB7" points="54.9904263 24.9512195 54.7317073 25.538401 62.5217689 28.1707317 62.7804878 27.5845488"></polygon>
                    <polygon id="Fill-90" fill="#8AEAB7" points="55.7953043 24.1463415 55.5365854 24.733523 63.3266469 27.3658537 63.5853659 26.7796708"></polygon>
                    <polygon id="Fill-91" fill="#8AEAB7" points="55.7953043 23.3414634 55.5365854 23.9276463 63.3266469 26.5609756 63.5853659 25.9737941"></polygon>
                    <polygon id="Fill-92" fill="#8AEAB7" points="57.4050604 21.7317073 57.1463415 22.3178902 64.936403 24.9512195 65.195122 24.364038"></polygon>
                    <polygon id="Fill-93" fill="#8AEAB7" points="57.4050604 20.1219512 57.1463415 20.7081341 64.9375427 23.3414634 65.195122 22.7542819"></polygon>
                    <polygon id="Fill-94" fill="#8AEAB7" points="44.2682927 32.5138875 25.4489246 18.3682442 25.4489246 12.337915 20.5730833 9.65853659 13.6997487 16.782043 20.5730833 23.6567335 16.6236964 31.1039309 5.63414634 32.5138875 17.9594367 33 27.0460295 23.9712091"></polygon>
                    <polygon id="Fill-95" fill="#8AEAB7" points="48.8888463 22.1190951 45.2408202 23.3414634 36.2195122 13.1760979 47.7517709 13.5824468 46.6790788 10.4634146 48.8888463 10.4634146 51.5121951 15.0041143 48.69897 17.2429085"></polygon>
                    <polygon id="Fill-96" fill="#8AEAB7" points="16.097561 4.82926829 6.30902292 18.7473478 8.27239936 29.7804878 3.2195122 28.4621673 3.2195122 19.4109618 7.31960036 14.8113149 5.70398466 10.2450714"></polygon>
                </g>
                <g id="icon/waste/1-copy" transform="translate(15.000000, 290.000000)">
                    <path d="M0,9.41405394 L0,28.8291072 C0,30.8650741 1.59890638,32.515858 3.57200126,32.515858 L17.9432827,32.9996294 L27.0148556,24.0143207 L44.2086509,32.515858 C49.6693604,32.515858 50.3788751,34.7776613 52.3608528,29.5238121 L56.3414634,18.8693775 C54.3594857,13.6155283 49.6693604,5.72730315 44.2086509,5.72730315 L16.9961527,0 L3.57200126,5.72730315 C1.59890638,5.72730315 0,7.37808709 0,9.41405394" id="Fill-85" fill="#C5F5DB"></path>
                    <polygon id="Fill-86" fill="#3CDC87" points="56.8812383 18.5121951 53.1219512 29.1569746 62.2407129 33 66 22.3540751"></polygon>
                    <polygon id="Fill-87" fill="#8AEAB7" points="54.1855482 28.9756098 53.9268293 29.5627913 61.7168908 32.195122 61.9756098 31.6089391"></polygon>
                    <polygon id="Fill-88" fill="#8AEAB7" points="54.9904263 27.3658537 54.7317073 27.9530352 62.5217689 30.5853659 62.7804878 29.999183"></polygon>
                    <polygon id="Fill-89" fill="#8AEAB7" points="54.9904263 24.9512195 54.7317073 25.538401 62.5217689 28.1707317 62.7804878 27.5845488"></polygon>
                    <polygon id="Fill-90" fill="#8AEAB7" points="55.7953043 24.1463415 55.5365854 24.733523 63.3266469 27.3658537 63.5853659 26.7796708"></polygon>
                    <polygon id="Fill-91" fill="#8AEAB7" points="55.7953043 23.3414634 55.5365854 23.9276463 63.3266469 26.5609756 63.5853659 25.9737941"></polygon>
                    <polygon id="Fill-92" fill="#8AEAB7" points="57.4050604 21.7317073 57.1463415 22.3178902 64.936403 24.9512195 65.195122 24.364038"></polygon>
                    <polygon id="Fill-93" fill="#8AEAB7" points="57.4050604 20.1219512 57.1463415 20.7081341 64.9375427 23.3414634 65.195122 22.7542819"></polygon>
                    <polygon id="Fill-94" fill="#8AEAB7" points="44.2682927 32.5138875 25.4489246 18.3682442 25.4489246 12.337915 20.5730833 9.65853659 13.6997487 16.782043 20.5730833 23.6567335 16.6236964 31.1039309 5.63414634 32.5138875 17.9594367 33 27.0460295 23.9712091"></polygon>
                    <polygon id="Fill-95" fill="#8AEAB7" points="48.8888463 22.1190951 45.2408202 23.3414634 36.2195122 13.1760979 47.7517709 13.5824468 46.6790788 10.4634146 48.8888463 10.4634146 51.5121951 15.0041143 48.69897 17.2429085"></polygon>
                    <polygon id="Fill-96" fill="#8AEAB7" points="16.097561 4.82926829 6.30902292 18.7473478 8.27239936 29.7804878 3.2195122 28.4621673 3.2195122 19.4109618 7.31960036 14.8113149 5.70398466 10.2450714"></polygon>
                </g>
                <g id="icon/waste/1-copy" transform="translate(15.000000, 140.000000)">
                    <path d="M0,9.41405394 L0,28.8291072 C0,30.8650741 1.59890638,32.515858 3.57200126,32.515858 L17.9432827,32.9996294 L27.0148556,24.0143207 L44.2086509,32.515858 C49.6693604,32.515858 50.3788751,34.7776613 52.3608528,29.5238121 L56.3414634,18.8693775 C54.3594857,13.6155283 49.6693604,5.72730315 44.2086509,5.72730315 L16.9961527,0 L3.57200126,5.72730315 C1.59890638,5.72730315 0,7.37808709 0,9.41405394" id="Fill-85" fill="#C5F5DB"></path>
                    <polygon id="Fill-86" fill="#3CDC87" points="56.8812383 18.5121951 53.1219512 29.1569746 62.2407129 33 66 22.3540751"></polygon>
                    <polygon id="Fill-87" fill="#8AEAB7" points="54.1855482 28.9756098 53.9268293 29.5627913 61.7168908 32.195122 61.9756098 31.6089391"></polygon>
                    <polygon id="Fill-88" fill="#8AEAB7" points="54.9904263 27.3658537 54.7317073 27.9530352 62.5217689 30.5853659 62.7804878 29.999183"></polygon>
                    <polygon id="Fill-89" fill="#8AEAB7" points="54.9904263 24.9512195 54.7317073 25.538401 62.5217689 28.1707317 62.7804878 27.5845488"></polygon>
                    <polygon id="Fill-90" fill="#8AEAB7" points="55.7953043 24.1463415 55.5365854 24.733523 63.3266469 27.3658537 63.5853659 26.7796708"></polygon>
                    <polygon id="Fill-91" fill="#8AEAB7" points="55.7953043 23.3414634 55.5365854 23.9276463 63.3266469 26.5609756 63.5853659 25.9737941"></polygon>
                    <polygon id="Fill-92" fill="#8AEAB7" points="57.4050604 21.7317073 57.1463415 22.3178902 64.936403 24.9512195 65.195122 24.364038"></polygon>
                    <polygon id="Fill-93" fill="#8AEAB7" points="57.4050604 20.1219512 57.1463415 20.7081341 64.9375427 23.3414634 65.195122 22.7542819"></polygon>
                    <polygon id="Fill-94" fill="#8AEAB7" points="44.2682927 32.5138875 25.4489246 18.3682442 25.4489246 12.337915 20.5730833 9.65853659 13.6997487 16.782043 20.5730833 23.6567335 16.6236964 31.1039309 5.63414634 32.5138875 17.9594367 33 27.0460295 23.9712091"></polygon>
                    <polygon id="Fill-95" fill="#8AEAB7" points="48.8888463 22.1190951 45.2408202 23.3414634 36.2195122 13.1760979 47.7517709 13.5824468 46.6790788 10.4634146 48.8888463 10.4634146 51.5121951 15.0041143 48.69897 17.2429085"></polygon>
                    <polygon id="Fill-96" fill="#8AEAB7" points="16.097561 4.82926829 6.30902292 18.7473478 8.27239936 29.7804878 3.2195122 28.4621673 3.2195122 19.4109618 7.31960036 14.8113149 5.70398466 10.2450714"></polygon>
                </g>
                <g id="icon/waste/2-copy" transform="translate(0.000000, 39.000000)">
                    <polygon id="Fill-1" fill="#3CDC87" points="1.60526316 17.6709961 22.4434235 15.7086473 45.5216625 2.42105263 61 38.6751958 7.19877176 44.3859649"></polygon>
                    <g id="Group-6" transform="translate(45.750000, 0.000000)" fill="#C5F5DB">
                        <path d="M0,0 C0,0 2.55466556,25.5476059 15.25,40.3508772 C15.25,40.3508772 11.2899243,21.9832873 0,0" id="Fill-4"></path>
                    </g>
                    <path d="M1.13662403,17.8671857 C1.13662403,17.8671857 0.61532027,16.8370485 0.0801041686,16.957102 C-0.455111933,17.0763811 1.6849341,35.4887279 6.7040172,46 L7.22368421,44.4857758 L6.95443941,44.5128847 L1.13662403,17.8671857 Z" id="Fill-7" fill="#C5F5DB"></path>
                    <path d="M40.1315789,4.66582036 C40.1315789,4.66582036 47.0597858,22.9449796 55.9983616,38.7368421 L57.7894737,38.541406 L43.9168473,2.42105263 L40.1315789,4.66582036 Z" id="Fill-10" fill="#8AEAB7"></path>
                    <g id="Group-14" transform="translate(43.342105, 0.000000)">
                        <mask id="mask-2" fill="white">
                            <use xlink:href="#path-1"></use>
                        </mask>
                        <g id="Clip-13"></g>
                        <path d="M2.11466513,0.0541335044 C2.11466513,0.0541335044 1.03836997,-0.371146636 0.0501424101,1.15894565 C-0.938864508,2.68827441 13.0116665,38.9668846 14.6054562,39.8266071 C16.2000253,40.6863296 17.6582065,40.2297452 17.6582065,40.2297452 C17.6582065,40.2297452 5.66854341,25.7366256 2.11466513,0.0541335044" id="Fill-12" fill="#FFEAEB" mask="url(#mask-2)"></path>
                    </g>
                    <path d="M45.75,1.61403509 C45.75,1.61403509 54.0154695,17.0846124 59.3947368,39.5438596 C59.3947368,39.5438596 47.7186363,20.8105189 45.75,1.61403509" id="Fill-15" fill="#8AEAB7"></path>
                    <polygon id="Fill-21" fill="#8AEAB7" points="22.1451563 16.1542814 15.25 22.4877342 24.83875 23.4035088 36.1184211 8.07017544"></polygon>
                </g>
                <g id="icon/waste/2-copy" transform="translate(0.000000, 190.000000)">
                    <polygon id="Fill-1" fill="#3CDC87" points="1.60526316 17.6709961 22.4434235 15.7086473 45.5216625 2.42105263 61 38.6751958 7.19877176 44.3859649"></polygon>
                    <g id="Group-6" transform="translate(45.750000, 0.000000)" fill="#C5F5DB">
                        <path d="M0,0 C0,0 2.55466556,25.5476059 15.25,40.3508772 C15.25,40.3508772 11.2899243,21.9832873 0,0" id="Fill-4"></path>
                    </g>
                    <path d="M1.13662403,17.8671857 C1.13662403,17.8671857 0.61532027,16.8370485 0.0801041686,16.957102 C-0.455111933,17.0763811 1.6849341,35.4887279 6.7040172,46 L7.22368421,44.4857758 L6.95443941,44.5128847 L1.13662403,17.8671857 Z" id="Fill-7" fill="#C5F5DB"></path>
                    <path d="M40.1315789,4.66582036 C40.1315789,4.66582036 47.0597858,22.9449796 55.9983616,38.7368421 L57.7894737,38.541406 L43.9168473,2.42105263 L40.1315789,4.66582036 Z" id="Fill-10" fill="#8AEAB7"></path>
                    <g id="Group-14" transform="translate(43.342105, 0.000000)">
                        <mask id="mask-4" fill="white">
                            <use xlink:href="#path-3"></use>
                        </mask>
                        <g id="Clip-13"></g>
                        <path d="M2.11466513,0.0541335044 C2.11466513,0.0541335044 1.03836997,-0.371146636 0.0501424101,1.15894565 C-0.938864508,2.68827441 13.0116665,38.9668846 14.6054562,39.8266071 C16.2000253,40.6863296 17.6582065,40.2297452 17.6582065,40.2297452 C17.6582065,40.2297452 5.66854341,25.7366256 2.11466513,0.0541335044" id="Fill-12" fill="#FFEAEB" mask="url(#mask-4)"></path>
                    </g>
                    <path d="M45.75,1.61403509 C45.75,1.61403509 54.0154695,17.0846124 59.3947368,39.5438596 C59.3947368,39.5438596 47.7186363,20.8105189 45.75,1.61403509" id="Fill-15" fill="#8AEAB7"></path>
                    <polygon id="Fill-21" fill="#8AEAB7" points="22.1451563 16.1542814 15.25 22.4877342 24.83875 23.4035088 36.1184211 8.07017544"></polygon>
                </g>
            </g>
        </g>
    </g>
</svg>