<?xml version="1.0" encoding="UTF-8"?>
<svg width="107px" height="275px" viewBox="0 0 107 275" version="1.1" xmlns="http://www.w3.org/2000/svg" xmlns:xlink="http://www.w3.org/1999/xlink">
    <title>stage1</title>
    <defs>
        <polygon id="path-1" points="0 0 46 0 46 46 0 46"></polygon>
        <polygon id="path-3" points="0 0 23 0 23 28 0 28"></polygon>
        <polygon id="path-5" points="0 0 46 0 46 46 0 46"></polygon>
        <polygon id="path-7" points="0 0 23 0 23 28 0 28"></polygon>
        <polygon id="path-9" points="0 0 46 0 46 46 0 46"></polygon>
        <polygon id="path-11" points="0 0 23 0 23 28 0 28"></polygon>
    </defs>
    <g id="Page-1" stroke="none" stroke-width="1" fill="none" fill-rule="evenodd">
        <g id="Chapter3" transform="translate(-395.000000, -12100.000000)">
            <g id="illust/cr/stage1" transform="translate(369.000000, 12028.000000)">
                <g id="Group" transform="translate(25.000000, 51.000000)">
                    <g id="Group-2" transform="translate(-2.000000, 21.000000)">
                        <g id="Group" transform="translate(7.773086, 0.000000)">
                            <g id="Group-4">
                                <path d="M22.0863466,3.28220352 C20.5272029,5.43184794 19.4001647,7.90885734 18.2910989,10.3545399 C17.8162897,11.4016379 17.3413269,12.4488926 16.8666714,13.4959906 C16.1944731,14.9783743 15.5202778,16.4654571 15,18 C18.3202849,14.6749744 21.6408769,11.3499487 24.9611618,8.02476646 C26.0540985,6.93036501 27.2020277,5.74965824 27.7322901,4.24127324 C28.2637815,2.72724941 28.0825214,-0.116596707 26.4693069,0.00369817193 C24.8267529,0.12634256 23.1947979,1.753926 22.0863466,3.28220352" id="Fill-294" fill="#3CDC87"></path>
                                <path d="M43.0947567,12.469834 C41.3551608,13.6780812 39.897199,15.3881971 38.4921407,17.0910898 C37.0870825,18.7939825 35.6820243,20.5414189 34,21.8676466 C34.86513,23.0871802 35.9014188,24.1434372 37.0730786,25 C37.9008649,23.784078 38.744211,22.579593 39.601561,21.3871467 C40.8743602,19.6192444 42.2000629,17.8549537 43.8058438,16.4688327 C45.4116246,15.0825613 47.3472751,14.0956781 49.1553345,14.1689645 C49.6703669,14.1897315 50.1853993,14.2923625 50.7113237,14.1032024 C50.806239,14.0685907 50.9104903,14.0156199 50.9649499,13.9159986 C51.0536413,13.7543773 50.95717,13.5876394 50.8622546,13.4731201 C50.0204645,12.4636641 48.8954843,11.1258489 47.5137659,11.0141888 C46.0589161,10.8968102 44.4640272,11.5187663 43.0947567,12.469834" id="Fill-295" fill="#3CDC87"></path>
                                <path d="M19.1503282,9.81804669 C15.804111,13.8199486 13.265483,18.5339211 10.7655271,23.1899578 C7.11320871,29.9922486 3.42674048,36.8742592 1.12840897,44.1607394 C1.04061735,44.4392952 0.953917285,44.7424157 1.02798659,44.9891453 C1.12560213,45.3146678 1.4586801,45.4183344 1.75714041,45.4957367 C11.286975,47.9676678 18.5612044,55.5728727 28.1064765,58 C33.9914776,52.192198 38.8129995,44.8845518 41.9457412,37.0239655 C43.3242099,33.562335 44.3908079,29.9781895 46.1388434,26.6705912 C48.5449263,22.1140498 52.2811379,17.9344778 53,13.0096187 C51.6729899,11.9592025 50.1635355,11.1739009 48.5386889,10.6883209 C46.9029268,16.0703328 43.8107283,21.174098 39.8452917,25.0334004 C35.262351,19.6388743 27.7790123,18.5957194 21.843644,15.0892852 C23.7897175,13.0239868 25.7487337,10.9426208 27.3869907,8.56555012 C29.0249359,6.18878841 30.3410305,3.47012773 30.7573779,0.699710987 C30.6575793,1.36944981 27.1206531,0.00957873287 26.9806231,0 C26.9806231,0 26.2541202,1.62251375 25.8543019,2.1837966 C23.865658,4.97429778 21.322508,7.21989265 19.1503282,9.81804669" id="Fill-296" fill="#C5F5DB"></path>
                                <path d="M26.9568134,58 C32.8093367,52.2428113 37.6042498,44.9986959 40.7197027,37.2067655 C42.0905641,33.7753021 43.1512758,30.2223914 44.8896644,26.9436179 C45.2354812,26.2890577 45.6107622,25.6423082 46,25 C44.4849191,26.3625694 43.1884937,28.0847333 42.2720016,29.9828658 C41.7571532,31.0492445 41.3601617,32.1635588 40.8530671,33.2334599 C40.1971006,34.6153261 39.3674504,35.9069873 38.6168883,37.2410709 C37.0072118,40.104963 35.7573088,43.1846424 33.9181216,45.895232 C32.5813767,47.8658041 30.9685987,49.5882743 29.366676,51.2965017 C28.6610856,52.0487711 27.9151757,52.8296794 27.0421046,53.1685988 C25.4868593,53.7724665 24.105608,52.8034909 22.957279,51.8689738 C23.3133308,52.8881824 23.9589072,53.7222336 24.7930546,54.2404908 C24.3483,54.6876868 23.7542085,54.4343778 23.3317847,54.1522768 C17.0487737,49.9588957 10.9121533,45.2588966 3.49926731,43.4321317 C2.51686839,43.1901557 1.43118965,43.0132683 0.402113216,43.5646058 C0.383969463,43.5742542 0.366911234,43.5861999 0.348922556,43.5964609 C0.273866348,43.824347 0.200050739,44.0525395 0.127785878,44.2813446 C0.0403236854,44.5574728 -0.0457428338,44.8577985 0.0277626258,45.1025311 C0.124839456,45.4252167 0.456079249,45.5279799 0.752892434,45.6047077 C10.2299793,48.0550966 17.4642191,55.5941775 26.9568134,58" id="Fill-297" fill="#3CDC87"></path>
                                <path d="M9.69075115,33 C9.3284699,33 8.98778893,32.7886781 9.00033615,32.3933511 C9.00573623,32.2199352 9.07847836,32.0432964 9.1524911,31.874331 C10.0068141,29.924706 11.2258008,28.1435861 12.3124858,26.3023077 C13.3991707,24.4610294 14.3824601,22.4768747 14.6461107,20.4476011 C14.7698358,19.4953481 14.790642,18.4123425 15.4689862,17.6913618 C16.0104228,17.1161733 16.7704034,17.0087475 17.4406476,17.0007673 C17.4832128,17.0003069 17.5253016,17 17.5675492,17 C22.209387,17 26.1706569,19.9798385 29.9521362,22.0190873 C31.1814466,22.682058 32.4774637,23.4223753 33,24.8394751 C32.0565758,24.3775442 31.1004455,23.9352568 30.136374,23.5127664 C29.2453622,23.1226573 28.3368796,22.7466669 27.341043,22.6366322 C27.099628,22.6099292 26.8550365,22.5990332 26.6072686,22.5990332 C26.0637673,22.5990332 25.5085129,22.6519787 24.9535761,22.7049243 C24.3984806,22.7578699 23.8437027,22.8108155 23.3003602,22.8108155 C22.9620616,22.8108155 22.6280513,22.7902511 22.301347,22.7362313 C21.3042397,22.5718698 20.4164045,22.1022655 19.4293032,21.9056763 C19.1748646,21.8550327 18.9072434,21.8264881 18.6348574,21.8264881 C17.8502589,21.8264881 17.0281774,22.0640526 16.3817571,22.6963303 C15.7899728,23.2750484 15.4446859,24.0833509 15.1046403,24.8517524 C14.1853575,26.9281398 13.1394908,28.9587945 11.977999,30.9213106 C11.4499038,31.8137121 10.7687007,32.7923613 9.88467724,32.9797426 C9.82067051,32.993401 9.75539318,33 9.69075115,33" id="Fill-298" fill="#8AEAB7"></path>
                            </g>
                            <g id="Group-32" transform="translate(79.000000, 64.000000) scale(-1, 1) translate(-79.000000, -64.000000) translate(56.000000, 41.000000)">
                                <g id="Group-3">
                                    <mask id="mask-2" fill="white">
                                        <use xlink:href="#path-1"></use>
                                    </mask>
                                    <g id="Clip-2"></g>
                                    <path d="M21.9854189,5.33439041 C21.4652472,5.68633262 20.9105851,5.63940699 20.3684169,5.62680011 C19.547334,5.60788978 18.3783555,5.66041847 16.8933322,5.98924806 C16.9060022,5.5191163 17.0077137,4.11152254 18.0837793,2.95361514 C18.4721483,2.53548678 19.3585166,1.5813907 20.5945403,1.7015063 C21.6222137,1.80113571 22.7853852,2.63283995 22.8191717,3.7362926 C22.8388805,4.36891311 22.4835941,4.99698113 21.9854189,5.33439041 M41.1198534,26.1900308 C41.8392248,23.8542551 42.6420067,20.7904318 43.2425973,17.1016921 C45.4228839,15.8800499 46.3660911,13.9937447 45.8712593,12.8363626 C45.7848573,12.6344774 45.5082301,12.1118169 44.577165,11.7460421 C44.4891793,11.4478543 44.1344208,10.3766192 43.2232405,10.0166226 C42.0278662,9.54421461 40.1771742,10.4160157 39.3076991,12.4430978 C38.3319373,12.6880566 37.2465452,13.0240651 36.0912925,13.4901697 C35.3210653,13.8009644 34.6173554,14.1301442 33.9810425,14.4600244 C30.8420633,12.8454676 27.7030841,11.2310859 24.5641049,9.6167042 C24.754858,8.81669227 24.9260782,7.93578616 25.0540095,6.9811648 C25.235612,5.6269752 25.2957943,4.38414643 25.2891074,3.28699722 C25.0536575,2.79357774 24.5748391,1.96134821 23.6726334,1.24730824 C22.1717726,0.0587591126 20.5144733,0.0100825278 19.9035003,0.000802459523 C17.2449232,-0.0408703001 15.3739945,1.55162444 14.6196048,2.19405031 C11.9717619,4.44770614 11.3424879,7.47143256 11.1747871,8.5193799 C10.4397543,8.90669143 7.89256712,10.3629618 6.57066938,13.5356946 C5.39729157,16.3514074 5.88297285,18.8552749 6.09044322,19.7137687 C5.35910576,20.0238631 4.21581907,20.6015036 3.08643413,21.6429724 C2.38677154,22.2883749 -0.595945005,25.0391272 0.106181189,27.9509675 C0.47079409,29.4641439 1.67707857,30.3826956 2.8817793,31.3000216 C4.49860523,32.5311189 6.11842268,33.0451997 7.10826224,33.2770263 C7.84927813,34.6835695 9.30843362,36.9834506 11.9399111,38.9343661 C16.1764244,42.0747062 20.682878,42.2580313 22.3005838,42.246475 C22.6196201,42.8097576 23.1587967,43.6039914 24.0270399,44.3532256 C25.1947867,45.3612511 26.3938563,45.8012665 27.0956306,46 C27.6103471,45.4701606 28.1775032,44.8021708 28.7184395,43.9806221 C29.5928418,42.6514712 30.0938326,41.3855298 30.3894647,40.4102471 C31.2923743,39.9479947 33.1258211,38.8431413 34.3620208,36.6642513 C34.9006695,35.7141824 35.1832796,34.8120897 35.3377826,34.0992754 C35.9156729,33.8434607 36.7193347,33.4214802 37.5400656,32.7342299 C39.2742646,31.2819867 40.1124167,29.4599416 41.1198534,26.1900308" id="Fill-1" fill="#C5F5DB" mask="url(#mask-2)"></path>
                                </g>
                                <path d="M21.2435105,13 L17.3229358,16.6647638 C16.7207979,18.1736061 16.1184795,19.6828045 15.5163417,21.1920029 C14.2528629,23.6758252 12.4154037,26.6395718 9.73809221,29.611329 C8.47334996,31.0149654 7.20481726,32.2169125 6,33.2403121 C6.02346461,33.2470766 6.04710971,33.2533071 6.07021332,33.2600716 C6.07635022,33.2618517 6.22814817,33.5003898 6.49474219,33.8879252 C6.81909524,34.3591269 9.08613716,37.4165086 11.1205185,38.9896138 C14.1640584,41.3433082 17.9664075,41.8600814 19.6421414,42 L20.2830861,39.0982021 C20.8798091,38.3229533 21.4736441,37.5345315 22.0642302,36.7329368 C26.3524772,30.9122516 29.9582651,25.0824878 33,19.386234 C29.0810498,17.2575487 25.1624606,15.1286853 21.2435105,13" id="Fill-4" fill="#3CDC87"></path>
                                <g id="Group-8" transform="translate(23.000000, 10.000000)">
                                    <mask id="mask-4" fill="white">
                                        <use xlink:href="#path-3"></use>
                                    </mask>
                                    <g id="Clip-7"></g>
                                    <path d="M9.2811594,23.8172145 C11.068876,22.4223629 12.7771699,21.9483894 13.2259963,21.8325056 C14.078643,21.6124149 14.8098613,21.5421769 15.3135777,21.519354 C15.4740115,21.0729802 15.6139719,20.5691069 15.7052198,20.0114494 C16.095097,17.6274279 15.370762,15.6280345 14.870752,14.556596 C15.7846425,13.7241789 16.6980035,12.8917618 17.6118939,12.0598754 C18.0988433,11.7844081 18.7661704,11.3369729 19.4806216,10.7998382 C19.7488938,9.58385462 20.0081648,8.30488683 20.2344312,6.90525837 C22.4212027,5.67087488 23.3672152,3.76507311 22.8709116,2.59561992 C22.7842527,2.39145215 22.5068027,1.86334054 21.5729684,1.49375087 C21.49937,1.24216805 21.2171547,0.467958196 20.6015406,0 C20.0219314,0.146668183 19.1209251,0.445135282 18.2204482,1.10523057 C16.1270425,2.64038114 16.1499869,4.58245188 14.2238983,6.15015607 C13.6068722,6.6524371 12.5833785,7.28422489 10.9276801,7.57066131 C7.28500239,13.7454095 3.6423247,19.9203346 0,26.0949059 C0.926774579,26.3335734 1.92555907,26.6334559 2.97746851,27.0129532 C3.85288308,27.3287586 4.66352403,27.6629639 5.40744993,28 C5.82274236,27.4564962 6.41911854,26.7137784 7.18757722,25.8755229 C8.10005571,24.8803377 8.55629496,24.3830105 9.2811594,23.8172145" id="Fill-6" fill="#8AEAB7" mask="url(#mask-4)"></path>
                                </g>
                                <path d="M24,30.1019388 C23.6689804,29.9170415 20.601843,28.269249 16.9590115,29.3842634 C13.1390019,30.55391 12.0867042,33.720904 12,34 C16.0000598,32.7008492 20.0001197,31.401394 24,30.1019388" id="Fill-9" fill="#32B472"></path>
                                <g id="Group-15" transform="translate(13.000000, 30.000000)" fill="#3CDC87">
                                    <path d="M10.9156588,0.107685973 C10.9277817,0.090839394 10.9399047,0.074157978 10.9522009,0.057476562 C10.9260499,0.0672211516 10.9005917,0.0768005786 10.8746139,0.0867103306 C10.8856977,0.0929865069 10.9047481,0.101740121 10.9156588,0.107685973" id="Fill-11"></path>
                                    <path d="M0,4.33910056 C1.15168194,4.67025144 2.65163943,4.98620737 4.47476061,4.99958553 C5.64791753,5.00784366 6.68460446,4.8917344 7.54602792,4.73730743 C8.58929589,3.30402695 9.6322175,1.8710768 10.6753123,0.438126655 C7.11670167,1.73828613 3.55826424,3.03861076 0,4.33910056" id="Fill-13"></path>
                                </g>
                                <path d="M35.9083617,12.7739541 C35.1748562,13.0784381 34.5048642,13.4012873 33.8988885,13.7246514 C30.923809,12.1497104 27.9490648,10.574941 24.9743205,9 C24.6497146,9.51062004 24.3249411,10.0208968 24,10.5313452 C27.1979632,12.6876207 30.3959264,14.8437245 33.5940572,17 C33.8762649,16.9660159 37.1352279,16.5168419 38.628214,13.5234928 C39.0131494,12.7521562 39.0377839,11.5882858 38.9714215,11.7475649 C38.0421805,11.987685 37.0085361,12.3170564 35.9083617,12.7739541" id="Fill-16" fill-opacity="0.9" fill="#3CDC87"></path>
                                <path d="M22,5.85273044 C21.29804,6.80499613 20.5962567,7.75709237 19.8942967,8.70935806 C17.7513133,8.1257988 16.4364414,8.44621418 15.6415463,8.82966208 C14.6173173,9.32358637 14.4584796,9.92002324 12.7658602,11.0705364 C11.4635327,11.9558724 10.9960305,11.9843387 10.1647389,12.5262151 C9.14404344,13.1914456 7.86998516,14.4378631 7,17 C7.13339537,14.0252711 8.14702349,12.498596 9.05234517,11.6534179 C10.3640368,10.4290279 11.4951589,10.5920314 12.5633819,9.13109992 C13.6941506,7.58510844 13.0663973,6.54524109 14.0241937,5.1842806 C14.6367523,4.31402498 15.8756508,3.34701782 18.641087,3 C18.2854249,3.26941325 17.6801102,3.80146204 17.2368136,4.65951782 C16.857476,5.39388071 16.7532333,6.06385554 16.7224905,6.47695585 C17.5620863,6.24261716 18.5803081,6.02691712 19.7481802,5.91711851 C20.5741714,5.83951394 21.330903,5.82833075 22,5.85273044" id="Fill-18" fill-opacity="0.9" fill="#3CDC87"></path>
                                <path d="M23.3939394,11 C22.7678451,11.4788354 21.520202,12.2817837 19.8143098,12.4141476 C19.1690236,12.4642312 18.5986532,12.4075294 18.1335017,12.3182732 C18.0584175,12.532023 17.4503367,14.1806694 15.8055556,14.7217517 C14.7582492,15.0662556 13.8585859,14.7746972 13.5319865,14.6494881 C13.2553872,18.530792 12.2175084,27.8599447 12,28 C14.1772727,26.603024 15.709596,25.4108543 16.202862,24.8964236 C16.4319865,24.6572742 16.6439394,24.4141897 16.6439394,24.4141897 C16.9717172,24.0331962 17.1930976,23.7201734 17.4722222,23.3660105 C18.2488215,22.3800781 22.0292929,19.4736166 23.1430976,18.5547606 C24.2508418,17.640734 25.683165,16.1793647 27,13.8127335 C26.4156566,13.3920308 25.8190236,12.9464652 25.2124579,12.4740691 C24.5771044,11.9796719 23.9712121,11.4870635 23.3939394,11" id="Fill-20" fill="#8AEAB7"></path>
                                <path d="M21.5989141,13 L17.8970869,16.6627762 C17.3285452,18.1708003 16.759833,19.6790022 16.1914616,21.18756 C15.2137266,23.2220404 13.8436705,25.5810412 12,28 C14.0631794,26.6835925 15.5281629,25.5659182 16.0072309,25.0748675 C16.239181,24.8369925 16.453918,24.5950254 16.453918,24.5950254 C16.7853969,24.2162403 17.0098482,23.9047077 17.292074,23.55261 C18.0785908,22.5717539 21.9056813,19.6807814 23.0330505,18.767 C23.895407,18.0679643 24.9515381,17.0358681 26,15.5305128 C24.5331418,14.6870085 23.0659428,13.8435043 21.5989141,13" id="Fill-24" fill="#3CDC87"></path>
                                <path d="M4.36495884,22 C4.25229144,22.1194621 1.92239833,24.5902378 1.80955891,24.7100663 C1.75296719,24.7699806 0.0565917189,26.5686907 0,26.6287882 C2.31871237,26.7524644 4.63759676,26.8761406 6.95648114,27 C6.9711021,26.589395 6.98537904,26.1791564 7,25.7685514 C5.81346603,25.5184507 4.62693206,25.2683499 3.44039808,25.0182491 C3.74864234,24.0119829 4.05671458,23.006083 4.36495884,22" id="Fill-26" fill="#8AEAB7"></path>
                                <path d="M32.1283385,35.2980651 C30.9987327,36.3396452 30.5801719,36.9916023 29.9628371,37.6543138 C28.2791043,39.4615644 27.2335496,39.0754675 26.2195141,40.2157755 C25.0746571,41.5038228 24.7923404,43.818112 25.1383732,45.630299 C25.4740691,45.7762754 25.8243384,45.9296563 26.062935,46 C26.5585991,45.4665164 27.1047617,44.7939322 27.625675,43.9667329 C28.4678803,42.6284401 28.9501572,41.3537916 29.2348463,40.3718009 C30.1043344,39.9063691 31.8699153,38.7939165 33.0603564,36.6000402 C33.5790668,35.6434367 33.851216,34.7351395 34,34.0174224 C33.6431218,33.9015934 33.1381376,34.3672015 32.1283385,35.2980651" id="Fill-28" fill="#8AEAB7"></path>
                                <path d="M5,22 C5.19055383,20.0359497 5.82573325,19.2777607 6.38877319,18.9544022 C7.19409624,18.4919266 7.74921843,19.0036284 9.05705463,18.5434713 C9.46754593,18.3991817 10.9205409,17.8881933 11.507334,16.6177674 C12.0888487,15.3594697 11.2995371,14.4821392 11.9211684,13.8092041 C12.4727716,13.21207 13.1890639,13.800108 14.7328491,13.4109364 C16.4934046,12.967188 16.4316461,11.9832009 18.032439,11.7063933 C19.249661,11.4959338 19.5294215,12.0008581 20.9841759,11.701756 C22.27125,11.4368982 22.8624419,10.871333 22.9805044,11.0265023 C23.1656037,11.2699575 22.018058,13.0579709 20.1594983,13.5652138 C18.8534216,13.921568 17.7227671,13.5018976 17.2874668,13.3126625 C17.1373815,13.6290651 16.5928163,14.6758332 15.3564158,15.254775 C14.4180746,15.6944212 13.5611982,15.6393094 13.1866006,15.5922236 C13.1524663,16.0377555 13.0569255,16.6834022 12.7711827,17.4034232 C12.2431569,18.73449 11.3894476,19.5042721 10.9676955,19.8845259 C8.77940556,21.8578507 5.69764167,21.9851965 5,22" id="Fill-30" fill="#8AEAB7"></path>
                            </g>
                        </g>
                        <g id="Group-Copy" transform="translate(3.273086, 98.500000)">
                            <g id="Group-4" transform="translate(29.000000, 26.500000) rotate(-90.000000) translate(-29.000000, -26.500000) translate(2.500000, -2.500000)">
                                <path d="M22.0863466,3.28220352 C20.5272029,5.43184794 19.4001647,7.90885734 18.2910989,10.3545399 C17.8162897,11.4016379 17.3413269,12.4488926 16.8666714,13.4959906 C16.1944731,14.9783743 15.5202778,16.4654571 15,18 C18.3202849,14.6749744 21.6408769,11.3499487 24.9611618,8.02476646 C26.0540985,6.93036501 27.2020277,5.74965824 27.7322901,4.24127324 C28.2637815,2.72724941 28.0825214,-0.116596707 26.4693069,0.00369817193 C24.8267529,0.12634256 23.1947979,1.753926 22.0863466,3.28220352" id="Fill-294" fill="#3CDC87"></path>
                                <path d="M43.0947567,12.469834 C41.3551608,13.6780812 39.897199,15.3881971 38.4921407,17.0910898 C37.0870825,18.7939825 35.6820243,20.5414189 34,21.8676466 C34.86513,23.0871802 35.9014188,24.1434372 37.0730786,25 C37.9008649,23.784078 38.744211,22.579593 39.601561,21.3871467 C40.8743602,19.6192444 42.2000629,17.8549537 43.8058438,16.4688327 C45.4116246,15.0825613 47.3472751,14.0956781 49.1553345,14.1689645 C49.6703669,14.1897315 50.1853993,14.2923625 50.7113237,14.1032024 C50.806239,14.0685907 50.9104903,14.0156199 50.9649499,13.9159986 C51.0536413,13.7543773 50.95717,13.5876394 50.8622546,13.4731201 C50.0204645,12.4636641 48.8954843,11.1258489 47.5137659,11.0141888 C46.0589161,10.8968102 44.4640272,11.5187663 43.0947567,12.469834" id="Fill-295" fill="#3CDC87"></path>
                                <path d="M19.1503282,9.81804669 C15.804111,13.8199486 13.265483,18.5339211 10.7655271,23.1899578 C7.11320871,29.9922486 3.42674048,36.8742592 1.12840897,44.1607394 C1.04061735,44.4392952 0.953917285,44.7424157 1.02798659,44.9891453 C1.12560213,45.3146678 1.4586801,45.4183344 1.75714041,45.4957367 C11.286975,47.9676678 18.5612044,55.5728727 28.1064765,58 C33.9914776,52.192198 38.8129995,44.8845518 41.9457412,37.0239655 C43.3242099,33.562335 44.3908079,29.9781895 46.1388434,26.6705912 C48.5449263,22.1140498 52.2811379,17.9344778 53,13.0096187 C51.6729899,11.9592025 50.1635355,11.1739009 48.5386889,10.6883209 C46.9029268,16.0703328 43.8107283,21.174098 39.8452917,25.0334004 C35.262351,19.6388743 27.7790123,18.5957194 21.843644,15.0892852 C23.7897175,13.0239868 25.7487337,10.9426208 27.3869907,8.56555012 C29.0249359,6.18878841 30.3410305,3.47012773 30.7573779,0.699710987 C30.6575793,1.36944981 27.1206531,0.00957873287 26.9806231,0 C26.9806231,0 26.2541202,1.62251375 25.8543019,2.1837966 C23.865658,4.97429778 21.322508,7.21989265 19.1503282,9.81804669" id="Fill-296" fill="#C5F5DB"></path>
                                <path d="M26.9568134,58 C32.8093367,52.2428113 37.6042498,44.9986959 40.7197027,37.2067655 C42.0905641,33.7753021 43.1512758,30.2223914 44.8896644,26.9436179 C45.2354812,26.2890577 45.6107622,25.6423082 46,25 C44.4849191,26.3625694 43.1884937,28.0847333 42.2720016,29.9828658 C41.7571532,31.0492445 41.3601617,32.1635588 40.8530671,33.2334599 C40.1971006,34.6153261 39.3674504,35.9069873 38.6168883,37.2410709 C37.0072118,40.104963 35.7573088,43.1846424 33.9181216,45.895232 C32.5813767,47.8658041 30.9685987,49.5882743 29.366676,51.2965017 C28.6610856,52.0487711 27.9151757,52.8296794 27.0421046,53.1685988 C25.4868593,53.7724665 24.105608,52.8034909 22.957279,51.8689738 C23.3133308,52.8881824 23.9589072,53.7222336 24.7930546,54.2404908 C24.3483,54.6876868 23.7542085,54.4343778 23.3317847,54.1522768 C17.0487737,49.9588957 10.9121533,45.2588966 3.49926731,43.4321317 C2.51686839,43.1901557 1.43118965,43.0132683 0.402113216,43.5646058 C0.383969463,43.5742542 0.366911234,43.5861999 0.348922556,43.5964609 C0.273866348,43.824347 0.200050739,44.0525395 0.127785878,44.2813446 C0.0403236854,44.5574728 -0.0457428338,44.8577985 0.0277626258,45.1025311 C0.124839456,45.4252167 0.456079249,45.5279799 0.752892434,45.6047077 C10.2299793,48.0550966 17.4642191,55.5941775 26.9568134,58" id="Fill-297" fill="#3CDC87"></path>
                                <path d="M9.69075115,33 C9.3284699,33 8.98778893,32.7886781 9.00033615,32.3933511 C9.00573623,32.2199352 9.07847836,32.0432964 9.1524911,31.874331 C10.0068141,29.924706 11.2258008,28.1435861 12.3124858,26.3023077 C13.3991707,24.4610294 14.3824601,22.4768747 14.6461107,20.4476011 C14.7698358,19.4953481 14.790642,18.4123425 15.4689862,17.6913618 C16.0104228,17.1161733 16.7704034,17.0087475 17.4406476,17.0007673 C17.4832128,17.0003069 17.5253016,17 17.5675492,17 C22.209387,17 26.1706569,19.9798385 29.9521362,22.0190873 C31.1814466,22.682058 32.4774637,23.4223753 33,24.8394751 C32.0565758,24.3775442 31.1004455,23.9352568 30.136374,23.5127664 C29.2453622,23.1226573 28.3368796,22.7466669 27.341043,22.6366322 C27.099628,22.6099292 26.8550365,22.5990332 26.6072686,22.5990332 C26.0637673,22.5990332 25.5085129,22.6519787 24.9535761,22.7049243 C24.3984806,22.7578699 23.8437027,22.8108155 23.3003602,22.8108155 C22.9620616,22.8108155 22.6280513,22.7902511 22.301347,22.7362313 C21.3042397,22.5718698 20.4164045,22.1022655 19.4293032,21.9056763 C19.1748646,21.8550327 18.9072434,21.8264881 18.6348574,21.8264881 C17.8502589,21.8264881 17.0281774,22.0640526 16.3817571,22.6963303 C15.7899728,23.2750484 15.4446859,24.0833509 15.1046403,24.8517524 C14.1853575,26.9281398 13.1394908,28.9587945 11.977999,30.9213106 C11.4499038,31.8137121 10.7687007,32.7923613 9.88467724,32.9797426 C9.82067051,32.993401 9.75539318,33 9.69075115,33" id="Fill-298" fill="#8AEAB7"></path>
                            </g>
                            <g id="Group-32" transform="translate(81.500000, 61.500000) scale(-1, 1) rotate(-90.000000) translate(-81.500000, -61.500000) translate(58.500000, 38.500000)">
                                <g id="Group-3">
                                    <mask id="mask-6" fill="white">
                                        <use xlink:href="#path-5"></use>
                                    </mask>
                                    <g id="Clip-2"></g>
                                    <path d="M21.9854189,5.33439041 C21.4652472,5.68633262 20.9105851,5.63940699 20.3684169,5.62680011 C19.547334,5.60788978 18.3783555,5.66041847 16.8933322,5.98924806 C16.9060022,5.5191163 17.0077137,4.11152254 18.0837793,2.95361514 C18.4721483,2.53548678 19.3585166,1.5813907 20.5945403,1.7015063 C21.6222137,1.80113571 22.7853852,2.63283995 22.8191717,3.7362926 C22.8388805,4.36891311 22.4835941,4.99698113 21.9854189,5.33439041 M41.1198534,26.1900308 C41.8392248,23.8542551 42.6420067,20.7904318 43.2425973,17.1016921 C45.4228839,15.8800499 46.3660911,13.9937447 45.8712593,12.8363626 C45.7848573,12.6344774 45.5082301,12.1118169 44.577165,11.7460421 C44.4891793,11.4478543 44.1344208,10.3766192 43.2232405,10.0166226 C42.0278662,9.54421461 40.1771742,10.4160157 39.3076991,12.4430978 C38.3319373,12.6880566 37.2465452,13.0240651 36.0912925,13.4901697 C35.3210653,13.8009644 34.6173554,14.1301442 33.9810425,14.4600244 C30.8420633,12.8454676 27.7030841,11.2310859 24.5641049,9.6167042 C24.754858,8.81669227 24.9260782,7.93578616 25.0540095,6.9811648 C25.235612,5.6269752 25.2957943,4.38414643 25.2891074,3.28699722 C25.0536575,2.79357774 24.5748391,1.96134821 23.6726334,1.24730824 C22.1717726,0.0587591126 20.5144733,0.0100825278 19.9035003,0.000802459523 C17.2449232,-0.0408703001 15.3739945,1.55162444 14.6196048,2.19405031 C11.9717619,4.44770614 11.3424879,7.47143256 11.1747871,8.5193799 C10.4397543,8.90669143 7.89256712,10.3629618 6.57066938,13.5356946 C5.39729157,16.3514074 5.88297285,18.8552749 6.09044322,19.7137687 C5.35910576,20.0238631 4.21581907,20.6015036 3.08643413,21.6429724 C2.38677154,22.2883749 -0.595945005,25.0391272 0.106181189,27.9509675 C0.47079409,29.4641439 1.67707857,30.3826956 2.8817793,31.3000216 C4.49860523,32.5311189 6.11842268,33.0451997 7.10826224,33.2770263 C7.84927813,34.6835695 9.30843362,36.9834506 11.9399111,38.9343661 C16.1764244,42.0747062 20.682878,42.2580313 22.3005838,42.246475 C22.6196201,42.8097576 23.1587967,43.6039914 24.0270399,44.3532256 C25.1947867,45.3612511 26.3938563,45.8012665 27.0956306,46 C27.6103471,45.4701606 28.1775032,44.8021708 28.7184395,43.9806221 C29.5928418,42.6514712 30.0938326,41.3855298 30.3894647,40.4102471 C31.2923743,39.9479947 33.1258211,38.8431413 34.3620208,36.6642513 C34.9006695,35.7141824 35.1832796,34.8120897 35.3377826,34.0992754 C35.9156729,33.8434607 36.7193347,33.4214802 37.5400656,32.7342299 C39.2742646,31.2819867 40.1124167,29.4599416 41.1198534,26.1900308" id="Fill-1" fill="#C5F5DB" mask="url(#mask-6)"></path>
                                </g>
                                <path d="M21.2435105,13 L17.3229358,16.6647638 C16.7207979,18.1736061 16.1184795,19.6828045 15.5163417,21.1920029 C14.2528629,23.6758252 12.4154037,26.6395718 9.73809221,29.611329 C8.47334996,31.0149654 7.20481726,32.2169125 6,33.2403121 C6.02346461,33.2470766 6.04710971,33.2533071 6.07021332,33.2600716 C6.07635022,33.2618517 6.22814817,33.5003898 6.49474219,33.8879252 C6.81909524,34.3591269 9.08613716,37.4165086 11.1205185,38.9896138 C14.1640584,41.3433082 17.9664075,41.8600814 19.6421414,42 L20.2830861,39.0982021 C20.8798091,38.3229533 21.4736441,37.5345315 22.0642302,36.7329368 C26.3524772,30.9122516 29.9582651,25.0824878 33,19.386234 C29.0810498,17.2575487 25.1624606,15.1286853 21.2435105,13" id="Fill-4" fill="#3CDC87"></path>
                                <g id="Group-8" transform="translate(23.000000, 10.000000)">
                                    <mask id="mask-8" fill="white">
                                        <use xlink:href="#path-7"></use>
                                    </mask>
                                    <g id="Clip-7"></g>
                                    <path d="M9.2811594,23.8172145 C11.068876,22.4223629 12.7771699,21.9483894 13.2259963,21.8325056 C14.078643,21.6124149 14.8098613,21.5421769 15.3135777,21.519354 C15.4740115,21.0729802 15.6139719,20.5691069 15.7052198,20.0114494 C16.095097,17.6274279 15.370762,15.6280345 14.870752,14.556596 C15.7846425,13.7241789 16.6980035,12.8917618 17.6118939,12.0598754 C18.0988433,11.7844081 18.7661704,11.3369729 19.4806216,10.7998382 C19.7488938,9.58385462 20.0081648,8.30488683 20.2344312,6.90525837 C22.4212027,5.67087488 23.3672152,3.76507311 22.8709116,2.59561992 C22.7842527,2.39145215 22.5068027,1.86334054 21.5729684,1.49375087 C21.49937,1.24216805 21.2171547,0.467958196 20.6015406,0 C20.0219314,0.146668183 19.1209251,0.445135282 18.2204482,1.10523057 C16.1270425,2.64038114 16.1499869,4.58245188 14.2238983,6.15015607 C13.6068722,6.6524371 12.5833785,7.28422489 10.9276801,7.57066131 C7.28500239,13.7454095 3.6423247,19.9203346 0,26.0949059 C0.926774579,26.3335734 1.92555907,26.6334559 2.97746851,27.0129532 C3.85288308,27.3287586 4.66352403,27.6629639 5.40744993,28 C5.82274236,27.4564962 6.41911854,26.7137784 7.18757722,25.8755229 C8.10005571,24.8803377 8.55629496,24.3830105 9.2811594,23.8172145" id="Fill-6" fill="#8AEAB7" mask="url(#mask-8)"></path>
                                </g>
                                <path d="M24,30.1019388 C23.6689804,29.9170415 20.601843,28.269249 16.9590115,29.3842634 C13.1390019,30.55391 12.0867042,33.720904 12,34 C16.0000598,32.7008492 20.0001197,31.401394 24,30.1019388" id="Fill-9" fill="#32B472"></path>
                                <g id="Group-15" transform="translate(13.000000, 30.000000)" fill="#3CDC87">
                                    <path d="M10.9156588,0.107685973 C10.9277817,0.090839394 10.9399047,0.074157978 10.9522009,0.057476562 C10.9260499,0.0672211516 10.9005917,0.0768005786 10.8746139,0.0867103306 C10.8856977,0.0929865069 10.9047481,0.101740121 10.9156588,0.107685973" id="Fill-11"></path>
                                    <path d="M0,4.33910056 C1.15168194,4.67025144 2.65163943,4.98620737 4.47476061,4.99958553 C5.64791753,5.00784366 6.68460446,4.8917344 7.54602792,4.73730743 C8.58929589,3.30402695 9.6322175,1.8710768 10.6753123,0.438126655 C7.11670167,1.73828613 3.55826424,3.03861076 0,4.33910056" id="Fill-13"></path>
                                </g>
                                <path d="M35.9083617,12.7739541 C35.1748562,13.0784381 34.5048642,13.4012873 33.8988885,13.7246514 C30.923809,12.1497104 27.9490648,10.574941 24.9743205,9 C24.6497146,9.51062004 24.3249411,10.0208968 24,10.5313452 C27.1979632,12.6876207 30.3959264,14.8437245 33.5940572,17 C33.8762649,16.9660159 37.1352279,16.5168419 38.628214,13.5234928 C39.0131494,12.7521562 39.0377839,11.5882858 38.9714215,11.7475649 C38.0421805,11.987685 37.0085361,12.3170564 35.9083617,12.7739541" id="Fill-16" fill-opacity="0.9" fill="#3CDC87"></path>
                                <path d="M22,5.85273044 C21.29804,6.80499613 20.5962567,7.75709237 19.8942967,8.70935806 C17.7513133,8.1257988 16.4364414,8.44621418 15.6415463,8.82966208 C14.6173173,9.32358637 14.4584796,9.92002324 12.7658602,11.0705364 C11.4635327,11.9558724 10.9960305,11.9843387 10.1647389,12.5262151 C9.14404344,13.1914456 7.86998516,14.4378631 7,17 C7.13339537,14.0252711 8.14702349,12.498596 9.05234517,11.6534179 C10.3640368,10.4290279 11.4951589,10.5920314 12.5633819,9.13109992 C13.6941506,7.58510844 13.0663973,6.54524109 14.0241937,5.1842806 C14.6367523,4.31402498 15.8756508,3.34701782 18.641087,3 C18.2854249,3.26941325 17.6801102,3.80146204 17.2368136,4.65951782 C16.857476,5.39388071 16.7532333,6.06385554 16.7224905,6.47695585 C17.5620863,6.24261716 18.5803081,6.02691712 19.7481802,5.91711851 C20.5741714,5.83951394 21.330903,5.82833075 22,5.85273044" id="Fill-18" fill-opacity="0.9" fill="#3CDC87"></path>
                                <path d="M23.3939394,11 C22.7678451,11.4788354 21.520202,12.2817837 19.8143098,12.4141476 C19.1690236,12.4642312 18.5986532,12.4075294 18.1335017,12.3182732 C18.0584175,12.532023 17.4503367,14.1806694 15.8055556,14.7217517 C14.7582492,15.0662556 13.8585859,14.7746972 13.5319865,14.6494881 C13.2553872,18.530792 12.2175084,27.8599447 12,28 C14.1772727,26.603024 15.709596,25.4108543 16.202862,24.8964236 C16.4319865,24.6572742 16.6439394,24.4141897 16.6439394,24.4141897 C16.9717172,24.0331962 17.1930976,23.7201734 17.4722222,23.3660105 C18.2488215,22.3800781 22.0292929,19.4736166 23.1430976,18.5547606 C24.2508418,17.640734 25.683165,16.1793647 27,13.8127335 C26.4156566,13.3920308 25.8190236,12.9464652 25.2124579,12.4740691 C24.5771044,11.9796719 23.9712121,11.4870635 23.3939394,11" id="Fill-20" fill="#8AEAB7"></path>
                                <path d="M21.5989141,13 L17.8970869,16.6627762 C17.3285452,18.1708003 16.759833,19.6790022 16.1914616,21.18756 C15.2137266,23.2220404 13.8436705,25.5810412 12,28 C14.0631794,26.6835925 15.5281629,25.5659182 16.0072309,25.0748675 C16.239181,24.8369925 16.453918,24.5950254 16.453918,24.5950254 C16.7853969,24.2162403 17.0098482,23.9047077 17.292074,23.55261 C18.0785908,22.5717539 21.9056813,19.6807814 23.0330505,18.767 C23.895407,18.0679643 24.9515381,17.0358681 26,15.5305128 C24.5331418,14.6870085 23.0659428,13.8435043 21.5989141,13" id="Fill-24" fill="#3CDC87"></path>
                                <path d="M4.36495884,22 C4.25229144,22.1194621 1.92239833,24.5902378 1.80955891,24.7100663 C1.75296719,24.7699806 0.0565917189,26.5686907 0,26.6287882 C2.31871237,26.7524644 4.63759676,26.8761406 6.95648114,27 C6.9711021,26.589395 6.98537904,26.1791564 7,25.7685514 C5.81346603,25.5184507 4.62693206,25.2683499 3.44039808,25.0182491 C3.74864234,24.0119829 4.05671458,23.006083 4.36495884,22" id="Fill-26" fill="#8AEAB7"></path>
                                <path d="M32.1283385,35.2980651 C30.9987327,36.3396452 30.5801719,36.9916023 29.9628371,37.6543138 C28.2791043,39.4615644 27.2335496,39.0754675 26.2195141,40.2157755 C25.0746571,41.5038228 24.7923404,43.818112 25.1383732,45.630299 C25.4740691,45.7762754 25.8243384,45.9296563 26.062935,46 C26.5585991,45.4665164 27.1047617,44.7939322 27.625675,43.9667329 C28.4678803,42.6284401 28.9501572,41.3537916 29.2348463,40.3718009 C30.1043344,39.9063691 31.8699153,38.7939165 33.0603564,36.6000402 C33.5790668,35.6434367 33.851216,34.7351395 34,34.0174224 C33.6431218,33.9015934 33.1381376,34.3672015 32.1283385,35.2980651" id="Fill-28" fill="#8AEAB7"></path>
                                <path d="M5,22 C5.19055383,20.0359497 5.82573325,19.2777607 6.38877319,18.9544022 C7.19409624,18.4919266 7.74921843,19.0036284 9.05705463,18.5434713 C9.46754593,18.3991817 10.9205409,17.8881933 11.507334,16.6177674 C12.0888487,15.3594697 11.2995371,14.4821392 11.9211684,13.8092041 C12.4727716,13.21207 13.1890639,13.800108 14.7328491,13.4109364 C16.4934046,12.967188 16.4316461,11.9832009 18.032439,11.7063933 C19.249661,11.4959338 19.5294215,12.0008581 20.9841759,11.701756 C22.27125,11.4368982 22.8624419,10.871333 22.9805044,11.0265023 C23.1656037,11.2699575 22.018058,13.0579709 20.1594983,13.5652138 C18.8534216,13.921568 17.7227671,13.5018976 17.2874668,13.3126625 C17.1373815,13.6290651 16.5928163,14.6758332 15.3564158,15.254775 C14.4180746,15.6944212 13.5611982,15.6393094 13.1866006,15.5922236 C13.1524663,16.0377555 13.0569255,16.6834022 12.7711827,17.4034232 C12.2431569,18.73449 11.3894476,19.5042721 10.9676955,19.8845259 C8.77940556,21.8578507 5.69764167,21.9851965 5,22" id="Fill-30" fill="#8AEAB7"></path>
                            </g>
                        </g>
                        <g id="Group-Copy-2" transform="translate(0.000000, 181.517690)">
                            <g id="Group-4" transform="translate(36.273086, 37.482310) rotate(25.000000) translate(-36.273086, -37.482310) translate(9.773086, 8.482310)">
                                <path d="M22.0863466,3.28220352 C20.5272029,5.43184794 19.4001647,7.90885734 18.2910989,10.3545399 C17.8162897,11.4016379 17.3413269,12.4488926 16.8666714,13.4959906 C16.1944731,14.9783743 15.5202778,16.4654571 15,18 C18.3202849,14.6749744 21.6408769,11.3499487 24.9611618,8.02476646 C26.0540985,6.93036501 27.2020277,5.74965824 27.7322901,4.24127324 C28.2637815,2.72724941 28.0825214,-0.116596707 26.4693069,0.00369817193 C24.8267529,0.12634256 23.1947979,1.753926 22.0863466,3.28220352" id="Fill-294" fill="#3CDC87"></path>
                                <path d="M43.0947567,12.469834 C41.3551608,13.6780812 39.897199,15.3881971 38.4921407,17.0910898 C37.0870825,18.7939825 35.6820243,20.5414189 34,21.8676466 C34.86513,23.0871802 35.9014188,24.1434372 37.0730786,25 C37.9008649,23.784078 38.744211,22.579593 39.601561,21.3871467 C40.8743602,19.6192444 42.2000629,17.8549537 43.8058438,16.4688327 C45.4116246,15.0825613 47.3472751,14.0956781 49.1553345,14.1689645 C49.6703669,14.1897315 50.1853993,14.2923625 50.7113237,14.1032024 C50.806239,14.0685907 50.9104903,14.0156199 50.9649499,13.9159986 C51.0536413,13.7543773 50.95717,13.5876394 50.8622546,13.4731201 C50.0204645,12.4636641 48.8954843,11.1258489 47.5137659,11.0141888 C46.0589161,10.8968102 44.4640272,11.5187663 43.0947567,12.469834" id="Fill-295" fill="#3CDC87"></path>
                                <path d="M19.1503282,9.81804669 C15.804111,13.8199486 13.265483,18.5339211 10.7655271,23.1899578 C7.11320871,29.9922486 3.42674048,36.8742592 1.12840897,44.1607394 C1.04061735,44.4392952 0.953917285,44.7424157 1.02798659,44.9891453 C1.12560213,45.3146678 1.4586801,45.4183344 1.75714041,45.4957367 C11.286975,47.9676678 18.5612044,55.5728727 28.1064765,58 C33.9914776,52.192198 38.8129995,44.8845518 41.9457412,37.0239655 C43.3242099,33.562335 44.3908079,29.9781895 46.1388434,26.6705912 C48.5449263,22.1140498 52.2811379,17.9344778 53,13.0096187 C51.6729899,11.9592025 50.1635355,11.1739009 48.5386889,10.6883209 C46.9029268,16.0703328 43.8107283,21.174098 39.8452917,25.0334004 C35.262351,19.6388743 27.7790123,18.5957194 21.843644,15.0892852 C23.7897175,13.0239868 25.7487337,10.9426208 27.3869907,8.56555012 C29.0249359,6.18878841 30.3410305,3.47012773 30.7573779,0.699710987 C30.6575793,1.36944981 27.1206531,0.00957873287 26.9806231,0 C26.9806231,0 26.2541202,1.62251375 25.8543019,2.1837966 C23.865658,4.97429778 21.322508,7.21989265 19.1503282,9.81804669" id="Fill-296" fill="#C5F5DB"></path>
                                <path d="M26.9568134,58 C32.8093367,52.2428113 37.6042498,44.9986959 40.7197027,37.2067655 C42.0905641,33.7753021 43.1512758,30.2223914 44.8896644,26.9436179 C45.2354812,26.2890577 45.6107622,25.6423082 46,25 C44.4849191,26.3625694 43.1884937,28.0847333 42.2720016,29.9828658 C41.7571532,31.0492445 41.3601617,32.1635588 40.8530671,33.2334599 C40.1971006,34.6153261 39.3674504,35.9069873 38.6168883,37.2410709 C37.0072118,40.104963 35.7573088,43.1846424 33.9181216,45.895232 C32.5813767,47.8658041 30.9685987,49.5882743 29.366676,51.2965017 C28.6610856,52.0487711 27.9151757,52.8296794 27.0421046,53.1685988 C25.4868593,53.7724665 24.105608,52.8034909 22.957279,51.8689738 C23.3133308,52.8881824 23.9589072,53.7222336 24.7930546,54.2404908 C24.3483,54.6876868 23.7542085,54.4343778 23.3317847,54.1522768 C17.0487737,49.9588957 10.9121533,45.2588966 3.49926731,43.4321317 C2.51686839,43.1901557 1.43118965,43.0132683 0.402113216,43.5646058 C0.383969463,43.5742542 0.366911234,43.5861999 0.348922556,43.5964609 C0.273866348,43.824347 0.200050739,44.0525395 0.127785878,44.2813446 C0.0403236854,44.5574728 -0.0457428338,44.8577985 0.0277626258,45.1025311 C0.124839456,45.4252167 0.456079249,45.5279799 0.752892434,45.6047077 C10.2299793,48.0550966 17.4642191,55.5941775 26.9568134,58" id="Fill-297" fill="#3CDC87"></path>
                                <path d="M9.69075115,33 C9.3284699,33 8.98778893,32.7886781 9.00033615,32.3933511 C9.00573623,32.2199352 9.07847836,32.0432964 9.1524911,31.874331 C10.0068141,29.924706 11.2258008,28.1435861 12.3124858,26.3023077 C13.3991707,24.4610294 14.3824601,22.4768747 14.6461107,20.4476011 C14.7698358,19.4953481 14.790642,18.4123425 15.4689862,17.6913618 C16.0104228,17.1161733 16.7704034,17.0087475 17.4406476,17.0007673 C17.4832128,17.0003069 17.5253016,17 17.5675492,17 C22.209387,17 26.1706569,19.9798385 29.9521362,22.0190873 C31.1814466,22.682058 32.4774637,23.4223753 33,24.8394751 C32.0565758,24.3775442 31.1004455,23.9352568 30.136374,23.5127664 C29.2453622,23.1226573 28.3368796,22.7466669 27.341043,22.6366322 C27.099628,22.6099292 26.8550365,22.5990332 26.6072686,22.5990332 C26.0637673,22.5990332 25.5085129,22.6519787 24.9535761,22.7049243 C24.3984806,22.7578699 23.8437027,22.8108155 23.3003602,22.8108155 C22.9620616,22.8108155 22.6280513,22.7902511 22.301347,22.7362313 C21.3042397,22.5718698 20.4164045,22.1022655 19.4293032,21.9056763 C19.1748646,21.8550327 18.9072434,21.8264881 18.6348574,21.8264881 C17.8502589,21.8264881 17.0281774,22.0640526 16.3817571,22.6963303 C15.7899728,23.2750484 15.4446859,24.0833509 15.1046403,24.8517524 C14.1853575,26.9281398 13.1394908,28.9587945 11.977999,30.9213106 C11.4499038,31.8137121 10.7687007,32.7923613 9.88467724,32.9797426 C9.82067051,32.993401 9.75539318,33 9.69075115,33" id="Fill-298" fill="#8AEAB7"></path>
                            </g>
                            <g id="Group-32" transform="translate(85.773086, 72.482310) scale(-1, 1) rotate(80.000000) translate(-85.773086, -72.482310) translate(62.773086, 49.482310)">
                                <g id="Group-3">
                                    <mask id="mask-10" fill="white">
                                        <use xlink:href="#path-9"></use>
                                    </mask>
                                    <g id="Clip-2"></g>
                                    <path d="M21.9854189,5.33439041 C21.4652472,5.68633262 20.9105851,5.63940699 20.3684169,5.62680011 C19.547334,5.60788978 18.3783555,5.66041847 16.8933322,5.98924806 C16.9060022,5.5191163 17.0077137,4.11152254 18.0837793,2.95361514 C18.4721483,2.53548678 19.3585166,1.5813907 20.5945403,1.7015063 C21.6222137,1.80113571 22.7853852,2.63283995 22.8191717,3.7362926 C22.8388805,4.36891311 22.4835941,4.99698113 21.9854189,5.33439041 M41.1198534,26.1900308 C41.8392248,23.8542551 42.6420067,20.7904318 43.2425973,17.1016921 C45.4228839,15.8800499 46.3660911,13.9937447 45.8712593,12.8363626 C45.7848573,12.6344774 45.5082301,12.1118169 44.577165,11.7460421 C44.4891793,11.4478543 44.1344208,10.3766192 43.2232405,10.0166226 C42.0278662,9.54421461 40.1771742,10.4160157 39.3076991,12.4430978 C38.3319373,12.6880566 37.2465452,13.0240651 36.0912925,13.4901697 C35.3210653,13.8009644 34.6173554,14.1301442 33.9810425,14.4600244 C30.8420633,12.8454676 27.7030841,11.2310859 24.5641049,9.6167042 C24.754858,8.81669227 24.9260782,7.93578616 25.0540095,6.9811648 C25.235612,5.6269752 25.2957943,4.38414643 25.2891074,3.28699722 C25.0536575,2.79357774 24.5748391,1.96134821 23.6726334,1.24730824 C22.1717726,0.0587591126 20.5144733,0.0100825278 19.9035003,0.000802459523 C17.2449232,-0.0408703001 15.3739945,1.55162444 14.6196048,2.19405031 C11.9717619,4.44770614 11.3424879,7.47143256 11.1747871,8.5193799 C10.4397543,8.90669143 7.89256712,10.3629618 6.57066938,13.5356946 C5.39729157,16.3514074 5.88297285,18.8552749 6.09044322,19.7137687 C5.35910576,20.0238631 4.21581907,20.6015036 3.08643413,21.6429724 C2.38677154,22.2883749 -0.595945005,25.0391272 0.106181189,27.9509675 C0.47079409,29.4641439 1.67707857,30.3826956 2.8817793,31.3000216 C4.49860523,32.5311189 6.11842268,33.0451997 7.10826224,33.2770263 C7.84927813,34.6835695 9.30843362,36.9834506 11.9399111,38.9343661 C16.1764244,42.0747062 20.682878,42.2580313 22.3005838,42.246475 C22.6196201,42.8097576 23.1587967,43.6039914 24.0270399,44.3532256 C25.1947867,45.3612511 26.3938563,45.8012665 27.0956306,46 C27.6103471,45.4701606 28.1775032,44.8021708 28.7184395,43.9806221 C29.5928418,42.6514712 30.0938326,41.3855298 30.3894647,40.4102471 C31.2923743,39.9479947 33.1258211,38.8431413 34.3620208,36.6642513 C34.9006695,35.7141824 35.1832796,34.8120897 35.3377826,34.0992754 C35.9156729,33.8434607 36.7193347,33.4214802 37.5400656,32.7342299 C39.2742646,31.2819867 40.1124167,29.4599416 41.1198534,26.1900308" id="Fill-1" fill="#C5F5DB" mask="url(#mask-10)"></path>
                                </g>
                                <path d="M21.2435105,13 L17.3229358,16.6647638 C16.7207979,18.1736061 16.1184795,19.6828045 15.5163417,21.1920029 C14.2528629,23.6758252 12.4154037,26.6395718 9.73809221,29.611329 C8.47334996,31.0149654 7.20481726,32.2169125 6,33.2403121 C6.02346461,33.2470766 6.04710971,33.2533071 6.07021332,33.2600716 C6.07635022,33.2618517 6.22814817,33.5003898 6.49474219,33.8879252 C6.81909524,34.3591269 9.08613716,37.4165086 11.1205185,38.9896138 C14.1640584,41.3433082 17.9664075,41.8600814 19.6421414,42 L20.2830861,39.0982021 C20.8798091,38.3229533 21.4736441,37.5345315 22.0642302,36.7329368 C26.3524772,30.9122516 29.9582651,25.0824878 33,19.386234 C29.0810498,17.2575487 25.1624606,15.1286853 21.2435105,13" id="Fill-4" fill="#3CDC87"></path>
                                <g id="Group-8" transform="translate(23.000000, 10.000000)">
                                    <mask id="mask-12" fill="white">
                                        <use xlink:href="#path-11"></use>
                                    </mask>
                                    <g id="Clip-7"></g>
                                    <path d="M9.2811594,23.8172145 C11.068876,22.4223629 12.7771699,21.9483894 13.2259963,21.8325056 C14.078643,21.6124149 14.8098613,21.5421769 15.3135777,21.519354 C15.4740115,21.0729802 15.6139719,20.5691069 15.7052198,20.0114494 C16.095097,17.6274279 15.370762,15.6280345 14.870752,14.556596 C15.7846425,13.7241789 16.6980035,12.8917618 17.6118939,12.0598754 C18.0988433,11.7844081 18.7661704,11.3369729 19.4806216,10.7998382 C19.7488938,9.58385462 20.0081648,8.30488683 20.2344312,6.90525837 C22.4212027,5.67087488 23.3672152,3.76507311 22.8709116,2.59561992 C22.7842527,2.39145215 22.5068027,1.86334054 21.5729684,1.49375087 C21.49937,1.24216805 21.2171547,0.467958196 20.6015406,0 C20.0219314,0.146668183 19.1209251,0.445135282 18.2204482,1.10523057 C16.1270425,2.64038114 16.1499869,4.58245188 14.2238983,6.15015607 C13.6068722,6.6524371 12.5833785,7.28422489 10.9276801,7.57066131 C7.28500239,13.7454095 3.6423247,19.9203346 0,26.0949059 C0.926774579,26.3335734 1.92555907,26.6334559 2.97746851,27.0129532 C3.85288308,27.3287586 4.66352403,27.6629639 5.40744993,28 C5.82274236,27.4564962 6.41911854,26.7137784 7.18757722,25.8755229 C8.10005571,24.8803377 8.55629496,24.3830105 9.2811594,23.8172145" id="Fill-6" fill="#8AEAB7" mask="url(#mask-12)"></path>
                                </g>
                                <path d="M24,30.1019388 C23.6689804,29.9170415 20.601843,28.269249 16.9590115,29.3842634 C13.1390019,30.55391 12.0867042,33.720904 12,34 C16.0000598,32.7008492 20.0001197,31.401394 24,30.1019388" id="Fill-9" fill="#32B472"></path>
                                <g id="Group-15" transform="translate(13.000000, 30.000000)" fill="#3CDC87">
                                    <path d="M10.9156588,0.107685973 C10.9277817,0.090839394 10.9399047,0.074157978 10.9522009,0.057476562 C10.9260499,0.0672211516 10.9005917,0.0768005786 10.8746139,0.0867103306 C10.8856977,0.0929865069 10.9047481,0.101740121 10.9156588,0.107685973" id="Fill-11"></path>
                                    <path d="M0,4.33910056 C1.15168194,4.67025144 2.65163943,4.98620737 4.47476061,4.99958553 C5.64791753,5.00784366 6.68460446,4.8917344 7.54602792,4.73730743 C8.58929589,3.30402695 9.6322175,1.8710768 10.6753123,0.438126655 C7.11670167,1.73828613 3.55826424,3.03861076 0,4.33910056" id="Fill-13"></path>
                                </g>
                                <path d="M35.9083617,12.7739541 C35.1748562,13.0784381 34.5048642,13.4012873 33.8988885,13.7246514 C30.923809,12.1497104 27.9490648,10.574941 24.9743205,9 C24.6497146,9.51062004 24.3249411,10.0208968 24,10.5313452 C27.1979632,12.6876207 30.3959264,14.8437245 33.5940572,17 C33.8762649,16.9660159 37.1352279,16.5168419 38.628214,13.5234928 C39.0131494,12.7521562 39.0377839,11.5882858 38.9714215,11.7475649 C38.0421805,11.987685 37.0085361,12.3170564 35.9083617,12.7739541" id="Fill-16" fill-opacity="0.9" fill="#3CDC87"></path>
                                <path d="M22,5.85273044 C21.29804,6.80499613 20.5962567,7.75709237 19.8942967,8.70935806 C17.7513133,8.1257988 16.4364414,8.44621418 15.6415463,8.82966208 C14.6173173,9.32358637 14.4584796,9.92002324 12.7658602,11.0705364 C11.4635327,11.9558724 10.9960305,11.9843387 10.1647389,12.5262151 C9.14404344,13.1914456 7.86998516,14.4378631 7,17 C7.13339537,14.0252711 8.14702349,12.498596 9.05234517,11.6534179 C10.3640368,10.4290279 11.4951589,10.5920314 12.5633819,9.13109992 C13.6941506,7.58510844 13.0663973,6.54524109 14.0241937,5.1842806 C14.6367523,4.31402498 15.8756508,3.34701782 18.641087,3 C18.2854249,3.26941325 17.6801102,3.80146204 17.2368136,4.65951782 C16.857476,5.39388071 16.7532333,6.06385554 16.7224905,6.47695585 C17.5620863,6.24261716 18.5803081,6.02691712 19.7481802,5.91711851 C20.5741714,5.83951394 21.330903,5.82833075 22,5.85273044" id="Fill-18" fill-opacity="0.9" fill="#3CDC87"></path>
                                <path d="M23.3939394,11 C22.7678451,11.4788354 21.520202,12.2817837 19.8143098,12.4141476 C19.1690236,12.4642312 18.5986532,12.4075294 18.1335017,12.3182732 C18.0584175,12.532023 17.4503367,14.1806694 15.8055556,14.7217517 C14.7582492,15.0662556 13.8585859,14.7746972 13.5319865,14.6494881 C13.2553872,18.530792 12.2175084,27.8599447 12,28 C14.1772727,26.603024 15.709596,25.4108543 16.202862,24.8964236 C16.4319865,24.6572742 16.6439394,24.4141897 16.6439394,24.4141897 C16.9717172,24.0331962 17.1930976,23.7201734 17.4722222,23.3660105 C18.2488215,22.3800781 22.0292929,19.4736166 23.1430976,18.5547606 C24.2508418,17.640734 25.683165,16.1793647 27,13.8127335 C26.4156566,13.3920308 25.8190236,12.9464652 25.2124579,12.4740691 C24.5771044,11.9796719 23.9712121,11.4870635 23.3939394,11" id="Fill-20" fill="#8AEAB7"></path>
                                <path d="M21.5989141,13 L17.8970869,16.6627762 C17.3285452,18.1708003 16.759833,19.6790022 16.1914616,21.18756 C15.2137266,23.2220404 13.8436705,25.5810412 12,28 C14.0631794,26.6835925 15.5281629,25.5659182 16.0072309,25.0748675 C16.239181,24.8369925 16.453918,24.5950254 16.453918,24.5950254 C16.7853969,24.2162403 17.0098482,23.9047077 17.292074,23.55261 C18.0785908,22.5717539 21.9056813,19.6807814 23.0330505,18.767 C23.895407,18.0679643 24.9515381,17.0358681 26,15.5305128 C24.5331418,14.6870085 23.0659428,13.8435043 21.5989141,13" id="Fill-24" fill="#3CDC87"></path>
                                <path d="M4.36495884,22 C4.25229144,22.1194621 1.92239833,24.5902378 1.80955891,24.7100663 C1.75296719,24.7699806 0.0565917189,26.5686907 0,26.6287882 C2.31871237,26.7524644 4.63759676,26.8761406 6.95648114,27 C6.9711021,26.589395 6.98537904,26.1791564 7,25.7685514 C5.81346603,25.5184507 4.62693206,25.2683499 3.44039808,25.0182491 C3.74864234,24.0119829 4.05671458,23.006083 4.36495884,22" id="Fill-26" fill="#8AEAB7"></path>
                                <path d="M32.1283385,35.2980651 C30.9987327,36.3396452 30.5801719,36.9916023 29.9628371,37.6543138 C28.2791043,39.4615644 27.2335496,39.0754675 26.2195141,40.2157755 C25.0746571,41.5038228 24.7923404,43.818112 25.1383732,45.630299 C25.4740691,45.7762754 25.8243384,45.9296563 26.062935,46 C26.5585991,45.4665164 27.1047617,44.7939322 27.625675,43.9667329 C28.4678803,42.6284401 28.9501572,41.3537916 29.2348463,40.3718009 C30.1043344,39.9063691 31.8699153,38.7939165 33.0603564,36.6000402 C33.5790668,35.6434367 33.851216,34.7351395 34,34.0174224 C33.6431218,33.9015934 33.1381376,34.3672015 32.1283385,35.2980651" id="Fill-28" fill="#8AEAB7"></path>
                                <path d="M5,22 C5.19055383,20.0359497 5.82573325,19.2777607 6.38877319,18.9544022 C7.19409624,18.4919266 7.74921843,19.0036284 9.05705463,18.5434713 C9.46754593,18.3991817 10.9205409,17.8881933 11.507334,16.6177674 C12.0888487,15.3594697 11.2995371,14.4821392 11.9211684,13.8092041 C12.4727716,13.21207 13.1890639,13.800108 14.7328491,13.4109364 C16.4934046,12.967188 16.4316461,11.9832009 18.032439,11.7063933 C19.249661,11.4959338 19.5294215,12.0008581 20.9841759,11.701756 C22.27125,11.4368982 22.8624419,10.871333 22.9805044,11.0265023 C23.1656037,11.2699575 22.018058,13.0579709 20.1594983,13.5652138 C18.8534216,13.921568 17.7227671,13.5018976 17.2874668,13.3126625 C17.1373815,13.6290651 16.5928163,14.6758332 15.3564158,15.254775 C14.4180746,15.6944212 13.5611982,15.6393094 13.1866006,15.5922236 C13.1524663,16.0377555 13.0569255,16.6834022 12.7711827,17.4034232 C12.2431569,18.73449 11.3894476,19.5042721 10.9676955,19.8845259 C8.77940556,21.8578507 5.69764167,21.9851965 5,22" id="Fill-30" fill="#8AEAB7"></path>
                            </g>
                        </g>
                    </g>
                </g>
            </g>
        </g>
    </g>
</svg>