<?xml version="1.0" encoding="UTF-8"?>
<svg width="124px" height="372px" viewBox="0 0 124 372" version="1.1" xmlns="http://www.w3.org/2000/svg" xmlns:xlink="http://www.w3.org/1999/xlink">
    <title>illust/cr/stage2</title>
    <g id="Page-1" stroke="none" stroke-width="1" fill="none" fill-rule="evenodd">
        <g id="Chapter3" transform="translate(-728.000000, -12060.000000)" fill="#3CDC87" fill-rule="nonzero">
            <g id="illust/cr/stage2" transform="translate(708.000000, 12028.000000)">
                <g transform="translate(20.000000, 32.000000)">
                    <g id="Group-19" transform="translate(7.000000, 140.000000)">
                        <path d="M7,0 L1.4,7.46666667 C0.49272,8.67813333 0,10.152 0,11.6666667 C0,15.5333333 3.13333333,18.6666667 7,18.6666667 C10.8666667,18.6666667 14,15.5333333 14,11.6666667 C14,10.15208 13.50728,8.67813333 12.6,7.46666667 L7,0 Z" id="Path"></path>
                        <path d="M7,41 L1.4,48.4666667 C0.49272,49.6781333 0,51.152 0,52.6666667 C0,56.5333333 3.13333333,59.6666667 7,59.6666667 C10.8666667,59.6666667 14,56.5333333 14,52.6666667 C14,51.15208 13.50728,49.6781333 12.6,48.4666667 L7,41 Z" id="Path-Copy-5"></path>
                        <path d="M31,20 L25.4,27.4666667 C24.49272,28.6781333 24,30.152 24,31.6666667 C24,35.5333333 27.1333333,38.6666667 31,38.6666667 C34.8666667,38.6666667 38,35.5333333 38,31.6666667 C38,30.15208 37.50728,28.6781333 36.6,27.4666667 L31,20 Z" id="Path-Copy"></path>
                        <path d="M31,62 L25.4,69.4666667 C24.49272,70.6781333 24,72.152 24,73.6666667 C24,77.5333333 27.1333333,80.6666667 31,80.6666667 C34.8666667,80.6666667 38,77.5333333 38,73.6666667 C38,72.15208 37.50728,70.6781333 36.6,69.4666667 L31,62 Z" id="Path-Copy-8"></path>
                        <path d="M55,0 L49.4,7.46666667 C48.49272,8.67813333 48,10.152 48,11.6666667 C48,15.5333333 51.1333333,18.6666667 55,18.6666667 C58.8666667,18.6666667 62,15.5333333 62,11.6666667 C62,10.15208 61.50728,8.67813333 60.6,7.46666667 L55,0 Z" id="Path-Copy-2"></path>
                        <path d="M55,41 L49.4,48.4666667 C48.49272,49.6781333 48,51.152 48,52.6666667 C48,56.5333333 51.1333333,59.6666667 55,59.6666667 C58.8666667,59.6666667 62,56.5333333 62,52.6666667 C62,51.15208 61.50728,49.6781333 60.6,48.4666667 L55,41 Z" id="Path-Copy-6"></path>
                        <path d="M79,20 L73.4,27.4666667 C72.49272,28.6781333 72,30.152 72,31.6666667 C72,35.5333333 75.1333333,38.6666667 79,38.6666667 C82.8666667,38.6666667 86,35.5333333 86,31.6666667 C86,30.15208 85.50728,28.6781333 84.6,27.4666667 L79,20 Z" id="Path-Copy-3"></path>
                        <path d="M79,62 L73.4,69.4666667 C72.49272,70.6781333 72,72.152 72,73.6666667 C72,77.5333333 75.1333333,80.6666667 79,80.6666667 C82.8666667,80.6666667 86,77.5333333 86,73.6666667 C86,72.15208 85.50728,70.6781333 84.6,69.4666667 L79,62 Z" id="Path-Copy-9"></path>
                        <path d="M103,0 L97.4,7.46666667 C96.49272,8.67813333 96,10.152 96,11.6666667 C96,15.5333333 99.1333333,18.6666667 103,18.6666667 C106.866667,18.6666667 110,15.5333333 110,11.6666667 C110,10.15208 109.50728,8.67813333 108.6,7.46666667 L103,0 Z" id="Path-Copy-4"></path>
                        <path d="M103,41 L97.4,48.4666667 C96.49272,49.6781333 96,51.152 96,52.6666667 C96,56.5333333 99.1333333,59.6666667 103,59.6666667 C106.866667,59.6666667 110,56.5333333 110,52.6666667 C110,51.15208 109.50728,49.6781333 108.6,48.4666667 L103,41 Z" id="Path-Copy-7"></path>
                    </g>
                    <path d="M119.473684,63.1169275 L120,63.1169275 C122.209139,63.1169275 124,61.3260665 124,59.1169275 L124,4 C124,1.790861 122.209139,-4.05812251e-16 120,0 L4,0 C1.790861,4.05812251e-16 -2.705415e-16,1.790861 0,4 L0,59.1169275 C-3.65367767e-15,61.3260665 1.790861,63.1169275 4,63.1169275 L4.52631579,63.1169275 C6.73545479,63.1169275 8.52631579,61.3260665 8.52631579,59.1169275 L8.52631579,50.6753912 C8.52631579,48.4662522 10.3171768,46.6753912 12.5263158,46.6753912 L18.1052632,46.6753912 C20.3144022,46.6753912 22.1052632,48.4662522 22.1052632,50.6753912 L22.1052632,75.5584637 C22.1052632,77.7676027 23.8961242,79.5584637 26.1052632,79.5584637 L26.6315789,79.5584637 C28.8407179,79.5584637 30.6315789,77.7676027 30.6315789,75.5584637 L30.6315789,75.3376956 C30.6315789,73.1285566 32.4224399,71.3376956 34.6315789,71.3376956 L35.1578947,71.3376956 C37.3670337,71.3376956 39.1578947,73.1285566 39.1578947,75.3376956 L39.1578947,92 C39.1578947,94.209139 40.9487557,96 43.1578947,96 L43.6842105,96 C45.8933495,96 47.6842105,94.209139 47.6842105,92 L47.6842105,67.1169275 C47.6842105,64.9077885 49.4750715,63.1169275 51.6842105,63.1169275 L59.2631579,63.1169275 C61.4722969,63.1169275 63.2631579,64.9077885 63.2631579,67.1169275 L63.2631579,83.7792319 C63.2631579,85.9883709 65.0540189,87.7792319 67.2631579,87.7792319 L67.7894737,87.7792319 C69.9986127,87.7792319 71.7894737,85.9883709 71.7894737,83.7792319 L71.7894737,75.3376956 C71.7894737,73.1285566 73.5803347,71.3376956 75.7894737,71.3376956 L76.3157895,71.3376956 C78.5249285,71.3376956 80.3157895,69.5468346 80.3157895,67.3376956 L80.3157895,42.454623 C80.3157895,40.245484 82.1066505,38.454623 84.3157895,38.454623 L92.4210526,38.454623 C94.6301916,38.454623 96.4210526,40.245484 96.4210526,42.454623 L96.4210526,45.2699858 C96.4210526,47.4791248 98.2119136,49.2699858 100.421053,49.2699858 L100.947368,49.2699858 C103.156507,49.2699858 104.947368,47.4791248 104.947368,45.2699858 L104.947368,26.0130868 C104.947368,23.8039478 106.738229,22.0130868 108.947368,22.0130868 L111.473684,22.0130868 C113.682823,22.0130868 115.473684,23.8039478 115.473684,26.0130868 L115.473684,59.1169275 C115.473684,61.3260665 117.264545,63.1169275 119.473684,63.1169275 Z" id="Path"></path>
                    <path d="M0,295.504943 L14.6627786,306.517857 C32.8706256,317.209684 38,317.209684 56.6367786,306.517857 C76.9648403,294.855749 95.0943847,294.855749 120.062779,308.517857 L124,310.669457 L124,363.599743 C124,368.018021 120.418278,371.599743 116,371.599743 L8,371.599743 C3.581722,371.599743 8.38952134e-15,368.018021 0,363.599743 L0,295.504943 L0,295.504943 Z" id="Path"></path>
                </g>
            </g>
        </g>
    </g>
</svg>