<?xml version="1.0" encoding="UTF-8"?>
<svg width="186px" height="140px" viewBox="0 0 186 140" version="1.1" xmlns="http://www.w3.org/2000/svg" xmlns:xlink="http://www.w3.org/1999/xlink">
    <title>illust/result/mr1</title>
    <defs>
        <path d="M0,1.13513514 L3.15477997,3 C5.4370258,1.67057624 7.50682853,1.54665987 9,2.42325344 L9,2.42325344 L5.84673748,0.558388577 C5.2185129,0.191228965 4.49013657,0 3.68740516,0 L3.68740516,0 C2.57663126,0 1.32473445,0.365629781 0,1.13513514" id="path-1"></path>
        <path d="M0,1.13513514 L3.15477997,3 C5.4370258,1.67057624 7.50682853,1.54665987 9,2.42325344 L9,2.42325344 L5.84673748,0.558388577 C5.2185129,0.191228965 4.49013657,0 3.68740516,0 L3.68740516,0 C2.57663126,0 1.32473445,0.365629781 0,1.13513514" id="path-3"></path>
        <path d="M0,1.13513514 L3.15477997,3 C5.4370258,1.67057624 7.50682853,1.54665987 9,2.42325344 L9,2.42325344 L5.84673748,0.558388577 C5.2185129,0.191228965 4.49013657,0 3.68740516,0 L3.68740516,0 C2.57663126,0 1.32473445,0.365629781 0,1.13513514" id="path-5"></path>
        <path d="M0,14.648383 C0.00593176201,17.3235504 0.893285951,19.2057273 2.32364793,20.0896139 L2.32364793,20.0896139 L5.3815617,22 C3.95119972,21.1145462 3.0653171,19.2339365 3.05795927,16.5587691 L3.05795927,16.5587691 C3.04471518,11.1739564 6.60148977,4.61532982 11,1.91038609 L11,1.91038609 L7.94061466,0 C3.54210443,2.7065109 -0.0146701595,9.26357031 0,14.648383" id="path-7"></path>
        <path d="M0,14.648383 C0.00593176201,17.3235504 0.893285951,19.2057273 2.32364793,20.0896139 L2.32364793,20.0896139 L5.3815617,22 C3.95119972,21.1145462 3.0653171,19.2339365 3.05795927,16.5587691 L3.05795927,16.5587691 C3.04471518,11.1739564 6.60148977,4.61532982 11,1.91038609 L11,1.91038609 L7.94061466,0 C3.54210443,2.7065109 -0.0146701595,9.26357031 0,14.648383" id="path-9"></path>
        <path d="M0,14.648383 C0.00593176201,17.3235504 0.893285951,19.2057273 2.32364793,20.0896139 L2.32364793,20.0896139 L5.3815617,22 C3.95119972,21.1145462 3.0653171,19.2339365 3.05795927,16.5587691 L3.05795927,16.5587691 C3.04471518,11.1739564 6.60148977,4.61532982 11,1.91038609 L11,1.91038609 L7.94061466,0 C3.54210443,2.7065109 -0.0146701595,9.26357031 0,14.648383" id="path-11"></path>
        <path d="M0,14.648383 C0.00593176201,17.3235504 0.893285951,19.2057273 2.32364793,20.0896139 L2.32364793,20.0896139 L5.3815617,22 C3.95119972,21.1145462 3.0653171,19.2339365 3.05795927,16.5587691 L3.05795927,16.5587691 C3.04471518,11.1739564 6.60148977,4.61532982 11,1.91038609 L11,1.91038609 L7.94061466,0 C3.54210443,2.7065109 -0.0146701595,9.26357031 0,14.648383" id="path-13"></path>
        <path d="M0,14.648383 C0.00593176201,17.3235504 0.893285951,19.2057273 2.32364793,20.0896139 L2.32364793,20.0896139 L5.3815617,22 C3.95119972,21.1145462 3.0653171,19.2339365 3.05795927,16.5587691 L3.05795927,16.5587691 C3.04471518,11.1739564 6.60148977,4.61532982 11,1.91038609 L11,1.91038609 L7.94061466,0 C3.54210443,2.7065109 -0.0146701595,9.26357031 0,14.648383" id="path-15"></path>
        <polygon id="path-17" points="0 0 12.1058202 0 12.1058202 5.70203209 0 5.70203209"></polygon>
        <path d="M13.2460825,0.0724980299 L0,7.92592593 C0.193114103,7.81245075 0.458839108,7.82821119 0.752372545,8 L0.752372545,8 L14,0.148148148 C13.8285147,0.0472813239 13.6662988,0 13.5226219,0 L13.5226219,0 C13.4206577,0 13.326418,0.0252167061 13.2460825,0.0724980299" id="path-19"></path>
        <path d="M13.2460825,0.0724980299 L0,7.92592593 C0.193114103,7.81245075 0.458839108,7.82821119 0.752372545,8 L0.752372545,8 L14,0.148148148 C13.8285147,0.0472813239 13.6662988,0 13.5226219,0 L13.5226219,0 C13.4206577,0 13.326418,0.0252167061 13.2460825,0.0724980299" id="path-21"></path>
        <path d="M0,7.53592497 C0.576025766,7.87021631 1.04017251,8.67191045 1.03714875,9.33292997 L1.03714875,9.33292997 C1.03563688,9.66117078 0.922245977,9.89109061 0.734773024,10 L0.734773024,10 L13.6991325,2.4625624 C13.8850935,2.353653 13.9984844,2.12373317 14,1.79700499 L14,1.79700499 C14.0015082,1.13598548 13.5388733,0.332778702 12.9643594,0 L12.9643594,0" id="path-23"></path>
        <path d="M0,7.53592497 C0.576025766,7.87021631 1.04017251,8.67191045 1.03714875,9.33292997 L1.03714875,9.33292997 C1.03563688,9.66117078 0.922245977,9.89109061 0.734773024,10 L0.734773024,10 L13.6991325,2.4625624 C13.8850935,2.353653 13.9984844,2.12373317 14,1.79700499 L14,1.79700499 C14.0015082,1.13598548 13.5388733,0.332778702 12.9643594,0 L12.9643594,0" id="path-25"></path>
        <path d="M0,7.53592497 C0.576025766,7.87021631 1.04017251,8.67191045 1.03714875,9.33292997 L1.03714875,9.33292997 C1.03563688,9.66117078 0.922245977,9.89109061 0.734773024,10 L0.734773024,10 L13.6991325,2.4625624 C13.8850935,2.353653 13.9984844,2.12373317 14,1.79700499 L14,1.79700499 C14.0015082,1.13598548 13.5388733,0.332778702 12.9643594,0 L12.9643594,0" id="path-27"></path>
        <path d="M13.2460825,0.0740594839 L0,7.92436478 C0.193114103,7.80933622 0.460384021,7.82666929 0.753917458,8 L0.753917458,8 L14,0.148118968 C13.8300596,0.0488477447 13.6678437,0 13.5241669,0 L13.5241669,0 C13.4206577,0 13.3279629,0.0252117392 13.2460825,0.0740594839" id="path-29"></path>
        <path d="M13.2460825,0.0740594839 L0,7.92436478 C0.193114103,7.80933622 0.460384021,7.82666929 0.753917458,8 L0.753917458,8 L14,0.148118968 C13.8300596,0.0488477447 13.6678437,0 13.5241669,0 L13.5241669,0 C13.4206577,0 13.3279629,0.0252117392 13.2460825,0.0740594839" id="path-31"></path>
        <path d="M0,7.5374376 C0.576025766,7.86870368 1.04017251,8.67191045 1.03714875,9.3344426 L1.03714875,9.3344426 C1.03714875,9.66117078 0.920734098,9.89109061 0.734773024,10 L0.734773024,10 L13.6976206,2.4625624 C13.8850935,2.35516563 13.9984844,2.12373317 14,1.79700499 L14,1.79700499 C14.0015082,1.13598548 13.5388733,0.332778702 12.9628476,0 L12.9628476,0" id="path-33"></path>
        <path d="M0,7.5374376 C0.576025766,7.86870368 1.04017251,8.67191045 1.03714875,9.3344426 L1.03714875,9.3344426 C1.03714875,9.66117078 0.920734098,9.89109061 0.734773024,10 L0.734773024,10 L13.6976206,2.4625624 C13.8850935,2.35516563 13.9984844,2.12373317 14,1.79700499 L14,1.79700499 C14.0015082,1.13598548 13.5388733,0.332778702 12.9628476,0 L12.9628476,0" id="path-35"></path>
        <path d="M0,7.5374376 C0.576025766,7.86870368 1.04017251,8.67191045 1.03714875,9.3344426 L1.03714875,9.3344426 C1.03714875,9.66117078 0.920734098,9.89109061 0.734773024,10 L0.734773024,10 L13.6976206,2.4625624 C13.8850935,2.35516563 13.9984844,2.12373317 14,1.79700499 L14,1.79700499 C14.0015082,1.13598548 13.5388733,0.332778702 12.9628476,0 L12.9628476,0" id="path-37"></path>
        <polygon id="path-39" points="0 0 64.9027016 0 64.9027016 44.1976691 0 44.1976691"></polygon>
        <polygon id="path-41" points="0 0 64.9027016 0 64.9027016 44.1976691 0 44.1976691"></polygon>
    </defs>
    <g id="Page-5" stroke="none" stroke-width="1" fill="none" fill-rule="evenodd">
        <g id="ver5_chapter3" transform="translate(-430.000000, -5750.000000)">
            <g id="illust/result/mr1" transform="translate(430.000000, 5750.000000)">
                <rect id="Rectangle-Copy-32" x="0" y="0" width="186" height="140"></rect>
                <g id="Group-35" transform="translate(39.000000, 8.000000)">
                    <g id="Group-16" transform="translate(21.000000, 101.000000)">
                        <g id="Group-9">
                            <mask id="mask-2" fill="white">
                                <use xlink:href="#path-1"></use>
                            </mask>
                            <g id="Clip-8"></g>
                            <path d="M3.15462822,2.99969403 L-0.000151745068,1.13482917 C0.512746586,0.836511984 1.01350531,0.600917899 1.49908953,0.420397756 L4.6538695,2.28526262 C4.16676783,2.46425293 3.6660091,2.70290668 3.15462822,2.99969403" id="Fill-7" fill="#222229" mask="url(#mask-2)"></path>
                        </g>
                        <g id="Group-12">
                            <mask id="mask-4" fill="white">
                                <use xlink:href="#path-3"></use>
                            </mask>
                            <g id="Clip-11"></g>
                            <path d="M4.65356601,2.28556859 L1.49878604,0.420703723 C2.43808801,0.0764915859 3.32124431,-0.0535441101 4.11790592,0.0183579806 L7.27268589,1.88322285 C6.47450683,1.81132075 5.59135053,1.93982662 4.65356601,2.28556859" id="Fill-10" fill="#222229" mask="url(#mask-4)"></path>
                        </g>
                        <g id="Group-15">
                            <mask id="mask-6" fill="white">
                                <use xlink:href="#path-5"></use>
                            </mask>
                            <g id="Clip-14"></g>
                            <path d="M7.27283763,1.88291688 L4.11805766,0.0180520143 C4.75235205,0.0746557879 5.33353566,0.258235594 5.84643399,0.558082611 L8.99969651,2.42294748 C8.48679818,2.12157063 7.90713202,1.93952065 7.27283763,1.88291688" id="Fill-13" fill="#222229" mask="url(#mask-6)"></path>
                        </g>
                    </g>
                    <g id="Group-32" transform="translate(12.000000, 102.000000)">
                        <g id="Group-19">
                            <mask id="mask-8" fill="white">
                                <use xlink:href="#path-7"></use>
                            </mask>
                            <g id="Clip-18"></g>
                            <path d="M5.38229748,21.9993731 L2.32291214,20.088987 C0.894021734,19.2051004 0.00666754493,17.3229235 -0.000722768622,14.6493233 C-0.00216184999,14.0177518 0.0463998221,13.3705086 0.137636903,12.7138624 L3.19702224,14.6242485 C3.1043136,15.2793275 3.05722349,15.9265707 3.05869505,16.5581422 C3.06605288,19.2333096 3.95193551,21.1154865 5.38229748,21.9993731" id="Fill-17" fill="#222229" mask="url(#mask-8)"></path>
                        </g>
                        <g id="Group-22">
                            <mask id="mask-10" fill="white">
                                <use xlink:href="#path-9"></use>
                            </mask>
                            <g id="Clip-21"></g>
                            <path d="M3.19658077,14.6242485 L0.137195433,12.7138624 C0.303482371,11.5322126 0.615454324,10.325488 1.04515154,9.13913663 L4.10306532,11.0495227 C3.6733681,12.2358741 3.36286771,13.4425987 3.19658077,14.6242485" id="Fill-20" fill="#222229" mask="url(#mask-10)"></path>
                        </g>
                        <g id="Group-25">
                            <mask id="mask-12" fill="white">
                                <use xlink:href="#path-11"></use>
                            </mask>
                            <g id="Clip-24"></g>
                            <path d="M4.10335963,11.0498362 L1.04544586,9.13945006 C1.4265814,8.08944294 1.9004256,7.05667474 2.45079121,6.07248896 L5.51017655,7.98130788 C4.95981094,8.96549366 4.48449518,9.99982904 4.10335963,11.0498362" id="Fill-23" fill="#222229" mask="url(#mask-12)"></path>
                        </g>
                        <g id="Group-28">
                            <mask id="mask-14" fill="white">
                                <use xlink:href="#path-13"></use>
                            </mask>
                            <g id="Clip-27"></g>
                            <path d="M5.51032371,7.98209147 L2.45093837,6.07170537 C3.40892772,4.36191765 4.5935382,2.80101154 5.91500431,1.56451061 L8.97438965,3.47489671 C7.65292354,4.71296481 6.46684149,6.27230375 5.51032371,7.98209147" id="Fill-26" fill="#222229" mask="url(#mask-14)"></path>
                        </g>
                        <g id="Group-31">
                            <mask id="mask-16" fill="white">
                                <use xlink:href="#path-15"></use>
                            </mask>
                            <g id="Clip-30"></g>
                            <path d="M8.97438965,3.47411312 L5.91500431,1.5652942 C6.56249327,0.95879755 7.24088511,0.430659638 7.94135044,-0.000313434962 L10.9992642,1.91007266 C10.2987989,2.34104573 9.62040704,2.86918364 8.97438965,3.47411312" id="Fill-29" fill="#222229" mask="url(#mask-16)"></path>
                        </g>
                    </g>
                    <g id="Group-110" transform="translate(2.000000, 0.000000)">
                        <path d="M21.3630388,104.599872 C25.9822836,101.929123 29.7394753,104.073768 29.754963,109.38896 C29.7688284,114.705698 26.036355,121.179864 21.4171102,123.850613 C16.7978654,126.521361 13.0406736,124.379811 13.0267217,119.063072 C13.0113206,113.747881 16.743794,107.272167 21.3630388,104.599872" id="Fill-33" fill="#2E2E37"></path>
                        <path d="M26.5341491,111.252449 C26.5433905,114.522026 24.2476722,118.503391 21.4066049,120.145143 C19.5326437,121.228297 17.8904172,121.024045 16.9866519,119.820197 C16.5200927,119.198157 16.2512805,118.311518 16.2466178,117.198964 C16.2373764,113.930934 18.5315498,109.949569 21.3726171,108.30627 C22.5652783,107.617693 23.6652457,107.449031 24.538113,107.730651 C25.749313,108.114397 26.5294864,109.355382 26.5341491,111.252449" id="Fill-35" fill="#222229"></path>
                        <path d="M25.2789195,110.348789 C25.2881609,113.616819 22.9924426,117.598184 20.1513753,119.241483 C18.9587141,119.930059 17.8618366,120.098722 16.9874244,119.820197 C16.5208652,119.198157 16.250508,118.311518 16.2473903,117.198964 C16.2381489,113.930934 18.5323223,109.949569 21.3733896,108.30627 C22.5645059,107.617693 23.6644732,107.449031 24.5388854,107.730651 C25.0054446,108.351143 25.2758018,109.237782 25.2789195,110.348789" id="Fill-37" fill="#0F0F18"></path>
                        <path d="M12.8344297,122.384641 C12.0496216,122.384641 11.2679032,122.2036 10.6437645,121.843064 L7.72545229,120.156439 C6.78460945,119.611767 6.33040946,118.711202 6.54051558,117.804447 C6.67955639,117.194786 7.28361148,116.81723 7.89230126,116.95804 C8.44228493,117.084923 8.80379104,117.594006 8.7636237,118.140225 C8.78525227,118.157246 8.81460533,118.177362 8.85322778,118.199025 L11.7699951,119.887197 C12.3168889,120.20286 13.3504257,120.20286 13.8973195,119.887197 L30.6857253,110.179043 C30.7413417,110.146548 30.7768743,110.118696 30.7985029,110.100127 C30.857209,109.530698 31.3376723,109.086605 31.9200988,109.086605 C32.5442375,109.086605 33.0478743,109.591045 33.0478743,110.21618 C33.0478743,110.980577 32.598309,111.681532 31.8135008,112.13491 L15.025095,121.843064 C14.4009562,122.2036 13.6161481,122.384641 12.8344297,122.384641" id="Fill-39" fill="#A0A6C0"></path>
                        <path d="M61.6858017,82.5696025 C61.1698058,82.5696025 60.7047915,82.2121617 60.5873793,81.6876057 C60.4684221,81.1584076 60.0343058,80.6663462 59.3329221,80.2593898 C58.7937528,79.9483698 58.6099099,79.2566986 58.9204344,78.716669 C59.2325038,78.1766394 59.9215282,77.9925032 60.4622425,78.3035231 C61.7228792,79.032331 62.5262262,80.0319274 62.7873139,81.1924496 C62.9232649,81.8005632 62.5416751,82.405582 61.9345303,82.54175 C61.8511058,82.5603183 61.7676813,82.5696025 61.6858017,82.5696025" id="Fill-41" fill="#A0A6C0"></path>
                        <path d="M1.1624169,94.8652571 C0.620157727,94.8652571 0.142784267,94.472227 0.0516352889,93.9182711 C-0.278972868,91.9005099 0.992478128,89.9833274 3.45041074,88.7856685 C4.01120868,88.5133326 4.68632908,88.7469844 4.95823112,89.3086772 C5.23013315,89.8688225 4.99685356,90.5450201 4.43760051,90.8173559 C2.92514544,91.5539006 2.11716382,92.5767075 2.27628831,93.5515461 C2.37825157,94.1689438 1.96112913,94.7492049 1.34780465,94.8497835 C1.28446384,94.860615 1.22421282,94.8652571 1.1624169,94.8652571" id="Fill-43" fill="#A0A6C0"></path>
                        <path d="M3.94524154,90.9320155 C3.54665788,90.9320155 3.16197829,90.7200268 2.95496197,90.345565 C2.65679667,89.7993459 2.8545436,89.1123168 3.40143747,88.8121284 L37.2007144,70.2097323 C37.2177083,70.2019955 37.2347021,70.1927113 37.251696,70.1834271 C40.0896735,68.8031795 44.2176408,68.9099475 46.8516918,70.4340999 L60.4622425,78.3039873 C60.999867,78.6150073 61.1852548,79.3066785 60.8747303,79.8467081 C60.5626609,80.3867377 59.8736364,80.5739686 59.3329221,80.259854 L45.7239163,72.3899665 C43.7232734,71.2325391 40.4496347,71.1505289 38.2620593,72.2027356 L4.48750072,90.7912055 C4.31447215,90.887142 4.1290844,90.9320155 3.94524154,90.9320155" id="Fill-45" fill="#A0A6C0"></path>
                        <path d="M70.5938376,104.321037 C70.5722091,103.880038 70.7019805,103.69745 71.0063254,103.38643 C71.5547642,102.826284 72.2206152,102.391475 72.918909,102.041771 C73.8860151,101.557447 75.3953804,101.388784 76.2388947,100.772934 C76.7301722,100.412398 78.5670559,98.3513109 78.655115,97.6642818 L83.3083476,97.7246289 C83.6219619,98.0929013 83.9031333,98.4843841 84.1425925,98.9083615 C84.8856884,100.235999 85.1359619,102.055698 84.4021353,103.445229 C83.5941537,104.977119 81.7263721,104.802267 80.2355456,105.015803 C79.0907763,105.179823 78.1205804,105.685811 77.2168151,106.383671 C76.3733008,107.036659 75.1698253,107.516341 74.11466,107.66334 C73.4117315,107.762372 72.6516417,107.689646 72.0692152,107.282689 C71.4651601,106.860259 71.1422764,106.146925 70.8811887,105.456801 C70.7436927,105.093171 70.6123764,104.71252 70.5938376,104.321037" id="Fill-47" fill="#464654"></path>
                        <path d="M100.594983,77.1937545 C100.418865,77.2448175 100.25665,77.3206382 100.142328,77.464543 C99.7391095,77.9689833 99.7684626,79.004169 99.8364381,79.6029984 C99.9708442,80.7851837 100.352434,81.9302322 100.431224,83.1186068 C100.472936,83.7561203 100.421954,84.3951812 100.369428,85.0311473 C100.298363,85.8806495 100.221118,86.7286043 100.157777,87.5781065 C100.10525,88.300725 100.381787,88.8159968 100.917867,89.3250792 C101.072356,89.473626 101.25311,89.6066992 101.463216,89.6438359 C101.633154,89.6732358 101.807728,89.6376465 101.974577,89.5958677 C102.898426,89.366858 103.779018,88.9676384 104.560736,88.424514 C104.95314,88.1537255 105.33164,87.8303267 105.538656,87.4001598 C105.717865,87.0226033 105.750307,86.5939838 105.770391,86.1761958 C105.812103,85.2972937 105.873899,84.3719707 105.683877,83.511637 C105.527842,82.8029448 105.469136,82.1948312 105.583458,81.4536444 C105.673062,80.8764781 105.85536,80.3163327 105.946509,79.7391664 C106.037658,79.162 106.033024,78.5461496 105.767301,78.0246883 C105.530932,77.5620268 105.113809,77.221607 104.687418,76.9260607 C104.217769,76.6011145 103.50866,76.1338109 102.901516,76.2080844 C102.362346,76.274621 101.764471,76.7945349 101.256199,77.0142604 C101.058452,77.097818 100.815903,77.1287652 100.594983,77.1937545" id="Fill-49" fill="#222229"></path>
                        <path d="M75.8810963,57.896283 C76.9285371,63.0722117 76.5917494,80.2634129 81.5817697,78.5690506 C83.1467513,78.0383051 85.723641,75.0457054 85.7406349,71.5548548 C85.7499043,69.6732616 85.5351635,65.5913184 85.51199,63.7097252 C85.4625533,59.8181076 89.0158185,46.6237446 80.9669003,44.7545303 C79.7587901,44.4744576 77.7735963,42.2493499 76.8203943,43.1483677 C76.6257371,43.3325039 76.0278616,44.1959323 75.6524514,46.0047995 C75.4392555,47.0368905 75.3929086,48.5935375 75.2986698,49.9660484 C75.1364555,52.3164925 75.3017596,55.0367564 75.8810963,57.896283" id="Fill-51" fill="#F7810A"></path>
                        <path d="M79.4249377,74.6596384 C79.4002193,75.340478 79.601056,75.9114549 80.2298295,76.1327278 C80.9281234,76.3772111 81.8087152,76.4468424 82.5456315,76.6309786 C84.2434743,77.0565034 85.9413171,77.4758387 87.6422498,77.890532 C89.9487824,78.4522247 92.2599497,79.1098539 94.6081945,79.5013367 C96.508419,79.8169987 98.30977,80.4854595 100.253252,80.7237533 C100.539058,80.7593427 100.831043,80.7887426 101.118394,80.7253007 C101.444368,80.654122 101.747168,80.462249 102.011345,80.2347867 C102.953733,79.4270633 103.312149,76.6139576 102.343498,76.1002332 C98.9648067,74.308387 90.6856987,70.5560321 87.0706375,69.3181418 C85.2862804,68.7084809 83.6842213,68.8260804 81.9879233,70.0531392 C80.6809397,70.9985779 79.7431867,72.5335618 79.4759193,74.1644822 C79.4481111,74.3331448 79.4295724,74.4987126 79.4249377,74.6596384" id="Fill-53" fill="#F7810A"></path>
                        <path d="M88.8520593,47.7704952 C84.3409574,46.8374354 83.7492615,47.4904226 81.530788,44.6355381 C80.7985064,45.9337755 80.5296942,47.3527073 79.927184,48.6880814 C79.3648411,49.9337085 78.4626208,51.0075783 78.0146004,52.3073631 C77.5634902,53.6133373 77.6283759,55.0879741 78.1907187,56.3506222 C79.0373228,58.2538785 81.5493268,58.3931412 81.0209717,60.8967743 C80.1357452,65.0854855 78.1242881,70.70396 78.3405738,75.0226497 C78.3915555,76.034625 78.4425371,77.0450529 78.4935187,78.0570282 C78.5105126,78.3773323 78.5259616,78.7007312 78.6062963,79.0117511 C78.7391575,79.531665 79.0388677,79.9896844 79.3339432,80.4368723 C79.6568269,80.9273863 80.0075187,81.4411108 80.5435983,81.6855941 C80.9236432,81.8588987 81.3562146,81.8759197 81.773337,81.8418777 C82.7049105,81.7691517 84.8646778,81.4983632 86.3385104,80.1506101 C87.6686675,78.934383 89.8639675,69.8590999 90.7569185,67.5504345 C91.2296573,66.3295652 91.7039409,65.1071486 92.2446552,63.9141318 C92.7575613,62.7907464 93.3538919,61.7602027 93.7493858,60.5687333 C94.5496429,58.1563947 94.8756164,55.5846776 94.6902286,53.0470025 C94.6176184,52.0458588 94.4615837,51.0323361 94.033647,50.1240341 C93.6304286,49.2667951 92.929045,48.4420507 92.0175552,48.1109151 C91.0550838,47.7627584 89.8639675,47.9793892 88.8520593,47.7704952" id="Fill-55" fill="#FFA200"></path>
                        <path d="M79.4876605,81.8601366 C81.2225809,80.8589929 84.0327502,80.8589929 85.7676706,81.8601366 C87.5010461,82.8612804 87.5010461,84.484464 85.7676706,85.4871551 C84.0327502,86.4882989 81.2225809,86.4882989 79.4876605,85.4871551 C77.7527402,84.484464 77.7527402,82.8612804 79.4876605,81.8601366" id="Fill-57" fill="#222229"></path>
                        <path d="M78.3499977,73.4977236 C77.6099916,77.8272448 78.9262446,87.2785371 78.9633222,91.1221864 C78.981861,93.0146112 79.8253752,101.375013 80.3490956,101.548317 C80.9855936,101.760306 85.2402425,94.404143 85.50442,92.5844443 C86.0698527,88.706753 87.0755812,82.2140185 87.2362506,78.2991905 C87.2841424,77.1108158 84.1078323,76.4934181 83.6922547,76.6512491 C82.3219303,77.1696156 78.4334222,73.0072096 78.3499977,73.4977236" id="Fill-59" fill="#FFA200"></path>
                        <path d="M78.202151,83.8735652 C78.322653,86.4623032 78.474053,88.8669051 78.489502,90.4436678 C78.5080408,92.3376399 77.808202,99.7587921 78.8958101,100.778504 C79.2990285,101.156061 79.8242938,101.375786 80.3495591,101.549091 C80.986057,101.76108 81.6750815,101.918911 82.3208488,101.740964 C84.0758529,101.259734 83.9955182,103.815978 84.5424121,102.328962 C85.1742753,100.608294 86.2186263,94.2780329 86.4828039,92.4583342 C86.8273161,90.103248 86.9725365,86.8321229 87.0683202,83.7482288 L87.0652304,83.7482288 C87.0343324,84.3795528 86.601761,85.0046874 85.7675161,85.4859172 C84.0325958,86.4886084 81.2208815,86.4886084 79.487506,85.4859172 C78.7088775,85.037182 78.2793959,84.461563 78.202151,83.8735652" id="Fill-61" fill="#464654"></path>
                        <path d="M72.1433703,26.6506945 L78.641211,26.8085255 C78.6396661,26.8131676 78.6381212,26.819357 78.6350314,26.8239991 C76.1415661,33.1310501 74.8778396,38.1940213 73.4627131,40.1096565 C73.0270519,40.6992018 72.7875927,40.0260989 72.2267948,40.2272561 C71.511507,40.4856657 68.1250907,37.7654018 68.1250907,37.7654018 C68.8450132,34.6165184 70.8116682,29.0228017 72.1433703,26.6506945" id="Fill-63" fill="#E1AA8F"></path>
                        <path d="M78.8955012,18.1145126 C75.7330951,16.8008016 70.9284625,26.5584717 71.5371523,28.4369702 C72.1149441,30.2226269 74.0043543,31.3460123 75.7330951,31.8844946 C77.32434,32.3811981 77.2131073,31.6245376 79.624693,26.8942494 C81.6701378,22.8803902 80.7555583,18.8866467 78.8955012,18.1145126" id="Fill-65" fill="#585862"></path>
                        <path d="M93.1495019,43.2099527 C93.1587713,30.4117146 104.75632,24.1216847 83.1663715,17.3535196 C72.4200615,13.9833633 75.2626737,42.3449769 75.2626737,52.3858144 C75.2626737,55.3134249 94.5769876,53.4906315 94.0424529,49.4257093 C93.6345999,46.337173 93.147957,45.9395008 93.1495019,43.2099527" id="Fill-67" fill="#35353F"></path>
                        <path d="M75.0278492,32.3784128 C74.6941512,39.7252916 75.2626737,47.8907253 75.2626737,52.3858144 C75.2626737,55.3134249 77.28649,53.2569797 81.7234368,55.8611914 C85.6490225,58.1636673 94.9632121,54.5939012 94.4611203,53.1378327 C91.1890264,49.6640032 88.1641163,39.2827458 87.5168041,34.6189942 C83.4027409,35.0058349 78.6506348,34.6406573 75.0278492,32.3784128" id="Fill-69" fill="#FFA200"></path>
                        <path d="M82.4733303,17.1768107 C77.0909059,16.1215093 75.4255059,23.6757347 75.0284671,32.3781033 C75.3776141,32.5962815 76.0496447,34.0755604 76.4173304,34.2596966 C77.3071916,28.6118222 77.1635161,19.740791 82.4733303,17.1768107" id="Fill-71" fill="#FFA200"></path>
                        <path d="M93.4014748,22.0607521 C92.792785,21.5717854 92.0697727,21.0890082 91.2138993,20.6093257 C87.3485647,24.2162285 85.315479,29.4385781 84.8597341,34.7506748 C85.2768565,34.7491274 85.7310565,36.124733 86.2053402,36.0999752 C86.6579953,36.0752174 87.1338239,34.6516436 87.5169585,34.6191489 C87.6513647,29.8254188 89.6411932,25.0378782 93.4014748,22.0607521" id="Fill-73" fill="#FFA200"></path>
                        <path d="M88.1557738,45.7561383 C88.2731861,41.6231321 88.9081391,36.0866679 89.7964554,31.3873269 L97.4854124,29.6589226 C97.4390655,30.1881207 95.7489472,40.1268323 93.966135,46.1445264 C93.5428329,47.5727423 92.8198207,45.3662029 91.6209799,46.3100942 C91.0879901,46.7278822 91.2687432,47.660942 90.5967126,47.5897633 C89.7114861,47.4938268 88.1295106,46.6195668 88.1557738,45.7561383" id="Fill-75" fill="#F5A783"></path>
                        <path d="M63.26237,49.1857133 C62.445119,49.2011869 61.1195966,48.1102961 61.4563843,47.4712353 C62.4852864,45.5122739 67.6745985,37.8775856 68.666423,35.712825 C69.0665515,34.8401124 71.8272841,35.7607933 72.5363923,36.553043 C74.1863433,38.3959522 73.3520984,40.237314 73.3520984,40.237314 C61.8781415,51.3473792 65.5797169,49.1439345 63.26237,49.1857133" id="Fill-77" fill="#E1AA8F"></path>
                        <path d="M97.6847043,28.0703999 C97.1903369,26.2986695 96.6712512,24.0101198 94.5593758,23.5474583 C90.8006391,22.7227139 88.3071738,33.0869503 89.2742799,35.2377846 C89.6960371,36.1754865 90.6986758,36.7031372 94.8003798,37.8373542 C96.0054002,38.1715846 96.3390982,37.811049 96.5553839,36.9677363 C97.0203982,35.1403008 98.188341,29.8730776 97.6847043,28.0703999" id="Fill-79" fill="#585862"></path>
                        <path d="M87.1999455,54.7962962 C84.1704007,57.1714982 82.5420782,59.5699106 81.0821497,58.403199 C80.607866,58.0240951 79.1510273,58.0937265 79.2931579,57.5057286 C79.5928681,56.2786698 82.5637068,54.0241622 83.9695639,51.4214979 C84.6585884,50.1449235 87.3358965,46.0165595 88.1361536,44.9086477 C88.8807944,43.8811987 89.8154577,41.8943848 91.0745495,42.0553106 C93.9109821,42.4173935 94.69888,44.5573963 93.8198331,46.4869578 C93.2883882,47.6490273 90.6960495,52.0559166 87.1999455,54.7962962" id="Fill-81" fill="#F5A783"></path>
                        <path d="M88.6166169,19.9905353 C88.7572026,24.4252773 80.4502864,24.501098 80.5692436,20.3294078 C80.7360926,14.517513 81.0883293,13.8505996 83.8227986,12.9500344 C84.5720741,12.7024563 85.3553374,12.5121307 86.14787,12.4982044 C89.0352842,12.4455941 87.9167781,13.9124941 87.8086353,14.9368483 C87.4857516,17.9743216 88.5656353,18.3952042 88.6166169,19.9905353" id="Fill-83" fill="#FFBFA2"></path>
                        <path d="M88.6166169,19.9905353 C88.5656353,18.3952042 87.4857516,17.9743216 87.8086353,14.9368483 C87.9167781,13.9124941 89.0352842,12.4455941 86.14787,12.4982044 C85.3553374,12.5121307 84.5720741,12.7024563 83.8227986,12.9500344 C81.1269517,13.8382207 80.7469068,14.5035867 80.5769681,20.0942086 C82.8742313,19.8729358 84.9057721,17.3337133 87.2478373,18.8408447 C87.8719761,19.3096957 88.2921883,19.9131672 88.5826291,20.5785332 C88.6119822,20.3928497 88.6227965,20.1963346 88.6166169,19.9905353" id="Fill-85" fill="#E1AA8F"></path>
                        <path d="M77.7125728,6.05436661 C77.1378708,6.9750475 76.801083,8.03653841 76.8134422,9.16456593 C76.8180769,9.65043786 76.8984116,10.1347624 77.0606259,10.5943292 C77.2135708,11.0275908 77.4870177,11.4376419 77.4901075,11.911135 C77.4962871,12.4666382 77.0977034,13.0871307 76.9154055,13.6101394 C76.7531912,14.0836324 76.6604973,14.6143779 76.84743,15.0785867 C76.9540279,15.3447331 77.1440504,15.5675534 77.2985402,15.808942 C78.0323667,16.9632747 77.3402524,18.6669212 78.617883,19.4963076 C78.936132,19.7021069 79.3130871,19.7423383 79.6915871,19.7624541 C80.1627809,19.7872119 82.2931952,19.1899298 83.1197156,18.8247522 C84.0281156,18.4224378 84.9164319,17.3841574 85.5745584,16.6367811 C86.0890094,16.0503306 86.9526073,15.2967649 87.2816706,14.5942622 C87.382089,14.3776314 87.13954,14.3373999 87.3604604,14.2306319 C87.4933216,14.1656426 87.653991,13.3161404 87.8007563,13.3006668 C87.9768747,13.2820985 88.2147889,13.0871307 88.3630991,12.9880995 C88.6489053,12.7962265 88.7848563,13.4909924 88.8806399,13.1614042 C89.2792236,11.7563987 89.7859501,10.3219933 89.727244,8.84116709 C89.6716277,7.48412988 89.7009808,6.31896565 88.8296583,5.16463297 C88.1746216,4.29810978 87.2384134,3.66678574 86.2234155,3.27994502 C84.6738829,2.69039978 82.9188788,2.65790516 81.3492625,3.1932927 C79.8630707,3.70082772 78.5406381,4.73137137 77.7125728,6.05436661" id="Fill-87" fill="#FFBFA2"></path>
                        <path d="M82.8527572,7.30339789 C83.2358919,7.24150338 83.6205715,7.25388228 83.9697184,7.41016593 C84.5645041,7.67940707 84.9182857,8.32465737 85.0140694,8.97145504 C85.2241755,10.3965762 84.732898,11.8170553 84.6927306,13.2297976 C84.686551,13.4417863 84.7004551,13.6630592 84.8055082,13.8471954 C85.0882245,14.3516357 85.6212143,14.0777524 85.9209245,13.7574483 C86.1140367,13.5547438 86.2654367,13.3133552 86.4508245,13.1029138 C86.6362122,12.8909251 86.8679469,12.7036942 87.1429388,12.6526313 C87.5847796,12.5721684 87.9246571,12.920325 87.9941775,13.3288288 C88.0575183,13.7017433 87.9879979,14.0777524 87.8906694,14.438288 C87.8674959,14.5249403 87.6805632,15.1732853 87.9478306,15.1779282 C88.2150979,15.1794748 90.5695224,12.7516625 90.6745754,8.62794049 C90.7749938,4.67288106 88.0358898,3.93478898 88.0358898,3.93478898 C88.0358898,3.93478898 86.8293245,1.88453321 83.6468347,2.03772213 C81.9737103,2.11663764 80.3361185,2.66285672 78.9225369,3.54640091 C78.8653756,3.58199025 78.8082144,3.61912696 78.7525981,3.65471631 C78.0666634,4.10190417 77.4162614,4.63264962 76.9728757,5.32122609 C75.7524063,7.21210349 77.3961777,8.72697171 79.3767369,8.41130969 C80.3098552,8.2612155 81.1672736,7.82950126 82.0586797,7.5153866 C82.3135878,7.42718692 82.5824001,7.34672405 82.8527572,7.30339789" id="Fill-89" fill="#C99C83"></path>
                        <path d="M90.6745754,8.62778575 C90.6622162,9.05021581 90.6282285,9.45562488 90.5741571,9.84091823 C90.1075979,13.2234534 88.1919245,15.1777727 87.9478306,15.1777727 C87.6805632,15.1731306 87.8674959,14.5247856 87.8906694,14.4381332 C87.9879979,14.0760503 88.0575183,13.7031359 87.9941775,13.3286741 C87.9246571,12.9201703 87.5847796,12.573561 87.1429388,12.6524765 C86.8679469,12.7035395 86.6346673,12.8907704 86.4508245,13.1027591 C86.2654367,13.3132005 86.1124918,13.5545891 85.9209245,13.758841 C85.6212143,14.0760503 85.0897694,14.3514809 84.8039633,13.848588 C84.7004551,13.6629045 84.686551,13.4400842 84.6927306,13.2280955 C84.6973653,13.025391 84.7143592,12.8257812 84.732898,12.6230766 C84.7715204,12.2563516 84.8286817,11.8880793 84.884298,11.5213543 C85.0140694,10.6733994 85.1392061,9.82234987 85.0140694,8.97130031 C84.9198306,8.32450264 84.566049,7.67925233 83.9712633,7.4100112 C83.6205715,7.25218018 83.2358919,7.24134864 82.8527572,7.30324316 C82.8527572,7.30324316 84.1365674,5.9895321 85.2674327,5.27465047 C86.398298,4.55512674 88.0358898,3.93463424 88.0358898,3.93463424 C88.0358898,3.93463424 90.5339897,4.60773708 90.6699407,8.11560865 C90.6776652,8.27962911 90.6776652,8.44983903 90.6745754,8.62778575" id="Fill-91" fill="#B98C74"></path>
                        <path d="M87.5612971,11.5707152 C88.7354195,11.4917996 89.0335848,12.9509628 88.2271481,14.077443 C87.9923236,14.4054839 87.5767461,14.6979355 87.2693114,14.9594398 C85.1667053,16.7528333 84.6383502,14.8124403 85.307291,14.201232 C86.8583686,12.7838476 86.0859196,11.6697464 87.5612971,11.5707152" id="Fill-93" fill="#FFBFA2"></path>
                        <path d="M86.8529614,14.3541114 C86.9873675,14.2303224 88.3252491,13.43962 87.4137594,12.9011377 C87.161941,12.7525909 86.8823145,12.9738638 86.843692,13.2415576 C86.8220635,13.3808202 86.8653206,13.5216302 86.8452369,13.6608929 C86.8328777,13.7429031 86.79889,13.8202713 86.7556328,13.8914499 C86.6366757,14.0848703 86.2319124,14.2705538 86.3107022,14.5537212 C86.3802226,14.804394 86.7757165,14.4252901 86.8529614,14.3541114" id="Fill-95" fill="#E1AA8F"></path>
                        <path d="M59.698136,52.6935849 C59.8263625,52.7725004 59.9654033,52.8343949 60.0426482,52.9612786 C60.1755095,53.1810042 60.0704564,53.4347717 60.4149686,53.3821613 C60.7007748,53.3388352 60.7177686,53.1810042 60.9912156,53.4378664 C61.1410707,53.5802238 61.2090462,53.8262545 61.3913441,53.9299278 C61.6725156,54.0893062 61.8223707,53.8293492 62.0463809,53.7844757 C62.2981992,53.7334127 62.4125217,53.956233 62.5855502,54.1094219 C63.0490196,54.5179257 63.3332808,54.131085 63.0721931,53.6668761 C62.9717747,53.487382 62.8852604,53.4270349 62.906889,53.2026672 C62.9532359,52.6765639 63.3641788,52.2711548 63.6824278,51.8843141 C64.0145808,51.4773577 64.3498237,51.0673065 64.6140012,50.6123818 C65.2041522,49.5880276 65.1717094,48.5187999 64.40544,47.5903822 C63.8987135,46.9760792 62.3569053,46.1327664 61.6833298,46.864669 C61.6678809,46.8801427 61.6555217,46.8956163 61.6400727,46.9110899 C60.7826544,47.8720022 60.1616054,49.1129872 59.7367585,50.3214776 C59.5560054,50.8352021 59.3845217,51.3922527 59.3845217,51.9415665 C59.3845217,52.1195133 59.395336,52.3222178 59.4803054,52.4815962 C59.5328319,52.5775327 59.6131666,52.6394272 59.698136,52.6935849" id="Fill-97" fill="#E1AA8F"></path>
                        <path d="M103.945712,76.4661845 C104.914363,76.9799089 103.839114,80.1164134 102.898271,80.9241368 C102.632549,81.1531465 102.451796,81.5136821 102.125822,81.5864081 C101.838471,81.64985 100.539212,80.758569 100.253406,80.7229797 C98.3099245,80.4862332 91.6529593,79.483542 90.1899409,79.1137223 C90.4525736,76.5806893 91.0195511,72.9242709 92.6030715,70.9436465 C97.0091204,72.7772715 101.657718,75.253052 103.945712,76.4661845" id="Fill-99" fill="#222229"></path>
                        <path d="M78.8003354,6.21529234 C75.32586,6.24314487 72.6439172,6.98587904 72.6577675,7.97000181 C72.6717254,9.03304008 75.8294967,9.97538406 79.7087354,10.0728679 C79.912662,10.0790574 80.1150436,10.0806047 80.3127905,10.0806047 L78.8003354,6.21529234 Z" id="Fill-101" fill="#FFAB00"></path>
                        <path d="M75.7015792,7.73248161 C75.7541057,7.3456409 75.8437098,6.96498964 75.9348588,6.58588574 C78.4375934,-3.83715038 91.0022483,-0.132763732 91.1043015,7.17697835 C91.1057564,7.35492508 91.0872177,7.52977708 91.0624993,7.70153436 C86.5313137,10.5718924 79.3707118,11.631836 75.7015792,7.73248161" id="Fill-103" fill="#FFAB00"></path>
                        <g id="Group-107" transform="translate(76.255116, 0.000000)">
                            <mask id="mask-18" fill="white">
                                <use xlink:href="#path-17"></use>
                            </mask>
                            <g id="Clip-106"></g>
                            <path d="M12.1058202,1.9382267 C12.0872814,2.06665782 12.0162161,2.16568904 11.866361,2.21829938 C8.40887943,3.08482257 3.66604279,0.862809523 1.75809384,5.04842602 C1.32243263,5.94125438 0.551528561,5.79116019 0,5.35635123 C0.804891822,-1.0187837 10.4187916,-1.0853203 12.1058202,1.9382267" id="Fill-105" fill="#FFC040" mask="url(#mask-18)"></path>
                        </g>
                        <path d="M81.5590597,8.17982421 C81.4725454,7.70014173 83.1039576,7.00382845 85.201929,6.62472455 C87.2999004,6.24562065 89.0703534,6.32608352 89.1568677,6.805766 C89.243382,7.28544849 87.6119698,7.98176177 85.5139984,8.36086566 C83.416027,8.73996956 81.645574,8.65950669 81.5590597,8.17982421" id="Fill-108" fill="#FF8C00"></path>
                    </g>
                    <g id="Group-117" transform="translate(71.000000, 58.000000)">
                        <g id="Group-113">
                            <mask id="mask-20" fill="white">
                                <use xlink:href="#path-19"></use>
                            </mask>
                            <g id="Clip-112"></g>
                            <path d="M-0.00123593026,7.92592593 L13.2448466,0.0724980299 C13.3514456,0.0110323089 13.4796734,-0.0141843972 13.6218053,0.00788022065 L0.375722798,7.85973207 C0.233590819,7.8392435 0.105363055,7.86288416 -0.00123593026,7.92592593" id="Fill-111" fill="#2C2C34" mask="url(#mask-20)"></path>
                        </g>
                        <g id="Group-116">
                            <mask id="mask-22" fill="white">
                                <use xlink:href="#path-21"></use>
                            </mask>
                            <g id="Clip-115"></g>
                            <path d="M0.37587729,7.86052009 L13.6219598,0.00709219858 C13.7393732,0.024428684 13.8660561,0.0701339638 13.9989186,0.147360126 L0.752836019,8.00078802 C0.619973516,7.92356186 0.493290664,7.87628054 0.37587729,7.86052009" id="Fill-114" fill="#35353F" mask="url(#mask-22)"></path>
                        </g>
                    </g>
                    <g id="Group-127" transform="translate(72.000000, 58.000000)">
                        <g id="Group-120">
                            <mask id="mask-24" fill="white">
                                <use xlink:href="#path-23"></use>
                            </mask>
                            <g id="Clip-119"></g>
                            <path d="M0.00060475146,7.53728634 L12.9634523,-0.000151263046 C13.1675559,0.117833913 13.3565408,0.294811678 13.5167999,0.503554682 L0.553952338,8.04099229 C0.393693201,7.83224928 0.204708369,7.65527152 0.00060475146,7.53728634" id="Fill-118" fill="#35353F" mask="url(#mask-24)"></path>
                        </g>
                        <g id="Group-123" transform="translate(0.000000, 0.000000)">
                            <mask id="mask-26" fill="white">
                                <use xlink:href="#path-25"></use>
                            </mask>
                            <g id="Clip-122"></g>
                            <path d="M0.553649962,8.04023597 L13.5164975,0.502798366 C13.6389597,0.661624565 13.7432793,0.838602329 13.8234089,1.02163062 L0.860561328,8.55906822 C0.780431759,8.37603993 0.676112133,8.19754954 0.553649962,8.04023597" id="Fill-121" fill="#2C2C34" mask="url(#mask-26)"></path>
                        </g>
                        <g id="Group-126" transform="translate(0.000000, 0.000000)">
                            <mask id="mask-28" fill="white">
                                <use xlink:href="#path-27"></use>
                            </mask>
                            <g id="Clip-125"></g>
                            <path d="M0.860712516,8.55876569 L13.8235601,1.02284072 C13.9354391,1.27847527 14.0019617,1.54772349 14.0004751,1.79730752 C13.998938,2.1240357 13.8840352,2.35395553 13.6980741,2.46286492 L0.735226588,10.0003025 C0.921187662,9.89139313 1.03609044,9.6614733 1.03760232,9.33474512 C1.0391142,9.0851611 0.972591536,8.81591287 0.860712516,8.55876569" id="Fill-124" fill="#23232A" mask="url(#mask-28)"></path>
                        </g>
                    </g>
                    <path d="M72.0021818,65.1596577 C72.5549071,65.5328572 73.001451,66.4319287 73,67.174935 C72.9985419,67.9145485 72.549089,68.2114118 71.9963637,67.8399086 C71.4436383,67.4684055 70.998549,66.5676376 71,65.8297204 C71.0029126,65.0867141 71.450911,64.7881545 72.0021818,65.1596577" id="Fill-128" fill="#222229"></path>
                    <g id="Group-136" transform="translate(56.000000, 48.000000)">
                        <g id="Group-132">
                            <mask id="mask-30" fill="white">
                                <use xlink:href="#path-29"></use>
                            </mask>
                            <g id="Clip-131"></g>
                            <path d="M-0.000154491282,7.92452236 L13.2459281,0.0742170573 C13.352527,0.0111877093 13.4807548,-0.0140240299 13.6228868,0.00803624188 L0.376804237,7.85834154 C0.233127345,7.837857 0.104899581,7.86149301 -0.000154491282,7.92452236" id="Fill-130" fill="#2C2C34" mask="url(#mask-30)"></path>
                        </g>
                        <g id="Group-135">
                            <mask id="mask-32" fill="white">
                                <use xlink:href="#path-31"></use>
                            </mask>
                            <g id="Clip-134"></g>
                            <path d="M0.376958729,7.85834154 L13.6230413,0.00803624188 C13.7404546,0.0237935789 13.8671375,0.0710655899 14,0.148276541 L0.753917458,8.00015757 C0.621054955,7.92294662 0.494372103,7.87567461 0.376958729,7.85834154" id="Fill-133" fill="#35353F" mask="url(#mask-32)"></path>
                        </g>
                    </g>
                    <g id="Group-146" transform="translate(57.000000, 48.000000)">
                        <g id="Group-139">
                            <mask id="mask-34" fill="white">
                                <use xlink:href="#path-33"></use>
                            </mask>
                            <g id="Clip-138"></g>
                            <path d="M0.00030237573,7.53728634 L12.9631499,-0.000151263046 C13.1672535,0.117833913 13.3562384,0.294811678 13.5164975,0.503554682 L0.553649962,8.04099229 C0.393390825,7.83224928 0.204405994,7.65527152 0.00030237573,7.53728634" id="Fill-137" fill="#35353F" mask="url(#mask-34)"></path>
                        </g>
                        <g id="Group-142">
                            <mask id="mask-36" fill="white">
                                <use xlink:href="#path-35"></use>
                            </mask>
                            <g id="Clip-141"></g>
                            <path d="M0.553952338,8.04038723 L13.5167999,0.502949629 C13.6377502,0.661775828 13.7420698,0.838753592 13.8221994,1.02178188 L0.860863704,8.55921948 C0.779222257,8.3761912 0.67490263,8.1977008 0.553952338,8.04038723" id="Fill-140" fill="#2C2C34" mask="url(#mask-36)"></path>
                        </g>
                        <g id="Group-145">
                            <mask id="mask-38" fill="white">
                                <use xlink:href="#path-37"></use>
                            </mask>
                            <g id="Clip-144"></g>
                            <path d="M0.860258952,8.55876569 L13.8231065,1.02132809 C13.9349855,1.27847527 14.0015082,1.54772349 14.0000215,1.79730752 C13.9984844,2.1240357 13.8835816,2.35395553 13.6976206,2.46286492 L0.734773024,10.0003025 C0.920734098,9.89139313 1.03714875,9.6614733 1.03714875,9.33474512 C1.03866063,9.0851611 0.972137972,8.81591287 0.860258952,8.55876569" id="Fill-143" fill="#23232A" mask="url(#mask-38)"></path>
                        </g>
                    </g>
                    <g id="Group-177" transform="translate(0.000000, 47.000000)">
                        <path d="M56.8619414,8.4527914 C57.4547375,8.79557808 57.9336544,9.62138238 57.9320982,10.3038395 C57.9305344,10.9831804 57.4484976,11.2558516 56.8557014,10.9146231 C56.2629053,10.5733945 55.7855484,9.74603208 55.7871046,9.06669119 C55.7902284,8.38579218 56.2707052,8.11156283 56.8619414,8.4527914" id="Fill-147" fill="#222229"></path>
                        <path d="M50.0338659,54.9736193 C49.870067,54.9736193 49.704708,54.9377825 49.5471491,54.8629927 C48.9777528,54.5934377 48.7359543,53.9140968 49.0058326,53.3484988 L62.1908666,25.6248463 C62.7711829,24.4048374 63.7071768,23.4201047 64.895889,22.7766006 L73.6287121,18.0570511 C74.1825085,17.7578919 74.873584,17.9635639 75.173102,18.5166969 C75.4726201,19.0682719 75.2667014,19.7585196 74.712905,20.0576789 L65.9800819,24.7772284 C65.2188069,25.1885724 64.6197708,25.8196115 64.2484932,26.6017884 L51.0634592,54.3238827 C50.8684604,54.7336686 50.4597431,54.9736193 50.0338659,54.9736193" id="Fill-149" fill="#A0A6C0"></path>
                        <path d="M30.378618,63.5090079 C30.1882992,63.5090079 29.9964205,63.4607061 29.8185816,63.3609863 C26.6050026,61.5426588 25.3304909,57.5086827 26.9185605,54.1789775 L45.1423618,15.9348899 C45.722678,14.7164391 46.6602319,13.7317064 47.8489441,13.0897604 L57.2712827,8.00561058 C57.8250791,7.70645129 58.5161546,7.91368142 58.8156726,8.46681449 C59.1136307,9.01838943 58.907712,9.70863717 58.3539157,10.0077965 L48.9315771,15.0903882 C48.170302,15.5017322 47.5712659,16.1312132 47.1984284,16.9133901 L28.9746271,55.1559195 C27.8982342,57.4136373 28.7624685,60.1481402 30.9402143,61.3821723 C31.4877708,61.6906803 31.6796495,62.3856024 31.3707715,62.9309449 C31.1601729,63.3017777 30.7748554,63.5090079 30.378618,63.5090079" id="Fill-151" fill="#A0A6C0"></path>
                        <path d="M63.8856396,25.7755167 C63.6922009,25.7755167 63.4956421,25.7256568 63.3178033,25.6228208 L46.6649118,16.018561 C46.1204754,15.7053787 45.9332766,15.0088984 46.2483946,14.4666722 C46.5635125,13.9213298 47.257708,13.7343552 47.8037044,14.0506538 L64.4565959,23.6533555 C64.9994723,23.9665378 65.1866711,24.6630181 64.8731132,25.2068024 C64.6625145,25.5714028 64.278757,25.7755167 63.8856396,25.7755167" id="Fill-153" fill="#A0A6C0"></path>
                        <path d="M51.1628305,52.4042773 C50.9693918,52.4042773 50.7743931,52.3544174 50.5949942,52.2515814 L33.6940644,42.5039745 C33.1496279,42.1907921 32.9624292,41.49587 33.2775471,40.9505275 C33.592665,40.4067432 34.2884205,40.2197686 34.832857,40.5345092 L51.7337868,50.2821161 C52.2782233,50.5952984 52.463862,51.2917787 52.1503041,51.835563 C51.9397055,52.2001634 51.555948,52.4042773 51.1628305,52.4042773" id="Fill-155" fill="#A0A6C0"></path>
                        <path d="M80.9807882,9.14054614 C80.0666341,9.54409956 79.7249964,10.6394588 79.0869605,11.4091708 C78.7749625,11.7815618 78.3849651,12.0853954 78.097927,12.478042 C77.8467686,12.8177124 77.6829697,13.2212659 77.6205701,13.6388424 C77.6049702,13.7463527 77.5971702,13.8585375 77.63929,13.9582572 C77.7328893,14.1779523 78.0402073,14.2340447 78.2570459,14.1343249 C78.4754445,14.0346052 78.6205236,13.8289332 78.7578027,13.6326099 L79.5783573,12.4484377 C79.6501168,12.3424854 79.7249964,12.2349751 79.8326357,12.1664177 C79.9605548,12.0822792 80.1196738,12.0620236 80.2709928,12.0355355 C81.4550251,11.8251892 82.4892983,10.9604318 82.9463754,9.85572382 C83.1132943,9.45372853 84.2973266,9.10315123 83.610931,9.05796571 C83.314533,9.03771014 82.843416,9.17326669 82.1804204,9.0860119 C81.8575025,9.04394262 81.2803062,9.00966395 80.9807882,9.14054614" id="Fill-157" fill="#F5A783"></path>
                        <path d="M79.0247169,12.7513365 C77.8718844,14.9638687 79.0340769,15.2801673 79.4880339,15.5107693 C79.7454322,15.6416515 79.9092312,15.917439 80.1681895,16.0670186 C80.3834681,16.1916683 80.6736262,16.1464828 80.849905,16.3147599 C81.005904,16.4643395 81.5113407,17.2247027 82.2928956,16.6310585 C82.548734,17.266772 83.4987678,17.2169121 83.6313669,16.5079669 C84.0962439,13.991601 82.9200115,16.6466397 86.22719,11.4814676 C86.5844276,10.9252183 86.9432253,10.3331322 86.993145,9.67404688 C87.0399447,9.07105393 86.8465059,8.20318036 86.4315486,7.73886021 C85.9744716,7.22779642 85.8715123,7.46774711 83.0838105,8.81240579 C82.5144142,9.08663515 81.7983788,9.38735256 81.3506618,9.8438821 C80.4692675,10.7429181 79.6159531,11.6170242 79.0247169,12.7513365" id="Fill-159" fill="#F5A783"></path>
                        <path d="M68.3425305,1.7083075 C68.7590478,2.61669222 68.2848109,3.66219162 68.2520511,4.66094738 C68.2364512,5.14708123 68.3269306,5.63321508 68.2816909,6.11623268 C68.2426912,6.53692543 68.0991721,6.94671134 67.8667336,7.30040488 C67.807454,7.39077591 67.7372545,7.48114695 67.6405351,7.52789059 C67.4252565,7.63072659 67.1569383,7.46712386 67.0617789,7.24898687 C66.9650595,7.03084989 66.9931393,6.77999236 67.0212192,6.54315792 C67.0789388,6.0663728 67.1366584,5.58958768 67.194378,5.11280256 C67.2099779,4.98659473 67.2255778,4.85571254 67.1912581,4.73262096 C67.1506983,4.58459943 67.044619,4.46462409 66.9494596,4.34464875 C66.2037845,3.40198536 66.0041058,2.07134976 66.3972232,0.941711814 C66.5391823,0.530367788 66.8636602,-0.306343355 67.4080966,0.11590752 C67.6436551,0.296649592 67.6920148,0.637878158 67.8277339,0.885619446 C67.9837329,1.17075565 68.2068114,1.41226445 68.3425305,1.7083075" id="Fill-161" fill="#E1AA8F"></path>
                        <path d="M31.5646783,69.8814124 L13.2129579,59.2986525 C10.4689358,57.7156012 1.89835163,40.8146594 1.89835163,40.8146594 L35.4693328,33.8701127 C38.0994757,32.5940113 41.9869703,32.6906149 44.4174345,34.0913659 L62.9360738,29.8345785 C62.9360738,29.8345785 64.0686264,43.8607865 60.139012,48.6878463 C56.2156376,53.5086737 41.3161747,69.6399036 41.3161747,69.6399036 C38.817071,71.3522789 34.3102604,71.4644636 31.5646783,69.8814124" id="Fill-163" fill="#FF9100"></path>
                        <path d="M33.5510133,64.5568444 C31.3171079,64.5568444 29.0785225,64.06292 27.3453738,63.0641642 L5.22783793,50.3093832 C3.61636843,49.3807429 2.60237504,48.0952928 2.37149654,46.6929836 C2.2700972,46.0728513 2.68973447,45.4869977 3.31061042,45.3857198 C3.93148637,45.2875582 4.51648256,45.7035766 4.6178819,46.3237089 C4.73644113,47.0420028 5.35731708,47.7571805 6.3666305,48.3399179 L28.4841663,61.0946989 C31.3919874,62.7696793 36.2248359,62.6824245 38.9173783,60.9217474 C40.4352484,59.2389764 56.2441854,41.7724365 62.5481043,36.3860112 C63.3062594,35.7378327 63.6432172,35.0242131 63.4981381,34.3760347 C63.360859,33.7621349 63.7461765,33.1544676 64.3592525,33.0173529 C64.9723285,32.8802382 65.5807245,33.2635361 65.7195636,33.8774359 C66.0549615,35.3654417 65.4387655,36.9095399 64.0300947,38.1139677 C57.6559762,43.5596017 40.6848468,62.3598934 40.5132479,62.5499842 C40.4539683,62.6154253 40.3853288,62.6746339 40.3120092,62.7260519 C38.5398608,63.9398284 36.048557,64.5568444 33.5510133,64.5568444 L33.5510133,64.5568444 Z" id="Fill-165" fill="#A0A6C0"></path>
                        <g id="Group-169" transform="translate(0.000000, 16.809775)">
                            <mask id="mask-40" fill="white">
                                <use xlink:href="#path-39"></use>
                            </mask>
                            <g id="Clip-168"></g>
                            <path d="M31.9431318,44.1976691 C29.4892678,44.1976691 27.150843,43.6305129 25.3615347,42.5990366 L3.2829986,29.8660693 C1.12865264,28.6226884 -0.0678595577,26.7809891 0.00233998475,24.8130818 C0.0756595069,22.7781754 1.48121035,20.9442666 3.86175483,19.7756757 L37.9350527,1.0751037 L37.9771725,1.05484813 C39.3983232,0.364600386 41.1049521,0 42.9098603,0 C44.9425271,0 46.8800344,0.473668878 48.3682647,1.3306356 L62.0868153,9.24121748 C63.8371239,10.2508801 64.8355174,11.701491 64.899477,13.3266116 C64.9587566,14.834873 64.1990416,16.2340659 62.7591709,17.2873559 L39.2844439,42.1144609 L39.117525,42.2297618 C37.2642571,43.4996307 34.7167937,44.1976691 31.9431318,44.1976691" id="Fill-167" fill="#F7810A" mask="url(#mask-40)"></path>
                        </g>
                        <g id="Group-172" transform="translate(0.000000, 15.816161)">
                            <mask id="mask-42" fill="white">
                                <use xlink:href="#path-41"></use>
                            </mask>
                            <g id="Clip-171"></g>
                            <path d="M31.9431318,44.1976691 C29.4892678,44.1976691 27.150843,43.6305129 25.3615347,42.5990366 L3.2829986,29.8660693 C1.12865264,28.6226884 -0.0678595577,26.7809891 0.00233998475,24.8130818 C0.0756595069,22.7781754 1.48121035,20.9442666 3.86175483,19.7756757 L37.9350527,1.0751037 L37.9771725,1.05484813 C39.3983232,0.364600386 41.1049521,0 42.9098603,0 C44.9425271,0 46.8800344,0.473668878 48.3682647,1.3306356 L62.0868153,9.24121748 C63.8371239,10.2508801 64.8355174,11.701491 64.899477,13.3281697 C64.9587566,14.834873 64.1990416,16.2340659 62.7591709,17.2873559 L39.2844439,42.1144609 L39.117525,42.2297618 C37.2642571,43.4996307 34.7167937,44.1976691 31.9431318,44.1976691" id="Fill-170" fill="#FFB700" mask="url(#mask-42)"></path>
                        </g>
                        <path d="M61.5075911,31.6680198 L54.5578364,39.0145618 L38.042224,56.4842179 C35.0376836,58.5424962 29.613599,58.6780527 26.3111005,56.7724704 L4.33084377,44.0987116 L4.23256441,44.0410612 C0.930065938,42.1339207 1.16094443,39.0067712 4.73644113,37.2741403 L9.49285013,34.662729 L38.8066191,18.5766846 C40.5600476,17.7275085 42.8937924,17.5078134 44.9389391,17.9051343 C45.8499732,18.081202 46.7017276,18.375687 47.4177629,18.7885891 L61.1394335,26.7007291 C63.4778583,28.0469459 63.6369772,30.2080602 61.5075911,31.6680198" id="Fill-173" fill="#FF9100"></path>
                        <path d="M54.5576804,39.0142502 L38.043628,56.4839063 C35.0375276,58.5421846 29.613443,58.6792992 26.3109445,56.7721588 C26.3109445,56.7721588 4.34628767,44.1077488 4.33068777,44.0984 C3.79093129,43.7852176 5.01240333,41.8126361 5.34624115,41.5991734 C5.96087715,41.2034106 6.69719235,41.0491566 7.35550806,40.732858 C9.32109525,39.7855202 10.3007689,37.5823367 11.8654387,36.0600522 C14.0525444,33.9347747 17.1694041,33.2678988 19.5842684,31.4791755 C20.7215009,30.6362319 21.2160177,29.3944092 22.1956913,28.5062801 C23.5950022,27.2395275 25.312551,26.2547948 26.7290218,24.935066 C28.2905716,23.4797807 29.9566407,22.0229373 31.9955475,21.3809913 C38.0217882,19.4800833 39.8251364,26.1784468 43.4645927,29.1466679 C45.1322218,30.5069078 47.2382081,31.1846906 49.2911547,31.8328691 C50.4627071,32.2021438 52.7558921,32.4405364 53.6248065,33.3130843 C54.6232,34.3149563 54.5545604,37.1149003 54.5545604,38.4112572 C54.5576804,38.6122549 54.5576804,38.8132525 54.5576804,39.0142502" id="Fill-175" fill="#000000"></path>
                    </g>
                </g>
            </g>
        </g>
    </g>
</svg>