<?xml version="1.0" encoding="UTF-8"?>
<svg width="186px" height="140px" viewBox="0 0 186 140" version="1.1" xmlns="http://www.w3.org/2000/svg" xmlns:xlink="http://www.w3.org/1999/xlink">
    <title>illust/result/mr2</title>
    <defs>
        <polygon id="path-1" points="0 0 161 0 161 8.34710744 0 8.34710744"></polygon>
    </defs>
    <g id="Page-5" stroke="none" stroke-width="1" fill="none" fill-rule="evenodd">
        <g id="ver5_chapter3" transform="translate(-686.000000, -5750.000000)">
            <g id="illust/result/mr2" transform="translate(686.000000, 5750.000000)">
                <rect id="Rectangle-Copy-32" x="0" y="0" width="186" height="140"></rect>
                <g id="Group-20" transform="translate(15.000000, 20.000000)">
                    <path d="M161,91.8766916 C152.942028,91.8766916 152.942028,98.4958678 144.884056,98.4958678 C136.826248,98.4958678 136.826248,91.8766916 128.768112,91.8766916 C120.715711,91.8766916 120.715711,98.4958678 112.663146,98.4958678 C104.617792,98.4958678 104.617792,91.8766916 96.5724377,91.8766916 C88.5226589,91.8766916 88.5226589,98.4958678 80.4728801,98.4958678 C72.4252316,98.4958678 72.4252316,91.8766916 64.3774192,91.8766916 C56.3297707,91.8766916 56.3297707,98.4958678 48.282286,98.4958678 C40.2346375,98.4958678 40.2346375,91.8766916 32.186989,91.8766916 C24.1429455,91.8766916 24.1429455,98.4958678 16.0989021,98.4958678 C8.04945105,98.4958678 8.04945105,91.8766916 0,91.8766916 L28.4550929,0 C33.6537582,0 33.6537582,3.30950605 38.8524234,3.30950605 C44.0537106,3.30950605 44.0537106,0 49.2549977,0 C54.4585789,0 54.4585789,3.30950605 59.6619963,3.30950605 C64.8655775,3.30950605 64.8655775,0 70.0691588,0 C75.27274,0 75.27274,3.30950605 80.4764852,3.30950605 C85.6785916,3.30950605 85.6785916,0 90.8806981,0 C96.0836238,0 96.0836238,3.30950605 101.286386,3.30950605 C106.493572,3.30950605 106.493572,0 111.701086,0 C116.912041,0 116.912041,3.30950605 122.122997,3.30950605 C127.333952,3.30950605 127.333952,0 132.544907,0 L161,91.8766916 Z" id="Fill-1" fill="#046969"></path>
                    <path d="M160.256702,91.8650405 C160.19853,91.8608864 160.151172,91.8713548 160.096113,91.8751767 C159.733641,91.9020955 159.37969,91.9358271 159.051137,91.990828 C158.940364,92.0086077 158.837128,92.0332002 158.729959,92.0539709 C158.504152,92.0990019 158.263432,92.131238 158.051389,92.187402 C152.808649,93.6033 151.802673,98.5221371 144.884072,98.5221371 C136.826272,98.5221371 136.826272,91.8181818 128.768144,91.8181818 C120.715752,91.8181818 120.715752,98.5221371 112.663359,98.5221371 C104.617849,98.5221371 104.617849,91.8181818 96.5725032,91.8181818 C88.5227326,91.8181818 88.5227326,98.5221371 80.4729621,98.5221371 C72.4251579,98.5221371 72.4251579,91.8181818 64.3776814,91.8181818 C56.3298772,91.8181818 56.3298772,98.5221371 48.2824008,98.5221371 C40.2347604,98.5221371 40.2347604,91.8181818 32.187284,91.8181818 C24.1430848,91.8181818 24.1430848,98.5221371 16.0990496,98.5221371 C9.29433552,98.5221371 8.22445212,93.745704 3.19441063,92.26766 C3.06233435,92.222463 2.9014176,92.2020246 2.7591816,92.166299 C2.5025669,92.1033222 2.24791859,92.0388499 1.97016513,91.9933205 C1.68438221,91.9444678 1.36943109,91.9200414 1.05824889,91.8924579 C0.95091643,91.8834849 0.85620168,91.8640436 0.74575576,91.8578954 C0.492254516,91.8549044 0.268085349,91.8181818 0,91.8181818 L0,94.2958786 C8.04960672,94.2958786 8.04960672,101 16.0990496,101 C24.1430848,101 24.1430848,94.2958786 32.187284,94.2958786 C40.2347604,94.2958786 40.2347604,101 48.2824008,101 C56.3298772,101 56.3298772,94.2958786 64.3776814,94.2958786 C72.4251579,94.2958786 72.4251579,101 80.4729621,101 C88.5227326,101 88.5227326,94.2958786 96.5725032,94.2958786 C104.617849,94.2958786 104.617849,101 112.663359,101 C120.715752,101 120.715752,94.2958786 128.768144,94.2958786 C136.826272,94.2958786 136.826272,101 144.884072,101 C152.941872,101 152.941872,94.2958786 161,94.2958786 L161,91.8181818 C160.733389,91.8181818 160.505287,91.8500856 160.256702,91.8650405" id="Fill-3" fill="#CFCFD9"></path>
                    <g id="Group-7" transform="translate(0.000000, 92.652893)">
                        <mask id="mask-2" fill="white">
                            <use xlink:href="#path-1"></use>
                        </mask>
                        <g id="Clip-6"></g>
                        <path d="M144.884133,7.00540959 C136.826175,7.00540959 136.826175,0 128.768053,0 C120.71583,0 120.71583,7.00540959 112.663279,7.00540959 C104.617775,7.00540959 104.617775,0 96.5725983,0 C88.5228334,0 88.5228334,7.00540959 80.4730686,7.00540959 C72.4251063,7.00540959 72.4251063,0 64.3776355,0 C56.3300009,0 56.3300009,7.00540959 48.2823664,7.00540959 C40.2348956,7.00540959 40.2348956,0 32.187261,0 C24.1432315,0 24.1432315,7.00540959 16.0990381,7.00540959 C8.04960099,7.00540959 8.04960099,0 0,0 L0,1.34152422 C8.04960099,1.34152422 8.04960099,8.34710744 16.0990381,8.34710744 C24.1432315,8.34710744 24.1432315,1.34152422 32.187261,1.34152422 C40.2348956,1.34152422 40.2348956,8.34710744 48.2823664,8.34710744 C56.3300009,8.34710744 56.3300009,1.34152422 64.3776355,1.34152422 C72.4251063,1.34152422 72.4251063,8.34710744 80.4730686,8.34710744 C88.5228334,8.34710744 88.5228334,1.34152422 96.5725983,1.34152422 C104.617775,1.34152422 104.617775,8.34710744 112.663279,8.34710744 C120.71583,8.34710744 120.71583,1.34152422 128.768053,1.34152422 C136.826175,1.34152422 136.826175,8.34710744 144.884133,8.34710744 C152.941927,8.34710744 152.941927,1.34152422 161.000049,1.34152422 L161.000049,0 C152.941927,0 152.941927,7.00540959 144.884133,7.00540959" id="Fill-5" fill="#046969" mask="url(#mask-2)"></path>
                    </g>
                    <path d="M155.130208,93.8475959 L127.528555,2.50413223 C126.138255,3.36141013 124.815791,4.26075604 122.042009,4.26075604 C119.26939,4.26075604 117.94676,3.36222225 116.557292,2.50510678 L136.412207,94.7844619 C138.655607,96.5544046 140.684527,98.4958678 145.136245,98.4958678 C150.399831,98.4958678 152.280776,95.784836 155.130208,93.8497074 L155.130208,93.8475959 Z" id="Fill-8" fill="#009999"></path>
                    <path d="M122.427083,94.5274595 L107.713274,1.66942149 C106.255661,2.56948803 104.954002,3.56805305 102.069407,3.56805305 C99.1884342,3.56805305 97.8877642,2.57046975 96.4322917,1.67056682 L105.172702,94.9973724 C107.27851,96.7112785 109.297858,98.4958678 113.503051,98.4958678 C118.099531,98.4958678 120.086272,96.3675155 122.427083,94.5274595" id="Fill-10" fill="#009999"></path>
                    <path d="M74.8962774,1.66942149 L71.2760417,94.182044 C73.8393552,96.0885095 75.7856206,98.4958678 80.6973561,98.4958678 C85.3548281,98.4958678 87.3454284,96.3314359 89.7239583,94.4818603 L86.503894,1.66942149 C84.9831104,2.58930501 83.6868133,3.65043243 80.7009955,3.65043243 C77.7141853,3.65043243 76.4177227,2.58930501 74.8962774,1.66942149" id="Fill-12" fill="#009999"></path>
                    <path d="M59.1790025,4.31430162 C56.4407277,4.31430162 55.1649041,3.37715626 53.7886877,2.50413223 L39.4114583,94.6523218 C41.6464826,96.4555109 43.5956129,98.4958678 48.0061337,98.4958678 C52.5719091,98.4958678 54.5023767,96.3111974 56.8405287,94.4648278 L64.5677083,2.50413223 C63.1919747,3.37748093 61.916151,4.31430162 59.1790025,4.31430162" id="Fill-14" fill="#009999"></path>
                    <path d="M23.7822391,95.5012286 L44.4427083,2.50526952 C43.0749848,3.35433551 41.7578441,4.23475813 39.0265432,4.23475813 C36.2952423,4.23475813 34.978765,3.35352316 33.6110415,2.50413223 L6.70833333,94.3264111 C9.20231004,96.200985 11.1743726,98.4958678 15.9983053,98.4958678 C19.8319777,98.4958678 21.8587691,97.0412777 23.7822391,95.5031782 L23.7822391,95.5012286 Z" id="Fill-16" fill="#009999"></path>
                    <path d="M18.713862,67.0708936 C21.5812613,55.7355731 24.9894032,44.4738513 28.7565931,33.2769546 C32.03578,23.5300965 35.5902424,13.8319791 39.4114583,4.18910132 C39.2259047,4.19884948 39.0811921,4.23491767 38.8803632,4.23491767 C36.2322839,4.23491767 34.955919,3.35368419 33.6298694,2.50413223 L7.546875,94.3262557 C9.96486133,96.2009889 11.876836,98.4958678 16.5537856,98.4958678 C17.1728339,98.4958678 17.7282086,98.4430652 18.2576958,98.3684918 C17.8417275,97.3847402 17.4643493,96.3922153 17.1649551,95.3865303 C15.3980145,89.44844 15.6091341,83.2936155 16.5422086,77.2894001 C17.0744293,73.8638974 17.8563596,70.460978 18.713862,67.0708936" id="Fill-18" fill="#009999"></path>
                    <path d="M53.7930987,2.50413223 L39.4114583,94.6523218 C41.6471683,96.4555109 43.5967357,98.4958678 48.0087705,98.4958678 C49.1563985,98.4958678 50.136654,98.3572358 50.9997487,98.1213668 C50.8962675,97.9327364 50.7795895,97.7423204 50.696708,97.5558004 C49.9813516,95.9459493 49.4814873,94.2891841 49.1168084,92.620244 C48.3758634,89.229768 48.2226532,85.7849106 48.1920755,82.3580721 C47.9587197,56.1777405 52.4278865,30.093185 58.6979167,4.29303606 C56.2999842,4.1857343 55.0826713,3.32196322 53.7930987,2.50413223" id="Fill-20" fill="#009999"></path>
                    <path d="M82.6234369,95.636006 C78.0973192,79.3269141 78.7919971,62.5004183 79.5065229,45.856853 C80.1106248,31.7842862 80.7148843,17.7118829 81.3189863,3.63947949 C81.239437,3.64111426 81.1712294,3.65043243 81.0891597,3.65043243 C78.2450761,3.65043243 77.0105658,2.58930501 75.5618238,1.66942149 L72.1145833,94.182044 C74.5554073,96.0885095 76.4086692,98.4958678 81.0856942,98.4958678 C82.1420456,98.4958678 83.0467021,98.3663942 83.8541667,98.1542014 C83.3258334,97.2053825 82.8112047,96.3129631 82.6234369,95.636006" id="Fill-22" fill="#009999"></path>
                    <path d="M117.06933,95.8494674 C115.15293,92.8280485 114.248712,89.5337103 113.409334,86.2861677 C106.363138,59.0181319 103.563917,31.2503987 103.055233,3.5109719 C102.72146,3.54533223 102.368397,3.56709378 101.981129,3.56709378 C99.1452727,3.56709378 97.8649713,2.56933506 96.4322917,1.66942149 L105.035826,94.997331 C107.108656,96.711421 109.096382,98.4958678 113.23572,98.4958678 C115.377769,98.4958678 116.934297,98.0105689 118.234375,97.3130541 C117.792316,96.8238284 117.378787,96.3373842 117.06933,95.8494674" id="Fill-24" fill="#009999"></path>
                    <path d="M146.924572,93.0976168 C137.332722,74.5390684 132.884218,54.8475939 128.488405,35.3026283 C126.170812,24.9979544 123.869867,14.6627443 123.104556,4.24372205 C122.977354,4.24794514 122.861628,4.25980229 122.727638,4.25980229 C120.032319,4.25980229 118.746564,3.36109543 117.395833,2.50413223 L136.697199,94.784418 C138.878054,96.5543816 140.850408,98.4958678 145.177852,98.4958678 C147.280155,98.4958678 148.813364,98.0264546 150.098958,97.3530336 C148.926989,95.7528059 147.498677,94.2084529 146.924572,93.0976168" id="Fill-26" fill="#009999"></path>
                    <path d="M27.671875,92.6528926 C28.9885976,91.9583299 30.5659987,91.4764485 32.7342052,91.4764485 C33.5172281,91.4764485 34.2056233,91.5538762 34.8517242,91.6657707 L51.1510417,0.104053717 C50.7509726,0.05357868 50.3556761,0 49.8752969,0 C48.2978959,0 47.2194703,0.314938095 46.306931,0.734419955 L27.671875,92.6528926 Z" id="Fill-28" fill="#009999"></path>
                    <path d="M61.2135417,92.6528926 C62.1976718,92.3355273 63.3224154,92.1336573 64.6928626,92.1336573 C65.661369,92.1336573 66.5083392,92.2338519 67.272586,92.4018301 L71.2760417,0.0715675976 C70.9867561,0.0470536389 70.7329939,0 70.4050602,0 C69.4312911,0 68.6772409,0.139680208 67.9988424,0.327565717 C66.7816721,15.8322333 62.9263951,68.9750408 61.2135417,92.6528926" id="Fill-30" fill="#009999"></path>
                    <path d="M89.7239583,0.110546055 L93.4004256,92.6528926 C94.4327763,92.3281635 95.6153647,92.1223702 97.0582627,92.1223702 C98.4601402,92.1223702 99.6131596,92.3192804 100.625,92.6277236 L93.1919045,0.213524969 C92.589415,0.088831651 91.9281295,0 91.1215628,0 C90.5953033,0 90.1579216,0.054286009 89.7239583,0.110546055" id="Fill-32" fill="#009999"></path>
                    <path d="M125.392101,92.6528926 C126.461335,92.2569302 127.709951,92.008509 129.260874,92.008509 C130.518024,92.008509 131.563133,92.1826667 132.489583,92.4542542 L112.37157,0.016758573 C112.29706,0.0152798754 112.244378,0 112.16757,0 C110.828361,0 109.838396,0.221804643 109.010417,0.54646092 L125.392101,92.6528926 Z" id="Fill-34" fill="#009999"></path>
                </g>
            </g>
        </g>
    </g>
</svg>