<?xml version="1.0" encoding="UTF-8"?>
<svg width="186px" height="140px" viewBox="0 0 186 140" version="1.1" xmlns="http://www.w3.org/2000/svg" xmlns:xlink="http://www.w3.org/1999/xlink">
    <title>illust/result/mr3</title>
    <g id="Page-5" stroke="none" stroke-width="1" fill="none" fill-rule="evenodd">
        <g id="ver5_chapter3" transform="translate(-942.000000, -5750.000000)">
            <g id="illust/result/mr3" transform="translate(942.000000, 5750.000000)">
                <rect id="Rectangle-Copy-33" x="0" y="0" width="186" height="140"></rect>
                <g id="Group-56" transform="translate(8.000000, 13.000000)">
                    <path d="M13.7061363,74.3782291 C13.40957,74.2044426 13.2021272,74.2491747 12.9291223,74.4137062 C11.9118844,75.0271005 10.8803048,75.615815 9.85128621,76.2081286 C9.67918555,76.3068475 9.53167069,76.4734357 9.30322754,76.4436144 C8.97336792,75.577767 9.07683321,74.7026648 9.24534844,73.8270484 C9.62284307,73.3442511 10.2564399,73.2342206 10.7261313,72.8126085 C8.29981918,71.4382558 5.91602004,70.0289401 3.51890358,68.6422475 C2.95547878,68.3162694 2.36183391,68.0329666 1.87780078,67.5815331 C1.60325924,67.3763828 1.3287177,67.1712325 1.05417615,66.9660822 C0.968638024,66.7686444 1.01012658,66.5609233 1.00961437,66.3583438 C1.00705335,63.196767 1.00756556,60.0351902 1.00807776,56.8741276 C1.00807776,56.0674088 1.07415212,56.0211343 1.76870125,56.412925 C3.96196036,57.6484542 6.12397501,58.9395128 8.31672192,60.1765845 C8.5369698,60.3010115 8.76746177,60.5781444 9.02202734,60.4244102 C9.24432404,60.2902141 9.10705326,59.9688634 9.12754144,59.7308068 C9.17107881,59.2253864 9.02817379,58.7014562 9.27659291,58.2166023 C9.7437233,57.7374041 10.3634906,57.4931776 10.9264032,57.1641145 C15.7739053,54.32903 20.6244807,51.4980588 25.4765927,48.6712009 C31.8873426,44.9358203 38.2945071,41.1952981 44.7047448,37.4594033 C52.3196872,33.0221927 59.9300197,28.5772697 67.5434255,24.1374884 C72.6244928,21.1743778 77.7045358,18.2081822 82.7835543,15.2404442 C88.4464858,11.9318173 94.116076,8.63604446 99.7810563,5.33050255 C100.036134,5.18139582 100.279431,4.9541366 100.619535,5.00812352 C100.632852,5.80558743 100.659487,6.60305135 100.653853,7.4000011 C100.649755,7.96814915 100.050988,7.92290297 99.767739,8.20671991 C99.6786155,8.46534296 99.4470991,8.57280264 99.2365831,8.6936305 C97.0673976,9.93532963 94.9233101,11.2207325 92.7520758,12.4593466 C92.5784385,12.5580656 92.31158,12.6177083 92.2946773,12.8300568 C92.2736769,13.0984489 92.5769019,13.1493509 92.7587344,13.2552681 C95.5912246,14.9052111 98.4206415,16.56081 101.252107,18.2117814 C102.07983,18.6945787 102.082903,18.7938118 101.263888,19.2647834 C100.774733,19.5465437 100.341408,19.9645566 99.7262505,19.9789532 C98.7571598,19.563511 97.9304619,18.8765917 96.908102,18.4503521 C96.7887584,19.5753367 96.9705909,20.6607308 96.8005391,21.7317285 C96.389239,22.2422905 95.7817646,22.4721205 95.2424134,22.7888437 C94.1319543,23.4402859 92.9943484,24.050081 91.9146216,24.7498543 C91.2630977,25.1724947 90.7473078,25.1066821 90.1157599,24.7262029 C87.6812525,23.2613578 85.206281,21.8648962 82.750261,20.4375849 C82.2774964,20.12189 81.6454362,19.9856373 81.652607,19.1892017 C81.6551681,18.8549969 81.3683336,19.1259598 81.2510388,19.1917725 C79.5556424,20.1450272 77.8863683,21.1450706 76.2048014,22.1219768 C70.6637745,25.3426821 65.1314551,28.5767556 59.5960625,31.8067158 C59.4367669,31.899779 59.281569,31.9984979 59.1279077,32.1013301 C56.5955693,33.5121883 54.1144513,35.0114821 51.5462586,36.4999786 C52.1158298,36.9195341 52.65262,37.2100351 53.1786539,37.5133902 C55.7304561,38.986976 58.2709897,40.4806141 60.8140844,41.9701389 C61.3688018,42.2956029 61.3857045,42.5141214 60.8524998,42.8339296 C60.3495151,43.1357422 59.8849457,43.5290754 59.2738859,43.6180253 C58.4123582,43.387167 57.7546877,42.7686311 56.968454,42.3943218 C56.7886703,42.3084569 56.6129842,42.0878818 56.4260296,42.1794025 C56.186318,42.2966312 56.3169301,42.5825048 56.3082226,42.7933109 C56.2733927,43.6277944 56.3532966,44.4648487 56.2621242,45.298818 C56.1750495,45.5800642 55.9348256,45.7101469 55.7079191,45.8463996 C54.2143311,46.74104 52.6884743,47.5806651 51.2025694,48.4881595 C50.6734623,48.8110527 50.2257957,48.7981987 49.6721028,48.4706781 C47.186375,47.0006914 44.6832322,45.5610402 42.1811139,44.1193324 C41.7211543,43.8298597 41.1710468,43.6283085 41.2191941,42.9084829 C41.2396822,42.6051279 41.0117513,42.6760821 40.8319676,42.7665745 C40.3556175,43.0066877 39.9002678,43.2843347 39.4408205,43.553241 C32.5777941,47.5657545 25.7127189,51.575183 18.8368875,55.5661017 C16.4725521,56.95845 14.0948994,58.3281753 11.730564,59.7215519 C11.1358948,60.0716956 11.133846,60.0871205 11.7218566,60.4326368 C14.8294005,62.2584229 17.9471885,64.0672418 21.0593422,65.8853156 C21.2713949,66.0092284 21.4890817,66.1249146 21.6750119,66.2899604 C21.9823345,66.6647838 21.875796,67.1136465 21.870674,67.533202 C21.8655519,67.9676681 22.0007739,68.2617683 22.3926102,68.4838859 C24.9700226,69.9461602 27.5243858,71.4495673 30.0977006,72.9190398 C30.5530502,73.1786912 30.6314175,73.1159635 30.6575399,72.5668394 C30.685199,71.9755541 30.5817337,71.3780989 30.7307852,70.7914411 C30.8542264,70.5621252 31.0734499,70.440269 31.2844781,70.3178987 C36.2323723,67.450422 41.1669492,64.559294 46.1081848,61.6794775 C49.7386893,59.5637045 53.3635597,57.4386765 56.9950887,55.3249601 C63.7449179,51.3962549 70.4850152,47.4516107 77.2348444,43.5229055 C81.8405861,40.8425835 86.4365959,38.1442659 91.0418254,35.4618873 C96.7984903,32.1090426 102.552594,28.7520845 108.307722,25.3976973 C112.11545,23.1780637 115.924714,20.9615151 119.72527,18.7305699 C120.344013,18.3675722 120.970439,18.0174284 121.593279,17.6616289 C121.941066,17.4626486 122.114191,17.5238338 122.094215,17.9721823 C122.061946,18.7110318 122.115728,19.451938 122.068605,20.1913017 C121.805332,20.3527483 121.542571,20.5147091 121.279298,20.6766698 C121.048294,21.1383865 120.571944,21.2818375 120.172425,21.5147525 C118.01502,22.7734189 115.857103,24.0315712 113.701747,25.2902376 C113.736064,25.5750829 113.970654,25.61673 114.131486,25.7108214 C116.960391,27.3695053 119.79032,29.0271607 122.629469,30.6688772 C122.700153,30.7100101 122.774423,30.7460014 122.844083,30.7891909 C123.451045,31.1635002 123.465899,31.3640231 122.856375,31.7239359 C120.402404,33.1723278 117.936652,34.5996391 115.474486,36.0336345 C114.712838,36.4773555 113.939922,36.9041093 113.197225,37.3766233 C112.731119,37.6732943 112.358235,37.6280481 111.900324,37.3581135 C109.359278,35.856763 106.801329,34.3836914 104.249015,32.901879 C103.88535,32.7126677 103.512977,32.528598 103.191313,32.2802582 C102.696524,31.8977223 102.263199,31.9362844 101.738701,32.250951 C99.527003,33.5785151 97.2896943,34.8618612 95.0605809,36.1590898 C90.4430585,38.84661 85.837829,41.5552108 81.2131357,44.2293629 C81.0179858,44.3419642 80.8320556,44.4699903 80.6363936,44.5815633 C78.2920342,45.9291796 75.970724,47.3179288 73.6217547,48.6583469 C73.4486297,48.7570658 73.1740881,48.8197935 73.1617952,49.0239154 C73.1464291,49.284081 73.4517029,49.3349829 73.6355842,49.4419284 C76.4511717,51.0800458 79.2657347,52.7202198 82.0787611,54.3639929 C82.1668602,54.4159232 82.2575204,54.4642544 82.3420341,54.5223546 C82.8270917,54.8529602 82.8332381,55.0683937 82.3251314,55.3707204 C81.5855083,55.8108424 80.8402509,56.2411952 80.0949936,56.6715481 C77.6466567,58.084977 75.203954,59.5092034 72.7730321,60.953482 C72.1696553,61.3123665 71.6989395,61.2573512 71.1303927,60.9190332 C68.665153,59.4526456 66.1702055,58.0376742 63.6936974,56.5908248 C63.2342501,56.320376 62.7604611,56.0740929 62.3112578,55.7877051 C61.9957399,55.5861539 61.7160763,55.6026071 61.396973,55.7897618 C57.4012667,58.1348507 53.3963408,60.4624581 49.3955124,62.7982921 C46.3857995,64.5551807 43.3796721,66.3172109 40.3653494,68.0658729 C38.0040872,69.4587354 35.6228491,70.8171491 33.266709,72.2187524 C32.6044288,72.6125998 32.5972579,72.6192839 33.2436598,72.9966782 C36.2472262,74.7499676 39.2472072,76.5099412 42.2528225,78.2601456 C42.5831943,78.4529561 42.9622255,78.5902371 43.1916931,78.9321542 C43.324354,79.3316574 43.2598163,79.7445288 43.2654505,80.1517444 C43.2700604,80.4957182 43.4073311,80.7162934 43.7064585,80.890594 C46.2295772,82.3605807 48.757818,83.8202841 51.2763269,85.297469 C52.0369504,85.7432467 52.0272185,85.7273077 52.0538531,84.8126151 C52.0697314,84.2712034 51.905826,83.7025412 52.2351734,83.1940359 C53.5684414,82.3117354 54.9718814,81.5466636 56.3512478,80.7425156 C60.1932928,78.5033439 64.0322645,76.2585164 67.8753339,74.0208871 C73.4004824,70.8037809 78.9199967,67.5763915 84.4456575,64.3597995 C91.1396564,60.4624581 97.8295577,56.5574043 104.52202,52.6580063 C109.126225,49.9756277 113.725308,47.2855367 118.326952,44.6005872 C124.080032,41.2441434 129.833111,37.8882137 135.588239,34.5363973 C137.961282,33.1543321 140.333813,31.7707245 142.705831,30.3866028 C142.957324,30.2400668 143.197548,29.9845288 143.543286,30.1567727 C143.542773,30.9172171 143.538163,31.6771472 143.543286,32.4375915 C143.547383,33.0319618 142.950665,32.9723191 142.672026,33.2576785 C142.542438,33.5728593 142.239213,33.6798048 141.977989,33.833539 C139.87539,35.0690682 137.758962,36.280946 135.660972,37.5236734 C135.033522,37.8954119 135.042742,37.9046668 135.672753,38.2758912 C138.409461,39.8893288 141.161535,41.47603 143.90439,43.077642 C144.099539,43.1912716 144.295714,43.3033587 144.479595,43.4329273 C144.885773,43.7203434 144.880139,43.8612235 144.46679,44.1614936 C144.433497,44.1856592 144.398667,44.207254 144.362813,44.2278204 C142.46612,45.3008747 143.117131,45.3029313 141.329026,44.2725524 C138.630221,42.7177292 135.936538,41.1531368 133.258734,39.5618081 C132.922216,39.3617995 132.62104,39.2718213 132.235862,39.5047363 C130.464147,40.5752197 128.658627,41.587603 126.878204,42.64369 C126.299925,42.9866354 126.299413,43.0190276 126.908936,43.3758554 C129.721451,45.021171 132.548819,46.6412928 135.359284,48.2902075 C135.617947,48.441885 136.007735,48.5282641 136.024125,48.8640113 C136.041028,49.2182683 135.638948,49.3118457 135.38387,49.45324 C133.84111,50.3082899 134.320021,50.3345122 132.824897,49.4732923 C130.463123,48.1138502 128.100836,46.753894 125.756989,45.362574 C125.319054,45.1389139 124.895973,44.8864608 124.477502,44.6309227 C124.090788,44.3949228 123.76605,44.4360557 123.394702,44.6586874 C120.987342,46.0998811 118.555395,47.4978852 116.132156,48.9113141 C111.480316,51.6245424 106.832574,54.3439407 102.177148,57.0504848 C99.7820807,58.4366633 97.3972572,59.8403231 95.0073116,61.2347281 C94.5007415,61.5308849 94.4930584,61.5987542 95.0149947,61.9057084 C97.8249478,63.5577081 100.646682,65.1886272 103.460733,66.8329145 C103.739372,66.9953894 104.153233,67.1007925 104.179355,67.4452804 C104.208551,67.8309013 103.729128,67.8483827 103.493514,68.0525047 C102.656059,68.7790144 101.887753,68.6730972 100.951956,68.0910668 C98.2198574,66.3917643 95.401709,64.833856 92.6342687,63.1905971 C92.2946773,62.9890459 92.0139893,62.9664228 91.6687635,63.1720873 C89.8898777,64.2312592 88.0920404,65.2585531 86.3095692,66.3115551 C85.7384613,66.649359 85.7405101,66.706945 86.3300574,67.0411498 C89.1118393,68.618082 91.862889,70.2484869 94.6303292,71.8511272 C94.9402128,72.0305694 95.4396121,72.1385432 95.4488318,72.5210791 C95.4601003,72.9581161 94.8925778,72.9879374 94.6139386,73.2367914 C93.8277049,73.9391355 93.128546,73.7185604 92.3085068,73.2157108 C89.9667084,71.7806871 87.5613967,70.4515806 85.1945003,69.0576897 C84.7232722,68.8103782 84.2633127,68.5404436 83.8094997,68.2643391 C83.4822011,68.0653587 83.2225134,68.0951801 82.9049467,68.2818206 C78.4579884,70.8942733 73.9977127,73.4841029 69.5446079,76.0862724 C66.9467074,77.6045902 64.3472702,79.1187947 61.750394,80.6371126 C59.3671071,81.9980971 57.0145524,83.4130685 54.6312655,84.774053 C54.0376206,85.1133994 54.0324986,85.1370508 54.6189726,85.4794821 C57.7316385,87.2985842 60.8494265,89.1084313 63.9585071,90.9331892 C64.1700475,91.0576162 64.3882465,91.1727883 64.5741767,91.3373198 C64.8845726,91.711115 64.7780341,92.161006 64.7723998,92.5805615 C64.7662534,93.0222259 64.930671,93.3029578 65.3132876,93.523533 C67.8661142,94.9919772 70.4061357,96.4830444 72.9528158,97.9617719 C73.509582,98.2851792 73.5449241,98.2517587 73.5608024,97.6162556 C73.5761685,97.0229136 73.509582,96.4270009 73.6063886,95.8352014 C74.0212741,95.2608834 74.687652,95.0428791 75.2602965,94.7081602 C79.9997235,91.9342609 84.7391506,89.1593333 89.4872851,86.4008588 C96.0255739,82.6022364 102.549009,78.7799625 109.087298,74.9813401 C113.215153,72.5827784 117.32969,70.1610795 121.457033,67.7609754 C128.985413,63.3828933 136.500988,58.9837307 144.027831,54.6030779 C149.907425,51.1808214 155.781385,47.7482817 161.655344,44.315742 C162.557336,43.7887268 163.445499,43.2349753 164.373101,42.7537204 C164.919623,42.4693893 164.997478,42.5233763 164.98877,43.1341997 C164.978526,43.830888 165.038454,44.5291188 164.954453,45.2247788 C164.659935,45.4289008 164.364905,45.6325086 164.069876,45.8366306 C163.683161,46.3204562 163.095663,46.4998984 162.590629,46.7991402 C160.669351,47.937493 158.748072,49.076874 156.807842,50.1838629 C156.72128,50.2327083 156.621912,50.2712703 156.55635,50.439401 C157.325169,50.9453356 158.148793,51.387 158.952954,51.8584857 C159.571697,52.2209693 160.180708,52.6009344 160.811744,52.9423374 C161.008942,53.0487688 161.205629,53.1665117 161.320875,53.3778319 C161.460194,53.6904419 161.443804,54.0231041 161.437145,54.3501106 C161.392583,56.5250122 161.537025,58.7024846 161.328046,60.8763578 C161.20358,62.1689589 161.444828,63.458475 161.439194,64.7515903 C161.437657,65.0806534 161.451487,65.4128015 161.242508,65.6981609 C160.544373,65.5053505 159.978899,65.0544312 159.369376,64.6970892 C158.990345,64.4744574 158.715291,64.4621175 158.319357,64.6940042 C148.549571,70.4089052 138.770053,76.107353 128.992072,81.8073433 C128.851215,81.8896091 128.702164,81.9569642 128.55721,82.0310034 C128.193033,81.1636136 128.334913,80.2797706 128.471672,79.3969559 C128.710359,79.0061934 129.133952,78.8591434 129.499154,78.6457665 C134.716468,75.6009043 139.933269,72.5560421 145.150583,69.511694 C148.634597,67.4787009 152.112465,65.4343962 155.61082,63.4260829 C156.186026,63.0959914 156.191148,63.0409762 155.60365,62.6970024 C152.829551,61.0737957 150.03189,59.4906936 147.270085,57.845378 C146.86237,57.6515392 146.479241,57.4134826 146.102259,57.1677136 C145.655616,56.8761842 145.265829,56.9013781 144.799211,57.1800534 C141.653251,59.0587982 138.479121,60.889726 135.313698,62.7350503 C131.476775,64.9726795 127.649072,67.2272761 123.801392,69.4458814 C123.712269,69.4967833 123.630828,69.559511 123.543754,69.6134979 C121.01705,71.0649748 118.507248,72.546273 115.911909,74.0645908 C116.854877,74.6702726 117.737405,75.1710656 118.620445,75.6687735 C119.190017,75.9896101 119.737563,76.3479804 120.313793,76.6569912 C120.573993,76.7968431 120.779387,76.9901677 120.834705,77.3038059 C120.919731,78.2246685 120.871071,79.1465594 120.873632,80.0669079 C120.881315,82.8505762 120.878754,85.6347587 120.873632,88.4184271 C120.87312,88.7608584 120.930487,89.1217995 120.674385,89.4158997 C119.985982,89.1459651 119.376459,88.7289804 118.75157,88.3469587 C118.392002,88.1274119 118.130266,88.1284402 117.763015,88.3438737 C112.148231,91.6355333 106.523202,94.9102255 100.900223,98.1890311 C96.8159052,100.570625 92.7315876,102.952734 88.6467577,105.3333 C88.559683,105.383688 88.4633886,105.417622 88.3711918,105.459269 C88.0198196,105.424821 88.0587471,105.132777 88.051064,104.915287 C88.0290393,104.293666 87.9977948,103.669475 88.0766743,103.04991 C88.1371144,102.75581 88.369143,102.626756 88.6027082,102.490503 C95.3612448,98.5551138 102.115684,94.6120121 108.869611,90.6689104 C110.90255,89.4817123 112.939074,88.3006842 114.969965,87.1093729 C115.151285,87.0024274 115.472949,86.9592378 115.447339,86.7021573 C115.424802,86.4759264 115.119528,86.4260527 114.929501,86.3149939 C112.191768,84.710297 109.426377,83.1534171 106.705547,81.5204414 C106.309613,81.3050079 105.894728,81.1193957 105.529526,80.8546027 C105.109518,80.5502193 104.736634,80.5748991 104.288455,80.8391779 C101.676212,82.3801188 99.0573116,83.9082057 96.4358496,85.4332076 C92.0436971,87.9880742 87.6628131,90.5629932 83.2696362,93.1158032 C80.8581781,94.5333454 78.4308416,95.9246655 76.023481,97.3499201 C75.5430333,97.6342512 75.5399601,97.6933797 76.0214322,97.9715409 C77.3121872,98.7165604 78.5957714,99.4749481 79.8824287,100.228194 C80.143653,100.3809 80.4350973,100.513554 80.5088547,100.861641 C80.5692948,101.167567 80.5549531,101.475549 80.5554653,101.783017 C80.5559775,105.206816 80.5626361,108.630615 80.5457334,112.054414 C80.5441968,112.380907 80.7106632,112.818458 80.211264,112.985046 C79.5561546,112.616392 78.8913133,112.263678 78.2500334,111.871887 C77.9544915,111.691417 77.7321948,111.686275 77.4274332,111.867774 C76.203777,112.595826 74.9611692,113.292 73.7257322,114 C73.37436,113.487896 73.5777052,112.907408 73.532119,112.358284 C73.5111186,112.09966 73.5198261,111.835896 73.5664367,111.578815 C73.6755362,111.087791 74.1226906,110.966963 74.477136,110.739704 C74.6789445,110.610136 75.0164872,110.54638 75.0323656,110.306781 C75.0502927,110.033761 74.6963595,109.996741 74.4950632,109.878999 C71.9407,108.382275 69.3853124,106.887609 66.8171197,105.414023 C66.6204332,105.301422 66.4211857,105.196019 66.3474283,104.957962 C63.2362989,103.153257 60.1149255,101.366033 57.0227477,99.5284208 C56.4849331,99.2091268 56.1146094,99.2384339 55.6054782,99.5459023 C54.4914337,100.218939 53.4035116,100.943392 52.2080266,101.473492 C51.8827768,100.617414 51.9821445,99.7495101 52.138879,98.881092 C52.4031765,98.4893012 52.8334282,98.3252838 53.2180936,98.0969962 C53.6657603,97.8311749 53.6754921,97.7699897 53.2134838,97.5046826 C51.7757261,96.6789398 50.3456515,95.8408572 48.9125037,95.007402 C47.6565786,94.2772932 46.394507,93.5569534 45.1493382,92.8073065 C45.0617512,92.7543479 44.9777497,92.6957336 44.9316513,92.5985571 C43.8759981,91.8257729 42.7030501,91.24837 41.582347,90.5851021 C39.5253342,89.3675686 37.4411746,88.1963095 35.3918449,86.9669502 C34.9703007,86.713983 34.6839785,86.7602575 34.2988008,86.9926583 C33.1975614,87.6559261 32.073785,88.2811461 30.9592283,88.9212767 C30.6119538,88.8734597 30.6478081,88.5845011 30.6411494,88.3603269 C30.62271,87.7459043 30.5914656,87.1299393 30.6667596,86.5180876 C30.7820056,86.0275778 31.2271112,85.90058 31.5902641,85.6846324 C32.1844212,85.332432 32.191592,85.3020965 31.6143377,84.9642926 C29.0855847,83.4829944 26.5470999,82.0196918 24.0168103,80.5419927 C23.7858061,80.4072825 23.5389236,80.2998229 23.4165068,80.0381148 C20.1783507,78.1537143 16.9376337,76.273427 13.7061363,74.3782291 Z" id="Fill-1110" fill="#003B5C"></path>
                    <path d="M58.6121251,88.7340815 C56.8309103,87.7066299 55.0568552,86.6669529 53.2695035,85.650708 C52.9176586,85.4510248 52.9058964,85.3542396 53.2602983,85.1509906 C55.1847058,84.0461109 57.0988852,82.9244211 59.0197129,81.8129192 C59.6006661,81.4772273 60.1908246,81.1568173 60.7763804,80.8287663 C61.23204,80.9102697 61.6125234,81.1649676 61.9751078,81.4160998 C62.4680998,81.7568857 62.8935866,81.7146058 63.3860672,81.4191562 C65.34525,80.242961 67.3335828,79.1161772 69.3101534,77.9685083 C74.1797277,75.1408515 79.0605529,72.3315331 83.926036,69.4972542 C84.051841,69.4239012 84.185317,69.3795838 84.3228843,69.3418885 C86.9734833,70.8634541 89.6240823,72.3840009 92.2716129,73.9106604 C92.4362845,74.005408 92.5533957,74.0960805 92.7610251,73.9646564 C93.3102713,73.6162296 93.8809965,73.3019323 94.536103,72.9198854 C93.6391031,72.3941888 92.8106311,71.9036405 91.9770451,71.4227708 C89.6297077,70.0687964 87.2828818,68.7127845 84.9278734,67.3720545 C84.5555724,67.1601458 84.5264225,67.0501162 84.9181568,66.8254727 C86.8814309,65.7022547 88.8365225,64.565283 90.7865001,63.4196516 C91.091296,63.2403442 91.3193815,63.2663234 91.6205975,63.4430838 C94.6434975,65.2168004 97.6786712,66.9691223 100.702594,68.7402919 C101.101999,68.974614 101.431854,69.0036496 101.824611,68.7245006 C102.237313,68.4305792 102.695529,68.201351 103.225342,67.8901101 C102.515004,67.4632363 101.855295,67.0531726 101.183312,66.6645035 C98.801711,65.2865876 96.4165299,63.916822 94.0333944,62.5429812 C93.8922473,62.4614779 93.7603055,62.3626551 93.61609,62.2882833 C93.0990621,62.0233974 93.4488614,61.8807665 93.6958688,61.7371169 C94.7350386,61.1324639 95.776254,60.5313767 96.8184923,59.9318178 C98.248885,59.1091434 99.6813233,58.2885065 101.112739,57.4668509 C101.618004,57.5921623 102.018944,57.9227603 102.457727,58.1723643 C102.816732,58.3761226 103.113345,58.4026112 103.479509,58.1881555 C107.649485,55.7476397 111.837871,53.3381971 116.017052,50.9134725 C118.855847,49.2665955 121.69004,47.6115682 124.542132,45.9871046 C124.632138,45.936165 124.726748,45.9025449 124.823914,45.8719812 C127.467865,47.4032253 130.112839,48.9334506 132.755255,50.4672417 C132.946008,50.5777806 133.115283,50.6185323 133.321378,50.4922021 C133.857328,50.1641511 134.402994,49.8518914 135.03969,49.476976 C134.017908,48.8814922 133.064654,48.3201379 132.105774,47.7684621 C129.915949,46.508726 127.722544,45.2556121 125.53323,43.9943478 C125.006485,43.6912573 125.008531,43.6158667 125.541923,43.3056445 C127.478605,42.1783514 129.422957,41.0632837 131.351967,39.9232557 C131.677219,39.7312134 131.897122,39.8840322 132.135947,40.0215691 C133.725386,40.9364442 135.309199,41.8609977 136.896592,42.7784198 C138.431311,43.6652781 139.96961,44.546533 141.503817,45.4339007 C141.645476,45.5159134 141.750825,45.6198302 141.940044,45.5036879 C142.51128,45.1527141 143.095813,44.8236444 143.767285,44.4319189 C142.608447,43.7595163 141.525808,43.1288842 140.441123,42.5018178 C138.359715,41.2986246 136.278818,40.0944127 134.193319,38.8988605 C133.835337,38.6935739 133.725897,38.5703001 134.177977,38.3120364 C136.672598,36.8887842 139.1529,35.4400622 141.637805,34 C142.27041,34.5914087 143.071266,34.917422 143.803594,35.348371 C146.248609,36.7884332 148.715103,38.191819 151.161653,39.6288248 C151.504293,39.8300362 151.749254,39.8534684 152.096497,39.6329 C152.871271,39.1408236 153.686447,38.712931 154.47503,38.2412304 C154.760392,38.0700733 154.987966,38.0226995 155.309638,38.208629 C158.082463,39.8157731 160.868583,41.4015226 163.650101,42.9938942 C163.790226,43.0738694 163.980467,43.1324499 163.972796,43.3250016 C163.939044,44.1685612 164.10167,45.0192524 163.885346,45.8566993 C163.885346,45.043194 163.885346,44.2296887 163.885346,43.3601499 C163.217966,43.4818955 162.744407,43.8843183 162.235051,44.1767116 C158.556533,46.2871388 154.895402,48.4266017 151.227112,50.553839 C146.006716,53.5816883 140.787854,56.6110658 135.563366,59.6317836 C130.320979,62.6621799 125.069387,65.6767849 119.828535,68.7097281 C114.711442,71.671356 109.606622,74.653869 104.489529,77.6154969 C98.7725611,80.9245327 93.0453648,84.2162491 87.3268624,87.5232474 C83.1977989,89.9118048 79.0753836,92.3130972 74.9504112,94.7087862 C74.2283109,95.128019 73.5077449,95.54878 72.7866674,95.9685222 C72.4629496,96.0841551 72.246115,95.8539082 72.0062672,95.7189182 C69.3035052,94.1937869 66.6114826,92.6498079 63.9291766,91.0961503 C63.7604138,91.2367436 63.9286652,91.5892456 63.5844913,91.5938301 C61.9270359,90.6407504 60.2685577,89.6897082 58.6121251,88.7340815 Z" id="Fill-1111" fill="#057EC2"></path>
                    <path d="M42.628012,77.6394067 C40.1530856,76.215979 37.6776472,74.7930603 35.2032327,73.3691237 C34.2839011,72.8403638 33.3645696,72.3116039 32.4493331,71.7767371 C32.2783661,71.6769903 32.0173087,71.6093049 32,71.4052311 C31.9814773,71.1650245 32.2722236,71.1416145 32.4385837,71.0444123 C34.8879163,69.6194579 37.3398083,68.1990836 39.7906765,66.7776916 C40.2564848,66.9893991 40.6895329,67.262685 41.1230929,67.5283372 C41.5029058,67.7604012 41.8110559,67.7634547 42.1964995,67.535462 C44.9365784,65.9130496 47.7042986,64.3369482 50.4597338,62.7399814 C54.5404191,60.3755749 58.6328777,58.0320338 62.7043492,55.6523599 C62.8819706,55.5485418 63.068294,55.4696604 63.2679261,55.419278 C65.7423407,56.8396523 68.2254571,58.2457769 70.6850273,59.6915968 C71.2352953,60.0147561 71.6386546,60.0681919 72.2329441,59.7170424 C75.4081186,57.839156 78.6196364,56.0223391 81.8173335,54.1821122 C81.9212446,54.1220606 82.0118468,54.0401257 82.2125027,53.8910144 C78.8597068,51.9510407 75.564753,50.0451642 72.17459,48.0838162 C73.2085821,47.4853353 74.1499243,46.9336744 75.0984328,46.3932095 C76.7604982,45.4456148 78.4261468,44.504636 80.0902597,43.5611126 C80.5396879,43.52956 80.8483499,43.8349074 81.17288,44.0542486 C81.727755,44.429317 82.2007295,44.4318615 82.7960428,44.0786764 C85.5530136,42.4430323 88.336602,40.8531903 91.113536,39.2511344 C95.2336359,36.874005 99.3465696,34.483644 103.473836,32.1177107 C103.58133,32.0556234 103.692407,32.0093124 103.809115,31.9716529 C106.462687,33.4943185 109.117794,35.0139306 111.765223,36.5472833 C111.970998,36.6663688 112.094872,36.6755292 112.306278,36.5528814 C115.304854,34.8103657 118.311109,33.0810817 121.315829,31.3492531 C121.772935,31.0856366 122.22953,30.8204933 122.807951,30.4861379 C119.434168,28.5334414 116.146381,26.6301094 112.736766,24.6570564 C115.458418,23.0748481 118.103287,21.537424 120.748669,20 C120.712326,20.2498759 120.926802,20.2936424 121.075758,20.3796486 C124.145998,22.1577881 127.220845,23.9267673 130.283918,25.7171207 C130.598211,25.9008381 130.827532,25.8825172 131.117766,25.7084692 C131.939329,25.2158421 132.778296,24.7517141 133.598323,24.2560335 C133.849143,24.1048866 134.04468,24.0601023 134.32007,24.2199008 C137.123622,25.8479112 139.934852,27.462181 142.74301,29.0825578 C142.86023,29.1502431 143.017376,29.1965541 142.998437,29.3838338 C141.712601,29.9192096 140.569579,30.7120949 139.368203,31.396582 C135.806562,33.4256153 132.263859,35.487219 128.714502,37.5371177 C125.429786,39.4338339 122.14507,41.3300411 118.861889,43.2287929 C115.401599,45.2293271 111.943868,47.2334237 108.484602,49.2344669 C103.259871,52.2574059 98.0371876,55.2833985 92.8098972,58.3012484 C87.8467355,61.1659157 82.8764075,64.0168424 77.9142695,66.8825275 C73.0053668,69.7176779 68.1056779,72.5691135 63.1962633,75.403755 C59.4170736,77.585462 55.629182,79.7524106 51.8448736,81.925975 C51.434348,82.1371736 51.1446255,81.8470936 50.8405705,81.67101 C48.5012915,80.3147587 46.1476799,78.9849709 43.820686,77.608872 C43.4081129,77.3645941 43.0119199,77.0857102 42.628012,77.6394067" id="Fill-1112" fill="#057EC2"></path>
                    <path d="M21.8444757,67.5546244 C19.7671834,66.3696209 17.6883455,65.1861444 15.6120836,63.9991048 C14.1226361,63.1475107 12.6362799,62.2913355 11,61.3521897 C13.7315982,59.7915278 16.3611865,58.2894034 18.9907748,56.7872791 C19.4730034,56.8753399 19.8475548,57.1843164 20.241684,57.429665 C20.732671,57.7350783 21.1432865,57.681122 21.6126351,57.4031959 C23.4477827,56.3159246 25.30766,55.2693751 27.1567181,54.2055188 C32.0464952,51.3921534 36.9445156,48.5935497 41.8322319,45.7766212 C42.080559,45.6330769 42.3345534,45.497677 42.6184294,45.4309951 C44.8961351,46.7244204 47.174356,48.0173366 49.4510313,49.3117799 C49.8070355,49.5138617 50.1599485,49.7215428 50.5113159,49.9312599 C50.7189421,50.0554613 50.9126578,50.0910928 51.1429529,49.9582381 C52.9667661,48.9050712 54.8317954,47.9211314 56.6035733,46.7809218 C57.5994577,46.0402946 58.6535599,45.4009628 59.8168848,44.9464061 C60.3552704,44.6542273 60.8946863,44.3640847 61.4315262,44.0693609 C61.7107654,43.9156362 61.6566693,43.7899077 61.4067966,43.6473816 C59.0950876,42.3269781 56.786985,41.0009754 54.477852,39.6764998 C53.557187,39.1491529 52.636522,38.621806 51.6365159,38.048647 C52.524208,37.5253723 53.3408024,37.0336569 54.1671855,36.5582302 C55.7823421,35.6287558 57.4016203,34.7064076 59.0229594,33.7876227 C59.1981279,33.6888724 59.3990564,33.633389 59.5876202,33.5580537 C60.0420279,33.4140004 60.3351775,33.7535182 60.6278119,33.9617083 C61.2486297,34.4035395 61.7576488,34.3648538 62.4243195,33.979015 C68.373866,30.5324261 74.334747,27.10518 80.3064473,23.6962587 C81.1081008,23.2386478 81.9154215,22.7886723 82.7016189,22.3040832 C82.9298532,22.1630841 83.1632394,22.0368466 83.4275378,21.9757639 C85.9159609,23.3959357 88.4126272,24.8023639 90.8871399,26.2464597 C91.4368598,26.5671436 91.8479906,26.6465511 92.4435635,26.278019 C94.0607809,25.2772815 95.7367313,24.368677 97.3894976,23.4239319 C97.526026,23.1902907 97.7274698,23.0299488 97.9690993,22.9113466 C98.8191817,22.4954755 99.5600414,21.8739595 100.487404,21.6021417 C101.151499,21.2386998 101.816109,20.875258 102.546149,20.4756757 C101.873296,19.9345851 101.136558,19.6037207 100.447734,19.2036293 C97.9855857,17.7748042 95.5121034,16.3653219 93.0468644,14.9410779 C92.4739604,14.6097045 92.4718996,14.5801812 93.0623205,14.2396454 C94.9963868,13.1243779 96.9381811,12.022345 98.8768842,10.9147128 C99.4101178,10.6103175 99.9428361,10.3049043 100.475554,10 C100.776432,10.3817666 101.235992,10.5385454 101.636303,10.7706595 C104.460123,12.4046206 107.297337,14.0172027 110.119096,15.655236 C110.434399,15.838484 110.658511,15.8201592 110.954237,15.6425104 C111.781135,15.1462138 112.630187,14.6865669 113.459662,14.1953605 C113.737871,14.0304373 113.953225,14.0258561 114.24689,14.1953605 C117.017643,15.7977622 119.798186,17.3848932 122.581819,18.965916 C122.883212,19.1369474 123.027984,19.3354661 122.995526,19.6902545 C122.92958,20.4125569 123.089808,21.1455488 122.906396,21.8647971 C122.906911,21.0376361 122.906911,20.2104751 122.906911,19.2621669 C121.935241,19.8088567 121.081037,20.2817382 120.234561,20.7678544 C116.429283,22.9505413 112.627096,25.1378094 108.822849,27.3215144 C105.747096,29.0873122 102.668767,30.8480198 99.5935295,32.6143266 C96.0741882,34.6356536 92.5563926,36.6595256 89.0380818,38.6833976 C84.0813284,41.5354487 79.1276663,44.393099 74.1673066,47.2395508 C67.9086391,50.830702 61.6422436,54.4081096 55.3840914,58.0002789 C50.7266701,60.6736631 46.0795529,63.3653722 41.423162,66.0407926 C37.9929506,68.0122353 34.5555264,69.9709525 31.1217086,71.935269 C30.8434998,72.1113906 30.6544209,71.8843668 30.4576139,71.7723819 C27.9506435,70.3461019 25.4467644,68.9147316 22.9547349,67.4640185 C22.5317545,67.2181608 22.1772959,67.061382 21.8444757,67.5546244" id="Fill-1113" fill="#057EC2"></path>
                    <path d="M101,5.18863008 C98.58878,6.59334154 96.1785815,7.99958263 93.7658292,9.40225459 C90.8423335,11.101675 87.9178163,12.7995658 84.9912561,14.4943974 C81.5182003,16.5053527 78.0415694,18.5106994 74.5685137,20.5216548 C71.2716645,22.4306347 67.9763475,24.3416541 64.682052,26.2547131 C61.2289152,28.2595499 57.7773107,30.2669361 54.3257062,32.2733026 C49.3944778,35.1403416 44.4663139,38.0119696 39.5320211,40.8733999 C34.1217153,44.0116936 28.7068128,47.1408095 23.2939533,50.2740044 C18.8857263,52.8249196 14.4780099,55.3758348 10.0697829,57.9272599 C9.8409698,58.0792033 9.64637653,57.9629513 9.44718657,57.852308 C6.75046095,56.35021 4.09868075,54.7695909 1.40501959,53.2623941 C1.24107093,53.1706163 1.12359992,53.0324396 1,52.897832 C1.09346606,52.6051625 1.38714356,52.5516254 1.6036988,52.4256858 C18.2687481,42.7441391 34.9383941,33.0717702 51.6049757,23.3937926 C63.9327913,16.2356277 76.2575424,9.07134434 88.5838258,1.91012021 C89.606845,1.31611337 90.6344609,0.730264564 91.6508404,0.125040425 C91.9051907,-0.0263930793 92.1043806,-0.0498474268 92.374564,0.107704603 C95.1923358,1.75256819 98.0187903,3.38366509 100.840648,5.02139039 C100.905002,5.05861142 100.947393,5.13203372 101,5.18863008" id="Fill-1114" fill="#057EC2"></path>
                    <path d="M88.8287913,102.744202 C88.8287913,103.431717 88.8257887,104.118718 88.8307931,104.806233 C88.8322944,105.001047 88.7747444,105.218537 88.9729163,105.362843 C88.6801624,105.701447 88.8192831,106.106535 88.8287913,106.481215 C88.8798356,108.453056 88.8848399,108.450994 87.2213969,109.434338 C85.3542772,110.538795 83.4926623,111.653045 81.619037,112.746164 C81.4438851,112.848724 81.2757392,113.151767 81,112.906447 C81.1996732,112.757502 81.140622,112.535889 81.140622,112.337468 C81.1416229,108.401518 81.1391207,104.465568 81.1376194,100.529618 C81.231701,100.304397 81.4348772,100.206475 81.6230405,100.092576 C83.7388759,98.8134054 85.8737279,97.5677341 87.9840585,96.2782556 C88.0696328,96.2256869 88.1547066,96.1715721 88.2452851,96.1277649 C88.7612327,95.8788368 88.9729163,95.9798511 88.9819242,96.5529527 C89.0109493,98.4428478 88.9984385,100.333258 88.9894307,102.223669 C88.9884298,102.413844 88.9338825,102.587526 88.8287913,102.744202" id="Fill-1115" fill="#005381"></path>
                    <path d="M128.948196,79.7970144 C128.684495,80.7069596 128.875907,81.6371028 128.834672,82.5568881 C128.830599,83.4046856 128.815836,84.2524831 128.828054,85.1002807 C128.832127,85.3820167 128.747111,85.5477438 128.500718,85.6912013 C126.050538,87.116972 123.607994,88.5556901 121.161377,89.9871577 C121.119633,90.0114988 121.054471,89.9933724 121,89.995444 C121.001527,85.8455346 121.003054,81.6961431 121.004073,77.5462337 C121.114033,77.2406744 121.403697,77.1427918 121.642453,77.0003701 C123.783625,75.7232359 125.935487,74.4652639 128.091422,73.2135066 C128.757802,72.8266374 128.986886,72.9493791 128.983831,73.7143131 C128.976195,75.7418802 129.043902,77.7699652 128.948196,79.7970144" id="Fill-1116" fill="#005381"></path>
                    <path d="M161.129973,66 C161.198055,64.8211775 160.972149,63.6470247 161.022694,62.4754661 C161.14132,59.7266098 161.125331,56.9777535 161.129973,54.2283784 C161.130489,53.9622094 161.175361,53.6861823 161,53.4490688 C161.668434,52.8856 162.469936,52.5416038 163.21522,52.1073281 C164.821319,51.1713264 166.424839,50.2316928 168.03919,49.3102189 C168.146985,49.2489949 168.25117,49.180507 168.362576,49.1270656 C168.858228,48.8915087 168.986139,48.9641474 168.988202,49.5084188 C168.993359,50.9814281 168.989749,52.4544373 168.989749,53.9279654 C168.989749,56.2513664 168.991296,58.5752863 168.98717,60.8986872 C168.986654,61.1020756 169.039778,61.3137656 168.93353,61.5088524 C166.3516,63.0399726 163.77328,64.577319 161.129973,66" id="Fill-1117" fill="#005381"></path>
                    <path d="M169.874159,61 C169.873119,57.2200981 169.874159,53.4396957 169.86896,49.6597938 C169.86844,49.46662 169.970863,49.2018817 169.792012,49.0952858 C169.565849,48.9606646 169.390118,49.2153939 169.200869,49.319988 C166.936117,50.571114 164.673445,51.8252427 162.405055,53.0698629 C162.24908,53.1554399 162.053592,53.1754579 161.876821,53.225503 C160.334232,52.3757382 158.791643,51.5249725 157.249054,50.6757081 C156.970899,50.5225703 156.870555,50.4124712 157.240215,50.2087879 C159.249688,49.1007907 161.245123,47.967771 163.249917,46.8512661 C163.78439,46.5534981 164.334981,46.2832549 164.877772,46 C166.419841,46.867781 167.957231,47.7440697 169.508139,48.5973376 C169.852323,48.7870083 170.002058,48.9946952 170,49.3965569 C169.981262,53.158943 169.988541,56.9218296 169.986461,60.6842158 C169.986461,60.7998198 170.014016,60.928936 169.874159,61" id="Fill-1118" fill="#057EC2"></path>
                    <path d="M0.0571379521,53 C1.67191519,53.7919652 3.19430746,54.7476701 4.75869289,55.6281885 C6.38354849,56.5432369 7.99440636,57.4833476 9.61534259,58.4050793 C9.72508474,58.4674563 9.87122096,58.4652285 10,58.4930754 C9.71556628,59.2711172 9.90033622,60.0770059 9.8740205,60.8684142 C9.85778314,61.3496083 9.80627152,61.4498571 9.3325886,61.1747299 C6.62038995,59.5980396 3.88859448,58.0530947 1.1623981,56.4997958 C1.10696712,56.4680503 1.03753842,56.4613671 0.844929759,56.4045595 C0.844929759,60.299224 0.844929759,64.1493335 0.844929759,68 C0.679756637,66.9891583 0.75870379,65.9682917 0.749185339,64.9535514 C0.724549348,62.2908328 0.75366461,59.6275573 0.773261421,56.9648387 C0.776620874,56.5465785 0.782779872,56.1650763 0.286140688,56.0018936 C-0.00613175232,55.9055434 -0.00501193454,55.6465674 0.00170697213,55.3942747 C0.022423601,54.5961831 0.0392208677,53.7980916 0.0571379521,53" id="Fill-1119" fill="#003B5C"></path>
                    <path d="M74.9904501,111.308102 C74.9938207,112.198573 74.9966295,113.088522 75,113.978993 C74.7438392,114.064345 74.5887945,113.868139 74.4124031,113.77446 C71.4519481,112.207941 68.5016047,110.625808 65.5383409,109.064492 C65.1670201,108.869328 64.9732142,108.675204 65.0029873,108.249485 C65.0541071,107.524515 65.0288281,106.79486 65.0355692,106.067287 C65.2793713,105.902308 65.4613803,106.080818 65.6439511,106.176059 C68.6296851,107.734772 71.5710404,109.364265 74.543854,110.943795 C74.7174366,111.035913 74.8971986,111.128031 74.9904501,111.308102" id="Fill-1120" fill="#003B5C"></path>
                    <path d="M30.8584414,87.2289243 C30.8589399,87.9271444 30.8559492,88.6248407 30.8614321,89.3230608 C30.8629275,89.5210557 30.8061047,89.7410501 31,89.8898081 C30.7921482,90.1380875 30.6326456,89.9018554 30.4841088,89.8117625 C27.7780476,88.1754237 25.0779677,86.5275614 22.3704111,84.892794 C22.1211883,84.7424645 21.9836173,84.5905637 22.0015614,84.2647626 C22.0349572,83.6603019 22.0264837,83.0532223 22.0359541,82.4466665 C22.1670453,81.9380606 22.2487904,81.8903951 22.7218153,82.1695784 C23.8313552,82.8243235 24.9389014,83.4827351 26.0374755,84.1573844 C27.4276403,85.0116957 28.8312631,85.8413886 30.2234217,86.6920334 C30.4561958,86.8345059 30.7462912,86.9219798 30.8584414,87.2289243" id="Fill-1121" fill="#003B5C"></path>
                    <path d="M10,74.2483119 C9.69857944,74.9235213 9.92506428,75.6307088 9.86075377,76.3205967 C9.83950334,76.5454918 9.85683921,76.7735322 9.85683921,77 C8.67408507,76.5150864 7.60764906,75.833062 6.49144231,75.2370114 C4.48103988,74.1633864 2.4924471,73.0541138 0.479807773,71.9841585 C0.116872814,71.7912415 -0.0195773099,71.5742099 0.00223234096,71.1946667 C0.0436147555,70.4869549 0.0441739773,69.7771463 0.0620690755,69.0683861 C0.265066595,68.9315618 0.449609795,69.0269718 0.622968559,69.1208091 C3.74398552,70.7999208 6.85325883,72.4979048 9.96253214,74.1969372 C9.97986801,74.2063734 9.98769712,74.230488 10,74.2483119" id="Fill-1122" fill="#003B5C"></path>
                    <path d="M52,99.2485831 C51.7396206,100.15521 51.9391778,101.083912 51.8788582,102 C50.2326373,101.150135 48.6804144,100.124201 47.088481,99.173425 C45.7398365,98.3682348 44.3585189,97.6192818 43.0691887,96.7084498 C42.937491,95.9174503 43.0385262,95.1206694 43.0159064,94.327042 C43.0028372,93.8824005 43.2727671,93.9806841 43.5019814,94.1047213 C44.1986721,94.4805117 44.8712351,94.9030789 45.5488246,95.3146089 C47.583604,96.5481476 49.6264259,97.7664445 51.6712585,98.9810624 C51.7929029,99.053067 51.9235952,99.1150855 52,99.2485831" id="Fill-1123" fill="#003B5C"></path>
                    <path d="M75.1547653,112 C73.3943997,111.015256 71.6409105,110.019833 69.8730954,109.048579 C68.243955,108.153204 66.6778485,107.149912 65,106.339971 C65.3019898,105.900996 65.8406433,105.80432 66.2429144,105.511482 C66.4692635,105.346234 66.7958938,105.305203 66.9099279,105 C69.7550501,106.617071 72.5990261,108.234704 75.4452944,109.85065 C75.8802284,110.09796 76.3243311,110.329533 76.7575461,110.579091 C77.0377605,110.740967 77.1231428,110.893849 76.7523887,111.086077 C76.2080049,111.368797 75.6859693,111.693111 75.1547653,112" id="Fill-1124" fill="#057EC2"></path>
                    <path d="M52.4582589,99 C51.6645111,98.8278729 51.0375082,98.3374356 50.3494883,97.9742225 C48.0787069,96.7743223 45.8268618,95.5414934 43.5844849,94.293697 C43.1510534,94.0522202 43.1073946,94.1659737 43.1152847,94.5551306 C43.128961,95.2326626 43.1147587,95.9106935 43.1126547,96.5887244 C42.897517,95.7884583 43.0637358,94.9757193 43.0258632,94.1699651 C43.015869,93.9519375 43.2252206,93.8805921 43.3840754,93.7932812 C43.8722119,93.523865 44.3666605,93.2639282 44.859005,93 C45.8047694,93.3357725 46.6164015,93.9060369 47.4853686,94.373524 C49.5578445,95.4881091 51.599286,96.6540828 53.676496,97.7611841 C54.2046092,98.0425744 54.0036737,98.1678031 53.6586117,98.3543988 C53.2588448,98.5709297 52.8580258,98.7849659 52.4582589,99" id="Fill-1125" fill="#057EC2"></path>
                    <path d="M30.4155126,86 C28.1976284,84.8262688 25.9786838,83.6535214 23.7613298,82.4783143 C23.0466016,82.0995327 22.3286922,81.7251783 21.6261589,81.3286874 C21.321286,81.1565139 21.1394227,81.1934082 21.0307289,81.5092236 C20.9352904,81.1565139 21.060951,80.9326884 21.4246777,80.760023 C21.8875543,80.5401328 22.3149066,80.2562925 22.7576351,80 C25.6881266,81.5677626 28.6186182,83.1345413 31.5480493,84.7032877 C32.1487815,85.0250061 32.1487815,85.0309092 31.5591838,85.3678773 C31.1816716,85.5838321 30.7972666,85.7899483 30.4155126,86" id="Fill-1126" fill="#057EC2"></path>
                    <path d="M9.40038471,75 C8.4868478,74.7787603 7.75316182,74.2221573 6.95494109,73.7946943 C4.72267372,72.5998999 2.51579707,71.3615584 0.296754027,70.1442396 C0.208944458,70.095687 0.0994469824,70.0831734 0,70.054142 C0.384034624,69.5015433 1.11348882,69.4184533 1.59644145,69 C2.79509497,69.503045 3.87843232,70.2023025 5.01360904,70.811963 C6.94118779,71.8475849 8.85448425,72.9067323 10.7735994,73.9573705 C10.841308,73.9944106 10.9021399,74.0424627 11,74.1080337 C10.48478,74.4839409 9.93887954,74.7362142 9.40038471,75" id="Fill-1127" fill="#057EC2"></path>
                    <path d="M130.151412,79 C129.947426,78.8248833 130.028299,78.5902268 130.027784,78.3805871 C130.021603,76.64493 130.028299,74.9092728 130.017997,73.1741161 C130.016966,72.9704803 130.149866,72.6807872 129.906217,72.5772181 C129.702231,72.4906604 129.493094,72.7018012 129.301986,72.8078719 C126.904124,74.1442628 124.508837,75.4856571 122.113036,76.8255504 C120.436335,75.8734156 118.759119,74.9217812 117,73.9231154 C119.142365,72.7128085 121.178616,71.5565377 123.221564,70.4112742 C123.787676,70.0940627 124.319275,69.7113075 124.945655,69.5001668 C125.480345,69.4931621 125.833714,69.8759173 126.252503,70.102068 C126.680564,70.3337225 127.017449,70.3282188 127.449116,70.0850567 C134.372782,66.177952 141.297479,62.2723482 148.213934,58.3532355 C148.44522,58.2216478 148.697627,58.1330887 148.927368,58 C151.805318,59.6265844 154.683783,61.2521681 157.560703,62.8802535 C158.15154,63.2144763 158.153601,63.2264843 157.523099,63.5812208 C155.122661,64.9341227 152.715527,66.2765177 150.31612,67.6319213 C145.33959,70.4427952 140.367696,73.2611741 135.391166,76.0715477 C133.649045,77.0552035 131.898168,78.0243496 130.151412,79" id="Fill-1128" fill="#057EC2"></path>
                    <path d="M88.9954003,102 C88.9954003,100.049907 88.9995431,98.099813 88.9891862,96.1497195 C88.9881505,95.9458507 89.1222726,95.6614411 88.8742243,95.548684 C88.690389,95.4646196 88.4925718,95.6579174 88.3190933,95.7560765 C85.9494295,97.0980872 83.5833907,98.4466417 81.2152804,99.7916727 C81.1640136,99.8203653 81.0961758,99.8223788 81.0366235,99.8369768 C79.4483895,98.9515317 77.8611912,98.0645764 76.2719215,97.1811448 C75.7680572,96.9007623 76.0632295,96.7713936 76.3651338,96.6012513 C78.8766874,95.1872573 81.3835804,93.766216 83.8920269,92.3466849 C84.3844986,92.5163239 84.7956684,92.8309363 85.2436053,93.0785992 C85.6081689,93.2804545 85.9064483,93.2839781 86.2761904,93.073062 C90.2169993,90.8234575 94.175415,88.6020423 98.1255451,86.3680426 C101.199997,84.6293686 104.279628,82.8992521 107.34942,81.1530275 C107.47681,81.0805408 107.610414,81.0342298 107.751269,81 C110.802936,82.7210557 113.854603,84.4416079 117,86.2155185 C115.742152,86.9308212 114.574409,87.6003164 113.402005,88.2612541 C109.970757,90.1967496 106.535366,92.1262045 103.104635,94.0627067 C99.60296,96.0399827 96.1064631,98.0263196 92.603752,100.002589 C91.4064918,100.677621 90.1988747,101.334532 88.9954003,102" id="Fill-1129" fill="#057EC2"></path>
                    <path d="M51.6326851,85.056418 C53.6299307,86.2119638 55.6306952,87.3614357 57.6239192,88.5240676 C60.277697,90.0723876 62.924437,91.6328552 65.5782148,93.180669 C65.8139833,93.3183425 66.0019948,93.4266591 66,93.7607196 C65.986411,96.1664616 65.9929462,98.5722037 65.9929462,100.968329 C65.7561723,101.066016 65.6144096,100.914171 65.4711387,100.830655 C59.2898824,97.2395046 53.1091287,93.6478476 46.9384291,90.0374631 C46.283405,89.6543058 45.5836401,89.3374544 45,88.8358574 C45.0658543,88.5949289 45.277493,88.49876 45.462991,88.3894311 C47.2757439,87.322462 49.0834699,86.2453698 50.907785,85.1981406 C51.1345048,85.0680595 51.3546895,84.9152015 51.6326851,85.056418" id="Fill-1130" fill="#00649C"></path>
                    <path d="M22.1342318,68.012588 C23.7950708,69.0330575 25.4553701,70.053527 27.1156693,71.0739965 C27.6014526,71.3719227 28.0785997,71.6895178 28.5784167,71.9579407 C28.8930963,72.1274404 29.0021277,72.3495834 29,72.7215573 C28.9853951,75.3346303 28.9848554,77.9477033 28.9918723,80.5613549 C28.992412,80.97903 28.9195445,81.1265469 28.5249806,80.8806855 C24.5788011,78.4203358 20.6283036,75.969242 16.6794254,73.5146773 C16.1207747,73.1675789 15.5642829,72.8158524 15.0072515,72.4664399 C14.9527358,72.1239694 15.2172178,72.0452938 15.4115311,71.9249663 C17.3703172,70.7124356 19.3301828,69.5016405 21.2922074,68.2948948 C21.5507521,68.135808 21.8082172,67.9495318 22.1342318,68.012588" id="Fill-1131" fill="#00649C"></path>
                    <path d="M23,70.058112 C20.7758969,71.298688 18.5517937,72.538752 16.3302949,73.783424 C16.2464353,73.830528 16.1907025,73.926784 16.1224689,74 C16.0813204,73.9104 16.0052738,73.821312 16.0052738,73.731712 C15.9990234,71.200384 16,68.669056 16,66 C18.3887623,67.38496 20.6946416,68.721792 23,70.058112" id="Fill-1132" fill="#057EC2"></path>
                    <path d="M51,86.5114097 C50.2989212,86.6501684 49.7528287,87.0636414 49.1505667,87.3715269 C47.4691219,88.2307096 45.8069203,89.121662 44.1374375,90 C43.9424044,89.8565693 44.0126163,89.6566072 44.0120962,89.4786036 C44.0079355,87.4673031 44.0219779,85.4560026 44.0001342,83.4451692 C43.9949333,82.9522721 44.1400379,82.8994784 44.5862735,83.1363493 C46.7196749,84.2679103 48.8613977,85.387324 51,86.5114097" id="Fill-1133" fill="#057EC2"></path>
                    <path d="M22,67.6797166 C22.2229133,67.5150071 22.0479813,67.2468322 22.2249125,67 C23.3359805,67.5962019 24.4460488,68.1956516 25.5606153,68.7886057 C27.3724107,69.7522721 29.1867052,70.7117628 31,71.6726454 C30.9990004,72.2836944 31.0014994,72.8947433 30.9965014,73.5053283 C30.9915033,74.0653405 30.9205309,74.1122015 30.3907369,73.8338193 C28.9887821,73.0974984 27.595324,72.3486502 26.1998667,71.6021219 C24.9943355,70.9572031 23.8002999,70.2932616 22.5812739,69.6715413 C22.23141,69.4929127 22.1084578,69.2938694 22.110457,68.9338284 C22.1134559,68.5162551 22.2359083,68.0815149 22,67.6797166" id="Fill-1134" fill="#003B5C"></path>
                    <path d="M65,91.7471275 C65.2355021,91.574064 65.0694287,91.3039163 65.2216164,91 C68.4842098,92.7622922 71.7395826,94.5203633 74.9943999,96.2789621 C74.9955108,97.079908 74.9943999,97.880854 75,98.6818 C75.0021759,99.0168465 74.9244158,99.0859664 74.5817157,98.8954911 C72.0800609,97.5057074 69.566742,96.1359737 67.0567557,94.7593808 C66.9417818,94.6965925 66.8340285,94.6185029 66.7123894,94.5699607 C65.6198594,94.1320259 64.7950465,93.5368565 65.1321922,92.2262177 C65.1755157,92.05632 65.0933122,91.8948645 65,91.7471275" id="Fill-1135" fill="#003B5C"></path>
                    <path d="M43.0103402,78.5390263 C43.2509964,77.8854456 43.2619808,77.8673567 43.9849481,78.2643605 C46.37104,79.573902 48.7481447,80.8977243 51.1292437,82.2153582 C51.4023536,82.3662577 51.6629814,82.5485749 52,82.5485749 C51.7413694,83.192159 51.9420827,83.8619246 51.8751783,84.5164573 C51.8587018,84.6764013 51.9705421,84.8948962 51.7738231,84.9810565 C51.5985734,85.0576964 51.455278,84.8825196 51.3039941,84.7987394 C48.7151918,83.3644797 46.1303837,81.9226035 43.5271021,80.512621 C43.1421519,80.3041226 42.9679008,80.092768 43.004848,79.6767232 C43.037801,79.3001884 43.0108395,78.9184173 43.0103402,78.5390263" id="Fill-1136" fill="#003B5C"></path>
                    <path d="M70,51 C70,53.3744396 70,55.6277625 70,58 C67.977068,56.8224145 66.026754,55.6872198 64,54.5074322 C66.033306,53.318836 67.981982,52.1797877 70,51" id="Fill-1137" fill="#057EC2"></path>
                    <path d="M109.998089,35 C108.337294,33.8542313 106.77669,32.7722112 105.211314,31.7004365 C104.947476,31.520005 104.916465,31.3879541 105.199387,31.193293 C106.6827,30.1727449 108.166014,29.152766 109.639785,28.1128656 C109.924138,27.9119434 110.000475,27.9734154 110,28.3445238 C109.996181,30.5256394 109.998089,32.7073242 109.998089,35" id="Fill-1138" fill="#057EC2"></path>
                    <path d="M60,42.9103958 C59.029341,43.6689865 58.042809,44.3933594 57,45 C57,43.692765 57,42.38495 57,41 C58.1024531,41.4958678 58.9446849,42.4533855 60,42.9103958" id="Fill-1139" fill="#057EC2"></path>
                    <path d="M101,19.9825303 C100.000166,20.6553959 98.9998337,21.3276979 98,22 C98,20.6987884 98,19.3975768 98,18 C99.0616997,18.6435616 100.060037,19.2538743 101,19.9825303" id="Fill-1140" fill="#057EC2"></path>
                </g>
            </g>
        </g>
    </g>
</svg>