<?xml version="1.0" encoding="UTF-8"?>
<svg width="322px" height="215px" viewBox="0 0 322 215" version="1.1" xmlns="http://www.w3.org/2000/svg" xmlns:xlink="http://www.w3.org/1999/xlink">
    <title>illust/result/mr4</title>
    <g id="Page-5" stroke="none" stroke-width="1" fill="none" fill-rule="evenodd">
        <g id="ver5_chapter3" transform="translate(-457.000000, -8172.000000)">
            <g id="Group-81" transform="translate(196.000000, 8172.000000)">
                <g id="illust/result/mr4" transform="translate(261.000000, 0.000000)">
                    <rect id="Rectangle" x="0" y="0" width="322" height="215"></rect>
                    <path d="M267.781794,130 L267.781794,130 C267.781794,130 269.396295,130 279.216969,130 C289.03888,130 297,139.850001 297,151.998129 C297,164.149999 289.03888,174 279.216969,174 C278.171782,174 267.781794,174 267.781794,174 C257.96112,174 250,164.149999 250,151.998129 C250,139.850001 257.96112,130 267.781794,130" id="Fill-382" fill="#000000"></path>
                    <path d="M117.782178,130 L117.782178,130 C117.782178,130 119.396658,130 129.217203,130 C139.038366,130 147,139.850001 147,151.998129 C147,164.149999 139.038366,174 129.217203,174 C128.17203,174 117.782178,174 117.782178,174 C107.961015,174 100,164.149999 100,151.998129 C100,139.850001 107.961015,130 117.782178,130" id="Fill-383" fill="#000000"></path>
                    <polygon id="Fill-384" fill="#000000" points="14 162 210 162 210 121 14 121"></polygon>
                    <path d="M67,151.997817 C67,164.149859 59.0977211,174 49.3497755,174 C48.3123941,174 38,174 38,174 L38,130 C38,130 39.6024441,130 49.3497755,130 C59.0977211,130 67,139.849517 67,151.997817" id="Fill-385" fill="#000000"></path>
                    <path d="M217,151.997817 C217,164.149859 209.097721,174 199.35039,174 C198.312394,174 188,174 188,174 L188,130 C188,130 189.602444,130 199.35039,130 C209.097721,130 217,139.849517 217,151.997817" id="Fill-386" fill="#000000"></path>
                    <path d="M269.649781,88 L286.706683,88 C287.973285,88 289,86.9794339 289,85.7218371 L289,79.2781629 C289,78.0192952 287.973285,77 286.706683,77 L275.973194,77 C274.706592,77 273.679877,78.0192952 273.679877,79.2781629 L273.679877,80.2212016 C273.679877,81.4800693 272.653162,82.4993645 271.38656,82.4993645 L269.649781,82.4993645 C268.738211,82.4993645 268,83.2339688 268,84.1388793 L268,86.3598498 C268,87.2653957 268.738211,88 269.649781,88" id="Fill-387" fill="#E5F2F8"></path>
                    <path d="M263.542118,45.6208653 L282.449619,86.5185606 C282.449619,86.5185606 303.882044,106.231551 303.882044,117.018717 C303.882044,122.941168 303.882044,132.191057 303.882044,132.191057 L307,136.484444 C307,136.484444 307,156.080671 307,157.704115 C307,159.333804 305.366815,162 299.872975,162 C294.378509,162 211.416707,162 209.040823,162 C212.307194,146.926315 199.467151,100.999688 184.229308,84.6597164 C181.308611,81.5270924 101.877445,40 106.167687,40 L254.348563,40 C258.229883,40 261.782436,42.172294 263.542118,45.6208653" id="Fill-388" fill="#E5F2F8"></path>
                    <path d="M299.896775,162 C294.420657,162 211.735899,162 209.36795,162 C207,162 207,159.796512 207,158 L307,158 C307,159.517442 305.372269,162 299.896775,162" id="Fill-389" fill="#CBDDF5"></path>
                    <polyline id="Fill-390" fill="#F3F8FA" points="207 132 303.859151 132 307 136 207 136 207 132"></polyline>
                    <path d="M175.187858,46 L260.091562,46 C261.014028,46 261.852237,46.5311299 262.239822,47.3638125 C265.101464,53.5077938 276.763358,78.6061624 279.889632,85.3340143 C280.252252,86.1139562 279.676803,87 278.813005,87 L193.908677,87 C192.984962,87 192.148002,86.4701111 191.761041,85.636808 C188.906264,79.4928267 177.243746,54.3932171 174.110607,47.6653652 C173.747363,46.8860438 174.323436,46 175.187858,46" id="Fill-391" fill="#53729D"></path>
                    <path d="M13.0759667,143.30978 C13.0759667,143.30978 13.0759667,124.026378 13.0759667,103.890044 C13.0759667,89.1941224 20.8158211,57.7286411 24.9977686,46.6423866 C26.5084721,42.6393465 30.3471347,40 34.6310046,40 L162.426767,40 C166.302322,40 169.849599,42.172294 171.607293,45.6208653 L190.486084,86.5185606 C190.486084,86.5185606 211.886675,106.230926 211.886675,117.018717 C211.886675,122.941168 211.886675,132.191681 211.886675,132.191681 L215,136.484444 C215,136.484444 215,156.080671 215,157.704115 C215,159.333804 207.331429,157.704115 206.782423,157.704115 C206.782423,154.881819 206.782423,155.805934 206.782423,151.566245 C206.782423,138.612405 198.080246,128.073751 187.383389,128.073751 C176.687158,128.073751 167.986231,138.612405 167.986231,151.566245 L167.986231,159.633517 C167.986231,160.938517 166.924487,162 165.613877,162 L59.5007111,162 C58.1907261,162 57.1283563,160.938517 57.1283563,159.633517 L57.1283563,151.566245 C57.1283563,138.612405 48.4261789,128.073751 37.7299478,128.073751 C27.0337167,128.073751 18.3327898,138.612405 18.3327898,151.566245 L18.3327898,159.633517 C18.3327898,160.938517 17.2710453,162 15.960435,162 L13.3723548,162 C11,162 11,159.633517 11,157.704115 C11,155.780958 11,147.011234 11,145.678761 C11,144.345663 13.0759667,143.30978 13.0759667,143.30978" id="Fill-392" fill="#CBDDF5"></path>
                    <path d="M123.409221,90 L35.5969745,90 C33.3589682,90 31.6585378,87.9995973 32.0585649,85.8185896 C34.6625264,71.6195423 39.002883,55.4332158 41.6106303,48.5758527 C42.4239345,46.4367154 44.5294396,45 46.8501013,45 L123.409221,45 C125.391689,45 127,46.5923231 127,48.5558549 L127,86.4435202 C127,88.4076769 125.391689,90 123.409221,90" id="Fill-393" fill="#2B466B"></path>
                    <path d="M133,48.5558549 C133,46.5923231 134.596093,45 136.564899,45 L161.651365,45 C163.731046,45 165.610902,46.134249 166.577453,47.9646706 L183.668422,84.9549356 C184.757122,87.3115487 183.031989,90 180.431135,90 L136.564899,90 C134.596093,90 133,88.4076769 133,86.4435202 L133,48.5558549" id="Fill-394" fill="#2B466B"></path>
                    <path d="M32.0577363,85.8185896 C34.6248591,71.6195423 38.9038117,55.4332158 41.4746666,48.5758527 C42.2764648,46.4367154 44.3521829,45 46.6400136,45 L49,45 C46.7115472,45 44.6364512,46.4367154 43.834653,48.5758527 C41.263798,55.4332158 36.9848454,71.6195423 34.4177227,85.8185896 C34.0233549,88.0002222 35.699729,90 37.9060736,90 L35.5460873,90 C33.3397426,90 31.6633686,88.0002222 32.0577363,85.8185896" id="Fill-397" fill="#1A2A40"></path>
                    <path d="M137.6,45 L140,45 C138.011808,45 136.4,46.5923231 136.4,48.5558549 L136.4,86.4435202 C136.4,88.4076769 138.011808,90 140,90 L137.6,90 C135.611808,90 134,88.4076769 134,86.4435202 L134,48.5558549 C134,46.5923231 135.611808,45 137.6,45" id="Fill-398" fill="#1A2A40"></path>
                    <polygon id="Fill-399" fill="#37414F" points="229 133 295 133 295 118 229 118"></polygon>
                    <polygon id="Fill-400" fill="#E2E6EF" points="229 120 295 120 295 118 229 118"></polygon>
                    <polygon id="Fill-401" fill="#E2E6EF" points="229 132 295 132 295 130 229 130"></polygon>
                    <polygon id="Fill-402" fill="#E2E6EF" points="229 126 295 126 295 124 229 124"></polygon>
                    <path d="M291.352042,118 L304,118 L304,133 L291.352042,133 C290.053273,133 289,131.950617 289,130.658025 L289,120.341975 C289,119.048148 290.053273,118 291.352042,118" id="Fill-403" fill="#FFFDFF"></path>
                    <path d="M207.32898,118 L232.672198,118 C233.958195,118 235,119.048148 235,120.341975 L235,130.658025 C235,131.950617 233.958195,133 232.672198,133 L209.529777,133 C208.432753,133 207.484208,132.228395 207.254127,131.148765 L205.052716,120.833951 C204.741648,119.375309 205.846648,118 207.32898,118" id="Fill-404" fill="#FFFDFF"></path>
                    <path d="M209.757947,133 C208.605665,133 207.60934,132.228395 207.36767,131.148765 L205.055372,120.833951 C204.728634,119.375309 205.889294,118 207.446293,118 L212,118 C212,123.854938 212,133 212,133 L209.757947,133" id="Fill-405" fill="#F4E4C5"></path>
                    <path d="M221.223044,146 L299.776334,146 C301.556475,146 303,147.419989 303,149.17186 L303,151.82814 C303,153.579399 301.556475,155 299.776334,155 L221.223044,155 C219.443525,155 218,153.579399 218,151.82814 L218,149.17186 C218,147.419989 219.443525,146 221.223044,146" id="Fill-406" fill="#37414F"></path>
                    <path d="M292.50897,150 L302,150 L302,149.491397 C302,148.118168 301.064613,147 299.915225,147 L290,147 C290,148.657136 291.123353,150 292.50897,150" id="Fill-407" fill="#FFFDFF"></path>
                    <path d="M219,149.491397 L219,150 L231.471206,150 C232.868057,150 234,148.657136 234,147 L221.101357,147 C219.941899,147 219,148.118168 219,149.491397" id="Fill-408" fill="#FFFDFF"></path>
                    <path d="M29.1678531,108 L191.831519,108 C194.132973,108 196,106.208901 196,104.000301 C196,101.791701 194.132973,100 191.831519,100 L29.1678531,100 C26.8663996,100 25,101.791701 25,104.000301 C25,106.208901 26.8663996,108 29.1678531,108" id="Fill-409" fill="#E0EEFF"></path>
                    <path d="M187.499688,166 C181.158843,166 176,159.719973 176,152.003097 C176,144.280646 181.158843,138 187.499688,138 C193.841157,138 199,144.280646 199,152.003097 C199,159.719973 193.841157,166 187.499688,166" id="Fill-410" fill="#99A7BE"></path>
                    <path d="M187.499662,156 C186.121401,156 185,154.657703 185,152.998016 C185,151.344942 186.121401,150 187.499662,150 C188.878599,150 190,151.344942 190,152.998016 C190,154.657703 188.878599,156 187.499662,156" id="Fill-411" fill="#D6E1F1"></path>
                    <path d="M187.000294,146 C188.104636,146 189,145.008523 189,143.786439 L189,136.212909 C189,134.990826 188.104636,134 187.000294,134 C185.895953,134 185,134.990826 185,136.212909 L185,143.786439 C185,145.008523 185.895953,146 187.000294,146" id="Fill-412" fill="#505B6E"></path>
                    <path d="M195.130422,152 C195.347905,152 195.569775,151.96317 195.788511,151.895649 L201.528292,150.072579 C202.645789,149.714717 203.258751,148.538008 202.895235,147.44171 C202.53172,146.346027 201.331493,145.746317 200.211489,146.102951 L194.471708,147.92909 C193.354211,148.284497 192.741249,149.46182 193.104765,150.557503 C193.397457,151.441416 194.231662,152 195.130422,152" id="Fill-413" fill="#505B6E"></path>
                    <path d="M195.926474,167 C196.349083,167 196.775967,166.864244 197.144834,166.579804 C198.071276,165.868704 198.277084,164.491754 197.604085,163.515607 L193.754191,157.904376 C193.07997,156.921764 191.784662,156.708434 190.855166,157.419535 C189.928724,158.130636 189.722916,159.507585 190.395915,160.490197 L194.245809,166.094963 C194.65254,166.689702 195.284621,167 195.926474,167" id="Fill-414" fill="#505B6E"></path>
                    <path d="M178.050964,167 C178.685738,167 179.310849,166.693662 179.71249,166.106515 L183.608713,160.439266 C184.273686,159.469196 184.070751,158.116204 183.154526,157.41418 C182.234073,156.712156 180.954257,156.922763 180.287472,157.892833 L176.391249,163.560082 C175.726276,164.530152 175.929211,165.883143 176.84604,166.59155 C177.210235,166.865977 177.633016,167 178.050964,167" id="Fill-415" fill="#505B6E"></path>
                    <path d="M179.869765,152 C180.76792,152 181.602771,151.441525 181.895471,150.557784 C182.258368,149.462313 181.646018,148.285219 180.528495,147.929881 L174.788577,146.104097 C173.668547,145.744464 172.467664,146.347126 172.104767,147.442596 C171.741243,148.538681 172.35422,149.715161 173.471743,150.072954 L179.211034,151.895669 C179.430402,151.963177 179.652277,152 179.869765,152" id="Fill-416" fill="#505B6E"></path>
                    <path d="M175.643172,152.004055 C175.643172,144.225625 180.962087,137.899451 187.499678,137.899451 C194.037913,137.899451 199.356185,144.225625 199.356185,152.004055 C199.356185,159.77687 194.037913,166.10242 187.499678,166.10242 C180.962087,166.10242 175.643172,159.77687 175.643172,152.004055 Z M169,151.997817 C169,164.149859 177.282881,174 187.499678,174 C197.717119,174 206,164.149859 206,151.997817 C206,139.850141 197.717119,130 187.499678,130 C177.282881,130 169,139.850141 169,151.997817 L169,151.997817 Z" id="Fill-417" fill="#232932"></path>
                    <path d="M187.999693,165.607092 C181.996167,165.607092 177.111287,159.504529 177.111287,151.996565 C177.111287,144.494222 181.996167,138.388536 187.999693,138.388536 C194.003833,138.388536 198.8881,144.494222 198.8881,151.996565 C198.8881,159.504529 194.003833,165.607092 187.999693,165.607092 Z M187.999693,137 C181.373061,137 176,143.715318 176,151.996565 C176,160.285307 181.373061,167 187.999693,167 C194.626939,167 200,160.285307 200,151.996565 C200,143.715318 194.626939,137 187.999693,137 L187.999693,137 Z" id="Fill-418" fill="#D6E1F1"></path>
                    <path d="M215,136.417644 C215,136.417644 215,156.58395 215,158.254623 C215,159.931721 207.178278,158.254623 206.618308,158.254623 C206.618308,155.350223 206.618308,156.301221 206.618308,151.938195 C206.618308,143.667722 203.197899,136.360456 198,132 L211.824498,132 L215,136.417644" id="Fill-419" fill="#BDD5F5"></path>
                    <path d="M168.534368,151.84918 L168.534368,159.69769 C168.534368,160.967301 167.470604,162 166.157501,162 L59.8424989,162 C58.5300221,162 57.4656317,160.967301 57.4656317,159.69769 L57.4656317,151.84918 C57.4656317,144.030436 54.106443,137.12229 49,133 L177,133 C171.893557,137.12229 168.534368,144.030436 168.534368,151.84918" id="Fill-420" fill="#BDD5F5"></path>
                    <path d="M13.1632188,145 L19,145 C18.7680404,147.145592 18.6409839,147.912905 18.6409839,152.951558 L18.6409839,160.72091 C18.6409839,161.977717 17.5346148,163 16.16892,163 L13.4720639,163 C11,163 11,160.72091 11,158.86276 C11,157.010624 11,148.564761 11,147.281495 C11,145.997628 13.1632188,145 13.1632188,145" id="Fill-421" fill="#BDD5F5"></path>
                    <path d="M37.5,166 C31.1589835,166 26,159.719973 26,152.003097 C26,144.280646 31.1589835,138 37.5,138 C43.8416409,138 49,144.280646 49,152.003097 C49,159.719973 43.8416409,166 37.5,166" id="Fill-422" fill="#99A7BE"></path>
                    <path d="M36.5,156 C35.1215522,156 34,154.657703 34,152.998016 C34,151.344942 35.1215522,150 36.5,150 C37.8784478,150 39,151.344942 39,152.998016 C39,154.657703 37.8784478,156 36.5,156" id="Fill-423" fill="#D6E1F1"></path>
                    <path d="M36.9997057,146 C38.1040471,146 39,145.008523 39,143.786439 L39,136.212909 C39,134.990826 38.1040471,134 36.9997057,134 C35.8959529,134 35,134.990826 35,136.212909 L35,143.786439 C35,145.008523 35.8959529,146 36.9997057,146" id="Fill-424" fill="#505B6E"></path>
                    <path d="M45.1302316,152 C45.3483461,152 45.5702212,151.96317 45.7889625,151.895649 L51.5282567,150.072579 C52.6457801,149.714717 53.2587571,148.538008 52.8952329,147.44171 C52.5323355,146.346027 51.3314523,145.746317 50.2114218,146.102951 L44.4721276,147.92909 C43.3539774,148.284497 42.7416273,149.46182 43.1045246,150.557503 C43.3972243,151.441416 44.2320763,152 45.1302316,152" id="Fill-425" fill="#505B6E"></path>
                    <path d="M45.9261143,167 C46.3493367,167 46.7762234,166.864244 47.1450926,166.579804 C48.0715406,165.868704 48.2767394,164.491754 47.604347,163.515607 L43.7544275,157.904376 C43.080203,156.921764 41.7842751,156.708434 40.8547736,157.419535 C39.9283256,158.130636 39.7231269,159.507585 40.3961299,160.490197 L44.2460495,166.094963 C44.6527827,166.689702 45.2848682,167 45.9261143,167" id="Fill-426" fill="#505B6E"></path>
                    <path d="M28.0506263,167 C28.6853904,167 29.3104912,166.693662 29.7127299,166.106515 L33.6082853,160.439266 C34.2738515,159.469196 34.0709202,158.116204 33.1541058,157.41418 C32.2336676,156.712156 30.9538719,156.922763 30.2870978,157.892833 L26.3915425,163.560082 C25.7259763,164.530152 25.9295115,165.883143 26.8457219,166.59155 C27.210515,166.865977 27.6326845,167 28.0506263,167" id="Fill-427" fill="#505B6E"></path>
                    <path d="M29.8701883,152 C30.7683267,152 31.6025361,151.441525 31.8952302,150.557784 C32.2587475,149.462313 31.6457822,148.285219 30.5289067,147.929881 L24.7890944,146.104097 C23.6684584,145.744464 22.4682247,146.347126 22.1047074,147.442596 C21.7411901,148.538681 22.3547822,149.715161 23.4716577,150.072954 L29.21147,151.895669 C29.4308338,151.963177 29.652078,152 29.8701883,152" id="Fill-428" fill="#505B6E"></path>
                    <path d="M24.6432872,152.004055 C24.6432872,144.225625 29.9622947,137.899451 36.5,137.899451 C43.0383491,137.899451 48.3567128,144.225625 48.3567128,152.004055 C48.3567128,159.77687 43.0383491,166.10242 36.5,166.10242 C29.9622947,166.10242 24.6432872,159.77687 24.6432872,152.004055 Z M18,151.997817 C18,164.149859 26.2830248,174 36.5,174 C46.717619,174 55,164.149859 55,151.997817 C55,139.850141 46.717619,130 36.5,130 C26.2830248,130 18,139.850141 18,151.997817 L18,151.997817 Z" id="Fill-429" fill="#232932"></path>
                    <path d="M37,165.607092 C30.9957068,165.607092 26.1113155,159.504529 26.1113155,151.996565 C26.1113155,144.494222 30.9957068,138.388536 37,138.388536 C43.0042932,138.388536 47.8886845,144.494222 47.8886845,151.996565 C47.8886845,159.504529 43.0042932,165.607092 37,165.607092 Z M37,137 C30.3725851,137 25,143.715318 25,151.996565 C25,160.285307 30.3725851,167 37,167 C43.6274149,167 49,160.285307 49,151.996565 C49,143.715318 43.6274149,137 37,137 L37,137 Z" id="Fill-430" fill="#D6E1F1"></path>
                    <path d="M13,134 L13,116 C15.2090959,116 17,117.495712 17,119.340687 L17,130.659313 C17,132.504288 15.2090959,134 13,134" id="Fill-431" fill="#FF636D"></path>
                    <polygon id="Fill-432" fill="#242A33" points="36 110 80 110 80 108 36 108"></polygon>
                    <path d="M180.5,108 C180.238,108 180.026,107.865275 180.026,107.699557 L180.026,99.3004428 C180.026,99.1347249 180.238,99 180.5,99 C180.761,99 180.974,99.1347249 180.974,99.3004428 L180.974,107.699557 C180.974,107.865275 180.761,108 180.5,108" id="Fill-433" fill="#BDD5F5"></path>
                    <path d="M79.5923367,161 L79,161 L79,45.4862315 C79,44.6666738 79.6648167,44 80.4814665,44 L161.971497,44 C164.591399,44 166.986989,45.464928 168.224148,47.8220961 L179.560397,72.2271194 C180.502012,74.2534569 181,76.5072404 181,78.7441065 L181,128.714566 L180.407663,128.714566 L180.407663,78.7441065 C180.407663,76.5930809 179.92842,74.426391 179.02367,72.4777486 L167.693044,48.0858834 C166.56523,45.9373641 164.370835,44.5946179 161.971497,44.5946179 L80.4814665,44.5946179 C79.9916016,44.5946179 79.5923367,44.9943716 79.5923367,45.4862315 L79.5923367,161" id="Fill-434" fill="#8EA6D4"></path>
                    <path d="M79.5,108 C79.239,108 79.026,107.865275 79.026,107.699557 L79.026,99.3004428 C79.026,99.1347249 79.239,99 79.5,99 C79.762,99 79.974,99.1347249 79.974,99.3004428 L79.974,107.699557 C79.974,107.865275 79.762,108 79.5,108" id="Fill-435" fill="#BDD5F5"></path>
                    <polygon id="Fill-436" fill="#8EA6D4" points="129.026 160 129.974 160 129.974 44 129.026 44"></polygon>
                    <path d="M129.5,108 C129.238,108 129.026,107.865275 129.026,107.699557 L129.026,99.3004428 C129.026,99.1347249 129.238,99 129.5,99 C129.761,99 129.974,99.1347249 129.974,99.3004428 L129.974,107.699557 C129.974,107.865275 129.761,108 129.5,108" id="Fill-437" fill="#BDD5F5"></path>
                    <path d="M13.0966012,158.634664 C14.4065862,158.634664 15.4683305,157.556019 15.4683305,156.229922 L15.4683305,152.397562 C15.4683305,137.290199 25.4542302,125 37.729946,125 C50.0056618,125 59.992812,137.290199 59.992812,152.397562 L59.992812,156.229922 C59.992812,157.556019 61.0551816,158.634664 62.3651666,158.634664 L162.750033,158.634664 C164.060018,158.634664 165.122387,157.556019 165.122387,156.229922 L165.122387,152.397562 C165.122387,137.290199 175.107662,125 187.383377,125 C199.659718,125 209.646869,137.290199 209.646869,152.397562 L209.646869,156.229922 C209.646869,157.556019 210.708613,158.634664 212.019223,158.634664 L215,158.634664 C215,159.929037 215.043757,163 210.201502,163 C209.957013,163 209.580588,163 209.156015,163 C207.682204,163 206.78241,161.921356 206.78241,160.595258 L206.78241,158.634664 C206.78241,156.775589 206.78241,154.71982 206.78241,152.397562 C206.78241,139.234296 198.080233,128.525263 187.383377,128.525263 C176.687147,128.525263 167.986221,139.234296 167.986221,152.397562 C167.986221,154.427951 167.986221,156.515445 167.986221,158.634664 L167.986221,160.595258 C167.986221,161.921356 166.924476,163 165.613866,163 L165.122387,163 C134.004148,163 91.9470655,163 59.992812,163 L59.5007078,163 C58.1907229,163 57.1283532,161.921356 57.1283532,160.595258 L57.1283532,158.634664 C57.1283532,156.775589 57.1283532,154.71982 57.1283532,152.397562 C57.1283532,139.234296 48.4261763,128.525263 37.729946,128.525263 C27.0337156,128.525263 18.3327893,139.234296 18.3327893,152.397562 C18.3327893,154.427951 18.3327893,156.515445 18.3327893,158.634664 L18.3327893,160.595258 C18.3327893,161.921356 17.2710449,163 15.9604347,163 L15.4683305,163 C14.2296288,163 13.5061669,163 13.3723546,163 C11,163 11,160.595258 11,158.634664 L13.0966012,158.634664" id="Fill-438" fill="#8EA6D4"></path>
                    <path d="M159.813603,148 L66.1863974,148 C65.5309707,148 65,147.552333 65,146.999736 C65,146.447139 65.5309707,146 66.1863974,146 L159.813603,146 C160.469029,146 161,146.447139 161,146.999736 C161,147.552333 160.469029,148 159.813603,148" id="Fill-439" fill="#E0EEFF"></path>
                    <polygon id="Fill-440" fill="#1A2A40" points="79.026 90 79.974 90 79.974 45 79.026 45"></polygon>
                    <path d="M184.641779,84.7951308 C185.817958,87.2263908 183.954208,90 181.144373,90 L177,90 L177,69 L184.641779,84.7951308" id="Fill-441" fill="#242A33"></path>
                    <path d="M177.350219,88 L160.293317,88 C159.026715,88 158,86.9794339 158,85.7218371 L158,79.2781629 C158,78.0192952 159.026715,77 160.293317,77 L171.026806,77 C172.293408,77 173.320123,78.0192952 173.320123,79.2781629 L173.320123,80.2212016 C173.320123,81.4800693 174.346838,82.4993645 175.61344,82.4993645 L177.350219,82.4993645 C178.261789,82.4993645 179,83.2339688 179,84.1388793 L179,86.3598498 C179,87.2653957 178.261789,88 177.350219,88" id="Fill-442" fill="#CBDDF5"></path>
                    <path d="M161.423191,83 L171.576156,83 C172.362175,83 173,82.3562203 173,81.5628624 L173,79.4358197 C173,78.6424618 172.362175,78 171.576156,78 L161.423191,78 C160.637172,78 160,78.6424618 160,79.4358197 L160,81.5628624 C160,82.3562203 160.637172,83 161.423191,83" id="Fill-443" fill="#E5F2F8"></path>
                    <path d="M278.441174,85.3333939 C275.213349,78.6061624 263.173284,53.5077938 260.218042,47.363192 C259.817867,46.5311299 258.953075,46 258,46 L260.444873,46 C261.397304,46 262.26274,46.5311299 262.662915,47.363192 C265.617513,53.5077938 277.658222,78.6061624 280.886047,85.3333939 C281.260446,86.1139562 280.666305,87 279.774448,87 L277.329575,87 C278.221432,87 278.815573,86.1139562 278.441174,85.3333939" id="Fill-445" fill="#1A2A40"></path>
                    <path d="M136,103.5 C136,104.87981 138.014868,106 140.5,106 C142.985132,106 145,104.87981 145,103.5 C145,102.118872 142.985132,101 140.5,101 C138.014868,101 136,102.118872 136,103.5" id="Fill-446" fill="#8EA6D4"></path>
                    <path d="M146.390201,104 L135.609799,104 C135.273092,104 135,103.775962 135,103.500264 C135,103.224038 135.273092,103 135.609799,103 L146.390201,103 C146.726908,103 147,103.224038 147,103.500264 C147,103.775962 146.726908,104 146.390201,104" id="Fill-447" fill="#E5F2F8"></path>
                    <path d="M115,103.5 C115,104.87981 117.014724,106 119.500322,106 C121.985276,106 124,104.87981 124,103.5 C124,102.118872 121.985276,101 119.500322,101 C117.014724,101 115,102.118872 115,103.5" id="Fill-448" fill="#8EA6D4"></path>
                    <path d="M124.390843,104 L113.609157,104 C113.27245,104 113,103.775962 113,103.500264 C113,103.224038 113.27245,103 113.609157,103 L124.390843,103 C124.72755,103 125,103.224038 125,103.500264 C125,103.775962 124.72755,104 124.390843,104" id="Fill-449" fill="#E5F2F8"></path>
                </g>
            </g>
        </g>
    </g>
</svg>