<?xml version="1.0" encoding="UTF-8"?>
<svg width="178px" height="137px" viewBox="0 0 178 137" version="1.1" xmlns="http://www.w3.org/2000/svg" xmlns:xlink="http://www.w3.org/1999/xlink">
    <title>illust_low_product3</title>
    <g id="Page-1" stroke="none" stroke-width="1" fill="none" fill-rule="evenodd" stroke-linecap="round">
        <g id="Desktop-HD-Copy-3" transform="translate(-1339.000000, -2552.000000)" stroke="#7474FF" stroke-width="4.715">
            <g id="illust_low_product3" transform="translate(1341.550500, 2554.389300)">
                <g id="Group-24" transform="translate(0.000000, 53.259200)">
                    <polygon id="Stroke-1" points="10.1213 67.977 38.4133 67.977 38.4133 52.259 10.1213 52.259"></polygon>
                    <polygon id="Stroke-2" points="72.3033 67.977 100.5953 67.977 100.5953 52.259 72.3033 52.259"></polygon>
                    <polygon id="Stroke-3" points="134.4853 67.977 162.7773 67.977 162.7773 52.259 134.4853 52.259"></polygon>
                    <polygon id="Stroke-4" points="10.1213 41.847 38.4133 41.847 38.4133 26.129 10.1213 26.129"></polygon>
                    <polygon id="Stroke-5" points="72.3033 41.847 100.5953 41.847 100.5953 26.129 72.3033 26.129"></polygon>
                    <polygon id="Stroke-6" points="134.4853 41.847 162.7773 41.847 162.7773 26.129 134.4853 26.129"></polygon>
                    <g id="Group-13" transform="translate(0.000000, 25.629100)">
                        <line x1="5.77315973e-15" y1="26.6296" x2="172.899" y2="26.6296" id="Stroke-7"></line>
                        <line x1="5.77315973e-15" y1="52.7592" x2="172.899" y2="52.7592" id="Stroke-9"></line>
                        <line x1="5.77315973e-15" y1="0.5" x2="172.899" y2="0.5" id="Stroke-11"></line>
                    </g>
                    <polygon id="Stroke-14" points="10.1213 15.718 38.4133 15.718 38.4133 -7.10542736e-15 10.1213 -7.10542736e-15"></polygon>
                    <polygon id="Stroke-15" points="72.3033 15.718 100.5953 15.718 100.5953 -7.10542736e-15 72.3033 -7.10542736e-15"></polygon>
                    <polygon id="Stroke-16" points="134.4853 15.718 162.7773 15.718 162.7773 -7.10542736e-15 134.4853 -7.10542736e-15"></polygon>
                </g>
                <g id="Group-24-Copy" transform="translate(0.000000, -0.000000)">
                    <polygon id="Stroke-1" points="10.1213 42.3479 38.4133 42.3479 38.4133 26.6299 10.1213 26.6299"></polygon>
                    <polygon id="Stroke-2" points="72.3033 42.3479 100.5953 42.3479 100.5953 26.6299 72.3033 26.6299"></polygon>
                    <polygon id="Stroke-3" points="134.4853 42.3479 162.7773 42.3479 162.7773 26.6299 134.4853 26.6299"></polygon>
                    <polygon id="Stroke-4" points="10.1213 16.2179 38.4133 16.2179 38.4133 0.4999 10.1213 0.4999"></polygon>
                    <polygon id="Stroke-5" points="72.3033 16.2179 100.5953 16.2179 100.5953 0.4999 72.3033 0.4999"></polygon>
                    <polygon id="Stroke-6" points="134.4853 16.2179 162.7773 16.2179 162.7773 0.4999 134.4853 0.4999"></polygon>
                    <g id="Group-13">
                        <line x1="5.77315973e-15" y1="26.6296" x2="172.899" y2="26.6296" id="Stroke-7"></line>
                        <line x1="5.77315973e-15" y1="52.7592" x2="172.899" y2="52.7592" id="Stroke-9"></line>
                        <line x1="5.77315973e-15" y1="0.5" x2="172.899" y2="0.5" id="Stroke-11"></line>
                    </g>
                </g>
            </g>
        </g>
    </g>
</svg>