<?xml version="1.0" encoding="UTF-8"?>
<svg width="220px" height="159px" viewBox="0 0 220 159" version="1.1" xmlns="http://www.w3.org/2000/svg" xmlns:xlink="http://www.w3.org/1999/xlink">
    <title>illust_low_product1</title>
    <defs>
        <polygon id="path-1" points="0 0 11.676 0 11.676 11.6755 0 11.6755"></polygon>
        <polygon id="path-3" points="-1.42108547e-14 0 11.676 0 11.676 11.6755 -1.42108547e-14 11.6755"></polygon>
        <polygon id="path-5" points="0 0 11.676 0 11.676 11.6755 0 11.6755"></polygon>
        <polygon id="path-7" points="0 0 11.676 0 11.676 11.6755 0 11.6755"></polygon>
    </defs>
    <g id="Page-1" stroke="none" stroke-width="1" fill="none" fill-rule="evenodd">
        <g id="Desktop-HD-Copy-3" transform="translate(-790.000000, -2530.000000)">
            <g id="illust_low_product1" transform="translate(792.426550, 2530.000000)">
                <path d="M145.3586,118.814 L166.6776,118.814 C172.6256,118.814 178.0016,115.272 180.3486,109.807 L199.4286,65.373 L66.4536,65.373 L66.4536,118.814" id="Stroke-1" stroke="#7474FF" stroke-width="4.715" stroke-linecap="round"></path>
                <path d="M133.8844,128.2448 C133.8844,143.8708 121.2174,156.5368 105.5924,156.5368 C89.9664,156.5368 77.2994,143.8708 77.2994,128.2448 C77.2994,112.6188 89.9664,99.9528 105.5924,99.9528 C121.2174,99.9528 133.8844,112.6188 133.8844,128.2448 Z" id="Stroke-3" stroke="#7474FF" stroke-width="4.715" stroke-linecap="round"></path>
                <path d="M133.8844,128.2448 C133.8844,143.8708 121.2174,156.5368 105.5924,156.5368 C89.9664,156.5368 77.2994,143.8708 77.2994,128.2448 C77.2994,112.6188 89.9664,99.9528 105.5924,99.9528 C121.2174,99.9528 133.8844,112.6188 133.8844,128.2448 Z" id="Stroke-5" stroke="#7474FF" stroke-width="4.715" stroke-linecap="round"></path>
                <path d="M115.8086,128.2448 C115.8086,133.8878 111.2346,138.4618 105.5916,138.4618 C99.9496,138.4618 95.3756,133.8878 95.3756,128.2448 C95.3756,122.6018 99.9496,118.0278 105.5916,118.0278 C111.2346,118.0278 115.8086,122.6018 115.8086,128.2448 Z" id="Stroke-7" stroke="#7474FF" stroke-width="4.715" stroke-linecap="round"></path>
                <path d="M46.656,50.3039 L14.084,50.3039 C12.748,50.3039 11.664,49.2199 11.664,47.8839 L11.664,43.8729 C11.664,40.6519 9.053,38.0409 5.832,38.0409 L5.832,38.0409 C2.611,38.0409 0,40.6519 0,43.8729 L0,49.8469 C0,56.1549 5.113,61.2679 11.421,61.2679 L46.656,61.2679" id="Stroke-9" stroke="#7474FF" stroke-width="4.715" stroke-linecap="round"></path>
                <path d="M76.7498,35.0288 C76.7498,31.8048 74.1358,29.1908 70.9118,29.1908 C67.6878,29.1908 65.0738,31.8048 65.0738,35.0288 C65.0738,38.2528 67.6878,40.8668 70.9118,40.8668 C74.1358,40.8668 76.7498,38.2528 76.7498,35.0288" id="Fill-11" fill="#7474FF"></path>
                <path d="M91.3375,35.0288 C91.3375,31.8048 88.7235,29.1908 85.4995,29.1908 C82.2755,29.1908 79.6615,31.8048 79.6615,35.0288 C79.6615,38.2528 82.2755,40.8668 85.4995,40.8668 C88.7235,40.8668 91.3375,38.2528 91.3375,35.0288" id="Fill-13" fill="#7474FF"></path>
                <path d="M105.9251,35.0288 C105.9251,31.8048 103.3111,29.1908 100.0871,29.1908 C96.8631,29.1908 94.2491,31.8048 94.2491,35.0288 C94.2491,38.2528 96.8631,40.8668 100.0871,40.8668 C103.3111,40.8668 105.9251,38.2528 105.9251,35.0288" id="Fill-15" fill="#7474FF"></path>
                <path d="M120.5128,35.0288 C120.5128,31.8048 117.8988,29.1908 114.6748,29.1908 C111.4508,29.1908 108.8368,31.8048 108.8368,35.0288 C108.8368,38.2528 111.4508,40.8668 114.6748,40.8668 C117.8988,40.8668 120.5128,38.2528 120.5128,35.0288" id="Fill-17" fill="#7474FF"></path>
                <path d="M135.1005,35.0288 C135.1005,31.8048 132.4865,29.1908 129.2625,29.1908 C126.0385,29.1908 123.4245,31.8048 123.4245,35.0288 C123.4245,38.2528 126.0385,40.8668 129.2625,40.8668 C132.4865,40.8668 135.1005,38.2528 135.1005,35.0288" id="Fill-19" fill="#7474FF"></path>
                <path d="M149.6881,35.0288 C149.6881,31.8048 147.0741,29.1908 143.8501,29.1908 C140.6261,29.1908 138.0121,31.8048 138.0121,35.0288 C138.0121,38.2528 140.6261,40.8668 143.8501,40.8668 C147.0741,40.8668 149.6881,38.2528 149.6881,35.0288" id="Fill-21" fill="#7474FF"></path>
                <path d="M164.2758,35.0288 C164.2758,31.8048 161.6618,29.1908 158.4378,29.1908 C155.2138,29.1908 152.5998,31.8048 152.5998,35.0288 C152.5998,38.2528 155.2138,40.8668 158.4378,40.8668 C161.6618,40.8668 164.2758,38.2528 164.2758,35.0288" id="Fill-23" fill="#7474FF"></path>
                <path d="M178.8635,35.0288 C178.8635,31.8048 176.2495,29.1908 173.0255,29.1908 C169.8015,29.1908 167.1875,31.8048 167.1875,35.0288 C167.1875,38.2528 169.8015,40.8668 173.0255,40.8668 C176.2495,40.8668 178.8635,38.2528 178.8635,35.0288" id="Fill-25" fill="#7474FF"></path>
                <path d="M193.4511,35.0288 C193.4511,31.8048 190.8371,29.1908 187.6131,29.1908 C184.3891,29.1908 181.7751,31.8048 181.7751,35.0288 C181.7751,38.2528 184.3891,40.8668 187.6131,40.8668 C190.8371,40.8668 193.4511,38.2528 193.4511,35.0288" id="Fill-27" fill="#7474FF"></path>
                <path d="M208.0388,35.0288 C208.0388,31.8048 205.4248,29.1908 202.2008,29.1908 C198.9768,29.1908 196.3628,31.8048 196.3628,35.0288 C196.3628,38.2528 198.9768,40.8668 202.2008,40.8668 C205.4248,40.8668 208.0388,38.2528 208.0388,35.0288" id="Fill-29" fill="#7474FF"></path>
                <path d="M91.3375,20.4332 C91.3375,17.2092 88.7235,14.5952 85.4995,14.5952 C82.2755,14.5952 79.6615,17.2092 79.6615,20.4332 C79.6615,23.6572 82.2755,26.2712 85.4995,26.2712 C88.7235,26.2712 91.3375,23.6572 91.3375,20.4332" id="Fill-31" fill="#7474FF"></path>
                <path d="M105.9251,20.4332 C105.9251,17.2092 103.3111,14.5952 100.0871,14.5952 C96.8631,14.5952 94.2491,17.2092 94.2491,20.4332 C94.2491,23.6572 96.8631,26.2712 100.0871,26.2712 C103.3111,26.2712 105.9251,23.6572 105.9251,20.4332" id="Fill-33" fill="#7474FF"></path>
                <path d="M120.5128,20.4332 C120.5128,17.2092 117.8988,14.5952 114.6748,14.5952 C111.4508,14.5952 108.8368,17.2092 108.8368,20.4332 C108.8368,23.6572 111.4508,26.2712 114.6748,26.2712 C117.8988,26.2712 120.5128,23.6572 120.5128,20.4332" id="Fill-35" fill="#7474FF"></path>
                <path d="M135.1005,20.4332 C135.1005,17.2092 132.4865,14.5952 129.2625,14.5952 C126.0385,14.5952 123.4245,17.2092 123.4245,20.4332 C123.4245,23.6572 126.0385,26.2712 129.2625,26.2712 C132.4865,26.2712 135.1005,23.6572 135.1005,20.4332" id="Fill-37" fill="#7474FF"></path>
                <path d="M149.6881,20.4332 C149.6881,17.2092 147.0741,14.5952 143.8501,14.5952 C140.6261,14.5952 138.0121,17.2092 138.0121,20.4332 C138.0121,23.6572 140.6261,26.2712 143.8501,26.2712 C147.0741,26.2712 149.6881,23.6572 149.6881,20.4332" id="Fill-39" fill="#7474FF"></path>
                <path d="M164.2758,20.4332 C164.2758,17.2092 161.6618,14.5952 158.4378,14.5952 C155.2138,14.5952 152.5998,17.2092 152.5998,20.4332 C152.5998,23.6572 155.2138,26.2712 158.4378,26.2712 C161.6618,26.2712 164.2758,23.6572 164.2758,20.4332" id="Fill-41" fill="#7474FF"></path>
                <path d="M178.8635,20.4332 C178.8635,17.2092 176.2495,14.5952 173.0255,14.5952 C169.8015,14.5952 167.1875,17.2092 167.1875,20.4332 C167.1875,23.6572 169.8015,26.2712 173.0255,26.2712 C176.2495,26.2712 178.8635,23.6572 178.8635,20.4332" id="Fill-43" fill="#7474FF"></path>
                <path d="M193.4511,20.4332 C193.4511,17.2092 190.8371,14.5952 187.6131,14.5952 C184.3891,14.5952 181.7751,17.2092 181.7751,20.4332 C181.7751,23.6572 184.3891,26.2712 187.6131,26.2712 C190.8371,26.2712 193.4511,23.6572 193.4511,20.4332" id="Fill-45" fill="#7474FF"></path>
                <g id="Group-49" transform="translate(94.249100, 0.000000)">
                    <mask id="mask-2" fill="white">
                        <use xlink:href="#path-1"></use>
                    </mask>
                    <g id="Clip-48"></g>
                    <path d="M11.676,5.8375 C11.676,2.6135 9.062,-0.0005 5.838,-0.0005 C2.614,-0.0005 0,2.6135 0,5.8375 C0,9.0615 2.614,11.6755 5.838,11.6755 C9.062,11.6755 11.676,9.0615 11.676,5.8375" id="Fill-47" fill="#7474FF" mask="url(#mask-2)"></path>
                </g>
                <g id="Group-52" transform="translate(108.836800, 0.000000)">
                    <mask id="mask-4" fill="white">
                        <use xlink:href="#path-3"></use>
                    </mask>
                    <g id="Clip-51"></g>
                    <path d="M11.676,5.8375 C11.676,2.6135 9.062,-0.0005 5.838,-0.0005 C2.614,-0.0005 -1.42108547e-14,2.6135 -1.42108547e-14,5.8375 C-1.42108547e-14,9.0615 2.614,11.6755 5.838,11.6755 C9.062,11.6755 11.676,9.0615 11.676,5.8375" id="Fill-50" fill="#7474FF" mask="url(#mask-4)"></path>
                </g>
                <g id="Group-55" transform="translate(138.012100, 0.000000)">
                    <mask id="mask-6" fill="white">
                        <use xlink:href="#path-5"></use>
                    </mask>
                    <g id="Clip-54"></g>
                    <path d="M11.676,5.8375 C11.676,2.6135 9.062,-0.0005 5.838,-0.0005 C2.614,-0.0005 0,2.6135 0,5.8375 C0,9.0615 2.614,11.6755 5.838,11.6755 C9.062,11.6755 11.676,9.0615 11.676,5.8375" id="Fill-53" fill="#7474FF" mask="url(#mask-6)"></path>
                </g>
                <g id="Group-58" transform="translate(152.599800, 0.000000)">
                    <mask id="mask-8" fill="white">
                        <use xlink:href="#path-7"></use>
                    </mask>
                    <g id="Clip-57"></g>
                    <path d="M11.676,5.8375 C11.676,2.6135 9.062,-0.0005 5.838,-0.0005 C2.614,-0.0005 0,2.6135 0,5.8375 C0,9.0615 2.614,11.6755 5.838,11.6755 C9.062,11.6755 11.676,9.0615 11.676,5.8375" id="Fill-56" fill="#7474FF" mask="url(#mask-8)"></path>
                </g>
                <path d="M213.2739,65.3726 L59.8389,65.3726 C58.8049,65.3726 57.9659,64.5336 57.9659,63.4996 L57.9659,51.5276 C57.9659,50.4926 58.8049,49.6546 59.8389,49.6546 L213.2739,49.6546 C214.3079,49.6546 215.1469,50.4926 215.1469,51.5276 L215.1469,63.4996 C215.1469,64.5336 214.3079,65.3726 213.2739,65.3726 Z" id="Stroke-59" stroke="#7474FF" stroke-width="4.715" stroke-linecap="round"></path>
            </g>
        </g>
    </g>
</svg>