<?xml version="1.0" encoding="UTF-8"?>
<svg width="178px" height="152px" viewBox="0 0 178 152" version="1.1" xmlns="http://www.w3.org/2000/svg" xmlns:xlink="http://www.w3.org/1999/xlink">
    <title>illust_low_product2</title>
    <g id="Page-1" stroke="none" stroke-width="1" fill="none" fill-rule="evenodd" stroke-linecap="round">
        <g id="Desktop-HD-Copy-3" transform="translate(-1075.000000, -2537.000000)" stroke="#7474FF" stroke-width="4.715">
            <g id="illust_low_product2" transform="translate(1077.550500, 2540.146500)">
                <polygon id="Stroke-1" points="0 138.688 172.899 138.688 172.899 122.97 0 122.97"></polygon>
                <polygon id="Stroke-3" points="0 110.396 172.899 110.396 172.899 94.678 0 94.678"></polygon>
                <polyline id="Stroke-4" stroke-linejoin="round" points="53.2537 146.3903 53.2537 95.8733 86.4497 62.6763 119.6467 95.8733 119.6467 146.3903"></polyline>
                <path d="M73.8755,50.1022 C73.8755,57.0472 79.5055,62.6762 86.4495,62.6762 C93.3945,62.6762 99.0245,57.0472 99.0245,50.1022 C99.0245,43.1572 93.3945,37.5282 86.4495,37.5282 L86.4495,22.0052" id="Stroke-5"></path>
                <path d="M95.8808,22.005 L77.0188,22.005 C71.8108,22.005 67.5888,17.783 67.5888,12.574 L67.5888,0 L105.3118,0 L105.3118,12.574 C105.3118,17.783 101.0888,22.005 95.8808,22.005 Z" id="Stroke-6"></path>
            </g>
        </g>
    </g>
</svg>