<?xml version="1.0" encoding="UTF-8"?>
<svg width="186px" height="228px" viewBox="0 0 186 228" version="1.1" xmlns="http://www.w3.org/2000/svg" xmlns:xlink="http://www.w3.org/1999/xlink">
    <title>illust_high_product2</title>
    <defs>
        <path d="M7.10542736e-15,40.909 C7.10542736e-15,63.502 18.315,81.817 40.909,81.817 L40.909,81.817 C54.667,81.817 66.84,75.025 74.255,64.611 L74.255,64.611 C72.708,62.923 71.763,60.675 71.763,58.206 L71.763,58.206 L71.763,29.158 C71.763,25.612 73.711,22.523 76.594,20.897 L76.594,20.897 C69.585,8.427 56.232,0 40.909,0 L40.909,0 C18.315,0 7.10542736e-15,18.315 7.10542736e-15,40.909 M11.778,40.909 C11.778,24.821 24.82,11.778 40.909,11.778 L40.909,11.778 C56.996,11.778 70.038,24.82 70.038,40.909 L70.038,40.909 C70.038,56.997 56.996,70.039 40.909,70.039 L40.909,70.039 C24.82,70.039 11.778,56.997 11.778,40.909" id="path-1"></path>
        <path d="M7.10542736e-15,40.909 C7.10542736e-15,63.502 18.315,81.817 40.909,81.817 L40.909,81.817 C54.667,81.817 66.84,75.025 74.255,64.611 L74.255,64.611 C72.708,62.923 71.763,60.675 71.763,58.206 L71.763,58.206 L71.763,29.158 C71.763,25.612 73.711,22.523 76.594,20.897 L76.594,20.897 C69.585,8.427 56.232,0 40.909,0 L40.909,0 C18.315,0 7.10542736e-15,18.315 7.10542736e-15,40.909 M11.778,40.909 C11.778,24.821 24.82,11.778 40.909,11.778 L40.909,11.778 C56.996,11.778 70.038,24.82 70.038,40.909 L70.038,40.909 C70.038,56.997 56.996,70.039 40.909,70.039 L40.909,70.039 C24.82,70.039 11.778,56.997 11.778,40.909" id="path-3"></path>
        <path d="M7.10542736e-15,40.909 C7.10542736e-15,63.502 18.315,81.817 40.909,81.817 L40.909,81.817 C54.667,81.817 66.84,75.025 74.255,64.611 L74.255,64.611 C72.708,62.923 71.763,60.675 71.763,58.206 L71.763,58.206 L71.763,29.158 C71.763,25.612 73.711,22.523 76.594,20.897 L76.594,20.897 C69.585,8.427 56.232,0 40.909,0 L40.909,0 C18.315,0 7.10542736e-15,18.315 7.10542736e-15,40.909 M11.778,40.909 C11.778,24.821 24.82,11.778 40.909,11.778 L40.909,11.778 C56.996,11.778 70.038,24.82 70.038,40.909 L70.038,40.909 C70.038,56.997 56.996,70.039 40.909,70.039 L40.909,70.039 C24.82,70.039 11.778,56.997 11.778,40.909" id="path-5"></path>
        <path d="M7.10542736e-15,40.909 C7.10542736e-15,63.502 18.315,81.817 40.909,81.817 L40.909,81.817 C54.667,81.817 66.84,75.025 74.255,64.611 L74.255,64.611 C72.708,62.923 71.763,60.675 71.763,58.206 L71.763,58.206 L71.763,29.158 C71.763,25.612 73.711,22.523 76.594,20.897 L76.594,20.897 C69.585,8.427 56.232,0 40.909,0 L40.909,0 C18.315,0 7.10542736e-15,18.315 7.10542736e-15,40.909 M11.778,40.909 C11.778,24.821 24.82,11.778 40.909,11.778 L40.909,11.778 C56.996,11.778 70.038,24.82 70.038,40.909 L70.038,40.909 C70.038,56.997 56.996,70.039 40.909,70.039 L40.909,70.039 C24.82,70.039 11.778,56.997 11.778,40.909" id="path-7"></path>
        <path d="M7.10542736e-15,40.909 C7.10542736e-15,63.502 18.315,81.817 40.909,81.817 L40.909,81.817 C54.667,81.817 66.84,75.025 74.255,64.611 L74.255,64.611 C72.708,62.923 71.763,60.675 71.763,58.206 L71.763,58.206 L71.763,29.158 C71.763,25.612 73.711,22.523 76.594,20.897 L76.594,20.897 C69.585,8.427 56.232,0 40.909,0 L40.909,0 C18.315,0 7.10542736e-15,18.315 7.10542736e-15,40.909 M11.778,40.909 C11.778,24.821 24.82,11.778 40.909,11.778 L40.909,11.778 C56.996,11.778 70.038,24.82 70.038,40.909 L70.038,40.909 C70.038,56.997 56.996,70.039 40.909,70.039 L40.909,70.039 C24.82,70.039 11.778,56.997 11.778,40.909" id="path-9"></path>
        <path d="M7.10542736e-15,40.909 C7.10542736e-15,63.502 18.315,81.817 40.909,81.817 L40.909,81.817 C54.667,81.817 66.84,75.025 74.255,64.611 L74.255,64.611 C72.708,62.923 71.763,60.675 71.763,58.206 L71.763,58.206 L71.763,29.158 C71.763,25.612 73.711,22.523 76.594,20.897 L76.594,20.897 C69.585,8.427 56.232,0 40.909,0 L40.909,0 C18.315,0 7.10542736e-15,18.315 7.10542736e-15,40.909 M11.778,40.909 C11.778,24.821 24.82,11.778 40.909,11.778 L40.909,11.778 C56.996,11.778 70.038,24.82 70.038,40.909 L70.038,40.909 C70.038,56.997 56.996,70.039 40.909,70.039 L40.909,70.039 C24.82,70.039 11.778,56.997 11.778,40.909" id="path-11"></path>
        <polygon id="path-13" points="0 0 35.3549 0 35.3549 35.356 0 35.356"></polygon>
        <polygon id="path-15" points="0 0 35.355 0 35.355 35.3554 0 35.3554"></polygon>
    </defs>
    <g id="Page-1" stroke="none" stroke-width="1" fill="none" fill-rule="evenodd">
        <g id="Desktop-HD-Copy-3" transform="translate(-1327.000000, -4094.000000)">
            <g id="illust_high_product2" transform="translate(1330.592700, 4094.926790)">
                <g id="Group-31" transform="translate(0.000000, 10.103400)" stroke="#3CDC87" stroke-linecap="round" stroke-width="5.303">
                    <path d="M85.5597,99.8643 C69.4717,99.8643 56.4297,112.9063 56.4297,128.9943 C56.4297,145.0823 69.4717,158.1243 85.5597,158.1243 C101.6477,158.1243 114.6897,145.0823 114.6897,128.9943 C114.6897,112.9063 101.6477,99.8643 85.5597,99.8643 Z" id="Stroke-1"></path>
                    <path d="M166.787,213.9 L4.332,213.9 C1.94,213.9 0,211.96 0,209.567 L0,4.333 C0,1.94 1.94,0 4.332,0 L166.787,0 C169.18,0 171.12,1.94 171.12,4.333 L171.12,209.567 C171.12,211.96 169.18,213.9 166.787,213.9 Z" id="Stroke-3"></path>
                    <line x1="153.2696" y1="46.9673" x2="17.8496" y2="46.9673" id="Stroke-5"></line>
                    <line x1="58.7204" y1="46.9673" x2="58.7204" y2="0.0003" id="Stroke-7"></line>
                    <path d="M97.227,23.4839 C97.227,29.9279 92.003,35.1509 85.56,35.1509 C79.116,35.1509 73.893,29.9279 73.893,23.4839 C73.893,17.0399 79.116,11.8169 85.56,11.8169 C92.003,11.8169 97.227,17.0399 97.227,23.4839 Z" id="Stroke-9"></path>
                    <line x1="141.6024" y1="12.5944" x2="153.2694" y2="12.5944" id="Stroke-11"></line>
                    <line x1="141.6024" y1="23.4839" x2="153.2694" y2="23.4839" id="Stroke-13"></line>
                    <line x1="141.6024" y1="34.3733" x2="153.2694" y2="34.3733" id="Stroke-15"></line>
                    <line x1="117.0918" y1="12.5944" x2="128.7588" y2="12.5944" id="Stroke-17"></line>
                    <line x1="117.0918" y1="23.4839" x2="128.7588" y2="23.4839" id="Stroke-19"></line>
                    <line x1="117.0918" y1="34.3733" x2="128.7588" y2="34.3733" id="Stroke-21"></line>
                    <path d="M143.896,128.9943 C143.896,161.2123 117.778,187.3303 85.56,187.3303 C53.342,187.3303 27.224,161.2123 27.224,128.9943 C27.224,96.7763 53.342,70.6583 85.56,70.6583 C117.778,70.6583 143.896,96.7763 143.896,128.9943 Z" id="Stroke-23"></path>
                    <path d="M116.8198,155.5902 C109.3168,164.3512 98.1748,169.9032 85.7348,169.9032 C63.1418,169.9032 44.8268,151.5872 44.8268,128.9942 C44.8268,106.4012 63.1418,88.0852 85.7348,88.0852 C100.0548,88.0852 112.6558,95.4432 119.9648,106.5842" id="Stroke-25"></path>
                    <path d="M125.8945,155.7717 L125.8945,155.7717 C120.6585,155.7717 116.4145,151.5267 116.4145,146.2917 L116.4145,117.2437 C116.4145,112.0077 120.6585,107.7627 125.8945,107.7627 L125.8945,107.7627" id="Stroke-27"></path>
                    <path d="M85.5598,158.1244 C69.4718,158.1244 56.4298,145.0824 56.4298,128.9944 C56.4298,112.9064 69.4718,99.8644 85.5598,99.8644 C101.6478,99.8644 114.6898,112.9064 114.6898,128.9944 C114.6898,145.0824 101.6478,158.1244 85.5598,158.1244 Z" id="Stroke-29"></path>
                </g>
                <g id="Group-50" transform="translate(44.651300, 98.189000)">
                    <g id="Group-34">
                        <mask id="mask-2" fill="white">
                            <use xlink:href="#path-1"></use>
                        </mask>
                        <g id="Clip-33"></g>
                        <line x1="-7.9299" y1="40.9087" x2="89.7471" y2="40.9087" id="Stroke-32" stroke="#3CDC87" stroke-width="5.303" stroke-linecap="round" mask="url(#mask-2)"></line>
                    </g>
                    <g id="Group-37">
                        <mask id="mask-4" fill="white">
                            <use xlink:href="#path-3"></use>
                        </mask>
                        <g id="Clip-36"></g>
                        <line x1="-1.3868" y1="65.3279" x2="83.2042" y2="16.4899" id="Stroke-35" stroke="#3CDC87" stroke-width="5.303" stroke-linecap="round" mask="url(#mask-4)"></line>
                    </g>
                    <g id="Group-40">
                        <mask id="mask-6" fill="white">
                            <use xlink:href="#path-5"></use>
                        </mask>
                        <g id="Clip-39"></g>
                        <line x1="16.4893" y1="83.204" x2="65.3273" y2="-1.387" id="Stroke-38" stroke="#3CDC87" stroke-width="5.303" stroke-linecap="round" mask="url(#mask-6)"></line>
                    </g>
                    <g id="Group-43">
                        <mask id="mask-8" fill="white">
                            <use xlink:href="#path-7"></use>
                        </mask>
                        <g id="Clip-42"></g>
                        <line x1="40.9085" y1="89.7471" x2="40.9085" y2="-7.9299" id="Stroke-41" stroke="#3CDC87" stroke-width="5.303" stroke-linecap="round" mask="url(#mask-8)"></line>
                    </g>
                    <g id="Group-46">
                        <mask id="mask-10" fill="white">
                            <use xlink:href="#path-9"></use>
                        </mask>
                        <g id="Clip-45"></g>
                        <line x1="65.3276" y1="83.204" x2="16.4896" y2="-1.387" id="Stroke-44" stroke="#3CDC87" stroke-width="5.303" stroke-linecap="round" mask="url(#mask-10)"></line>
                    </g>
                    <g id="Group-49">
                        <mask id="mask-12" fill="white">
                            <use xlink:href="#path-11"></use>
                        </mask>
                        <g id="Clip-48"></g>
                        <line x1="83.2037" y1="65.3279" x2="-1.3873" y2="16.4899" id="Stroke-47" stroke="#3CDC87" stroke-width="5.303" stroke-linecap="round" mask="url(#mask-12)"></line>
                    </g>
                </g>
                <g id="Group-55" transform="translate(35.565500, 98.188800)">
                    <path d="M49.9943,70.039 C33.9063,70.039 20.8643,56.997 20.8643,40.909 C20.8643,24.821 33.9063,11.779 49.9943,11.779 C66.0823,11.779 79.1243,24.821 79.1243,40.909 C79.1243,56.997 66.0823,70.039 49.9943,70.039 Z M80.8483,29.158 C80.8483,25.612 82.7963,22.523 85.6793,20.897 C78.6703,8.427 65.3173,0 49.9943,0 C27.4013,0 9.0853,18.316 9.0853,40.909 C9.0853,63.502 27.4013,81.818 49.9943,81.818 C63.7533,81.818 75.9253,75.025 83.3403,64.611 C81.7933,62.924 80.8483,60.676 80.8483,58.206 L80.8483,29.158 Z" id="Stroke-51" stroke="#3CDC87" stroke-width="5.303" stroke-linecap="round"></path>
                    <path d="M35.355,31.5566 C35.355,41.3196 27.44,49.2346 17.677,49.2346 C7.914,49.2346 0,41.3196 0,31.5566 C0,21.7936 7.914,13.8786 17.677,13.8786 C27.44,13.8786 35.355,21.7936 35.355,31.5566" id="Fill-53" fill="#519EFF"></path>
                </g>
                <text id="A" font-family="Montserrat-Bold, Montserrat" font-size="21.2132" font-weight="bold" fill="#FFFFFF">
                    <tspan x="44.7546" y="135.43461">A</tspan>
                </text>
                <g id="Group-58" transform="translate(146.552400, 63.083500)">
                    <mask id="mask-14" fill="white">
                        <use xlink:href="#path-13"></use>
                    </mask>
                    <g id="Clip-57"></g>
                    <path d="M35.355,17.678 C35.355,27.441 27.44,35.356 17.677,35.356 C7.914,35.356 0,27.441 0,17.678 C0,7.915 7.914,0 17.677,0 C27.44,0 35.355,7.915 35.355,17.678" id="Fill-56" fill="#519EFF" mask="url(#mask-14)"></path>
                </g>
                <text id="C" font-family="Montserrat-Bold, Montserrat" font-size="21.2132" font-weight="bold" fill="#FFFFFF">
                    <tspan x="155.7419" y="87.1582098">C</tspan>
                </text>
                <path d="M159.28,141.8708 C159.28,151.6338 151.365,159.5488 141.602,159.5488 C131.839,159.5488 123.925,151.6338 123.925,141.8708 C123.925,132.1078 131.839,124.1928 141.602,124.1928 C151.365,124.1928 159.28,132.1078 159.28,141.8708" id="Fill-59" fill="#519EFF"></path>
                <text id="D" font-family="Montserrat-Bold, Montserrat" font-size="21.2132" font-weight="bold" fill="#FFFFFF">
                    <tspan x="133.195" y="148.26761">D</tspan>
                </text>
                <g id="Group-63" transform="translate(11.682800, 0.000000)">
                    <mask id="mask-16" fill="white">
                        <use xlink:href="#path-15"></use>
                    </mask>
                    <g id="Clip-62"></g>
                    <path d="M35.355,17.6774 C35.355,27.4404 27.44,35.3554 17.677,35.3554 C7.914,35.3554 0,27.4404 0,17.6774 C0,7.9144 7.914,-0.0006 17.677,-0.0006 C27.44,-0.0006 35.355,7.9144 35.355,17.6774" id="Fill-61" fill="#519EFF" mask="url(#mask-16)"></path>
                </g>
                <text id="B" font-family="Montserrat-Bold, Montserrat" font-size="21.2132" font-weight="bold" fill="#FFFFFF">
                    <tspan x="21.5866" y="24.0732098">B</tspan>
                </text>
            </g>
        </g>
    </g>
</svg>