<?xml version="1.0" encoding="UTF-8"?>
<svg width="395px" height="196px" viewBox="0 0 395 196" version="1.1" xmlns="http://www.w3.org/2000/svg" xmlns:xlink="http://www.w3.org/1999/xlink">
    <title>illust_high_product1</title>
    <defs>
        <polygon id="path-1" points="1.42108547e-14 -2.84217094e-14 35.355 -2.84217094e-14 35.355 35.3552 1.42108547e-14 35.3552"></polygon>
        <polygon id="path-3" points="0 -2.84217094e-14 35.3548 -2.84217094e-14 35.3548 35.356 0 35.356"></polygon>
    </defs>
    <g id="Page-1" stroke="none" stroke-width="1" fill="none" fill-rule="evenodd">
        <g id="Desktop-HD-Copy-3" transform="translate(-828.000000, -4126.000000)">
            <g id="illust_high_product1" transform="translate(831.000000, 4126.462590)">
                <line x1="163.7957" y1="58.1803" x2="163.7957" y2="30.3113" id="Stroke-1" stroke="#3CDC87" stroke-width="5.303" stroke-linecap="round"></line>
                <line x1="147.6213" y1="143.4886" x2="147.6213" y2="70.8146" id="Stroke-2" stroke="#3CDC87" stroke-width="5.303" stroke-linecap="round"></line>
                <g id="Group-35" transform="translate(0.000000, 17.677200)">
                    <path d="M66.1009,0 L223.8789,0 C228.9879,0 234.1019,2.679 237.2109,7.17 L269.0399,53.137" id="Stroke-3" stroke="#3CDC87" stroke-width="5.303" stroke-linecap="round"></path>
                    <path d="M15.7362,147.395 L15.7362,112.658 C15.7362,106.337 19.4012,100.59 25.1322,97.925 L26.4482,97.313 C29.2212,96.023 31.0822,93.335 31.3122,90.285 L33.0872,66.811 C33.6702,59.098 40.0982,53.137 47.8332,53.137 L271.7802,53.137 C283.1032,53.137 294.3192,55.331 304.8082,59.598 L339.0512,73.527 C349.6622,77.843 356.6022,88.157 356.6022,99.613 L356.6022,99.613" id="Stroke-5" stroke="#3CDC87" stroke-width="5.303" stroke-linecap="round"></path>
                    <path d="M345.9956,139.9167 L345.9956,105.3657 C345.9956,103.6787 347.3626,102.3117 349.0496,102.3117 L356.3686,102.3117 C362.3556,102.3117 367.2086,107.1657 367.2086,113.1527 L367.2086,132.1297 C367.2086,138.1167 362.3556,142.9707 356.3686,142.9707 L349.0496,142.9707 C347.3626,142.9707 345.9956,141.6037 345.9956,139.9167 Z" id="Stroke-7" stroke="#3CDC87" stroke-width="5.303" stroke-linecap="round"></path>
                    <path d="M94.5814,142.9704 C94.5814,160.5444 80.3354,174.7904 62.7614,174.7904 C45.1884,174.7904 30.9414,160.5444 30.9414,142.9704 C30.9414,125.3964 45.1884,111.1504 62.7614,111.1504 C80.3354,111.1504 94.5814,125.3964 94.5814,142.9704 Z" id="Stroke-9" stroke="#3CDC87" stroke-width="5.303" stroke-linecap="round"></path>
                    <path d="M309.706,142.9704 C309.706,160.5444 295.46,174.7904 277.886,174.7904 C260.313,174.7904 246.066,160.5444 246.066,142.9704 C246.066,125.3964 260.313,111.1504 277.886,111.1504 C295.46,111.1504 309.706,125.3964 309.706,142.9704 Z" id="Stroke-11" stroke="#3CDC87" stroke-width="5.303" stroke-linecap="round"></path>
                    <line x1="94.5814" y1="142.9704" x2="246.0664" y2="142.9704" id="Stroke-13" stroke="#3CDC87" stroke-width="5.303" stroke-linecap="round"></line>
                    <line x1="309.706" y1="142.9704" x2="330.818" y2="142.9704" id="Stroke-15" stroke="#3CDC87" stroke-width="5.303" stroke-linecap="round"></line>
                    <line x1="112.3294" y1="125.8114" x2="228.3184" y2="125.8114" id="Stroke-17" stroke="#3CDC87" stroke-width="5.303" stroke-linecap="round"></line>
                    <line x1="163.7957" y1="70.1577" x2="188.1197" y2="70.1577" id="Stroke-19" stroke="#3CDC87" stroke-width="5.303" stroke-linecap="round"></line>
                    <path d="M50.191,53.1374 L50.191,53.1374 C56.437,32.9114 68.999,14.6504 86.439,0.4444 L86.985,0.0004" id="Stroke-21" stroke="#3CDC87" stroke-width="5.303" stroke-linecap="round"></path>
                    <path d="M14.142,113.437 L5.511,113.437 C2.467,113.437 -7.10542736e-15,115.904 -7.10542736e-15,118.948 L-7.10542736e-15,132.674 C-7.10542736e-15,135.718 2.467,138.186 5.511,138.186 L14.142,138.186" id="Stroke-23" stroke="#3CDC87" stroke-width="5.303" stroke-linecap="round"></path>
                    <path d="M94.5814,142.9704 C94.5814,160.5444 80.3354,174.7904 62.7614,174.7904 C45.1884,174.7904 30.9414,160.5444 30.9414,142.9704 C30.9414,125.3964 45.1884,111.1504 62.7614,111.1504 C80.3354,111.1504 94.5814,125.3964 94.5814,142.9704 Z" id="Stroke-25" stroke="#3CDC87" stroke-width="5.303" stroke-linecap="round"></path>
                    <path d="M309.706,142.9704 C309.706,160.5444 295.46,174.7904 277.886,174.7904 C260.313,174.7904 246.066,160.5444 246.066,142.9704 C246.066,125.3964 260.313,111.1504 277.886,111.1504 C295.46,111.1504 309.706,125.3964 309.706,142.9704 Z" id="Stroke-27" stroke="#3CDC87" stroke-width="5.303" stroke-linecap="round"></path>
                    <path d="M74.2521,142.9704 C74.2521,149.3164 69.1081,154.4604 62.7621,154.4604 C56.4161,154.4604 51.2711,149.3164 51.2711,142.9704 C51.2711,136.6244 56.4161,131.4804 62.7621,131.4804 C69.1081,131.4804 74.2521,136.6244 74.2521,142.9704 Z" id="Stroke-29" stroke="#3CDC87" stroke-width="5.303" stroke-linecap="round"></path>
                    <path d="M289.3767,142.9704 C289.3767,149.3164 284.2327,154.4604 277.8867,154.4604 C271.5407,154.4604 266.3957,149.3164 266.3957,142.9704 C266.3957,136.6244 271.5407,131.4804 277.8867,131.4804 C284.2327,131.4804 289.3767,136.6244 289.3767,142.9704 Z" id="Stroke-31" stroke="#3CDC87" stroke-width="5.303" stroke-linecap="round"></path>
                    <path d="M150.7239,135.0155 C150.7239,144.7785 142.8089,152.6935 133.0459,152.6935 C123.2829,152.6935 115.3689,144.7785 115.3689,135.0155 C115.3689,125.2525 123.2829,117.3375 133.0459,117.3375 C142.8089,117.3375 150.7239,125.2525 150.7239,135.0155" id="Fill-33" fill="#519EFF"></path>
                </g>
                <text id="A" font-family="Montserrat-Bold, Montserrat" font-size="21.2132" font-weight="bold" fill="#FFFFFF">
                    <tspan x="124.5572" y="158.38201">A</tspan>
                </text>
                <path d="M194.0245,115.5166 C194.0245,125.2796 186.1095,133.1946 176.3465,133.1946 C166.5835,133.1946 158.6695,125.2796 158.6695,115.5166 C158.6695,105.7536 166.5835,97.8386 176.3465,97.8386 C186.1095,97.8386 194.0245,105.7536 194.0245,115.5166" id="Fill-36" fill="#519EFF"></path>
                <text id="C" font-family="Montserrat-Bold, Montserrat" font-size="21.2132" font-weight="bold" fill="#FFFFFF">
                    <tspan x="167.858" y="121.91321">C</tspan>
                </text>
                <g id="Group-40" transform="translate(99.635800, 0.000000)">
                    <mask id="mask-2" fill="white">
                        <use xlink:href="#path-1"></use>
                    </mask>
                    <g id="Clip-39"></g>
                    <path d="M35.355,17.6772 C35.355,27.4402 27.44,35.3552 17.677,35.3552 C7.914,35.3552 1.42108547e-14,27.4402 1.42108547e-14,17.6772 C1.42108547e-14,7.9142 7.914,-0.0008 17.677,-0.0008 C27.44,-0.0008 35.355,7.9142 35.355,17.6772" id="Fill-38" fill="#519EFF" mask="url(#mask-2)"></path>
                </g>
                <text id="D" font-family="Montserrat-Bold, Montserrat" font-size="21.2132" font-weight="bold" fill="#FFFFFF">
                    <tspan x="108.9058" y="24.0734098">D</tspan>
                </text>
                <g id="Group-43" transform="translate(356.602400, 122.993800)">
                    <mask id="mask-4" fill="white">
                        <use xlink:href="#path-3"></use>
                    </mask>
                    <g id="Clip-42"></g>
                    <path d="M35.355,17.678 C35.355,27.441 27.44,35.356 17.677,35.356 C7.914,35.356 0,27.441 0,17.678 C0,7.915 7.914,-2.84217094e-14 17.677,-2.84217094e-14 C27.44,-2.84217094e-14 35.355,7.915 35.355,17.678" id="Fill-41" fill="#519EFF" mask="url(#mask-4)"></path>
                </g>
                <text id="B" font-family="Montserrat-Bold, Montserrat" font-size="21.2132" font-weight="bold" fill="#FFFFFF">
                    <tspan x="366.5054" y="147.06851">B</tspan>
                </text>
            </g>
        </g>
    </g>
</svg>