<?xml version="1.0" encoding="UTF-8"?>
<svg width="96px" height="321px" viewBox="0 0 96 321" version="1.1" xmlns="http://www.w3.org/2000/svg" xmlns:xlink="http://www.w3.org/1999/xlink">
    <title>illust/mr/stage5</title>
    <g id="Symbols" stroke="none" stroke-width="1" fill="none" fill-rule="evenodd">
        <g id="illust/mr/on/stage5/on" transform="translate(-34.000000, -52.000000)">
            <g id="illust/mr/stage5" transform="translate(34.000000, 52.000000)">
                <path d="M97.8373206,270.545455 C97.8373206,275.653195 92.0792329,279.791708 90.5770952,284.400479 C89.0198685,289.177061 91.1817937,295.886354 88.2774473,299.86216 C85.3436347,303.878165 78.2499576,303.888374 74.2182073,306.811367 C70.2268129,309.70437 68.040546,316.437272 63.2452356,317.988417 C58.6183953,319.484688 52.8981013,315.366592 47.7703349,315.366592 C42.6425686,315.366592 36.9216339,319.484688 32.2947937,317.988417 C27.4994833,316.437272 25.3132164,309.70437 21.321822,306.810729 C17.2907122,303.888374 10.1970352,303.877527 7.26322254,299.86216 C4.35823559,295.886354 6.5208014,289.177061 4.96357466,284.400479 C3.46143697,279.791708 -2.29665072,275.653195 -2.29665072,270.545455 C-2.29665072,265.437714 3.46143697,261.299201 4.96357466,256.69043 C6.5208014,251.913848 4.35887616,245.204555 7.26322254,241.228749 C10.1970352,237.212744 17.2907122,237.202535 21.3224626,234.279542 C25.313857,231.386539 27.5001239,224.653637 32.2954342,223.102492 C36.9216339,221.606221 42.6425686,225.724317 47.7703349,225.724317 C52.8981013,225.724317 58.6190359,221.606221 63.2458762,223.102492 C68.0411865,224.653637 70.2274534,231.386539 74.2188479,234.28018 C78.2499576,237.202535 85.3436347,237.213382 88.2774473,241.228749 C91.1824343,245.204555 89.0198685,251.913848 90.5770952,256.69043 C92.0792329,261.299201 97.8373206,265.437714 97.8373206,270.545455" id="Fill-1655" fill="#C5F5DB" transform="translate(47.770335, 270.545455) rotate(-90.000000) translate(-47.770335, -270.545455) "></path>
                <path d="M0.459330144,188.409001 L0.459330144,127.610138 C0.459330144,118.016601 8.2366966,110.239234 17.8302333,110.239234 L78.6290968,110.239234 C88.2226335,110.239234 96,118.016601 96,127.610138 L96,188.409001 C96,198.002538 88.2226335,205.779904 78.6290968,205.779904 L17.8302333,205.779904 C8.2366966,205.779904 0.459330144,198.002538 0.459330144,188.409001" id="Fill-1657" fill="#8AEAB7" transform="translate(48.229665, 158.009569) rotate(-90.000000) translate(-48.229665, -158.009569) "></path>
                <path d="M96,47.7703349 C96,74.1530431 74.6122291,95.5406699 48.2293432,95.5406699 C21.8464572,95.5406699 0.459330144,74.1530431 0.459330144,47.7703349 C0.459330144,21.3876267 21.8464572,7.81597009e-14 48.2293432,7.81597009e-14 C74.6122291,7.81597009e-14 96,21.3876267 96,47.7703349" id="Fill-1661" fill="#3CDC87" transform="translate(48.229665, 47.770335) rotate(-90.000000) translate(-48.229665, -47.770335) "></path>
            </g>
        </g>
    </g>
</svg>