<?xml version="1.0" encoding="UTF-8"?>
<svg width="95px" height="329px" viewBox="0 0 95 329" version="1.1" xmlns="http://www.w3.org/2000/svg" xmlns:xlink="http://www.w3.org/1999/xlink">
    <title>illust/mr/stage2</title>
    <g id="Symbols" stroke="none" stroke-width="1" fill="none" fill-rule="evenodd">
        <g id="illust/mr/on/stage2/on" transform="translate(-35.000000, -46.000000)">
            <g id="illust/mr/stage2" transform="translate(38.000000, 50.000000)">
                <g id="Group-9" transform="translate(4.500000, 113.000000)" stroke="#8AEAB7" stroke-width="9.894">
                    <polyline id="Stroke-1699" transform="translate(5.000000, 46.500000) rotate(-90.000000) translate(-5.000000, -46.500000) " points="-41.5 41.5 -29.8769219 51.5 -18.2538438 41.5 -6.62866912 51.5 4.9930112 41.5 16.6181859 51.5 28.2447584 41.5 39.8720298 51.5 51.5 41.5"></polyline>
                    <polyline id="Stroke-1701" transform="translate(40.000000, 46.500000) rotate(-90.000000) translate(-40.000000, -46.500000) " points="-6.5 41.5 5.12307808 51.5 16.7461562 41.5 28.3713309 51.5 39.9930112 41.5 51.6181859 51.5 63.2447584 41.5 74.8720298 51.5 86.5 41.5"></polyline>
                    <polyline id="Stroke-1703" transform="translate(75.000000, 46.500000) rotate(-90.000000) translate(-75.000000, -46.500000) " points="28.5 41.5 40.1230781 51.5 51.7461562 41.5 63.3713309 51.5 74.9930112 41.5 86.6181859 51.5 98.2447584 41.5 109.87203 51.5 121.5 41.5"></polyline>
                </g>
                <g id="Group-11" stroke="#3CDC87" stroke-width="8.41">
                    <line x1="44.5" y1="36" x2="44.5" y2="125" id="Stroke-1705" transform="translate(44.500000, 80.500000) rotate(-90.000000) translate(-44.500000, -80.500000) "></line>
                    <line x1="44.5" y1="-24" x2="44.5" y2="65" id="Stroke-1709" transform="translate(44.500000, 20.500000) rotate(-90.000000) translate(-44.500000, -20.500000) "></line>
                    <line x1="44.5" y1="-4" x2="44.5" y2="85" id="Stroke-1711" transform="translate(44.500000, 40.500000) rotate(-90.000000) translate(-44.500000, -40.500000) "></line>
                    <line x1="44.5" y1="16" x2="44.5" y2="105" id="Stroke-1713" transform="translate(44.500000, 60.500000) rotate(-90.000000) translate(-44.500000, -60.500000) "></line>
                    <line x1="44.5" y1="-44" x2="44.5" y2="45" id="Stroke-1707" transform="translate(44.500000, 0.500000) rotate(-90.000000) translate(-44.500000, -0.500000) "></line>
                </g>
                <g id="Group-10" transform="translate(0.000000, 238.000000)" fill="#C5F5DB">
                    <path d="M89,72.5 C89,80.5082805 82.5084319,87 74.5003382,87 C66.4922445,87 60,80.5082805 60,72.5 C60,64.4917195 66.4922445,58 74.5003382,58 C82.5084319,58 89,64.4917195 89,72.5" id="Fill-1715" transform="translate(74.500000, 72.500000) rotate(-90.000000) translate(-74.500000, -72.500000) "></path>
                    <path d="M89,43.5 C89,51.5082805 82.5084319,58 74.5003382,58 C66.4922445,58 60,51.5082805 60,43.5 C60,35.4917195 66.4922445,29 74.5003382,29 C82.5084319,29 89,35.4917195 89,43.5" id="Fill-1717" transform="translate(74.500000, 43.500000) rotate(-90.000000) translate(-74.500000, -43.500000) "></path>
                    <path d="M89,14.5 C89,22.5082805 82.5084319,29 74.5003382,29 C66.4922445,29 60,22.5082805 60,14.5 C60,6.49171954 66.4922445,0 74.5003382,0 C82.5084319,0 89,6.49171954 89,14.5" id="Fill-1719" transform="translate(74.500000, 14.500000) rotate(-90.000000) translate(-74.500000, -14.500000) "></path>
                    <path d="M59,72.5 C59,80.5082805 52.5084319,87 44.5003382,87 C36.4922445,87 30,80.5082805 30,72.5 C30,64.4917195 36.4922445,58 44.5003382,58 C52.5084319,58 59,64.4917195 59,72.5" id="Fill-1721" transform="translate(44.500000, 72.500000) rotate(-90.000000) translate(-44.500000, -72.500000) "></path>
                    <path d="M59,43.5 C59,51.5082805 52.5084319,58 44.5003382,58 C36.4922445,58 30,51.5082805 30,43.5 C30,35.4917195 36.4922445,29 44.5003382,29 C52.5084319,29 59,35.4917195 59,43.5" id="Fill-1723" transform="translate(44.500000, 43.500000) rotate(-90.000000) translate(-44.500000, -43.500000) "></path>
                    <path d="M59,14.5 C59,22.5082805 52.5084319,29 44.5003382,29 C36.4922445,29 30,22.5082805 30,14.5 C30,6.49171954 36.4922445,0 44.5003382,0 C52.5084319,0 59,6.49171954 59,14.5" id="Fill-1725" transform="translate(44.500000, 14.500000) rotate(-90.000000) translate(-44.500000, -14.500000) "></path>
                    <path d="M29,72.5 C29,80.5082805 22.5084319,87 14.5003382,87 C6.49224454,87 0,80.5082805 0,72.5 C0,64.4917195 6.49224454,58 14.5003382,58 C22.5084319,58 29,64.4917195 29,72.5" id="Fill-1727" transform="translate(14.500000, 72.500000) rotate(-90.000000) translate(-14.500000, -72.500000) "></path>
                    <path d="M29,43.5 C29,51.5082805 22.5084319,58 14.5003382,58 C6.49224454,58 0,51.5082805 0,43.5 C0,35.4917195 6.49224454,29 14.5003382,29 C22.5084319,29 29,35.4917195 29,43.5" id="Fill-1729" transform="translate(14.500000, 43.500000) rotate(-90.000000) translate(-14.500000, -43.500000) "></path>
                    <path d="M29,14.5 C29,22.5082805 22.5084319,29 14.5003382,29 C6.49224454,29 0,22.5082805 0,14.5 C0,6.49171954 6.49224454,0 14.5003382,0 C22.5084319,0 29,6.49171954 29,14.5" id="Fill-1731" transform="translate(14.500000, 14.500000) rotate(-90.000000) translate(-14.500000, -14.500000) "></path>
                </g>
            </g>
        </g>
    </g>
</svg>