<?xml version="1.0" encoding="UTF-8"?>
<svg width="101px" height="325px" viewBox="0 0 101 325" version="1.1" xmlns="http://www.w3.org/2000/svg" xmlns:xlink="http://www.w3.org/1999/xlink">
    <title>illust/mr/stage5-2</title>
    <g id="Symbols" stroke="none" stroke-width="1" fill="none" fill-rule="evenodd">
        <g id="illust/mr/on/stage5/on2" transform="translate(-31.000000, -50.000000)" stroke="#519EFF" stroke-width="4">
            <g id="illust/mr/stage5-2" transform="translate(34.000000, 52.000000)">
                <path d="M97.8373206,270.548325 C97.8373206,275.656066 92.0792329,279.794579 90.5770952,284.40335 C89.0198685,289.179932 91.1817937,295.889225 88.2774473,299.865031 C85.3436347,303.881036 78.2499576,303.891245 74.2182073,306.814238 C70.2268129,309.707241 68.040546,316.440143 63.2452356,317.991288 C58.6183953,319.487559 52.8981013,315.369463 47.7703349,315.369463 C42.6425686,315.369463 36.9216339,319.487559 32.2947937,317.991288 C27.4994833,316.440143 25.3132164,309.707241 21.321822,306.8136 C17.2907122,303.891245 10.1970352,303.880398 7.26322254,299.865031 C4.35823559,295.889225 6.5208014,289.179932 4.96357466,284.40335 C3.46143697,279.794579 -2.29665072,275.656066 -2.29665072,270.548325 C-2.29665072,265.440585 3.46143697,261.302071 4.96357466,256.693301 C6.5208014,251.916718 4.35887616,245.207426 7.26322254,241.23162 C10.1970352,237.215615 17.2907122,237.205406 21.3224626,234.282413 C25.313857,231.389409 27.5001239,224.656508 32.2954342,223.105363 C36.9216339,221.609092 42.6425686,225.727188 47.7703349,225.727188 C52.8981013,225.727188 58.6190359,221.609092 63.2458762,223.105363 C68.0411865,224.656508 70.2274534,231.389409 74.2188479,234.283051 C78.2499576,237.205406 85.3436347,237.216253 88.2774473,241.23162 C91.1824343,245.207426 89.0198685,251.916718 90.5770952,256.693301 C92.0792329,261.302071 97.8373206,265.440585 97.8373206,270.548325" id="Fill-1655" fill="#C5F5DB" transform="translate(47.770335, 270.548325) rotate(-90.000000) translate(-47.770335, -270.548325) "></path>
                <path d="M0.459330144,188.410437 L0.459330144,127.611573 C0.459330144,118.018036 8.2366966,110.24067 17.8302333,110.24067 L78.6290968,110.24067 C88.2226335,110.24067 96,118.018036 96,127.611573 L96,188.410437 C96,198.003973 88.2226335,205.78134 78.6290968,205.78134 L17.8302333,205.78134 C8.2366966,205.78134 0.459330144,198.003973 0.459330144,188.410437" id="Fill-1657" fill="#8AEAB7" transform="translate(48.229665, 158.011005) rotate(-90.000000) translate(-48.229665, -158.011005) "></path>
                <path d="M96,47.7703349 C96,74.1530431 74.6122291,95.5406699 48.2293432,95.5406699 C21.8464572,95.5406699 0.459330144,74.1530431 0.459330144,47.7703349 C0.459330144,21.3876267 21.8464572,0 48.2293432,0 C74.6122291,0 96,21.3876267 96,47.7703349" id="Fill-1661" fill="#3CDC87" transform="translate(48.229665, 47.770335) rotate(-90.000000) translate(-48.229665, -47.770335) "></path>
            </g>
        </g>
    </g>
</svg>