<?xml version="1.0" encoding="UTF-8"?>
<svg width="127px" height="324px" viewBox="0 0 127 324" version="1.1" xmlns="http://www.w3.org/2000/svg" xmlns:xlink="http://www.w3.org/1999/xlink">
    <title>illust/mr/stage4-2</title>
    <g id="Symbols" stroke="none" stroke-width="1" fill="none" fill-rule="evenodd">
        <g id="illust/mr/on/stage4-2/on-2" transform="translate(-19.000000, -49.000000)">
            <g id="illust/mr/stage4-2" transform="translate(19.000000, 49.000000)">
                <g id="Group">
                    <path d="M7,51.5 C7,53.4332199 5.43285004,55 3.50023824,55 C1.56714996,55 0,53.4332199 0,51.5 C0,49.5667801 1.56714996,48 3.50023824,48 C5.43285004,48 7,49.5667801 7,51.5" id="Fill-605" fill="#C5F5DB" transform="translate(3.500000, 51.500000) rotate(-90.000000) translate(-3.500000, -51.500000) "></path>
                    <path d="M7,43.5 C7,45.4332199 5.43285004,47 3.50023824,47 C1.56714996,47 0,45.4332199 0,43.5 C0,41.5667801 1.56714996,40 3.50023824,40 C5.43285004,40 7,41.5667801 7,43.5" id="Fill-607" fill="#C5F5DB" transform="translate(3.500000, 43.500000) rotate(-90.000000) translate(-3.500000, -43.500000) "></path>
                    <path d="M47,83.5 C47,85.4332199 45.43285,87 43.5002382,87 C41.56715,87 40,85.4332199 40,83.5 C40,81.5667801 41.56715,80 43.5002382,80 C45.43285,80 47,81.5667801 47,83.5" id="Fill-635" fill="#C5F5DB" transform="translate(43.500000, 83.500000) rotate(-90.000000) translate(-43.500000, -83.500000) "></path>
                    <path d="M47,11.5 C47,13.4332199 45.43285,15 43.5002382,15 C41.56715,15 40,13.4332199 40,11.5 C40,9.56678012 41.56715,8 43.5002382,8 C45.43285,8 47,9.56678012 47,11.5" id="Fill-637" fill="#C5F5DB" transform="translate(43.500000, 11.500000) rotate(-90.000000) translate(-43.500000, -11.500000) "></path>
                    <path d="M55,115.5 C55,117.43322 53.43285,119 51.5002382,119 C49.56715,119 48,117.43322 48,115.5 C48,113.56678 49.56715,112 51.5002382,112 C53.43285,112 55,113.56678 55,115.5" id="Fill-639" fill="#C5F5DB" transform="translate(51.500000, 115.500000) rotate(-90.000000) translate(-51.500000, -115.500000) "></path>
                    <path d="M55,99.5 C55,101.43322 53.43285,103 51.5002382,103 C49.56715,103 48,101.43322 48,99.5 C48,97.5667801 49.56715,96 51.5002382,96 C53.43285,96 55,97.5667801 55,99.5" id="Fill-641" fill="#C5F5DB" transform="translate(51.500000, 99.500000) rotate(-90.000000) translate(-51.500000, -99.500000) "></path>
                    <path d="M55,91.5 C55,93.4332199 53.43285,95 51.5002382,95 C49.56715,95 48,93.4332199 48,91.5 C48,89.5667801 49.56715,88 51.5002382,88 C53.43285,88 55,89.5667801 55,91.5" id="Fill-643" fill="#C5F5DB" transform="translate(51.500000, 91.500000) rotate(-90.000000) translate(-51.500000, -91.500000) "></path>
                    <path d="M63,99.5 C63,101.43322 61.43285,103 59.5002382,103 C57.56715,103 56,101.43322 56,99.5 C56,97.5667801 57.56715,96 59.5002382,96 C61.43285,96 63,97.5667801 63,99.5" id="Fill-647" fill="#C5F5DB" transform="translate(59.500000, 99.500000) rotate(-90.000000) translate(-59.500000, -99.500000) "></path>
                    <path d="M79,107.5 C79,109.43322 77.43285,111 75.5002382,111 C73.56715,111 72,109.43322 72,107.5 C72,105.56678 73.56715,104 75.5002382,104 C77.43285,104 79,105.56678 79,107.5" id="Fill-655" fill="#C5F5DB" transform="translate(75.500000, 107.500000) rotate(-90.000000) translate(-75.500000, -107.500000) "></path>
                    <path d="M79,99.5 C79,101.43322 77.43285,103 75.5002382,103 C73.56715,103 72,101.43322 72,99.5 C72,97.5667801 73.56715,96 75.5002382,96 C77.43285,96 79,97.5667801 79,99.5" id="Fill-657" fill="#C5F5DB" transform="translate(75.500000, 99.500000) rotate(-90.000000) translate(-75.500000, -99.500000) "></path>
                    <path d="M87,99.5 C87,101.43322 85.43285,103 83.5002382,103 C81.56715,103 80,101.43322 80,99.5 C80,97.5667801 81.56715,96 83.5002382,96 C85.43285,96 87,97.5667801 87,99.5" id="Fill-663" fill="#C5F5DB" transform="translate(83.500000, 99.500000) rotate(-90.000000) translate(-83.500000, -99.500000) "></path>
                    <path d="M87,91.5 C87,93.4332199 85.43285,95 83.5002382,95 C81.56715,95 80,93.4332199 80,91.5 C80,89.5667801 81.56715,88 83.5002382,88 C85.43285,88 87,89.5667801 87,91.5" id="Fill-665" fill="#C5F5DB" transform="translate(83.500000, 91.500000) rotate(-90.000000) translate(-83.500000, -91.500000) "></path>
                    <path d="M127,115.5 C127,117.43322 125.43285,119 123.500238,119 C121.56715,119 120,117.43322 120,115.5 C120,113.56678 121.56715,112 123.500238,112 C125.43285,112 127,113.56678 127,115.5" id="Fill-701" fill="#C5F5DB" transform="translate(123.500000, 115.500000) rotate(-90.000000) translate(-123.500000, -115.500000) "></path>
                    <path d="M15,107.5 C15,109.43322 13.43285,111 11.5002382,111 C9.56714996,111 8,109.43322 8,107.5 C8,105.56678 9.56714996,104 11.5002382,104 C13.43285,104 15,105.56678 15,107.5" id="Fill-711" fill="#C5F5DB" transform="translate(11.500000, 107.500000) rotate(-90.000000) translate(-11.500000, -107.500000) "></path>
                    <path d="M15,35.5 C15,37.4332199 13.43285,39 11.5002382,39 C9.56714996,39 8,37.4332199 8,35.5 C8,33.5667801 9.56714996,32 11.5002382,32 C13.43285,32 15,33.5667801 15,35.5" id="Fill-713" fill="#C5F5DB" transform="translate(11.500000, 35.500000) rotate(-90.000000) translate(-11.500000, -35.500000) "></path>
                    <path d="M15,27.5 C15,29.4332199 13.43285,31 11.5002382,31 C9.56714996,31 8,29.4332199 8,27.5 C8,25.5667801 9.56714996,24 11.5002382,24 C13.43285,24 15,25.5667801 15,27.5" id="Fill-715" fill="#C5F5DB" transform="translate(11.500000, 27.500000) rotate(-90.000000) translate(-11.500000, -27.500000) "></path>
                    <path d="M23,67.5 C23,69.4332199 21.43285,71 19.5002382,71 C17.56715,71 16,69.4332199 16,67.5 C16,65.5667801 17.56715,64 19.5002382,64 C21.43285,64 23,65.5667801 23,67.5" id="Fill-725" fill="#C5F5DB" transform="translate(19.500000, 67.500000) rotate(-90.000000) translate(-19.500000, -67.500000) "></path>
                    <path d="M23,51.5 C23,53.4332199 21.43285,55 19.5002382,55 C17.56715,55 16,53.4332199 16,51.5 C16,49.5667801 17.56715,48 19.5002382,48 C21.43285,48 23,49.5667801 23,51.5" id="Fill-727" fill="#C5F5DB" transform="translate(19.500000, 51.500000) rotate(-90.000000) translate(-19.500000, -51.500000) "></path>
                    <path d="M31,115.5 C31,117.43322 29.43285,119 27.5002382,119 C25.56715,119 24,117.43322 24,115.5 C24,113.56678 25.56715,112 27.5002382,112 C29.43285,112 31,113.56678 31,115.5" id="Fill-739" fill="#C5F5DB" transform="translate(27.500000, 115.500000) rotate(-90.000000) translate(-27.500000, -115.500000) "></path>
                    <path d="M31,35.5 C31,37.4332199 29.43285,39 27.5002382,39 C25.56715,39 24,37.4332199 24,35.5 C24,33.5667801 25.56715,32 27.5002382,32 C29.43285,32 31,33.5667801 31,35.5" id="Fill-741" fill="#C5F5DB" transform="translate(27.500000, 35.500000) rotate(-90.000000) translate(-27.500000, -35.500000) "></path>
                    <path d="M47,51.5 C47,53.4332199 45.43285,55 43.5002382,55 C41.56715,55 40,53.4332199 40,51.5 C40,49.5667801 41.56715,48 43.5002382,48 C45.43285,48 47,49.5667801 47,51.5" id="Fill-747" fill="#C5F5DB" transform="translate(43.500000, 51.500000) rotate(-90.000000) translate(-43.500000, -51.500000) "></path>
                    <path d="M63,123.5 C63,125.43322 61.43285,127 59.5002382,127 C57.56715,127 56,125.43322 56,123.5 C56,121.56678 57.56715,120 59.5002382,120 C61.43285,120 63,121.56678 63,123.5" id="Fill-753" fill="#C5F5DB" transform="translate(59.500000, 123.500000) rotate(-90.000000) translate(-59.500000, -123.500000) "></path>
                    <path d="M63,35.5 C63,37.4332199 61.43285,39 59.5002382,39 C57.56715,39 56,37.4332199 56,35.5 C56,33.5667801 57.56715,32 59.5002382,32 C61.43285,32 63,33.5667801 63,35.5" id="Fill-755" fill="#C5F5DB" transform="translate(59.500000, 35.500000) rotate(-90.000000) translate(-59.500000, -35.500000) "></path>
                    <path d="M71,75.5 C71,77.4332199 69.43285,79 67.5002382,79 C65.56715,79 64,77.4332199 64,75.5 C64,73.5667801 65.56715,72 67.5002382,72 C69.43285,72 71,73.5667801 71,75.5" id="Fill-757" fill="#C5F5DB" transform="translate(67.500000, 75.500000) rotate(-90.000000) translate(-67.500000, -75.500000) "></path>
                    <path d="M71,51.5 C71,53.4332199 69.43285,55 67.5002382,55 C65.56715,55 64,53.4332199 64,51.5 C64,49.5667801 65.56715,48 67.5002382,48 C69.43285,48 71,49.5667801 71,51.5" id="Fill-759" fill="#C5F5DB" transform="translate(67.500000, 51.500000) rotate(-90.000000) translate(-67.500000, -51.500000) "></path>
                    <path d="M87,51.5 C87,53.4332199 85.43285,55 83.5002382,55 C81.56715,55 80,53.4332199 80,51.5 C80,49.5667801 81.56715,48 83.5002382,48 C85.43285,48 87,49.5667801 87,51.5" id="Fill-763" fill="#C5F5DB" transform="translate(83.500000, 51.500000) rotate(-90.000000) translate(-83.500000, -51.500000) "></path>
                    <path d="M87,35.5 C87,37.4332199 85.43285,39 83.5002382,39 C81.56715,39 80,37.4332199 80,35.5 C80,33.5667801 81.56715,32 83.5002382,32 C85.43285,32 87,33.5667801 87,35.5" id="Fill-765" fill="#C5F5DB" transform="translate(83.500000, 35.500000) rotate(-90.000000) translate(-83.500000, -35.500000) "></path>
                    <path d="M95,115.5 C95,117.43322 93.43285,119 91.5002382,119 C89.56715,119 88,117.43322 88,115.5 C88,113.56678 89.56715,112 91.5002382,112 C93.43285,112 95,113.56678 95,115.5" id="Fill-771" fill="#C5F5DB" transform="translate(91.500000, 115.500000) rotate(-90.000000) translate(-91.500000, -115.500000) "></path>
                    <path d="M95,27.5 C95,29.4332199 93.43285,31 91.5002382,31 C89.56715,31 88,29.4332199 88,27.5 C88,25.5667801 89.56715,24 91.5002382,24 C93.43285,24 95,25.5667801 95,27.5" id="Fill-773" fill="#C5F5DB" transform="translate(91.500000, 27.500000) rotate(-90.000000) translate(-91.500000, -27.500000) "></path>
                    <path d="M95,11.5 C95,13.4332199 93.43285,15 91.5002382,15 C89.56715,15 88,13.4332199 88,11.5 C88,9.56678012 89.56715,8 91.5002382,8 C93.43285,8 95,9.56678012 95,11.5" id="Fill-775" fill="#C5F5DB" transform="translate(91.500000, 11.500000) rotate(-90.000000) translate(-91.500000, -11.500000) "></path>
                    <path d="M103,123.5 C103,125.43322 101.43285,127 99.5002382,127 C97.56715,127 96,125.43322 96,123.5 C96,121.56678 97.56715,120 99.5002382,120 C101.43285,120 103,121.56678 103,123.5" id="Fill-779" fill="#C5F5DB" transform="translate(99.500000, 123.500000) rotate(-90.000000) translate(-99.500000, -123.500000) "></path>
                    <path d="M103,67.5 C103,69.4332199 101.43285,71 99.5002382,71 C97.56715,71 96,69.4332199 96,67.5 C96,65.5667801 97.56715,64 99.5002382,64 C101.43285,64 103,65.5667801 103,67.5" id="Fill-781" fill="#C5F5DB" transform="translate(99.500000, 67.500000) rotate(-90.000000) translate(-99.500000, -67.500000) "></path>
                    <path d="M103,19.5 C103,21.4332199 101.43285,23 99.5002382,23 C97.56715,23 96,21.4332199 96,19.5 C96,17.5667801 97.56715,16 99.5002382,16 C101.43285,16 103,17.5667801 103,19.5" id="Fill-783" fill="#C5F5DB" transform="translate(99.500000, 19.500000) rotate(-90.000000) translate(-99.500000, -19.500000) "></path>
                    <path d="M103,11.5 C103,13.4332199 101.43285,15 99.5002382,15 C97.56715,15 96,13.4332199 96,11.5 C96,9.56678012 97.56715,8 99.5002382,8 C101.43285,8 103,9.56678012 103,11.5" id="Fill-785" fill="#C5F5DB" transform="translate(99.500000, 11.500000) rotate(-90.000000) translate(-99.500000, -11.500000) "></path>
                    <path d="M111,123.5 C111,125.43322 109.43285,127 107.500238,127 C105.56715,127 104,125.43322 104,123.5 C104,121.56678 105.56715,120 107.500238,120 C109.43285,120 111,121.56678 111,123.5" id="Fill-791" fill="#C5F5DB" transform="translate(107.500000, 123.500000) rotate(-90.000000) translate(-107.500000, -123.500000) "></path>
                    <path d="M111,115.5 C111,117.43322 109.43285,119 107.500238,119 C105.56715,119 104,117.43322 104,115.5 C104,113.56678 105.56715,112 107.500238,112 C109.43285,112 111,113.56678 111,115.5" id="Fill-793" fill="#C5F5DB" transform="translate(107.500000, 115.500000) rotate(-90.000000) translate(-107.500000, -115.500000) "></path>
                    <path d="M111,43.5 C111,45.4332199 109.43285,47 107.500238,47 C105.56715,47 104,45.4332199 104,43.5 C104,41.5667801 105.56715,40 107.500238,40 C109.43285,40 111,41.5667801 111,43.5" id="Fill-795" fill="#C5F5DB" transform="translate(107.500000, 43.500000) rotate(-90.000000) translate(-107.500000, -43.500000) "></path>
                    <path d="M111,27.5 C111,29.4332199 109.43285,31 107.500238,31 C105.56715,31 104,29.4332199 104,27.5 C104,25.5667801 105.56715,24 107.500238,24 C109.43285,24 111,25.5667801 111,27.5" id="Fill-797" fill="#C5F5DB" transform="translate(107.500000, 27.500000) rotate(-90.000000) translate(-107.500000, -27.500000) "></path>
                    <path d="M111,11.5 C111,13.4332199 109.43285,15 107.500238,15 C105.56715,15 104,13.4332199 104,11.5 C104,9.56678012 105.56715,8 107.500238,8 C109.43285,8 111,9.56678012 111,11.5" id="Fill-799" fill="#C5F5DB" transform="translate(107.500000, 11.500000) rotate(-90.000000) translate(-107.500000, -11.500000) "></path>
                    <path d="M119,99.5 C119,101.43322 117.43285,103 115.500238,103 C113.56715,103 112,101.43322 112,99.5 C112,97.5667801 113.56715,96 115.500238,96 C117.43285,96 119,97.5667801 119,99.5" id="Fill-803" fill="#C5F5DB" transform="translate(115.500000, 99.500000) rotate(-90.000000) translate(-115.500000, -99.500000) "></path>
                    <path d="M119,51.5 C119,53.4332199 117.43285,55 115.500238,55 C113.56715,55 112,53.4332199 112,51.5 C112,49.5667801 113.56715,48 115.500238,48 C117.43285,48 119,49.5667801 119,51.5" id="Fill-805" fill="#C5F5DB" transform="translate(115.500000, 51.500000) rotate(-90.000000) translate(-115.500000, -51.500000) "></path>
                    <path d="M119,43.5 C119,45.4332199 117.43285,47 115.500238,47 C113.56715,47 112,45.4332199 112,43.5 C112,41.5667801 113.56715,40 115.500238,40 C117.43285,40 119,41.5667801 119,43.5" id="Fill-807" fill="#C5F5DB" transform="translate(115.500000, 43.500000) rotate(-90.000000) translate(-115.500000, -43.500000) "></path>
                    <path d="M119,35.5 C119,37.4332199 117.43285,39 115.500238,39 C113.56715,39 112,37.4332199 112,35.5 C112,33.5667801 113.56715,32 115.500238,32 C117.43285,32 119,33.5667801 119,35.5" id="Fill-809" fill="#C5F5DB" transform="translate(115.500000, 35.500000) rotate(-90.000000) translate(-115.500000, -35.500000) "></path>
                    <path d="M127,67.5 C127,69.4332199 125.43285,71 123.500238,71 C121.56715,71 120,69.4332199 120,67.5 C120,65.5667801 121.56715,64 123.500238,64 C125.43285,64 127,65.5667801 127,67.5" id="Fill-811" fill="#C5F5DB" transform="translate(123.500000, 67.500000) rotate(-90.000000) translate(-123.500000, -67.500000) "></path>
                    <path d="M127,43.5 C127,45.4332199 125.43285,47 123.500238,47 C121.56715,47 120,45.4332199 120,43.5 C120,41.5667801 121.56715,40 123.500238,40 C125.43285,40 127,41.5667801 127,43.5" id="Fill-813" fill="#C5F5DB" transform="translate(123.500000, 43.500000) rotate(-90.000000) translate(-123.500000, -43.500000) "></path>
                    <path d="M127,35.5 C127,37.4332199 125.43285,39 123.500238,39 C121.56715,39 120,37.4332199 120,35.5 C120,33.5667801 121.56715,32 123.500238,32 C125.43285,32 127,33.5667801 127,35.5" id="Fill-815" fill="#C5F5DB" transform="translate(123.500000, 35.500000) rotate(-90.000000) translate(-123.500000, -35.500000) "></path>
                    <path d="M7,115.5 C7,117.43322 5.43285004,119 3.50023824,119 C1.56714996,119 0,117.43322 0,115.5 C0,113.56678 1.56714996,112 3.50023824,112 C5.43285004,112 7,113.56678 7,115.5" id="Fill-827" fill="#8AEAB7" transform="translate(3.500000, 115.500000) rotate(-90.000000) translate(-3.500000, -115.500000) "></path>
                    <path d="M7,99.5 C7,101.43322 5.43285004,103 3.50023824,103 C1.56714996,103 0,101.43322 0,99.5 C0,97.5667801 1.56714996,96 3.50023824,96 C5.43285004,96 7,97.5667801 7,99.5" id="Fill-829" fill="#8AEAB7" transform="translate(3.500000, 99.500000) rotate(-90.000000) translate(-3.500000, -99.500000) "></path>
                    <path d="M7,75.5 C7,77.4332199 5.43285004,79 3.50023824,79 C1.56714996,79 0,77.4332199 0,75.5 C0,73.5667801 1.56714996,72 3.50023824,72 C5.43285004,72 7,73.5667801 7,75.5" id="Fill-831" fill="#8AEAB7" transform="translate(3.500000, 75.500000) rotate(-90.000000) translate(-3.500000, -75.500000) "></path>
                    <path d="M7,59.5 C7,61.4332199 5.43285004,63 3.50023824,63 C1.56714996,63 0,61.4332199 0,59.5 C0,57.5667801 1.56714996,56 3.50023824,56 C5.43285004,56 7,57.5667801 7,59.5" id="Fill-833" fill="#8AEAB7" transform="translate(3.500000, 59.500000) rotate(-90.000000) translate(-3.500000, -59.500000) "></path>
                    <path d="M15,83.5 C15,85.4332199 13.43285,87 11.5002382,87 C9.56714996,87 8,85.4332199 8,83.5 C8,81.5667801 9.56714996,80 11.5002382,80 C13.43285,80 15,81.5667801 15,83.5" id="Fill-845" fill="#8AEAB7" transform="translate(11.500000, 83.500000) rotate(-90.000000) translate(-11.500000, -83.500000) "></path>
                    <path d="M15,43.5 C15,45.4332199 13.43285,47 11.5002382,47 C9.56714996,47 8,45.4332199 8,43.5 C8,41.5667801 9.56714996,40 11.5002382,40 C13.43285,40 15,41.5667801 15,43.5" id="Fill-847" fill="#8AEAB7" transform="translate(11.500000, 43.500000) rotate(-90.000000) translate(-11.500000, -43.500000) "></path>
                    <path d="M23,43.5 C23,45.4332199 21.43285,47 19.5002382,47 C17.56715,47 16,45.4332199 16,43.5 C16,41.5667801 17.56715,40 19.5002382,40 C21.43285,40 23,41.5667801 23,43.5" id="Fill-857" fill="#8AEAB7" transform="translate(19.500000, 43.500000) rotate(-90.000000) translate(-19.500000, -43.500000) "></path>
                    <path d="M23,35.5 C23,37.4332199 21.43285,39 19.5002382,39 C17.56715,39 16,37.4332199 16,35.5 C16,33.5667801 17.56715,32 19.5002382,32 C21.43285,32 23,33.5667801 23,35.5" id="Fill-859" fill="#8AEAB7" transform="translate(19.500000, 35.500000) rotate(-90.000000) translate(-19.500000, -35.500000) "></path>
                    <path d="M23,19.5 C23,21.4332199 21.43285,23 19.5002382,23 C17.56715,23 16,21.4332199 16,19.5 C16,17.5667801 17.56715,16 19.5002382,16 C21.43285,16 23,17.5667801 23,19.5" id="Fill-861" fill="#8AEAB7" transform="translate(19.500000, 19.500000) rotate(-90.000000) translate(-19.500000, -19.500000) "></path>
                    <path d="M39,59.5 C39,61.4332199 37.43285,63 35.5002382,63 C33.56715,63 32,61.4332199 32,59.5 C32,57.5667801 33.56715,56 35.5002382,56 C37.43285,56 39,57.5667801 39,59.5" id="Fill-871" fill="#8AEAB7" transform="translate(35.500000, 59.500000) rotate(-90.000000) translate(-35.500000, -59.500000) "></path>
                    <path d="M39,11.5 C39,13.4332199 37.43285,15 35.5002382,15 C33.56715,15 32,13.4332199 32,11.5 C32,9.56678012 33.56715,8 35.5002382,8 C37.43285,8 39,9.56678012 39,11.5" id="Fill-873" fill="#8AEAB7" transform="translate(35.500000, 11.500000) rotate(-90.000000) translate(-35.500000, -11.500000) "></path>
                    <path d="M47,19.5 C47,21.4332199 45.43285,23 43.5002382,23 C41.56715,23 40,21.4332199 40,19.5 C40,17.5667801 41.56715,16 43.5002382,16 C45.43285,16 47,17.5667801 47,19.5" id="Fill-885" fill="#8AEAB7" transform="translate(43.500000, 19.500000) rotate(-90.000000) translate(-43.500000, -19.500000) "></path>
                    <path d="M55,35.5 C55,37.4332199 53.43285,39 51.5002382,39 C49.56715,39 48,37.4332199 48,35.5 C48,33.5667801 49.56715,32 51.5002382,32 C53.43285,32 55,33.5667801 55,35.5" id="Fill-893" fill="#8AEAB7" transform="translate(51.500000, 35.500000) rotate(-90.000000) translate(-51.500000, -35.500000) "></path>
                    <path d="M55,11.5 C55,13.4332199 53.43285,15 51.5002382,15 C49.56715,15 48,13.4332199 48,11.5 C48,9.56678012 49.56715,8 51.5002382,8 C53.43285,8 55,9.56678012 55,11.5" id="Fill-895" fill="#8AEAB7" transform="translate(51.500000, 11.500000) rotate(-90.000000) translate(-51.500000, -11.500000) "></path>
                    <path d="M63,107.5 C63,109.43322 61.43285,111 59.5002382,111 C57.56715,111 56,109.43322 56,107.5 C56,105.56678 57.56715,104 59.5002382,104 C61.43285,104 63,105.56678 63,107.5" id="Fill-905" fill="#8AEAB7" transform="translate(59.500000, 107.500000) rotate(-90.000000) translate(-59.500000, -107.500000) "></path>
                    <path d="M63,19.5 C63,21.4332199 61.43285,23 59.5002382,23 C57.56715,23 56,21.4332199 56,19.5 C56,17.5667801 57.56715,16 59.5002382,16 C61.43285,16 63,17.5667801 63,19.5" id="Fill-907" fill="#8AEAB7" transform="translate(59.500000, 19.500000) rotate(-90.000000) translate(-59.500000, -19.500000) "></path>
                    <path d="M71,115.5 C71,117.43322 69.43285,119 67.5002382,119 C65.56715,119 64,117.43322 64,115.5 C64,113.56678 65.56715,112 67.5002382,112 C69.43285,112 71,113.56678 71,115.5" id="Fill-915" fill="#8AEAB7" transform="translate(67.500000, 115.500000) rotate(-90.000000) translate(-67.500000, -115.500000) "></path>
                    <path d="M71,107.5 C71,109.43322 69.43285,111 67.5002382,111 C65.56715,111 64,109.43322 64,107.5 C64,105.56678 65.56715,104 67.5002382,104 C69.43285,104 71,105.56678 71,107.5" id="Fill-917" fill="#8AEAB7" transform="translate(67.500000, 107.500000) rotate(-90.000000) translate(-67.500000, -107.500000) "></path>
                    <path d="M71,99.5 C71,101.43322 69.43285,103 67.5002382,103 C65.56715,103 64,101.43322 64,99.5 C64,97.5667801 65.56715,96 67.5002382,96 C69.43285,96 71,97.5667801 71,99.5" id="Fill-919" fill="#8AEAB7" transform="translate(67.500000, 99.500000) rotate(-90.000000) translate(-67.500000, -99.500000) "></path>
                    <path d="M71,83.5 C71,85.4332199 69.43285,87 67.5002382,87 C65.56715,87 64,85.4332199 64,83.5 C64,81.5667801 65.56715,80 67.5002382,80 C69.43285,80 71,81.5667801 71,83.5" id="Fill-921" fill="#8AEAB7" transform="translate(67.500000, 83.500000) rotate(-90.000000) translate(-67.500000, -83.500000) "></path>
                    <path d="M71,19.5 C71,21.4332199 69.43285,23 67.5002382,23 C65.56715,23 64,21.4332199 64,19.5 C64,17.5667801 65.56715,16 67.5002382,16 C69.43285,16 71,17.5667801 71,19.5" id="Fill-923" fill="#8AEAB7" transform="translate(67.500000, 19.500000) rotate(-90.000000) translate(-67.500000, -19.500000) "></path>
                    <path d="M79,91.5 C79,93.4332199 77.43285,95 75.5002382,95 C73.56715,95 72,93.4332199 72,91.5 C72,89.5667801 73.56715,88 75.5002382,88 C77.43285,88 79,89.5667801 79,91.5" id="Fill-931" fill="#8AEAB7" transform="translate(75.500000, 91.500000) rotate(-90.000000) translate(-75.500000, -91.500000) "></path>
                    <path d="M79,67.5 C79,69.4332199 77.43285,71 75.5002382,71 C73.56715,71 72,69.4332199 72,67.5 C72,65.5667801 73.56715,64 75.5002382,64 C77.43285,64 79,65.5667801 79,67.5" id="Fill-933" fill="#8AEAB7" transform="translate(75.500000, 67.500000) rotate(-90.000000) translate(-75.500000, -67.500000) "></path>
                    <path d="M79,43.5 C79,45.4332199 77.43285,47 75.5002382,47 C73.56715,47 72,45.4332199 72,43.5 C72,41.5667801 73.56715,40 75.5002382,40 C77.43285,40 79,41.5667801 79,43.5" id="Fill-935" fill="#8AEAB7" transform="translate(75.500000, 43.500000) rotate(-90.000000) translate(-75.500000, -43.500000) "></path>
                    <path d="M79,19.5 C79,21.4332199 77.43285,23 75.5002382,23 C73.56715,23 72,21.4332199 72,19.5 C72,17.5667801 73.56715,16 75.5002382,16 C77.43285,16 79,17.5667801 79,19.5" id="Fill-937" fill="#8AEAB7" transform="translate(75.500000, 19.500000) rotate(-90.000000) translate(-75.500000, -19.500000) "></path>
                    <path d="M79,11.5 C79,13.4332199 77.43285,15 75.5002382,15 C73.56715,15 72,13.4332199 72,11.5 C72,9.56678012 73.56715,8 75.5002382,8 C77.43285,8 79,9.56678012 79,11.5" id="Fill-939" fill="#8AEAB7" transform="translate(75.500000, 11.500000) rotate(-90.000000) translate(-75.500000, -11.500000) "></path>
                    <path d="M87,123.5 C87,125.43322 85.43285,127 83.5002382,127 C81.56715,127 80,125.43322 80,123.5 C80,121.56678 81.56715,120 83.5002382,120 C85.43285,120 87,121.56678 87,123.5" id="Fill-949" fill="#8AEAB7" transform="translate(83.500000, 123.500000) rotate(-90.000000) translate(-83.500000, -123.500000) "></path>
                    <path d="M87,75.5 C87,77.4332199 85.43285,79 83.5002382,79 C81.56715,79 80,77.4332199 80,75.5 C80,73.5667801 81.56715,72 83.5002382,72 C85.43285,72 87,73.5667801 87,75.5" id="Fill-951" fill="#8AEAB7" transform="translate(83.500000, 75.500000) rotate(-90.000000) translate(-83.500000, -75.500000) "></path>
                    <path d="M87,59.5 C87,61.4332199 85.43285,63 83.5002382,63 C81.56715,63 80,61.4332199 80,59.5 C80,57.5667801 81.56715,56 83.5002382,56 C85.43285,56 87,57.5667801 87,59.5" id="Fill-953" fill="#8AEAB7" transform="translate(83.500000, 59.500000) rotate(-90.000000) translate(-83.500000, -59.500000) "></path>
                    <path d="M87,43.5 C87,45.4332199 85.43285,47 83.5002382,47 C81.56715,47 80,45.4332199 80,43.5 C80,41.5667801 81.56715,40 83.5002382,40 C85.43285,40 87,41.5667801 87,43.5" id="Fill-955" fill="#8AEAB7" transform="translate(83.500000, 43.500000) rotate(-90.000000) translate(-83.500000, -43.500000) "></path>
                    <path d="M87,27.5 C87,29.4332199 85.43285,31 83.5002382,31 C81.56715,31 80,29.4332199 80,27.5 C80,25.5667801 81.56715,24 83.5002382,24 C85.43285,24 87,25.5667801 87,27.5" id="Fill-957" fill="#8AEAB7" transform="translate(83.500000, 27.500000) rotate(-90.000000) translate(-83.500000, -27.500000) "></path>
                    <path d="M103,35.5 C103,37.4332199 101.43285,39 99.5002382,39 C97.56715,39 96,37.4332199 96,35.5 C96,33.5667801 97.56715,32 99.5002382,32 C101.43285,32 103,33.5667801 103,35.5" id="Fill-969" fill="#8AEAB7" transform="translate(99.500000, 35.500000) rotate(-90.000000) translate(-99.500000, -35.500000) "></path>
                    <path d="M103,27.5 C103,29.4332199 101.43285,31 99.5002382,31 C97.56715,31 96,29.4332199 96,27.5 C96,25.5667801 97.56715,24 99.5002382,24 C101.43285,24 103,25.5667801 103,27.5" id="Fill-971" fill="#8AEAB7" transform="translate(99.500000, 27.500000) rotate(-90.000000) translate(-99.500000, -27.500000) "></path>
                    <path d="M111,59.5 C111,61.4332199 109.43285,63 107.500238,63 C105.56715,63 104,61.4332199 104,59.5 C104,57.5667801 105.56715,56 107.500238,56 C109.43285,56 111,57.5667801 111,59.5" id="Fill-977" fill="#8AEAB7" transform="translate(107.500000, 59.500000) rotate(-90.000000) translate(-107.500000, -59.500000) "></path>
                    <path d="M111,51.5 C111,53.4332199 109.43285,55 107.500238,55 C105.56715,55 104,53.4332199 104,51.5 C104,49.5667801 105.56715,48 107.500238,48 C109.43285,48 111,49.5667801 111,51.5" id="Fill-979" fill="#8AEAB7" transform="translate(107.500000, 51.500000) rotate(-90.000000) translate(-107.500000, -51.500000) "></path>
                    <path d="M119,123.5 C119,125.43322 117.43285,127 115.500238,127 C113.56715,127 112,125.43322 112,123.5 C112,121.56678 113.56715,120 115.500238,120 C117.43285,120 119,121.56678 119,123.5" id="Fill-981" fill="#8AEAB7" transform="translate(115.500000, 123.500000) rotate(-90.000000) translate(-115.500000, -123.500000) "></path>
                    <path d="M127,99.5 C127,101.43322 125.43285,103 123.500238,103 C121.56715,103 120,101.43322 120,99.5 C120,97.5667801 121.56715,96 123.500238,96 C125.43285,96 127,97.5667801 127,99.5" id="Fill-983" fill="#8AEAB7" transform="translate(123.500000, 99.500000) rotate(-90.000000) translate(-123.500000, -99.500000) "></path>
                    <path d="M127,59.5 C127,61.4332199 125.43285,63 123.500238,63 C121.56715,63 120,61.4332199 120,59.5 C120,57.5667801 121.56715,56 123.500238,56 C125.43285,56 127,57.5667801 127,59.5" id="Fill-985" fill="#8AEAB7" transform="translate(123.500000, 59.500000) rotate(-90.000000) translate(-123.500000, -59.500000) "></path>
                    <path d="M7,11.5 C7,13.4332199 5.43285004,15 3.50023824,15 C1.56714996,15 0,13.4332199 0,11.5 C0,9.56678012 1.56714996,8 3.50023824,8 C5.43285004,8 7,9.56678012 7,11.5" id="Fill-987" fill="#8AEAB7" transform="translate(3.500000, 11.500000) rotate(-90.000000) translate(-3.500000, -11.500000) "></path>
                    <path d="M15,91.5 C15,93.4332199 13.43285,95 11.5002382,95 C9.56714996,95 8,93.4332199 8,91.5 C8,89.5667801 9.56714996,88 11.5002382,88 C13.43285,88 15,89.5667801 15,91.5" id="Fill-989" fill="#8AEAB7" transform="translate(11.500000, 91.500000) rotate(-90.000000) translate(-11.500000, -91.500000) "></path>
                    <path d="M23,91.5 C23,93.4332199 21.43285,95 19.5002382,95 C17.56715,95 16,93.4332199 16,91.5 C16,89.5667801 17.56715,88 19.5002382,88 C21.43285,88 23,89.5667801 23,91.5" id="Fill-993" fill="#8AEAB7" transform="translate(19.500000, 91.500000) rotate(-90.000000) translate(-19.500000, -91.500000) "></path>
                    <path d="M23,75.5 C23,77.4332199 21.43285,79 19.5002382,79 C17.56715,79 16,77.4332199 16,75.5 C16,73.5667801 17.56715,72 19.5002382,72 C21.43285,72 23,73.5667801 23,75.5" id="Fill-995" fill="#8AEAB7" transform="translate(19.500000, 75.500000) rotate(-90.000000) translate(-19.500000, -75.500000) "></path>
                    <path d="M31,123.5 C31,125.43322 29.43285,127 27.5002382,127 C25.56715,127 24,125.43322 24,123.5 C24,121.56678 25.56715,120 27.5002382,120 C29.43285,120 31,121.56678 31,123.5" id="Fill-1001" fill="#8AEAB7" transform="translate(27.500000, 123.500000) rotate(-90.000000) translate(-27.500000, -123.500000) "></path>
                    <path d="M31,99.5 C31,101.43322 29.43285,103 27.5002382,103 C25.56715,103 24,101.43322 24,99.5 C24,97.5667801 25.56715,96 27.5002382,96 C29.43285,96 31,97.5667801 31,99.5" id="Fill-1003" fill="#8AEAB7" transform="translate(27.500000, 99.500000) rotate(-90.000000) translate(-27.500000, -99.500000) "></path>
                    <path d="M31,91.5 C31,93.4332199 29.43285,95 27.5002382,95 C25.56715,95 24,93.4332199 24,91.5 C24,89.5667801 25.56715,88 27.5002382,88 C29.43285,88 31,89.5667801 31,91.5" id="Fill-1005" fill="#8AEAB7" transform="translate(27.500000, 91.500000) rotate(-90.000000) translate(-27.500000, -91.500000) "></path>
                    <path d="M31,83.5 C31,85.4332199 29.43285,87 27.5002382,87 C25.56715,87 24,85.4332199 24,83.5 C24,81.5667801 25.56715,80 27.5002382,80 C29.43285,80 31,81.5667801 31,83.5" id="Fill-1007" fill="#8AEAB7" transform="translate(27.500000, 83.500000) rotate(-90.000000) translate(-27.500000, -83.500000) "></path>
                    <path d="M31,19.5 C31,21.4332199 29.43285,23 27.5002382,23 C25.56715,23 24,21.4332199 24,19.5 C24,17.5667801 25.56715,16 27.5002382,16 C29.43285,16 31,17.5667801 31,19.5" id="Fill-1009" fill="#8AEAB7" transform="translate(27.500000, 19.500000) rotate(-90.000000) translate(-27.500000, -19.500000) "></path>
                    <path d="M39,123.5 C39,125.43322 37.43285,127 35.5002382,127 C33.56715,127 32,125.43322 32,123.5 C32,121.56678 33.56715,120 35.5002382,120 C37.43285,120 39,121.56678 39,123.5" id="Fill-1013" fill="#8AEAB7" transform="translate(35.500000, 123.500000) rotate(-90.000000) translate(-35.500000, -123.500000) "></path>
                    <path d="M39,115.5 C39,117.43322 37.43285,119 35.5002382,119 C33.56715,119 32,117.43322 32,115.5 C32,113.56678 33.56715,112 35.5002382,112 C37.43285,112 39,113.56678 39,115.5" id="Fill-1015" fill="#8AEAB7" transform="translate(35.500000, 115.500000) rotate(-90.000000) translate(-35.500000, -115.500000) "></path>
                    <path d="M39,107.5 C39,109.43322 37.43285,111 35.5002382,111 C33.56715,111 32,109.43322 32,107.5 C32,105.56678 33.56715,104 35.5002382,104 C37.43285,104 39,105.56678 39,107.5" id="Fill-1017" fill="#8AEAB7" transform="translate(35.500000, 107.500000) rotate(-90.000000) translate(-35.500000, -107.500000) "></path>
                    <path d="M39,91.5 C39,93.4332199 37.43285,95 35.5002382,95 C33.56715,95 32,93.4332199 32,91.5 C32,89.5667801 33.56715,88 35.5002382,88 C37.43285,88 39,89.5667801 39,91.5" id="Fill-1019" fill="#8AEAB7" transform="translate(35.500000, 91.500000) rotate(-90.000000) translate(-35.500000, -91.500000) "></path>
                    <path d="M39,51.5 C39,53.4332199 37.43285,55 35.5002382,55 C33.56715,55 32,53.4332199 32,51.5 C32,49.5667801 33.56715,48 35.5002382,48 C37.43285,48 39,49.5667801 39,51.5" id="Fill-1021" fill="#8AEAB7" transform="translate(35.500000, 51.500000) rotate(-90.000000) translate(-35.500000, -51.500000) "></path>
                    <path d="M47,67.5 C47,69.4332199 45.43285,71 43.5002382,71 C41.56715,71 40,69.4332199 40,67.5 C40,65.5667801 41.56715,64 43.5002382,64 C45.43285,64 47,65.5667801 47,67.5" id="Fill-1027" fill="#8AEAB7" transform="translate(43.500000, 67.500000) rotate(-90.000000) translate(-43.500000, -67.500000) "></path>
                    <path d="M47,35.5 C47,37.4332199 45.43285,39 43.5002382,39 C41.56715,39 40,37.4332199 40,35.5 C40,33.5667801 41.56715,32 43.5002382,32 C45.43285,32 47,33.5667801 47,35.5" id="Fill-1029" fill="#8AEAB7" transform="translate(43.500000, 35.500000) rotate(-90.000000) translate(-43.500000, -35.500000) "></path>
                    <path d="M55,123.5 C55,125.43322 53.43285,127 51.5002382,127 C49.56715,127 48,125.43322 48,123.5 C48,121.56678 49.56715,120 51.5002382,120 C53.43285,120 55,121.56678 55,123.5" id="Fill-1037" fill="#8AEAB7" transform="translate(51.500000, 123.500000) rotate(-90.000000) translate(-51.500000, -123.500000) "></path>
                    <path d="M55,75.5 C55,77.4332199 53.43285,79 51.5002382,79 C49.56715,79 48,77.4332199 48,75.5 C48,73.5667801 49.56715,72 51.5002382,72 C53.43285,72 55,73.5667801 55,75.5" id="Fill-1039" fill="#8AEAB7" transform="translate(51.500000, 75.500000) rotate(-90.000000) translate(-51.500000, -75.500000) "></path>
                    <path d="M55,67.5 C55,69.4332199 53.43285,71 51.5002382,71 C49.56715,71 48,69.4332199 48,67.5 C48,65.5667801 49.56715,64 51.5002382,64 C53.43285,64 55,65.5667801 55,67.5" id="Fill-1041" fill="#8AEAB7" transform="translate(51.500000, 67.500000) rotate(-90.000000) translate(-51.500000, -67.500000) "></path>
                    <path d="M63,75.5 C63,77.4332199 61.43285,79 59.5002382,79 C57.56715,79 56,77.4332199 56,75.5 C56,73.5667801 57.56715,72 59.5002382,72 C61.43285,72 63,73.5667801 63,75.5" id="Fill-1051" fill="#8AEAB7" transform="translate(59.500000, 75.500000) rotate(-90.000000) translate(-59.500000, -75.500000) "></path>
                    <path d="M63,67.5 C63,69.4332199 61.43285,71 59.5002382,71 C57.56715,71 56,69.4332199 56,67.5 C56,65.5667801 57.56715,64 59.5002382,64 C61.43285,64 63,65.5667801 63,67.5" id="Fill-1053" fill="#8AEAB7" transform="translate(59.500000, 67.500000) rotate(-90.000000) translate(-59.500000, -67.500000) "></path>
                    <path d="M63,59.5 C63,61.4332199 61.43285,63 59.5002382,63 C57.56715,63 56,61.4332199 56,59.5 C56,57.5667801 57.56715,56 59.5002382,56 C61.43285,56 63,57.5667801 63,59.5" id="Fill-1055" fill="#8AEAB7" transform="translate(59.500000, 59.500000) rotate(-90.000000) translate(-59.500000, -59.500000) "></path>
                    <path d="M95,75.5 C95,77.4332199 93.43285,79 91.5002382,79 C89.56715,79 88,77.4332199 88,75.5 C88,73.5667801 89.56715,72 91.5002382,72 C93.43285,72 95,73.5667801 95,75.5" id="Fill-1081" fill="#8AEAB7" transform="translate(91.500000, 75.500000) rotate(-90.000000) translate(-91.500000, -75.500000) "></path>
                    <path d="M95,51.5 C95,53.4332199 93.43285,55 91.5002382,55 C89.56715,55 88,53.4332199 88,51.5 C88,49.5667801 89.56715,48 91.5002382,48 C93.43285,48 95,49.5667801 95,51.5" id="Fill-1083" fill="#8AEAB7" transform="translate(91.500000, 51.500000) rotate(-90.000000) translate(-91.500000, -51.500000) "></path>
                    <path d="M103,115.5 C103,117.43322 101.43285,119 99.5002382,119 C97.56715,119 96,117.43322 96,115.5 C96,113.56678 97.56715,112 99.5002382,112 C101.43285,112 103,113.56678 103,115.5" id="Fill-1089" fill="#8AEAB7" transform="translate(99.500000, 115.500000) rotate(-90.000000) translate(-99.500000, -115.500000) "></path>
                    <path d="M103,107.5 C103,109.43322 101.43285,111 99.5002382,111 C97.56715,111 96,109.43322 96,107.5 C96,105.56678 97.56715,104 99.5002382,104 C101.43285,104 103,105.56678 103,107.5" id="Fill-1091" fill="#8AEAB7" transform="translate(99.500000, 107.500000) rotate(-90.000000) translate(-99.500000, -107.500000) "></path>
                    <path d="M103,91.5 C103,93.4332199 101.43285,95 99.5002382,95 C97.56715,95 96,93.4332199 96,91.5 C96,89.5667801 97.56715,88 99.5002382,88 C101.43285,88 103,89.5667801 103,91.5" id="Fill-1093" fill="#8AEAB7" transform="translate(99.500000, 91.500000) rotate(-90.000000) translate(-99.500000, -91.500000) "></path>
                    <path d="M111,99.5 C111,101.43322 109.43285,103 107.500238,103 C105.56715,103 104,101.43322 104,99.5 C104,97.5667801 105.56715,96 107.500238,96 C109.43285,96 111,97.5667801 111,99.5" id="Fill-1103" fill="#8AEAB7" transform="translate(107.500000, 99.500000) rotate(-90.000000) translate(-107.500000, -99.500000) "></path>
                    <path d="M111,91.5 C111,93.4332199 109.43285,95 107.500238,95 C105.56715,95 104,93.4332199 104,91.5 C104,89.5667801 105.56715,88 107.500238,88 C109.43285,88 111,89.5667801 111,91.5" id="Fill-1105" fill="#8AEAB7" transform="translate(107.500000, 91.500000) rotate(-90.000000) translate(-107.500000, -91.500000) "></path>
                    <path d="M111,83.5 C111,85.4332199 109.43285,87 107.500238,87 C105.56715,87 104,85.4332199 104,83.5 C104,81.5667801 105.56715,80 107.500238,80 C109.43285,80 111,81.5667801 111,83.5" id="Fill-1107" fill="#8AEAB7" transform="translate(107.500000, 83.500000) rotate(-90.000000) translate(-107.500000, -83.500000) "></path>
                    <path d="M111,75.5 C111,77.4332199 109.43285,79 107.500238,79 C105.56715,79 104,77.4332199 104,75.5 C104,73.5667801 105.56715,72 107.500238,72 C109.43285,72 111,73.5667801 111,75.5" id="Fill-1109" fill="#8AEAB7" transform="translate(107.500000, 75.500000) rotate(-90.000000) translate(-107.500000, -75.500000) "></path>
                    <path d="M119,19.5 C119,21.4332199 117.43285,23 115.500238,23 C113.56715,23 112,21.4332199 112,19.5 C112,17.5667801 113.56715,16 115.500238,16 C117.43285,16 119,17.5667801 119,19.5" id="Fill-1119" fill="#8AEAB7" transform="translate(115.500000, 19.500000) rotate(-90.000000) translate(-115.500000, -19.500000) "></path>
                    <path d="M119,11.5 C119,13.4332199 117.43285,15 115.500238,15 C113.56715,15 112,13.4332199 112,11.5 C112,9.56678012 113.56715,8 115.500238,8 C117.43285,8 119,9.56678012 119,11.5" id="Fill-1121" fill="#8AEAB7" transform="translate(115.500000, 11.500000) rotate(-90.000000) translate(-115.500000, -11.500000) "></path>
                    <path d="M127,83.5 C127,85.4332199 125.43285,87 123.500238,87 C121.56715,87 120,85.4332199 120,83.5 C120,81.5667801 121.56715,80 123.500238,80 C125.43285,80 127,81.5667801 127,83.5" id="Fill-1133" fill="#8AEAB7" transform="translate(123.500000, 83.500000) rotate(-90.000000) translate(-123.500000, -83.500000) "></path>
                    <path d="M127,19.5 C127,21.4332199 125.43285,23 123.500238,23 C121.56715,23 120,21.4332199 120,19.5 C120,17.5667801 121.56715,16 123.500238,16 C125.43285,16 127,17.5667801 127,19.5" id="Fill-1135" fill="#8AEAB7" transform="translate(123.500000, 19.500000) rotate(-90.000000) translate(-123.500000, -19.500000) "></path>
                    <path d="M127,11.5 C127,13.4332199 125.43285,15 123.500238,15 C121.56715,15 120,13.4332199 120,11.5 C120,9.56678012 121.56715,8 123.500238,8 C125.43285,8 127,9.56678012 127,11.5" id="Fill-1137" fill="#8AEAB7" transform="translate(123.500000, 11.500000) rotate(-90.000000) translate(-123.500000, -11.500000) "></path>
                    <path d="M7,123.5 C7,125.43322 5.43285004,127 3.50023824,127 C1.56714996,127 0,125.43322 0,123.5 C0,121.56678 1.56714996,120 3.50023824,120 C5.43285004,120 7,121.56678 7,123.5" id="Fill-1153" fill="#3CDC87" transform="translate(3.500000, 123.500000) rotate(-90.000000) translate(-3.500000, -123.500000) "></path>
                    <path d="M7,107.5 C7,109.43322 5.43285004,111 3.50023824,111 C1.56714996,111 0,109.43322 0,107.5 C0,105.56678 1.56714996,104 3.50023824,104 C5.43285004,104 7,105.56678 7,107.5" id="Fill-1155" fill="#3CDC87" transform="translate(3.500000, 107.500000) rotate(-90.000000) translate(-3.500000, -107.500000) "></path>
                    <path d="M7,91.5 C7,93.4332199 5.43285004,95 3.50023824,95 C1.56714996,95 0,93.4332199 0,91.5 C0,89.5667801 1.56714996,88 3.50023824,88 C5.43285004,88 7,89.5667801 7,91.5" id="Fill-1157" fill="#3CDC87" transform="translate(3.500000, 91.500000) rotate(-90.000000) translate(-3.500000, -91.500000) "></path>
                    <path d="M7,83.5 C7,85.4332199 5.43285004,87 3.50023824,87 C1.56714996,87 0,85.4332199 0,83.5 C0,81.5667801 1.56714996,80 3.50023824,80 C5.43285004,80 7,81.5667801 7,83.5" id="Fill-1159" fill="#3CDC87" transform="translate(3.500000, 83.500000) rotate(-90.000000) translate(-3.500000, -83.500000) "></path>
                    <path d="M7,67.5 C7,69.4332199 5.43285004,71 3.50023824,71 C1.56714996,71 0,69.4332199 0,67.5 C0,65.5667801 1.56714996,64 3.50023824,64 C5.43285004,64 7,65.5667801 7,67.5" id="Fill-1161" fill="#3CDC87" transform="translate(3.500000, 67.500000) rotate(-90.000000) translate(-3.500000, -67.500000) "></path>
                    <path d="M7,35.5 C7,37.4332199 5.43285004,39 3.50023824,39 C1.56714996,39 0,37.4332199 0,35.5 C0,33.5667801 1.56714996,32 3.50023824,32 C5.43285004,32 7,33.5667801 7,35.5" id="Fill-1163" fill="#3CDC87" transform="translate(3.500000, 35.500000) rotate(-90.000000) translate(-3.500000, -35.500000) "></path>
                    <path d="M7,27.5 C7,29.4332199 5.43285004,31 3.50023824,31 C1.56714996,31 0,29.4332199 0,27.5 C0,25.5667801 1.56714996,24 3.50023824,24 C5.43285004,24 7,25.5667801 7,27.5" id="Fill-1165" fill="#3CDC87" transform="translate(3.500000, 27.500000) rotate(-90.000000) translate(-3.500000, -27.500000) "></path>
                    <path d="M7,19.5 C7,21.4332199 5.43285004,23 3.50023824,23 C1.56714996,23 0,21.4332199 0,19.5 C0,17.5667801 1.56714996,16 3.50023824,16 C5.43285004,16 7,17.5667801 7,19.5" id="Fill-1167" fill="#3CDC87" transform="translate(3.500000, 19.500000) rotate(-90.000000) translate(-3.500000, -19.500000) "></path>
                    <path d="M15,123.5 C15,125.43322 13.43285,127 11.5002382,127 C9.56714996,127 8,125.43322 8,123.5 C8,121.56678 9.56714996,120 11.5002382,120 C13.43285,120 15,121.56678 15,123.5" id="Fill-1185" fill="#3CDC87" transform="translate(11.500000, 123.500000) rotate(-90.000000) translate(-11.500000, -123.500000) "></path>
                    <path d="M15,115.5 C15,117.43322 13.43285,119 11.5002382,119 C9.56714996,119 8,117.43322 8,115.5 C8,113.56678 9.56714996,112 11.5002382,112 C13.43285,112 15,113.56678 15,115.5" id="Fill-1187" fill="#3CDC87" transform="translate(11.500000, 115.500000) rotate(-90.000000) translate(-11.500000, -115.500000) "></path>
                    <path d="M15,99.5 C15,101.43322 13.43285,103 11.5002382,103 C9.56714996,103 8,101.43322 8,99.5 C8,97.5667801 9.56714996,96 11.5002382,96 C13.43285,96 15,97.5667801 15,99.5" id="Fill-1189" fill="#3CDC87" transform="translate(11.500000, 99.500000) rotate(-90.000000) translate(-11.500000, -99.500000) "></path>
                    <path d="M15,75.5 C15,77.4332199 13.43285,79 11.5002382,79 C9.56714996,79 8,77.4332199 8,75.5 C8,73.5667801 9.56714996,72 11.5002382,72 C13.43285,72 15,73.5667801 15,75.5" id="Fill-1191" fill="#3CDC87" transform="translate(11.500000, 75.500000) rotate(-90.000000) translate(-11.500000, -75.500000) "></path>
                    <path d="M15,67.5 C15,69.4332199 13.43285,71 11.5002382,71 C9.56714996,71 8,69.4332199 8,67.5 C8,65.5667801 9.56714996,64 11.5002382,64 C13.43285,64 15,65.5667801 15,67.5" id="Fill-1193" fill="#3CDC87" transform="translate(11.500000, 67.500000) rotate(-90.000000) translate(-11.500000, -67.500000) "></path>
                    <path d="M15,59.5 C15,61.4332199 13.43285,63 11.5002382,63 C9.56714996,63 8,61.4332199 8,59.5 C8,57.5667801 9.56714996,56 11.5002382,56 C13.43285,56 15,57.5667801 15,59.5" id="Fill-1195" fill="#3CDC87" transform="translate(11.500000, 59.500000) rotate(-90.000000) translate(-11.500000, -59.500000) "></path>
                    <path d="M15,51.5 C15,53.4332199 13.43285,55 11.5002382,55 C9.56714996,55 8,53.4332199 8,51.5 C8,49.5667801 9.56714996,48 11.5002382,48 C13.43285,48 15,49.5667801 15,51.5" id="Fill-1197" fill="#3CDC87" transform="translate(11.500000, 51.500000) rotate(-90.000000) translate(-11.500000, -51.500000) "></path>
                    <path d="M15,19.5 C15,21.4332199 13.43285,23 11.5002382,23 C9.56714996,23 8,21.4332199 8,19.5 C8,17.5667801 9.56714996,16 11.5002382,16 C13.43285,16 15,17.5667801 15,19.5" id="Fill-1199" fill="#3CDC87" transform="translate(11.500000, 19.500000) rotate(-90.000000) translate(-11.500000, -19.500000) "></path>
                    <path d="M15,11.5 C15,13.4332199 13.43285,15 11.5002382,15 C9.56714996,15 8,13.4332199 8,11.5 C8,9.56678012 9.56714996,8 11.5002382,8 C13.43285,8 15,9.56678012 15,11.5" id="Fill-1201" fill="#3CDC87" transform="translate(11.500000, 11.500000) rotate(-90.000000) translate(-11.500000, -11.500000) "></path>
                    <path d="M23,123.5 C23,125.43322 21.43285,127 19.5002382,127 C17.56715,127 16,125.43322 16,123.5 C16,121.56678 17.56715,120 19.5002382,120 C21.43285,120 23,121.56678 23,123.5" id="Fill-1217" fill="#3CDC87" transform="translate(19.500000, 123.500000) rotate(-90.000000) translate(-19.500000, -123.500000) "></path>
                    <path d="M23,115.5 C23,117.43322 21.43285,119 19.5002382,119 C17.56715,119 16,117.43322 16,115.5 C16,113.56678 17.56715,112 19.5002382,112 C21.43285,112 23,113.56678 23,115.5" id="Fill-1219" fill="#3CDC87" transform="translate(19.500000, 115.500000) rotate(-90.000000) translate(-19.500000, -115.500000) "></path>
                    <path d="M23,107.5 C23,109.43322 21.43285,111 19.5002382,111 C17.56715,111 16,109.43322 16,107.5 C16,105.56678 17.56715,104 19.5002382,104 C21.43285,104 23,105.56678 23,107.5" id="Fill-1221" fill="#3CDC87" transform="translate(19.500000, 107.500000) rotate(-90.000000) translate(-19.500000, -107.500000) "></path>
                    <path d="M23,99.5 C23,101.43322 21.43285,103 19.5002382,103 C17.56715,103 16,101.43322 16,99.5 C16,97.5667801 17.56715,96 19.5002382,96 C21.43285,96 23,97.5667801 23,99.5" id="Fill-1223" fill="#3CDC87" transform="translate(19.500000, 99.500000) rotate(-90.000000) translate(-19.500000, -99.500000) "></path>
                    <path d="M23,83.5 C23,85.4332199 21.43285,87 19.5002382,87 C17.56715,87 16,85.4332199 16,83.5 C16,81.5667801 17.56715,80 19.5002382,80 C21.43285,80 23,81.5667801 23,83.5" id="Fill-1225" fill="#3CDC87" transform="translate(19.500000, 83.500000) rotate(-90.000000) translate(-19.500000, -83.500000) "></path>
                    <path d="M23,59.5 C23,61.4332199 21.43285,63 19.5002382,63 C17.56715,63 16,61.4332199 16,59.5 C16,57.5667801 17.56715,56 19.5002382,56 C21.43285,56 23,57.5667801 23,59.5" id="Fill-1227" fill="#3CDC87" transform="translate(19.500000, 59.500000) rotate(-90.000000) translate(-19.500000, -59.500000) "></path>
                    <path d="M23,27.5 C23,29.4332199 21.43285,31 19.5002382,31 C17.56715,31 16,29.4332199 16,27.5 C16,25.5667801 17.56715,24 19.5002382,24 C21.43285,24 23,25.5667801 23,27.5" id="Fill-1229" fill="#3CDC87" transform="translate(19.500000, 27.500000) rotate(-90.000000) translate(-19.500000, -27.500000) "></path>
                    <path d="M23,11.5 C23,13.4332199 21.43285,15 19.5002382,15 C17.56715,15 16,13.4332199 16,11.5 C16,9.56678012 17.56715,8 19.5002382,8 C21.43285,8 23,9.56678012 23,11.5" id="Fill-1231" fill="#3CDC87" transform="translate(19.500000, 11.500000) rotate(-90.000000) translate(-19.500000, -11.500000) "></path>
                    <path d="M31,107.5 C31,109.43322 29.43285,111 27.5002382,111 C25.56715,111 24,109.43322 24,107.5 C24,105.56678 25.56715,104 27.5002382,104 C29.43285,104 31,105.56678 31,107.5" id="Fill-1247" fill="#3CDC87" transform="translate(27.500000, 107.500000) rotate(-90.000000) translate(-27.500000, -107.500000) "></path>
                    <path d="M31,75.5 C31,77.4332199 29.43285,79 27.5002382,79 C25.56715,79 24,77.4332199 24,75.5 C24,73.5667801 25.56715,72 27.5002382,72 C29.43285,72 31,73.5667801 31,75.5" id="Fill-1249" fill="#3CDC87" transform="translate(27.500000, 75.500000) rotate(-90.000000) translate(-27.500000, -75.500000) "></path>
                    <path d="M31,67.5 C31,69.4332199 29.43285,71 27.5002382,71 C25.56715,71 24,69.4332199 24,67.5 C24,65.5667801 25.56715,64 27.5002382,64 C29.43285,64 31,65.5667801 31,67.5" id="Fill-1251" fill="#3CDC87" transform="translate(27.500000, 67.500000) rotate(-90.000000) translate(-27.500000, -67.500000) "></path>
                    <path d="M31,59.5 C31,61.4332199 29.43285,63 27.5002382,63 C25.56715,63 24,61.4332199 24,59.5 C24,57.5667801 25.56715,56 27.5002382,56 C29.43285,56 31,57.5667801 31,59.5" id="Fill-1253" fill="#3CDC87" transform="translate(27.500000, 59.500000) rotate(-90.000000) translate(-27.500000, -59.500000) "></path>
                    <path d="M31,51.5 C31,53.4332199 29.43285,55 27.5002382,55 C25.56715,55 24,53.4332199 24,51.5 C24,49.5667801 25.56715,48 27.5002382,48 C29.43285,48 31,49.5667801 31,51.5" id="Fill-1255" fill="#3CDC87" transform="translate(27.500000, 51.500000) rotate(-90.000000) translate(-27.500000, -51.500000) "></path>
                    <path d="M31,43.5 C31,45.4332199 29.43285,47 27.5002382,47 C25.56715,47 24,45.4332199 24,43.5 C24,41.5667801 25.56715,40 27.5002382,40 C29.43285,40 31,41.5667801 31,43.5" id="Fill-1257" fill="#3CDC87" transform="translate(27.500000, 43.500000) rotate(-90.000000) translate(-27.500000, -43.500000) "></path>
                    <path d="M31,27.5 C31,29.4332199 29.43285,31 27.5002382,31 C25.56715,31 24,29.4332199 24,27.5 C24,25.5667801 25.56715,24 27.5002382,24 C29.43285,24 31,25.5667801 31,27.5" id="Fill-1259" fill="#3CDC87" transform="translate(27.500000, 27.500000) rotate(-90.000000) translate(-27.500000, -27.500000) "></path>
                    <path d="M31,11.5 C31,13.4332199 29.43285,15 27.5002382,15 C25.56715,15 24,13.4332199 24,11.5 C24,9.56678012 25.56715,8 27.5002382,8 C29.43285,8 31,9.56678012 31,11.5" id="Fill-1261" fill="#3CDC87" transform="translate(27.500000, 11.500000) rotate(-90.000000) translate(-27.500000, -11.500000) "></path>
                    <path d="M39,99.5 C39,101.43322 37.43285,103 35.5002382,103 C33.56715,103 32,101.43322 32,99.5 C32,97.5667801 33.56715,96 35.5002382,96 C37.43285,96 39,97.5667801 39,99.5" id="Fill-1283" fill="#3CDC87" transform="translate(35.500000, 99.500000) rotate(-90.000000) translate(-35.500000, -99.500000) "></path>
                    <path d="M39,83.5 C39,85.4332199 37.43285,87 35.5002382,87 C33.56715,87 32,85.4332199 32,83.5 C32,81.5667801 33.56715,80 35.5002382,80 C37.43285,80 39,81.5667801 39,83.5" id="Fill-1285" fill="#3CDC87" transform="translate(35.500000, 83.500000) rotate(-90.000000) translate(-35.500000, -83.500000) "></path>
                    <path d="M39,75.5 C39,77.4332199 37.43285,79 35.5002382,79 C33.56715,79 32,77.4332199 32,75.5 C32,73.5667801 33.56715,72 35.5002382,72 C37.43285,72 39,73.5667801 39,75.5" id="Fill-1287" fill="#3CDC87" transform="translate(35.500000, 75.500000) rotate(-90.000000) translate(-35.500000, -75.500000) "></path>
                    <path d="M39,67.5 C39,69.4332199 37.43285,71 35.5002382,71 C33.56715,71 32,69.4332199 32,67.5 C32,65.5667801 33.56715,64 35.5002382,64 C37.43285,64 39,65.5667801 39,67.5" id="Fill-1289" fill="#3CDC87" transform="translate(35.500000, 67.500000) rotate(-90.000000) translate(-35.500000, -67.500000) "></path>
                    <path d="M39,43.5 C39,45.4332199 37.43285,47 35.5002382,47 C33.56715,47 32,45.4332199 32,43.5 C32,41.5667801 33.56715,40 35.5002382,40 C37.43285,40 39,41.5667801 39,43.5" id="Fill-1291" fill="#3CDC87" transform="translate(35.500000, 43.500000) rotate(-90.000000) translate(-35.500000, -43.500000) "></path>
                    <path d="M39,35.5 C39,37.4332199 37.43285,39 35.5002382,39 C33.56715,39 32,37.4332199 32,35.5 C32,33.5667801 33.56715,32 35.5002382,32 C37.43285,32 39,33.5667801 39,35.5" id="Fill-1293" fill="#3CDC87" transform="translate(35.500000, 35.500000) rotate(-90.000000) translate(-35.500000, -35.500000) "></path>
                    <path d="M39,27.5 C39,29.4332199 37.43285,31 35.5002382,31 C33.56715,31 32,29.4332199 32,27.5 C32,25.5667801 33.56715,24 35.5002382,24 C37.43285,24 39,25.5667801 39,27.5" id="Fill-1295" fill="#3CDC87" transform="translate(35.500000, 27.500000) rotate(-90.000000) translate(-35.500000, -27.500000) "></path>
                    <path d="M39,19.5 C39,21.4332199 37.43285,23 35.5002382,23 C33.56715,23 32,21.4332199 32,19.5 C32,17.5667801 33.56715,16 35.5002382,16 C37.43285,16 39,17.5667801 39,19.5" id="Fill-1297" fill="#3CDC87" transform="translate(35.500000, 19.500000) rotate(-90.000000) translate(-35.500000, -19.500000) "></path>
                    <path d="M47,123.5 C47,125.43322 45.43285,127 43.5002382,127 C41.56715,127 40,125.43322 40,123.5 C40,121.56678 41.56715,120 43.5002382,120 C45.43285,120 47,121.56678 47,123.5" id="Fill-1313" fill="#3CDC87" transform="translate(43.500000, 123.500000) rotate(-90.000000) translate(-43.500000, -123.500000) "></path>
                    <path d="M47,115.5 C47,117.43322 45.43285,119 43.5002382,119 C41.56715,119 40,117.43322 40,115.5 C40,113.56678 41.56715,112 43.5002382,112 C45.43285,112 47,113.56678 47,115.5" id="Fill-1315" fill="#3CDC87" transform="translate(43.500000, 115.500000) rotate(-90.000000) translate(-43.500000, -115.500000) "></path>
                    <path d="M47,107.5 C47,109.43322 45.43285,111 43.5002382,111 C41.56715,111 40,109.43322 40,107.5 C40,105.56678 41.56715,104 43.5002382,104 C45.43285,104 47,105.56678 47,107.5" id="Fill-1317" fill="#3CDC87" transform="translate(43.500000, 107.500000) rotate(-90.000000) translate(-43.500000, -107.500000) "></path>
                    <path d="M47,99.5 C47,101.43322 45.43285,103 43.5002382,103 C41.56715,103 40,101.43322 40,99.5 C40,97.5667801 41.56715,96 43.5002382,96 C45.43285,96 47,97.5667801 47,99.5" id="Fill-1319" fill="#3CDC87" transform="translate(43.500000, 99.500000) rotate(-90.000000) translate(-43.500000, -99.500000) "></path>
                    <path d="M47,91.5 C47,93.4332199 45.43285,95 43.5002382,95 C41.56715,95 40,93.4332199 40,91.5 C40,89.5667801 41.56715,88 43.5002382,88 C45.43285,88 47,89.5667801 47,91.5" id="Fill-1321" fill="#3CDC87" transform="translate(43.500000, 91.500000) rotate(-90.000000) translate(-43.500000, -91.500000) "></path>
                    <path d="M47,75.5 C47,77.4332199 45.43285,79 43.5002382,79 C41.56715,79 40,77.4332199 40,75.5 C40,73.5667801 41.56715,72 43.5002382,72 C45.43285,72 47,73.5667801 47,75.5" id="Fill-1323" fill="#3CDC87" transform="translate(43.500000, 75.500000) rotate(-90.000000) translate(-43.500000, -75.500000) "></path>
                    <path d="M47,59.5 C47,61.4332199 45.43285,63 43.5002382,63 C41.56715,63 40,61.4332199 40,59.5 C40,57.5667801 41.56715,56 43.5002382,56 C45.43285,56 47,57.5667801 47,59.5" id="Fill-1325" fill="#3CDC87" transform="translate(43.500000, 59.500000) rotate(-90.000000) translate(-43.500000, -59.500000) "></path>
                    <path d="M47,43.5 C47,45.4332199 45.43285,47 43.5002382,47 C41.56715,47 40,45.4332199 40,43.5 C40,41.5667801 41.56715,40 43.5002382,40 C45.43285,40 47,41.5667801 47,43.5" id="Fill-1327" fill="#3CDC87" transform="translate(43.500000, 43.500000) rotate(-90.000000) translate(-43.500000, -43.500000) "></path>
                    <path d="M47,27.5 C47,29.4332199 45.43285,31 43.5002382,31 C41.56715,31 40,29.4332199 40,27.5 C40,25.5667801 41.56715,24 43.5002382,24 C45.43285,24 47,25.5667801 47,27.5" id="Fill-1329" fill="#3CDC87" transform="translate(43.500000, 27.500000) rotate(-90.000000) translate(-43.500000, -27.500000) "></path>
                    <path d="M55,107.5 C55,109.43322 53.43285,111 51.5002382,111 C49.56715,111 48,109.43322 48,107.5 C48,105.56678 49.56715,104 51.5002382,104 C53.43285,104 55,105.56678 55,107.5" id="Fill-1353" fill="#3CDC87" transform="translate(51.500000, 107.500000) rotate(-90.000000) translate(-51.500000, -107.500000) "></path>
                    <path d="M55,83.5 C55,85.4332199 53.43285,87 51.5002382,87 C49.56715,87 48,85.4332199 48,83.5 C48,81.5667801 49.56715,80 51.5002382,80 C53.43285,80 55,81.5667801 55,83.5" id="Fill-1355" fill="#3CDC87" transform="translate(51.500000, 83.500000) rotate(-90.000000) translate(-51.500000, -83.500000) "></path>
                    <path d="M55,59.5 C55,61.4332199 53.43285,63 51.5002382,63 C49.56715,63 48,61.4332199 48,59.5 C48,57.5667801 49.56715,56 51.5002382,56 C53.43285,56 55,57.5667801 55,59.5" id="Fill-1357" fill="#3CDC87" transform="translate(51.500000, 59.500000) rotate(-90.000000) translate(-51.500000, -59.500000) "></path>
                    <path d="M55,51.5 C55,53.4332199 53.43285,55 51.5002382,55 C49.56715,55 48,53.4332199 48,51.5 C48,49.5667801 49.56715,48 51.5002382,48 C53.43285,48 55,49.5667801 55,51.5" id="Fill-1359" fill="#3CDC87" transform="translate(51.500000, 51.500000) rotate(-90.000000) translate(-51.500000, -51.500000) "></path>
                    <path d="M55,43.5 C55,45.4332199 53.43285,47 51.5002382,47 C49.56715,47 48,45.4332199 48,43.5 C48,41.5667801 49.56715,40 51.5002382,40 C53.43285,40 55,41.5667801 55,43.5" id="Fill-1361" fill="#3CDC87" transform="translate(51.500000, 43.500000) rotate(-90.000000) translate(-51.500000, -43.500000) "></path>
                    <path d="M55,27.5 C55,29.4332199 53.43285,31 51.5002382,31 C49.56715,31 48,29.4332199 48,27.5 C48,25.5667801 49.56715,24 51.5002382,24 C53.43285,24 55,25.5667801 55,27.5" id="Fill-1363" fill="#3CDC87" transform="translate(51.500000, 27.500000) rotate(-90.000000) translate(-51.500000, -27.500000) "></path>
                    <path d="M55,19.5 C55,21.4332199 53.43285,23 51.5002382,23 C49.56715,23 48,21.4332199 48,19.5 C48,17.5667801 49.56715,16 51.5002382,16 C53.43285,16 55,17.5667801 55,19.5" id="Fill-1365" fill="#3CDC87" transform="translate(51.500000, 19.500000) rotate(-90.000000) translate(-51.500000, -19.500000) "></path>
                    <path d="M63,115.5 C63,117.43322 61.43285,119 59.5002382,119 C57.56715,119 56,117.43322 56,115.5 C56,113.56678 57.56715,112 59.5002382,112 C61.43285,112 63,113.56678 63,115.5" id="Fill-1383" fill="#3CDC87" transform="translate(59.500000, 115.500000) rotate(-90.000000) translate(-59.500000, -115.500000) "></path>
                    <path d="M63,91.5 C63,93.4332199 61.43285,95 59.5002382,95 C57.56715,95 56,93.4332199 56,91.5 C56,89.5667801 57.56715,88 59.5002382,88 C61.43285,88 63,89.5667801 63,91.5" id="Fill-1385" fill="#3CDC87" transform="translate(59.500000, 91.500000) rotate(-90.000000) translate(-59.500000, -91.500000) "></path>
                    <path d="M63,83.5 C63,85.4332199 61.43285,87 59.5002382,87 C57.56715,87 56,85.4332199 56,83.5 C56,81.5667801 57.56715,80 59.5002382,80 C61.43285,80 63,81.5667801 63,83.5" id="Fill-1387" fill="#3CDC87" transform="translate(59.500000, 83.500000) rotate(-90.000000) translate(-59.500000, -83.500000) "></path>
                    <path d="M63,51.5 C63,53.4332199 61.43285,55 59.5002382,55 C57.56715,55 56,53.4332199 56,51.5 C56,49.5667801 57.56715,48 59.5002382,48 C61.43285,48 63,49.5667801 63,51.5" id="Fill-1389" fill="#3CDC87" transform="translate(59.500000, 51.500000) rotate(-90.000000) translate(-59.500000, -51.500000) "></path>
                    <path d="M63,43.5 C63,45.4332199 61.43285,47 59.5002382,47 C57.56715,47 56,45.4332199 56,43.5 C56,41.5667801 57.56715,40 59.5002382,40 C61.43285,40 63,41.5667801 63,43.5" id="Fill-1391" fill="#3CDC87" transform="translate(59.500000, 43.500000) rotate(-90.000000) translate(-59.500000, -43.500000) "></path>
                    <path d="M63,27.5 C63,29.4332199 61.43285,31 59.5002382,31 C57.56715,31 56,29.4332199 56,27.5 C56,25.5667801 57.56715,24 59.5002382,24 C61.43285,24 63,25.5667801 63,27.5" id="Fill-1393" fill="#3CDC87" transform="translate(59.500000, 27.500000) rotate(-90.000000) translate(-59.500000, -27.500000) "></path>
                    <path d="M63,11.5 C63,13.4332199 61.43285,15 59.5002382,15 C57.56715,15 56,13.4332199 56,11.5 C56,9.56678012 57.56715,8 59.5002382,8 C61.43285,8 63,9.56678012 63,11.5" id="Fill-1395" fill="#3CDC87" transform="translate(59.500000, 11.500000) rotate(-90.000000) translate(-59.500000, -11.500000) "></path>
                    <path d="M71,123.5 C71,125.43322 69.43285,127 67.5002382,127 C65.56715,127 64,125.43322 64,123.5 C64,121.56678 65.56715,120 67.5002382,120 C69.43285,120 71,121.56678 71,123.5" id="Fill-1413" fill="#3CDC87" transform="translate(67.500000, 123.500000) rotate(-90.000000) translate(-67.500000, -123.500000) "></path>
                    <path d="M71,91.5 C71,93.4332199 69.43285,95 67.5002382,95 C65.56715,95 64,93.4332199 64,91.5 C64,89.5667801 65.56715,88 67.5002382,88 C69.43285,88 71,89.5667801 71,91.5" id="Fill-1415" fill="#3CDC87" transform="translate(67.500000, 91.500000) rotate(-90.000000) translate(-67.500000, -91.500000) "></path>
                    <path d="M71,67.5 C71,69.4332199 69.43285,71 67.5002382,71 C65.56715,71 64,69.4332199 64,67.5 C64,65.5667801 65.56715,64 67.5002382,64 C69.43285,64 71,65.5667801 71,67.5" id="Fill-1417" fill="#3CDC87" transform="translate(67.500000, 67.500000) rotate(-90.000000) translate(-67.500000, -67.500000) "></path>
                    <path d="M71,59.5 C71,61.4332199 69.43285,63 67.5002382,63 C65.56715,63 64,61.4332199 64,59.5 C64,57.5667801 65.56715,56 67.5002382,56 C69.43285,56 71,57.5667801 71,59.5" id="Fill-1419" fill="#3CDC87" transform="translate(67.500000, 59.500000) rotate(-90.000000) translate(-67.500000, -59.500000) "></path>
                    <path d="M71,43.5 C71,45.4332199 69.43285,47 67.5002382,47 C65.56715,47 64,45.4332199 64,43.5 C64,41.5667801 65.56715,40 67.5002382,40 C69.43285,40 71,41.5667801 71,43.5" id="Fill-1421" fill="#3CDC87" transform="translate(67.500000, 43.500000) rotate(-90.000000) translate(-67.500000, -43.500000) "></path>
                    <path d="M71,35.5 C71,37.4332199 69.43285,39 67.5002382,39 C65.56715,39 64,37.4332199 64,35.5 C64,33.5667801 65.56715,32 67.5002382,32 C69.43285,32 71,33.5667801 71,35.5" id="Fill-1423" fill="#3CDC87" transform="translate(67.500000, 35.500000) rotate(-90.000000) translate(-67.500000, -35.500000) "></path>
                    <path d="M71,27.5 C71,29.4332199 69.43285,31 67.5002382,31 C65.56715,31 64,29.4332199 64,27.5 C64,25.5667801 65.56715,24 67.5002382,24 C69.43285,24 71,25.5667801 71,27.5" id="Fill-1425" fill="#3CDC87" transform="translate(67.500000, 27.500000) rotate(-90.000000) translate(-67.500000, -27.500000) "></path>
                    <path d="M71,11.5 C71,13.4332199 69.43285,15 67.5002382,15 C65.56715,15 64,13.4332199 64,11.5 C64,9.56678012 65.56715,8 67.5002382,8 C69.43285,8 71,9.56678012 71,11.5" id="Fill-1427" fill="#3CDC87" transform="translate(67.500000, 11.500000) rotate(-90.000000) translate(-67.500000, -11.500000) "></path>
                    <path d="M79,123.5 C79,125.43322 77.43285,127 75.5002382,127 C73.56715,127 72,125.43322 72,123.5 C72,121.56678 73.56715,120 75.5002382,120 C77.43285,120 79,121.56678 79,123.5" id="Fill-1447" fill="#3CDC87" transform="translate(75.500000, 123.500000) rotate(-90.000000) translate(-75.500000, -123.500000) "></path>
                    <path d="M79,115.5 C79,117.43322 77.43285,119 75.5002382,119 C73.56715,119 72,117.43322 72,115.5 C72,113.56678 73.56715,112 75.5002382,112 C77.43285,112 79,113.56678 79,115.5" id="Fill-1449" fill="#3CDC87" transform="translate(75.500000, 115.500000) rotate(-90.000000) translate(-75.500000, -115.500000) "></path>
                    <path d="M79,83.5 C79,85.4332199 77.43285,87 75.5002382,87 C73.56715,87 72,85.4332199 72,83.5 C72,81.5667801 73.56715,80 75.5002382,80 C77.43285,80 79,81.5667801 79,83.5" id="Fill-1451" fill="#3CDC87" transform="translate(75.500000, 83.500000) rotate(-90.000000) translate(-75.500000, -83.500000) "></path>
                    <path d="M79,75.5 C79,77.4332199 77.43285,79 75.5002382,79 C73.56715,79 72,77.4332199 72,75.5 C72,73.5667801 73.56715,72 75.5002382,72 C77.43285,72 79,73.5667801 79,75.5" id="Fill-1453" fill="#3CDC87" transform="translate(75.500000, 75.500000) rotate(-90.000000) translate(-75.500000, -75.500000) "></path>
                    <path d="M79,59.5 C79,61.4332199 77.43285,63 75.5002382,63 C73.56715,63 72,61.4332199 72,59.5 C72,57.5667801 73.56715,56 75.5002382,56 C77.43285,56 79,57.5667801 79,59.5" id="Fill-1455" fill="#3CDC87" transform="translate(75.500000, 59.500000) rotate(-90.000000) translate(-75.500000, -59.500000) "></path>
                    <path d="M79,51.5 C79,53.4332199 77.43285,55 75.5002382,55 C73.56715,55 72,53.4332199 72,51.5 C72,49.5667801 73.56715,48 75.5002382,48 C77.43285,48 79,49.5667801 79,51.5" id="Fill-1457" fill="#3CDC87" transform="translate(75.500000, 51.500000) rotate(-90.000000) translate(-75.500000, -51.500000) "></path>
                    <path d="M79,35.5 C79,37.4332199 77.43285,39 75.5002382,39 C73.56715,39 72,37.4332199 72,35.5 C72,33.5667801 73.56715,32 75.5002382,32 C77.43285,32 79,33.5667801 79,35.5" id="Fill-1459" fill="#3CDC87" transform="translate(75.500000, 35.500000) rotate(-90.000000) translate(-75.500000, -35.500000) "></path>
                    <path d="M79,27.5 C79,29.4332199 77.43285,31 75.5002382,31 C73.56715,31 72,29.4332199 72,27.5 C72,25.5667801 73.56715,24 75.5002382,24 C77.43285,24 79,25.5667801 79,27.5" id="Fill-1461" fill="#3CDC87" transform="translate(75.500000, 27.500000) rotate(-90.000000) translate(-75.500000, -27.500000) "></path>
                    <path d="M87,115.5 C87,117.43322 85.43285,119 83.5002382,119 C81.56715,119 80,117.43322 80,115.5 C80,113.56678 81.56715,112 83.5002382,112 C85.43285,112 87,113.56678 87,115.5" id="Fill-1487" fill="#3CDC87" transform="translate(83.500000, 115.500000) rotate(-90.000000) translate(-83.500000, -115.500000) "></path>
                    <path d="M87,107.5 C87,109.43322 85.43285,111 83.5002382,111 C81.56715,111 80,109.43322 80,107.5 C80,105.56678 81.56715,104 83.5002382,104 C85.43285,104 87,105.56678 87,107.5" id="Fill-1489" fill="#3CDC87" transform="translate(83.500000, 107.500000) rotate(-90.000000) translate(-83.500000, -107.500000) "></path>
                    <path d="M87,83.5 C87,85.4332199 85.43285,87 83.5002382,87 C81.56715,87 80,85.4332199 80,83.5 C80,81.5667801 81.56715,80 83.5002382,80 C85.43285,80 87,81.5667801 87,83.5" id="Fill-1491" fill="#3CDC87" transform="translate(83.500000, 83.500000) rotate(-90.000000) translate(-83.500000, -83.500000) "></path>
                    <path d="M87,67.5 C87,69.4332199 85.43285,71 83.5002382,71 C81.56715,71 80,69.4332199 80,67.5 C80,65.5667801 81.56715,64 83.5002382,64 C85.43285,64 87,65.5667801 87,67.5" id="Fill-1493" fill="#3CDC87" transform="translate(83.500000, 67.500000) rotate(-90.000000) translate(-83.500000, -67.500000) "></path>
                    <path d="M87,19.5 C87,21.4332199 85.43285,23 83.5002382,23 C81.56715,23 80,21.4332199 80,19.5 C80,17.5667801 81.56715,16 83.5002382,16 C85.43285,16 87,17.5667801 87,19.5" id="Fill-1495" fill="#3CDC87" transform="translate(83.500000, 19.500000) rotate(-90.000000) translate(-83.500000, -19.500000) "></path>
                    <path d="M87,11.5 C87,13.4332199 85.43285,15 83.5002382,15 C81.56715,15 80,13.4332199 80,11.5 C80,9.56678012 81.56715,8 83.5002382,8 C85.43285,8 87,9.56678012 87,11.5" id="Fill-1497" fill="#3CDC87" transform="translate(83.500000, 11.500000) rotate(-90.000000) translate(-83.500000, -11.500000) "></path>
                    <path d="M95,123.5 C95,125.43322 93.43285,127 91.5002382,127 C89.56715,127 88,125.43322 88,123.5 C88,121.56678 89.56715,120 91.5002382,120 C93.43285,120 95,121.56678 95,123.5" id="Fill-1515" fill="#3CDC87" transform="translate(91.500000, 123.500000) rotate(-90.000000) translate(-91.500000, -123.500000) "></path>
                    <path d="M95,107.5 C95,109.43322 93.43285,111 91.5002382,111 C89.56715,111 88,109.43322 88,107.5 C88,105.56678 89.56715,104 91.5002382,104 C93.43285,104 95,105.56678 95,107.5" id="Fill-1517" fill="#3CDC87" transform="translate(91.500000, 107.500000) rotate(-90.000000) translate(-91.500000, -107.500000) "></path>
                    <path d="M95,99.5 C95,101.43322 93.43285,103 91.5002382,103 C89.56715,103 88,101.43322 88,99.5 C88,97.5667801 89.56715,96 91.5002382,96 C93.43285,96 95,97.5667801 95,99.5" id="Fill-1519" fill="#3CDC87" transform="translate(91.500000, 99.500000) rotate(-90.000000) translate(-91.500000, -99.500000) "></path>
                    <path d="M95,91.5 C95,93.4332199 93.43285,95 91.5002382,95 C89.56715,95 88,93.4332199 88,91.5 C88,89.5667801 89.56715,88 91.5002382,88 C93.43285,88 95,89.5667801 95,91.5" id="Fill-1521" fill="#3CDC87" transform="translate(91.500000, 91.500000) rotate(-90.000000) translate(-91.500000, -91.500000) "></path>
                    <path d="M95,83.5 C95,85.4332199 93.43285,87 91.5002382,87 C89.56715,87 88,85.4332199 88,83.5 C88,81.5667801 89.56715,80 91.5002382,80 C93.43285,80 95,81.5667801 95,83.5" id="Fill-1523" fill="#3CDC87" transform="translate(91.500000, 83.500000) rotate(-90.000000) translate(-91.500000, -83.500000) "></path>
                    <path d="M95,67.5 C95,69.4332199 93.43285,71 91.5002382,71 C89.56715,71 88,69.4332199 88,67.5 C88,65.5667801 89.56715,64 91.5002382,64 C93.43285,64 95,65.5667801 95,67.5" id="Fill-1525" fill="#3CDC87" transform="translate(91.500000, 67.500000) rotate(-90.000000) translate(-91.500000, -67.500000) "></path>
                    <path d="M95,59.5 C95,61.4332199 93.43285,63 91.5002382,63 C89.56715,63 88,61.4332199 88,59.5 C88,57.5667801 89.56715,56 91.5002382,56 C93.43285,56 95,57.5667801 95,59.5" id="Fill-1527" fill="#3CDC87" transform="translate(91.500000, 59.500000) rotate(-90.000000) translate(-91.500000, -59.500000) "></path>
                    <path d="M95,43.5 C95,45.4332199 93.43285,47 91.5002382,47 C89.56715,47 88,45.4332199 88,43.5 C88,41.5667801 89.56715,40 91.5002382,40 C93.43285,40 95,41.5667801 95,43.5" id="Fill-1529" fill="#3CDC87" transform="translate(91.500000, 43.500000) rotate(-90.000000) translate(-91.500000, -43.500000) "></path>
                    <path d="M95,35.5 C95,37.4332199 93.43285,39 91.5002382,39 C89.56715,39 88,37.4332199 88,35.5 C88,33.5667801 89.56715,32 91.5002382,32 C93.43285,32 95,33.5667801 95,35.5" id="Fill-1531" fill="#3CDC87" transform="translate(91.500000, 35.500000) rotate(-90.000000) translate(-91.500000, -35.500000) "></path>
                    <path d="M95,19.5 C95,21.4332199 93.43285,23 91.5002382,23 C89.56715,23 88,21.4332199 88,19.5 C88,17.5667801 89.56715,16 91.5002382,16 C93.43285,16 95,17.5667801 95,19.5" id="Fill-1533" fill="#3CDC87" transform="translate(91.500000, 19.500000) rotate(-90.000000) translate(-91.500000, -19.500000) "></path>
                    <path d="M103,99.5 C103,101.43322 101.43285,103 99.5002382,103 C97.56715,103 96,101.43322 96,99.5 C96,97.5667801 97.56715,96 99.5002382,96 C101.43285,96 103,97.5667801 103,99.5" id="Fill-1549" fill="#3CDC87" transform="translate(99.500000, 99.500000) rotate(-90.000000) translate(-99.500000, -99.500000) "></path>
                    <path d="M103,83.5 C103,85.4332199 101.43285,87 99.5002382,87 C97.56715,87 96,85.4332199 96,83.5 C96,81.5667801 97.56715,80 99.5002382,80 C101.43285,80 103,81.5667801 103,83.5" id="Fill-1551" fill="#3CDC87" transform="translate(99.500000, 83.500000) rotate(-90.000000) translate(-99.500000, -83.500000) "></path>
                    <path d="M103,75.5 C103,77.4332199 101.43285,79 99.5002382,79 C97.56715,79 96,77.4332199 96,75.5 C96,73.5667801 97.56715,72 99.5002382,72 C101.43285,72 103,73.5667801 103,75.5" id="Fill-1553" fill="#3CDC87" transform="translate(99.500000, 75.500000) rotate(-90.000000) translate(-99.500000, -75.500000) "></path>
                    <path d="M103,59.5 C103,61.4332199 101.43285,63 99.5002382,63 C97.56715,63 96,61.4332199 96,59.5 C96,57.5667801 97.56715,56 99.5002382,56 C101.43285,56 103,57.5667801 103,59.5" id="Fill-1555" fill="#3CDC87" transform="translate(99.500000, 59.500000) rotate(-90.000000) translate(-99.500000, -59.500000) "></path>
                    <path d="M103,51.5 C103,53.4332199 101.43285,55 99.5002382,55 C97.56715,55 96,53.4332199 96,51.5 C96,49.5667801 97.56715,48 99.5002382,48 C101.43285,48 103,49.5667801 103,51.5" id="Fill-1557" fill="#3CDC87" transform="translate(99.500000, 51.500000) rotate(-90.000000) translate(-99.500000, -51.500000) "></path>
                    <path d="M103,43.5 C103,45.4332199 101.43285,47 99.5002382,47 C97.56715,47 96,45.4332199 96,43.5 C96,41.5667801 97.56715,40 99.5002382,40 C101.43285,40 103,41.5667801 103,43.5" id="Fill-1559" fill="#3CDC87" transform="translate(99.500000, 43.500000) rotate(-90.000000) translate(-99.500000, -43.500000) "></path>
                    <path d="M111,107.5 C111,109.43322 109.43285,111 107.500238,111 C105.56715,111 104,109.43322 104,107.5 C104,105.56678 105.56715,104 107.500238,104 C109.43285,104 111,105.56678 111,107.5" id="Fill-1575" fill="#3CDC87" transform="translate(107.500000, 107.500000) rotate(-90.000000) translate(-107.500000, -107.500000) "></path>
                    <path d="M111,67.5 C111,69.4332199 109.43285,71 107.500238,71 C105.56715,71 104,69.4332199 104,67.5 C104,65.5667801 105.56715,64 107.500238,64 C109.43285,64 111,65.5667801 111,67.5" id="Fill-1577" fill="#3CDC87" transform="translate(107.500000, 67.500000) rotate(-90.000000) translate(-107.500000, -67.500000) "></path>
                    <path d="M111,35.5 C111,37.4332199 109.43285,39 107.500238,39 C105.56715,39 104,37.4332199 104,35.5 C104,33.5667801 105.56715,32 107.500238,32 C109.43285,32 111,33.5667801 111,35.5" id="Fill-1579" fill="#3CDC87" transform="translate(107.500000, 35.500000) rotate(-90.000000) translate(-107.500000, -35.500000) "></path>
                    <path d="M111,19.5 C111,21.4332199 109.43285,23 107.500238,23 C105.56715,23 104,21.4332199 104,19.5 C104,17.5667801 105.56715,16 107.500238,16 C109.43285,16 111,17.5667801 111,19.5" id="Fill-1581" fill="#3CDC87" transform="translate(107.500000, 19.500000) rotate(-90.000000) translate(-107.500000, -19.500000) "></path>
                    <path d="M119,115.5 C119,117.43322 117.43285,119 115.500238,119 C113.56715,119 112,117.43322 112,115.5 C112,113.56678 113.56715,112 115.500238,112 C117.43285,112 119,113.56678 119,115.5" id="Fill-1605" fill="#3CDC87" transform="translate(115.500000, 115.500000) rotate(-90.000000) translate(-115.500000, -115.500000) "></path>
                    <path d="M119,107.5 C119,109.43322 117.43285,111 115.500238,111 C113.56715,111 112,109.43322 112,107.5 C112,105.56678 113.56715,104 115.500238,104 C117.43285,104 119,105.56678 119,107.5" id="Fill-1607" fill="#3CDC87" transform="translate(115.500000, 107.500000) rotate(-90.000000) translate(-115.500000, -107.500000) "></path>
                    <path d="M119,91.5 C119,93.4332199 117.43285,95 115.500238,95 C113.56715,95 112,93.4332199 112,91.5 C112,89.5667801 113.56715,88 115.500238,88 C117.43285,88 119,89.5667801 119,91.5" id="Fill-1609" fill="#3CDC87" transform="translate(115.500000, 91.500000) rotate(-90.000000) translate(-115.500000, -91.500000) "></path>
                    <path d="M119,83.5 C119,85.4332199 117.43285,87 115.500238,87 C113.56715,87 112,85.4332199 112,83.5 C112,81.5667801 113.56715,80 115.500238,80 C117.43285,80 119,81.5667801 119,83.5" id="Fill-1611" fill="#3CDC87" transform="translate(115.500000, 83.500000) rotate(-90.000000) translate(-115.500000, -83.500000) "></path>
                    <path d="M119,75.5 C119,77.4332199 117.43285,79 115.500238,79 C113.56715,79 112,77.4332199 112,75.5 C112,73.5667801 113.56715,72 115.500238,72 C117.43285,72 119,73.5667801 119,75.5" id="Fill-1613" fill="#3CDC87" transform="translate(115.500000, 75.500000) rotate(-90.000000) translate(-115.500000, -75.500000) "></path>
                    <path d="M119,67.5 C119,69.4332199 117.43285,71 115.500238,71 C113.56715,71 112,69.4332199 112,67.5 C112,65.5667801 113.56715,64 115.500238,64 C117.43285,64 119,65.5667801 119,67.5" id="Fill-1615" fill="#3CDC87" transform="translate(115.500000, 67.500000) rotate(-90.000000) translate(-115.500000, -67.500000) "></path>
                    <path d="M119,59.5 C119,61.4332199 117.43285,63 115.500238,63 C113.56715,63 112,61.4332199 112,59.5 C112,57.5667801 113.56715,56 115.500238,56 C117.43285,56 119,57.5667801 119,59.5" id="Fill-1617" fill="#3CDC87" transform="translate(115.500000, 59.500000) rotate(-90.000000) translate(-115.500000, -59.500000) "></path>
                    <path d="M119,27.5 C119,29.4332199 117.43285,31 115.500238,31 C113.56715,31 112,29.4332199 112,27.5 C112,25.5667801 113.56715,24 115.500238,24 C117.43285,24 119,25.5667801 119,27.5" id="Fill-1619" fill="#3CDC87" transform="translate(115.500000, 27.500000) rotate(-90.000000) translate(-115.500000, -27.500000) "></path>
                    <path d="M127,123.5 C127,125.43322 125.43285,127 123.500238,127 C121.56715,127 120,125.43322 120,123.5 C120,121.56678 121.56715,120 123.500238,120 C125.43285,120 127,121.56678 127,123.5" id="Fill-1639" fill="#3CDC87" transform="translate(123.500000, 123.500000) rotate(-90.000000) translate(-123.500000, -123.500000) "></path>
                    <path d="M127,107.5 C127,109.43322 125.43285,111 123.500238,111 C121.56715,111 120,109.43322 120,107.5 C120,105.56678 121.56715,104 123.500238,104 C125.43285,104 127,105.56678 127,107.5" id="Fill-1641" fill="#3CDC87" transform="translate(123.500000, 107.500000) rotate(-90.000000) translate(-123.500000, -107.500000) "></path>
                    <path d="M127,91.5 C127,93.4332199 125.43285,95 123.500238,95 C121.56715,95 120,93.4332199 120,91.5 C120,89.5667801 121.56715,88 123.500238,88 C125.43285,88 127,89.5667801 127,91.5" id="Fill-1643" fill="#3CDC87" transform="translate(123.500000, 91.500000) rotate(-90.000000) translate(-123.500000, -91.500000) "></path>
                    <path d="M127,75.5 C127,77.4332199 125.43285,79 123.500238,79 C121.56715,79 120,77.4332199 120,75.5 C120,73.5667801 121.56715,72 123.500238,72 C125.43285,72 127,73.5667801 127,75.5" id="Fill-1645" fill="#3CDC87" transform="translate(123.500000, 75.500000) rotate(-90.000000) translate(-123.500000, -75.500000) "></path>
                    <path d="M127,51.5 C127,53.4332199 125.43285,55 123.500238,55 C121.56715,55 120,53.4332199 120,51.5 C120,49.5667801 121.56715,48 123.500238,48 C125.43285,48 127,49.5667801 127,51.5" id="Fill-1647" fill="#3CDC87" transform="translate(123.500000, 51.500000) rotate(-90.000000) translate(-123.500000, -51.500000) "></path>
                    <path d="M127,27.5 C127,29.4332199 125.43285,31 123.500238,31 C121.56715,31 120,29.4332199 120,27.5 C120,25.5667801 121.56715,24 123.500238,24 C125.43285,24 127,25.5667801 127,27.5" id="Fill-1649" fill="#3CDC87" transform="translate(123.500000, 27.500000) rotate(-90.000000) translate(-123.500000, -27.500000) "></path>
                    <path d="M31,3.5 C31,5.43321988 29.43285,7 27.5002382,7 C25.56715,7 24,5.43321988 24,3.5 C24,1.56678012 25.56715,0 27.5002382,0 C29.43285,0 31,1.56678012 31,3.5" id="Fill-621" fill="#C5F5DB" transform="translate(27.500000, 3.500000) rotate(-90.000000) translate(-27.500000, -3.500000) "></path>
                    <path d="M39,3.5 C39,5.43321988 37.43285,7 35.5002382,7 C33.56715,7 32,5.43321988 32,3.5 C32,1.56678012 33.56715,0 35.5002382,0 C37.43285,0 39,1.56678012 39,3.5" id="Fill-627" fill="#C5F5DB" transform="translate(35.500000, 3.500000) rotate(-90.000000) translate(-35.500000, -3.500000) "></path>
                    <path d="M79,3.5 C79,5.43321988 77.43285,7 75.5002382,7 C73.56715,7 72,5.43321988 72,3.5 C72,1.56678012 73.56715,0 75.5002382,0 C77.43285,0 79,1.56678012 79,3.5" id="Fill-659" fill="#C5F5DB" transform="translate(75.500000, 3.500000) rotate(-90.000000) translate(-75.500000, -3.500000) "></path>
                    <path d="M71,3.5 C71,5.43321988 69.43285,7 67.5002382,7 C65.56715,7 64,5.43321988 64,3.5 C64,1.56678012 65.56715,0 67.5002382,0 C69.43285,0 71,1.56678012 71,3.5" id="Fill-925" fill="#8AEAB7" transform="translate(67.500000, 3.500000) rotate(-90.000000) translate(-67.500000, -3.500000) "></path>
                    <path d="M95,3.5 C95,5.43321988 93.43285,7 91.5002382,7 C89.56715,7 88,5.43321988 88,3.5 C88,1.56678012 89.56715,0 91.5002382,0 C93.43285,0 95,1.56678012 95,3.5" id="Fill-961" fill="#8AEAB7" transform="translate(91.500000, 3.500000) rotate(-90.000000) translate(-91.500000, -3.500000) "></path>
                    <path d="M103,3.5 C103,5.43321988 101.43285,7 99.5002382,7 C97.56715,7 96,5.43321988 96,3.5 C96,1.56678012 97.56715,0 99.5002382,0 C101.43285,0 103,1.56678012 103,3.5" id="Fill-973" fill="#8AEAB7" transform="translate(99.500000, 3.500000) rotate(-90.000000) translate(-99.500000, -3.500000) "></path>
                    <path d="M15,3.5 C15,5.43321988 13.43285,7 11.5002382,7 C9.56714996,7 8,5.43321988 8,3.5 C8,1.56678012 9.56714996,0 11.5002382,0 C13.43285,0 15,1.56678012 15,3.5" id="Fill-991" fill="#8AEAB7" transform="translate(11.500000, 3.500000) rotate(-90.000000) translate(-11.500000, -3.500000) "></path>
                    <path d="M23,3.5 C23,5.43321988 21.43285,7 19.5002382,7 C17.56715,7 16,5.43321988 16,3.5 C16,1.56678012 17.56715,0 19.5002382,0 C21.43285,0 23,1.56678012 23,3.5" id="Fill-997" fill="#8AEAB7" transform="translate(19.500000, 3.500000) rotate(-90.000000) translate(-19.500000, -3.500000) "></path>
                    <path d="M7,3.5 C7,5.43321988 5.43285004,7 3.50023824,7 C1.56714996,7 0,5.43321988 0,3.5 C0,1.56678012 1.56714996,0 3.50023824,0 C5.43285004,0 7,1.56678012 7,3.5" id="Fill-1169" fill="#3CDC87" transform="translate(3.500000, 3.500000) rotate(-90.000000) translate(-3.500000, -3.500000) "></path>
                    <path d="M47,3.5 C47,5.43321988 45.43285,7 43.5002382,7 C41.56715,7 40,5.43321988 40,3.5 C40,1.56678012 41.56715,0 43.5002382,0 C45.43285,0 47,1.56678012 47,3.5" id="Fill-1331" fill="#3CDC87" transform="translate(43.500000, 3.500000) rotate(-90.000000) translate(-43.500000, -3.500000) "></path>
                    <path d="M55,3.5 C55,5.43321988 53.43285,7 51.5002382,7 C49.56715,7 48,5.43321988 48,3.5 C48,1.56678012 49.56715,0 51.5002382,0 C53.43285,0 55,1.56678012 55,3.5" id="Fill-1367" fill="#3CDC87" transform="translate(51.500000, 3.500000) rotate(-90.000000) translate(-51.500000, -3.500000) "></path>
                    <path d="M63,3.5 C63,5.43321988 61.43285,7 59.5002382,7 C57.56715,7 56,5.43321988 56,3.5 C56,1.56678012 57.56715,0 59.5002382,0 C61.43285,0 63,1.56678012 63,3.5" id="Fill-1397" fill="#3CDC87" transform="translate(59.500000, 3.500000) rotate(-90.000000) translate(-59.500000, -3.500000) "></path>
                    <path d="M87,3.5 C87,5.43321988 85.43285,7 83.5002382,7 C81.56715,7 80,5.43321988 80,3.5 C80,1.56678012 81.56715,0 83.5002382,0 C85.43285,0 87,1.56678012 87,3.5" id="Fill-1499" fill="#3CDC87" transform="translate(83.500000, 3.500000) rotate(-90.000000) translate(-83.500000, -3.500000) "></path>
                    <path d="M111,3.5 C111,5.43321988 109.43285,7 107.500238,7 C105.56715,7 104,5.43321988 104,3.5 C104,1.56678012 105.56715,0 107.500238,0 C109.43285,0 111,1.56678012 111,3.5" id="Fill-1583" fill="#3CDC87" transform="translate(107.500000, 3.500000) rotate(-90.000000) translate(-107.500000, -3.500000) "></path>
                    <path d="M119,3.5 C119,5.43321988 117.43285,7 115.500238,7 C113.56715,7 112,5.43321988 112,3.5 C112,1.56678012 113.56715,0 115.500238,0 C117.43285,0 119,1.56678012 119,3.5" id="Fill-1621" fill="#3CDC87" transform="translate(115.500000, 3.500000) rotate(-90.000000) translate(-115.500000, -3.500000) "></path>
                    <path d="M127,3.5 C127,5.43321988 125.43285,7 123.500238,7 C121.56715,7 120,5.43321988 120,3.5 C120,1.56678012 121.56715,0 123.500238,0 C125.43285,0 127,1.56678012 127,3.5" id="Fill-1651" fill="#3CDC87" transform="translate(123.500000, 3.500000) rotate(-90.000000) translate(-123.500000, -3.500000) "></path>
                </g>
                <path d="M63.4998989,150 L63.4998989,175 M76,162.500101 L51,162.500101" id="Combined-Shape" stroke="#3CDC87" stroke-width="1.979"></path>
                <g id="Group-21" transform="translate(63.500000, 260.500000) rotate(90.000000) translate(-63.500000, -260.500000) translate(0.000000, 197.000000)" fill="#519EFF">
                    <path d="M68.3848282,4 L124.55748,4 C125.906086,4 127,3.10469707 127,1.99972771 L127,1.99972771 C127,0.895302927 125.906086,0 124.55748,0 L68.3848282,0 C67.0362217,0 65.9423077,0.895302927 65.9423077,1.99972771 L65.9423077,1.99972771 C65.9423077,3.10469707 67.0362217,4 68.3848282,4" id="Fill-519"></path>
                    <path d="M68.3848282,11 L124.55748,11 C125.906086,11 127,10.1046971 127,8.99972771 L127,8.99972771 C127,7.89530293 125.906086,7 124.55748,7 L68.3848282,7 C67.0362217,7 65.9423077,7.89530293 65.9423077,8.99972771 L65.9423077,8.99972771 C65.9423077,10.1046971 67.0362217,11 68.3848282,11" id="Fill-521"></path>
                    <path d="M68.3848282,19 L124.55748,19 C125.906086,19 127,18.1046971 127,16.9997277 L127,16.9997277 C127,15.8953029 125.906086,15 124.55748,15 L68.3848282,15 C67.0362217,15 65.9423077,15.8953029 65.9423077,16.9997277 C65.9423077,18.1046971 67.0362217,19 68.3848282,19" id="Fill-523"></path>
                    <path d="M68.3848282,27 L124.55748,27 C125.906086,27 127,26.1046971 127,24.9997277 L127,24.9997277 C127,23.8953029 125.906086,23 124.55748,23 L68.3848282,23 C67.0362217,23 65.9423077,23.8953029 65.9423077,24.9997277 L65.9423077,24.9997277 C65.9423077,26.1046971 67.0362217,27 68.3848282,27" id="Fill-525"></path>
                    <path d="M68.3848282,35 L124.55748,35 C125.906086,35 127,34.1046971 127,32.9997277 L127,32.9997277 C127,31.8953029 125.906086,31 124.55748,31 L68.3848282,31 C67.0362217,31 65.9423077,31.8953029 65.9423077,32.9997277 L65.9423077,32.9997277 C65.9423077,34.1046971 67.0362217,35 68.3848282,35" id="Fill-527"></path>
                    <path d="M68.3848282,42 L124.55748,42 C125.906086,42 127,41.1046971 127,39.9997277 L127,39.9997277 C127,38.8953029 125.906086,38 124.55748,38 L68.3848282,38 C67.0362217,38 65.9423077,38.8953029 65.9423077,39.9997277 L65.9423077,39.9997277 C65.9423077,41.1046971 67.0362217,42 68.3848282,42" id="Fill-529"></path>
                    <path d="M68.3848282,50 L124.55748,50 C125.906086,50 127,49.1046971 127,47.9997277 L127,47.9997277 C127,46.8953029 125.906086,46 124.55748,46 L68.3848282,46 C67.0362217,46 65.9423077,46.8953029 65.9423077,47.9997277 L65.9423077,47.9997277 C65.9423077,49.1046971 67.0362217,50 68.3848282,50" id="Fill-531"></path>
                    <path d="M68.3848282,58 L124.55748,58 C125.906086,58 127,57.1046971 127,55.9997277 L127,55.9997277 C127,54.8953029 125.906086,54 124.55748,54 L68.3848282,54 C67.0362217,54 65.9423077,54.8953029 65.9423077,55.9997277 L65.9423077,55.9997277 C65.9423077,57.1046971 67.0362217,58 68.3848282,58" id="Fill-533"></path>
                    <path d="M68.3848282,66 L124.55748,66 C125.906086,66 127,65.1046971 127,63.9997277 L127,63.9997277 C127,62.8953029 125.906086,62 124.55748,62 L68.3848282,62 C67.0362217,62 65.9423077,62.8953029 65.9423077,63.9997277 L65.9423077,63.9997277 C65.9423077,65.1046971 67.0362217,66 68.3848282,66" id="Fill-535"></path>
                    <path d="M68.3848282,73 L124.55748,73 C125.906086,73 127,72.1046971 127,70.9997277 L127,70.9997277 C127,69.8953029 125.906086,69 124.55748,69 L68.3848282,69 C67.0362217,69 65.9423077,69.8953029 65.9423077,70.9997277 L65.9423077,70.9997277 C65.9423077,72.1046971 67.0362217,73 68.3848282,73" id="Fill-537"></path>
                    <path d="M68.3848282,81 L124.55748,81 C125.906086,81 127,80.1046971 127,78.9997277 L127,78.9997277 C127,77.8953029 125.906086,77 124.55748,77 L68.3848282,77 C67.0362217,77 65.9423077,77.8953029 65.9423077,78.9997277 L65.9423077,78.9997277 C65.9423077,80.1046971 67.0362217,81 68.3848282,81" id="Fill-539"></path>
                    <path d="M68.3848282,89 L124.55748,89 C125.906086,89 127,88.1046971 127,86.9997277 L127,86.9997277 C127,85.8953029 125.906086,85 124.55748,85 L68.3848282,85 C67.0362217,85 65.9423077,85.8953029 65.9423077,86.9997277 L65.9423077,86.9997277 C65.9423077,88.1046971 67.0362217,89 68.3848282,89" id="Fill-541"></path>
                    <path d="M68.3848282,96 L124.55748,96 C125.906086,96 127,95.1046971 127,93.9997277 L127,93.9997277 C127,92.8953029 125.906086,92 124.55748,92 L68.3848282,92 C67.0362217,92 65.9423077,92.8953029 65.9423077,93.9997277 L65.9423077,93.9997277 C65.9423077,95.1046971 67.0362217,96 68.3848282,96" id="Fill-543"></path>
                    <path d="M68.3848282,104 L124.55748,104 C125.906086,104 127,103.104697 127,101.999728 L127,101.999728 C127,100.895303 125.906086,100 124.55748,100 L68.3848282,100 C67.0362217,100 65.9423077,100.895303 65.9423077,101.999728 L65.9423077,101.999728 C65.9423077,103.104697 67.0362217,104 68.3848282,104" id="Fill-545"></path>
                    <path d="M68.3848282,112 L124.55748,112 C125.906086,112 127,111.104697 127,109.999728 L127,109.999728 C127,108.895303 125.906086,108 124.55748,108 L68.3848282,108 C67.0362217,108 65.9423077,108.895303 65.9423077,109.999728 L65.9423077,109.999728 C65.9423077,111.104697 67.0362217,112 68.3848282,112" id="Fill-547"></path>
                    <path d="M68.3848282,120 L124.55748,120 C125.906086,120 127,119.104697 127,117.999728 L127,117.999728 C127,116.895303 125.906086,116 124.55748,116 L68.3848282,116 C67.0362217,116 65.9423077,116.895303 65.9423077,117.999728 L65.9423077,117.999728 C65.9423077,119.104697 67.0362217,120 68.3848282,120" id="Fill-549"></path>
                    <path d="M68.3848282,127 L124.55748,127 C125.906086,127 127,126.104697 127,124.999728 L127,124.999728 C127,123.895303 125.906086,123 124.55748,123 L68.3848282,123 C67.0362217,123 65.9423077,123.895303 65.9423077,124.999728 L65.9423077,124.999728 C65.9423077,126.104697 67.0362217,127 68.3848282,127" id="Fill-551"></path>
                    <path d="M2.44252049,4 L58.6151718,4 C59.9637783,4 61.0576923,3.10469707 61.0576923,1.99972771 L61.0576923,1.99972771 C61.0576923,0.895302927 59.9637783,0 58.6151718,0 L2.44252049,0 C1.09391402,0 -3.47072798e-14,0.895302927 -3.47072798e-14,1.99972771 L-3.47072798e-14,1.99972771 C-3.47072798e-14,3.10469707 1.09391402,4 2.44252049,4" id="Fill-553"></path>
                    <path d="M2.44252049,11 L58.6151718,11 C59.9637783,11 61.0576923,10.1046971 61.0576923,8.99972771 L61.0576923,8.99972771 C61.0576923,7.89530293 59.9637783,7 58.6151718,7 L2.44252049,7 C1.09391402,7 -3.47072798e-14,7.89530293 -3.47072798e-14,8.99972771 L-3.47072798e-14,8.99972771 C-3.47072798e-14,10.1046971 1.09391402,11 2.44252049,11" id="Fill-555"></path>
                    <path d="M2.44252049,19 L58.6151718,19 C59.9637783,19 61.0576923,18.1046971 61.0576923,16.9997277 L61.0576923,16.9997277 C61.0576923,15.8953029 59.9637783,15 58.6151718,15 L2.44252049,15 C1.09391402,15 -3.47072798e-14,15.8953029 -3.47072798e-14,16.9997277 C-3.47072798e-14,18.1046971 1.09391402,19 2.44252049,19" id="Fill-557"></path>
                    <path d="M2.44252049,27 L58.6151718,27 C59.9637783,27 61.0576923,26.1046971 61.0576923,24.9997277 L61.0576923,24.9997277 C61.0576923,23.8953029 59.9637783,23 58.6151718,23 L2.44252049,23 C1.09391402,23 -3.47072798e-14,23.8953029 -3.47072798e-14,24.9997277 L-3.47072798e-14,24.9997277 C-3.47072798e-14,26.1046971 1.09391402,27 2.44252049,27" id="Fill-559"></path>
                    <path d="M2.44252049,35 L58.6151718,35 C59.9637783,35 61.0576923,34.1046971 61.0576923,32.9997277 L61.0576923,32.9997277 C61.0576923,31.8953029 59.9637783,31 58.6151718,31 L2.44252049,31 C1.09391402,31 -3.47072798e-14,31.8953029 -3.47072798e-14,32.9997277 L-3.47072798e-14,32.9997277 C-3.47072798e-14,34.1046971 1.09391402,35 2.44252049,35" id="Fill-561"></path>
                    <path d="M2.44252049,42 L58.6151718,42 C59.9637783,42 61.0576923,41.1046971 61.0576923,39.9997277 L61.0576923,39.9997277 C61.0576923,38.8953029 59.9637783,38 58.6151718,38 L2.44252049,38 C1.09391402,38 -3.47072798e-14,38.8953029 -3.47072798e-14,39.9997277 L-3.47072798e-14,39.9997277 C-3.47072798e-14,41.1046971 1.09391402,42 2.44252049,42" id="Fill-563"></path>
                    <path d="M2.44252049,50 L58.6151718,50 C59.9637783,50 61.0576923,49.1046971 61.0576923,47.9997277 L61.0576923,47.9997277 C61.0576923,46.8953029 59.9637783,46 58.6151718,46 L2.44252049,46 C1.09391402,46 -3.47072798e-14,46.8953029 -3.47072798e-14,47.9997277 L-3.47072798e-14,47.9997277 C-3.47072798e-14,49.1046971 1.09391402,50 2.44252049,50" id="Fill-565"></path>
                    <path d="M2.44252049,58 L58.6151718,58 C59.9637783,58 61.0576923,57.1046971 61.0576923,55.9997277 L61.0576923,55.9997277 C61.0576923,54.8953029 59.9637783,54 58.6151718,54 L2.44252049,54 C1.09391402,54 -3.47072798e-14,54.8953029 -3.47072798e-14,55.9997277 L-3.47072798e-14,55.9997277 C-3.47072798e-14,57.1046971 1.09391402,58 2.44252049,58" id="Fill-567"></path>
                    <path d="M2.44252049,66 L58.6151718,66 C59.9637783,66 61.0576923,65.1046971 61.0576923,63.9997277 L61.0576923,63.9997277 C61.0576923,62.8953029 59.9637783,62 58.6151718,62 L2.44252049,62 C1.09391402,62 -3.47072798e-14,62.8953029 -3.47072798e-14,63.9997277 L-3.47072798e-14,63.9997277 C-3.47072798e-14,65.1046971 1.09391402,66 2.44252049,66" id="Fill-569"></path>
                    <path d="M2.44252049,73 L58.6151718,73 C59.9637783,73 61.0576923,72.1046971 61.0576923,70.9997277 L61.0576923,70.9997277 C61.0576923,69.8953029 59.9637783,69 58.6151718,69 L2.44252049,69 C1.09391402,69 -3.47072798e-14,69.8953029 -3.47072798e-14,70.9997277 L-3.47072798e-14,70.9997277 C-3.47072798e-14,72.1046971 1.09391402,73 2.44252049,73" id="Fill-571"></path>
                    <path d="M2.44252049,81 L58.6151718,81 C59.9637783,81 61.0576923,80.1046971 61.0576923,78.9997277 L61.0576923,78.9997277 C61.0576923,77.8953029 59.9637783,77 58.6151718,77 L2.44252049,77 C1.09391402,77 -3.47072798e-14,77.8953029 -3.47072798e-14,78.9997277 L-3.47072798e-14,78.9997277 C-3.47072798e-14,80.1046971 1.09391402,81 2.44252049,81" id="Fill-573"></path>
                    <path d="M2.44252049,89 L58.6151718,89 C59.9637783,89 61.0576923,88.1046971 61.0576923,86.9997277 L61.0576923,86.9997277 C61.0576923,85.8953029 59.9637783,85 58.6151718,85 L2.44252049,85 C1.09391402,85 -3.47072798e-14,85.8953029 -3.47072798e-14,86.9997277 L-3.47072798e-14,86.9997277 C-3.47072798e-14,88.1046971 1.09391402,89 2.44252049,89" id="Fill-575"></path>
                    <path d="M2.44252049,96 L58.6151718,96 C59.9637783,96 61.0576923,95.1046971 61.0576923,93.9997277 L61.0576923,93.9997277 C61.0576923,92.8953029 59.9637783,92 58.6151718,92 L2.44252049,92 C1.09391402,92 -3.47072798e-14,92.8953029 -3.47072798e-14,93.9997277 L-3.47072798e-14,93.9997277 C-3.47072798e-14,95.1046971 1.09391402,96 2.44252049,96" id="Fill-577"></path>
                    <path d="M2.44252049,104 L58.6151718,104 C59.9637783,104 61.0576923,103.104697 61.0576923,101.999728 L61.0576923,101.999728 C61.0576923,100.895303 59.9637783,100 58.6151718,100 L2.44252049,100 C1.09391402,100 -3.47072798e-14,100.895303 -3.47072798e-14,101.999728 L-3.47072798e-14,101.999728 C-3.47072798e-14,103.104697 1.09391402,104 2.44252049,104" id="Fill-579"></path>
                    <path d="M2.44252049,112 L58.6151718,112 C59.9637783,112 61.0576923,111.104697 61.0576923,109.999728 L61.0576923,109.999728 C61.0576923,108.895303 59.9637783,108 58.6151718,108 L2.44252049,108 C1.09391402,108 -3.47072798e-14,108.895303 -3.47072798e-14,109.999728 L-3.47072798e-14,109.999728 C-3.47072798e-14,111.104697 1.09391402,112 2.44252049,112" id="Fill-581"></path>
                    <path d="M2.44252049,120 L58.6151718,120 C59.9637783,120 61.0576923,119.104697 61.0576923,117.999728 L61.0576923,117.999728 C61.0576923,116.895303 59.9637783,116 58.6151718,116 L2.44252049,116 C1.09391402,116 -3.47072798e-14,116.895303 -3.47072798e-14,117.999728 L-3.47072798e-14,117.999728 C-3.47072798e-14,119.104697 1.09391402,120 2.44252049,120" id="Fill-583"></path>
                    <path d="M2.44252049,127 L58.6151718,127 C59.9637783,127 61.0576923,126.104697 61.0576923,124.999728 L61.0576923,124.999728 C61.0576923,123.895303 59.9637783,123 58.6151718,123 L2.44252049,123 C1.09391402,123 -3.47072798e-14,123.895303 -3.47072798e-14,124.999728 L-3.47072798e-14,124.999728 C-3.47072798e-14,126.104697 1.09391402,127 2.44252049,127" id="Fill-585"></path>
                </g>
            </g>
        </g>
    </g>
</svg>