<?xml version="1.0" encoding="UTF-8"?>
<svg width="203px" height="56px" viewBox="0 0 203 56" version="1.1" xmlns="http://www.w3.org/2000/svg" xmlns:xlink="http://www.w3.org/1999/xlink">
    <title>illust/ktx</title>
    <defs>
        <polygon id="path-1" points="27.1999158 39.9998761 202.399373 39.9998761 202.399373 48.7998489 27.1999158 48.7998489"></polygon>
    </defs>
    <g id="Page-1" stroke="none" stroke-width="1" fill="none" fill-rule="evenodd">
        <g id="Main-Page-Copy" transform="translate(-1247.000000, -6831.000000)">
            <g id="Group-20" transform="translate(1242.000000, 6567.000000)">
                <g id="Group" transform="translate(5.000000, 264.000000)">
                    <path d="M74.414598,50.3998439 C74.4082014,50.5160513 74.3997696,50.6319118 74.3997696,50.7502005 C74.3997696,53.6446321 76.3734105,56 78.7994652,56 C81.2258107,56 83.1997423,53.6446321 83.1997423,50.7502005 C83.1997423,50.6319118 83.1913104,50.5160513 83.1849138,50.3998439 L74.414598,50.3998439 Z" id="Fill-1" fill="#C5F5DB"></path>
                    <path d="M61.6146372,50.3998439 C61.6082408,50.5160513 61.5998092,50.6319118 61.5998092,50.7502005 C61.5998092,53.6446321 63.5736756,56 65.999941,56 C68.4262063,56 70.399782,53.6446321 70.399782,50.7502005 C70.399782,50.6319118 70.3913504,50.5160513 70.384954,50.3998439 L61.6146372,50.3998439 Z" id="Fill-4" fill="#C5F5DB"></path>
                    <path d="M48.8146768,50.3998439 C48.8082805,50.5160513 48.7998489,50.6319118 48.7998489,50.7502005 C48.7998489,53.6446321 50.7734245,56 53.1999806,56 C55.6259552,56 57.5998216,53.6446321 57.5998216,50.7502005 C57.5998216,50.6319118 57.59139,50.5160513 57.5849936,50.3998439 L48.8146768,50.3998439 Z" id="Fill-7" fill="#C5F5DB"></path>
                    <path d="M181.614266,50.3998439 C181.607869,50.5160513 181.599438,50.6319118 181.599438,50.7502005 C181.599438,53.6446321 183.573078,56 185.999424,56 C188.425479,56 190.39941,53.6446321 190.39941,50.7502005 C190.39941,50.6319118 190.390978,50.5160513 190.384582,50.3998439 L181.614266,50.3998439 Z" id="Fill-10" fill="#C5F5DB"></path>
                    <path d="M168.814305,50.3998439 C168.807909,50.5160513 168.799477,50.6319118 168.799477,50.7502005 C168.799477,53.6446321 170.773053,56 173.199609,56 C175.625874,56 177.59945,53.6446321 177.59945,50.7502005 C177.59945,50.6319118 177.591018,50.5160513 177.584622,50.3998439 L168.814305,50.3998439 Z" id="Fill-13" fill="#C5F5DB"></path>
                    <path d="M156.014345,50.3998439 C156.007949,50.5160513 155.999517,50.6319118 155.999517,50.7502005 C155.999517,53.6446321 157.973448,56 160.399794,56 C162.825558,56 164.79949,53.6446321 164.79949,50.7502005 C164.79949,50.6319118 164.791348,50.5160513 164.784661,50.3998439 L156.014345,50.3998439 Z" id="Fill-16" fill="#C5F5DB"></path>
                    <mask id="mask-2" fill="white">
                        <use xlink:href="#path-1"></use>
                    </mask>
                    <g id="Clip-20"></g>
                    <path d="M120.148175,40.1133234 L108.487277,40.1133234 L96.8263786,40.1133234 C96.6630265,40.1133234 96.5107036,40.0726592 96.372987,40.0066535 L75.4785201,40.0066535 C75.4564616,40.0066535 75.0686493,39.9998761 74.3580079,39.9998761 C69.3438724,39.9998761 44.654151,40.3355033 27.1999158,46.5580128 C32.7690908,47.8542584 39.0122425,48.6813922 45.9251976,48.6813922 L191.225133,48.6813922 C191.261202,48.6813922 191.298463,48.6834549 191.334531,48.6866962 C191.345561,48.6881696 192.437456,48.7998489 193.930578,48.7998489 C195.550984,48.7998489 197.865338,48.6678375 199.692616,48.0384261 C202.399552,47.1055064 202.399552,45.6239144 202.399552,45.1371225 L202.399552,40.0066535 L120.601566,40.0066535 C120.46385,40.0726592 120.311527,40.1133234 120.148175,40.1133234" id="Fill-19" fill="#8AEAB7"></path>
                    <path d="M181.085211,26.1657072 L194.63632,26.1657072 L194.63632,8.08759449 L181.085211,8.08759449 L181.085211,26.1657072 Z M163.363336,26.1657072 L176.914445,26.1657072 L176.914445,8.08759449 L163.363336,8.08759449 L163.363336,26.1657072 Z M145.64176,26.1657072 L159.192869,26.1657072 L159.192869,8.08759449 L145.64176,8.08759449 L145.64176,26.1657072 Z M127.919886,26.1657072 L141.470995,26.1657072 L141.470995,8.08759449 L127.919886,8.08759449 L127.919886,26.1657072 Z M93.0537192,3.19999009 C89.7890064,6.06014826 61.1142486,30.2030434 24.4899762,30.2030434 C16.3686189,30.2030434 8.61570904,28.5215767 1.42874639,25.2125229 C0.465412956,26.7032922 -0.0462367299,28.4773833 0.00328737964,30.3180672 C0.0522148132,32.1281789 0.618460355,33.7999594 1.60655584,35.1893261 C6.78510701,37.1743951 13.6540413,37.3293746 21.8094092,35.627022 C43.2497686,31.1550168 60.3457299,30.5814112 72.8443024,30.5814112 C73.8971373,30.5814112 74.8870228,30.5847408 75.8118706,30.5877678 C76.6212616,30.590492 77.3802335,30.5932163 78.0890847,30.5932163 L95.6949056,30.5932163 L95.6949056,4.77339491 C95.6949056,4.18919497 96.1618046,3.71547843 96.737597,3.71547843 L108.408282,3.71547843 L120.079264,3.71547843 C120.655057,3.71547843 121.121956,4.18919497 121.121956,4.77339491 L121.121956,30.5932163 L202.399373,30.5932163 L202.399373,3.19999009 L93.0537192,3.19999009 Z" id="Fill-22" fill="#8AEAB7"></path>
                    <path d="M91.4911914,1.70111579 C91.682947,1.52808563 91.9322591,1.4321894 92.190816,1.4321894 L199.199383,1.4321894 C197.270495,0.696885672 194.221193,0 189.594307,0 L91.9868334,0 L91.3704122,0.437787153 C81.9132531,7.15469289 56.7998314,22.7783336 27.9333083,22.7783336 C20.3203429,22.7783336 13.1087819,22.1853851 6.49932751,21.0164637 L6.0475239,20.9366494 C5.09232458,21.5584858 4.14965051,22.1969999 3.22308033,22.856361 C2.93708716,23.0597682 2.66272457,23.2825333 2.39999257,23.5243586 C9.15825886,26.4947594 16.4327443,27.9999133 24.0457097,27.9999133 C61.9691804,27.9999133 91.2004267,1.9640859 91.4911914,1.70111579" id="Fill-24" fill="#8AEAB7"></path>
                    <polygon id="Fill-25" fill="#3CDC87" points="120.799626 38.3998811 202.399373 38.3998811 202.399373 32.7998984 120.799626 32.7998984"></polygon>
                    <path d="M75.6323476,38.4633198 L95.9997027,38.4633198 L95.9997027,32.8116997 L78.3404939,32.8116997 C77.6276978,32.8116997 76.8637312,32.8089763 76.0494919,32.806253 C75.1239342,32.8035296 74.1337402,32.7998984 73.0801067,32.7998984 C60.6423836,32.7998984 43.6322322,33.3681772 22.3117891,37.8012357 C15.9720335,39.1187468 10.3519566,39.371416 5.59998266,38.5483498 C11.1706845,41.9147509 17.2375308,44.5524964 23.6631691,46.3998563 C41.5943895,38.8412645 69.1241183,38.4563601 74.4904375,38.4563601 C75.2304646,38.4563601 75.6323476,38.4633198 75.6323476,38.4633198" id="Fill-26" fill="#3CDC87"></path>
                    <path d="M89.5997225,0 L89.5464099,0 C84.55659,0 40.8779946,0.555431061 9.59997027,19.3709575 C15.6087198,20.3199186 22.0954857,20.7999356 28.9147066,20.7999356 C55.6252187,20.7999356 79.1387717,7.13950367 89.5997225,0" id="Fill-27" fill="#C5F5DB"></path>
                    <path d="M99.8078582,24.8319801 L104.9933,24.8319801 L104.9933,10.1153434 L99.8078582,10.1153434 L99.8078582,24.8319801 Z M97.5996977,38.3998811 L107.199668,38.3998811 L107.199668,6.39998018 L97.5996977,6.39998018 L97.5996977,38.3998811 Z" id="Fill-28" fill="#3CDC87"></path>
                    <path d="M111.807752,24.8319801 L116.993033,24.8319801 L116.993033,10.1153434 L111.807752,10.1153434 L111.807752,24.8319801 Z M109.599661,38.3998811 L119.199631,38.3998811 L119.199631,6.39998018 L109.599661,6.39998018 L109.599661,38.3998811 Z" id="Fill-29" fill="#3CDC87"></path>
                </g>
            </g>
        </g>
    </g>
</svg>