<?xml version="1.0" encoding="UTF-8"?>
<svg width="78px" height="320px" viewBox="0 0 78 320" version="1.1" xmlns="http://www.w3.org/2000/svg" xmlns:xlink="http://www.w3.org/1999/xlink">
    <title>illust/lotte_tower</title>
    <g id="Page-1" stroke="none" stroke-width="1" fill="none" fill-rule="evenodd">
        <g id="Main-Page-Copy" transform="translate(-446.000000, -6567.000000)">
            <g id="Group" transform="translate(446.000000, 6567.000000)">
                <g id="Group-4">
                    <polygon id="Path" fill="#3CDC87" points="32.5220041 184.670461 32.496677 182.376258 17.9092828 182.376258 17.7900341 184.670461"></polygon>
                    <polygon id="Path" fill="#3CDC87" points="17.6433476 187.581796 17.5293753 189.875999 32.5789903 189.875999 32.5536631 187.581796"></polygon>
                    <polygon id="Path" fill="#3CDC87" points="17.3890206 192.786402 17.2803248 195.080604 32.6370317 195.080604 32.6117045 192.786402"></polygon>
                    <polygon id="Path" fill="#3CDC87" points="17.1452466 197.99194 17.0418273 200.28521 32.6940178 200.28521 32.669746 197.99194"></polygon>
                    <polygon id="Path" fill="#3CDC87" points="16.9130808 203.196545 16.8159934 205.490748 32.7520593 205.490748 32.7267321 203.196545"></polygon>
                    <polygon id="Path" fill="#3CDC87" points="16.6925234 208.401151 16.5996571 210.695354 32.8090454 210.695354 32.7847735 208.401151"></polygon>
                    <polygon id="Path" fill="#3CDC87" points="16.4846296 213.606689 16.3959845 215.89996 32.8670868 215.89996 32.8417596 213.606689"></polygon>
                    <polygon id="Path" fill="#3CDC87" points="16.2862334 218.811295 16.2018095 221.105498 32.9240729 221.105498 32.8987458 218.811295"></polygon>
                    <polygon id="Path" fill="#3CDC87" points="16.0994455 224.015901 16.0202981 226.310103 32.9821144 226.310103 32.9567872 224.015901"></polygon>
                    <polygon id="Path" fill="#3CDC87" points="15.9232107 229.221439 15.8493397 231.514709 33.0391005 231.514709 33.0137733 229.221439"></polygon>
                    <polygon id="Path" fill="#3CDC87" points="15.7575288 234.426044 15.687879 236.720247 33.0971419 236.720247 33.0718148 234.426044"></polygon>
                    <polygon id="Path" fill="#3CDC87" points="15.6023998 239.63065 15.5380266 241.924853 33.1541281 241.924853 33.1288009 239.63065"></polygon>
                    <polygon id="Path" fill="#3CDC87" points="15.4578239 244.836188 15.3976719 247.130391 33.2121695 247.130391 33.1868423 244.836188"></polygon>
                    <polygon id="Path" fill="#3CDC87" points="15.323801 250.041726 15.2668149 252.334997 33.2691556 252.334997 33.2448838 250.041726"></polygon>
                    <polygon id="Path" fill="#3CDC87" points="15.200331 255.2454 15.1486214 257.540535 33.3271971 257.540535 33.3018699 255.2454"></polygon>
                    <polygon id="Path" fill="#3CDC87" points="15.0874141 260.450938 15.0399256 262.74514 33.3841832 262.74514 33.358856 260.450938"></polygon>
                    <polygon id="Path" fill="#3CDC87" points="14.9818842 265.655543 14.9396722 267.949746 33.4422246 267.949746 33.4168974 265.655543"></polygon>
                    <polygon id="Path" fill="#3CDC87" points="14.8890179 270.861081 14.8499719 273.154352 33.4992107 273.154352 33.4738836 270.861081"></polygon>
                    <polygon id="Path" fill="#3CDC87" points="14.8035387 276.065687 14.7708245 278.35989 33.5572522 278.35989 33.531925 276.065687"></polygon>
                    <polygon id="Path" fill="#3CDC87" points="14.7307231 281.270293 14.7011747 283.564496 33.6142383 283.564496 33.5889111 281.270293"></polygon>
                    <polygon id="Path" fill="#3CDC87" points="14.6663499 286.475831 14.6399674 288.770034 33.6722797 288.770034 33.6469526 286.475831"></polygon>
                    <polygon id="Path" fill="#3CDC87" points="30.0948171 41.9376667 29.8067205 44.2318696 30.9696597 44.2318696 30.9443326 41.9376667"></polygon>
                    <polygon id="Path" fill="#3CDC87" points="29.4489743 47.1422724 29.1693201 49.4364753 31.0277012 49.4364753 31.002374 47.1422724"></polygon>
                    <polygon id="Path" fill="#3CDC87" points="28.8200162 52.3478104 28.5477492 54.6410811 31.0846873 54.6410811 31.0604154 52.3478104"></polygon>
                    <polygon id="Path" fill="#3CDC87" points="28.2068877 57.5524162 27.943063 59.8466191 31.1427287 59.8466191 31.1174015 57.5524162"></polygon>
                    <polygon id="Path" fill="#3CDC87" points="27.6106439 62.757022 27.3542063 65.0512249 31.2007701 65.0512249 31.175443 62.757022"></polygon>
                    <polygon id="Path" fill="#3CDC87" points="27.0312849 67.96256 26.7811791 70.2558306 31.2577563 70.2558306 31.2324291 67.96256"></polygon>
                    <polygon id="Path" fill="#3CDC87" points="26.4667001 73.1671657 26.2229261 75.4613686 31.3147424 75.4613686 31.2904705 73.1671657"></polygon>
                    <polygon id="Path" fill="#3CDC87" points="25.9190001 78.3717715 25.6815579 80.6659744 31.3727838 80.6659744 31.3474567 78.3717715"></polygon>
                    <polygon id="Path" fill="#3CDC87" points="25.3850189 83.5773095 25.1560191 85.8705802 31.42977 85.8705802 31.4044428 83.5773095"></polygon>
                    <polygon id="Path" fill="#3CDC87" points="24.8668673 88.7819152 24.6431439 91.0761181 31.4878114 91.0761181 31.4624842 88.7819152"></polygon>
                    <polygon id="Path" fill="#3CDC87" points="24.3624345 93.986521 24.1460982 96.2807239 31.5447975 96.2807239 31.5205257 93.986521"></polygon>
                    <polygon id="Path" fill="#3CDC87" points="23.8748865 99.192059 23.6638267 101.486262 31.602839 101.486262 31.5775118 99.192059"></polygon>
                    <polygon id="Path" fill="#3CDC87" points="23.400002 104.397597 23.1963294 106.690868 31.6608804 106.690868 31.6355532 104.397597"></polygon>
                    <polygon id="Path" fill="#3CDC87" points="22.9409471 109.601271 22.7414956 111.895473 31.7178665 111.895473 31.6925393 109.601271"></polygon>
                    <polygon id="Path" fill="#3CDC87" points="22.495611 114.806809 22.3035467 117.101011 31.7748526 117.101011 31.7505808 114.806809"></polygon>
                    <polygon id="Path" fill="#3CDC87" points="22.0639939 120.011414 21.8782613 122.305617 31.8328941 122.305617 31.8075669 120.011414"></polygon>
                    <polygon id="Path" fill="#3CDC87" points="21.6450403 125.216952 21.4656395 127.510223 31.8898802 127.510223 31.864553 125.216952"></polygon>
                    <polygon id="Path" fill="#3CDC87" points="21.2398056 130.421558 21.0667366 132.715761 31.9479216 132.715761 31.9225945 130.421558"></polygon>
                    <polygon id="Path" fill="#3CDC87" points="20.8493451 135.626164 20.6815526 137.920367 32.0049078 137.920367 31.9795806 135.626164"></polygon>
                    <polygon id="Path" fill="#3CDC87" points="20.4715481 140.831702 20.3090321 143.125905 32.0629492 143.125905 32.037622 140.831702"></polygon>
                    <polygon id="Path" fill="#3CDC87" points="20.1064148 146.036308 19.9491752 148.33051 32.1209906 148.33051 32.0956635 146.036308"></polygon>
                    <polygon id="Path" fill="#3CDC87" points="19.7550003 151.240913 19.6040926 153.535116 32.1779768 153.535116 32.1526496 151.240913"></polygon>
                    <polygon id="Path" fill="#3CDC87" points="19.4151941 156.446451 19.2695629 158.740654 32.2349629 158.740654 32.210691 156.446451"></polygon>
                    <polygon id="Path" fill="#3CDC87" points="19.0891068 161.651057 18.9487521 163.94526 32.2930043 163.94526 32.2676771 161.651057"></polygon>
                    <polygon id="Path" fill="#3CDC87" points="18.7735725 166.855663 18.6395495 169.149866 32.3499904 169.149866 32.3246633 166.855663"></polygon>
                    <polygon id="Path" fill="#3CDC87" points="18.4728123 172.061201 18.3430106 174.355404 32.4080319 174.355404 32.3827047 172.061201"></polygon>
                    <polygon id="Path" fill="#3CDC87" points="14.6104191 291.680437 14.5893131 293.97464 33.7303212 293.97464 33.704994 291.680437"></polygon>
                    <polygon id="Path" fill="#3CDC87" points="14.5650412 296.885975 14.5481564 299.179245 33.786252 299.179245 33.7619801 296.885975"></polygon>
                    <polygon id="Path" fill="#3CDC87" points="14.5281058 302.09058 14.5154422 304.384783 33.8442934 304.384783 33.8189663 302.09058"></polygon>
                    <polygon id="Path" fill="#3CDC87" points="14.500668 307.295186 14.4922256 309.589389 33.9023349 309.589389 33.8770077 307.295186"></polygon>
                    <polygon id="Path" fill="#3CDC87" points="14.4837832 312.499792 14.4785067 314.793995 33.959321 314.793995 33.9339938 312.499792"></polygon>
                    <polygon id="Path" fill="#3CDC87" points="14.4753408 317.70533 14.4732302 319.999533 34.0173624 319.999533 33.9920352 317.70533"></polygon>
                    <polygon id="Path" fill="#3CDC87" points="18.1836605 177.265807 18.05808 179.560009 32.465018 179.560009 32.4396908 177.265807"></polygon>
                    <path d="M8.28690834,317.554879 C8.28785869,316.745436 8.28891333,316.082764 8.29007228,315.566864 C8.49836258,222.847273 15.0346169,93.0530889 30.6430071,2.29303604 L34.3632573,2.29303604 L37.9256787,320 L40,320 L39.1646884,79.0901207 L36.8804871,1.94081086 C36.8484799,0.85976303 35.9628847,-3.75138596e-15 34.8813631,0 L28.4379781,0 C27.4922197,-0.000658875225 26.6752815,0.661241751 26.4803535,1.58669449 C25.8991799,4.31879937 25.4548896,6.44080417 25.1474827,7.95270889 C7.03485958,97.0351613 0.0975951679,227.499878 0.000491996181,315.715276 C-3.69561112e-05,316.195814 -0.000258627028,316.807951 -0.000173016569,317.551687 C-0.000576857125,318.656257 0.894526106,319.552015 1.99909553,319.552419 C2.00037486,319.552419 2.00165419,319.552418 2.00293353,319.552419 L6.2907584,319.552419 C7.39286286,319.550294 8.28555247,318.656985 8.28690834,317.554879 Z" id="Fill-3" fill="#C5F5DB"></path>
                </g>
                <g id="Group-4-Copy" transform="translate(58.000000, 160.000000) scale(-1, 1) translate(-58.000000, -160.000000) translate(38.000000, 0.000000)">
                    <polygon id="Path" fill="#3CDC87" points="32.5220041 184.670461 32.496677 182.376258 17.9092828 182.376258 17.7900341 184.670461"></polygon>
                    <polygon id="Path" fill="#3CDC87" points="17.6433476 187.581796 17.5293753 189.875999 32.5789903 189.875999 32.5536631 187.581796"></polygon>
                    <polygon id="Path" fill="#3CDC87" points="17.3890206 192.786402 17.2803248 195.080604 32.6370317 195.080604 32.6117045 192.786402"></polygon>
                    <polygon id="Path" fill="#3CDC87" points="17.1452466 197.99194 17.0418273 200.28521 32.6940178 200.28521 32.669746 197.99194"></polygon>
                    <polygon id="Path" fill="#3CDC87" points="16.9130808 203.196545 16.8159934 205.490748 32.7520593 205.490748 32.7267321 203.196545"></polygon>
                    <polygon id="Path" fill="#3CDC87" points="16.6925234 208.401151 16.5996571 210.695354 32.8090454 210.695354 32.7847735 208.401151"></polygon>
                    <polygon id="Path" fill="#3CDC87" points="16.4846296 213.606689 16.3959845 215.89996 32.8670868 215.89996 32.8417596 213.606689"></polygon>
                    <polygon id="Path" fill="#3CDC87" points="16.2862334 218.811295 16.2018095 221.105498 32.9240729 221.105498 32.8987458 218.811295"></polygon>
                    <polygon id="Path" fill="#3CDC87" points="16.0994455 224.015901 16.0202981 226.310103 32.9821144 226.310103 32.9567872 224.015901"></polygon>
                    <polygon id="Path" fill="#3CDC87" points="15.9232107 229.221439 15.8493397 231.514709 33.0391005 231.514709 33.0137733 229.221439"></polygon>
                    <polygon id="Path" fill="#3CDC87" points="15.7575288 234.426044 15.687879 236.720247 33.0971419 236.720247 33.0718148 234.426044"></polygon>
                    <polygon id="Path" fill="#3CDC87" points="15.6023998 239.63065 15.5380266 241.924853 33.1541281 241.924853 33.1288009 239.63065"></polygon>
                    <polygon id="Path" fill="#3CDC87" points="15.4578239 244.836188 15.3976719 247.130391 33.2121695 247.130391 33.1868423 244.836188"></polygon>
                    <polygon id="Path" fill="#3CDC87" points="15.323801 250.041726 15.2668149 252.334997 33.2691556 252.334997 33.2448838 250.041726"></polygon>
                    <polygon id="Path" fill="#3CDC87" points="15.200331 255.2454 15.1486214 257.540535 33.3271971 257.540535 33.3018699 255.2454"></polygon>
                    <polygon id="Path" fill="#3CDC87" points="15.0874141 260.450938 15.0399256 262.74514 33.3841832 262.74514 33.358856 260.450938"></polygon>
                    <polygon id="Path" fill="#3CDC87" points="14.9818842 265.655543 14.9396722 267.949746 33.4422246 267.949746 33.4168974 265.655543"></polygon>
                    <polygon id="Path" fill="#3CDC87" points="14.8890179 270.861081 14.8499719 273.154352 33.4992107 273.154352 33.4738836 270.861081"></polygon>
                    <polygon id="Path" fill="#3CDC87" points="14.8035387 276.065687 14.7708245 278.35989 33.5572522 278.35989 33.531925 276.065687"></polygon>
                    <polygon id="Path" fill="#3CDC87" points="14.7307231 281.270293 14.7011747 283.564496 33.6142383 283.564496 33.5889111 281.270293"></polygon>
                    <polygon id="Path" fill="#3CDC87" points="14.6663499 286.475831 14.6399674 288.770034 33.6722797 288.770034 33.6469526 286.475831"></polygon>
                    <polygon id="Path" fill="#3CDC87" points="30.0948171 41.9376667 29.8067205 44.2318696 30.9696597 44.2318696 30.9443326 41.9376667"></polygon>
                    <polygon id="Path" fill="#3CDC87" points="29.4489743 47.1422724 29.1693201 49.4364753 31.0277012 49.4364753 31.002374 47.1422724"></polygon>
                    <polygon id="Path" fill="#3CDC87" points="28.8200162 52.3478104 28.5477492 54.6410811 31.0846873 54.6410811 31.0604154 52.3478104"></polygon>
                    <polygon id="Path" fill="#3CDC87" points="28.2068877 57.5524162 27.943063 59.8466191 31.1427287 59.8466191 31.1174015 57.5524162"></polygon>
                    <polygon id="Path" fill="#3CDC87" points="27.6106439 62.757022 27.3542063 65.0512249 31.2007701 65.0512249 31.175443 62.757022"></polygon>
                    <polygon id="Path" fill="#3CDC87" points="27.0312849 67.96256 26.7811791 70.2558306 31.2577563 70.2558306 31.2324291 67.96256"></polygon>
                    <polygon id="Path" fill="#3CDC87" points="26.4667001 73.1671657 26.2229261 75.4613686 31.3147424 75.4613686 31.2904705 73.1671657"></polygon>
                    <polygon id="Path" fill="#3CDC87" points="25.9190001 78.3717715 25.6815579 80.6659744 31.3727838 80.6659744 31.3474567 78.3717715"></polygon>
                    <polygon id="Path" fill="#3CDC87" points="25.3850189 83.5773095 25.1560191 85.8705802 31.42977 85.8705802 31.4044428 83.5773095"></polygon>
                    <polygon id="Path" fill="#3CDC87" points="24.8668673 88.7819152 24.6431439 91.0761181 31.4878114 91.0761181 31.4624842 88.7819152"></polygon>
                    <polygon id="Path" fill="#3CDC87" points="24.3624345 93.986521 24.1460982 96.2807239 31.5447975 96.2807239 31.5205257 93.986521"></polygon>
                    <polygon id="Path" fill="#3CDC87" points="23.8748865 99.192059 23.6638267 101.486262 31.602839 101.486262 31.5775118 99.192059"></polygon>
                    <polygon id="Path" fill="#3CDC87" points="23.400002 104.397597 23.1963294 106.690868 31.6608804 106.690868 31.6355532 104.397597"></polygon>
                    <polygon id="Path" fill="#3CDC87" points="22.9409471 109.601271 22.7414956 111.895473 31.7178665 111.895473 31.6925393 109.601271"></polygon>
                    <polygon id="Path" fill="#3CDC87" points="22.495611 114.806809 22.3035467 117.101011 31.7748526 117.101011 31.7505808 114.806809"></polygon>
                    <polygon id="Path" fill="#3CDC87" points="22.0639939 120.011414 21.8782613 122.305617 31.8328941 122.305617 31.8075669 120.011414"></polygon>
                    <polygon id="Path" fill="#3CDC87" points="21.6450403 125.216952 21.4656395 127.510223 31.8898802 127.510223 31.864553 125.216952"></polygon>
                    <polygon id="Path" fill="#3CDC87" points="21.2398056 130.421558 21.0667366 132.715761 31.9479216 132.715761 31.9225945 130.421558"></polygon>
                    <polygon id="Path" fill="#3CDC87" points="20.8493451 135.626164 20.6815526 137.920367 32.0049078 137.920367 31.9795806 135.626164"></polygon>
                    <polygon id="Path" fill="#3CDC87" points="20.4715481 140.831702 20.3090321 143.125905 32.0629492 143.125905 32.037622 140.831702"></polygon>
                    <polygon id="Path" fill="#3CDC87" points="20.1064148 146.036308 19.9491752 148.33051 32.1209906 148.33051 32.0956635 146.036308"></polygon>
                    <polygon id="Path" fill="#3CDC87" points="19.7550003 151.240913 19.6040926 153.535116 32.1779768 153.535116 32.1526496 151.240913"></polygon>
                    <polygon id="Path" fill="#3CDC87" points="19.4151941 156.446451 19.2695629 158.740654 32.2349629 158.740654 32.210691 156.446451"></polygon>
                    <polygon id="Path" fill="#3CDC87" points="19.0891068 161.651057 18.9487521 163.94526 32.2930043 163.94526 32.2676771 161.651057"></polygon>
                    <polygon id="Path" fill="#3CDC87" points="18.7735725 166.855663 18.6395495 169.149866 32.3499904 169.149866 32.3246633 166.855663"></polygon>
                    <polygon id="Path" fill="#3CDC87" points="18.4728123 172.061201 18.3430106 174.355404 32.4080319 174.355404 32.3827047 172.061201"></polygon>
                    <polygon id="Path" fill="#3CDC87" points="14.6104191 291.680437 14.5893131 293.97464 33.7303212 293.97464 33.704994 291.680437"></polygon>
                    <polygon id="Path" fill="#3CDC87" points="14.5650412 296.885975 14.5481564 299.179245 33.786252 299.179245 33.7619801 296.885975"></polygon>
                    <polygon id="Path" fill="#3CDC87" points="14.5281058 302.09058 14.5154422 304.384783 33.8442934 304.384783 33.8189663 302.09058"></polygon>
                    <polygon id="Path" fill="#3CDC87" points="14.500668 307.295186 14.4922256 309.589389 33.9023349 309.589389 33.8770077 307.295186"></polygon>
                    <polygon id="Path" fill="#3CDC87" points="14.4837832 312.499792 14.4785067 314.793995 33.959321 314.793995 33.9339938 312.499792"></polygon>
                    <polygon id="Path" fill="#3CDC87" points="14.4753408 317.70533 14.4732302 319.999533 34.0173624 319.999533 33.9920352 317.70533"></polygon>
                    <polygon id="Path" fill="#3CDC87" points="18.1836605 177.265807 18.05808 179.560009 32.465018 179.560009 32.4396908 177.265807"></polygon>
                    <path d="M8.28690834,317.554879 C8.28785869,316.745436 8.28891333,316.082764 8.29007228,315.566864 C8.49836258,222.847273 15.0346169,93.0530889 30.6430071,2.29303604 L34.3632573,2.29303604 L37.9256787,320 L40,320 L39.1646884,79.0901207 L36.8804871,1.94081086 C36.8484799,0.85976303 35.9628847,-3.75138596e-15 34.8813631,0 L28.4379781,0 C27.4922197,-0.000658875225 26.6752815,0.661241751 26.4803535,1.58669449 C25.8991799,4.31879937 25.4548896,6.44080417 25.1474827,7.95270889 C7.03485958,97.0351613 0.0975951679,227.499878 0.000491996181,315.715276 C-3.69561112e-05,316.195814 -0.000258627028,316.807951 -0.000173016569,317.551687 C-0.000576857125,318.656257 0.894526106,319.552015 1.99909553,319.552419 C2.00037486,319.552419 2.00165419,319.552418 2.00293353,319.552419 L6.2907584,319.552419 C7.39286286,319.550294 8.28555247,318.656985 8.28690834,317.554879 Z" id="Fill-3" fill="#C5F5DB"></path>
                </g>
            </g>
        </g>
    </g>
</svg>