<svg id="Layer_1" data-name="Layer 1" xmlns="http://www.w3.org/2000/svg" viewBox="0 0 318.89 814.24"><defs><style>.cls-1{fill:#c5f5db;}.cls-2{fill:#8aeab7;}.cls-3{fill:#3cdc87;}</style></defs><path class="cls-1" d="M297.19,146.82a66.72,66.72,0,1,0-66.74-66.68A66.86,66.86,0,0,0,297.19,146.82Z" transform="translate(-137.59 -13.39)"/><path class="cls-2" d="M210.72,785.23c0,2.35.06,4.71.28,7,2.57,27.69,33.14,44,57.45,30.53C282.28,815.13,289,803,289,787.22V750.65H210.71Q210.71,767.95,210.72,785.23Z" transform="translate(-137.59 -13.39)"/><path class="cls-2" d="M305.06,788.56a39.12,39.12,0,0,0,54.14,36c15-6.2,24.24-20.39,24.24-37.39V750.65H305Q305,769.61,305.06,788.56Z" transform="translate(-137.59 -13.39)"/><path class="cls-3" d="M210.53,439.91q0,8.4,0,16.8.08,138.57.16,277.14H289q0-121.76,0-243.5v-3.12h16V687.78q0,23,0,46.07h78.43q0-147,0-293.94H210.53Z" transform="translate(-137.59 -13.39)"/><path class="cls-1" d="M195.55,428.37v0Z" transform="translate(-137.59 -13.39)"/><path class="cls-1" d="M398.49,409.29h0v19.08h0V409.29Z" transform="translate(-137.59 -13.39)"/><path class="cls-2" d="M456.39,250.23a89.26,89.26,0,0,0-1.76-18.09,85.77,85.77,0,0,0-23.39-43.29l.08,0A85.43,85.43,0,0,0,386,165.28l-.57-.1c-1-.17-2-.33-3-.46l-1-.13c-.91-.12-1.83-.22-2.75-.31l-1.51-.11c-.79-.06-1.58-.12-2.37-.16-1,0-2-.07-3-.08l-.94,0h-5.35q-68.49-.17-137,0h-5.33c-20.64.05-39.14,6.67-54.9,20-20.47,17.38-30.73,39.67-30.73,66.59v141h58q0-59.39,0-118.78v-2.92h14.88v3.78q0,74.52.08,149.05H383.45V269.76h15V391.49h58Q456.49,320.87,456.39,250.23Z" transform="translate(-137.59 -13.39)"/><path class="cls-2" d="M210.53,439.91H383.45v-.49H210.53Z" transform="translate(-137.59 -13.39)"/><path class="cls-1" d="M137.59,408.29v20.08h0v26.47c0,1,0,2,0,3,.63,17.53,17.59,30.64,34.71,26.85,13.94-3.09,23.21-14.75,23.21-29.3V408.29Z" transform="translate(-137.59 -13.39)"/><path class="cls-1" d="M398.49,408.29v36c0,4.26-.06,8.52,0,12.77.36,17.92,17.8,31.54,35.26,27.58,13.79-3.13,22.68-14.6,22.68-29.39q0-16.31,0-32.6V408.29Z" transform="translate(-137.59 -13.39)"/></svg>