<?xml version="1.0" encoding="UTF-8"?>
<svg width="56px" height="320px" viewBox="0 0 56 320" version="1.1" xmlns="http://www.w3.org/2000/svg" xmlns:xlink="http://www.w3.org/1999/xlink">
    <title>illust/namsan</title>
    <g id="Page-1" stroke="none" stroke-width="1" fill="none" fill-rule="evenodd">
        <g id="Main-Page-Copy" transform="translate(-817.000000, -6567.000000)">
            <g id="Group-19" transform="translate(817.000000, 6567.000000)">
                <g id="Group" transform="translate(0.000000, 0.000000)">
                    <path d="M10.6824602,244.240142 L10.6824602,247.301004 L22.1525875,247.301004 L22.1525875,254.660478 L10.6824602,254.660478 L10.6824602,257.72134 L22.1525875,257.72134 L22.1525875,288.485237 L1,288.485237 C0.44771525,288.485237 1.00074481e-13,288.932953 0,289.485237 L0,295.44032 L0,295.44032 L56,295.44032 L56,289.485237 C56,288.932953 55.5522847,288.485237 55,288.485237 L33.897138,288.485237 L33.897138,288.485237 L33.897138,257.72134 L45.3660395,257.72134 L45.3660395,254.660478 L33.897138,254.660478 L33.897138,247.301004 L45.3660395,247.301004 L45.3660395,244.240142 L33.897138,244.240142 L33.897138,168.107343 L52.9587486,165.993784 L52.9587486,165.045364 L3.09097692,165.045364 L3.09097692,165.994902 L22.1525875,168.107343 L22.1525875,244.240142 L10.6824602,244.240142 Z" id="Fill-1" fill="#C5F5DB"></path>
                    <path d="M41.5,158.662394 L50.5,158.662394 L50.5,155.926836 L41.5,155.926836 L41.5,158.662394 Z M41.5,155.014983 L50.5,155.014983 L50.5,152.279424 L41.5,152.279424 L41.5,155.014983 Z M41.5,150.455719 L50.5,150.455719 L50.5,147.72016 L41.5,147.72016 L41.5,150.455719 Z M41.5,146.808307 L50.5,146.808307 L50.5,144.072749 L41.5,144.072749 L41.5,146.808307 Z M29.5,158.662394 L38.5,158.662394 L38.5,155.926836 L29.5,155.926836 L29.5,158.662394 Z M29.5,155.014983 L38.5,155.014983 L38.5,152.279424 L29.5,152.279424 L29.5,155.014983 Z M29.5,150.455719 L38.5,150.455719 L38.5,147.72016 L29.5,147.72016 L29.5,150.455719 Z M29.5,146.808307 L38.5,146.808307 L38.5,144.072749 L29.5,144.072749 L29.5,146.808307 Z M17.5,158.662394 L26.5,158.662394 L26.5,155.926836 L17.5,155.926836 L17.5,158.662394 Z M17.5,155.014983 L26.5,155.014983 L26.5,152.279424 L17.5,152.279424 L17.5,155.014983 Z M17.5,150.455719 L26.5,150.455719 L26.5,147.72016 L17.5,147.72016 L17.5,150.455719 Z M17.5,146.808307 L26.5,146.808307 L26.5,144.072749 L17.5,144.072749 L17.5,146.808307 Z M5.5,158.662394 L14.5,158.662394 L14.5,155.926836 L5.5,155.926836 L5.5,158.662394 Z M5.5,155.014983 L14.5,155.014983 L14.5,152.279424 L5.5,152.279424 L5.5,155.014983 Z M5.5,150.455719 L14.5,150.455719 L14.5,147.72016 L5.5,147.72016 L5.5,150.455719 Z M5.5,146.808307 L14.5,146.808307 L14.5,144.072749 L5.5,144.072749 L5.5,146.808307 Z M3,162.309805 L53,162.309805 L53,140.425337 L3,140.425337 L3,162.309805 Z" id="Fill-3" fill="#3CDC87"></path>
                    <path d="M39.4263355,107.598635 C39.9786202,107.598635 40.4263355,108.04635 40.4263355,108.598635 L40.4263355,108.598635 L40.4263355,120.905644 L48,120.905644 C48.5522847,120.905644 49,121.353359 49,121.905644 L49,121.905644 L49,136.777926 L7,136.777926 L7,121.905644 C7,121.353359 7.44771525,120.905644 8,120.905644 L8,120.905644 L15.5752998,120.905644 L15.5752998,108.598635 C15.5752998,108.04635 16.023015,107.598635 16.5752998,107.598635 L16.5752998,107.598635 Z M46,132.218662 L10,132.218662 L10,134.861637 L46,134.861637 L46,132.218662 Z M46,127.659398 L10,127.659398 L10,130.302373 L46,130.302373 L46,127.659398 Z M46,123.100133 L10,123.100133 L10,125.743109 L46,125.743109 L46,123.100133 Z M36.4024024,115.805311 L19,115.805311 L19,119.210875 L36.4024024,119.210875 L36.4024024,115.805311 Z M36.4024024,109.422341 L19,109.422341 L19,112.826795 L36.4024024,112.826795 L36.4024024,109.422341 Z" id="Combined-Shape" fill="#C5F5DB"></path>
                    <path d="M25,67.8789523 L26.2532281,67.8789523 L26.2532281,67.8789523 L26.2532281,38.5223617 C26.2532281,37.970077 26.7009434,37.5223617 27.2532281,37.5223617 L27.5651363,37.5223617 L27.5651363,37.5223617 L27.5651363,0.934863702 C27.5651363,0.418552736 27.983689,9.48447857e-17 28.5,0 C29.016311,-9.48447857e-17 29.4348637,0.418552736 29.4348637,0.934863702 L29.4348637,37.5223617 L29.4348637,37.5223617 L29.7493544,37.5223617 C30.3016391,37.5223617 30.7493544,37.970077 30.7493544,38.5223617 L30.7493544,67.8789523 L30.7493544,67.8789523 L32,67.8789523 C32.5522847,67.8789523 33,68.3266675 33,68.8789523 L33,104.863077 L33,104.863077 L31.6274032,104.863077 L25.3725968,104.863077 L24,104.863077 L24,68.8789523 C24,68.3266675 24.4477153,67.8789523 25,67.8789523 Z" id="Fill-6" fill="#3CDC87"></path>
                    <polygon id="Fill-7" fill="#3CDC87" points="55.8779292 320 55.8779292 318.034377 0 318.034377 0.00435967302 320"></polygon>
                    <polygon id="Fill-7-Copy" fill="#3CDC87" points="55.8779292 316.210671 55.8779292 314.245048 0 314.245048 0.00435967302 316.210671"></polygon>
                    <polygon id="Fill-7-Copy-2" fill="#3CDC87" points="55.8779292 312.421342 55.8779292 310.455719 0 310.455719 0.00435967302 312.421342"></polygon>
                    <polygon id="Fill-7-Copy-3" fill="#3CDC87" points="55.8779292 308.632013 55.8779292 306.66639 0 306.66639 0.00435967302 308.632013"></polygon>
                    <polygon id="Fill-7-Copy-4" fill="#3CDC87" points="55.8779292 304.842684 55.8779292 302.877061 0 302.877061 0.00435967302 304.842684"></polygon>
                    <polygon id="Fill-7-Copy-5" fill="#3CDC87" points="55.8779292 301.053355 55.8779292 299.087731 0 299.087731 0.00435967302 301.053355"></polygon>
                </g>
            </g>
        </g>
    </g>
</svg>