<?xml version="1.0" encoding="UTF-8"?>
<svg width="48px" height="107px" viewBox="0 0 48 107" version="1.1" xmlns="http://www.w3.org/2000/svg" xmlns:xlink="http://www.w3.org/1999/xlink">
    <title>ic_bottle_simple</title>
    <g id="Page-1" stroke="none" stroke-width="1" fill="none" fill-rule="evenodd">
        <path d="M7.66666667,106.666667 C3.66666667,106.666667 0,103 0,99 L0,34.6666667 C0,24 17.6666667,28 17.3333333,10.6666667 L14.6666667,10.6666667 L14.6666667,0 L33.3333333,0 L33.3333333,10.6666667 L30.3333333,10.6666667 C30.3333333,28 48,24 48,34.6666667 L48,99 C48,103 44.3333333,106.666667 40,106.666667 L7.66666667,106.666667 Z M18.3333333,3.66666667 L18.3333333,7 L29.6666667,7 L29.6666667,3.66666667 L18.3333333,3.66666667 Z M26.6666667,11.3333333 L21.3333333,11.3333333 C21,17.3333333 19,22.6666667 14,26.3333333 C12,28 9.66666667,29 7.66666667,30 C6.66666667,30.6666667 5,31.6666667 4.33333333,32.6666667 C4,33.3333333 3.66666667,34 3.66666667,34.6666667 L3.66666667,99 C3.66666667,101 5.66666667,103 7.66666667,103 L40,103 C42.3333333,103 44,101 44,99 L44,34.6666667 C44,34 44,33.3333333 43.6666667,32.6666667 C42.6666667,31.6666667 41.3333333,30.6666667 40.3333333,30 C38,29 36,28 34,26.3333333 C28.6666667,22.6666667 26.6666667,17.3333333 26.6666667,11.3333333 Z" id="ic_bottle_simple" fill="#3CDC87" fill-rule="nonzero"></path>
    </g>
</svg>