<?xml version="1.0" encoding="UTF-8"?>
<svg width="80px" height="80px" viewBox="0 0 80 80" version="1.1" xmlns="http://www.w3.org/2000/svg" xmlns:xlink="http://www.w3.org/1999/xlink">
    <title>icon/particle/p1</title>
    <defs>
        <polygon id="path-1" points="0 0 13.978022 0 13.978022 8.59859155 0 8.59859155"></polygon>
    </defs>
    <g id="element" stroke="none" stroke-width="1" fill="none" fill-rule="evenodd">
        <g id="plastic-item" transform="translate(-107.000000, -1233.000000)">
            <g id="icon/particle/p1" transform="translate(107.000000, 1233.000000)">
                <rect id="Rectangle" x="0" y="0" width="80" height="80"></rect>
                <g id="Group-2" transform="translate(28.000000, 21.000000)">
                    <path d="M17.9335062,8.41500069 C17.9402621,8.35550259 17.885089,8.2960045 17.8096483,8.28253323 L5.19753028,5.99578567 C5.1232155,5.98231441 5.05115269,6.01823778 5.03538895,6.07661327 L2.68996963,9.19072114 L3.03339397,15.1899253 L0,21.369869 L0.439132757,23.9574749 L2.43774979,24.4929577 L16.6465095,19.7443362 L16.7478478,16.5550137 L17.8513096,15.6580519 L17.1385633,13.5396951 L14.6782939,12.4406643 L17.5990897,11.3618403 L17.9335062,8.41500069 Z" id="Fill-94" fill="#F2F2F2"></path>
                    <path d="M23.2087912,26.6533576 L14.1264522,15.1126761 C9.83825397,17.5249487 1.84615385,22.748244 1.84615385,22.748244 L9.45655843,35.6971831 L23.2087912,26.6533576 Z" id="Fill-96" fill="#F2F2F2"></path>
                    <path d="M10.7196459,34.915493 L21.8901099,27.2601049 C21.8901099,27.2601049 18.2881514,21.0264157 12.3690793,25.0826372 C6.45110539,29.1377356 10.7196459,34.915493 10.7196459,34.915493" id="Fill-98" fill="#FFFFFF"></path>
                    <g id="Group-102" transform="translate(5.274725, 0.000000)">
                        <mask id="mask-2" fill="white">
                            <use xlink:href="#path-1"></use>
                        </mask>
                        <g id="Clip-101"></g>
                        <path d="M0.0678729278,6.26601044 L12.8180139,8.59730122 C12.8631591,8.60524235 12.9060471,8.5757467 12.9139475,8.53036878 L13.9714744,2.68796125 C14.0109765,2.47128166 13.8676404,2.26367767 13.6520719,2.22397199 L1.519292,0.00612601955 C1.30372354,-0.0324452147 1.09718412,0.110495242 1.05768205,0.327174822 L0.00128371694,6.16958236 C-0.00661669791,6.21496028 0.0227277001,6.25806931 0.0678729278,6.26601044" id="Fill-100" fill="#FF7715" mask="url(#mask-2)"></path>
                    </g>
                    <polygon id="Fill-103" fill="#B2B1AE" points="17.9340659 8.28549334 17.8801365 8.59859155 5.8021978 6.30605596 5.8561272 5.99295775"></polygon>
                    <path d="M10.5509702,36.9752758 L23.9338138,28.1544017 C24.0025974,28.1096644 24.020348,28.0190988 23.9748621,27.9514474 L22.8610119,26.3169014 L9.23076923,35.3003572 L10.3446194,36.9349032 C10.3901053,37.0025546 10.4821866,37.0200131 10.5509702,36.9752758" id="Fill-105" fill="#EAEAEA"></path>
                    <polygon id="Fill-107" fill="#DD5D05" points="6.63866583 1.3028169 19.2527473 3.65388379 19.207488 3.9084507 6.59340659 1.55738382"></polygon>
                    <path d="M11.0943268,2.65149646 L13.1868132,3.01889083 C13.0828639,3.57649646 12.5280175,3.94649646 11.9502213,3.84617956 C11.372425,3.74325702 10.9890275,3.2091021 11.0943268,2.65149646" id="Fill-109" fill="#DD5D05"></path>
                    <path d="M22.8467811,27.1836961 L22.9667811,27.1087622 C22.9957921,27.0903358 23.0353526,27.0977063 23.0551328,27.1247317 L23.852935,28.2339994 C23.8713965,28.2610248 23.8634844,28.2978775 23.8357921,28.3163039 L23.7157921,28.3912378 C23.6867811,28.4096642 23.645902,28.4022937 23.6274405,28.3752683 L22.8283196,27.2660006 C22.809858,27.2389752 22.8177701,27.2021225 22.8467811,27.1836961" id="Fill-111" fill="#D3D1D1"></path>
                    <path d="M22.0549451,27.1836961 L22.1749451,27.1087622 C22.203956,27.0903358 22.2435165,27.0977063 22.2632967,27.1247317 L23.0610989,28.2339994 C23.0808791,28.2610248 23.072967,28.2978775 23.043956,28.3163039 L22.923956,28.3912378 C22.8949451,28.4096642 22.8540659,28.4022937 22.8356044,28.3752683 L22.0378022,27.2660006 C22.018022,27.2389752 22.0259341,27.2021225 22.0549451,27.1836961" id="Fill-113" fill="#D3D1D1"></path>
                    <path d="M21.2637363,27.9653862 L21.3837363,27.8904523 C21.4127473,27.8720259 21.4536264,27.8793965 21.4720879,27.9064218 L22.2698901,29.0156896 C22.2896703,29.0427149 22.2817582,29.0795677 22.2527473,29.0979941 L22.1327473,29.172928 C22.1037363,29.1913544 22.0641758,29.1839838 22.0443956,29.1569585 L21.2465934,28.0476907 C21.2268132,28.0206653 21.2347253,27.9838126 21.2637363,27.9653862" id="Fill-115" fill="#D3D1D1"></path>
                    <path d="M21.2637363,27.9653862 L21.3837363,27.8904523 C21.4127473,27.8720259 21.4523077,27.8793965 21.4720879,27.9064218 L22.2698901,29.0156896 C22.2896703,29.0427149 22.2817582,29.0795677 22.2527473,29.0979941 L22.1327473,29.172928 C22.1037363,29.1913544 22.0628571,29.1839838 22.0443956,29.1569585 L21.2465934,28.0476907 C21.2268132,28.0206653 21.2347253,27.9838126 21.2637363,27.9653862" id="Fill-117" fill="#D3D1D1"></path>
                    <path d="M20.736725,28.486513 L20.856725,28.4115791 C20.885736,28.3931527 20.9252964,28.4005232 20.9450766,28.4275486 L21.7428788,29.5368164 C21.7613404,29.5638417 21.7534283,29.6006945 21.725736,29.6191208 L21.605736,29.6940548 C21.576725,29.7124811 21.5358459,29.7051106 21.5173843,29.6780852 L20.7195821,28.5688175 C20.6998019,28.5417921 20.707714,28.5049394 20.736725,28.486513" id="Fill-119" fill="#D3D1D1"></path>
                    <path d="M19.9450549,28.486513 L20.0650549,28.4115791 C20.0940659,28.3931527 20.1336264,28.4005232 20.1534066,28.4275486 L20.9512088,29.5368164 C20.970989,29.5638417 20.9630769,29.6006945 20.9340659,29.6191208 L20.8140659,29.6940548 C20.7850549,29.7124811 20.7441758,29.7051106 20.7257143,29.6780852 L19.9279121,28.5688175 C19.9081319,28.5417921 19.916044,28.5049394 19.9450549,28.486513" id="Fill-121" fill="#D3D1D1"></path>
                    <path d="M19.4177527,29.2682031 L19.5377527,29.1932692 C19.5667637,29.1748428 19.6063241,29.1822134 19.6261043,29.2092387 L20.4239065,30.3185065 C20.4436867,30.3455318 20.434456,30.3823846 20.4067637,30.400811 L20.2867637,30.4757449 C20.2577527,30.4941713 20.2168735,30.4868007 20.198412,30.4597754 L19.4006098,29.3505076 C19.3808296,29.3234822 19.3887417,29.2866295 19.4177527,29.2682031" id="Fill-123" fill="#D3D1D1"></path>
                    <path d="M19.4175824,29.2682031 L19.5375824,29.1932692 C19.5665934,29.1748428 19.6061538,29.1822134 19.6259341,29.2092387 L20.4237363,30.3185065 C20.4435165,30.3455318 20.4356044,30.3823846 20.4065934,30.400811 L20.2865934,30.4757449 C20.2575824,30.4941713 20.2167033,30.4868007 20.1982418,30.4597754 L19.4004396,29.3505076 C19.3806593,29.3234822 19.3885714,29.2866295 19.4175824,29.2682031" id="Fill-125" fill="#D3D1D1"></path>
                    <path d="M18.6268349,29.7893299 L18.7468349,29.714396 C18.7758459,29.6959696 18.8154063,29.7033401 18.8351865,29.7303655 L19.6329887,30.8396333 C19.6514503,30.8666586 19.6435382,30.9035114 19.6158459,30.9219377 L19.4958459,30.9968717 C19.4668349,31.015298 19.4259558,31.0079275 19.4074942,30.9809021 L18.609692,29.8716344 C18.5899118,29.8433806 18.5978239,29.8077563 18.6268349,29.7893299" id="Fill-127" fill="#D3D1D1"></path>
                    <path d="M18.0989011,29.7893299 L18.2189011,29.714396 C18.2479121,29.6959696 18.2874725,29.7033401 18.3072527,29.7303655 L19.1050549,30.8396333 C19.1248352,30.8666586 19.1169231,30.9035114 19.0879121,30.9219377 L18.9679121,30.9968717 C18.9389011,31.015298 18.8993407,31.0079275 18.8795604,30.9809021 L18.0817582,29.8716344 C18.061978,29.844609 18.0698901,29.8077563 18.0989011,29.7893299" id="Fill-129" fill="#D3D1D1"></path>
                    <path d="M18.0990714,30.57102 L18.2190714,30.4960861 C18.2480823,30.4776597 18.2876428,30.4850303 18.307423,30.5120556 L19.1052252,31.6213234 C19.1250054,31.6483487 19.1157746,31.6852015 19.0880823,31.7036279 L18.9680823,31.7785618 C18.9390714,31.7969882 18.8981922,31.7896176 18.8797307,31.7625923 L18.0819285,30.6533245 C18.0621483,30.6262991 18.0700604,30.5894464 18.0990714,30.57102" id="Fill-131" fill="#D3D1D1"></path>
                    <path d="M17.3076923,30.57102 L17.4276923,30.4960861 C17.4567033,30.4776597 17.4962637,30.4850303 17.516044,30.5120556 L18.3138462,31.6213234 C18.3336264,31.6483487 18.3257143,31.6852015 18.2967033,31.7036279 L18.1767033,31.7785618 C18.1476923,31.7969882 18.1068132,31.7896176 18.0883516,31.7625923 L17.2905495,30.6533245 C17.2707692,30.6262991 17.2786813,30.5894464 17.3076923,30.57102" id="Fill-133" fill="#D3D1D1"></path>
                    <path d="M16.78039,31.0921468 L16.90039,31.0172129 C16.929401,30.9987865 16.9689615,31.006157 16.9887417,31.0331824 L17.7865439,32.1424502 C17.8063241,32.1694755 17.7970933,32.2063283 17.769401,32.2247546 L17.649401,32.2996886 C17.62039,32.3181149 17.5795109,32.3107444 17.5610494,32.283719 L16.7632472,31.1744513 C16.743467,31.1474259 16.751379,31.1105732 16.78039,31.0921468" id="Fill-135" fill="#D3D1D1"></path>
                    <path d="M16.7802198,31.0921468 L16.9002198,31.0172129 C16.9292308,30.9987865 16.9687912,31.006157 16.9885714,31.0331824 L17.7863736,32.1424502 C17.8061538,32.1694755 17.7982418,32.2063283 17.7692308,32.2247546 L17.6492308,32.2996886 C17.6202198,32.3181149 17.5806593,32.3107444 17.5608791,32.283719 L16.7630769,31.1744513 C16.7432967,31.1474259 16.7512088,31.1105732 16.7802198,31.0921468" id="Fill-137" fill="#D3D1D1"></path>
                    <path d="M15.9891812,31.8738369 L16.1091812,31.798903 C16.1381922,31.7804766 16.1777527,31.7878472 16.1975329,31.8148725 L16.9953351,32.9241403 C17.0151153,32.9511656 17.0058845,32.9880184 16.9781922,33.0064448 L16.8581922,33.0813787 C16.8291812,33.0998051 16.7883021,33.0924345 16.7698406,33.0654092 L15.9720384,31.9561414 C15.9522582,31.929116 15.9601703,31.8922633 15.9891812,31.8738369" id="Fill-139" fill="#D3D1D1"></path>
                    <path d="M15.4615385,31.8738369 L15.5815385,31.798903 C15.6105495,31.7804766 15.6514286,31.7878472 15.6698901,31.8148725 L16.4676923,32.9241403 C16.4874725,32.9511656 16.4795604,32.9880184 16.4505495,33.0064448 L16.3305495,33.0813787 C16.3015385,33.0998051 16.261978,33.0924345 16.2421978,33.0654092 L15.4443956,31.9561414 C15.4246154,31.929116 15.4325275,31.8922633 15.4615385,31.8738369" id="Fill-141" fill="#D3D1D1"></path>
                    <path d="M14.6704999,31.8738369 L14.7904999,31.798903 C14.8195109,31.7804766 14.8590714,31.7878472 14.8788516,31.8148725 L15.6766538,32.9241403 C15.696434,32.9511656 15.6872032,32.9880184 15.6595109,33.0064448 L15.5395109,33.0813787 C15.5104999,33.0998051 15.4696208,33.0924345 15.4511593,33.0654092 L14.6533571,31.9561414 C14.6335768,31.929116 14.6414889,31.8922633 14.6704999,31.8738369" id="Fill-143" fill="#D3D1D1"></path>
                    <path d="M14.6703297,32.3949637 L14.7903297,32.3200298 C14.8193407,32.3016034 14.8589011,32.3089739 14.8786813,32.3359993 L15.6764835,33.4452671 C15.6962637,33.4722924 15.6883516,33.5091452 15.6593407,33.5275715 L15.5393407,33.6025055 C15.5103297,33.6209318 15.4707692,33.6135613 15.450989,33.5865359 L14.6531868,32.4772682 C14.6334066,32.4490144 14.6413187,32.4133901 14.6703297,32.3949637" id="Fill-145" fill="#D3D1D1"></path>
                    <path d="M14.1428571,32.3949637 L14.2628571,32.3200298 C14.2918681,32.3016034 14.3314286,32.3089739 14.3512088,32.3359993 L15.149011,33.4452671 C15.1687912,33.4722924 15.1608791,33.5091452 15.1318681,33.5275715 L15.0118681,33.6025055 C14.9828571,33.6209318 14.941978,33.6135613 14.9235165,33.5865359 L14.1257143,32.4772682 C14.1059341,32.4502428 14.1138462,32.4133901 14.1428571,32.3949637" id="Fill-147" fill="#D3D1D1"></path>
                    <path d="M13.3516484,33.1766538 L13.4716484,33.1017199 C13.5006593,33.0832935 13.5415385,33.0906641 13.56,33.1176894 L14.3578022,34.2269572 C14.3775824,34.2539825 14.3696703,34.2908353 14.3406593,34.3092617 L14.2206593,34.3841956 C14.1916484,34.402622 14.1520879,34.3952514 14.1323077,34.3682261 L13.3345055,33.2589583 C13.3147253,33.2319329 13.3226374,33.1950802 13.3516484,33.1766538" id="Fill-149" fill="#D3D1D1"></path>
                    <path d="M13.3516484,33.1766538 L13.4716484,33.1017199 C13.5006593,33.0832935 13.5402198,33.0906641 13.56,33.1176894 L14.3578022,34.2269572 C14.3775824,34.2539825 14.3696703,34.2908353 14.3406593,34.3092617 L14.2206593,34.3841956 C14.1916484,34.402622 14.1507692,34.3952514 14.1323077,34.3682261 L13.3345055,33.2589583 C13.3147253,33.2319329 13.3226374,33.1950802 13.3516484,33.1766538" id="Fill-151" fill="#D3D1D1"></path>
                    <path d="M12.8241758,33.6977806 L12.9441758,33.6228467 C12.9731868,33.6044203 13.0140659,33.6117908 13.0325275,33.6388162 L13.8303297,34.748084 C13.8501099,34.7751093 13.8421978,34.8119621 13.8131868,34.8303884 L13.6931868,34.9053224 C13.6641758,34.9237487 13.6246154,34.9163782 13.6048352,34.8893528 L12.807033,33.7800851 C12.7872527,33.7530597 12.7951648,33.716207 12.8241758,33.6977806" id="Fill-153" fill="#D3D1D1"></path>
                    <path d="M12.0331373,33.6977806 L12.1531373,33.6228467 C12.1821483,33.6044203 12.2217087,33.6117908 12.2414889,33.6388162 L13.0392911,34.748084 C13.0590714,34.7751093 13.0498406,34.8119621 13.0221483,34.8303884 L12.9021483,34.9053224 C12.8731373,34.9237487 12.8322582,34.9163782 12.8137966,34.8893528 L12.0159944,33.7800851 C11.9962142,33.7530597 12.0041263,33.716207 12.0331373,33.6977806" id="Fill-155" fill="#D3D1D1"></path>
                    <path d="M11.2417582,34.4794707 L11.3617582,34.4045368 C11.3907692,34.3861104 11.4316484,34.393481 11.4501099,34.4205063 L12.2479121,35.5297741 C12.2676923,35.5567994 12.2597802,35.5936522 12.2307692,35.6120786 L12.1107692,35.6870125 C12.0817582,35.7054389 12.0421978,35.6980683 12.0224176,35.671043 L11.2246154,34.5617752 C11.2048352,34.5347498 11.2127473,34.4978971 11.2417582,34.4794707" id="Fill-157" fill="#D3D1D1"></path>
                    <path d="M11.2417582,34.4794707 L11.3617582,34.4045368 C11.3907692,34.3861104 11.4303297,34.393481 11.4501099,34.4205063 L12.2479121,35.5297741 C12.2676923,35.5567994 12.2597802,35.5936522 12.2307692,35.6120786 L12.1107692,35.6870125 C12.0817582,35.7054389 12.0408791,35.6980683 12.0224176,35.671043 L11.2246154,34.5617752 C11.2048352,34.5347498 11.2127473,34.4978971 11.2417582,34.4794707" id="Fill-159" fill="#D3D1D1"></path>
                    <path d="M10.7142857,35.0005975 L10.8342857,34.9256636 C10.8632967,34.9072372 10.9041758,34.9146077 10.9226374,34.9416331 L11.7204396,36.0509009 C11.7402198,36.0779262 11.7323077,36.114779 11.7032967,36.1332053 L11.5832967,36.2081393 C11.5542857,36.2265656 11.5147253,36.2191951 11.4949451,36.1921697 L10.6971429,35.082902 C10.6773626,35.0558766 10.6852747,35.0190239 10.7142857,35.0005975" id="Fill-161" fill="#D3D1D1"></path>
                    <path d="M9.92307692,35.0005975 L10.0430769,34.9256636 C10.0720879,34.9072372 10.1116484,34.9146077 10.1314286,34.9416331 L10.9292308,36.0509009 C10.949011,36.0779262 10.9410989,36.114779 10.9120879,36.1332053 L10.7920879,36.2081393 C10.7630769,36.2265656 10.7221978,36.2191951 10.7037363,36.1921697 L9.90593407,35.082902 C9.88615385,35.0546482 9.89406593,35.0190239 9.92307692,35.0005975" id="Fill-163" fill="#D3D1D1"></path>
                    <path d="M9.92307692,35.7822876 L10.0430769,35.7073537 C10.0720879,35.6889273 10.112967,35.6962979 10.1314286,35.7233232 L10.9292308,36.832591 C10.949011,36.8596163 10.9410989,36.8964691 10.9120879,36.9148955 L10.7920879,36.9898294 C10.7630769,37.0082558 10.7235165,37.0008852 10.7037363,36.9738599 L9.90593407,35.8645921 C9.88615385,35.8375667 9.89406593,35.800714 9.92307692,35.7822876" id="Fill-165" fill="#D3D1D1"></path>
                    <polygon id="Fill-167" fill="#D3D1D1" points="17.9152084 15.8943662 16.7482612 14.2510851 12.55191 12.9587642 10.0272218 13.3228444 9.23076923 11.9616435 12.7870743 12.4711372 15.9673383 10.5599892 17.1198651 10.8803361 17.9340659 9.38028169 17.6656237 11.7090833 14.7892984 12.7608707 17.2130434 13.8312448"></polygon>
                    <polygon id="Fill-169" fill="#D3D1D1" points="2.5431632 24.4929577 3.45391471 21.6948303 11.3406593 16.6760563 7.87367138 16.7834158 7.80439976 17.9225566 3.36988028 20.6946918 1.20656155 20.4618912 0.702354986 21.1286502 1.24403637 23.3323451 1.77322614 21.7468148 2.86680931 21.4123053 2.18544908 23.1696107 0.527472527 23.9539001"></polygon>
                    <polygon id="Fill-171" fill="#D3D1D1" points="1.84615385 17.7183099 4.6136964 14.1445852 10.5494505 13.5606289 6.67669173 11.8229764 4.899567 13.2970831 2.89059447 9.11971831 3.23386429 14.9636549"></polygon>
                    <polygon id="Fill-173" fill="#FFFFFF" points="6.32967033 29.1830986 9.37806272 22.5816626 17.1428571 22.3460155 16.1157799 20.7031242 14.1918502 21.5804393 15.5541148 18.4019701 14.2915005 17.1971831 13.6732159 20.6146183 11.6371797 17.9959491 10.9452897 19.1299313 13.1387281 21.7751523 8.04071078 21.767408"></polygon>
                    <polygon id="Fill-175" fill="#FFFFFF" points="3.88831255 19.0211268 6.57524398 17.6808786 6.52075614 16.0858896 10.5494505 15.1126761 4.9803396 15.5774479 2.63736264 17.7931724"></polygon>
                    <polygon id="Fill-177" fill="#FFFFFF" points="9.53319867 11.1393576 12.6593407 9.49758143 10.20607 8.83235076 6.88574365 10.0754255 6.00288232 8.59859155 3.95604396 9.98366951 4.96083499 11.9859155 8.84452167 10.8258581"></polygon>
                </g>
            </g>
        </g>
    </g>
</svg>