<?xml version="1.0" encoding="UTF-8"?>
<svg width="80px" height="80px" viewBox="0 0 80 80" version="1.1" xmlns="http://www.w3.org/2000/svg" xmlns:xlink="http://www.w3.org/1999/xlink">
    <title>icon/particle/p2</title>
    <defs>
        <polygon id="path-1" points="0 0 36.9230769 0 36.9230769 18 0 18"></polygon>
        <polygon id="path-3" points="0 0 35.7692308 0 35.7692308 18 0 18"></polygon>
    </defs>
    <g id="element" stroke="none" stroke-width="1" fill="none" fill-rule="evenodd">
        <g id="plastic-item" transform="translate(-107.000000, -1347.000000)">
            <g id="icon/particle/p2" transform="translate(107.000000, 1347.000000)">
                <rect id="Rectangle-Copy-8" x="0" y="0" width="80" height="80"></rect>
                <g id="icon/particle/p10" transform="translate(20.000000, 31.000000)">
                    <g id="Group-3" transform="translate(3.076923, 0.000000)">
                        <mask id="mask-2" fill="white">
                            <use xlink:href="#path-1"></use>
                        </mask>
                        <g id="Clip-2"></g>
                        <path d="M0,8.47995573 C0.54527577,6.33520678 1.78024577,4.67614583 3.74279924,3.52907165 L8.90013059,3.25489294 L16.1737689,6.86230136 L20.8308523,8.47995573 C23.1080513,3.86983661 26.5032578,0.940041282 31.2212935,0 L35.3391414,0 C36.2962569,0.669219865 36.2062013,1.55162766 35.7630618,2.50565766 C35.5423157,2.98183333 35.6274292,3.54753674 35.9684325,3.9425779 C37.1166416,5.27206486 37.3538613,6.60323046 35.9860043,7.9371938 C35.6290766,8.2852329 35.4764213,8.80505334 35.621938,9.2857054 C36.3780757,11.7891249 35.6362151,13.3771232 32.9916551,13.8023799 L29.3356168,13.8029395 L24.5632183,11.5686628 L24.9865895,13.8023799 C23.4078706,15.7126781 21.371186,16.919624 19.2526825,18.0001119 L13.2107195,17.7253737 L7.05289223,15.6863793 L5.20565387,16.9800552 C3.5709248,16.1966875 2.44193489,14.8532118 1.54961553,13.247308 L0,8.47995573 Z" id="Fill-1" fill="#74D3DA" mask="url(#mask-2)"></path>
                    </g>
                    <g id="Group-6" transform="translate(4.230769, 0.000000)">
                        <mask id="mask-4" fill="white">
                            <use xlink:href="#path-3"></use>
                        </mask>
                        <g id="Clip-5"></g>
                        <path d="M31.8344912,13.8022941 C34.4813199,13.37704 35.223817,11.7890516 34.4670306,9.28620722 C34.3213891,8.8049986 34.4741753,8.28574093 34.8314092,7.937704 C36.2004396,6.60318941 35.9630164,5.27203208 34.8138223,3.94255339 C34.4725265,3.54751469 34.3873399,2.98181479 34.6082754,2.50620162 C35.0517951,1.55161802 35.141928,0.669215705 34.1839914,0 L32.2516305,0 L30.8716083,0.946190432 L31.8344912,2.47039075 L29.8317827,2.47039075 L21.7813783,10.9245547 L22.12817,12.7061457 L15.2330052,12.9411545 L14.9637057,9.84351394 L10.9192678,7.03403898 L7.60688475,10.9245547 L1.93895596,9.0691038 C1.93895596,9.0691038 0.556185779,10.6078523 0,12.1236594 L0.365477809,13.2472256 C1.25856268,14.8531195 2.38852114,16.1965868 4.02465263,16.9805092 L5.87347571,15.6862818 L12.0365857,17.725823 L18.0837321,18 C20.204053,16.9195188 22.2424848,15.7125804 23.8225581,13.8022941 L23.3988237,11.5685909 L28.1753164,13.8022941 L31.8344912,13.8022941 Z" id="Fill-4" fill="#46C9CC" mask="url(#mask-4)"></path>
                    </g>
                    <polygon id="Fill-7" fill="#46C9CC" points="29.2307692 10.1981174 31.9546979 12.5217391 35.1101014 12.2511029 36.9230769 9.84085494 36.3570803 3.13043478 33.3864351 6.95444573 34.3347865 8.66036 32.2282072 10.4364812"></polygon>
                    <polygon id="Fill-9" fill="#46C9CC" points="7.44368067 12.996741 7.30769231 10.3695652 12.6344562 13.3906262 15.2348191 10.8109788 17.7163304 10.850859 25 14.6700701 20.2586495 16.0434783 14.366373 14.6700701 11.1590377 14.727432"></polygon>
                    <g id="Group-31" transform="translate(3.846154, 0.978261)" fill="#46C9CC">
                        <polygon id="Fill-11" points="0 7.0756897 2.17356844 3.62232059 3.89685103 3.22792311 4.58344167 6.18562291 5.69037169 5.39739057 6.11016659 7.57529735 7.14032478 8.70897913 9.01007278 7.53478862 7.52146153 9.30085666 5.07946392 8.70897913 3.17160225 3.9379511"></polygon>
                        <polygon id="Fill-13" points="7.1784929 3.42523437 7.94131089 4.52965985 9.01012723 3.9771658 8.81955886 4.96287819 10.8036479 6.54046812 11.4140112 6.2642211 11.6432377 7.062018 12.3298283 7.57512856 12.3298283 8.9462365 13.2075318 6.18545413 9.23935376 4.60842682 9.46803581 3.74086488"></polygon>
                        <path d="M31.4100241,0.0341474363 C33.2362136,1.36699713 34.144408,3.18595156 32.8218635,6.18584796 C33.7480258,9.88733303 32.9160587,11.7169773 30.8377745,12.2182728 C33.1333067,12.4450091 34.0975827,11.0896546 33.7757944,8.20847128 C34.893614,5.96867617 34.8968809,4.30669305 33.7757944,3.22814816 C34.1188174,0.921963737 33.3979245,-0.216781632 31.4100241,0.0341474363" id="Fill-15"></path>
                        <path d="M23.3581836,10.033277 L28.6625182,4.72663354 L30.9901747,3.22781058 L31.5248552,8.94573014 L31.5248552,2.59711219 L30.1124713,1.53263282 C28.4251244,4.7547646 25.7675123,7.473913 22.5567074,9.90499934 L22.1755707,11.2327854 L23.3200699,12.5313152 L23.3581836,11.7059499 L23.014616,10.8777714 L22.9383886,10.033277 L23.3581836,10.033277 Z" id="Fill-17"></path>
                        <polygon id="Fill-19" points="9.81133113 9.90528065 10.5746936 11.7056686 10.5746936 12.8866105 11.757851 16.0434783 11.757851 12.749331 11.3761697 11.1143537"></polygon>
                        <polygon id="Fill-21" points="2.04289298 9.39925911 4.20176043 8.74886897 8.47593685 10.4282933 10.1932302 8.20875259 9.01007278 10.9571573 4.01119206 9.58267363"></polygon>
                        <polygon id="Fill-23" points="1.72148581 12.5315965 4.16348342 14.8608484 8.11750496 12.9743795 4.50487305 14.111437"></polygon>
                        <path d="M27.8230372,2.32142778 C25.1774037,2.72595245 22.8878608,4.47682971 20.9544085,7.57518482 C22.9461203,5.00513105 25.2699655,3.34764891 27.8230372,2.32142778" id="Fill-25"></path>
                        <path d="M13.7800537,10.033277 C15.7162284,11.5287242 18.7386428,12.282074 22.327862,12.6483405 L16.7180735,12.2432532 L13.7800537,10.033277 Z" id="Fill-27"></path>
                        <polygon id="Fill-29" points="14.0472305 8.09819752 14.6287363 9.58295494 17.5961582 10.956876 20.6109499 9.58295494 17.6723855 10.0330519 19.9238147 8.94606771 16.9476812 9.90533691"></polygon>
                    </g>
                    <path d="M4.52899078,13.6498168 C5.52169638,13.370845 6.02066707,11.895157 5.64316668,10.3537956 C5.26618988,8.81187282 4.15620261,7.78860193 3.16349701,8.06757375 C2.17131499,8.34654557 1.67182072,9.82279487 2.04879753,11.3641563 C2.42577434,12.9055177 3.53628519,13.9287886 4.52899078,13.6498168" id="Fill-32" fill="#0E9EAD"></path>
                    <path d="M4.04049603,13.2610759 C4.94130196,13.0145036 5.41171081,11.7833351 5.09215721,10.5104128 C4.77206291,9.23749057 3.78258221,8.40580291 2.88231699,8.65181093 C1.98151106,8.89894743 1.5111022,10.130116 1.83119651,11.4030382 C2.15075011,12.6753963 3.13969011,13.5076482 4.04049603,13.2610759" id="Fill-34" fill="#46C9CC"></path>
                    <path d="M2.92450183,13.6956522 L4.41806082,13.2925716 C5.43011423,11.5065178 5.17710088,9.92171757 3.22432823,8.60869565 L1.73076923,9.01177618 C4.07197868,9.05477908 4.78643489,12.5018916 2.92450183,13.6956522" id="Fill-36" fill="#46C9CC"></path>
                    <path d="M3.88364082,13.6545053 C4.77723065,13.4041863 5.22617103,12.0815622 4.88664981,10.6993656 C4.54712858,9.31716906 3.54841054,8.39952343 2.65482072,8.64984249 C1.76123089,8.89958875 1.31229051,10.2233584 1.65181173,11.6049822 C1.99079659,12.9871788 2.99005099,13.9048244 3.88364082,13.6545053" id="Fill-38" fill="#DD5D05"></path>
                    <path d="M2.21745345,14.0869565 L3.68661634,13.6789886 C4.65746987,11.7714628 4.38227593,10.0589259 2.43070135,8.60869565 L0.961538462,9.0166636 C3.27547001,9.10429256 4.0380094,12.8334562 2.21745345,14.0869565" id="Fill-40" fill="#DD5D05"></path>
                    <path d="M2.34510896,14.0458109 C3.23875507,13.7954993 3.68772374,12.4723418 3.34818113,11.0901864 C3.00917492,9.70860378 2.00985757,8.79041268 1.11621145,9.04129709 C0.222565337,9.2910359 -0.225866927,10.6141934 0.113139282,11.9963488 C0.452681893,13.3785042 1.45146285,14.2961225 2.34510896,14.0458109" id="Fill-42" fill="#FF7715"></path>
                    <polygon id="Fill-44" fill="#DCFEFF" points="8.46153846 3.91304348 8.46153846 5.05185806 10.1009339 5.21429722 10.1009339 5.90582396 11.1791048 5.68711123 10.636145 7.04347826 12.4980377 5.68711123 12.6923077 5.17368743 11.4121181 5.47826087 10.5769231 4.11667258"></polygon>
                    <polygon id="Fill-46" fill="#DCFEFF" points="14.2307692 5.30995163 15.2085387 5.91000328 18.611757 7.05256738 17.4771649 7.69097849 17.5943633 8.42912422 21.1538462 10.3695652 19.1330109 7.05256738 15.4429355 5.71272602 14.2307692 4.69565217"></polygon>
                    <polygon id="Fill-48" fill="#DCFEFF" points="32.3076923 3.32608696 26.4584286 9.72058975 24.8160386 10.3695652 26.2577746 7.95096963 24.6153846 8.85586292 27.5800329 6.06085008 27.5400165 7.54815727"></polygon>
                </g>
            </g>
        </g>
    </g>
</svg>