<?xml version="1.0" encoding="UTF-8"?>
<svg width="80px" height="80px" viewBox="0 0 80 80" version="1.1" xmlns="http://www.w3.org/2000/svg" xmlns:xlink="http://www.w3.org/1999/xlink">
    <title>icon/particle/p3</title>
    <g id="element" stroke="none" stroke-width="1" fill="none" fill-rule="evenodd">
        <g id="plastic-item" transform="translate(-231.000000, -1233.000000)">
            <g id="icon/particle/p3" transform="translate(231.000000, 1233.000000)">
                <rect id="Rectangle-Copy-3" x="0" y="0" width="80" height="80"></rect>
                <g id="Group-27" transform="translate(16.000000, 28.000000)">
                    <path d="M0,6.77089882 L0,20.734847 C0,22.1991817 1.16288851,23.3864801 2.59792524,23.3864801 L13.0501933,23.7344244 L19.6479705,17.2718934 L32.1530598,23.3864801 C36.1246471,23.3864801 36.6406789,25.0132437 38.0821761,21.2345017 L40.977284,13.5714801 C39.5357867,9.7927381 36.1246471,4.11926577 32.1530598,4.11926577 L12.3613434,0 L2.59792524,4.11926577 C1.16288851,4.11926577 0,5.30656415 0,6.77089882" id="Fill-85" fill="#FCCD56"></path>
                    <polygon id="Fill-86" fill="#46C9CC" points="40.9774455 13.5715626 38.0823376 21.2337597 45.1048921 24 48 16.3369784"></polygon>
                    <polygon id="Fill-87" fill="#0BA0A0" points="39.4349223 20.5931957 39.2516059 21.0780092 44.7712885 23.2514249 44.954605 22.7674359"></polygon>
                    <polygon id="Fill-88" fill="#0BA0A0" points="39.8193216 19.5758294 39.6360051 20.0606429 45.1556878 22.2340586 45.3390042 21.7500696"></polygon>
                    <polygon id="Fill-89" fill="#0BA0A0" points="40.2038016 18.5584631 40.0204851 19.0432766 45.5401678 21.2166923 45.7234842 20.7327033"></polygon>
                    <polygon id="Fill-90" fill="#0BA0A0" points="40.5882816 17.5410968 40.4049652 18.0259103 45.9246478 20.199326 46.1079642 19.715337"></polygon>
                    <polygon id="Fill-91" fill="#0BA0A0" points="40.9723578 16.5241428 40.7890414 17.0081318 46.308724 19.1823719 46.4920405 18.6975584"></polygon>
                    <polygon id="Fill-92" fill="#0BA0A0" points="41.3568379 15.5067765 41.1735214 15.9907655 46.693204 18.1650056 46.8765205 17.6801921"></polygon>
                    <polygon id="Fill-93" fill="#0BA0A0" points="41.7408333 14.4894102 41.5575169 14.9733992 47.0780071 17.1476393 47.260516 16.6628258"></polygon>
                    <polygon id="Fill-94" fill="#EAAC21" points="32.1530598 23.3863976 18.4883122 13.2613809 18.4883122 8.94505653 14.9479628 7.02723984 9.95723289 12.1260268 14.9479628 17.046719 12.080312 22.377194 4.10079713 23.3863976 13.0501933 23.734342 19.6479705 17.2718109"></polygon>
                    <polygon id="Fill-95" fill="#EAAC21" points="36.0706213 16.1360446 33.3709433 17.0463067 26.6948326 9.47645501 35.2291422 9.77905119 34.4353093 7.45639873 36.0706213 7.45639873 38.011999 10.8377256 35.9301056 12.5048904"></polygon>
                    <polygon id="Fill-96" fill="#EAAC21" points="11.7996036 3.4458862 4.54850921 13.7522958 6.00292741 21.9223927 2.25988001 20.9461696 2.25988001 14.2437054 5.29711869 10.8376431 4.10031259 7.45631628"></polygon>
                    <polygon id="Fill-97" fill="#FFDD92" points="30.4074349 6.31073825 23.8742627 7.02723984 23.1127322 12.0493471 20.5891026 7.45681099 15.9520847 4.73509436 17.848239 2.72987931 22.1460811 5.0220248 24.4855867 4.59245365"></polygon>
                    <polygon id="Fill-98" fill="#FFDD92" points="38.0118375 16.2129716 35.2289807 19.2603708 31.1265684 17.8529275 32.8733239 21.9227225 36.0704597 21.9227225"></polygon>
                </g>
            </g>
        </g>
    </g>
</svg>