<?xml version="1.0" encoding="UTF-8"?>
<svg width="80px" height="80px" viewBox="0 0 80 80" version="1.1" xmlns="http://www.w3.org/2000/svg" xmlns:xlink="http://www.w3.org/1999/xlink">
    <title>icon/particle/p5</title>
    <defs>
        <polygon id="path-1" points="35.3638044 0 15.4081949 0.662669113 14.3526296 2.70048733 11.98844 0.776311701 -4.85096752e-16 1.17442973 0.364113592 12.4390667 0.728591297 23.7037037 12.7173954 23.3055857 14.9519605 21.2286567 16.1371503 23.1919431 36.0927598 22.528905 41.2435107 14.6174623 43.0243902 14.5584272 42.9100586 11.0259138 42.7957269 7.49340035 41.0148473 7.55243546"></polygon>
        <linearGradient x1="48.2165449%" y1="66.8766804%" x2="50.6629441%" y2="36.7242786%" id="linearGradient-3">
            <stop stop-color="#009A60" offset="0%"></stop>
            <stop stop-color="#3491C1" offset="100%"></stop>
        </linearGradient>
        <path d="M0,8.92527811 L0,8.99141342 C0.00271122252,12.6647256 0.413267776,17.346508 1.75609756,22.8148148 L1.75609756,22.8148148 L0.981075236,0 C0.981075236,0 0.00348585753,3.24959785 0,8.92527811" id="path-4"></path>
        <linearGradient x1="49.9178169%" y1="49.9621392%" x2="64.2024032%" y2="52.1930706%" id="linearGradient-6">
            <stop stop-color="#009A60" offset="0%"></stop>
            <stop stop-color="#3491C1" offset="100%"></stop>
        </linearGradient>
        <path d="M0.852435704,0 C0.852435704,0 -1.48500074,10.3953711 1.58133723,22.8148148 L1.58133723,22.8148148 L6.73170732,14.8029696 C6.73170732,14.8029696 5.92816803,10.3120467 6.50306089,7.6482819 L6.50306089,7.6482819 L0.852435704,0 Z" id="path-7"></path>
        <linearGradient x1="45.688174%" y1="50.17493%" x2="54.2051093%" y2="49.2027904%" id="linearGradient-9">
            <stop stop-color="#6BE4A1" offset="0%"></stop>
            <stop stop-color="#2D9EA1" offset="100%"></stop>
        </linearGradient>
        <polygon id="path-10" points="0 0 1.17778747 0 1.17778747 11.2609038 0 11.2609038"></polygon>
    </defs>
    <g id="element" stroke="none" stroke-width="1" fill="none" fill-rule="evenodd">
        <g id="plastic-item" transform="translate(-355.000000, -1233.000000)">
            <g id="icon/particle/p5" transform="translate(355.000000, 1233.000000)">
                <rect id="Rectangle-Copy-4" x="0" y="0" width="80" height="80"></rect>
                <g id="Group-28" transform="translate(16.000000, 28.000000)">
                    <g id="Group-3" transform="translate(1.170732, 0.000000)">
                        <mask id="mask-2" fill="white">
                            <use xlink:href="#path-1"></use>
                        </mask>
                        <g id="Clip-2"></g>
                        <polygon id="Fill-1" fill="url(#linearGradient-3)" mask="url(#mask-2)" points="35.3638044 0 15.4081949 0.662669113 14.3526296 2.70048733 11.98844 0.776311701 -4.85096752e-16 1.17442973 0.364113592 12.4390667 0.728591297 23.7037037 12.7173954 23.3055857 14.9519605 21.2286567 16.1371503 23.1919431 36.0927598 22.528905 41.2435107 14.6174623 43.0243902 14.5584272 42.9100586 11.0259138 42.7957269 7.49340035 41.0148473 7.55243546"></polygon>
                    </g>
                    <g id="Group-6" transform="translate(0.000000, 1.185185)">
                        <mask id="mask-5" fill="white">
                            <use xlink:href="#path-4"></use>
                        </mask>
                        <g id="Clip-5"></g>
                        <path d="M0,8.92527811 L0,8.99141342 C0.00271122252,12.6647256 0.413267776,17.346508 1.75609756,22.8148148 L1.75609756,22.8148148 L0.981075236,0 C0.981075236,0 0.00348585753,3.24959785 0,8.92527811" id="Fill-4" fill="url(#linearGradient-6)" mask="url(#mask-5)"></path>
                    </g>
                    <g id="Group-9" transform="translate(35.414634, 0.000000)">
                        <mask id="mask-8" fill="white">
                            <use xlink:href="#path-7"></use>
                        </mask>
                        <g id="Clip-8"></g>
                        <path d="M0.852435704,0 C0.852435704,0 -1.48500074,10.3953711 1.58133723,22.8148148 L1.58133723,22.8148148 L6.73170732,14.8029696 C6.73170732,14.8029696 5.92816803,10.3120467 6.50306089,7.6482819 L6.50306089,7.6482819 L0.852435704,0 Z" id="Fill-7" fill="url(#linearGradient-9)" mask="url(#mask-8)"></path>
                    </g>
                    <g id="Group-27" transform="translate(0.292683, 0.888889)">
                        <path d="M42.7380214,5.30025247 L46.8021958,4.67034948 L47.3476076,15.9312533 L43.0699321,15.5870642 C43.0699321,15.5870642 42.2202992,10.7587949 42.7380214,5.30025247" id="Fill-10" fill="#AE1A6D"></path>
                        <g id="Group-14" transform="translate(46.529530, 4.670275)">
                            <mask id="mask-11" fill="white">
                                <use xlink:href="#path-10"></use>
                            </mask>
                            <g id="Clip-13"></g>
                            <path d="M0.272775461,0 C0.272775461,0 -0.617298752,5.47741731 0.818187289,11.2609038 C0.818187289,11.2609038 1.91739069,6.62619456 0.272775461,0" id="Fill-12" fill="#ED79AB" mask="url(#mask-11)"></path>
                        </g>
                        <polygon id="Fill-15" fill="#FFFFFF" points="35.7786102 15.4744441 41.3711764 11.8493561 41.4261912 13.5669705 36.3167353 18.9744397"></polygon>
                        <path d="M16.2643798,0 C16.2643798,0 14.0947556,10.4318893 16.9937816,22.5976773 L15.8078661,20.6287678 C15.8078661,20.6287678 13.5573592,13.6561636 15.2081681,2.04366881 L16.2643798,0 Z" id="Fill-17" fill="#9AE5FF"></path>
                        <path d="M1.57582357,23.1111111 C1.57582357,23.1111111 5.43524073,11.7772984 0.846786112,0.513433853 C0.846786112,0.513433853 -1.47768113,9.00602135 1.57582357,23.1111111" id="Fill-19" fill="#9AE5FF"></path>
                        <polygon id="Fill-21" fill="#9AB5FF" points="35.7786102 15.4744441 15.9215391 16.5936137 16.2560001 18.7327672 36.3167353 18.9744397"></polygon>
                        <polygon id="Fill-23" fill="#9AB5FF" points="42.6942646 12.2803696 46.6983234 12.1471351 47.1056517 14.8529053 42.8931924 14.3369918"></polygon>
                        <polygon id="Fill-25" fill="#9AB5FF" points="13.2509522 17.0668551 0.518846776 17.4909849 0.956779319 20.1516033 13.8225962 19.7234025"></polygon>
                    </g>
                </g>
            </g>
        </g>
    </g>
</svg>