<?xml version="1.0" encoding="UTF-8"?>
<svg width="80px" height="80px" viewBox="0 0 80 80" version="1.1" xmlns="http://www.w3.org/2000/svg" xmlns:xlink="http://www.w3.org/1999/xlink">
    <title>icon/particle/p6</title>
    <defs>
        <polygon id="path-1" points="0 0 40 0 40 35 0 35"></polygon>
    </defs>
    <g id="element" stroke="none" stroke-width="1" fill="none" fill-rule="evenodd">
        <g id="plastic-item" transform="translate(-355.000000, -1347.000000)">
            <g id="icon/particle/p6" transform="translate(355.000000, 1347.000000)">
                <rect id="Rectangle-Copy-10" x="0" y="0" width="80" height="80"></rect>
                <g id="Group-72" transform="translate(20.000000, 23.000000)">
                    <path d="M1.483785,20.1718339 C2.6213672,20.3375266 4.91082931,20.5111972 7.53294182,19.5492587 C10.7017144,18.386648 12.5146362,16.2407735 13.2115745,15.3158091 C12.5245229,12.6105681 10.9041641,10.7256597 9.13778601,10.5840538 C7.56990297,10.4584034 6.34121077,11.7431359 5.1872014,12.9499314 C4.15867743,14.0257069 2.33100159,16.2983057 1.483785,20.1718339" id="Fill-43" fill="#B1B4AF"></path>
                    <g id="Group-47">
                        <mask id="mask-2" fill="white">
                            <use xlink:href="#path-1"></use>
                        </mask>
                        <g id="Clip-46"></g>
                        <path d="M0.00240323555,18.1795627 C0.0757171301,18.9836328 0.495674937,19.5486758 0.49582704,19.5488292 L0.496283351,19.5492894 C0.908179671,20.0525044 1.46259699,20.2303173 1.73075548,20.2962876 C1.80908879,19.6554555 2.02537999,18.7108534 2.71821151,17.9305633 C3.85244742,16.6530416 5.2575797,16.9066435 6.79230417,15.8138385 C7.47661789,15.3265791 8.36992183,14.4392024 9.01438443,12.7009627 C9.04267568,13.3121849 9.17911254,14.4680452 9.8784845,15.6892621 C10.4049148,16.60855 11.0467916,17.2094931 11.4833287,17.5569876 C11.445607,18.1123651 11.4678141,18.9429767 11.8537008,19.7982888 C12.3276553,20.8492104 13.0638363,21.3034847 13.8287649,22.03959 C14.5202275,22.7051226 15.4263081,23.784887 16.1743532,25.5260416 C15.1732079,26.7790163 14.5652501,27.9407065 14.199137,28.7636472 C13.6053248,30.0983943 13.1227004,31.2211161 13.3350369,32.6235211 C13.4209754,33.1923995 13.6101922,34.4430729 14.569509,34.8649758 C15.2918486,35.1824001 16.0554083,34.8560774 16.2977092,34.7403994 C17.4384855,34.1647705 18.9321421,33.5467979 20.7418697,33.1218267 C22.0274486,32.8197443 23.1986457,32.6793657 24.1984221,32.6235211 C24.708121,32.4984844 25.6566385,32.1893447 26.5440104,31.3783708 C27.9280003,30.1137362 28.206806,28.5034482 28.2722105,28.0164956 C29.9628411,26.7675098 31.9074846,25.0989225 33.8276393,22.9111646 C37.0154248,19.2791182 38.8928385,15.6328038 39.9999983,12.9499621 C39.6224791,12.6455784 39.0408352,12.2204538 38.2717999,11.8292348 C35.812286,10.5782545 34.5026747,11.232434 33.2104033,10.3350851 C31.637805,9.24350741 32.2778566,7.37394091 31.235187,5.10517764 C30.4742131,3.4500912 28.7476861,1.4295602 24.4452861,0 C24.3159981,0.31665725 23.7840921,1.51010529 22.4700698,2.11687826 C21.1759731,2.7145995 19.6173684,2.51438743 18.3964335,1.61872609 C17.662534,2.1371296 16.5397059,2.83089126 15.063237,3.36187515 C12.4762604,4.29282292 11.6107914,3.71473933 9.75497645,4.60717888 C7.57578938,5.65503208 6.41158907,7.58565942 5.80454394,8.59193602 C4.30434697,11.0793217 5.21377389,11.603862 3.82932769,13.5725373 C2.42237017,15.5734306 -0.0885546668,17.1809571 0.00240323555,18.1795627" id="Fill-45" fill="#DCDFDB" mask="url(#mask-2)"></path>
                    </g>
                    <path d="M25.9269112,16.685367 C27.6324479,15.5720038 29.6904085,14.396199 32.0992719,13.3234919 C33.9313587,12.5074551 35.6340055,11.922621 37.2505616,11.4352082 C35.4507207,10.80711 34.3023392,11.0930834 33.2103881,10.3350391 C31.638094,9.2436148 32.2778414,7.37404831 31.2351718,5.10528503 C30.9265538,4.4342294 30.4451461,3.70318687 29.7113988,2.97567297 C29.3395057,3.38361465 28.9209168,3.77253235 28.2723474,3.9845577 C26.4796554,4.57107934 24.4206301,3.44544259 22.6493847,2.00192125 C22.5839802,2.03705425 22.5400222,2.08476762 22.4703588,2.11683224 C21.1759579,2.71440006 19.6173532,2.51418799 18.3965704,1.61868006 C17.9328068,1.90311928 17.2652244,2.27132538 16.5091178,2.65870889 C16.5135288,3.78956188 16.5599204,5.26898333 16.6683702,7.34673969 C16.9336388,12.4373425 17.1551015,13.5467168 17.6559784,14.8176415 C18.641457,17.320676 19.4839584,17.3406205 19.5075344,18.6776689 C19.5472335,20.9189701 17.2021015,21.8885795 15.2087849,23.7395823 C15.5397621,24.2450986 15.8704352,24.8185796 16.1744901,25.5259956 C15.1731927,26.7789703 14.5652349,27.9405071 14.1991218,28.7637546 C13.6053096,30.0981949 13.1229894,31.2210701 13.3350217,32.6236285 C13.4211123,33.1923535 13.6101769,34.4430269 14.5694938,34.8649297 C14.8155973,34.9727834 15.0589629,34.9918074 15.2924418,34.9841365 C15.3446133,34.4118828 15.4223382,33.7808696 15.5758107,33.0706921 C15.6457783,32.7466707 15.7504255,32.2635536 15.9276261,31.7519005 C16.0525031,31.391212 16.8908977,28.9682624 17.9026903,29.012754 C18.0652889,29.0196578 18.4472208,29.1000495 18.8901463,29.8841751 C19.5974276,28.7852333 20.5867089,27.5356338 21.9766308,26.3975701 C23.706352,24.9815108 24.5529602,24.9218307 25.0628111,23.7828465 C25.6747236,22.4160348 24.7283355,21.5993843 25.0628111,19.300244 C25.2327108,18.1304225 25.6397398,17.2272437 25.9269112,16.685367" id="Fill-48" fill="#CDD0CD"></path>
                    <path d="M37.2841005,13.0744771 C36.3288904,12.9258139 35.0144118,16.290604 34.4447841,18.5530771 C34.1054412,19.9013251 33.846561,21.6101083 33.8324154,22.9051199 C35.8295345,20.6289925 37.2664565,18.3755711 38.3670775,16.3294191 C38.2145177,14.7550312 37.9103106,13.1715915 37.2841005,13.0744771" id="Fill-50" fill="#CDD0CD"></path>
                    <path d="M15.5572845,16.685367 C14.7829255,15.6362864 14.1486538,15.3207031 13.0881881,13.6969142 C11.2830236,10.9327603 11.2431725,8.97236964 10.6190917,8.96544536 C10.0039851,8.95825507 9.3586099,10.8624943 8.91903074,13.2467823 C9.06672325,13.9351742 9.3068947,14.7621038 9.87849971,15.6892161 C10.4122309,16.5545004 11.0188198,17.1620405 11.4833439,17.557095 C11.4456222,18.1123191 11.4679814,18.9426238 11.8535639,19.7982428 C12.3276705,20.849011 13.0640036,21.3034387 13.8287801,22.039544 C14.5029029,22.6882004 15.378867,23.7415767 16.1156565,25.4067888 C16.5054978,25.1973716 16.8956433,24.9882612 17.2854846,24.7789974 C17.647491,20.5091874 16.6026919,18.1018866 15.5572845,16.685367" id="Fill-52" fill="#CDD0CD"></path>
                    <path d="M24.1986654,32.6235978 C24.4088725,32.3856446 24.6193838,32.1478448 24.8294387,31.9100451 C24.7048659,30.2287239 24.0979729,28.8276997 23.3344133,28.5145711 C22.414187,28.1366996 21.6013458,29.4568719 19.7545049,29.1371463 C18.2643468,28.8790951 17.8116867,27.8496522 17.0386967,28.1409953 C16.4178101,28.3748062 16.163493,29.3790883 15.6808686,31.3784475 C15.4267036,32.4289088 15.333312,33.0743434 15.1866842,33.8687481 C15.1311665,34.16991 15.0392959,34.5813803 14.9589853,34.9590984 C15.5482343,35.0516102 16.0990011,34.8348289 16.2979525,34.7404761 C17.4385768,34.1648472 18.9322333,33.5468746 20.7421131,33.12175 C22.0275399,32.8196676 23.1985848,32.679289 24.1986654,32.6235978" id="Fill-54" fill="#B1B4AF"></path>
                    <path d="M15.3170978,16.2574041 C16.2507092,15.8864365 17.1843206,15.5154688 18.118084,15.1443478 C18.9668217,16.2574041 19.8157114,17.3701537 20.664449,18.48321 C20.3845785,18.9347228 20.1048602,19.3860821 19.8251418,19.8377482 C19.6362292,19.7777613 19.4418409,19.7117911 19.2427374,19.6390703 C18.9729058,19.5405752 18.7173719,19.4382446 18.4764399,19.3343798 C18.3287474,18.7653479 18.1809028,18.1961627 18.0332103,17.6271308 C17.4672331,17.6842028 16.901408,17.7412747 16.3355829,17.7983467 C15.9960879,17.2846992 15.6564407,16.7710516 15.3170978,16.2574041" id="Fill-56" fill="#EEEFED"></path>
                    <path d="M24.7386786,1.40338688 C24.8376979,1.73155057 24.9367173,2.05971426 25.0357367,2.38803137 C25.3186493,2.24519809 25.6015618,2.10267164 25.8846264,1.95983836 C26.3229888,2.28830889 26.7615032,2.61631916 27.2001697,2.94448285 C26.7897945,2.30242345 26.3795713,1.66021064 25.969196,1.01815125 C25.8138983,1.17525252 25.6579922,1.33220037 25.5025424,1.48914822 C25.2479211,1.46061225 24.9932998,1.43207627 24.7386786,1.40338688" id="Fill-58" fill="#EEEFED"></path>
                    <path d="M26.4361842,16.0860042 C27.1717568,17.4558843 27.9073294,18.8257644 28.642902,20.1954911 C29.5483742,18.6258592 30.4538465,17.0565341 31.3593187,15.4869022 C32.7171468,14.6592055 34.0752791,13.8316623 35.4334114,13.0039657 C34.748185,14.4393558 34.0161108,16.3423677 33.5660365,18.6543952 C33.2887518,20.0785857 33.1725447,21.3798874 33.1416677,22.5070584 C31.4438883,23.9625464 29.746413,25.4180345 28.0489378,26.8732157 C26.6059317,26.2741137 25.1629257,25.6747048 23.7200717,25.0754494 C24.1444405,22.878026 24.5688093,20.6806027 24.9933303,18.4831793 C25.4742816,17.6841721 25.9552329,16.8850114 26.4361842,16.0860042" id="Fill-60" fill="#EEEFED"></path>
                    <path d="M15.1471678,34.7499039 C15.0148377,34.7449866 14.7288831,32.5731843 15.3170674,30.1267615 C15.5608893,29.1112798 15.8958213,28.2973909 16.165805,27.7294329 C17.1313581,28.0421013 18.2021669,28.3270008 19.3715387,28.5470039 C19.8141599,28.6301571 20.2452213,28.6993492 20.6639623,28.756728 L20.6644186,28.7568814 C21.9376771,28.3288418 23.2109356,27.9006488 24.4840421,27.4726092 C24.5646569,27.9003419 24.6671747,28.5193885 24.7386633,29.2705289 C24.9030872,30.9998703 24.8095436,32.4360275 24.7386633,32.4383288 C24.6986601,32.4394027 24.876317,31.1922579 24.3141424,29.7841764 C24.0919192,29.2275715 23.8150908,28.7983046 23.5928676,28.5000576 C22.6872432,28.7568814 21.7820752,29.0137052 20.8764509,29.2705289 C19.4478947,29.0137052 18.0188821,28.7568814 16.5903259,28.5000576 C16.3741868,29.0631061 16.0856464,29.8837455 15.82631,30.8972328 C15.2247405,33.2454672 15.2580512,34.7538849 15.1471678,34.7499039" id="Fill-62" fill="#EEEFED"></path>
                    <path d="M13.1950864,4.69964464 C14.0721153,4.55681135 14.9492963,4.41413149 15.8263252,4.2712982 C15.9394902,5.01338692 16.0528073,5.75547564 16.1658202,6.49756436 C15.2605001,6.21205121 14.35518,5.92669148 13.4497077,5.64133175 C13.364834,5.32728263 13.2799602,5.01338692 13.1950864,4.69964464" id="Fill-64" fill="#EEEFED"></path>
                    <path d="M10.5637869,7.78166781 C11.0165991,7.21094835 11.4692591,6.64007546 11.9219192,6.06920258 C12.7706568,6.72568338 13.6193944,7.38201076 14.468132,8.03849156 C14.2136629,8.66628297 13.9588895,9.29407438 13.7042682,9.92186579 C12.6574918,9.20846646 11.6105633,8.49506713 10.5637869,7.78166781" id="Fill-66" fill="#EEEFED"></path>
                    <path d="M3.68854067,13.7744523 C4.99009046,14.1455734 6.29148814,14.5163876 7.59303792,14.8875087 C7.42268198,15.1820735 6.98705751,15.8408556 6.15018397,16.2573888 C5.64626502,16.5080758 5.18052406,16.5795691 4.87692544,16.599667 C4.16949199,16.0574835 3.46221064,15.5154535 2.75492929,14.9731166 C3.06628519,14.5736129 3.37748898,14.1741093 3.68854067,13.7744523" id="Fill-68" fill="#EEEFED"></path>
                    <path d="M0.208640392,17.905464 C0.203316769,18.2393042 0.250164652,18.7066191 0.52699305,19.1254535 C1.45391187,20.5278585 4.14158099,20.149987 5.49241232,19.9602074 C6.5387324,19.812925 8.19863807,19.4393492 10.0758997,18.3548288 C9.48725905,18.82736 8.52581273,19.4951938 7.21118204,19.9602074 C4.84460344,20.7969558 1.21450094,21.0186466 0.335798931,19.3821239 C0.189779556,19.1104184 0.0474106658,18.6523087 0.208640392,17.905464" id="Fill-70" fill="#EEEFED"></path>
                </g>
            </g>
        </g>
    </g>
</svg>