<?xml version="1.0" encoding="UTF-8"?>
<svg width="80px" height="80px" viewBox="0 0 80 80" version="1.1" xmlns="http://www.w3.org/2000/svg" xmlns:xlink="http://www.w3.org/1999/xlink">
    <title>icon/particle/p7</title>
    <g id="element" stroke="none" stroke-width="1" fill="none" fill-rule="evenodd">
        <g id="plastic-item" transform="translate(-479.000000, -1233.000000)">
            <g id="icon/particle/p7" transform="translate(479.000000, 1233.000000)">
                <rect id="Rectangle-Copy-5" x="0" y="0" width="80" height="80"></rect>
                <g id="Group" transform="translate(16.000000, 28.000000)">
                    <path d="M7.82517208,3.53857844 C7.83003475,3.51424489 7.81502391,3.49054066 7.79176769,3.48592568 C7.48859117,3.42760907 7.05940821,3.34223189 6.54671429,3.22958435 C6.12260543,3.13623583 5.61012293,3.01771468 4.56528443,2.75109453 C3.91432172,2.58516491 3.062087,2.36301641 2.05318994,2.08695652 C2.04409887,2.08695652 2.0307794,2.08737607 2.01492288,2.08800538 C1.4679789,2.11275847 1.08192566,2.59334602 0.966701666,2.73641049 C0.890801824,2.8305981 0.718705803,3.06071793 0.492909058,3.7393302 C0.284025927,4.36738742 0.193115253,4.88825118 0.148294176,5.18633713 C-0.0261274665,6.34994215 -0.113232578,6.99289319 0.271552137,7.52046965 C0.40897525,7.70905463 0.567540379,7.82946374 0.677056029,7.90015688 C2.64939482,8.3966871 4.62215646,8.89342708 6.59491809,9.38995729 C6.61796289,9.39604068 6.64079627,9.3809371 6.64565894,9.35639378 L7.82517208,3.53857844 Z" id="Fill-1" fill="#A1DAFE"></path>
                    <path d="M1.23302466,2.81257897 C1.16398741,2.91374851 1.00689438,3.15956899 0.79807095,3.88368466 C0.604652531,4.55355622 0.518688789,5.10869721 0.476087288,5.42641265 C0.309865363,6.66584724 0.226183844,7.35035611 0.568517329,7.90764964 C0.623290687,7.9969802 0.673689783,8.02539378 0.730745364,8.08695652 C0.690045717,8.07554804 0.649536254,8.06370905 0.609026792,8.05208532 C0.510510822,7.9795446 0.36787187,7.85598859 0.244251445,7.66204442 C-0.101885746,7.12111021 -0.0235294149,6.4613556 0.133563618,5.26733967 C0.152011589,5.12548705 0.183011788,4.92465474 0.225993659,4.69626986 C0.275632014,4.44722057 0.338012783,4.16889668 0.42778023,3.85806939 C0.636223285,3.13438423 0.793506503,2.88813325 0.862543756,2.78717895 C0.967526025,2.63370259 1.31917859,2.11945993 1.81251918,2.08803279 C1.82697326,2.08717178 1.83876474,2.08695652 1.84694271,2.08695652 C1.93404756,2.11407857 2.00232408,2.13452774 2.08695652,2.16078877 C1.65295374,2.25420916 1.32982896,2.6709416 1.23302466,2.81257897" id="Fill-3" fill="#C0EAFF"></path>
                    <path d="M6.26072619,2.99377601 C6.26202428,2.83456439 6.26007714,2.1679313 5.99916042,2.0936745 C5.81548024,2.04165279 5.58615045,2.30553713 5.49441853,2.41083914 C4.47995874,3.57734217 3.04253693,9.15205617 3.92913455,9.38405623 C4.06824686,9.42055533 4.30449982,9.33539075 4.7242166,8.75161483 C4.58272445,8.71050089 4.44144864,8.66959672 4.29995649,8.62869255 C4.24586927,7.67321309 4.30493251,6.15996855 5.03402816,4.52002597 C5.31441628,3.88947246 5.64110306,3.35876707 5.95697239,2.92413404 C6.05800731,2.94741795 6.15925857,2.9704921 6.26072619,2.99377601" id="Fill-5" fill="#86CCEF"></path>
                    <path d="M4.6918343,3.13099867 C4.74202164,3.15459744 4.28792484,3.89301702 3.88796024,4.99832685 C3.2320183,6.80938104 3.26993275,8.09198418 3.20308935,8.08695652 C3.1296712,8.08109244 2.95916574,6.51631257 3.66178848,4.82466412 C4.06043813,3.86477917 4.63945538,3.10679481 4.6918343,3.13099867" id="Fill-7" fill="#86CCEF"></path>
                    <path d="M3.38745542,2.60926887 C3.43787106,2.63266683 2.98347266,3.37131642 2.58343547,4.4766686 C1.92781288,6.2879939 1.96529581,7.57064619 1.89865948,7.56521739 C1.8254472,7.55955233 1.6546916,5.9947125 2.35744186,4.30299922 C2.75638305,3.34287578 3.33506698,2.58486237 3.38745542,2.60926887" id="Fill-9" fill="#86CCEF"></path>
                    <path d="M2.60487944,2.60926872 C2.65506683,2.6328684 2.2007504,3.37131648 1.80078537,4.47646728 C1.14528105,6.28779309 1.18319554,7.57044574 1.11613291,7.56521739 C1.04271467,7.55955358 0.872209035,5.99471331 1.57483253,4.30299955 C1.9734826,3.34307755 2.55271962,2.58486222 2.60487944,2.60926872" id="Fill-11" fill="#86CCEF"></path>
                    <path d="M34.1015655,6.3394425 C34.9338393,5.75274795 37.2355242,4.30299761 40.3516094,4.46097788 C42.6551867,4.57789995 44.2314182,5.51431863 44.5626035,5.71752544 C45.4764645,6.27920991 47.9446882,7.80732514 47.9991498,10.3368852 C48.0342659,11.9906761 46.9727909,13.2465984 46.4468898,13.7826475 C46.6102745,14.1077784 47.0669947,15.1215199 46.8089857,16.4039112 C46.4801135,18.037694 45.2378008,18.8767818 44.9951419,19.0341368 C45.1036445,19.7956934 45.2798561,21.7733646 44.0615149,23.0115715 C42.5212407,24.576785 39.7619945,23.9348599 37.6199094,23.4367427 C35.8041731,23.0140725 32.6224817,21.9628159 29.3205123,18.9876598 C28.302985,19.2973678 26.8745778,19.6477172 25.1414802,19.7996533 C19.6423332,20.2817224 15.4778102,18.373871 13.7205307,17.555208 C10.7203079,16.157562 7.83426501,14.8126455 6.27296314,11.6365752 C5.88899853,10.8552189 4.53713191,8.10577863 5.64423687,5.29527211 C6.86741437,2.18839626 10.2774659,1.10483501 11.8658934,0.599631608 C14.419279,-0.212361973 16.6637688,-0.029788468 17.9298426,0.172793093 C19.5718906,0.863071003 21.3535621,1.70486825 23.2210263,2.73361576 C24.9469746,3.68462365 26.495029,4.65689009 27.8670822,5.59956128 C29.0080416,5.51265129 30.4446496,5.52203007 32.0620953,5.82173406 C32.8136229,5.96095678 33.4951286,6.14269662 34.1015655,6.3394425" id="Fill-13" fill="#A1DAFE"></path>
                    <path d="M29.8157436,10.3934487 C30.7936507,11.2224677 30.6844353,13.2877542 29.9239108,14.6776607 C29.1139145,16.1574355 27.6547052,16.7077997 26.8558191,17.0096056 C26.3992528,17.1817654 24.8318764,17.7192913 22.9525759,17.3532938 C19.0736493,16.5983583 17.2941309,12.6616228 17.0729751,12.1522992 C15.6146043,8.7899209 16.0298742,4.24473308 17.6035395,3.70552345 C19.7993758,2.95290298 23.0422959,10.418073 27.7092081,10.0644929 C28.2636699,10.0226105 29.1688366,9.84539955 29.8157436,10.3934487" id="Fill-15" fill="#86CCEF"></path>
                    <path d="M44.9160288,16.9468613 C44.7480215,17.6204792 44.2203307,19.7320522 42.349427,20.7969107 C39.5569135,22.3858564 36.086665,20.3243354 35.509523,19.98127 C32.1090134,17.961042 29.4800693,13.3132873 30.9285245,10.7395665 C32.770476,7.46574197 41.2845356,7.41068466 44.0614106,11.4590655 C45.0893193,12.9575003 45.3798979,15.0895113 44.9160288,16.9468613" id="Fill-17" fill="#86CCEF"></path>
                    <path d="M26.8695652,5.53868629 C25.8985863,4.9374138 18.753863,0.580417185 16.759315,2.63213724 C16.4705,2.92918542 16.3564827,3.29168859 16.2747955,3.77727321 C15.438094,8.75750561 20.0692645,14.571691 20.469726,14.3411851 C20.8566088,14.1180728 16.5978804,8.63855587 18.4008189,6.0860291 C19.7433777,4.18500772 23.8195492,4.79715313 26.8695652,5.53868629" id="Fill-19" fill="#86CCEF"></path>
                    <path d="M15.1102328,1.19970648 C14.9966308,0.962563758 14.3371653,1.03123857 13.9194629,1.16966125 C13.0491981,1.4587393 12.9708661,2.13733232 12.3544627,2.29335292 C11.3580875,2.54530365 10.4240498,1.06128381 10.2167365,1.23790685 C10.0106535,1.41324224 10.5520058,3.20565492 11.7624612,3.58122032 C13.4064086,4.09134543 15.3501502,1.70060342 15.1102328,1.19970648" id="Fill-21" fill="#86CCEF"></path>
                    <path d="M17.7391304,16.173913 C15.1603379,11.3964274 13.5374737,9.1427252 12.8705377,9.41301266 C12.2865698,9.64987526 12.4359523,11.821666 13.3180868,15.9296227 C14.7919675,16.0109153 16.2654492,16.0924142 17.7391304,16.173913" id="Fill-23" fill="#86CCEF"></path>
                    <path d="M36.7781151,9.36568045 C36.89861,9.12245415 34.5828032,7.14906132 31.3960804,6.48812935 C28.0959876,5.80400312 25.306374,6.8270581 24,7.41610876 C25.2166839,7.24476376 26.9964457,7.09703095 29.1119166,7.31351072 C33.6884169,7.78157509 36.647352,9.62938458 36.7781151,9.36568045" id="Fill-25" fill="#C0EAFF"></path>
                    <path d="M34.363447,13.2917828 C34.0674552,13.4525433 32.8409761,12.0498773 32.3459346,10.2780348 C32.1323834,9.51329749 31.9375055,8.81646413 32.2509788,8.50660133 C33.1250488,7.64287158 37.1459694,10.5750122 37.0414783,10.7811783 C36.9665864,10.9286444 34.8674278,9.51738809 34.1502932,10.2025632 C33.4309733,10.8897837 34.7144656,13.1013655 34.363447,13.2917828" id="Fill-27" fill="#86CCEF"></path>
                    <path d="M39.2191513,13.095499 C41.2466326,12.3432195 43.0627003,13.1522954 43.5652174,13.3979776 C41.6962963,13.5389892 39.5690491,13.9104504 39.3170735,14.9802236 C38.9659466,16.4712909 42.4862294,18.3544922 42.2815761,18.7207307 C42.0373852,19.157475 36.6467473,17.2094257 36.7852314,15.1715033 C36.866765,13.9681172 38.8768333,13.2225836 39.2191513,13.095499" id="Fill-29" fill="#86CCEF"></path>
                    <path d="M30.1329141,13.0434783 C28.9608136,13.9257912 27.3686576,15.1326183 25.4852684,16.5857019 C22.8500392,18.6184879 22.3611691,19.0376344 22.4430912,19.2166914 C22.5731425,19.5018641 24.1636601,19.2173294 31.0434783,16.4396067 C30.7399569,15.3076348 30.4362307,14.1756629 30.1329141,13.0434783" id="Fill-31" fill="#C0EAFF"></path>
                    <path d="M36.5217391,17.4782609 L35.3999002,14.6086957 C34.8175281,15.1195748 34.2349527,15.630454 33.6521739,16.1413332 C34.608899,16.5869758 35.5652174,17.0326183 36.5217391,17.4782609" id="Fill-33" fill="#C0EAFF"></path>
                    <path d="M24.2608696,8.08695652 C23.9376335,9.13050451 23.6141925,10.1740525 23.2907516,11.2173913 C22.6573975,10.9264362 22.0244534,10.6356902 21.3913043,10.344735 C22.3478944,9.59214219 23.3042795,8.83975853 24.2608696,8.08695652" id="Fill-35" fill="#C0EAFF"></path>
                    <path d="M44.3341512,8.4680615 C44.1064382,8.01810436 41.0836173,8.90697551 38.1732605,9.87595952 C37.7966664,11.0188226 37.4202866,12.1614848 37.0434783,13.3043478 C37.8500065,12.9067953 42.4747447,10.6098254 44.0922999,8.92645157 C44.2334691,8.7796784 44.3964885,8.59074058 44.3341512,8.4680615" id="Fill-37" fill="#C0EAFF"></path>
                    <path d="M7.6404091,2.60869565 C7.30504991,3.03765931 6.99547133,3.5396696 6.79070571,4.14140441 C5.7159503,7.29913593 8.22258589,10.8132079 9.1984452,12.1809795 C12.9507912,17.4418187 19.744826,19.3550051 24.2608696,20.0714972 C19.2207612,20.2696759 15.4223482,18.5112636 13.7626689,17.7295589 C10.747606,16.3097019 7.84728789,14.9434124 6.27826334,11.7168688 C5.89239953,10.9230955 4.53384615,8.1299619 5.64621588,5.27479162 C6.08807855,4.14076922 6.81796553,3.28008942 7.6404091,2.60869565" id="Fill-39" fill="#86CCEF"></path>
                    <path d="M10.83027,11.2173913 C10.8724263,10.2977532 10.9145827,9.37791678 10.9565217,8.45847714 C9.92781993,7.7654252 9.66662441,7.58407694 9.63576771,7.55768819 L9.57318509,7.50451387 C9.57318509,7.50451387 9.17074407,7.06800821 8.42627166,6.26086957 C8.05229705,6.93388192 7.67853974,7.60689428 7.30434783,8.28010505 C7.76719845,8.50093723 8.22961447,8.72176941 8.69203049,8.94260159 C9.404777,9.70093097 10.1175235,10.4590619 10.83027,11.2173913" id="Fill-41" fill="#C0EAFF"></path>
                </g>
            </g>
        </g>
    </g>
</svg>