<?xml version="1.0" encoding="UTF-8"?>
<svg width="80px" height="80px" viewBox="0 0 80 80" version="1.1" xmlns="http://www.w3.org/2000/svg" xmlns:xlink="http://www.w3.org/1999/xlink">
    <title>icon/particle/p8</title>
    <g id="element" stroke="none" stroke-width="1" fill="none" fill-rule="evenodd">
        <g id="plastic-item" transform="translate(-603.000000, -1233.000000)">
            <g id="icon/particle/p8" transform="translate(603.000000, 1233.000000)">
                <rect id="Rectangle-Copy-6" x="0" y="0" width="80" height="80"></rect>
                <g id="Group-8" transform="translate(28.000000, 24.000000)">
                    <path d="M19.1351351,31.529703 C19.1351351,32.3420886 15.9404025,33 12,33 C8.05860193,33 4.86486486,32.3420886 4.86486486,31.529703 C4.86486486,30.7182479 8.05860193,30.0594059 12,30.0594059 C15.9404025,30.0594059 19.1351351,30.7182479 19.1351351,31.529703" id="Fill-50" fill="#EFEFEF"></path>
                    <path d="M20.5122081,1.96039604 L1.2972973,7.87030995 L4.79996919,16.3366337 C10.6154101,14.5487777 16.2790324,12.8067903 22.0540541,11.0311659 L20.5122081,1.96039604 Z" id="Fill-52" fill="#EFEFEF"></path>
                    <path d="M4.61213974,14.813354 L3.24324324,16.793 L7.78353344,21.1422524 C5.52740776,24.3325664 4.57308563,27.8451946 4.97764611,31.6930693 L19.3325336,31.6930693 L22.3967789,23.0393303 L21.0569226,16.876563 L24,16.3930916 L24,8.03281773 L21.5686315,6.53465347 L4.61213974,14.813354 Z" id="Fill-54" fill="#EFEFEF"></path>
                    <path d="M20.8491601,0.653465347 L0.0166844439,6.71880387 C-0.0238957301,6.9813349 0.0117356422,7.45892824 0.0998243125,7.84158416 L21.4054054,1.63868325 C21.3479993,1.41005845 21.0966002,0.946996344 20.8491601,0.653465347" id="Fill-56" fill="#D6D8D8"></path>
                    <path d="M21.3906165,1.80522382 C21.6984538,2.81274048 17.1633147,5.01632057 11.259789,6.7258114 C5.35725629,8.43530223 0.322626285,9.00481021 0.014788947,7.99632665 C-0.293048391,6.98880999 4.24209071,4.78619681 10.1456164,3.07573907 C16.0481491,1.36624824 21.0827791,0.797707168 21.3906165,1.80522382" id="Fill-58" fill="#D6D8D8"></path>
                    <path d="M13.3148307,29.6261106 C10.3190139,28.9522245 7.46123951,28.1988845 4.92360637,27.4455446 C4.90108879,27.5809103 4.88346634,27.717257 4.86486486,27.8536037 C7.86459786,28.7119012 10.8995758,29.4544511 13.1748302,29.9488305 C15.1025306,30.3676796 17.2025395,30.7669106 19.0352746,31.039604 L19.1351351,30.7561206 C17.5931706,30.5177591 15.660575,30.153841 13.3148307,29.6261106" id="Fill-60" fill="#D6D8D8"></path>
                    <path d="M15.8126317,23.6445835 C12.114944,22.2604613 8.5764483,20.7401793 5.51351351,19.2772277 L6.64297072,20.3849349 C9.92151999,21.8550528 13.2071221,23.1634167 15.6393341,24.0489683 C17.3833934,24.6836988 19.2483579,25.307168 20.9561456,25.8118812 L21.0810811,25.4494705 C19.6161116,25.0031116 17.8700373,24.4134264 15.8126317,23.6445835" id="Fill-62" fill="#D6D8D8"></path>
                    <path d="M13.9610462,27.780019 C10.7701005,26.9602184 7.71767016,26.0544315 5.0094912,25.1584158 C4.96060342,25.2961892 4.91069715,25.4329855 4.86486486,25.5717361 C8.0975689,26.6065023 11.3720312,27.5152205 13.806235,28.1210326 C15.733228,28.6007967 17.8191064,29.0639499 19.6727678,29.4059406 L19.7837838,29.1030345 C18.2132641,28.8040369 16.2852525,28.3770371 13.9610462,27.780019" id="Fill-64" fill="#D6D8D8"></path>
                    <path d="M13.1388488,30.6411495 C10.1986383,30.0616373 7.39310914,29.409447 4.89556427,28.7524752 C4.88467093,28.8806182 4.87278729,29.0097175 4.86486486,29.1388167 C7.8050753,29.8828109 10.7650918,30.5216131 13.0011966,30.9471625 C14.4361461,31.2197054 15.9661646,31.4807728 17.413988,31.6930693 L19.1183,31.6930693 L19.1351351,31.6462111 C17.5595626,31.4425211 15.5700433,31.1202511 13.1388488,30.6411495" id="Fill-66" fill="#D6D8D8"></path>
                    <path d="M13.8487814,29.0708197 C10.6787655,28.2609103 7.6512223,27.3599523 4.96764869,26.4653465 C4.93203053,26.6135652 4.89743004,26.761784 4.86486486,26.9100027 C8.05421629,27.9369466 11.2873272,28.8326111 13.6991851,29.4297207 C15.6642897,29.9156664 17.7962907,30.3804379 19.6769293,30.7128713 L19.7837838,30.3973772 C18.1972494,30.107292 16.2270565,29.6785164 13.8487814,29.0708197" id="Fill-68" fill="#D6D8D8"></path>
                    <path d="M15.2169467,24.9714322 C12.3428293,23.892918 9.57487217,22.7222047 7.0679328,21.5643564 C6.97930363,21.7133758 6.89457025,21.8645393 6.81081081,22.0146308 C9.82030679,23.3675979 12.8112978,24.562969 15.0542975,25.3820395 C16.7811054,26.0124235 18.6325785,26.6288705 20.3165327,27.1188119 L20.4324324,26.7521599 C18.9929389,26.320111 17.265157,25.7401148 15.2169467,24.9714322" id="Fill-70" fill="#D6D8D8"></path>
                    <path d="M14.2860033,26.8846301 C11.2292806,25.9317767 8.30217157,24.8853206 5.69222329,23.8514851 C5.63036221,23.9997769 5.5714469,24.1491204 5.51351351,24.2995156 C8.63700692,25.4984702 11.7889761,26.5543917 14.1328235,27.2632474 C15.9523247,27.8132941 17.9151865,28.3475651 19.6738085,28.7524752 L19.7837838,28.4159266 C18.2902806,28.0614987 16.4697975,27.5650894 14.2860033,26.8846301" id="Fill-72" fill="#D6D8D8"></path>
                    <path d="M14.970171,25.8978147 C11.9284919,24.9432182 9.00445227,23.9012988 6.382487,22.8712871 C6.30671918,23.011202 6.23294525,23.1511169 6.16216216,23.2920241 C9.30552965,24.4907275 12.4578696,25.5485237 14.8086659,26.2659596 C16.6161271,26.8176807 18.5611667,27.3545172 20.3157899,27.7722772 L20.4324324,27.4448169 C18.936018,27.0776643 17.1265629,26.5745661 14.970171,25.8978147" id="Fill-74" fill="#D6D8D8"></path>
                    <path d="M20.741853,0.513797713 C21.0461846,1.53585763 16.6530099,3.74378169 10.9296114,5.44558012 C5.20523108,7.14639768 0.319235425,7.69666218 0.014903769,6.6736214 C-0.289427887,5.65156148 4.10374683,3.44363742 9.82714539,1.74281986 C15.550544,0.0420023002 20.4375213,-0.508262204 20.741853,0.513797713" id="Fill-76" fill="#EFEFEF"></path>
                    <path d="M19.7751981,1.00755577 C19.9969503,1.77562948 15.8960397,3.71237602 10.6171332,5.33236977 C5.33822679,6.95236353 0.878097702,7.64280177 0.657348906,6.87369291 C0.435596706,6.10561919 4.47931329,3.97530152 9.75922313,2.35530776 C15.0381296,0.735314003 19.5534459,0.239482048 19.7751981,1.00755577" id="Fill-78" fill="#9DA0A0"></path>
                    <path d="M2.27027027,7.18811881 C4.11563759,7.04120292 7.17088149,6.38939296 10.5622022,5.36512017 C13.953523,4.34084738 16.8631336,3.18931646 18.4864865,2.28712871 C16.6248245,2.37714056 13.5461571,2.95031948 10.1558548,3.97562689 C6.76453405,4.99989967 3.87732856,6.22902702 2.27027027,7.18811881" id="Fill-80" fill="#848484"></path>
                    <polygon id="Fill-82" fill="#D6D8D8" points="4.14564338 14.4726189 5.84405202 14.1497415 5.4739243 13.4769999 12.3252669 10.3841234 19.0084601 9.47524752 22.0540541 14.2210637 16.6692928 10.576886 9.36026532 13.4769999 8.60707532 16.009901 3.56756757 15.3149917"></polygon>
                    <polygon id="Fill-84" fill="#D6D8D8" points="13.2972973 15.467657 16.2007892 13.0693069 20.4324324 16.009901 16.2007892 14.539604"></polygon>
                    <polygon id="Fill-86" fill="#D6D8D8" points="16.5405405 8.98443823 18.4864865 7.18811881 20.7596698 8.37820706 21.4054054 12.0891089 19.3176889 9.20924451"></polygon>
                    <polygon id="Fill-88" fill="#D6D8D8" points="2.91891892 9.68680242 7.71073697 10.4294285 17.8378378 4.9009901 9.27319817 11.2879919 6.8113839 12.0891089"></polygon>
                    <polygon id="Fill-90" fill="#9DA0A0" points="6.48648649 15.0492094 7.55948817 15.6831683 7.55948817 13.4654051 12 11.4356436 7.09828569 13.360474"></polygon>
                    <polygon id="Fill-92" fill="#D6D8D8" points="20.7382063 16.990099 16.1150372 19.4825302 5.51351351 17.369898 8.94573222 19.2859842 16.7031366 20.2126939 18.3464711 21.9550219 19.6229811 19.9829154 22.0540541 22.8712871"></polygon>
                </g>
            </g>
        </g>
    </g>
</svg>