<?xml version="1.0" encoding="UTF-8"?>
<svg width="80px" height="80px" viewBox="0 0 80 80" version="1.1" xmlns="http://www.w3.org/2000/svg" xmlns:xlink="http://www.w3.org/1999/xlink">
    <title>icon/particle/p9</title>
    <defs>
        <polygon id="path-1" points="0 0 36 0 36 36 0 36"></polygon>
        <polygon id="path-3" points="0 0 17.8807947 0 17.8807947 21.5526316 0 21.5526316"></polygon>
    </defs>
    <g id="element" stroke="none" stroke-width="1" fill="none" fill-rule="evenodd">
        <g id="plastic-item" transform="translate(-727.000000, -1233.000000)">
            <g id="icon/particle/p9" transform="translate(727.000000, 1233.000000)">
                <rect id="Rectangle-Copy-7" fill-opacity="0" fill="#D8D8D8" x="0" y="0" width="80" height="80"></rect>
                <g id="Group-4" transform="translate(22.000000, 22.000000)">
                    <g id="Group-75">
                        <mask id="mask-2" fill="white">
                            <use xlink:href="#path-1"></use>
                        </mask>
                        <g id="Clip-74"></g>
                        <path d="M17.2059986,4.17474032 C16.7989078,4.45017336 16.3648246,4.41344895 15.9405192,4.40358269 C15.2979327,4.38878331 14.3830802,4.42989271 13.2208883,4.68723761 C13.230804,4.31930841 13.3104043,3.21771329 14.1525423,2.31152489 C14.4564832,1.984294 15.1501626,1.23761011 16.1174852,1.33161363 C16.9217512,1.40958447 17.832059,2.06048344 17.8585007,2.92405508 C17.8739249,3.41914939 17.5958748,3.91068089 17.2059986,4.17474032 M32.1807696,20.4965458 C32.7437558,18.6685474 33.3720197,16.2707727 33.842047,13.383933 C35.5483578,12.4278652 36.2865197,10.9516263 35.8992602,10.045849 C35.8316412,9.88785185 35.6151505,9.47881323 34.886491,9.19255472 C34.8176326,8.95919031 34.5399956,8.12083244 33.8268982,7.83909596 C32.8912504,7.46938535 31.4430208,8.1516645 30.7625623,9.73807657 C29.9989228,9.92978345 29.1494857,10.1927466 28.2453751,10.5575241 C27.6425888,10.8007548 27.0918594,11.0583737 26.5938756,11.3165408 C24.1372838,10.0529746 21.680692,8.78954549 19.2241002,7.52611633 C19.3733852,6.90002004 19.5073836,6.21061526 19.6075037,5.46352028 C19.7496274,4.40371972 19.7967265,3.43107112 19.7914933,2.57243261 C19.6072283,2.18627823 19.2325009,1.53496817 18.526427,0.976154275 C17.3518407,0.0459853925 16.0548241,0.00789067397 15.5766715,0.000628011801 C13.4960465,-0.0319854523 12.0318417,1.21431478 11.4414499,1.71708285 C9.36922565,3.4808135 8.87675047,5.84720809 8.74550639,6.66734079 C8.17026343,6.97045416 6.17681314,8.11014399 5.14228474,10.5931523 C4.2239893,12.7967536 4.6040876,14.7563021 4.76645567,15.4281668 C4.19410476,15.6708494 3.29935889,16.1229158 2.41549264,16.9379784 C1.86793076,17.443076 -0.466368543,19.5958387 0.0831213806,21.8746702 C0.368470534,23.0588952 1.31251901,23.7777618 2.25532804,24.4956691 C3.52066974,25.4591366 4.78835264,25.8614606 5.56300948,26.0428902 C6.14293481,27.1436631 7.28488229,28.94357 9.34429891,30.4703735 C12.6598302,32.9280309 16.186619,33.0715028 17.4526493,33.0624587 C17.7023298,33.5032886 18.124294,34.1248628 18.8037886,34.71122 C19.7176771,35.5001096 20.6560792,35.8444694 21.2052937,36 C21.6081152,35.5853431 22.0519764,35.0625685 22.4753178,34.4196173 C23.1596324,33.3794122 23.5517121,32.3886755 23.7830762,31.6254108 C24.489701,31.263648 25.924572,30.3989801 26.8920324,28.6937619 C27.3135834,27.9502297 27.5346188,27.2442441 27.6556719,26.6863894 C28.1079338,26.4861866 28.7368863,26.155941 29.3791973,25.6180929 C30.7363961,24.4815548 31.3923411,23.0556065 32.1807696,20.4965458" id="Fill-73" fill="#DCDFDB" mask="url(#mask-2)"></path>
                    </g>
                    <path d="M17.2975002,9.94736842 L14.3202868,12.7607896 C13.8630342,13.9191205 13.4056445,15.0777247 12.9483919,16.2363289 C11.988929,18.1431471 10.5935958,20.4184008 8.56049387,22.6998043 C7.60007149,23.7773691 6.63677073,24.700098 5.7218543,25.4857568 C5.7396729,25.4909499 5.75762856,25.495733 5.77517303,25.5009261 C5.77983328,25.5022927 5.89510589,25.6854172 6.09755257,25.9829262 C6.3438604,26.3446655 8.065411,28.6918024 9.61028336,29.8994676 C11.9214925,31.7063873 14.8089276,32.1031115 16.0814495,32.2105263 L16.5681713,29.9828303 C17.021312,29.3876756 17.4722595,28.7824081 17.9207399,28.1670277 C21.177157,23.6985162 23.9153271,19.2230351 26.2251656,14.850049 C23.2491857,13.2158677 20.27348,11.5815497 17.2975002,9.94736842" id="Fill-76" fill="#5BC36A"></path>
                    <g id="Group-80" transform="translate(17.880795, 8.052632)">
                        <mask id="mask-4" fill="white">
                            <use xlink:href="#path-3"></use>
                        </mask>
                        <g id="Clip-79"></g>
                        <path d="M7.21541884,18.3329875 C8.60523699,17.2593188 9.93330984,16.8944839 10.2822394,16.8052839 C10.9451095,16.635872 11.5135779,16.5818072 11.9051804,16.5642396 C12.0299059,16.2206493 12.1387148,15.8327994 12.2096533,15.4035498 C12.5127542,13.5684807 11.949637,12.0294739 11.560916,11.2047483 C12.2713986,10.5640061 12.9814696,9.92326399 13.6919522,9.2829304 C14.0705195,9.0708931 14.5893173,8.72648569 15.1447506,8.31303338 C15.3533125,7.37704599 15.5548766,6.39257737 15.7307821,5.31523177 C17.4308361,4.36508132 18.1662913,2.89811548 17.7804517,1.99794428 C17.7130807,1.84078883 17.4973838,1.43428186 16.7713963,1.14979508 C16.714179,0.956142513 16.4947773,0.360204664 16.0161826,0 C15.5655791,0.112895904 14.865113,0.342637026 14.1650584,0.850736686 C12.5375895,2.03239864 12.555427,3.52728204 11.0580348,4.73400171 C10.5783424,5.12062592 9.7826513,5.60693627 8.49546756,5.82741693 C5.66355357,10.5803481 2.83163957,15.3334155 0,20.0862105 C0.720499074,20.2699217 1.49698056,20.5007523 2.31476278,20.7928653 C2.99533323,21.0359524 3.62554695,21.2932025 4.20389462,21.5526316 C4.52675394,21.1342767 4.99039256,20.5625794 5.58781266,19.9173433 C6.29719758,19.1513125 6.65189004,18.7685015 7.21541884,18.3329875" id="Fill-78" fill="#CDD0CD" mask="url(#mask-4)"></path>
                    </g>
                    <path d="M18.3576159,23.7285871 C18.1011305,23.5621795 15.7246068,22.0791662 12.9020155,23.0826792 C9.94214056,24.1353611 9.12678402,26.9856557 9.05960265,27.2368421 C12.1589868,26.0676064 15.2583709,24.8980967 18.3576159,23.7285871" id="Fill-81" fill="#6DCC78"></path>
                    <g id="Group-87" transform="translate(9.536424, 23.684211)">
                        <path d="M8.75355659,0.0867158327 C8.76327832,0.0731498589 8.77300005,0.0597168848 8.78286066,0.0462839107 C8.7618895,0.0541308956 8.74147387,0.0618448807 8.72064159,0.0698248653 C8.72953003,0.0748788556 8.74480703,0.081927842 8.75355659,0.0867158327" id="Fill-83" fill="#CDD0CD"></path>
                        <path d="M0,3.49411606 C0.923564328,3.76078055 2.12642006,4.01520906 3.58842934,4.02598203 C4.52921502,4.03263202 5.3605618,3.9391332 6.05136014,3.81477844 C6.88798442,2.66060667 7.72433095,1.50670089 8.56081635,0.352795119 C5.70707202,1.3997691 2.85346657,2.44687608 0,3.49411606" id="Fill-85" fill="#4EAF59"></path>
                    </g>
                    <path d="M28.1997585,10.5956278 C27.5935235,10.8390147 27.0397818,11.0970816 26.5389489,11.3555601 C24.0800753,10.0966435 21.6214787,8.83786402 19.1628821,7.57894737 C18.8945985,7.98710747 18.6261765,8.39499317 18.3576159,8.80301607 C21.0007007,10.5266178 23.6437855,12.2500824 26.2870089,13.9736842 C26.5202507,13.9465193 29.2137513,13.5874756 30.4476895,11.1947656 C30.7658347,10.5782038 30.7861949,9.64787317 30.7313471,9.77519168 C29.9633386,9.96712982 29.1090417,10.2304102 28.1997585,10.5956278" id="Fill-88" fill="#B1B4AF"></path>
                    <path d="M17.1655629,4.21123976 C16.6188709,4.98450813 16.0723165,5.75763892 15.5256244,6.53090729 C13.856652,6.05703963 12.8326192,6.31722655 12.2135487,6.62859778 C11.4158709,7.02967916 11.2921669,7.51400383 9.97394146,8.44825513 C8.95967845,9.16717457 8.59558404,9.19029006 7.94816749,9.63031004 C7.15324178,10.1704972 6.16099506,11.1826257 5.48344371,13.2631579 C5.58733308,10.8475886 6.37675472,9.60788251 7.08182643,8.92157242 C8.10338234,7.92733091 8.98430918,8.05969465 9.81624978,6.87337437 C10.6969014,5.6179828 10.2080022,4.77357923 10.9539416,3.66843838 C11.4310071,2.96176465 12.3958711,2.17652575 14.5496147,1.89473684 C14.2726223,2.1135085 13.8011984,2.54554813 13.4559555,3.24231522 C13.1605244,3.83863998 13.0793393,4.38267969 13.0553966,4.71812956 C13.7092804,4.5278395 14.5022797,4.35268458 15.4118277,4.26352481 C16.0551162,4.20050756 16.6444648,4.19142647 17.1655629,4.21123976" id="Fill-90" fill="#CDD0CD"></path>
                    <path d="M18.5338952,8.76315789 C18.0263857,9.13006741 17.0150512,9.74532958 15.6322617,9.84675395 C15.1091953,9.88513074 14.6468553,9.84168273 14.2698053,9.77328981 C14.2089424,9.93707646 13.7160345,11.2003581 12.3827815,11.6149645 C11.5338391,11.878942 10.8045756,11.6555343 10.5398354,11.5595923 C10.3156251,14.5336564 9.4743247,21.6821557 9.29801325,21.7894737 C11.0629019,20.7190354 12.304997,19.8055307 12.7048364,19.4113463 C12.8905639,19.2280971 13.0623721,19.0418326 13.0623721,19.0418326 C13.3280674,18.7498949 13.5075176,18.51004 13.7337748,18.2386613 C14.3632832,17.4831868 17.4277182,15.2560994 18.3305639,14.5520224 C19.2284969,13.851646 20.3895324,12.7318661 21.4569536,10.9184258 C20.9832872,10.5960608 20.4996588,10.2546444 20.0079791,9.89266904 C19.4929641,9.5138353 19.0018302,9.13637217 18.5338952,8.76315789" id="Fill-92" fill="#CDD0CD"></path>
                    <path d="M10.4900662,13.2631579 C10.1496603,13.8169608 9.66497169,14.4103704 8.90660964,14.8632937 C8.02545981,15.3889441 7.16735025,15.507626 6.67549669,15.5357785 C7.26780021,18.0151264 7.86038471,20.4941983 8.45282872,22.9736842 C8.75445956,22.6195705 9.05637139,22.2655948 9.35828322,21.9114811 C9.54639859,20.8421019 9.72186991,19.7415342 9.88160642,18.611434 C10.1427763,16.7635842 10.3418499,14.9786635 10.4900662,13.2631579" id="Fill-94" fill="#B1B4AF"></path>
                    <path d="M17.2191877,9.94736842 L14.256325,12.7812005 C13.8012765,13.9479349 13.3460915,15.114807 12.8911793,16.2819544 C12.1086213,17.8559996 11.0120579,19.6811213 9.53642384,21.5526316 C11.1877481,20.5341479 12.3602893,19.6694209 12.743725,19.2895027 C12.9293729,19.1054626 13.1012437,18.9182565 13.1012437,18.9182565 C13.3665523,18.6251964 13.5461983,18.3841686 13.7720857,18.1117562 C14.4015968,17.3528833 17.4647175,15.1161835 18.3670395,14.4092052 C19.057251,13.8683724 19.9025556,13.0698558 20.7417219,11.9051862 C19.5676802,11.2525803 18.3933657,10.5999743 17.2191877,9.94736842" id="Fill-96" fill="#4EAF59"></path>
                    <path d="M3.65769718,17.7631579 C3.56943927,17.8536976 1.7443196,19.7262855 1.65592694,19.8171029 C1.61159587,19.8625116 0.282741668,21.2257445 0.238410596,21.2712921 C2.05477185,21.3650256 3.87126785,21.4587592 5.68776384,21.5526316 C5.69921716,21.2414362 5.71040099,20.9305186 5.7218543,20.6193232 C4.79238398,20.4297731 3.86291366,20.2402231 2.93344334,20.050673 C3.1749062,19.2880291 3.41623432,18.5256629 3.65769718,17.7631579" id="Fill-98" fill="#E5E5E5"></path>
                    <path d="M26.1186356,27.5254844 C25.1910123,28.3272269 24.8472935,28.8290623 24.3403431,29.3391757 C22.957675,30.7302831 22.0990738,30.4330901 21.2663559,31.3108272 C20.3262085,32.3022847 20.0943722,34.0836783 20.3785316,35.4785854 C20.6542025,35.5909488 20.9418408,35.7090118 21.1377745,35.7631579 C21.5448099,35.3525159 21.9933142,34.834803 22.4210841,34.1980773 C23.1126964,33.167944 23.5087384,32.1868001 23.7425228,31.4309257 C24.4565395,31.0726657 25.9064205,30.21637 26.8840013,28.5276625 C27.3099621,27.7913296 27.5334489,27.0921797 27.6556291,26.5397265 C27.3625636,26.4505686 26.9478746,26.8089643 26.1186356,27.5254844" id="Fill-100" fill="#E5E5E5"></path>
                    <path d="M4.52980132,16.8157895 C4.67871094,15.2934156 5.17507632,14.7057284 5.61506779,14.4550869 C6.24439309,14.0966129 6.67819718,14.493243 7.70021487,14.1365663 C8.02099616,14.0247246 9.15644915,13.6286475 9.61500276,12.6439154 C10.0694315,11.6685842 9.45261841,10.9885481 9.93839649,10.4669429 C10.3694506,10.0040926 10.9292023,10.4598923 12.1356039,10.1582377 C13.5114022,9.81427968 13.4631407,9.05157202 14.7140914,8.83701296 C15.665298,8.67388172 15.8839188,9.06525845 17.0207467,8.83341855 C18.0265397,8.62812203 18.4885308,8.18974139 18.5807915,8.31001612 C18.7254387,8.49872301 17.8286811,9.8846473 16.3762967,10.2778212 C15.355654,10.5540384 14.4720961,10.2287436 14.1319277,10.0820638 C14.0146425,10.3273136 13.5890882,11.1386841 12.6228945,11.5874333 C11.8896212,11.9282117 11.2200092,11.8854934 10.9272773,11.8489963 C10.9006028,12.1943368 10.8259418,12.6947903 10.6026461,13.2528926 C10.1900166,14.2846286 9.52287955,14.8813018 9.19329843,15.176044 C7.48324408,16.7056068 5.07497826,16.804315 4.52980132,16.8157895" id="Fill-102" fill="#E5E5E5"></path>
                </g>
            </g>
        </g>
    </g>
</svg>