<?xml version="1.0" encoding="UTF-8"?>
<svg width="960px" height="502px" viewBox="0 0 960 502" version="1.1" xmlns="http://www.w3.org/2000/svg" xmlns:xlink="http://www.w3.org/1999/xlink">
    <title>Combined Shape</title>
    <defs>
        <linearGradient x1="0%" y1="50%" x2="100%" y2="50%" id="linearGradient-1">
            <stop stop-color="#3DDB87" offset="0%"></stop>
            <stop stop-color="#020F18" offset="100%"></stop>
        </linearGradient>
    </defs>
    <g id="element" stroke="none" stroke-width="1" fill="none" fill-rule="evenodd">
        <g id="Artboard" fill="url(#linearGradient-1)">
            <path d="M709.42357,-2.27373675e-13 C847.813111,-2.27373675e-13 960,112.186889 960,250.57643 C960,388.965972 847.813111,501.152861 709.42357,501.152861 C703.295066,501.152861 697.217949,500.93285 691.199686,500.500295 L691.2,501.128215 C689.841541,500.806621 688.487541,500.487456 687.138003,500.170718 C665.76463,498.291797 645.161159,493.724585 625.667172,486.812839 C566.319433,475.058392 517.763588,469.183222 480,469.183222 C442.236412,469.183222 393.680567,475.058392 334.332462,486.808733 C314.838825,493.724585 294.235366,498.291797 272.861453,500.175436 C271.512459,500.487456 270.158459,500.806621 268.8,501.128215 L268.799315,500.500367 C262.781379,500.932874 256.704595,501.152861 250.57643,501.152861 C112.186889,501.152861 0,388.965972 0,250.57643 C0,112.186889 112.186889,-2.27373675e-13 250.57643,-2.27373675e-13 C256.704595,-2.27373675e-13 262.781379,0.219986682 268.799316,0.652493835 L268.8,0.00821523178 C270.196698,0.338861399 271.58868,0.666940805 272.975948,0.992453449 C294.270701,2.87395715 314.800314,7.42433663 334.228916,14.3032054 C393.62391,26.0711814 442.214382,31.9532087 480,31.9532087 C517.785618,31.9532087 566.37609,26.0711814 625.771416,14.3071267 C645.199703,7.42433663 665.729303,2.87395715 687.024487,0.987503338 C688.41132,0.666940805 689.803302,0.338861399 691.2,0.00821523178 L691.199686,0.652565594 C697.217949,0.220011015 703.295066,-2.27373675e-13 709.42357,-2.27373675e-13 Z" id="Combined-Shape"></path>
        </g>
    </g>
</svg>