<?xml version="1.0" encoding="UTF-8"?>
<svg width="160px" height="161px" viewBox="0 0 160 161" version="1.1" xmlns="http://www.w3.org/2000/svg" xmlns:xlink="http://www.w3.org/1999/xlink">
    <title>icon/PL/collect</title>
    <g id="element" stroke="none" stroke-width="1" fill="none" fill-rule="evenodd">
        <g id="plastic-item" transform="translate(-491.000000, -2971.000000)">
            <g id="icon/PL/collect" transform="translate(491.000000, 2971.000000)">
                <rect id="Rectangle" fill="#020F18" x="0" y="0" width="160" height="160.301668"></rect>
                <rect id="Rectangle-Copy-2" x="0" y="0" width="160" height="160.301668"></rect>
                <rect id="Rectangle" fill="#3DDB87" x="71" y="71.1338653" width="18" height="18.0339377"></rect>
                <path d="M137.305087,107.888795 L157.924412,128.546996 L137.305087,149.205198 L137.305087,138.562947 L97.8050865,138.563026 L97.8050865,117.52909 L137.305087,117.52895 L137.305087,107.888795 Z" id="Combined-Shape" stroke="#020F18" stroke-width="3" fill="#3DDB87" transform="translate(127.555087, 128.546996) scale(-1, 1) rotate(-45.000000) translate(-127.555087, -128.546996) "></path>
                <path d="M137.305569,11.7082774 L157.924412,32.3659954 L137.305512,53.0237704 L137.304263,42.3819461 L97.8050865,42.3820245 L97.8050865,21.3480892 L137.304286,21.3479485 L137.305569,11.7082774 Z" id="Combined-Shape-Copy-2" stroke="#020F18" stroke-width="3" fill="#3DDB87" transform="translate(127.555087, 32.365995) scale(-1, 1) rotate(45.000000) translate(-127.555087, -32.365995) "></path>
                <path d="M42.305569,11.7082774 L62.9244118,32.3659954 L42.3055123,53.0237704 L42.3042627,42.3819461 L2.80508653,42.3820245 L2.80508653,21.3480892 L42.3042861,21.3479485 L42.305569,11.7082774 Z" id="Combined-Shape-Copy-3" stroke="#020F18" stroke-width="3" fill="#3DDB87" transform="translate(32.555087, 32.365995) scale(-1, 1) rotate(135.000000) translate(-32.555087, -32.365995) "></path>
                <path d="M42.3050865,107.888795 L62.9244118,128.546996 L42.3050865,149.205198 L42.3050865,138.562947 L2.80508653,138.563026 L2.80508653,117.52909 L42.3050865,117.52895 L42.3050865,107.888795 Z" id="Combined-Shape-Copy-4" stroke="#020F18" stroke-width="3" fill="#3DDB87" transform="translate(32.555087, 128.546996) scale(-1, 1) rotate(-135.000000) translate(-32.555087, -128.546996) "></path>
            </g>
        </g>
    </g>
</svg>