<?xml version="1.0" encoding="UTF-8"?>
<svg width="160px" height="160px" viewBox="0 0 160 160" version="1.1" xmlns="http://www.w3.org/2000/svg" xmlns:xlink="http://www.w3.org/1999/xlink">
    <title>icon/PL/dispose</title>
    <g id="element" stroke="none" stroke-width="1" fill="none" fill-rule="evenodd">
        <g id="plastic-item" transform="translate(-296.000000, -2971.000000)">
            <g id="icon/PL/dispose" transform="translate(296.000000, 2971.000000)">
                <rect id="Rectangle" fill="#020F18" x="0" y="0" width="160" height="160"></rect>
                <rect id="Rectangle-Copy" x="0" y="0" width="160" height="160"></rect>
                <g id="Group-3" transform="translate(30.000000, 9.698332)" fill="#3DDB87" stroke="#020F18" stroke-width="3">
                    <path d="M61.3846231,-1.5 L61.3840078,117.566036 L75.3739628,117.56637 L49.5,146.238988 L23.6260332,117.566365 L38.3070087,117.566034 L38.307701,-1.5 L61.3846231,-1.5 Z" id="Combined-Shape"></path>
                    <path d="M102.5,-1.5 L102.5,67.2939616 C102.5,79.2241884 99.065249,88.5361911 92.7110876,94.9243644 C86.5759767,101.092315 77.6778889,104.574276 66.3093563,104.92464 L65.842,104.936 L65.8432447,119.493551 L39.8219179,94.7780832 L65.8432449,70.0626151 L65.8430233,84.5375992 C71.3774531,84.377194 75.3710493,83.2594055 77.9978235,80.747284 C80.8400973,78.029069 81.9930981,73.7408971 82.0427667,67.6901314 L82.0427667,67.6901314 L82.0444175,-1.5 L102.5,-1.5 Z" id="Combined-Shape-Copy" transform="translate(71.500000, 58.000000) scale(-1, 1) translate(-71.500000, -58.000000) "></path>
                    <path d="M60.5,-1.5 L60.5,67.2939616 C60.5,79.2241884 57.065249,88.5361911 50.7110876,94.9243644 C44.5759767,101.092315 35.6778889,104.574276 24.3093563,104.92464 L23.842,104.936 L23.8432447,119.493551 L-2.17808212,94.7780832 L23.8432449,70.0626151 L23.8430233,84.5375992 C29.3774531,84.377194 33.3710493,83.2594055 35.9978235,80.747284 C38.8400973,78.029069 39.9930981,73.7408971 40.0427667,67.6901314 L40.0427667,67.6901314 L40.0444175,-1.5 L60.5,-1.5 Z" id="Combined-Shape"></path>
                </g>
            </g>
        </g>
    </g>
</svg>