<?xml version="1.0" encoding="UTF-8"?>
<svg width="160px" height="160px" viewBox="0 0 160 160" version="1.1" xmlns="http://www.w3.org/2000/svg" xmlns:xlink="http://www.w3.org/1999/xlink">
    <title>icon/PL/recycle</title>
    <g id="element" stroke="none" stroke-width="1" fill="none" fill-rule="evenodd">
        <g id="plastic-item" transform="translate(-975.000000, -2971.000000)">
            <g id="icon/PL/recycle" transform="translate(975.000000, 2971.000000)">
                <rect id="Rectangle" fill="#020F18" x="0" y="0" width="160" height="160"></rect>
                <rect id="Rectangle" x="0" y="0" width="160" height="160"></rect>
                <g id="Group-6" transform="translate(12.686292, 12.686292)" fill-rule="nonzero">
                    <path d="M67.3137085,0 L134.627417,67.3137085 L67.3137085,134.627417 L0,67.3137085 L5.65685425,61.6568542 L20.323,46.989 L37.5218542,29.792719 L31.0359037,23.306719 L51.306,23.306 L47.6568542,19.6568542 L67.3137085,0 Z M22.6267085,67.3137085 L67.3137085,112.000708 L112.000708,67.3137085 L67.3137085,22.6267085 L58.9705627,30.9705627 L55.077,27.077 L55.0775343,47.3483496 L48.8348542,41.105719 L22.6267085,67.3137085 Z" id="Combined-Shape" fill="#3DDB87"></path>
                    <polygon id="Path-4" fill="#020F18" points="59.0775343 19.306719 59.0775343 45.3137085 55.0775343 45.3137085 55.077 23.306 33.0359037 23.306719 33.0359037 19.306719"></polygon>
                </g>
            </g>
        </g>
    </g>
</svg>