<?xml version="1.0" encoding="UTF-8"?>
<svg width="48px" height="48px" viewBox="0 0 48 48" version="1.1" xmlns="http://www.w3.org/2000/svg" xmlns:xlink="http://www.w3.org/1999/xlink">
    <title>ic_play</title>
    <g id="Symbols" stroke="none" stroke-width="1" fill="none" fill-rule="evenodd">
        <g id="components/card/historic-item" transform="translate(-86.000000, -226.000000)" fill="#FFFFFF">
            <path d="M110,226 C96.745166,226 86,236.745166 86,250 C86,263.254834 96.745166,274 110,274 C123.254834,274 134,263.254834 134,250 C134,243.634804 131.471436,237.53031 126.970563,233.029437 C122.46969,228.528564 116.365196,226 110,226 Z M122.7668,251.533429 L102.195371,261.819143 C101.66393,262.084928 101.032756,262.056556 100.527304,261.744163 C100.021852,261.43177 99.7142857,260.879912 99.7142857,260.285714 L99.7142857,239.714286 C99.7142857,239.120088 100.021852,238.56823 100.527304,238.255837 C101.032756,237.943444 101.66393,237.915072 102.195371,238.180857 L122.7668,248.466571 C123.34771,248.756908 123.714684,249.350576 123.714684,250 C123.714684,250.649424 123.34771,251.243092 122.7668,251.533429 Z" id="ic_play"></path>
        </g>
    </g>
</svg>