<?xml version="1.0" encoding="UTF-8"?>
<svg width="257px" height="256px" viewBox="0 0 257 256" version="1.1" xmlns="http://www.w3.org/2000/svg" xmlns:xlink="http://www.w3.org/1999/xlink">
    <title>illust/c3/circle_cr</title>
    <defs>
        <linearGradient x1="50%" y1="28.8644919%" x2="50%" y2="87.6822727%" id="linearGradient-1">
            <stop stop-color="#471180" stop-opacity="0.35" offset="0%"></stop>
            <stop stop-color="#220749" stop-opacity="0.2" offset="99.9890734%"></stop>
        </linearGradient>
        <circle id="path-2" cx="128" cy="128" r="128"></circle>
        <path d="M17.2726883,9.54949858 C9.71962302,11.725712 2.75233755,11.4461562 -3.26704552e-15,9.12556687 L-3.26704552e-15,9.12556687 L8.17287001,37.6209506 C10.2479284,44.8236515 16.8087544,49.5177066 23.9443251,49.5425356 L23.9443251,49.5425356 L24.0509977,49.5425356 C25.5457938,49.5379377 27.0640395,49.3282708 28.57125,48.8942236 L28.57125,48.8942236 C37.3170256,46.3745427 42.3642039,37.2411593 39.8440632,28.4949239 L39.8440632,28.4949239 L31.671653,0 C30.5764194,3.42961673 24.8257536,7.37328514 17.2726883,9.54949858" id="path-4"></path>
        <linearGradient x1="56.7111235%" y1="66.0260192%" x2="40.6655303%" y2="3.93493072%" id="linearGradient-6">
            <stop stop-color="#FFEB00" offset="0%"></stop>
            <stop stop-color="#FF7E00" offset="100%"></stop>
        </linearGradient>
        <path d="M16.8312844,9.30534702 C9.47133329,11.426385 2.68198879,11.1541859 0,8.89245041 L0,8.89245041 L7.96366293,36.6599774 C10.4194322,45.1822922 19.3187795,50.1002679 27.8410943,47.6449584 L27.8410943,47.6449584 C36.3634091,45.1891892 41.2818446,36.2903016 38.8260753,27.767527 L38.8260753,27.767527 L30.8624124,0 C29.7952264,3.34225553 24.1916952,7.18568847 16.8312844,9.30534702" id="path-7"></path>
        <linearGradient x1="57.5284523%" y1="72.2835507%" x2="64.2033228%" y2="100.689468%" id="linearGradient-9">
            <stop stop-color="#FFEB00" offset="0%"></stop>
            <stop stop-color="#FF7E00" offset="100%"></stop>
        </linearGradient>
        <path d="M14.089691,1.43410304 C5.32506381,3.95976127 -0.931837175,8.95038467 0.114198227,12.581392 L0.114198227,12.581392 C1.16069342,16.2123992 9.11424085,17.109001 17.878868,14.5838026 L17.878868,14.5838026 C26.6434952,12.0581444 32.9003962,7.06752095 31.853901,3.43651367 L31.853901,3.43651367 C31.2097271,1.1991474 27.9414987,0 23.478261,0 L23.478261,0 C20.6974162,0 17.4540167,0.464853535 14.089691,1.43410304" id="path-10"></path>
        <linearGradient x1="54.5965924%" y1="59.0902923%" x2="44.6181501%" y2="39.3542159%" id="linearGradient-12">
            <stop stop-color="#FFEB00" offset="0%"></stop>
            <stop stop-color="#FF7E00" offset="100%"></stop>
        </linearGradient>
        <path d="M31.6711932,0 L52.817661,73.3903036 C55.3373418,82.1360791 50.2901636,91.2690027 41.544388,93.7891434 C32.7986124,96.3088243 23.6656889,91.2621058 21.1455482,82.5158705 L21.1455482,82.5158705 L0,9.12556687 C2.75187775,11.446616 9.71916322,11.725712 17.2726883,9.54949858 C24.8257536,7.37328514 30.5759596,3.42961673 31.6711932,0" id="path-13"></path>
        <path d="M31.6711932,0 L52.817661,73.3903036 C55.3373418,82.1360791 50.2901636,91.2690027 41.544388,93.7891434 C32.7986124,96.3088243 23.6656889,91.2621058 21.1455482,82.5158705 L21.1455482,82.5158705 L0,9.12556687 C2.75187775,11.446616 9.71916322,11.725712 17.2726883,9.54949858 C24.8257536,7.37328514 30.5759596,3.42961673 31.6711932,0" id="path-15"></path>
        <linearGradient x1="43.8515994%" y1="7.42969863%" x2="49.2723956%" y2="40.4414312%" id="linearGradient-17">
            <stop stop-color="#282867" offset="0%"></stop>
            <stop stop-color="#5754BF" offset="100%"></stop>
        </linearGradient>
        <path d="M4.06203389,0 L26.8651459,79.1267158 L22.0947646,80.5010453 L1.61270176,9.41431862 C1.03335908,8.93797019 0.630118179,8.37655954 0.443441092,7.72870728 L0.443441092,7.72870728 L0.118365475,6.59990864 C-0.458218434,4.59979699 1.10600681,2.2010424 4.06203389,0 L4.06203389,0 Z" id="path-18"></path>
        <path d="M14.5926315,1.48588003 C23.66946,-1.12989817 31.9067014,-0.201570484 32.99044,3.55909921 L32.99044,3.55909921 L33.3155157,4.68789785 C34.3987945,8.44810775 27.9184328,13.6171319 18.8411445,16.2324503 C9.76431596,18.8482285 1.52707454,17.9199008 0.443335884,14.1592311 L0.443335884,14.1592311 L0.118260266,13.0308923 M32.4745492,3.96050093 C31.4367901,0.359840165 23.4432404,-0.498138763 14.6202192,2.04453191 C5.79673816,4.58674278 -0.514878524,9.56633109 0.522420758,13.1665321 C1.55972004,16.7671928 9.55372949,17.6247119 18.3767507,15.0825011" id="path-20"></path>
        <linearGradient x1="44.540358%" y1="38.9707235%" x2="68.9232539%" y2="88.2295133%" id="linearGradient-22">
            <stop stop-color="#5754BF" offset="0%"></stop>
            <stop stop-color="#FFFFFF" offset="100%"></stop>
        </linearGradient>
        <path d="M14.209372,1.46226098 C23.0323932,-1.08040969 31.0259429,-0.222430763 32.063702,3.37823 C33.1005415,6.97843096 26.7889248,11.9580193 17.9659035,14.5002301 C9.14288228,17.042441 1.14887283,16.1849219 0.111573552,12.5842611" id="path-23"></path>
        <path d="M1.00744098,0.124144861 C0.354990767,0.342547857 -0.0891719578,0.773376504 0.0152016845,1.08695723 L0.0152016845,1.08695723 C0.120494918,1.39961836 0.734322286,1.47594446 1.3867725,1.25800126 L1.3867725,1.25800126 C2.03968251,1.03959826 2.48384523,0.60922941 2.37947159,0.296108483 L2.37947159,0.296108483 C2.31464039,0.102994255 2.05715475,0 1.71690587,0 L1.71690587,0 C1.50402042,0 1.25848948,0.040002233 1.00744098,0.124144861" id="path-25"></path>
        <path d="M1.29606627,0.0983962971 C0.302447589,0.430368851 -0.233674291,1.50629098 0.0982982625,2.49944987 L0.0982982625,2.49944987 C0.431190408,3.49352834 1.50619294,4.03011002 2.49981163,3.69721788 L2.49981163,3.69721788 C3.49389011,3.36478553 4.02955219,2.28978299 3.69757964,1.29570451 L3.69757964,1.29570451 C3.43181768,0.501637197 2.69200626,0 1.89793895,0 L1.89793895,0 C1.69838758,0 1.49561764,0.0317259089 1.29606627,0.0983962971" id="path-27"></path>
        <path d="M0.716776759,0.08828079 C0.25238302,0.24415156 -0.0639564771,0.55037555 0.0109902352,0.772916708 L0.0109902352,0.772916708 C0.0854771518,0.995457866 0.522283144,1.05017356 0.986676883,0.89476259 L0.986676883,0.89476259 C1.45061083,0.739351616 1.76649053,0.433127626 1.69200361,0.210586468 L1.69200361,0.210586468 C1.64648383,0.073567325 1.46302531,0 1.22117273,0 L1.22117273,0 C1.06989992,0 0.895177522,0.0285073384 0.716776759,0.08828079" id="path-29"></path>
        <path d="M0.716206888,0.08828079 C0.252272945,0.243231968 -0.0636067567,0.549915754 0.0108801598,0.772456912 L0.0108801598,0.772456912 C0.0853670763,0.995457866 0.522173068,1.04971377 0.986107011,0.89476259 L0.986107011,0.89476259 C1.45050075,0.739351616 1.76638045,0.43266783 1.69235333,0.210126672 L1.69235333,0.210126672 C1.64591396,0.0731075292 1.46291524,1.30681821e-14 1.22060286,1.30681821e-14 L1.22060286,1.30681821e-14 C1.06933005,1.30681821e-14 0.895067447,0.0285073384 0.716206888,0.08828079" id="path-31"></path>
        <path d="M1.08523723,0.0823034448 C0.253006869,0.360479892 -0.195753813,1.26076003 0.0824226343,2.0929904 L0.0824226343,2.0929904 C0.361058878,2.92522076 1.26133902,3.37398144 2.09356938,3.09580499 L2.09356938,3.09580499 C2.92533995,2.81716875 3.37456043,1.91734841 3.09592418,1.08511804 L3.09592418,1.08511804 C2.87338303,0.420253344 2.25403811,0 1.5896332,0 L1.5896332,0 C1.42226754,0 1.2526029,0.0262083595 1.08523723,0.0823034448" id="path-33"></path>
        <path d="M0.599993787,0.073567325 C0.211006557,0.203689531 -0.0533760176,0.460255577 0.00915620862,0.646932664 L0.00915620862,0.646932664 C0.0716884348,0.833149955 0.436766285,0.879129533 0.825753516,0.748547532 L0.825753516,0.748547532 C1.21428095,0.618885121 1.47866352,0.362319075 1.4161313,0.176101784 L1.4161313,0.176101784 C1.37796825,0.0611528389 1.22485625,0 1.02208631,0 L1.02208631,0 C0.895182679,0 0.749427416,0.0239093806 0.599993787,0.073567325" id="path-35"></path>
        <path d="M0.734776276,0.0556352895 C0.171526444,0.24415156 -0.132398567,0.85338097 0.0556579071,1.4170906 L0.0556579071,1.4170906 C0.244174177,1.98034043 0.853863383,2.28426544 1.41711321,2.09574917 L1.41711321,2.09574917 C1.98036305,1.9076927 2.28474785,1.29800349 2.09577179,0.734753658 L2.09577179,0.734753658 C1.94541857,0.284613588 1.52608481,0 1.07640454,0 L1.07640454,0 C0.963294779,0 0.848345834,0.0179320355 0.734776276,0.0556352895" id="path-37"></path>
        <path d="M0.406552775,0.0501177401 C0.143089793,0.137938734 -0.0357707662,0.31174154 0.00607064986,0.438185379 L0.00607064986,0.438185379 C0.0483718617,0.564169423 0.296201788,0.595435536 0.559204974,0.507154746 L0.559204974,0.507154746 C0.822208161,0.418873957 1.00152852,0.245071151 0.959227304,0.119087107 L0.959227304,0.119087107 C0.93347874,0.0413816203 0.829564894,0 0.692545751,0 L0.692545751,0 C0.60656394,0 0.507707847,0.0160928523 0.406552775,0.0501177401" id="path-39"></path>
        <path d="M0.40620348,0.0505775359 C0.143200293,0.13839853 -0.0361200617,0.312201335 0.00618115014,0.438185379 L0.00618115014,0.438185379 C0.048482362,0.564169423 0.295852492,0.595435536 0.558855679,0.507614542 L0.558855679,0.507614542 C0.822318662,0.419333752 1.00117922,0.245530947 0.958878008,0.119546903 L0.958878008,0.119546903 C0.932669649,0.0418414161 0.829215598,1.30681821e-14 0.692196455,1.30681821e-14 L0.692196455,1.30681821e-14 C0.606214644,1.30681821e-14 0.507358551,0.0165526481 0.40620348,0.0505775359" id="path-41"></path>
        <path d="M0.40620348,0.0501177401 C0.143200293,0.13839853 -0.0361200617,0.31174154 0.00618115014,0.437725584 L0.00618115014,0.437725584 C0.048482362,0.564629219 0.295852492,0.594975741 0.558855679,0.507154746 L0.558855679,0.507154746 C0.822318662,0.419333752 1.00117922,0.245530947 0.959337804,0.119087107 L0.959337804,0.119087107 C0.933129445,0.0413816203 0.829675394,-1.30681821e-14 0.692196455,-1.30681821e-14 L0.692196455,-1.30681821e-14 C0.60667444,-1.30681821e-14 0.507358551,0.0160928523 0.40620348,0.0501177401" id="path-43"></path>
        <path d="M11.9640638,6.5584172 C6.73237357,8.05299992 1.90642832,7.8610062 0,6.26726882 L0,6.26726882 L5.66100289,25.837366 C7.09830844,30.7840464 11.6427163,34.0078357 16.5852257,34.0248878 L16.5852257,34.0248878 L16.6591133,34.0248878 C17.6944956,34.02173 18.7461205,33.8777347 19.7901018,33.5796392 L19.7901018,33.5796392 C25.8479322,31.8491694 29.3439001,25.5765324 27.5983047,19.5697814 L27.5983047,19.5697814 L21.9376203,0 C21.1789982,2.35539669 17.1957541,5.06383447 11.9640638,6.5584172" id="path-45"></path>
        <linearGradient x1="56.8264648%" y1="66.0260192%" x2="40.5051026%" y2="3.93493072%" id="linearGradient-47">
            <stop stop-color="#FFEB00" offset="0%"></stop>
            <stop stop-color="#FF7E00" offset="100%"></stop>
        </linearGradient>
        <path d="M11.5717343,6.38104353 C6.51166897,7.83552291 1.84390335,7.64886525 0,6.09790403 L0,6.09790403 L5.47512533,25.1391927 C7.16349972,30.9832801 13.2819207,34.35573 19.1411267,32.6720275 L19.1411267,32.6720275 C25.0003327,30.9880096 28.3818232,24.8856914 26.6934488,19.0412886 L26.6934488,19.0412886 L21.2183235,0 C20.4846187,2.29191646 16.6321157,4.92751004 11.5717343,6.38104353" id="path-48"></path>
        <linearGradient x1="57.5674546%" y1="72.2835507%" x2="64.2769054%" y2="100.689468%" id="linearGradient-50">
            <stop stop-color="#FFEB00" offset="0%"></stop>
            <stop stop-color="#FF7E00" offset="100%"></stop>
        </linearGradient>
        <path d="M9.72723922,0.987976666 C3.67631693,2.72794327 -0.64332164,6.16606406 0.0788401586,8.66752341 L0.0788401586,8.66752341 C0.801319391,11.1689828 6.29228853,11.7866662 12.3432108,10.0470163 L12.3432108,10.0470163 C18.3941331,8.30704972 22.7137717,4.86892893 21.9912924,2.36746958 L21.9912924,2.36746958 C21.5465677,0.826111942 19.2902486,0 16.2089191,0 L16.2089191,0 C14.2890797,0 12.049902,0.320245082 9.72723922,0.987976666" id="path-51"></path>
        <linearGradient x1="54.5965924%" y1="59.0517855%" x2="44.6181501%" y2="39.3993118%" id="linearGradient-53">
            <stop stop-color="#FFEB00" offset="0%"></stop>
            <stop stop-color="#FF7E00" offset="100%"></stop>
        </linearGradient>
        <path d="M21.7892081,0 L36.3375955,50.0249886 C38.0710904,55.9863664 34.598723,62.2116356 28.5817876,63.9294376 C22.5648522,65.6469262 16.2815659,62.2069345 14.5477547,56.2452433 L14.5477547,56.2452433 L0,6.22025467 C1.89324212,7.80234998 6.68660852,7.99259005 11.8832972,6.50921899 C17.0796695,5.02584793 21.0357073,2.3377276 21.7892081,0" id="path-54"></path>
        <path d="M21.6914101,0 L36.1744989,50.0914826 C37.9002132,56.0607843 34.4434311,62.2943283 28.4535019,64.0144136 C22.4635727,65.734185 16.2084882,62.2896209 14.482459,56.3200053 L14.482459,56.3200053 L0,6.22852273 C1.88474455,7.81272098 6.65659653,8.00321392 11.8299605,6.51787114 C17.0030096,5.03252836 20.9412912,2.34083494 21.6914101,0" id="path-56"></path>
        <linearGradient x1="43.8090333%" y1="7.42969863%" x2="49.2673583%" y2="40.4414312%" id="linearGradient-58">
            <stop stop-color="#282867" offset="0%"></stop>
            <stop stop-color="#5754BF" offset="100%"></stop>
        </linearGradient>
        <path d="M2.78206262,0 L18.3997771,54.0067872 L15.1325716,54.9448158 L1.10452975,6.42560603 C0.707741429,6.10048135 0.431564158,5.71729869 0.303710142,5.27511657 L0.303710142,5.27511657 L0.0810678032,4.5046715 C-0.313831054,3.13952443 0.757497425,1.50228943 2.78206262,0 L2.78206262,0 Z" id="path-59"></path>
        <path d="M9.91340992,1.01416577 C16.1300753,-0.771195533 21.7717125,-0.137578997 22.5139586,2.42921132 L22.5139586,2.42921132 L22.7366009,3.19965639 C23.4785321,5.76613288 19.0401712,9.29417502 12.823191,11.0792225 C6.60652562,12.8645838 0.964888437,12.2309673 0.222642338,9.66417695 L0.222642338,9.66417695 L9.73526815e-14,8.89404571 M22.160628,2.70318221 C21.449873,0.245603663 15.9751389,-0.339997356 9.9323046,1.39546547 C3.88915542,3.13061447 -0.433632956,6.52935993 0.276807094,8.98662465 C0.987247144,11.4442032 6.46229622,12.0294904 12.5051305,10.2943414" id="path-61"></path>
        <linearGradient x1="44.540358%" y1="39.0465555%" x2="68.9232539%" y2="87.9666654%" id="linearGradient-63">
            <stop stop-color="#5754BF" offset="0%"></stop>
            <stop stop-color="#FFFFFF" offset="100%"></stop>
        </linearGradient>
        <path d="M9.74675563,0.968774039 C15.7988058,-0.715790734 21.2818894,-0.147364357 21.9937283,2.23813777 C22.7049365,4.62333527 18.3755555,7.92240154 12.3235053,9.60666169 C6.27145516,11.2909218 0.788056134,10.7228001 0.0765325971,8.33729796" id="path-64"></path>
        <path d="M0.773745965,0.0825961647 C0.272643935,0.227904232 -0.0684868334,0.514543515 0.0116753659,0.723175309 L0.0116753659,0.723175309 C0.0925438401,0.931195279 0.563982325,0.981976625 1.06508435,0.836974469 L1.06508435,0.836974469 C1.56653952,0.691666401 1.90767029,0.40533303 1.82750809,0.197007148 L1.82750809,0.197007148 C1.77771571,0.0685242255 1.57995875,0 1.31863704,0 L1.31863704,0 C1.1551344,0 0.966559009,0.0266143197 0.773745965,0.0825961647" id="path-66"></path>
        <path d="M0.941946253,0.0715119409 C0.219810807,0.3127812 -0.169828216,1.0947342 0.0714405444,1.81653697 L0.0714405444,1.81653697 C0.313377639,2.53900807 1.09466069,2.92898207 1.81679614,2.68704447 L1.81679614,2.68704447 C2.53926575,2.44544105 2.9285706,1.66415638 2.68730184,0.941685278 L2.68730184,0.941685278 C2.49415317,0.364577232 1.95647805,0 1.37937119,0 L1.37937119,0 C1.2343426,0 1.08697484,0.0230575884 0.941946253,0.0715119409" id="path-68"></path>
        <path d="M0.580610848,0.0448928792 C0.204437878,0.124156869 -0.0518066802,0.279879044 0.00890242285,0.39304651 L0.00890242285,0.39304651 C0.0692390775,0.506213977 0.423065138,0.534038209 0.799238108,0.455008036 L0.799238108,0.455008036 C1.17503863,0.375977864 1.43091074,0.220255689 1.37057408,0.107088222 L1.37057408,0.107088222 C1.33370168,0.0374107327 1.18509474,0 0.989186836,0 L0.989186836,0 C0.866651284,0 0.72512086,0.0144966589 0.580610848,0.0448928792" id="path-70"></path>
        <path d="M0.580071995,0.0449032495 C0.204321507,0.123717807 -0.0515165365,0.279709825 0.00881208504,0.392903433 L0.00881208504,0.392903433 C0.0691407066,0.506330913 0.42291966,0.533927701 0.798670149,0.455113144 L0.798670149,0.455113144 C1.17479304,0.376064715 1.43063108,0.220072697 1.37067486,0.106879089 L1.37067486,0.106879089 C1.33306257,0.0371855035 1.18484781,0 0.988593587,0 L0.988593587,0 C0.866074349,0 0.724935167,0.0145000077 0.580071995,0.0449032495" id="path-72"></path>
        <path d="M0.784935003,0.0595344027 C0.182995885,0.260754032 -0.141585651,0.911973923 0.0596149936,1.51396984 L0.0596149936,1.51396984 C0.261148201,2.11596575 0.91230665,2.44057792 1.51424577,2.23935829 L1.51424577,2.23935829 C2.11585232,2.03780606 2.44076642,1.38691877 2.23923321,0.784922851 L2.23923321,0.784922851 C2.0782727,0.303991308 1.63031027,0 1.14975667,0 L1.14975667,0 C1.02870372,0 0.905987952,0.0189578824 0.784935003,0.0595344027" id="path-74"></path>
        <path d="M0.387114214,0.0446984043 C0.136140805,0.123758707 -0.0344380484,0.279644392 0.00590755868,0.393066592 L0.00590755868,0.393066592 C0.0462531658,0.506209428 0.281800313,0.534145931 0.532773722,0.454806263 L0.532773722,0.454806263 C0.783450472,0.376025326 0.954029326,0.220139641 0.913683719,0.106996805 L0.913683719,0.106996805 C0.889061032,0.0371555485 0.790273626,0 0.659447062,0 L0.659447062,0 C0.577569212,0 0.483528349,0.0145269814 0.387114214,0.0446984043" id="path-76"></path>
        <path d="M0.471013158,0.0356671625 C0.109953485,0.156522837 -0.0848713674,0.547093005 0.0356783519,0.908480949 L0.0356783519,0.908480949 C0.156522814,1.26957412 0.547351488,1.46441705 0.908411161,1.34356138 L0.908411161,1.34356138 C1.26947083,1.22300047 1.46459043,0.832135535 1.34345122,0.471042361 L1.34345122,0.471042361 C1.2470704,0.182462592 0.978265155,0 0.690006902,0 L0.690006902,0 C0.617500225,0 0.543814577,0.0114960276 0.471013158,0.0356671625" id="path-78"></path>
        <path d="M0.210559983,0.0449586052 C0.0741084212,0.12373928 -0.0185262342,0.279650774 0.00314408364,0.393078448 L0.00314408364,0.393078448 C0.0250525368,0.506093657 0.153407496,0.534141227 0.289620923,0.454948088 L0.289620923,0.454948088 C0.425834349,0.375754948 0.51870714,0.219843455 0.496798687,0.106828245 L0.496798687,0.106828245 C0.483463106,0.0371217841 0.429644515,0 0.358680177,0 L0.358680177,0 C0.314148865,0 0.262949762,0.0144362494 0.210559983,0.0449586052" id="path-80"></path>
        <path d="M0.210452589,0.0453623309 C0.0741915663,0.124127833 -0.0187136765,0.280009297 0.00320243207,0.393002739 L0.00320243207,0.393002739 C0.0251185406,0.505996182 0.153280132,0.53403835 0.289541155,0.455272848 L0.289541155,0.455272848 C0.426040396,0.376094962 0.51870742,0.220213497 0.496791312,0.107220055 L0.496791312,0.107220055 C0.483212853,0.0375270192 0.429613675,0 0.35862454,0 L0.35862454,0 C0.314077668,0 0.262860675,0.0148458537 0.210452589,0.0453623309" id="path-82"></path>
        <path d="M0.210379077,0.0449667862 C0.074165651,0.124174336 -0.0187071397,0.279701661 0.00320131345,0.392737435 L0.00320131345,0.392737435 C0.0251097666,0.506598288 0.153226591,0.533825883 0.289440017,0.455030873 L0.289440017,0.455030873 C0.425891579,0.376235862 0.518526234,0.220295998 0.496855916,0.106847685 L0.496855916,0.106847685 C0.483282201,0.037128539 0.429701745,0 0.358499272,0 L0.358499272,0 C0.314206095,0 0.262768857,0.0144388763 0.210379077,0.0449667862" id="path-84"></path>
    </defs>
    <g id="Page-5" stroke="none" stroke-width="1" fill="none" fill-rule="evenodd">
        <g id="ver5_chapter3" transform="translate(-735.000000, -3192.000000)">
            <g id="Group-70" transform="translate(182.000000, 2654.000000)">
                <g id="illust/c3/circle_cr" transform="translate(553.500000, 538.000000)">
                    <g id="Group-30">
                        <circle id="Oval-Copy" fill="url(#linearGradient-1)" cx="128" cy="128" r="128"></circle>
                        <g id="illust_CR">
                            <mask id="mask-3" fill="white">
                                <use xlink:href="#path-2"></use>
                            </mask>
                            <circle stroke="#FFFFFF" stroke-width="4" cx="128" cy="128" r="126"></circle>
                            <g mask="url(#mask-3)">
                                <g transform="translate(22.872852, 109.085911)">
                                    <rect id="Rectangle" x="0" y="0" width="211.134021" height="211.134021"></rect>
                                    <g id="Group-10" stroke-width="1" fill-rule="evenodd" transform="translate(52.783505, 46.625430)">
                                        <g id="Group-5" transform="translate(0.000000, 0.000000)">
                                            <g id="Group-16" transform="translate(14.556873, 68.837985)">
                                                <mask id="mask-5" fill="white">
                                                    <use xlink:href="#path-4"></use>
                                                </mask>
                                                <g id="Clip-15"></g>
                                                <path d="M17.2726883,9.54949858 C9.71962302,11.725712 2.75233755,11.4461562 -3.26704552e-15,9.12556687 L-3.26704552e-15,9.12556687 L8.17287001,37.6209506 C10.2479284,44.8236515 16.8087544,49.5177066 23.9443251,49.5425356 L23.9443251,49.5425356 L24.0509977,49.5425356 C25.5457938,49.5379377 27.0640395,49.3282708 28.57125,48.8942236 L28.57125,48.8942236 C37.3170256,46.3745427 42.3642039,37.2411593 39.8440632,28.4949239 L39.8440632,28.4949239 L31.671653,0 C30.5764194,3.42961673 24.8257536,7.37328514 17.2726883,9.54949858" id="Fill-14" fill="url(#linearGradient-6)" mask="url(#mask-5)"></path>
                                            </g>
                                            <g id="Group-19" transform="translate(15.124261, 69.520781)">
                                                <mask id="mask-8" fill="white">
                                                    <use xlink:href="#path-7"></use>
                                                </mask>
                                                <g id="Clip-18"></g>
                                                <path d="M16.8312844,9.30534702 C9.47133329,11.426385 2.68198879,11.1541859 0,8.89245041 L0,8.89245041 L7.96366293,36.6599774 C10.4194322,45.1822922 19.3187795,50.1002679 27.8410943,47.6449584 L27.8410943,47.6449584 C36.3634091,45.1891892 41.2818446,36.2903016 38.8260753,27.767527 L38.8260753,27.767527 L30.8624124,0 C29.7952264,3.34225553 24.1916952,7.18568847 16.8312844,9.30534702" id="Fill-17" fill="url(#linearGradient-9)" mask="url(#mask-8)"></path>
                                            </g>
                                            <g id="Group-22" transform="translate(14.377843, 65.416644)">
                                                <mask id="mask-11" fill="white">
                                                    <use xlink:href="#path-10"></use>
                                                </mask>
                                                <g id="Clip-21"></g>
                                                <path d="M14.089691,1.43410304 C5.32506381,3.95976127 -0.931837175,8.95038467 0.114198227,12.581392 L0.114198227,12.581392 C1.16069342,16.2123992 9.11424085,17.109001 17.878868,14.5838026 L17.878868,14.5838026 C26.6434952,12.0581444 32.9003962,7.06752095 31.853901,3.43651367 L31.853901,3.43651367 C31.2097271,1.1991474 27.9414987,0 23.478261,0 L23.478261,0 C20.6974162,0 17.4540167,0.464853535 14.089691,1.43410304" id="Fill-20" fill="url(#linearGradient-12)" mask="url(#mask-11)"></path>
                                            </g>
                                            <g id="Group-28" transform="translate(19.055974, 23.943065)">
                                                <mask id="mask-14" fill="white">
                                                    <use xlink:href="#path-13"></use>
                                                </mask>
                                                <g id="Clip-27"></g>
                                                <path d="M17.2726883,9.54949858 C9.71916322,11.725712 2.75187775,11.446616 0,9.12556687 L21.1455482,82.5158705 C23.6656889,91.2621058 32.7986124,96.3088243 41.544388,93.7891434 C50.2901636,91.2690027 55.3373418,82.1360791 52.817661,73.3903036 L31.6711932,0 C30.5759596,3.42961673 24.8257536,7.37328514 17.2726883,9.54949858" id="Fill-26" mask="url(#mask-14)"></path>
                                            </g>
                                            <g id="Group-13" transform="translate(0.000000, 17.331841)">
                                                <g id="Group-3" opacity="0.2" transform="translate(1.583735, 6.611224)">
                                                    <mask id="mask-16" fill="white">
                                                        <use xlink:href="#path-15"></use>
                                                    </mask>
                                                    <g id="Clip-2"></g>
                                                    <path d="M17.2726883,9.54949858 C9.71916322,11.725712 2.75187775,11.446616 0,9.12556687 L21.1455482,82.5158705 C23.6656889,91.2621058 32.7986124,96.3088243 41.544388,93.7891434 C50.2901636,91.2690027 55.3373418,82.1360791 52.817661,73.3903036 L31.6711932,0 C30.5759596,3.42961673 24.8257536,7.37328514 17.2726883,9.54949858" id="Fill-1" fill="url(#linearGradient-17)" mask="url(#mask-16)"></path>
                                                </g>
                                                <g id="Group-6" transform="translate(0.000000, 6.430524)">
                                                    <mask id="mask-19" fill="white">
                                                        <use xlink:href="#path-18"></use>
                                                    </mask>
                                                    <g id="Clip-5"></g>
                                                </g>
                                                <g id="Group-12" transform="translate(0.001944, 0.000000)">
                                                    <mask id="mask-21" fill="white">
                                                        <use xlink:href="#path-20"></use>
                                                    </mask>
                                                    <g id="Clip-11"></g>
                                                    <path d="M18.3767507,15.0825011 C9.55372949,17.6247119 1.55972004,16.7671928 0.522420758,13.1665321 C-0.514878524,9.56633109 5.79673816,4.58674278 14.6202192,2.04453191 C23.4432404,-0.498138763 31.4367901,0.359840165 32.4745492,3.96050093 C33.5113887,7.56070189 27.199772,12.5402902 18.3767507,15.0825011 M33.3155157,4.68789785 L32.99044,3.55909921 C31.9067014,-0.201570484 23.66946,-1.12989817 14.5926315,1.48588003 C5.51488335,4.10119844 -0.965018594,9.27022261 0.118260266,13.0308923 L0.443335884,14.1592311 C1.52707454,17.9199008 9.76431596,18.8482285 18.8411445,16.2324503 C27.9184328,13.6171319 34.3987945,8.44810775 33.3155157,4.68789785" id="Fill-10" fill="url(#linearGradient-22)" mask="url(#mask-21)"></path>
                                                </g>
                                            </g>
                                            <g id="Group-34" transform="translate(0.412792, 17.914112)">
                                                <mask id="mask-24" fill="white">
                                                    <use xlink:href="#path-23"></use>
                                                </mask>
                                                <g id="Clip-33"></g>
                                                <path d="M32.063702,3.37823 C31.0259429,-0.222430763 23.0323932,-1.08040969 14.209372,1.46226098 C5.38589096,4.00447185 -0.92572573,8.98406016 0.111573552,12.5842611 C1.14887283,16.1849219 9.14288228,17.042441 17.9659035,14.5002301 C26.7889248,11.9580193 33.1005415,6.97843096 32.063702,3.37823" id="Fill-32" mask="url(#mask-24)"></path>
                                            </g>
                                            <g id="Group-54" transform="translate(16.938417, 21.936056)" fill="#FFEC00">
                                                <path d="M1.82236856,0.13839853 C0.425049185,0.606010839 -0.329015896,2.11735957 0.138596413,3.51513875 L0.138596413,3.51513875 C0.605748927,4.91245812 2.11755745,5.66606341 3.51487683,5.1989109 L3.51487683,5.1989109 C4.91219621,4.73129859 5.66626129,3.21949006 5.19864898,1.82263048 L5.19864898,1.82263048 C4.82529481,0.705326728 3.78477696,0 2.6688526,0 L2.6688526,0 C2.38837717,0 2.10330379,0.0446001908 1.82236856,0.13839853" id="Fill-52"></path>
                                            </g>
                                            <g id="Group-60" transform="translate(17.810359, 22.121814)">
                                                <mask id="mask-26" fill="white">
                                                    <use xlink:href="#path-25"></use>
                                                </mask>
                                                <g id="Clip-59"></g>
                                                <path d="M1.00744098,0.124144861 C0.354990767,0.342547857 -0.0891719578,0.773376504 0.0152016845,1.08695723 L0.0152016845,1.08695723 C0.120494918,1.39961836 0.734322286,1.47594446 1.3867725,1.25800126 L1.3867725,1.25800126 C2.03968251,1.03959826 2.48384523,0.60922941 2.37947159,0.296108483 L2.37947159,0.296108483 C2.31464039,0.102994255 2.05715475,0 1.71690587,0 L1.71690587,0 C1.50402042,0 1.25848948,0.040002233 1.00744098,0.124144861" id="Fill-58" mask="url(#mask-26)"></path>
                                            </g>
                                            <path d="M26.1864413,9.88508477 C25.854009,8.89100629 24.7785466,8.35488441 23.7849279,8.68731676 C22.7913093,9.01974911 22.2547276,10.0952114 22.5871599,11.0888301 C22.9200521,12.0824488 23.9950546,12.6190305 24.9886733,12.2865981 C25.9827518,11.9541658 26.5188737,10.8791632 26.1864413,9.88508477" id="Fill-61" fill="#FFEC00"></path>
                                            <g id="Group-65" transform="translate(22.488908, 8.589104)">
                                                <mask id="mask-28" fill="white">
                                                    <use xlink:href="#path-27"></use>
                                                </mask>
                                                <g id="Clip-64"></g>
                                            </g>
                                            <g id="Group-71" transform="translate(23.109119, 8.721066)">
                                                <mask id="mask-30" fill="white">
                                                    <use xlink:href="#path-29"></use>
                                                </mask>
                                                <g id="Clip-70"></g>
                                                <path d="M0.716776759,0.08828079 C0.25238302,0.24415156 -0.0639564771,0.55037555 0.0109902352,0.772916708 L0.0109902352,0.772916708 C0.0854771518,0.995457866 0.522283144,1.05017356 0.986676883,0.89476259 L0.986676883,0.89476259 C1.45061083,0.739351616 1.76649053,0.433127626 1.69200361,0.210586468 L1.69200361,0.210586468 C1.64648383,0.073567325 1.46302531,0 1.22117273,0 L1.22117273,0 C1.06989992,0 0.895177522,0.0285073384 0.716776759,0.08828079" id="Fill-69" mask="url(#mask-30)"></path>
                                            </g>
                                            <path d="M8.68367118,22.781161 C8.35123883,21.7875423 7.2762363,21.2509606 6.28215782,21.5838527 C5.28853914,21.9158253 4.75241725,22.9912876 5.0848496,23.9849063 C5.41728195,24.9789848 6.49228449,25.5151067 7.48636297,25.1826743 C8.47998165,24.850242 9.01610353,23.7752394 8.68367118,22.781161" id="Fill-72" fill="#FFEC00"></path>
                                            <g id="Group-82" transform="translate(5.606643, 21.617418)">
                                                <mask id="mask-32" fill="white">
                                                    <use xlink:href="#path-31"></use>
                                                </mask>
                                                <g id="Clip-81"></g>
                                                <path d="M0.716206888,0.08828079 C0.252272945,0.243231968 -0.0636067567,0.549915754 0.0108801598,0.772456912 L0.0108801598,0.772456912 C0.0853670763,0.995457866 0.522173068,1.04971377 0.986107011,0.89476259 L0.986107011,0.89476259 C1.45050075,0.739351616 1.76638045,0.43266783 1.69235333,0.210126672 L1.69235333,0.210126672 C1.64591396,0.0731075292 1.46291524,1.30681821e-14 1.22060286,1.30681821e-14 L1.22060286,1.30681821e-14 C1.06933005,1.30681821e-14 0.895067447,0.0285073384 0.716206888,0.08828079" id="Fill-80" mask="url(#mask-32)"></path>
                                            </g>
                                            <path d="M15.4324617,1.08523723 C15.1542852,0.253006869 14.2540051,-0.195753813 13.4217747,0.0824226343 C12.5895444,0.360599082 12.1407837,1.26087922 12.4189601,2.09310958 C12.6975964,2.92533995 13.5974167,3.37410063 14.4296471,3.09592418 C15.2618775,2.81774774 15.7106381,1.9174676 15.4324617,1.08523723" id="Fill-83" fill="#FFEC00"></path>
                                            <g id="Group-87" transform="translate(12.336400, 0.000119)">
                                                <mask id="mask-34" fill="white">
                                                    <use xlink:href="#path-33"></use>
                                                </mask>
                                                <g id="Clip-86"></g>
                                            </g>
                                            <g id="Group-93" transform="translate(12.856128, 0.110930)">
                                                <mask id="mask-36" fill="white">
                                                    <use xlink:href="#path-35"></use>
                                                </mask>
                                                <g id="Clip-92"></g>
                                                <path d="M0.599993787,0.073567325 C0.211006557,0.203689531 -0.0533760176,0.460255577 0.00915620862,0.646932664 L0.00915620862,0.646932664 C0.0716884348,0.833149955 0.436766285,0.879129533 0.825753516,0.748547532 L0.825753516,0.748547532 C1.21428095,0.618885121 1.47866352,0.362319075 1.4161313,0.176101784 L1.4161313,0.176101784 C1.37796825,0.0611528389 1.22485625,0 1.02208631,0 L1.02208631,0 C0.895182679,0 0.749427416,0.0239093806 0.599993787,0.073567325" id="Fill-91" mask="url(#mask-36)"></path>
                                            </g>
                                            <path d="M14.4381073,11.7929614 C14.2495911,11.2292518 13.6403617,10.9253267 13.0771118,11.113843 C12.5134022,11.3023593 12.2094772,11.9120485 12.3979935,12.4752983 C12.5865097,13.0385482 13.1957391,13.3424732 13.758989,13.1539569 C14.3226986,12.9659004 14.6266236,12.3562112 14.4381073,11.7929614" id="Fill-94" fill="#FFEC00"></path>
                                            <g id="Group-98" transform="translate(12.342014, 11.058208)">
                                                <mask id="mask-38" fill="white">
                                                    <use xlink:href="#path-37"></use>
                                                </mask>
                                                <g id="Clip-97"></g>
                                            </g>
                                            <g id="Group-104" transform="translate(12.693687, 11.133154)">
                                                <mask id="mask-40" fill="white">
                                                    <use xlink:href="#path-39"></use>
                                                </mask>
                                                <g id="Clip-103"></g>
                                                <path d="M0.406552775,0.0501177401 C0.143089793,0.137938734 -0.0357707662,0.31174154 0.00607064986,0.438185379 L0.00607064986,0.438185379 C0.0483718617,0.564169423 0.296201788,0.595435536 0.559204974,0.507154746 L0.559204974,0.507154746 C0.822208161,0.418873957 1.00152852,0.245071151 0.959227304,0.119087107 L0.959227304,0.119087107 C0.93347874,0.0413816203 0.829564894,0 0.692545751,0 L0.692545751,0 C0.60656394,0 0.507707847,0.0160928523 0.406552775,0.0501177401" id="Fill-102" mask="url(#mask-40)"></path>
                                            </g>
                                            <path d="M12.3057124,26.2850807 C12.1171962,25.7213711 11.5079668,25.417446 10.9447169,25.6059623 C10.3810073,25.7944786 10.0770823,26.4041678 10.2655986,26.9674176 C10.4541148,27.5306675 11.0633442,27.8345925 11.6265941,27.6460762 C12.1903037,27.4580197 12.4942287,26.8483305 12.3057124,26.2850807" id="Fill-105" fill="#FFEC00"></path>
                                            <g id="Group-115" transform="translate(10.561503, 25.624998)">
                                                <mask id="mask-42" fill="white">
                                                    <use xlink:href="#path-41"></use>
                                                </mask>
                                                <g id="Clip-114"></g>
                                                <path d="M0.40620348,0.0505775359 C0.143200293,0.13839853 -0.0361200617,0.312201335 0.00618115014,0.438185379 L0.00618115014,0.438185379 C0.048482362,0.564169423 0.295852492,0.595435536 0.558855679,0.507614542 L0.558855679,0.507614542 C0.822318662,0.419333752 1.00117922,0.245530947 0.958878008,0.119546903 L0.958878008,0.119546903 C0.932669649,0.0418414161 0.829215598,1.30681821e-14 0.692196455,1.30681821e-14 L0.692196455,1.30681821e-14 C0.606214644,1.30681821e-14 0.507358551,0.0165526481 0.40620348,0.0505775359" id="Fill-113" mask="url(#mask-42)"></path>
                                            </g>
                                            <path d="M2.79166413,15.0353493 C2.60314786,14.4720994 1.99391845,14.1681744 1.43066861,14.3562309 C0.866958986,14.545207 0.563033975,15.1544364 0.751550245,15.7176862 C0.940066515,16.280936 1.54929593,16.5853208 2.11254576,16.3968046 C2.67625538,16.2082883 2.9801804,15.5990589 2.79166413,15.0353493" id="Fill-116" fill="#FFEC00"></path>
                                            <g id="Group-126" transform="translate(1.047409, 14.375634)">
                                                <mask id="mask-44" fill="white">
                                                    <use xlink:href="#path-43"></use>
                                                </mask>
                                                <g id="Clip-125"></g>
                                                <path d="M0.40620348,0.0501177401 C0.143200293,0.13839853 -0.0361200617,0.31174154 0.00618115014,0.437725584 L0.00618115014,0.437725584 C0.048482362,0.564629219 0.295852492,0.594975741 0.558855679,0.507154746 L0.558855679,0.507154746 C0.822318662,0.419333752 1.00117922,0.245530947 0.959337804,0.119087107 L0.959337804,0.119087107 C0.933129445,0.0413816203 0.829675394,-1.30681821e-14 0.692196455,-1.30681821e-14 L0.692196455,-1.30681821e-14 C0.60667444,-1.30681821e-14 0.507358551,0.0160928523 0.40620348,0.0501177401" id="Fill-124" mask="url(#mask-44)"></path>
                                            </g>
                                        </g>
                                        <g id="Group-5-Copy" transform="translate(80.508140, 40.834435) scale(-1, 1) translate(-80.508140, -40.834435) translate(55.449270, 0.142509)">
                                            <g id="Group-16" transform="translate(10.115507, 47.358965)">
                                                <mask id="mask-46" fill="white">
                                                    <use xlink:href="#path-45"></use>
                                                </mask>
                                                <g id="Clip-15"></g>
                                                <path d="M11.9640638,6.5584172 C6.73237357,8.05299992 1.90642832,7.8610062 0,6.26726882 L0,6.26726882 L5.66100289,25.837366 C7.09830844,30.7840464 11.6427163,34.0078357 16.5852257,34.0248878 L16.5852257,34.0248878 L16.6591133,34.0248878 C17.6944956,34.02173 18.7461205,33.8777347 19.7901018,33.5796392 L19.7901018,33.5796392 C25.8479322,31.8491694 29.3439001,25.5765324 27.5983047,19.5697814 L27.5983047,19.5697814 L21.9376203,0 C21.1789982,2.35539669 17.1957541,5.06383447 11.9640638,6.5584172" id="Fill-14" fill="url(#linearGradient-47)" mask="url(#mask-46)"></path>
                                            </g>
                                            <g id="Group-19" transform="translate(10.575303, 47.818761)">
                                                <mask id="mask-49" fill="white">
                                                    <use xlink:href="#path-48"></use>
                                                </mask>
                                                <g id="Clip-18"></g>
                                                <path d="M11.5717343,6.38104353 C6.51166897,7.83552291 1.84390335,7.64886525 0,6.09790403 L0,6.09790403 L5.47512533,25.1391927 C7.16349972,30.9832801 13.2819207,34.35573 19.1411267,32.6720275 L19.1411267,32.6720275 C25.0003327,30.9880096 28.3818232,24.8856914 26.6934488,19.0412886 L26.6934488,19.0412886 L21.2183235,0 C20.4846187,2.29191646 16.6321157,4.92751004 11.5717343,6.38104353" id="Fill-17" fill="url(#linearGradient-50)" mask="url(#mask-49)"></path>
                                            </g>
                                            <g id="Group-22" transform="translate(10.115507, 44.600191)">
                                                <mask id="mask-52" fill="white">
                                                    <use xlink:href="#path-51"></use>
                                                </mask>
                                                <g id="Clip-21"></g>
                                                <path d="M9.72723922,0.987976666 C3.67631693,2.72794327 -0.64332164,6.16606406 0.0788401586,8.66752341 L0.0788401586,8.66752341 C0.801319391,11.1689828 6.29228853,11.7866662 12.3432108,10.0470163 L12.3432108,10.0470163 C18.3941331,8.30704972 22.7137717,4.86892893 21.9912924,2.36746958 L21.9912924,2.36746958 C21.5465677,0.826111942 19.2902486,0 16.2089191,0 L16.2089191,0 C14.2890797,0 12.049902,0.320245082 9.72723922,0.987976666" id="Fill-20" fill="url(#linearGradient-53)" mask="url(#mask-52)"></path>
                                            </g>
                                            <g id="Group-28" transform="translate(13.334078, 17.012444)">
                                                <mask id="mask-55" fill="white">
                                                    <use xlink:href="#path-54"></use>
                                                </mask>
                                                <g id="Clip-27"></g>
                                                <path d="M11.8832972,6.50921899 C6.68660852,7.99259005 1.89324212,7.80234998 0,6.22025467 L14.5477547,56.2452433 C16.2815659,62.2069345 22.5648522,65.6469262 28.5817876,63.9294376 C34.598723,62.2116356 38.0710904,55.9863664 36.3375955,50.0249886 L21.7892081,0 C21.0357073,2.3377276 17.0796695,5.02584793 11.8832972,6.50921899" id="Fill-26" mask="url(#mask-55)"></path>
                                            </g>
                                            <g id="Group-13" transform="translate(0.000000, 12.414486)">
                                                <g id="Group-3" opacity="0.2" transform="translate(1.084690, 4.512394)">
                                                    <mask id="mask-57" fill="white">
                                                        <use xlink:href="#path-56"></use>
                                                    </mask>
                                                    <g id="Clip-2"></g>
                                                    <path d="M11.8299605,6.51787114 C6.65659653,8.00321392 1.88474455,7.81272098 0,6.22852273 L14.482459,56.3200053 C16.2084882,62.2896209 22.4635727,65.734185 28.4535019,64.0144136 C34.4434311,62.2943283 37.9002132,56.0607843 36.1744989,50.0914826 L21.6914101,0 C20.9412912,2.34083494 17.0030096,5.03252836 11.8299605,6.51787114" id="Fill-1" fill="url(#linearGradient-58)" mask="url(#mask-57)"></path>
                                                </g>
                                                <g id="Group-6" transform="translate(0.000000, 4.389060)">
                                                    <mask id="mask-60" fill="white">
                                                        <use xlink:href="#path-59"></use>
                                                    </mask>
                                                    <g id="Clip-5"></g>
                                                </g>
                                                <g id="Group-12" transform="translate(0.082327, 0.000000)">
                                                    <mask id="mask-62" fill="white">
                                                        <use xlink:href="#path-61"></use>
                                                    </mask>
                                                    <g id="Clip-11"></g>
                                                    <path d="M12.5051305,10.2943414 C6.46229622,12.0294904 0.987247144,11.4442032 0.276807094,8.98662465 C-0.433632956,6.52935993 3.88915542,3.13061447 9.9323046,1.39546547 C15.9751389,-0.339997356 21.449873,0.245603663 22.160628,2.70318221 C22.8707531,5.16044694 18.5479648,8.5591924 12.5051305,10.2943414 M22.7366009,3.19965639 L22.5139586,2.42921132 C21.7717125,-0.137578997 16.1300753,-0.771195533 9.91340992,1.01416577 C3.69611475,2.79921325 -0.741931187,6.3272554 9.32032229e-14,8.89404571 L0.222642338,9.66417695 C0.964888437,12.2309673 6.60652562,12.8645838 12.823191,11.0792225 C19.0401712,9.29417502 23.4785321,5.76613288 22.7366009,3.19965639" id="Fill-10" fill="url(#linearGradient-63)" mask="url(#mask-62)"></path>
                                                </g>
                                            </g>
                                            <g id="Group-34" transform="translate(0.459796, 12.414486)">
                                                <mask id="mask-65" fill="white">
                                                    <use xlink:href="#path-64"></use>
                                                </mask>
                                                <g id="Clip-33"></g>
                                                <path d="M21.9937283,2.23813777 C21.2818894,-0.147364357 15.7988058,-0.715790734 9.74675563,0.968774039 C3.69439008,2.65303419 -0.634990939,5.95210046 0.0765325971,8.33729796 C0.788056134,10.7228001 6.27145516,11.2909218 12.3235053,9.60666169 C18.3755555,7.92240154 22.7049365,4.62333527 21.9937283,2.23813777" id="Fill-32" mask="url(#mask-65)"></path>
                                            </g>
                                            <g id="Group-54" transform="translate(11.954690, 15.173261)" fill="#FFEC00">
                                                <path d="M1.25595481,0.0953811079 C0.292938859,0.417648838 -0.226753855,1.45923589 0.0955190046,2.42255339 L0.0955190046,2.42255339 C0.417474978,3.38555401 1.45939549,3.90492157 2.42241144,3.58297072 L2.42241144,3.58297072 C3.38542739,3.26070299 3.9051201,2.21879906 3.58284724,1.25611532 L3.58284724,1.25611532 C3.32553597,0.486095081 2.60842341,0 1.83934157,0 L1.83934157,0 C1.64604123,0 1.44957203,0.0307374334 1.25595481,0.0953811079" id="Fill-52"></path>
                                            </g>
                                            <g id="Group-60" transform="translate(12.414486, 15.173261)">
                                                <mask id="mask-67" fill="white">
                                                    <use xlink:href="#path-66"></use>
                                                </mask>
                                                <g id="Clip-59"></g>
                                                <path d="M0.773745965,0.0825961647 C0.272643935,0.227904232 -0.0684868334,0.514543515 0.0116753659,0.723175309 L0.0116753659,0.723175309 C0.0925438401,0.931195279 0.563982325,0.981976625 1.06508435,0.836974469 L1.06508435,0.836974469 C1.56653952,0.691666401 1.90767029,0.40533303 1.82750809,0.197007148 L1.82750809,0.197007148 C1.77771571,0.0685242255 1.57995875,0 1.31863704,0 L1.31863704,0 C1.1551344,0 0.966559009,0.0266143197 0.773745965,0.0825961647" id="Fill-58" mask="url(#mask-67)"></path>
                                            </g>
                                            <path d="M18.3202365,6.91936449 C18.0786561,6.19696222 17.2971117,5.80735951 16.5750436,6.04893992 C15.8529754,6.29052033 15.4630386,7.07206469 15.704619,7.79413283 C15.9465335,8.51620096 16.7277438,8.9061378 17.4498119,8.6645574 C18.1722142,8.42297699 18.5618169,7.64176676 18.3202365,6.91936449" id="Fill-61" fill="#FFEC00"></path>
                                            <g id="Group-65" transform="translate(15.633057, 5.977345)">
                                                <mask id="mask-69" fill="white">
                                                    <use xlink:href="#path-68"></use>
                                                </mask>
                                                <g id="Clip-64"></g>
                                            </g>
                                            <g id="Group-71" transform="translate(16.092852, 5.977345)">
                                                <mask id="mask-71" fill="white">
                                                    <use xlink:href="#path-70"></use>
                                                </mask>
                                                <g id="Clip-70"></g>
                                                <path d="M0.580610848,0.0448928792 C0.204437878,0.124156869 -0.0518066802,0.279879044 0.00890242285,0.39304651 L0.00890242285,0.39304651 C0.0692390775,0.506213977 0.423065138,0.534038209 0.799238108,0.455008036 L0.799238108,0.455008036 C1.17503863,0.375977864 1.43091074,0.220255689 1.37057408,0.107088222 L1.37057408,0.107088222 C1.33370168,0.0374107327 1.18509474,0 0.989186836,0 L0.989186836,0 C0.866651284,0 0.72512086,0.0144966589 0.580610848,0.0448928792" id="Fill-69" mask="url(#mask-71)"></path>
                                            </g>
                                            <path d="M6.82533155,15.6553397 C6.58372518,14.933227 5.80243101,14.543266 5.07995112,14.7851955 C4.3578054,15.0264567 3.96816083,15.8080494 4.2097672,16.5301621 C4.45137356,17.252609 5.23266773,17.6422358 5.95514762,17.4006405 C6.67729334,17.1590452 7.06693791,16.3777866 6.82533155,15.6553397" id="Fill-72" fill="#FFEC00"></path>
                                            <g id="Group-82" transform="translate(3.678366, 14.713465)">
                                                <mask id="mask-73" fill="white">
                                                    <use xlink:href="#path-72"></use>
                                                </mask>
                                                <g id="Clip-81"></g>
                                                <path d="M0.580071995,0.0449032495 C0.204321507,0.123717807 -0.0515165365,0.279709825 0.00881208504,0.392903433 L0.00881208504,0.392903433 C0.0691407066,0.506330913 0.42291966,0.533927701 0.798670149,0.455113144 L0.798670149,0.455113144 C1.17479304,0.376064715 1.43063108,0.220072697 1.37067486,0.106879089 L1.37067486,0.106879089 C1.33306257,0.0371855035 1.18484781,0 0.988593587,0 L0.988593587,0 C0.866074349,0 0.724935167,0.0145000077 0.580071995,0.0449032495" id="Fill-80" mask="url(#mask-73)"></path>
                                            </g>
                                            <path d="M10.5156846,0.784979629 C10.3144725,0.183006289 9.66327703,-0.1415937 9.06130369,0.0596183829 C8.45933035,0.260830466 8.13473036,0.912025936 8.33594244,1.51399928 C8.53748711,2.11597262 9.18834999,2.44057261 9.79032334,2.23936052 C10.3922967,2.03814844 10.7168967,1.38695297 10.5156846,0.784979629" id="Fill-83" fill="#FFEC00"></path>
                                            <g id="Group-87" transform="translate(8.276324, 0.000000)">
                                                <mask id="mask-75" fill="white">
                                                    <use xlink:href="#path-74"></use>
                                                </mask>
                                                <g id="Clip-86"></g>
                                            </g>
                                            <g id="Group-93" transform="translate(9.195916, 0.459796)">
                                                <mask id="mask-77" fill="white">
                                                    <use xlink:href="#path-76"></use>
                                                </mask>
                                                <g id="Clip-92"></g>
                                                <path d="M0.387114214,0.0446984043 C0.136140805,0.123758707 -0.0344380484,0.279644392 0.00590755868,0.393066592 L0.00590755868,0.393066592 C0.0462531658,0.506209428 0.281800313,0.534145931 0.532773722,0.454806263 L0.532773722,0.454806263 C0.783450472,0.376025326 0.954029326,0.220139641 0.913683719,0.106996805 L0.913683719,0.106996805 C0.889061032,0.0371555485 0.790273626,0 0.659447062,0 L0.659447062,0 C0.577569212,0 0.483528349,0.0145269814 0.387114214,0.0446984043" id="Fill-91" mask="url(#mask-77)"></path>
                                            </g>
                                            <path d="M10.0796876,8.28767363 C9.95884543,7.92632666 9.56831886,7.73150582 9.207266,7.85234779 C8.84591841,7.97318976 8.65109723,8.36401038 8.77193941,8.72506262 C8.8927816,9.08611485 9.28330816,9.28093569 9.64436102,9.16009372 C10.0057086,9.03954648 10.2005298,8.64872586 10.0796876,8.28767363" id="Fill-94" fill="#FFEC00"></path>
                                            <g id="Group-98" transform="translate(8.736120, 7.816528)">
                                                <mask id="mask-79" fill="white">
                                                    <use xlink:href="#path-78"></use>
                                                </mask>
                                                <g id="Clip-97"></g>
                                            </g>
                                            <g id="Group-104" transform="translate(9.195916, 7.816528)">
                                                <mask id="mask-81" fill="white">
                                                    <use xlink:href="#path-80"></use>
                                                </mask>
                                                <g id="Clip-103"></g>
                                                <path d="M0.210559983,0.0449586052 C0.0741084212,0.12373928 -0.0185262342,0.279650774 0.00314408364,0.393078448 L0.00314408364,0.393078448 C0.0250525368,0.506093657 0.153407496,0.534141227 0.289620923,0.454948088 L0.289620923,0.454948088 C0.425834349,0.375754948 0.51870714,0.219843455 0.496798687,0.106828245 L0.496798687,0.106828245 C0.483463106,0.0371217841 0.429644515,0 0.358680177,0 L0.358680177,0 C0.314148865,0 0.262949762,0.0144362494 0.210559983,0.0449586052" id="Fill-102" mask="url(#mask-81)"></path>
                                            </g>
                                            <path d="M9.16009605,18.4031808 C9.03925387,18.0418338 8.6487273,17.847013 8.28767444,17.967855 C7.92632685,18.0886969 7.73150567,18.4795176 7.85234785,18.8405698 C7.97319003,19.201622 8.3637166,19.3964429 8.72476946,19.2756009 C9.08611705,19.1550537 9.28093823,18.764233 9.16009605,18.4031808" id="Fill-105" fill="#FFEC00"></path>
                                            <g id="Group-115" transform="translate(7.356732, 17.472240)">
                                                <mask id="mask-83" fill="white">
                                                    <use xlink:href="#path-82"></use>
                                                </mask>
                                                <g id="Clip-114"></g>
                                                <path d="M0.210452589,0.0453623309 C0.0741915663,0.124127833 -0.0187136765,0.280009297 0.00320243207,0.393002739 L0.00320243207,0.393002739 C0.0251185406,0.505996182 0.153280132,0.53403835 0.289541155,0.455272848 L0.289541155,0.455272848 C0.426040396,0.376094962 0.51870742,0.220213497 0.496791312,0.107220055 L0.496791312,0.107220055 C0.483212853,0.0375270192 0.429613675,0 0.35862454,0 L0.35862454,0 C0.314077668,0 0.262860675,0.0148458537 0.210452589,0.0453623309" id="Fill-113" mask="url(#mask-83)"></path>
                                            </g>
                                            <path d="M2.26315933,10.586469 C2.14231715,10.2254487 1.75179059,10.0306451 1.39073773,10.1511816 C1.02939013,10.2723076 0.834568954,10.662799 0.955411136,11.0238193 C1.07625332,11.3848397 1.46677988,11.579938 1.82783274,11.4591067 C2.18918034,11.3382754 2.38400151,10.947784 2.26315933,10.586469" id="Fill-116" fill="#FFEC00"></path>
                                            <g id="Group-126" transform="translate(1.379387, 9.655711)">
                                                <mask id="mask-85" fill="white">
                                                    <use xlink:href="#path-84"></use>
                                                </mask>
                                                <g id="Clip-125"></g>
                                                <path d="M0.210379077,0.0449667862 C0.074165651,0.124174336 -0.0187071397,0.279701661 0.00320131345,0.392737435 L0.00320131345,0.392737435 C0.0251097666,0.506598288 0.153226591,0.533825883 0.289440017,0.455030873 L0.289440017,0.455030873 C0.425891579,0.376235862 0.518526234,0.220295998 0.496855916,0.106847685 L0.496855916,0.106847685 C0.483282201,0.037128539 0.429701745,0 0.358499272,0 L0.358499272,0 C0.314206095,0 0.262768857,0.0144388763 0.210379077,0.0449667862" id="Fill-124" mask="url(#mask-85)"></path>
                                            </g>
                                        </g>
                                    </g>
                                </g>
                            </g>
                        </g>
                    </g>
                    <text id="Chemical-Recycling" font-family="Montserrat-Black, Montserrat" font-size="28" font-weight="700" fill="#FFFFFF">
                        <tspan x="57.37" y="90.6494845">Chemical</tspan>
                        <tspan x="53.282" y="124.649485">Recycling</tspan>
                    </text>
                </g>
            </g>
        </g>
    </g>
</svg>