<?xml version="1.0" encoding="UTF-8"?>
<svg width="256px" height="256px" viewBox="0 0 256 256" version="1.1" xmlns="http://www.w3.org/2000/svg" xmlns:xlink="http://www.w3.org/1999/xlink">
    <title>illust/c3/circle_mr</title>
    <defs>
        <linearGradient x1="50%" y1="33.3113097%" x2="50%" y2="100%" id="linearGradient-1">
            <stop stop-color="#3DDB87" stop-opacity="0.35" offset="0%"></stop>
            <stop stop-color="#3DDB87" stop-opacity="0.15" offset="100%"></stop>
        </linearGradient>
        <circle id="path-2" cx="128" cy="128" r="128"></circle>
    </defs>
    <g id="Page-5" stroke="none" stroke-width="1" fill="none" fill-rule="evenodd">
        <g id="ver5_chapter3" transform="translate(-371.000000, -3184.000000)">
            <g id="Group-70" transform="translate(182.000000, 2654.000000)">
                <g id="illust/c3/circle_mr" transform="translate(189.000000, 530.000000)">
                    <g id="Group-33">
                        <circle id="Oval" stroke="#FAFAFA" stroke-width="4" fill="url(#linearGradient-1)" cx="128" cy="128" r="126"></circle>
                        <g id="illust_MR">
                            <mask id="mask-3" fill="white">
                                <use xlink:href="#path-2"></use>
                            </mask>
                            <g id="Mask"></g>
                            <g mask="url(#mask-3)">
                                <g transform="translate(22.872852, 110.845361)">
                                    <rect id="Rectangle-Copy" x="0" y="0" width="211.134021" height="211.134021"></rect>
                                    <g id="Group-7" stroke-width="1" fill-rule="evenodd" transform="translate(67.738832, 20.233677)">
                                        <polygon id="Fill-4" fill="#3CD885" points="64.0526216 145.278772 57.5545295 141.586312 57.5545295 6.49809205 64.0526216 10.1905519"></polygon>
                                        <polygon id="Fill-5" fill="#3CD885" points="69.3060123 0 58.018679 6.53404916 64.3729284 10.2112875 75.6563574 3.67723834"></polygon>
                                        <polygon id="Fill-6" fill="#175940" points="75.6563574 139.165665 64.0526216 145.742922 64.0526216 10.290452 75.6563574 3.71319545"></polygon>
                                        <path d="M71.8004537,28.8874174 L68.1790587,30.9762893 C67.3327544,31.4660531 66.6458703,30.9467855 66.6458703,29.8177718 L66.6458703,17.2707716 C66.6458703,16.141758 67.3327544,14.8298205 68.1790587,14.3400568 L71.8004537,12.2511848 C72.6487261,11.763388 73.3356102,12.2826556 73.3356102,13.4116692 L73.3356102,25.9586694 C73.3356102,27.0876831 72.6487261,28.3976536 71.8004537,28.8874174" id="Fill-7" fill="#32B472"></path>
                                        <path d="M71.8004537,53.5412205 L68.1790587,55.6300924 C67.3327544,56.1198562 66.6458703,55.6005886 66.6458703,54.4715749 L66.6458703,41.9245747 C66.6458703,40.7955611 67.3327544,39.4855905 68.1790587,38.9938598 L71.8004537,36.9049879 C72.6487261,36.417191 73.3356102,36.9364586 73.3356102,38.0654723 L73.3356102,50.6124725 C73.3356102,51.7414861 72.6487261,53.0534236 71.8004537,53.5412205" id="Fill-9" fill="#32B472"></path>
                                        <path d="M71.8004537,78.1948268 L68.1790587,80.2836988 C67.3327544,80.7734626 66.6458703,80.254195 66.6458703,79.1251813 L66.6458703,66.5781811 C66.6458703,65.4511344 67.3327544,64.1391969 68.1790587,63.6474662 L71.8004537,61.5605612 C72.6487261,61.0707974 73.3356102,61.590065 73.3356102,62.7190787 L73.3356102,75.2660789 C73.3356102,76.3950925 72.6487261,77.70703 71.8004537,78.1948268" id="Fill-11" fill="#32B472"></path>
                                        <polygon id="Fill-13" fill="#175940" points="63.2456953 28.357135 35.349145 44.4524638 35.349145 39.5135208 63.2456953 23.418192"></polygon>
                                        <polygon id="Fill-15" fill="#3CD885" points="31.0699945 37.0393287 58.9645766 20.9459668 63.2453016 23.4144548 35.3507195 39.5097837"></polygon>
                                        <path d="M48.8333305,104.168238 L48.8333305,149.853953 C48.8333305,152.49553 47.0797093,155.166611 43.5744352,157.20631 C36.5323964,161.254237 25.1250022,161.254237 18.0849317,157.20631 C14.5501352,155.166611 12.7965141,152.49553 12.7965141,149.853953 L12.7965141,104.168238 L48.8333305,104.168238 Z" id="Fill-21" fill="#32B472"></path>
                                        <path d="M43.5602645,111.521186 C36.5241302,115.578947 25.1147679,115.578947 18.0786336,111.521186 C11.0424993,107.461457 11.0424993,100.878167 18.0786336,96.8164712 C25.1147679,92.7587096 36.5241302,92.7587096 43.5602645,96.8164712 C50.5963988,100.878167 50.5963988,107.461457 43.5602645,111.521186" id="Fill-23" fill="#69C3FA"></path>
                                        <polygon id="Fill-25" fill="#5D7280" points="30.8172841 118.232523 4.22141449e-13 100.451541 30.8172841 82.6705595 61.6345681 100.453508"></polygon>
                                        <polygon id="Fill-27" fill="#3B4951" points="30.8172841 115.241817 5.1860738 100.450558 30.8172841 85.6632325 56.4484943 100.452525"></polygon>
                                        <polygon id="Fill-29" fill="#020F18" points="30.8172841 113.467062 8.26032324 100.451935 30.8172841 87.4387737 53.3742449 100.453901"></polygon>
                                        <polygon id="Fill-31" fill="#3B4951" points="30.8172841 124.513694 0 106.732712 0 100.434626 30.8172841 118.215607"></polygon>
                                        <polygon id="Fill-33" fill="#5D7280" points="8.89761003 110.059369 6.56928923 108.71596 6.56928923 106.031111 8.89761003 107.374519"></polygon>
                                        <polygon id="Fill-35" fill="#5D7280" points="16.572212 114.488879 14.2438912 113.14547 14.2438912 110.460621 16.572212 111.804029"></polygon>
                                        <polygon id="Fill-37" fill="#5D7280" points="24.2468139 118.916422 21.9204613 117.573014 21.9204613 114.888164 24.2468139 116.231572"></polygon>
                                        <polygon id="Fill-39" fill="#2C353B" points="30.8172841 124.513694 61.6345681 106.732712 61.6345681 100.434626 30.8172841 118.215607"></polygon>
                                        <polygon id="Fill-41" fill="#3B4951" points="52.7369581 110.059369 55.0652789 108.71596 55.0652789 106.031111 52.7369581 107.374519"></polygon>
                                        <polygon id="Fill-43" fill="#3B4951" points="45.0623561 114.488879 47.3906769 113.14547 47.3906769 110.460621 45.0623561 111.804029"></polygon>
                                        <polygon id="Fill-45" fill="#3B4951" points="37.3877542 118.916422 39.7141068 117.573014 39.7141068 114.888164 37.3877542 116.231572"></polygon>
                                        <polygon id="Fill-47" fill="#F3AE00" points="30.8172841 91.158618 2.60779802 74.8823322 2.60779802 71.0547006 30.8172841 87.3309863"></polygon>
                                        <polygon id="Fill-49" fill="#F08700" points="30.8172841 91.158618 59.0267701 74.8823322 59.0267701 71.0547006 30.8172841 87.3309863"></polygon>
                                        <polygon id="Fill-51" fill="#F6D13A" points="59.0267701 71.0590278 30.8172841 54.784709 2.60779802 71.0590278 30.8172841 87.3353135"></polygon>
                                        <polygon id="Fill-53" fill="#F3AE00" points="30.8172841 78.9823827 14.7001082 69.682772 14.7001082 63.8390445 30.8172841 73.1386552"></polygon>
                                        <polygon id="Fill-55" fill="#F08700" points="30.8172841 78.9823827 46.9344599 69.682772 46.9344599 63.8390445 30.8172841 73.1386552"></polygon>
                                        <polygon id="Fill-57" fill="#F6D13A" points="46.9352472 63.8425849 30.8180713 54.5410073 14.6989273 63.8425849 30.8180713 73.1421957"></polygon>
                                        <path d="M33.4455508,42.3793273 L33.4455508,65.4001911 L33.4396464,65.4001911 C33.4298056,65.8171787 33.1700099,66.2381002 32.6228644,66.5606755 C31.5088918,67.1959915 29.7119713,67.1959915 28.6078395,66.5606755 C28.0469169,66.242034 27.7753123,65.8211125 27.7753123,65.4001911 L27.7753123,42.3793273 L33.4455508,42.3793273 Z" id="Fill-59" fill="#3B4951"></path>
                                        <path d="M32.6181408,43.5394183 C31.5100727,44.1786682 29.7131522,44.1786682 28.6050841,43.5394183 C27.4970159,42.9001684 27.4970159,41.8616332 28.6050841,41.2223833 C29.7131522,40.5851003 31.5100727,40.5851003 32.6181408,41.2223833 C33.7262089,41.8616332 33.7262089,42.9001684 32.6181408,43.5394183" id="Fill-61" fill="#5D7280"></path>
                                        <path d="M38.5438452,31.3997678 L38.5438452,45.5085047 L38.5261318,45.5085047 C38.5005459,46.6748898 37.7723306,47.8471758 36.2391422,48.7519603 C33.1235616,50.5339923 28.0929716,50.5339923 25.0049451,48.7519603 C23.4323937,47.8629112 22.672688,46.6847245 22.672688,45.5085047 L22.672688,31.3997678 L38.5438452,31.3997678 Z" id="Fill-63" fill="#32B472"></path>
                                        <path d="M36.228711,34.6440102 C33.1269074,36.4339099 28.0982856,36.4339099 24.9945139,34.6440102 C21.8927104,32.8560774 21.8927104,29.9528994 24.9945139,28.1629997 C28.0963175,26.3731 33.1269074,26.3731 36.228711,28.1629997 C39.3305145,29.9528994 39.3305145,32.8560774 36.228711,34.6440102" id="Fill-65" fill="#3CD885"></path>
                                        <path d="M33.4455508,19.8537346 L33.4455508,31.3425304 L33.4396464,31.3425304 C33.4298056,31.759518 33.1700099,32.1784725 32.6228644,32.5010478 C31.5088918,33.1363639 29.7119713,33.1363639 28.6078395,32.5010478 C28.0469169,32.1843733 27.7753123,31.7634518 27.7753123,31.3425304 L27.7753123,19.8537346 L33.4455508,19.8537346 Z" id="Fill-67" fill="#3B4951"></path>
                                        <path d="M32.6181408,21.0140223 C31.5100727,21.6532722 29.7131522,21.6532722 28.6050841,21.0140223 C27.4970159,20.3747724 27.4970159,19.3362372 28.6050841,18.6969873 C29.7131522,18.0577374 31.5100727,18.0577374 32.6181408,18.6969873 C33.7262089,19.3362372 33.7262089,20.3747724 32.6181408,21.0140223" id="Fill-69" fill="#5D7280"></path>
                                    </g>
                                </g>
                            </g>
                        </g>
                    </g>
                    <text id="Mechanical-Recycling" font-family="Montserrat-Black, Montserrat" font-size="28" font-weight="700" fill="#FFFFFF">
                        <tspan x="41.606" y="90.6494845">Mechanical</tspan>
                        <tspan x="53.282" y="124.649485">Recycling</tspan>
                    </text>
                </g>
            </g>
        </g>
    </g>
</svg>