<?xml version="1.0" encoding="UTF-8"?>
<svg width="256px" height="256px" viewBox="0 0 256 256" version="1.1" xmlns="http://www.w3.org/2000/svg" xmlns:xlink="http://www.w3.org/1999/xlink">
    <title>illust/c3/circle_tr</title>
    <defs>
        <linearGradient x1="50%" y1="10.9023045%" x2="50%" y2="91.8106768%" id="linearGradient-1">
            <stop stop-color="#ED8243" stop-opacity="0.3" offset="0%"></stop>
            <stop stop-color="#D64B20" stop-opacity="0.15" offset="100%"></stop>
        </linearGradient>
        <circle id="path-2" cx="128" cy="128" r="128"></circle>
        <path d="M7.17317735,4.14532145 C2.96253134,6.58374583 0.60020836,9.6810636 0.101784171,12.8613916 L0.101784171,12.8613916 C-0.536821821,16.8977621 1.83069308,21.0638361 7.17317735,24.1507776 L7.17317735,24.1507776 C16.7574592,29.6709554 32.2812959,29.6709554 41.8551938,24.1507776 L41.8551938,24.1507776 C47.2132539,21.0638361 49.5703849,16.8977621 48.9369708,12.8613916 L48.9369708,12.8613916 C48.4385467,9.6810636 46.0762237,6.58374583 41.8551938,4.14532145 L41.8551938,4.14532145 C37.0682448,1.38523257 30.7964071,0 24.5193775,0 L24.5193775,0 C18.2423479,0 11.9653183,1.38523257 7.17317735,4.14532145" id="path-4"></path>
        <path d="M6.61633685,4.12051157 C2.86639328,6.35644808 0.552816613,9.28446017 0.0859973736,12.3455637 L0.0859973736,12.3455637 C-0.493679265,16.2265107 1.87632611,20.0755157 6.61633685,22.9130256 L6.61633685,22.9130256 C11.0434248,25.5642074 16.9581785,27.0335371 23.2576733,27.0335371 L23.2576733,27.0335371 C29.5674278,27.0335371 35.4821815,25.5642074 39.9092694,22.9130256 L39.9092694,22.9130256 C44.6390204,20.0755157 47.0244154,16.2265107 46.434479,12.356211 L46.434479,12.356211 C45.9676598,9.28446017 43.6540831,6.35644808 39.9092694,4.12051157 L39.9092694,4.12051157 C35.4821815,1.45868239 29.5622979,0 23.2576733,0 L23.2576733,0 C16.9581785,0 11.0434248,1.45868239 6.61633685,4.12051157" id="path-6"></path>
        <path d="M54.2656768,6.95715697 C49.5243331,9.7171924 43.3122471,11.0972101 37.0898763,11.0972101 L37.0898763,11.0972101 C30.8777904,11.0972101 24.6657045,9.7171924 19.9140758,6.95715697 L19.9140758,6.95715697 C16.5200554,4.97013899 14.3499393,2.55251397 13.3883002,0 L13.3883002,0 C16.1035165,28.3629957 9.63945029,53.5353489 0.151620392,77.6545306 L0.151620392,77.6545306 C-0.804876281,83.817918 2.76398765,90.1680747 10.8633546,94.889188 L10.8633546,94.889188 C18.1142165,99.1070617 27.6020464,101.218593 37.0898763,101.218593 L37.0898763,101.218593 C46.5828487,101.218593 56.075821,99.1070617 63.3266829,94.889188 L63.3266829,94.889188 C71.4260499,90.1680747 74.9897714,83.817918 74.0332747,77.6545306 L74.0332747,77.6545306 C64.5403023,53.5353489 58.086521,28.3629957 60.8017374,0 L60.8017374,0 C59.8452407,2.55251397 57.6699821,4.97013899 54.2656768,6.95715697" id="path-8"></path>
        <linearGradient x1="0.00298382835%" y1="50.0007673%" x2="100.000124%" y2="50.0007673%" id="linearGradient-10">
            <stop stop-color="#020F18" offset="0%"></stop>
            <stop stop-color="#F33A21" offset="100%"></stop>
        </linearGradient>
        <path d="M8.18477929,4.60591272 C3.38032422,7.31527314 0.684853129,10.7567373 0.116138349,14.2904351 L0.116138349,14.2904351 C-0.612527462,18.7752913 2.08886774,23.4042624 8.18477929,26.8341974 L8.18477929,26.8341974 C19.1206906,32.9677282 36.8337863,32.9677282 47.7578494,26.8341974 L47.7578494,26.8341974 C53.8715333,23.4042624 56.5610802,18.7752913 55.8383385,14.2904351 L55.8383385,14.2904351 C55.2696238,10.7567373 52.5741527,7.31527314 47.7578494,4.60591272 L47.7578494,4.60591272 C42.2958178,1.5391473 35.1394902,0 27.9772384,0 L27.9772384,0 C20.8149867,0 13.6527349,1.5391473 8.18477929,4.60591272" id="path-11"></path>
        <path d="M7.59984638,4.59964082 C3.29247877,7.09556995 0.634992056,10.3640486 0.098780767,13.7810944 L0.098780767,13.7810944 C-0.56706402,18.1133142 2.15523945,22.4098779 7.59984638,25.5773309 L7.59984638,25.5773309 C12.685015,28.5367897 19.4789888,30.1769717 26.714895,30.1769717 L26.714895,30.1769717 C33.962586,30.1769717 40.7565598,28.5367897 45.8417284,25.5773309 L45.8417284,25.5773309 C51.2745505,22.4098779 54.0145312,18.1133142 53.3369016,13.7929798 L53.3369016,13.7929798 C52.8006903,10.3640486 50.1432036,7.09556995 45.8417284,4.59964082 L45.8417284,4.59964082 C40.7565598,1.62829662 33.9566936,0 26.714895,0 L26.714895,0 C19.4789888,0 12.685015,1.62829662 7.59984638,4.59964082" id="path-13"></path>
        <path d="M62.5434919,7.95103654 C57.0788923,11.1053627 49.9192001,12.6825258 42.7476541,12.6825258 L42.7476541,12.6825258 C35.5879618,12.6825258 28.4282696,11.1053627 22.9518162,7.95103654 L22.9518162,7.95103654 C19.0400638,5.68015884 16.5389131,2.91715882 15.4305832,0 L15.4305832,0 C18.5599851,32.4148522 11.1098749,61.1832558 0.174748926,88.748035 L0.174748926,88.748035 C-0.927654019,95.7919063 3.18561288,103.049228 12.5204765,108.444786 L12.5204765,108.444786 C20.8774021,113.265213 31.8125281,115.678391 42.7476541,115.678391 L42.7476541,115.678391 C53.6887069,115.678391 64.6297598,113.265213 72.9866854,108.444786 L72.9866854,108.444786 C82.321549,103.049228 86.428889,95.7919063 85.3264861,88.748035 L85.3264861,88.748035 C74.3854332,61.1832558 66.9471768,32.4148522 70.0765787,0 L70.0765787,0 C68.9741757,2.91715882 66.4670981,5.68015884 62.5434919,7.95103654" id="path-15"></path>
        <linearGradient x1="0.00298382835%" y1="50.0007673%" x2="100.000124%" y2="50.0007673%" id="linearGradient-17">
            <stop stop-color="#020F18" offset="0%"></stop>
            <stop stop-color="#F33A21" offset="100%"></stop>
        </linearGradient>
        <polygon id="path-18" points="0.452702256 0.452842005 1.35810677 0.452842005 1.35810677 1.35852601 0.452702256 1.35852601"></polygon>
        <polygon id="path-20" points="0.452702256 0.452842005 1.35810677 0.452842005 1.35810677 1.35852601 0.452702256 1.35852601"></polygon>
        <polygon id="path-22" points="0.452703667 0.453845879 1.358111 0.453845879 1.358111 1.36153764 0.452703667 1.36153764"></polygon>
        <polygon id="path-24" points="0.452703667 0.453845879 1.358111 0.453845879 1.358111 1.36153764 0.452703667 1.36153764"></polygon>
    </defs>
    <g id="Page-5" stroke="none" stroke-width="1" fill="none" fill-rule="evenodd">
        <g id="ver5_chapter3" transform="translate(-1106.000000, -3184.000000)">
            <g id="Group-70" transform="translate(182.000000, 2654.000000)">
                <g id="illust/c3/circle_tr" transform="translate(924.000000, 530.000000)">
                    <g id="Group-29">
                        <circle id="Oval-Copy-2" stroke="#FFFFFF" stroke-width="4" fill="url(#linearGradient-1)" cx="128" cy="128" r="126"></circle>
                        <g id="illust_thermal">
                            <mask id="mask-3" fill="white">
                                <use xlink:href="#path-2"></use>
                            </mask>
                            <g id="Mask"></g>
                            <g mask="url(#mask-3)">
                                <g transform="translate(22.872852, 112.604811)">
                                    <rect id="Rectangle-Copy-2" x="0" y="0" width="211.134021" height="211.134021"></rect>
                                    <g id="Group-17" stroke-width="1" fill-rule="evenodd" transform="translate(42.226804, 27.271478)">
                                        <g id="Group-11-Copy">
                                            <g id="Group-12" transform="translate(11.787880, 0.000000)">
                                                <mask id="mask-5" fill="white">
                                                    <use xlink:href="#path-4"></use>
                                                </mask>
                                                <g id="Clip-11"></g>
                                                <path d="M7.17317735,4.14532145 C2.96253134,6.58374583 0.60020836,9.6810636 0.101784171,12.8613916 L0.101784171,12.8613916 C-0.536821821,16.8977621 1.83069308,21.0638361 7.17317735,24.1507776 L7.17317735,24.1507776 C16.7574592,29.6709554 32.2812959,29.6709554 41.8551938,24.1507776 L41.8551938,24.1507776 C47.2132539,21.0638361 49.5703849,16.8977621 48.9369708,12.8613916 L48.9369708,12.8613916 C48.4385467,9.6810636 46.0762237,6.58374583 41.8551938,4.14532145 L41.8551938,4.14532145 C37.0682448,1.38523257 30.7964071,0 24.5193775,0 L24.5193775,0 C18.2423479,0 11.9653183,1.38523257 7.17317735,4.14532145" id="Fill-10" fill="#020F18" mask="url(#mask-5)"></path>
                                            </g>
                                            <g id="Group-15" transform="translate(13.045253, 0.000000)">
                                                <mask id="mask-7" fill="white">
                                                    <use xlink:href="#path-6"></use>
                                                </mask>
                                                <g id="Clip-14"></g>
                                                <path d="M6.61633685,4.12051157 C2.86639328,6.35644808 0.552816613,9.28446017 0.0859973736,12.3455637 L0.0859973736,12.3455637 C-0.493679265,16.2265107 1.87632611,20.0755157 6.61633685,22.9130256 L6.61633685,22.9130256 C11.0434248,25.5642074 16.9581785,27.0335371 23.2576733,27.0335371 L23.2576733,27.0335371 C29.5674278,27.0335371 35.4821815,25.5642074 39.9092694,22.9130256 L39.9092694,22.9130256 C44.6390204,20.0755157 47.0244154,16.2265107 46.434479,12.356211 L46.434479,12.356211 C45.9676598,9.28446017 43.6540831,6.35644808 39.9092694,4.12051157 L39.9092694,4.12051157 C35.4821815,1.45868239 29.5622979,0 23.2576733,0 L23.2576733,0 C16.9581785,0 11.0434248,1.45868239 6.61633685,4.12051157" id="Fill-13" fill="#36191A" mask="url(#mask-7)"></path>
                                            </g>
                                            <g id="Group-18" transform="translate(-0.157172, 16.974547)">
                                                <mask id="mask-9" fill="white">
                                                    <use xlink:href="#path-8"></use>
                                                </mask>
                                                <g id="Clip-17"></g>
                                                <path d="M54.2656768,6.95715697 C49.5243331,9.7171924 43.3122471,11.0972101 37.0898763,11.0972101 L37.0898763,11.0972101 C30.8777904,11.0972101 24.6657045,9.7171924 19.9140758,6.95715697 L19.9140758,6.95715697 C16.5200554,4.97013899 14.3499393,2.55251397 13.3883002,0 L13.3883002,0 C16.1035165,28.3629957 9.63945029,53.5353489 0.151620392,77.6545306 L0.151620392,77.6545306 C-0.804876281,83.817918 2.76398765,90.1680747 10.8633546,94.889188 L10.8633546,94.889188 C18.1142165,99.1070617 27.6020464,101.218593 37.0898763,101.218593 L37.0898763,101.218593 C46.5828487,101.218593 56.075821,99.1070617 63.3266829,94.889188 L63.3266829,94.889188 C71.4260499,90.1680747 74.9897714,83.817918 74.0332747,77.6545306 L74.0332747,77.6545306 C64.5403023,53.5353489 58.086521,28.3629957 60.8017374,0 L60.8017374,0 C59.8452407,2.55251397 57.6699821,4.97013899 54.2656768,6.95715697" id="Fill-16" fill="url(#linearGradient-10)" mask="url(#mask-9)"></path>
                                            </g>
                                        </g>
                                        <g id="Group-11" transform="translate(41.414750, 20.707375)">
                                            <g id="Group-12" transform="translate(14.381213, 0.039293)">
                                                <mask id="mask-12" fill="white">
                                                    <use xlink:href="#path-11"></use>
                                                </mask>
                                                <g id="Clip-11"></g>
                                                <path d="M8.18477929,4.60591272 C3.38032422,7.31527314 0.684853129,10.7567373 0.116138349,14.2904351 L0.116138349,14.2904351 C-0.612527462,18.7752913 2.08886774,23.4042624 8.18477929,26.8341974 L8.18477929,26.8341974 C19.1206906,32.9677282 36.8337863,32.9677282 47.7578494,26.8341974 L47.7578494,26.8341974 C53.8715333,23.4042624 56.5610802,18.7752913 55.8383385,14.2904351 L55.8383385,14.2904351 C55.2696238,10.7567373 52.5741527,7.31527314 47.7578494,4.60591272 L47.7578494,4.60591272 C42.2958178,1.5391473 35.1394902,0 27.9772384,0 L27.9772384,0 C20.8149867,0 13.6527349,1.5391473 8.18477929,4.60591272" id="Fill-10" fill="#020F18" mask="url(#mask-12)"></path>
                                            </g>
                                            <g id="Group-15" transform="translate(15.638587, 0.039293)">
                                                <mask id="mask-14" fill="white">
                                                    <use xlink:href="#path-13"></use>
                                                </mask>
                                                <g id="Clip-14"></g>
                                                <path d="M7.59984638,4.59964082 C3.29247877,7.09556995 0.634992056,10.3640486 0.098780767,13.7810944 L0.098780767,13.7810944 C-0.56706402,18.1133142 2.15523945,22.4098779 7.59984638,25.5773309 L7.59984638,25.5773309 C12.685015,28.5367897 19.4789888,30.1769717 26.714895,30.1769717 L26.714895,30.1769717 C33.962586,30.1769717 40.7565598,28.5367897 45.8417284,25.5773309 L45.8417284,25.5773309 C51.2745505,22.4098779 54.0145312,18.1133142 53.3369016,13.7929798 L53.3369016,13.7929798 C52.8006903,10.3640486 50.1432036,7.09556995 45.8417284,4.59964082 L45.8417284,4.59964082 C40.7565598,1.62829662 33.9566936,0 26.714895,0 L26.714895,0 C19.4789888,0 12.685015,1.62829662 7.59984638,4.59964082" id="Fill-13" fill="#36191A" mask="url(#mask-14)"></path>
                                            </g>
                                            <g id="Group-18" transform="translate(-0.078586, 19.528587)">
                                                <mask id="mask-16" fill="white">
                                                    <use xlink:href="#path-15"></use>
                                                </mask>
                                                <g id="Clip-17"></g>
                                                <path d="M62.5434919,7.95103654 C57.0788923,11.1053627 49.9192001,12.6825258 42.7476541,12.6825258 L42.7476541,12.6825258 C35.5879618,12.6825258 28.4282696,11.1053627 22.9518162,7.95103654 L22.9518162,7.95103654 C19.0400638,5.68015884 16.5389131,2.91715882 15.4305832,0 L15.4305832,0 C18.5599851,32.4148522 11.1098749,61.1832558 0.174748926,88.748035 L0.174748926,88.748035 C-0.927654019,95.7919063 3.18561288,103.049228 12.5204765,108.444786 L12.5204765,108.444786 C20.8774021,113.265213 31.8125281,115.678391 42.7476541,115.678391 L42.7476541,115.678391 C53.6887069,115.678391 64.6297598,113.265213 72.9866854,108.444786 L72.9866854,108.444786 C82.321549,103.049228 86.428889,95.7919063 85.3264861,88.748035 L85.3264861,88.748035 C74.3854332,61.1832558 66.9471768,32.4148522 70.0765787,0 L70.0765787,0 C68.9741757,2.91715882 66.4670981,5.68015884 62.5434919,7.95103654" id="Fill-16" fill="url(#linearGradient-17)" mask="url(#mask-16)"></path>
                                            </g>
                                        </g>
                                    </g>
                                </g>
                            </g>
                        </g>
                        <g id="Group-223" transform="translate(124.920962, 198.765952)">
                            <mask id="mask-19" fill="white">
                                <use xlink:href="#path-18"></use>
                            </mask>
                            <g id="Clip-222"></g>
                            <path d="" id="Fill-221" fill="#AFD2F9" mask="url(#mask-19)"></path>
                        </g>
                        <g id="Group-235" transform="translate(124.920962, 198.765952)">
                            <mask id="mask-21" fill="white">
                                <use xlink:href="#path-20"></use>
                            </mask>
                            <g id="Clip-234"></g>
                            <path d="" id="Fill-233" fill="#2789F4" mask="url(#mask-21)"></path>
                        </g>
                        <g id="Group-843" transform="translate(124.920962, 198.761936)">
                            <mask id="mask-23" fill="white">
                                <use xlink:href="#path-22"></use>
                            </mask>
                            <g id="Clip-842"></g>
                            <path d="" id="Fill-841" fill="#AFD2F9" mask="url(#mask-23)"></path>
                        </g>
                        <g id="Group-855" transform="translate(124.920962, 198.761936)">
                            <mask id="mask-25" fill="white">
                                <use xlink:href="#path-24"></use>
                            </mask>
                            <g id="Clip-854"></g>
                            <path d="" id="Fill-853" fill="#2789F4" mask="url(#mask-25)"></path>
                        </g>
                    </g>
                    <text id="Thermal-Recycling" font-family="Montserrat-Black, Montserrat" font-size="28" font-weight="700" fill="#FFFFFF">
                        <tspan x="65.42" y="90.6494845">Thermal</tspan>
                        <tspan x="53.282" y="124.649485">Recycling</tspan>
                    </text>
                </g>
            </g>
        </g>
    </g>
</svg>