<?xml version="1.0" encoding="UTF-8"?>
<svg width="1200px" height="513px" viewBox="0 0 1200 513" version="1.1" xmlns="http://www.w3.org/2000/svg" xmlns:xlink="http://www.w3.org/1999/xlink">
    <title>illust_circular_loop</title>
    <g id="Page-1" stroke="none" stroke-width="1" fill="none" fill-rule="evenodd">
        <g id="Chapter3" transform="translate(-363.000000, -13269.000000)" fill="#3CDC87" fill-rule="nonzero">
            <g id="Group-10" transform="translate(0.000000, 12920.000000)">
                <g id="Group-9" transform="translate(306.000000, 75.000000)">
                    <g id="Group-8" transform="translate(0.000000, 192.000000)">
                        <g id="illust_circular_loop" transform="translate(58.000000, 90.000000)">
                            <path id="Stroke-1" d="M259.681436,-7.37935508 L260.62278,-5.61473884 L251.842,-0.931 L260.015888,-0.748404414 C322.044181,2.02869784 379.777653,27.7907595 423.280105,70.8506293 L424.593994,72.1607627 L512.148233,160.101575 L599.708663,248.048605 L598.291337,249.4597 L510.730907,161.51267 L423.176637,73.5718251 C380.309126,30.5110785 323.230108,4.55473106 261.81132,1.34077106 L259.948826,1.25034539 L251.797,1.068 L260.360191,6.13917724 L259.340979,7.85999347 L247.494734,0.843656831 L245.96512,-0.062308705 L247.533668,-0.8990594 L259.681436,-7.37935508 Z"></path>
                            <path id="Stroke-3" d="M512.419265,335.341107 L511.937225,337.052285 L508.204019,350.304669 L506.278944,349.762374 L508.977,340.183 L503.183675,345.959615 L423.257061,425.634643 C377.215778,471.529919 315.118456,497.976025 248.775791,498.500358 L246.76412,498.508306 L246.76412,496.508306 C312.662166,496.508306 374.462023,470.730288 420.456175,425.591942 L421.845087,424.218193 L501.771692,344.543174 L507.565,338.767 L497.978711,341.435932 L497.442488,339.509156 L510.706575,335.81775 L512.419265,335.341107 Z"></path>
                            <path id="Stroke-5" d="M248.754153,-0.0049833887 L248.754153,1.99501661 C111.923217,1.99501661 1,112.696387 1,249.251661 C1,380.329996 103.43832,488.234695 233.606001,496.05439 L237.558887,496.260636 L245.709,496.44 L237.146644,491.37191 L238.165443,489.650849 L250.013369,496.664347 L251.543201,497.569946 L249.974853,498.407073 L237.828639,504.890279 L236.886871,503.125888 L245.663,498.44 L237.492544,498.259413 C104.36261,492.363001 -1,382.726166 -1,249.251661 C-1,111.590921 110.819543,-0.0049833887 248.754153,-0.0049833887 Z"></path>
                            <path id="Stroke-7" d="M597.031714,246.777176 L598.74259,247.260288 L611.992633,251.001794 L611.449132,252.92653 L601.873,250.222 L607.64379,256.018768 L687.269093,335.995636 L774.823363,423.936481 C820.324074,469.642297 881.69125,495.978243 947.257711,496.500391 L949.245847,496.508306 L949.245847,498.508306 C883.063317,498.508306 820.991232,472.417801 774.800841,426.737776 L773.406006,425.347543 L685.851767,337.406731 L606.226465,257.429863 L600.455,251.633 L603.117492,261.221545 L601.190381,261.756561 L597.507284,248.490164 L597.031714,246.777176 Z"></path>
                            <path id="Stroke-9" d="M939.315445,-7.38211443 L951.461576,-0.898751149 L953.029912,-0.0616043585 L951.500069,0.843974859 L939.652053,7.85731961 L938.633276,6.13624605 L947.196,1.067 L939.067705,1.24679066 C877.292486,3.98126148 819.795956,29.4364662 776.468502,71.9952234 L775.159897,73.2901122 L687.267453,160.905895 L685.855471,159.489454 L773.747922,71.8736628 C817.134688,28.6244855 874.908557,2.55794235 937.11501,-0.661429666 L939.001401,-0.751987238 L947.153,-0.931 L938.373655,-5.61773597 L939.315445,-7.38211443 Z"></path>
                            <path id="Stroke-11" d="M949.245847,-0.0049833887 C1087.18046,-0.0049833887 1199,111.590921 1199,249.251661 C1199,381.391421 1095.73411,490.16788 964.471452,498.052192 L960.485304,498.260148 L952.336,498.44 L961.113129,503.125888 L960.171361,504.890279 L948.025147,498.407073 L946.456799,497.569946 L947.986631,496.664347 L959.834557,489.650849 L960.853356,491.37191 L952.29,496.44 L960.418961,496.261372 C1092.48177,490.412223 1197,381.65402 1197,249.251661 C1197,114.06194 1088.28415,4.21162942 953.342918,2.02814218 L949.245847,1.99501661 L949.245847,-0.0049833887 Z"></path>
                        </g>
                    </g>
                </g>
            </g>
        </g>
    </g>
</svg>