<?xml version="1.0" encoding="UTF-8"?>
<svg width="76px" height="76px" viewBox="0 0 76 76" version="1.1" xmlns="http://www.w3.org/2000/svg" xmlns:xlink="http://www.w3.org/1999/xlink">
    <title>ic_cr_process</title>
    <g id="Page-1" stroke="none" stroke-width="1" fill="none" fill-rule="evenodd">
        <g id="Chapter3" transform="translate(-301.000000, -17577.000000)">
            <g id="Group-10-Copy-3" transform="translate(0.000000, 17001.000000)">
                <g id="illust_economy_cycle_cr" transform="translate(281.000000, 275.000000)">
                    <g id="ic_cr_process" transform="translate(20.000000, 301.000000)">
                        <rect id="Rectangle" x="0" y="0" width="76" height="76"></rect>
                        <g id="Group-16" transform="translate(7.000000, 6.000000)" fill="#3CDC87" fill-rule="nonzero">
                            <path d="M60.3681816,56 C61.2554873,56 61.9774781,56.7446566 61.9994832,57.6724162 L62,57.7160369 L62,62.2838163 C62,63.2171083 61.2917091,63.9763172 60.4096532,63.9994566 L60.3681816,64 L48.0468427,64 C47.4686875,64 47,63.5070392 47,62.8989411 C47,62.3027666 47.4504877,61.8172584 48.0129626,61.798448 L48.0468427,61.7978823 L59.9062308,61.7977648 L59.9062308,58.2020002 L48.0468427,58.2021177 C47.4800238,58.2021177 47.018422,57.7282991 47.0005379,57.1366937 L47,57.1010589 C47,56.5048843 47.4504877,56.0193761 48.0129626,56.0005657 L48.0468427,56 L60.3681816,56 Z" id="Stroke-1"></path>
                            <path d="M49.7083178,26 C51.4395472,26 52.8462878,27.4215686 52.8742495,29.1860333 L52.8746737,29.2396058 L52.874603,30.764041 L52.9105879,30.7877437 C57.2408761,33.671331 59.9432875,38.5849534 59.9991179,43.9856146 L60,44.1563219 L60,54.9146322 C60,55.5140643 59.5250729,56 58.9392206,56 C58.3648555,56 57.8971083,55.5329338 57.8789861,54.9497592 L57.8784411,54.9146322 L57.8784411,44.1563219 C57.8784411,39.2352569 55.3355913,34.7669663 51.2727664,32.3014662 C50.9617336,32.1127179 50.7668844,31.7754405 50.7538164,31.4074765 L50.7531148,31.3679397 L50.7531148,29.2396058 C50.7531148,28.6611247 50.3038752,28.1899236 49.7428058,28.171307 L49.7083178,28.1707356 L39.0607794,28.1707356 C38.4749271,28.1707356 38,27.6847999 38,27.0853678 C38,26.4976893 38.4564851,26.0190999 39.0264482,26.0005577 L39.0607794,26 L49.7083178,26 Z" id="Stroke-3"></path>
                            <path d="M54.9068914,48 C55.5105986,48 56,48.4477153 56,49 C56,49.5414556 55.5296027,49.9824023 54.942269,49.9994862 L54.9068914,50 L45.0931086,50 C44.4894014,50 44,49.5522847 44,49 C44,48.4585444 44.4703973,48.0175977 45.057731,48.0005138 L45.0931086,48 L54.9068914,48 Z" id="Stroke-5"></path>
                            <path d="M52.9643459,38 C53.5363219,38 54,38.4477153 54,39 C54,39.5414556 53.554327,39.9824023 52.9978639,39.9994862 L52.9643459,40 L45.0356541,40 C44.4636781,40 44,39.5522847 44,39 C44,38.4585444 44.445673,38.0175977 45.0021361,38.0005138 L45.0356541,38 L52.9643459,38 Z" id="Stroke-7"></path>
                            <path d="M47.8806527,31 C48.4988511,31 49,31.4477153 49,32 C49,32.5414556 48.5183114,32.9824023 47.9168794,32.9994862 L47.8806527,33 L44.1193473,33 C43.5011489,33 43,32.5522847 43,32 C43,31.4585444 43.4816886,31.0175977 44.0831206,31.0005138 L44.1193473,31 L47.8806527,31 Z" id="Stroke-9"></path>
                            <path d="M44.2031667,56 L1.79697751,56 C0.804597241,56 0,56.8191679 0,57.8295194 L0,62.1706274 C0,63.1810196 0.804637133,64 1.79697751,64 L44.2031667,64 C45.195547,64 46,63.1809789 46,62.1706274 L46,57.8295194 C46,56.8192085 45.1955869,56 44.2031667,56 Z M43.8370516,58.2020589 L43.8370516,61.7978235 L2.16294838,61.7978235 L2.16294838,58.2020589 L43.8370516,58.2020589 Z" id="Stroke-11"></path>
                            <path d="M29.897157,14 C31.9830698,14 33.6779649,15.6764472 33.7116542,17.7574516 L33.7121653,17.8206348 L33.7120512,19.9364489 L33.7246682,19.944399 C39.3855415,23.5507227 42.9264609,29.781943 42.9988679,36.638308 L43,36.8527707 L43,53.9279925 C43,54.5200459 42.5207706,55 41.9296112,55 C41.3500432,55 40.8780588,54.5386831 40.8597724,53.9626871 L40.8592225,53.9279925 L40.8592225,36.8527707 C40.8592225,30.4623023 37.4855731,24.65954 32.0957614,21.4581454 C31.7819031,21.2717225 31.5852826,20.9385925 31.5720957,20.5751521 L31.5713878,20.5361014 L31.5713878,17.8206348 C31.5713878,16.9088734 30.8447404,16.1671523 29.939709,16.1445459 L29.897157,16.1440151 L16.1027002,16.1440151 C15.1923991,16.1440151 14.4518555,16.871679 14.429285,17.7780213 L14.4287549,17.8206348 L14.4287549,20.5359584 C14.4287549,20.9144601 14.2294565,21.2649087 13.9043988,21.4579921 C8.56839895,24.6275611 5.2084536,30.3465789 5.14178829,36.6612371 L5.14077753,36.8527707 L5.14077753,53.9279925 C5.14077753,54.5200459 4.66154816,55 4.07038877,55 C3.49082073,55 3.01883634,54.5386831 3.00054998,53.9626871 L3,53.9279925 L3,36.8527707 C3,29.9815226 6.4848002,23.7148827 12.1045057,20.0544067 L12.2878632,19.936306 L12.2879774,17.8206348 C12.2879774,15.7316078 13.9618532,14.0342501 16.0396154,14.0005118 L16.1027002,14 L29.897157,14 Z" id="Stroke-13"></path>
                            <path d="M27.9614466,20 C28.5350238,20 29,20.4477153 29,21 C29,21.5414556 28.5530794,21.9824023 27.9950585,21.9994862 L27.9614466,22 L18.0385534,22 C17.4649762,22 17,21.5522847 17,21 C17,20.4585444 17.4469206,20.0175977 18.0049415,20.0005138 L18.0385534,20 L27.9614466,20 Z" id="Stroke-15"></path>
                            <path d="M38.9811187,6.12108124e-08 C41.1783531,-0.000382025594 42.9639689,1.78807139 42.9994615,4.00806022 L43,4.0754633 L43,27.9317079 C43,28.5217093 42.5284533,29.0000001 41.946771,29.0000001 C41.3764942,29.0000001 40.9120763,28.5402819 40.8940831,27.9662823 L40.893542,27.9317079 L40.893542,4.0754633 C40.893542,3.01943142 40.0610457,2.16055523 39.0254271,2.13707736 L38.9815495,2.13658428 L23.017427,2.14043017 C21.9766315,2.14070186 21.1302609,2.98473959 21.1069514,4.03481877 L21.106458,4.07930915 L21.106458,15.3448055 C21.106458,15.9348069 20.6349114,16.4130976 20.053229,16.4130976 C19.4829522,16.4130976 19.0185344,15.9533795 19.0005412,15.3793798 L19,15.3448055 L19,4.07930915 C19,1.85140078 20.7624896,0.0409572011 22.9504743,0.0044091777 L23.0169058,0.00384603363 L38.9811187,6.12108124e-08 Z" id="Stroke-17"></path>
                            <path d="M44.9821184,7 C47.1790314,7 48.9639824,8.71940609 48.9994617,10.853652 L49,10.9184517 L49,27.972865 C49,28.540136 48.5284505,29 47.9467648,29 C47.3764847,29 46.9120641,28.5579931 46.8940708,28.0061073 L46.8935296,27.972865 L46.8935296,10.9184517 C46.8935296,9.90312926 46.0614247,9.0774899 45.0259885,9.05475133 L44.9821184,9.05427008 L29.0178816,9.05427008 C27.9769255,9.05427008 27.130281,9.86586105 27.1069639,10.8756676 L27.1064704,10.9184517 L27.1064704,15.8659558 C27.1064704,16.4332268 26.6349209,16.8930908 26.0532352,16.8930908 C25.4829551,16.8930908 25.0185345,16.4510839 25.0005412,15.8991981 L25,15.8659558 L25,10.9184517 C25,8.77599772 26.7630796,7.03512811 28.9514389,7.00052496 L29.0178816,7 L44.9821184,7 Z" id="Stroke-19"></path>
                            <path d="M21.5731009,28.5499893 L15.9344443,38.8164686 C14.2635513,41.8591779 14.8778596,45.6555816 17.4219648,48.0088088 C20.2924937,50.6637284 24.7079341,50.6637284 27.5782857,48.0088208 L27.6486559,47.9428665 C30.1366219,45.5776761 30.718746,41.8261651 29.0658308,38.8164897 L23.4271625,28.5499893 C23.0244019,27.8166702 21.9758616,27.8166702 21.5731009,28.5499893 Z M17.7885387,39.8454628 L22.5000329,31.2668586 L27.2117576,39.8455227 C28.3978979,42.005281 27.9801481,44.6974784 26.1987309,46.3910112 L26.1389557,46.4470304 C24.0844728,48.3472731 20.9159087,48.3472731 18.8559664,46.442056 C17.0303001,44.7533649 16.5894608,42.0289933 17.7885387,39.8454628 Z" id="Stroke-21"></path>
                        </g>
                    </g>
                </g>
            </g>
        </g>
    </g>
</svg>