<?xml version="1.0" encoding="UTF-8"?>
<svg width="76px" height="76px" viewBox="0 0 76 76" version="1.1" xmlns="http://www.w3.org/2000/svg" xmlns:xlink="http://www.w3.org/1999/xlink">
    <title>ic_factory2</title>
    <g id="Page-1" stroke="none" stroke-width="1" fill="none" fill-rule="evenodd">
        <g id="ic_factory2">
            <rect id="Rectangle" x="0" y="0" width="76" height="76"></rect>
            <path d="M43.8185739,52.6057055 L49.6364312,52.6057055 L49.6364312,42.9086683 C49.6364312,42.7581197 49.6716577,42.6096538 49.7387566,42.4750371 L51.5759804,38.8009117 L51.5759804,33.2119424 C51.5759804,32.140871 52.4440694,31.2724062 53.5150872,31.2724062 L57.3938377,31.2724062 C58.4649092,31.2724062 59.333374,32.1409139 59.333374,33.2119424 L59.333374,38.8009117 L61.1701683,42.4750371 C61.237687,42.6096538 61.2724947,42.7581089 61.2724947,42.9086683 L61.2724947,52.6057055 L62.2420696,52.6057055 C66.5267421,52.6057055 70,56.0789634 70,60.3632064 C70,64.6474495 66.5267421,68.1207074 62.2420696,68.1207074 L13.7579572,68.1207074 C9.47328475,68.1207074 6.00002684,64.6474495 6.00002684,60.3632064 C6.00002684,56.0789634 9.47328475,52.6057055 13.7579572,52.6057055 L14.7275321,52.6057055 L14.7275321,42.9086683 C14.7275321,42.7581197 14.7623398,42.6096538 14.8298586,42.4750371 L16.6666529,38.8009117 L16.6666529,33.2119424 C16.6666529,32.140871 17.5351606,31.2724062 18.6061892,31.2724062 L22.4849396,31.2724062 C23.5560111,31.2724062 24.4240465,32.1409139 24.4240465,33.2119424 L24.4240465,38.8009117 L26.2612702,42.4750371 C26.3283692,42.6096538 26.3635956,42.7581089 26.3635956,42.9086683 L26.3635956,52.6057055 L32.1814529,52.6057055 L32.1814529,42.9086683 C32.1814529,42.7581197 32.2166793,42.6096538 32.2841981,42.4750371 L34.1209924,38.8009117 L34.1209924,33.2119424 C34.1209924,32.140871 34.9890814,31.2724062 36.0600992,31.2724062 L39.9392791,31.2724062 C41.0103506,31.2724062 41.878386,32.1409139 41.878386,33.2119424 L41.878386,38.8009117 L43.7151803,42.4750371 C43.782699,42.6096538 43.8179255,42.7581089 43.8179255,42.9086683 L43.8185739,52.6057055 Z M34.1215367,52.6057055 L41.8790376,52.6057055 L41.8790376,43.1376637 L40.0422433,39.4635383 C39.9747246,39.3289216 39.9399179,39.1804665 39.9399179,39.0299071 L39.9399179,33.2120498 L36.060738,33.2120498 L36.060738,39.0299071 C36.060738,39.1804557 36.0259303,39.3289216 35.9584126,39.4635383 L34.1216183,43.1376637 L34.1215367,52.6057055 Z M51.5758601,52.6057055 L59.3333611,52.6057055 L59.3333611,43.1376637 L57.4961373,39.4635383 C57.4290383,39.3289216 57.3938119,39.1804665 57.3938119,39.0299071 L57.3938119,33.2120498 L53.5150614,33.2120498 L53.5150614,39.0299071 C53.5150614,39.1804557 53.4802537,39.3289216 53.412736,39.4635383 L51.5759417,43.1376637 L51.5758601,52.6057055 Z M16.6672133,52.6057055 L24.4247142,52.6057055 L24.4247142,43.1376637 L22.5879199,39.4635383 C22.5204012,39.3289216 22.4855945,39.1804665 22.4855945,39.0299071 L22.4855945,33.2120498 L18.606844,33.2120498 L18.606844,39.0299071 C18.606844,39.1804557 18.5716176,39.3289216 18.5045186,39.4635383 L16.6672949,43.1376637 L16.6672133,52.6057055 Z M13.7584457,54.5448123 C10.5447803,54.5448123 7.94015895,57.1499705 7.94015895,60.3630991 C7.94015895,63.576335 10.5448877,66.1809564 13.7584457,66.1809564 L62.2425581,66.1809564 C65.4562235,66.1809564 68.0608449,63.5762277 68.0608449,60.3630991 C68.0608449,57.1498631 65.4561161,54.5448123 62.2425581,54.5448123 L13.7584457,54.5448123 Z M37.9999651,64.2418495 C35.8578436,64.2418495 34.1212146,62.5052206 34.1212146,60.3630991 C34.1212146,58.2209776 35.8578436,56.4843486 37.9999651,56.4843486 C40.1420866,56.4843486 41.8787156,58.2209776 41.8787156,60.3630991 C41.8787156,62.5052206 40.1420866,64.2418495 37.9999651,64.2418495 Z M37.9999651,62.3023133 C39.0710366,62.3023133 39.9395014,61.4342243 39.9395014,60.3632064 C39.9395014,59.292135 39.0709937,58.4236702 37.9999651,58.4236702 C36.9289366,58.4236702 36.0604288,59.2921779 36.0604288,60.3632064 C36.0604288,61.4342779 36.9289366,62.3023133 37.9999651,62.3023133 Z M14.7278917,64.2418495 C12.5857702,64.2418495 10.8491413,62.5052206 10.8491413,60.3630991 C10.8491413,58.2209776 12.5857702,56.4843486 14.7278917,56.4843486 C16.8700133,56.4843486 18.6066422,58.2209776 18.6066422,60.3630991 C18.6066422,62.5052206 16.8700133,64.2418495 14.7278917,64.2418495 Z M14.7278917,62.3023133 C15.7989632,62.3023133 16.6669986,61.4342243 16.6669986,60.3632064 C16.6669986,59.292135 15.7989096,58.4236702 14.7278917,58.4236702 C13.6568203,58.4236702 12.7883555,59.2921779 12.7883555,60.3632064 C12.7883555,61.4342779 13.6568632,62.3023133 14.7278917,62.3023133 Z M26.3644652,64.2418495 C24.2223437,64.2418495 22.4857148,62.5052206 22.4857148,60.3630991 C22.4857148,58.2209776 24.2223437,56.4843486 26.3644652,56.4843486 C28.5065867,56.4843486 30.2432157,58.2209776 30.2432157,60.3630991 C30.2432157,62.5052206 28.5065867,64.2418495 26.3644652,64.2418495 L26.3644652,64.2418495 Z M26.3644652,62.3023133 C27.4355367,62.3023133 28.3035721,61.4342243 28.3035721,60.3632064 C28.3035721,59.292135 27.435483,58.4236702 26.3644652,58.4236702 C25.2933937,58.4236702 24.4249289,59.2921779 24.4249289,60.3632064 C24.4249289,61.4342779 25.2934367,62.3023133 26.3644652,62.3023133 Z M61.2731121,64.2418495 C59.1309905,64.2418495 57.3943616,62.5052206 57.3943616,60.3630991 C57.3943616,58.2209776 59.1309905,56.4843486 61.2731121,56.4843486 C63.4152336,56.4843486 65.1518625,58.2209776 65.1518625,60.3630991 C65.1518625,62.5052206 63.4152336,64.2418495 61.2731121,64.2418495 Z M61.2731121,62.3023133 C62.3441835,62.3023133 63.2126483,61.4342243 63.2126483,60.3632064 C63.2126483,59.292135 62.3441406,58.4236702 61.2731121,58.4236702 C60.2020406,58.4236702 59.3340052,59.2921779 59.3340052,60.3632064 C59.3340052,61.4342779 60.2020942,62.3023133 61.2731121,62.3023133 Z M49.6365386,64.2418495 C47.4944171,64.2418495 45.7577881,62.5052206 45.7577881,60.3630991 C45.7577881,58.2209776 47.4944171,56.4843486 49.6365386,56.4843486 C51.7786601,56.4843486 53.515289,58.2209776 53.515289,60.3630991 C53.515289,62.5052206 51.7786601,64.2418495 49.6365386,64.2418495 Z M49.6365386,62.3023133 C50.7076101,62.3023133 51.5760749,61.4342243 51.5760749,60.3632064 C51.5760749,59.292135 50.7075671,58.4236702 49.6365386,58.4236702 C48.5654671,58.4236702 47.6974317,59.2921779 47.6974317,60.3632064 C47.6974317,61.4342779 48.5655208,62.3023133 49.6365386,62.3023133 Z M51.5760749,17.6970587 C51.1311281,17.6970587 50.7432101,17.3938572 50.6350143,16.9623195 L48.8794903,9.93957921 L6.97000432,9.93957921 C6.43446858,9.93957921 6,9.50511064 6,8.96957489 C6,8.43403914 6.43446858,8 6.97000432,8 L69.0295823,8 C69.5651181,8 69.9995867,8.43404988 69.9995867,8.96957489 C69.9995867,9.5050999 69.5651181,9.93957921 69.0295823,9.93957921 L62.0294947,9.93957921 L60.2736486,16.9623195 C60.1658715,17.3938464 59.7779535,17.6970587 59.3330068,17.6970587 L56.4238097,17.6970587 L56.4238097,22.5453626 C56.4238097,23.0808983 55.9897599,23.5149374 55.4542348,23.5149374 C54.9187098,23.5149374 54.4842305,23.0808876 54.4842305,22.5453626 L54.4842305,17.6970587 L51.5760749,17.6970587 Z M50.8786642,9.93955774 L52.333048,15.757415 L58.5761518,15.757415 L60.030965,9.93955774 L50.8786642,9.93955774 Z" id="Shape" fill="#3CDC87" fill-rule="nonzero"></path>
        </g>
    </g>
</svg>