<?xml version="1.0" encoding="UTF-8"?>
<svg width="76px" height="76px" viewBox="0 0 76 76" version="1.1" xmlns="http://www.w3.org/2000/svg" xmlns:xlink="http://www.w3.org/1999/xlink">
    <title>ic_factory</title>
    <g id="Page-1" stroke="none" stroke-width="1" fill="none" fill-rule="evenodd">
        <g id="ic_factory">
            <rect id="Rectangle" x="0" y="0" width="76" height="76"></rect>
            <path d="M47.559515,35.3581401 C48.9388884,35.3581401 50.0665712,36.4756305 50.0665712,37.854992 L50.0665712,37.854992 L50.0665712,54.3658007 C50.0665712,54.7185138 49.9859216,55.0503793 49.8450191,55.3525811 L49.8450191,55.3525811 L62.7013089,55.3525811 C66.7282139,55.3525811 69.9902666,58.6244859 70,62.6415425 C70,66.6587178 66.7280952,69.9305039 62.7110386,69.9305039 L62.7110386,69.9305039 L13.2889614,69.9305039 C9.27178612,69.9305039 6,66.6585991 6,62.6415425 C6,58.6243672 9.27190478,55.3525811 13.2889614,55.3525811 L13.2889614,55.3525811 L26.1558827,55.3525811 C26.014979,55.0503793 25.9343305,54.718063 25.9343305,54.3658007 L25.9343305,54.3658007 L25.9343305,37.854992 C25.9343305,36.4756305 27.051821,35.3581401 28.4311825,35.3581401 L28.4311825,35.3581401 Z M62.7108725,56.8626408 L13.2887953,56.8626408 C10.0972198,56.8626408 7.50995291,59.4499077 7.50995291,62.6414832 C7.50995291,65.8330587 10.0972198,68.4203256 13.2887953,68.4203256 L13.2887953,68.4203256 L62.7011428,68.4203256 C65.8922437,68.4203256 68.4799815,65.8327027 68.4897149,62.6414832 C68.4897149,59.4499077 65.902448,56.8626408 62.7108725,56.8626408 L62.7108725,56.8626408 Z M13.0478075,59.6205925 C14.7191783,59.6205925 16.0679269,60.98002 16.0679269,62.6407119 C16.0679269,64.3018785 14.7191783,65.6608313 13.0478075,65.6608313 C11.386641,65.6608313 10.0276881,64.3018785 10.0276881,62.6407119 C10.0276881,60.9795454 11.3764366,59.6205925 13.0478075,59.6205925 Z M23.024299,59.6205925 C24.6951952,59.6205925 26.0444184,60.98002 26.0444184,62.6407119 C26.0444184,64.3018785 24.6956698,65.6608313 23.024299,65.6608313 C21.3631325,65.6608313 20.0041796,64.3018785 20.0041796,62.6407119 C20.0041796,60.9795454 21.3529282,59.6205925 23.024299,59.6205925 Z M33.0007905,59.6205925 C34.6721614,59.6205925 36.0213734,60.98002 36.0209101,62.6407119 C36.0209101,64.3018785 34.6721614,65.6608313 33.0007905,65.6608313 C31.339624,65.6608313 29.9806711,64.3018785 29.9806711,62.6407119 C29.9806711,60.9795454 31.3294197,59.6205925 33.0007905,59.6205925 Z M42.9891475,59.6205925 C44.6503141,59.6205925 46.0092669,60.98002 46.0092669,62.6407119 C46.0092669,64.3018785 44.6605184,65.6608313 42.9891475,65.6608313 C41.327981,65.6608313 39.9690281,64.3018785 39.9690281,62.6407119 C39.9690281,60.9795454 41.3177767,59.6205925 42.9891475,59.6205925 Z M52.9656391,59.6205925 C54.6268056,59.6205925 55.9862219,60.98002 55.9857586,62.6407119 C55.9857586,64.3018785 54.6370099,65.6608313 52.9656391,65.6608313 C51.3044725,65.6608313 49.9455197,64.3018785 49.9455197,62.6407119 C49.9455197,60.9795454 51.2942682,59.6205925 52.9656391,59.6205925 Z M62.9421306,59.6205925 C64.6032971,59.6205925 65.9627136,60.98002 65.9622501,62.6407119 C65.9622501,64.3018785 64.6135014,65.6608313 62.9421306,65.6608313 C61.2809641,65.6608313 59.9220112,64.3018785 59.9220112,62.6407119 C59.9220112,60.9795454 61.2707598,59.6205925 62.9421306,59.6205925 Z M13.0478075,61.1310675 C12.2120746,61.1310675 11.5376885,61.8055011 11.5376885,62.6411865 C11.5376885,63.4769194 12.2121221,64.1513056 13.0478075,64.1513056 C13.8835404,64.1513056 14.5579265,63.476872 14.5579265,62.6411865 C14.5579265,61.8054537 13.8834929,61.1310675 13.0478075,61.1310675 Z M23.024299,61.1310675 C22.1885661,61.1310675 21.51418,61.8055011 21.51418,62.6411865 C21.51418,63.4769194 22.1886136,64.1513056 23.024299,64.1513056 C23.8595691,64.1513056 24.534418,63.476872 24.534418,62.6411865 C24.534418,61.8054537 23.8600319,61.1310675 23.024299,61.1310675 Z M33.0007905,61.1310675 C32.1650577,61.1310675 31.4906715,61.8055011 31.4906715,62.6411865 C31.4906715,63.4769194 32.1651051,64.1513056 33.0007905,64.1513056 C33.8365234,64.1513056 34.5109096,63.476872 34.5109096,62.6411865 C34.5109096,61.8054537 33.836476,61.1310675 33.0007905,61.1310675 Z M42.9891475,61.1310675 C42.1534147,61.1310675 41.4790285,61.8055011 41.4790285,62.6411865 C41.4790285,63.4769194 42.1534621,64.1513056 42.9891475,64.1513056 C43.814688,64.1513056 44.4992666,63.476872 44.4992666,62.6411865 C44.4992666,61.8054537 43.824833,61.1310675 42.9891475,61.1310675 Z M52.9656391,61.1310675 C52.1299062,61.1310675 51.45552,61.8055011 51.45552,62.6411865 C51.45552,63.4769194 52.1299537,64.1513056 52.9656391,64.1513056 C53.7916423,64.1513056 54.4762217,63.476872 54.4757583,62.6411865 C54.4757583,61.8054537 53.8013719,61.1310675 52.9656391,61.1310675 Z M62.9421306,61.1310675 C62.1063977,61.1310675 61.4320116,61.8055011 61.4320116,62.6411865 C61.4320116,63.4769194 62.1064452,64.1513056 62.9421306,64.1513056 C63.767671,64.1513056 64.4522496,63.476872 64.4522496,62.6411865 C64.4522496,61.8054537 63.777816,61.1310675 62.9421306,61.1310675 Z M33.4141125,36.8574022 L28.4204086,36.8574022 C27.8767325,36.8574022 27.4336282,37.3005065 27.4336282,37.8441826 L27.4336282,37.8441826 L27.4433817,37.8441866 L27.4433817,54.3549953 C27.4433817,54.8986714 27.886486,55.3417757 28.430162,55.3417757 L28.430162,55.3417757 L47.5691735,55.3422392 C48.1225793,55.3422392 48.5656836,54.8991349 48.5656836,54.3554588 L48.5656836,54.3554588 L48.5656836,37.8446501 C48.5656836,37.300974 48.1128496,36.8578697 47.5691735,36.8578697 L47.5691735,36.8578697 L42.5754696,36.8578697 L42.5754696,42.6367121 C42.5754696,42.8985831 42.4447595,43.1400693 42.2232074,43.2809718 C42.1022389,43.351423 41.9613363,43.3917467 41.8204338,43.3917467 C41.7096578,43.3917467 41.5886845,43.361619 41.4881056,43.3110982 L41.4881056,43.3110982 L37.9947911,41.5896551 L34.5014765,43.3208279 C34.2697319,43.4315992 33.9879269,43.4214068 33.7663747,43.2805043 C33.5448226,43.1396018 33.4141125,42.8981156 33.4141125,42.6362446 L33.4141125,42.6362446 L33.4141125,36.8574022 Z M41.0553124,36.857865 L34.9140272,36.857865 L34.9140272,41.4187163 L37.6523416,40.0694931 C37.7529252,40.0189723 37.8738949,39.9888447 37.9846698,39.9888447 C38.0954459,39.9888447 38.2164191,40.0189723 38.316998,40.0694931 L38.316998,40.0694931 L41.0553124,41.4187163 L41.0553124,36.857865 Z M45.4156609,19.2083266 C45.6270207,18.8458767 46.1002395,18.7351077 46.4525018,18.9464556 L46.4525018,18.9464556 L53.2584197,23.0237888 C53.9531432,22.5403537 54.7985939,22.2483563 55.7047247,22.2483563 C58.0606148,22.2483563 59.9836523,24.1615455 59.9836523,26.5272839 C59.9836523,27.9668034 59.2587905,29.2451659 58.161234,30.0205985 L58.161234,30.0205985 L55.2615492,40.4306545 C55.1707071,40.7629827 54.8791605,40.9845348 54.5366398,40.9845348 L54.5366398,40.9845348 L52.3517312,40.9845348 C52.1403715,40.9845348 51.9387534,40.8941436 51.7978509,40.7430487 C51.6569495,40.5924165 51.5864986,40.3907865 51.5966955,40.1794386 L51.5966955,40.1794386 L52.2414179,29.0239935 C51.8284401,28.4705877 51.5563671,27.8059313 51.4659854,27.0810219 L51.4659854,27.0810219 L44.0157722,24.8358367 C43.6231899,24.7148682 43.3914465,24.3023531 43.512415,23.8995795 C43.633609,23.4975606 44.0461122,23.2760132 44.4590901,23.396519 L44.4590901,23.396519 L51.546813,25.5308806 C51.6677934,25.0173191 51.8791412,24.5440884 52.1609463,24.1213808 L52.1609463,24.1213808 L45.677532,20.2451674 C45.3150821,20.0338077 45.2043131,19.5707813 45.4156609,19.2083266 Z M29.5586992,18.9375209 C29.9211539,18.7261611 30.3841922,18.8471297 30.5955401,19.1993919 C30.8068998,19.5618466 30.6961237,20.0248849 30.333669,20.2362327 L30.333669,20.2362327 L23.8502547,24.1124461 C24.1422641,24.5351656 24.3434195,25.0083963 24.464388,25.5219459 L24.464388,25.5219459 L31.5521109,23.3875843 C31.9446921,23.2666157 32.3673996,23.4881679 32.4883681,23.8909415 C32.6093366,24.2835226 32.3877845,24.7062301 31.9850109,24.8271986 L31.9850109,24.8271986 L24.5347977,27.0723838 C24.4337513,27.7870414 24.1723431,28.4517453 23.7593652,29.0153554 L23.7593652,29.0153554 L24.4036249,40.1703259 C24.4138173,40.3816738 24.343372,40.582841 24.2024695,40.733936 C24.0513627,40.8947737 23.859937,40.9754222 23.6485891,40.9754222 L23.6485891,40.9754222 L21.4636805,40.9754222 C21.1313523,40.9754222 20.8291529,40.7436657 20.7387712,40.4215418 L20.7387712,40.4215418 L17.8394067,30.0113078 C16.7422537,29.236255 16.0173518,27.967717 16.0274425,26.5183492 C16.0274425,24.1624591 17.9505862,22.2394216 20.3064763,22.2394216 C21.2223724,22.2394216 22.0579984,22.5314309 22.7527813,23.0148541 L22.7527813,23.0148541 Z M22.3091075,30.2831636 C21.7051548,30.6057622 21.0307568,30.8069176 20.295655,30.8069176 C20.0639104,30.8069176 19.8326286,30.7767899 19.6110764,30.7364663 L19.6110764,30.7364663 L22.0374474,39.4751515 L22.8425911,39.474754 Z M53.6805339,30.2826119 L53.1470503,39.4742022 L53.9526093,39.4742022 L56.3887693,30.7359146 C56.1570129,30.7762382 55.925731,30.8063658 55.6939864,30.8063658 C54.9592762,30.8063658 54.2844629,30.6047358 53.6805339,30.2826119 L53.6805339,30.2826119 Z M20.2955957,23.7498372 C18.7651867,23.7498372 17.527143,24.9980852 17.527143,26.5182899 C17.527143,28.0384946 18.7651867,29.2867426 20.2955957,29.2867426 C21.8158004,29.2867426 23.0640484,28.0384946 23.0640484,26.5182899 C23.0640484,24.9980852 21.8260047,23.7498372 20.2955957,23.7498372 Z M55.694461,23.7486507 C54.1742564,23.7486507 52.9260084,24.9968987 52.9260084,26.5171033 C52.9260084,28.037308 54.1742564,29.285556 55.694461,29.285556 C57.2146657,29.285556 58.4629137,28.0475123 58.4629137,26.5171033 C58.4629137,24.9866944 57.2146657,23.7486507 55.694461,23.7486507 Z M41.0957492,6 C41.5082643,6 41.850785,6.34205792 41.850785,6.75503578 L41.850785,6.75503578 L41.8512485,14.6080819 C43.0591301,15.6750254 43.8243583,17.2355727 43.8243583,18.9672201 C43.8243583,22.1788483 41.2064785,24.7966094 37.994969,24.7966094 C34.783352,24.7966094 32.1654797,22.1787297 32.1756469,18.9672201 C32.1756469,17.2356913 32.9404064,15.6750491 34.1487864,14.6080819 L34.1487864,14.6080819 L34.1487864,6.75503578 C34.1487864,6.34252067 34.4913071,6 34.9042849,6 C35.3168001,6 35.6593207,6.34205792 35.6593207,6.75503578 L35.6593207,6.75503578 L35.6593207,13.6411643 C36.374097,13.3292328 37.1592354,13.1480114 37.9949209,13.1480114 C38.820402,13.1480114 39.615816,13.3292328 40.330521,13.6411643 L40.330521,13.6411643 L40.330521,6.75503578 C40.330521,6.34252067 40.6832341,6 41.0957492,6 Z M37.994969,14.6581542 C35.6191449,14.6581542 33.6761734,16.5811917 33.6761734,18.9672201 C33.6761734,21.3532485 35.6089406,23.2860158 37.994969,23.2860158 C40.3809974,23.2860158 42.3137647,21.3430442 42.3137647,18.9672201 C42.3137647,16.5909214 40.3707931,14.6581542 37.994969,14.6581542 Z M37.994969,16.1984115 C39.5249034,16.1984115 40.7634217,17.4364552 40.7634217,18.9668642 C40.7634217,20.4967985 39.525378,21.7353168 37.994969,21.7353168 C36.4645601,21.7353168 35.2265164,20.4972732 35.2265164,18.9668642 C35.2265164,17.4369298 36.4645601,16.1984115 37.994969,16.1984115 Z M37.994969,17.7084119 C37.3002455,17.7084119 36.7366354,18.272022 36.7366354,18.9667455 C36.7366354,19.6614691 37.3002455,20.2250792 37.994969,20.2250792 C38.6896926,20.2250792 39.2533027,19.6614691 39.2533027,18.9667455 C39.2533027,18.272022 38.6897519,17.7084119 37.994969,17.7084119 Z" id="Combined-Shape" fill="#3CDC87" fill-rule="nonzero"></path>
        </g>
    </g>
</svg>