<?xml version="1.0" encoding="UTF-8"?>
<svg width="76px" height="76px" viewBox="0 0 76 76" version="1.1" xmlns="http://www.w3.org/2000/svg" xmlns:xlink="http://www.w3.org/1999/xlink">
    <title>ic_mr_use</title>
    <g id="Page-1" stroke="none" stroke-width="1" fill="none" fill-rule="evenodd">
        <g id="Chapter3" transform="translate(-1518.000000, -13490.000000)">
            <g id="ic_mr_use" transform="translate(306.000000, 13187.000000)">
                <g transform="translate(1212.000000, 303.000000)">
                    <rect id="Rectangle" x="0" y="0" width="76" height="76"></rect>
                    <path d="M66.8745229,11.9229779 L62.8853527,10.9476529 L62.8848643,10.9481413 C62.2284629,10.7899048 61.5666853,11.1894094 61.400647,11.844348 L61.1144435,12.9852362 L61.0157882,12.892441 L61.0152998,12.892441 C60.5527931,12.4602163 59.8402288,12.4411619 59.3552919,12.847997 C58.8698299,13.2548284 58.7643306,13.9595784 59.1091351,14.4905009 L60.2812805,16.2980428 L58.727172,22.4792187 L57.3431028,17.5884655 C57.0642259,16.6155911 56.4776656,15.7599187 55.670842,15.1494029 C54.8635308,14.5393997 53.880429,14.2077857 52.8684456,14.2048475 L49.0096804,14.2048475 L49.0096804,13.5406318 C49.6685199,13.2851979 50.1027076,12.6512641 50.1036828,11.9450137 L50.1036828,9.92842354 C50.4069778,9.56750279 50.5730286,9.11084745 50.5720533,8.63912613 C50.5720533,8.15366415 50.4191806,7.68089259 50.1354276,7.2873143 C49.8516747,6.8936735 49.4511823,6.59916807 48.9911262,6.4462953 C48.6472969,6.33201144 48.2873513,6.27340542 47.9249677,6.27340542 C47.2446358,6.27145185 46.5794073,6.47755251 46.018778,6.86387913 C45.7076688,6.45412211 45.2617659,6.16743098 44.7597376,6.05411734 C44.2581594,5.94032109 43.7326507,6.00723152 43.2750201,6.24312344 C42.8178897,6.47852774 42.4579316,6.86778003 42.2591608,7.34250204 C42.0603899,7.81673643 42.0349841,8.34614605 42.1878556,8.83747189 C42.3402407,9.32879772 42.6616024,9.75077006 43.0943147,10.0286592 C43.527027,10.3070484 44.0437587,10.4237753 44.5541514,10.3583227 L44.5541514,10.9365811 L44.5541514,10.9370695 C44.5653844,11.6305919 45.0503659,12.2263669 45.7277596,12.3774017 L45.7277596,14.2049483 L39.850904,14.2049483 C38.9258906,14.2044599 38.0433621,14.5946882 37.4210935,15.2794211 C36.7983874,15.9641541 36.4941172,16.8794152 36.5825251,17.8005027 L37.6657875,29.1278656 C37.7556519,30.0436018 38.0540645,30.9266555 38.5380637,31.709086 L30.9195563,31.709086 L31.4665575,24.0510695 L32.5210007,24.0510695 C32.6660591,24.0510695 32.8052413,23.9934387 32.9078149,23.8908826 C33.0103886,23.7883264 33.0680019,23.6491268 33.0680019,23.5040683 L33.0680019,16.7911448 C33.0670251,16.1054367 32.7945013,15.448085 32.3095269,14.9630982 C31.8245525,14.4781113 31.1671759,14.2055984 30.4814802,14.2051108 L26.1010948,14.1972965 L26.1006064,14.1972965 C25.8798555,14.1977849 25.6605674,14.2397863 25.454945,14.3203724 C25.4227113,14.3076745 25.3914541,14.2930223 25.3582427,14.2822774 C25.2507954,13.7958402 24.9802305,13.3601897 24.5919534,13.0481052 C24.2036763,12.7355331 23.7201648,12.5650812 23.2220124,12.564106 L22.3946716,12.564106 C21.6117785,12.5655712 20.887949,12.9811897 20.4923577,13.6566455 C20.2950497,13.9980368 19.929728,14.20706 19.5355995,14.2051096 L18.6916549,14.2051096 L18.6921432,14.2051096 C17.9732274,14.2026676 17.3373307,14.6705544 17.1259069,15.3577254 C17.0765793,15.5169372 17.0511822,15.6825129 17.0511822,15.8485637 C17.0511822,16.3911638 17.3197942,16.8981183 17.7686352,17.202376 L18.8050118,31.7094724 L9.54700118,31.7094724 C9.24468144,31.7094724 9,31.9541538 9,32.2564735 L9,69.4525537 C9,69.5976122 9.05763079,69.7367943 9.16018695,69.8393679 C9.26274311,69.9419416 9.40194272,70 9.54700118,70 L40.1790672,70 C40.3241257,70 40.4633078,69.9419241 40.5658814,69.8393679 C40.6684551,69.7368118 40.7260684,69.5976122 40.7260684,69.4525537 L40.7260684,66.3175806 L42.7826678,62.760135 C42.8149015,62.7337614 42.8437169,62.7039695 42.8686251,62.6712469 L50.0001452,57.4336638 L52.2634173,67.3373233 L52.2941856,69.4608131 L52.2936971,69.4608131 C52.2980928,69.7597071 52.5418043,70 52.8406983,70 L63.1530771,70 C63.3928824,70 63.6043562,69.8437139 63.6756601,69.6146611 C63.7464777,69.3856083 63.6595427,69.137501 63.4622359,69.0017322 L60.4430395,66.9348805 L57.0608843,52.1164622 C58.7531496,50.3929397 59.5634616,47.9890101 59.2596415,45.5924573 C58.9558589,43.1959045 57.5722522,41.0704142 55.5034,39.8235016 L55.3979069,39.7600107 L56.3961872,38.0486159 C56.6477077,37.6202921 56.7224375,37.1113872 56.6047353,36.6289134 C56.4865443,36.1468647 56.185201,35.7292934 55.7642039,35.4660452 L55.0320975,35.0035385 L55.0623783,34.9737466 L55.0628668,34.9737466 C55.07703,34.9600709 55.0907057,34.9454201 55.1038912,34.9297915 C55.1546842,34.8677659 55.1996158,34.8194147 55.237222,34.778394 C55.4423443,34.5928012 55.5605341,34.3290654 55.5620094,34.0521515 C55.5620094,33.8177224 55.4892389,33.5891572 55.3534613,33.3986758 C55.0589559,32.9840301 54.5251452,32.8160164 54.0460347,32.9859806 L52.7962339,33.4313958 L52.7600931,33.2712089 L52.7600931,31.186728 L53.0599622,26.6861899 L53.0599622,26.6866782 C53.6826684,28.328682 54.9797801,29.624856 56.6227841,30.2451241 C58.2657881,30.8658673 60.0962103,30.7511033 61.6488185,29.9306015 C63.2014266,29.1100998 64.3276864,27.6624533 64.7404066,25.9555596 L67.7792326,13.4089154 C67.9384443,12.7491007 67.5340635,12.08486 66.874724,11.9236978 L66.8745229,11.9229779 Z M48.5515463,9.55968273 C48.5144277,9.56065958 48.4773104,9.56407825 48.4406807,9.57042746 L48.3996562,9.57873013 L48.3996562,9.57824176 C47.9952629,9.65980308 47.6079736,9.80974516 47.2548672,10.0226818 C46.9716018,9.6412438 46.5247237,9.41609186 46.0495141,9.41609186 L46.0294895,9.41609186 C45.9025102,9.41804543 45.7769938,9.43611648 45.6548906,9.4698155 C45.6988457,8.89790858 45.9572103,8.36359783 46.3782074,7.97384542 C46.7992045,7.58410552 47.3520696,7.3672555 47.9254393,7.3672555 C48.1701208,7.3672555 48.4133394,7.40681587 48.645818,7.48398117 C49.1430077,7.64954436 49.4785351,8.11498923 49.4785351,8.63903511 C49.4780467,9.14696478 49.0668151,9.55868475 48.5583978,9.55917236 L48.5515463,9.55968273 Z M43.1880542,8.18774126 C43.1865938,7.69495259 43.5162598,7.26224027 43.991957,7.1323228 C44.4676542,7.00240533 44.9711829,7.20753515 45.2202653,7.63292578 C44.8691093,8.10324677 44.6478708,8.65757464 44.5794925,9.24067164 C44.249829,9.33444327 43.8947596,9.2680217 43.621259,9.06094269 C43.3477584,8.85386367 43.1875589,8.53054534 43.1880542,8.18769125 L43.1880542,8.18774126 Z M45.6496269,10.9198715 C45.6486598,10.8881254 45.6525573,10.8563806 45.6613483,10.825611 C45.6628135,10.8202388 45.6642788,10.8143779 45.6657438,10.8085171 C45.7111643,10.6346519 45.8669653,10.5125488 46.0466942,10.5096231 L46.0520666,10.5096231 C46.2733051,10.5096231 46.4540093,10.686914 46.4579227,10.9081525 C46.4613415,11.1254902 46.5932039,11.3203601 46.7939377,11.404367 C46.9946715,11.4883714 47.2261624,11.4453927 47.3834237,11.2949668 C47.7223644,10.9701793 48.1458121,10.747478 48.6058682,10.6532187 C48.7426247,10.6497999 48.8783935,10.6327065 49.0117243,10.6019369 L49.0117243,11.9449967 L49.0117243,11.9445083 C49.0112359,12.2868748 48.7338227,12.5637887 48.3919563,12.5637887 C48.2727888,12.5637887 48.1546016,12.5506019 48.0388499,12.5242283 C47.7443444,12.4563414 47.4508267,12.6404664 47.3834237,12.9349731 C47.3160256,13.2294785 47.4996618,13.5229962 47.794656,13.5908869 C47.8351929,13.6001663 47.8757298,13.607492 47.9162666,13.6153063 L47.9162666,15.2988196 C47.9162666,15.6011393 47.6715852,15.8458208 47.3692654,15.8458208 C47.0669457,15.8458208 46.8222642,15.6011393 46.8222642,15.2988196 L46.8222642,11.8380213 C46.8222642,11.6680571 46.7431447,11.5078701 46.60884,11.4043212 C46.4740464,11.3007824 46.2991936,11.2656142 46.1350932,11.3090843 C46.110185,11.314945 46.0843003,11.3183637 46.0589044,11.3183637 C45.8357029,11.3212941 45.6520731,11.1430357 45.6486598,10.9198342 L45.6496269,10.9198715 Z M38.2319158,16.0147968 C38.6450986,15.556191 39.234097,15.2953933 39.8514144,15.2987735 L45.7287701,15.2987735 C45.7287701,16.2052657 46.4638022,16.9398101 47.3697737,16.9398101 C48.2762328,16.9398101 49.0107772,16.2052657 49.0107772,15.2987735 L52.8700424,15.2987735 C53.6436584,15.3012485 54.3957694,15.5547281 55.0126617,16.0211357 C55.6299916,16.4880434 56.0788201,17.1424944 56.2917067,17.886316 L57.2733832,21.358742 L53.336475,22.531375 L53.5469736,19.3695206 C53.5640675,19.070139 53.336475,18.8127547 53.0370935,18.7927251 C52.7377119,18.7727004 52.4783646,18.9978474 52.4554218,19.2967413 L51.7013478,30.6147271 L48.0852637,30.6147271 L44.0310785,28.0545115 L43.3248656,19.629193 C43.3150977,19.4831593 43.2467226,19.3469029 43.1358595,19.2511808 C43.0245063,19.1554562 42.8794504,19.1085729 42.7334167,19.1207757 C42.587383,19.1329857 42.4521018,19.2038024 42.3583302,19.3161333 C42.2645585,19.4289518 42.2201108,19.5744929 42.2347667,19.7205266 L42.4887252,22.7486001 L38.204487,23.2584802 L37.6726268,17.695697 L37.6721383,17.6961854 C37.6106004,17.0817811 37.8142586,16.4698275 38.2318424,16.0146725 L38.2319158,16.0147968 Z M49.8180884,31.7084169 L51.6666398,31.7084169 L51.6666398,32.875186 L49.8180884,31.7084169 Z M31.9752225,16.7899756 L31.9752225,22.9558979 L29.7872178,22.9558979 L29.7872178,15.7354823 C29.7867295,15.5870106 29.7652403,15.4400017 29.7222616,15.2978814 L30.482687,15.2978814 C31.3066021,15.2983697 31.9742811,15.9660105 31.9752813,16.7899756 L31.9752225,16.7899756 Z M28.2487379,15.2906297 C28.4943946,15.2906297 28.693178,15.4899007 28.693178,15.7355573 L28.693178,23.5029741 L25.4111709,23.5029741 L25.4111709,15.9817391 C25.4116592,15.6003011 25.7208173,15.2906672 26.1027304,15.2901796 L28.2487379,15.2906297 Z M18.1721635,15.6808572 C18.2424923,15.452292 18.453966,15.2969812 18.6932837,15.2979564 L19.5372284,15.2979564 L19.5367401,15.2979564 C20.3201208,15.2994216 21.0448379,14.8833108 21.4385538,14.2059045 C21.6378247,13.8664762 22.0021588,13.6574405 22.3957996,13.6569529 L23.2231404,13.6569529 C23.8272798,13.6574412 24.3166552,14.1468159 24.3171428,14.7509552 C24.3176311,14.9126175 24.3899133,15.0659654 24.5149384,15.1685265 C24.3850209,15.4200471 24.3171428,15.6989239 24.3171428,15.9817016 L24.3171428,16.3919463 L18.6933455,16.3919463 C18.392001,16.3919463 18.1478072,16.1487277 18.1463443,15.8473831 C18.1463443,15.7912177 18.1551355,15.7345646 18.172229,15.6808447 L18.1721635,15.6808572 Z M19.8244197,30.614302 L28.1462143,30.614302 C28.448534,30.614302 28.6932155,30.3696205 28.6932155,30.0673008 C28.6932155,29.7649811 28.448534,29.5202996 28.1462143,29.5202996 L19.7462766,29.5202996 L19.6681336,28.4262973 L27.0522119,28.4262973 C27.3545317,28.4262973 27.5992131,28.1816158 27.5992131,27.8792961 C27.5992131,27.5769764 27.3545317,27.3322949 27.0522119,27.3322949 L19.5899906,27.3322949 L18.8867034,17.4862737 L24.317206,17.4862737 L24.317206,18.580276 L20.4881978,18.580276 C20.185878,18.580276 19.9411966,18.8249575 19.9411966,19.1272772 C19.9411966,19.429597 20.185878,19.6742784 20.4881978,19.6742784 L24.317206,19.6742784 L24.317206,20.7682808 L21.035199,20.7682808 C20.7328792,20.7682808 20.4881978,21.0129622 20.4881978,21.3152819 C20.4881978,21.6176017 20.7328792,21.8622831 21.035199,21.8622831 L24.317206,21.8622831 L24.317206,22.9562855 L21.5822001,22.9562855 C21.2798804,22.9562855 21.035199,23.2009669 21.035199,23.5032867 C21.035199,23.8056064 21.2798804,24.0502878 21.5822001,24.0502878 L24.317206,24.0502878 C24.317206,24.1953463 24.3748368,24.3345284 24.477393,24.4371021 C24.5799491,24.5396757 24.7191488,24.597289 24.8642072,24.597289 L29.2402166,24.597289 C29.3852751,24.597289 29.5244572,24.5396582 29.6270309,24.4371021 C29.7296045,24.3345459 29.7872178,24.1953463 29.7872178,24.0502878 L30.3718277,24.0502878 L29.8248265,31.7083043 L19.9026627,31.7083043 L19.8244197,30.614302 Z M10.0951004,32.8023067 L39.4006854,32.8023067 C39.4763866,32.8780079 39.5535582,32.9522413 39.633164,33.0240329 L39.633164,39.3663709 L10.0951004,39.3663709 L10.0951004,32.8023067 Z M49.0003998,48.1383443 L48.179898,44.5486413 L51.2431046,46.507093 L49.0003998,48.1383443 Z M46.8656574,43.7090726 L48.0382904,48.8372556 L42.1316779,53.1331215 L40.7271039,53.165844 L40.7271039,39.2163763 C41.1847344,39.8869434 41.7737328,40.4578751 42.4580031,40.8955136 L46.8656574,43.7090726 Z M39.632989,65.6228776 L10.0949253,65.6228776 L10.0949253,40.4608233 L39.632989,40.4608233 L39.632989,65.6228776 Z M39.632989,68.9048846 L10.0949253,68.9048846 L10.0949253,66.7168799 L39.632989,66.7168799 L39.632989,68.9048846 Z M61.386757,68.9048846 L53.3805352,68.9048846 L53.3570923,67.2628809 L53.3566039,67.2628809 C53.3561154,67.2242982 53.3517199,67.1862032 53.3429283,67.1490846 L50.9615039,56.7268055 L56.1018147,52.9510595 C56.1101173,52.9451986 56.1179321,52.9378727 56.1262341,52.9320126 L59.2714596,66.7164423 L54.9492125,66.7164423 C54.6468928,66.7164423 54.4022114,66.9616114 54.4022114,67.2634435 C54.4022114,67.5657632 54.6468928,67.8104447 54.9492125,67.8104447 L59.7887039,67.8104447 L61.386757,68.9048846 Z M57.350701,43.2414647 C58.0998988,44.5670205 58.3821889,46.1058755 58.1531361,47.6110977 C57.9235957,49.1163199 57.1958903,50.5008893 56.0857842,51.5431297 C55.8865133,51.7316482 55.6755396,51.9074763 55.4547762,52.0696137 L42.9816489,61.2304768 L42.9816489,55.7770939 C42.9816489,55.4747742 42.7369675,55.2300927 42.4346478,55.2300927 C42.1328156,55.2300927 41.8876466,55.4747742 41.8876466,55.7770939 L41.8876466,62.1223076 L40.7272289,64.131521 L40.7272289,54.2611192 L42.327223,54.225466 L42.327223,54.2249776 C42.4385762,54.2225355 42.5465111,54.186395 42.6368694,54.1209499 L52.5361529,46.9205389 C52.6821866,46.8140694 52.7666811,46.6426373 52.7613049,46.4619331 C52.7554441,46.2812289 52.6611843,46.1146905 52.5088091,46.0174931 L43.0471265,39.9730988 C41.6287994,39.0710407 40.7712266,37.5047794 40.7751024,35.8236416 L40.7751024,33.8475608 L52.3485221,41.0743529 C52.6513295,41.2643342 53.0015103,41.3654325 53.3590052,41.3659201 C53.5152913,41.3659201 53.6710897,41.3468732 53.8229748,41.309267 C54.2132023,41.2135425 54.563383,40.9962073 54.8222303,40.6885239 L54.9409101,40.759829 L54.9404218,40.7603174 C55.9440658,41.3659321 56.7743448,42.2206543 57.3506027,43.2413897 L57.350701,43.2414647 Z M54.4145237,34.0162117 L54.4145237,34.0157234 C54.4262452,34.0113277 54.4389431,34.0127929 54.4496881,34.019142 L54.4321065,34.0381889 C54.3881514,34.0860512 54.3368695,34.1417278 54.2792337,34.2110788 L53.7742298,34.7048427 C53.6545734,34.8215684 53.5949884,34.9871328 53.6125675,35.1531836 C53.630149,35.319722 53.7229442,35.4686814 53.864088,35.5580645 L55.1817669,36.3902815 L55.1817669,36.3907698 C55.5568535,36.6251989 55.6765061,37.1160371 55.4523419,37.4969875 L54.0711482,39.8642836 C53.9593062,40.0562279 53.7742048,40.1939471 53.5588176,40.2471844 C53.3434304,40.3004192 53.1153528,40.2637895 52.9273219,40.146575 L41.0500821,32.7303642 C39.753408,31.9157263 38.9064626,30.5472356 38.756053,29.0235092 L38.3091749,24.3485558 L42.5806602,23.8396509 L42.9645362,28.4178319 L42.9645362,28.4183204 C42.9786995,28.5892599 43.0724711,28.7435955 43.2175196,28.8349165 L52.2772344,34.554986 L52.2772344,34.5554744 C52.4188671,34.6453388 52.5942076,34.6648746 52.7524441,34.6082215 L54.4145237,34.0162117 Z M66.7162364,13.1501485 L63.6774104,25.6967926 L63.6778988,25.697281 C63.3213665,27.1683704 62.3215859,28.4010297 60.9556458,29.0535552 C59.5895807,29.7060557 58.0023396,29.7084938 56.634399,29.0613695 C55.2659584,28.4137576 54.2617267,27.1844366 53.9003934,25.7143474 L53.3944141,23.6552475 L57.5716277,22.4108229 L58.2329178,24.7463617 C58.2993393,24.981766 58.5142327,25.1444035 58.7589141,25.1444035 L58.7672168,25.1444035 C59.0148364,25.1409847 59.2292358,24.971026 59.2893122,24.7307331 L61.4006742,16.3327959 L61.4011626,16.3327959 C61.4377923,16.185787 61.4119073,16.0295009 61.3293685,15.902034 L60.0273182,13.894696 L60.0278067,13.894696 C59.9828738,13.826809 59.9965495,13.7364595 60.0590639,13.6851726 C60.0878793,13.6622186 60.1240201,13.6495194 60.1606498,13.6490318 C60.2006978,13.6490318 60.2392817,13.6641715 60.2690736,13.691034 L61.04464,14.4187393 C61.185785,14.5515825 61.3870065,14.5994435 61.5730869,14.5447434 C61.7586797,14.4900433 61.9022628,14.3410839 61.9491486,14.1530531 L62.4619669,12.1100818 C62.4707579,12.0749174 62.4927353,12.0446367 62.5235049,12.0260774 C62.5542745,12.0075181 62.5913918,12.001658 62.6260673,12.0104488 L66.6157376,12.9857738 C66.688997,13.0033553 66.7339286,13.0771036 66.716347,13.1498741 L66.7162364,13.1501485 Z" id="Shape" fill="#3CDC87" fill-rule="nonzero"></path>
                </g>
            </g>
        </g>
    </g>
</svg>