<?xml version="1.0" encoding="UTF-8"?>
<svg width="76px" height="76px" viewBox="0 0 76 76" version="1.1" xmlns="http://www.w3.org/2000/svg" xmlns:xlink="http://www.w3.org/1999/xlink">
    <title>ic_mr_product</title>
    <defs>
        <path d="M13.595053,37.8357244 C13.595053,44.3290616 18.8588724,49.592881 25.352497,49.592881 L25.352497,49.592881 C29.3066126,49.592881 32.8051915,47.6408275 34.9362983,44.6477936 L34.9362983,44.6477936 C34.4916831,44.1626543 34.2200855,43.5165682 34.2200855,42.8069657 L34.2200855,42.8069657 L34.2200855,34.4584303 C34.2200855,33.4392928 34.7799501,32.5514993 35.6085382,32.084179 L35.6085382,32.084179 C33.5941178,28.5002409 29.7564011,26.0782804 25.352497,26.0782804 L25.352497,26.0782804 C18.8588724,26.0782804 13.595053,31.3420998 13.595053,37.8357244 M16.980107,37.8357244 C16.980107,33.2119556 20.7284408,29.4633344 25.352497,29.4633344 L25.352497,29.4633344 C29.9759784,29.4633344 33.7243122,33.2116682 33.7243122,37.8357244 L33.7243122,37.8357244 C33.7243122,42.4594933 29.9759784,46.207827 25.352497,46.207827 L25.352497,46.207827 C20.7284408,46.207827 16.980107,42.4594933 16.980107,37.8357244" id="path-1"></path>
        <path d="M13.595053,37.8357244 C13.595053,44.3290616 18.8588724,49.592881 25.352497,49.592881 L25.352497,49.592881 C29.3066126,49.592881 32.8051915,47.6408275 34.9362983,44.6477936 L34.9362983,44.6477936 C34.4916831,44.1626543 34.2200855,43.5165682 34.2200855,42.8069657 L34.2200855,42.8069657 L34.2200855,34.4584303 C34.2200855,33.4392928 34.7799501,32.5514993 35.6085382,32.084179 L35.6085382,32.084179 C33.5941178,28.5002409 29.7564011,26.0782804 25.352497,26.0782804 L25.352497,26.0782804 C18.8588724,26.0782804 13.595053,31.3420998 13.595053,37.8357244 M16.980107,37.8357244 C16.980107,33.2119556 20.7284408,29.4633344 25.352497,29.4633344 L25.352497,29.4633344 C29.9759784,29.4633344 33.7243122,33.2116682 33.7243122,37.8357244 L33.7243122,37.8357244 C33.7243122,42.4594933 29.9759784,46.207827 25.352497,46.207827 L25.352497,46.207827 C20.7284408,46.207827 16.980107,42.4594933 16.980107,37.8357244" id="path-3"></path>
        <path d="M13.595053,37.8357244 C13.595053,44.3290616 18.8588724,49.592881 25.352497,49.592881 L25.352497,49.592881 C29.3066126,49.592881 32.8051915,47.6408275 34.9362983,44.6477936 L34.9362983,44.6477936 C34.4916831,44.1626543 34.2200855,43.5165682 34.2200855,42.8069657 L34.2200855,42.8069657 L34.2200855,34.4584303 C34.2200855,33.4392928 34.7799501,32.5514993 35.6085382,32.084179 L35.6085382,32.084179 C33.5941178,28.5002409 29.7564011,26.0782804 25.352497,26.0782804 L25.352497,26.0782804 C18.8588724,26.0782804 13.595053,31.3420998 13.595053,37.8357244 M16.980107,37.8357244 C16.980107,33.2119556 20.7284408,29.4633344 25.352497,29.4633344 L25.352497,29.4633344 C29.9759784,29.4633344 33.7243122,33.2116682 33.7243122,37.8357244 L33.7243122,37.8357244 C33.7243122,42.4594933 29.9759784,46.207827 25.352497,46.207827 L25.352497,46.207827 C20.7284408,46.207827 16.980107,42.4594933 16.980107,37.8357244" id="path-5"></path>
        <path d="M13.595053,37.8357244 C13.595053,44.3290616 18.8588724,49.592881 25.352497,49.592881 L25.352497,49.592881 C29.3066126,49.592881 32.8051915,47.6408275 34.9362983,44.6477936 L34.9362983,44.6477936 C34.4916831,44.1626543 34.2200855,43.5165682 34.2200855,42.8069657 L34.2200855,42.8069657 L34.2200855,34.4584303 C34.2200855,33.4392928 34.7799501,32.5514993 35.6085382,32.084179 L35.6085382,32.084179 C33.5941178,28.5002409 29.7564011,26.0782804 25.352497,26.0782804 L25.352497,26.0782804 C18.8588724,26.0782804 13.595053,31.3420998 13.595053,37.8357244 M16.980107,37.8357244 C16.980107,33.2119556 20.7284408,29.4633344 25.352497,29.4633344 L25.352497,29.4633344 C29.9759784,29.4633344 33.7243122,33.2116682 33.7243122,37.8357244 L33.7243122,37.8357244 C33.7243122,42.4594933 29.9759784,46.207827 25.352497,46.207827 L25.352497,46.207827 C20.7284408,46.207827 16.980107,42.4594933 16.980107,37.8357244" id="path-7"></path>
        <path d="M13.595053,37.8357244 C13.595053,44.3290616 18.8588724,49.592881 25.352497,49.592881 L25.352497,49.592881 C29.3066126,49.592881 32.8051915,47.6408275 34.9362983,44.6477936 L34.9362983,44.6477936 C34.4916831,44.1626543 34.2200855,43.5165682 34.2200855,42.8069657 L34.2200855,42.8069657 L34.2200855,34.4584303 C34.2200855,33.4392928 34.7799501,32.5514993 35.6085382,32.084179 L35.6085382,32.084179 C33.5941178,28.5002409 29.7564011,26.0782804 25.352497,26.0782804 L25.352497,26.0782804 C18.8588724,26.0782804 13.595053,31.3420998 13.595053,37.8357244 M16.980107,37.8357244 C16.980107,33.2119556 20.7284408,29.4633344 25.352497,29.4633344 L25.352497,29.4633344 C29.9759784,29.4633344 33.7243122,33.2116682 33.7243122,37.8357244 L33.7243122,37.8357244 C33.7243122,42.4594933 29.9759784,46.207827 25.352497,46.207827 L25.352497,46.207827 C20.7284408,46.207827 16.980107,42.4594933 16.980107,37.8357244" id="path-9"></path>
        <path d="M13.595053,37.8357244 C13.595053,44.3290616 18.8588724,49.592881 25.352497,49.592881 L25.352497,49.592881 C29.3066126,49.592881 32.8051915,47.6408275 34.9362983,44.6477936 L34.9362983,44.6477936 C34.4916831,44.1626543 34.2200855,43.5165682 34.2200855,42.8069657 L34.2200855,42.8069657 L34.2200855,34.4584303 C34.2200855,33.4392928 34.7799501,32.5514993 35.6085382,32.084179 L35.6085382,32.084179 C33.5941178,28.5002409 29.7564011,26.0782804 25.352497,26.0782804 L25.352497,26.0782804 C18.8588724,26.0782804 13.595053,31.3420998 13.595053,37.8357244 M16.980107,37.8357244 C16.980107,33.2119556 20.7284408,29.4633344 25.352497,29.4633344 L25.352497,29.4633344 C29.9759784,29.4633344 33.7243122,33.2116682 33.7243122,37.8357244 L33.7243122,37.8357244 C33.7243122,42.4594933 29.9759784,46.207827 25.352497,46.207827 L25.352497,46.207827 C20.7284408,46.207827 16.980107,42.4594933 16.980107,37.8357244" id="path-11"></path>
    </defs>
    <g id="Page-1" stroke="none" stroke-width="1" fill="none" fill-rule="evenodd">
        <g id="Chapter3" transform="translate(-1285.000000, -13248.000000)">
            <g id="ic_mr_use" transform="translate(306.000000, 13187.000000)">
                <g id="ic_mr_product" transform="translate(979.000000, 61.000000)">
                    <rect id="Rectangle" x="0" y="0" width="76" height="76"></rect>
                    <g id="Group-23" transform="translate(13.000000, 7.000000)">
                        <path d="M25.3523246,28.7014817 C20.307685,28.7014817 16.2181681,32.7909986 16.2181681,37.8356382 C16.2181681,42.8802778 20.307685,46.9697947 25.3523246,46.9697947 C30.3969641,46.9697947 34.486481,42.8802778 34.486481,37.8356382 C34.486481,32.7909986 30.3969641,28.7014817 25.3523246,28.7014817 Z M25.3523246,30.2255895 C29.5552226,30.2255895 32.9623732,33.6327401 32.9623732,37.8356382 C32.9623732,42.0385363 29.5552226,45.4456869 25.3523246,45.4456869 C21.1494265,45.4456869 17.7422759,42.0385363 17.7422759,37.8356382 C17.7422759,33.6327401 21.1494265,30.2255895 25.3523246,30.2255895 Z" id="Stroke-1" fill="#3CDC87" fill-rule="nonzero"></path>
                        <path d="M48.6974426,0 L2.0070916,0 C0.898676871,0 0,0.898820155 0,2.007379 L0,60.992621 C0,62.1011798 0.898676871,63 2.0070916,63 L48.6974426,63 C49.806073,63 50.7048216,62.1012515 50.7048216,60.992621 L50.7048216,2.007379 C50.7048216,0.898748512 49.806073,0 48.6974426,0 Z M2.0070916,1.52410779 L48.6974426,1.52410779 C48.9643316,1.52410779 49.1807138,1.74049 49.1807138,2.007379 L49.1807138,60.992621 C49.1807138,61.25951 48.9643316,61.4758922 48.6974426,61.4758922 L2.0070916,61.4758922 C1.74047276,61.4758922 1.52410779,61.2594927 1.52410779,60.992621 L1.52410779,2.007379 C1.52410779,1.74050726 1.74047276,1.52410779 2.0070916,1.52410779 Z" id="Stroke-3" fill="#3CDC87" fill-rule="nonzero"></path>
                        <path d="M44.8124766,13.4986287 C45.2333473,13.4986287 45.5745305,13.8398118 45.5745305,14.2606826 C45.5745305,14.665366 45.2590875,14.9963737 44.8606701,15.0212372 L44.8124766,15.0227365 L5.89211507,15.0227365 C5.47124433,15.0227365 5.13006118,14.6815533 5.13006118,14.2606826 C5.13006118,13.8559992 5.44550418,13.5249914 5.84392158,13.5001279 L5.89211507,13.4986287 L44.8124766,13.4986287 Z" id="Stroke-5" fill="#3CDC87" fill-rule="nonzero"></path>
                        <path d="M17.6385802,8.62214476e-05 C18.0432636,8.62214476e-05 18.3742714,0.315529223 18.3991349,0.713946629 L18.4006341,0.762140117 L18.4006341,14.2606826 C18.4006341,14.6815533 18.059451,15.0227365 17.6385802,15.0227365 C17.2338968,15.0227365 16.9028891,14.7072935 16.8780256,14.3088761 L16.8765263,14.2606826 L16.8765263,0.762140117 C16.8765263,0.341269372 17.2177095,8.62214476e-05 17.6385802,8.62214476e-05 Z" id="Stroke-7" fill="#3CDC87" fill-rule="nonzero"></path>
                        <path d="M25.3524108,3.39623408 C23.0795033,3.39623408 21.2372048,5.23853264 21.2372048,7.51144008 C21.2372048,9.78434752 23.0795033,11.6266461 25.3524108,11.6266461 C27.62512,11.6266461 29.4676168,9.78425836 29.4676168,7.51144008 C29.4676168,5.2386218 27.62512,3.39623408 25.3524108,3.39623408 Z M25.3524108,4.92034187 C26.7833987,4.92034187 27.943509,6.08038349 27.943509,7.51144008 C27.943509,8.94249667 26.7833987,10.1025383 25.3524108,10.1025383 C23.9212448,10.1025383 22.7613126,8.94260603 22.7613126,7.51144008 C22.7613126,6.08027413 23.9212448,4.92034187 25.3524108,4.92034187 Z" id="Stroke-9" fill="#3CDC87" fill-rule="nonzero"></path>
                        <path d="M44.8124191,3.61969134 C45.2332898,3.61969134 45.574473,3.96087449 45.574473,4.38174523 C45.574473,4.78642864 45.25903,5.11743639 44.8606126,5.14229988 L44.8124191,5.14379913 L41.459267,5.14379913 C41.0383962,5.14379913 40.6972131,4.80261598 40.6972131,4.38174523 C40.6972131,3.97706182 41.0126561,3.64605408 41.4110735,3.62119058 L41.459267,3.61969134 L44.8124191,3.61969134 Z" id="Stroke-11" fill="#3CDC87" fill-rule="nonzero"></path>
                        <path d="M44.8124191,6.74938619 C45.2332898,6.74938619 45.574473,7.09056934 45.574473,7.51144008 C45.574473,7.91612349 45.25903,8.24713124 44.8606126,8.27199473 L44.8124191,8.27349398 L41.459267,8.27349398 C41.0383962,8.27349398 40.6972131,7.93231083 40.6972131,7.51144008 C40.6972131,7.10675667 41.0126561,6.77574892 41.4110735,6.75088543 L41.459267,6.74938619 L44.8124191,6.74938619 Z" id="Stroke-13" fill="#3CDC87" fill-rule="nonzero"></path>
                        <path d="M44.8124191,9.87905229 C45.2332898,9.87905229 45.574473,10.2202354 45.574473,10.6411062 C45.574473,11.0457896 45.25903,11.3767973 44.8606126,11.4016608 L44.8124191,11.4031601 L41.459267,11.4031601 C41.0383962,11.4031601 40.6972131,11.0619769 40.6972131,10.6411062 C40.6972131,10.2364228 41.0126561,9.90541503 41.4110735,9.88055154 L41.459267,9.87905229 L44.8124191,9.87905229 Z" id="Stroke-15" fill="#3CDC87" fill-rule="nonzero"></path>
                        <path d="M37.7679544,3.61969134 C38.1888251,3.61969134 38.5300083,3.96087449 38.5300083,4.38174523 C38.5300083,4.78642864 38.2145653,5.11743639 37.8161478,5.14229988 L37.7679544,5.14379913 L34.4148023,5.14379913 C33.9939315,5.14379913 33.6527484,4.80261598 33.6527484,4.38174523 C33.6527484,3.97706182 33.9681914,3.64605408 34.3666088,3.62119058 L34.4148023,3.61969134 L37.7679544,3.61969134 Z" id="Stroke-17" fill="#3CDC87" fill-rule="nonzero"></path>
                        <path d="M37.7679544,6.74938619 C38.1888251,6.74938619 38.5300083,7.09056934 38.5300083,7.51144008 C38.5300083,7.91612349 38.2145653,8.24713124 37.8161478,8.27199473 L37.7679544,8.27349398 L34.4148023,8.27349398 C33.9939315,8.27349398 33.6527484,7.93231083 33.6527484,7.51144008 C33.6527484,7.10675667 33.9681914,6.77574892 34.3666088,6.75088543 L34.4148023,6.74938619 L37.7679544,6.74938619 Z" id="Stroke-19" fill="#3CDC87" fill-rule="nonzero"></path>
                        <path d="M37.7679544,9.87905229 C38.1888251,9.87905229 38.5300083,10.2202354 38.5300083,10.6411062 C38.5300083,11.0457896 38.2145653,11.3767973 37.8161478,11.4016608 L37.7679544,11.4031601 L34.4148023,11.4031601 C33.9939315,11.4031601 33.6527484,11.0619769 33.6527484,10.6411062 C33.6527484,10.2364228 33.9681914,9.90541503 34.3666088,9.88055154 L34.4148023,9.87905229 L37.7679544,9.87905229 Z" id="Stroke-21" fill="#3CDC87" fill-rule="nonzero"></path>
                        <path d="M25.3524108,20.3075364 C15.6719314,20.3075364 7.82430897,28.1551588 7.82430897,37.8356382 C7.82430897,47.5161176 15.6719314,55.36374 25.3524108,55.36374 C35.0328902,55.36374 42.8805126,47.5161176 42.8805126,37.8356382 C42.8805126,28.1551588 35.0328902,20.3075364 25.3524108,20.3075364 Z M25.3524108,21.8316442 C34.1911487,21.8316442 41.3564048,28.9969003 41.3564048,37.8356382 C41.3564048,46.6743761 34.1911487,53.8396322 25.3524108,53.8396322 C16.5136729,53.8396322 9.34841676,46.6743761 9.34841676,37.8356382 C9.34841676,28.9969003 16.5136729,21.8316442 25.3524108,21.8316442 Z" id="Stroke-23" fill="#3CDC87" fill-rule="nonzero"></path>
                        <path d="M25.4026491,25.3161115 C29.6735621,25.3161115 33.5784275,27.4721215 35.8776897,30.9768527 C36.1085528,31.3287539 36.0104321,31.8011776 35.6585309,32.0320407 C35.3066297,32.2629038 34.834206,32.1647831 34.6033429,31.8128819 C32.5829018,28.7331535 29.1545072,26.8402193 25.4026491,26.8402193 C19.3302432,26.8402193 14.4075464,31.7630824 14.4075464,37.8356095 C14.4075464,43.9081365 19.3302432,48.8309996 25.4026491,48.8309996 C28.6581775,48.8309996 31.6807273,47.4090906 33.7578239,44.983735 C34.0315877,44.6640702 34.5126566,44.6268601 34.8323214,44.9006239 C35.1519861,45.1743878 35.1891962,45.6554567 34.9154324,45.9751214 C32.551771,48.7350891 29.1081007,50.3551074 25.4026491,50.3551074 C18.4884902,50.3551074 12.8834386,44.7498665 12.8834386,37.8356095 C12.8834386,30.9213524 18.4884902,25.3161115 25.4026491,25.3161115 Z" id="Stroke-25" fill="#3CDC87" fill-rule="nonzero"></path>
                        <path d="M36.9447407,30.97152 C37.3656115,30.97152 37.7067946,31.3127032 37.7067946,31.7335739 C37.7067946,32.1382573 37.3913516,32.4692651 36.9929342,32.4941285 L36.9447407,32.4956278 C35.8834208,32.4956278 35.0188961,33.3381644 34.9833348,34.3909787 L34.9821969,34.4584591 L34.9821969,42.8069944 C34.9821969,43.8682204 35.8246414,44.7328352 36.8772722,44.7684002 L36.9447407,44.7695383 C37.3656115,44.7695383 37.7067946,45.1107214 37.7067946,45.5315922 C37.7067946,45.9524629 37.3656115,46.2936461 36.9447407,46.2936461 C35.0482814,46.2936461 33.5054763,44.7794648 33.45916,42.894263 L33.4580891,42.8069944 L33.4580891,34.4584591 C33.4580891,32.5327067 35.0190483,30.97152 36.9447407,30.97152 Z" id="Stroke-27" fill="#3CDC87" fill-rule="nonzero"></path>
                        <path d="M25.3523533,28.7015105 C20.3077137,28.7015105 16.2181968,32.7910274 16.2181968,37.8356669 C16.2181968,42.8803065 20.3077137,46.9698234 25.3523533,46.9698234 C30.3969929,46.9698234 34.4865098,42.8803065 34.4865098,37.8356669 C34.4865098,32.7910274 30.3969929,28.7015105 25.3523533,28.7015105 Z M25.3523533,30.2256183 C29.5552514,30.2256183 32.962402,33.6327688 32.962402,37.8356669 C32.962402,42.038565 29.5552514,45.4457156 25.3523533,45.4457156 C21.1494552,45.4457156 17.7423046,42.038565 17.7423046,37.8356669 C17.7423046,33.6327688 21.1494552,30.2256183 25.3523533,30.2256183 Z" id="Stroke-29" fill="#3CDC87" fill-rule="nonzero"></path>
                        <mask id="mask-2" fill="white">
                            <use xlink:href="#path-1"></use>
                        </mask>
                        <g id="Clip-33"></g>
                        <path d="M39.3888026,37.0735843 C39.8096734,37.0735843 40.1508565,37.4147675 40.1508565,37.8356382 C40.1508565,38.2403216 39.8354135,38.5713294 39.4369961,38.5961928 L39.3888026,38.5976921 L11.3159615,38.5976921 C10.8950907,38.5976921 10.5539076,38.2565089 10.5539076,37.8356382 C10.5539076,37.4309548 10.8693506,37.099947 11.267768,37.0750836 L11.3159615,37.0735843 L39.3888026,37.0735843 Z" id="Stroke-32" fill="#3CDC87" fill-rule="nonzero" mask="url(#mask-2)"></path>
                        <mask id="mask-4" fill="white">
                            <use xlink:href="#path-3"></use>
                        </mask>
                        <g id="Clip-36"></g>
                        <path d="M37.1273184,30.1575971 C37.4918043,29.9471637 37.9578685,30.0720481 38.1683018,30.436534 C38.3703177,30.7864405 38.263305,31.2299615 37.9319469,31.4510613 L37.8893648,31.4775174 L13.5775032,45.5137943 C13.2130173,45.7242276 12.7469531,45.5993433 12.5365198,45.2348573 C12.3345038,44.8849508 12.4415166,44.4414299 12.7728747,44.2203301 L12.8154568,44.1938739 L37.1273184,30.1575971 Z" id="Stroke-35" fill="#3CDC87" fill-rule="nonzero" mask="url(#mask-4)"></path>
                        <mask id="mask-6" fill="white">
                            <use xlink:href="#path-5"></use>
                        </mask>
                        <g id="Clip-39"></g>
                        <path d="M31.7104741,25.2986267 C31.9209074,24.9341407 32.3869715,24.8092564 32.7514575,25.0196897 C33.101364,25.2217057 33.2304536,25.6593111 33.054043,26.0164701 L33.0303944,26.0606731 L18.9941176,50.3725347 C18.7836842,50.7370207 18.3176201,50.861905 17.9531342,50.6514717 C17.6032276,50.4494557 17.474138,50.0118504 17.6505486,49.6546913 L17.6741972,49.6104883 L31.7104741,25.2986267 Z" id="Stroke-38" fill="#3CDC87" fill-rule="nonzero" mask="url(#mask-6)"></path>
                        <mask id="mask-8" fill="white">
                            <use xlink:href="#path-7"></use>
                        </mask>
                        <g id="Clip-42"></g>
                        <path d="M25.3523533,23.037135 C25.7570367,23.037135 26.0880445,23.352578 26.1129079,23.7509954 L26.1144072,23.7991889 L26.1144072,51.87203 C26.1144072,52.2929008 25.773224,52.6340839 25.3523533,52.6340839 C24.9476699,52.6340839 24.6166621,52.3186409 24.5917987,51.9202235 L24.5902994,51.87203 L24.5902994,23.7991889 C24.5902994,23.3783181 24.9314826,23.037135 25.3523533,23.037135 Z" id="Stroke-41" fill="#3CDC87" fill-rule="nonzero" mask="url(#mask-8)"></path>
                        <mask id="mask-10" fill="white">
                            <use xlink:href="#path-9"></use>
                        </mask>
                        <g id="Clip-45"></g>
                        <path d="M17.9532204,25.0196897 C18.3031269,24.8176737 18.7466479,24.9246865 18.9677476,25.2560446 L18.9942038,25.2986267 L33.0304807,49.6104883 C33.240914,49.9749742 33.1160296,50.4410384 32.7515437,50.6514717 C32.4016372,50.8534877 31.9581162,50.7464749 31.7370165,50.4151168 L31.7105603,50.3725347 L17.6742834,26.0606731 C17.4638501,25.6961872 17.5887344,25.230123 17.9532204,25.0196897 Z" id="Stroke-44" fill="#3CDC87" fill-rule="nonzero" mask="url(#mask-10)"></path>
                        <mask id="mask-12" fill="white">
                            <use xlink:href="#path-11"></use>
                        </mask>
                        <g id="Clip-48"></g>
                        <path d="M12.5363761,30.436534 C12.7383921,30.0866275 13.1759974,29.9575379 13.5331565,30.1339485 L13.5773595,30.1575971 L37.8892211,44.1938739 C38.253707,44.4043072 38.3785914,44.8703714 38.1681581,45.2348573 C37.9661421,45.5847638 37.5285367,45.7138535 37.1713777,45.5374429 L37.1271747,45.5137943 L12.8153131,31.4775174 C12.4508271,31.2670841 12.3259428,30.80102 12.5363761,30.436534 Z" id="Stroke-47" fill="#3CDC87" fill-rule="nonzero" mask="url(#mask-12)"></path>
                        <path d="M25.3523533,25.316169 C29.8790449,25.316169 33.9817612,27.7404264 36.2010071,31.5848693 L36.2727044,31.7107336 L36.6455464,32.3740722 L35.982754,32.7478844 C35.390854,33.0817135 35.0099234,33.6960305 34.983469,34.3818832 L34.9819957,34.4583728 L34.9819957,42.8069082 C34.9819957,43.2759832 35.1464197,43.7175303 35.4410486,44.0680515 L35.4978091,44.132692 L35.9146821,44.5872911 L35.5569272,45.0897401 C33.2228707,48.3678068 29.4536806,50.3551648 25.3523533,50.3551648 C18.4381453,50.3551648 12.8328554,44.7498749 12.8328554,37.8356669 C12.8328554,30.921459 18.4381453,25.316169 25.3523533,25.316169 Z M25.3523533,26.8402768 C19.2798868,26.8402768 14.3569632,31.7632005 14.3569632,37.8356669 C14.3569632,43.9081334 19.2798868,48.8310571 25.3523533,48.8310571 C28.7000529,48.8310571 31.7939159,47.3248439 33.8607875,44.8007349 L33.9834651,44.6477936 L33.9442201,44.5837535 C33.6668572,44.1163793 33.50059,43.5867253 33.4650746,43.0319536 L33.4594726,42.912703 L33.4578879,42.8069082 L33.4581153,42.0503671 C31.9349662,44.973718 28.8767588,46.9698234 25.3523533,46.9698234 C20.3077137,46.9698234 16.2181968,42.8803065 16.2181968,37.8356669 C16.2181968,32.7910274 20.3077137,28.7015105 25.3523533,28.7015105 C28.9318641,28.7015105 32.0304843,30.7605234 33.5284302,33.7587653 C33.6663168,33.0837451 34.0007848,32.4701608 34.4820763,31.9903061 L34.5636424,31.9115809 L34.596787,31.8812712 L34.5896418,31.8701931 C32.6363374,28.849075 29.3130569,26.939509 25.6414464,26.8440328 L25.492409,26.8411577 L25.3523533,26.8402768 Z M25.3523533,30.2256183 C21.1494552,30.2256183 17.7423046,33.6327688 17.7423046,37.8356669 C17.7423046,42.038565 21.1494552,45.4457156 25.3523533,45.4457156 C29.5552514,45.4457156 32.962402,42.038565 32.962402,37.8356669 C32.962402,33.6327688 29.5552514,30.2256183 25.3523533,30.2256183 Z" id="Stroke-51" fill="#3CDC87" fill-rule="nonzero" mask="url(#mask-12)"></path>
                    </g>
                </g>
            </g>
        </g>
    </g>
</svg>