<?xml version="1.0" encoding="UTF-8"?>
<svg width="76px" height="76px" viewBox="0 0 76 76" version="1.1" xmlns="http://www.w3.org/2000/svg" xmlns:xlink="http://www.w3.org/1999/xlink">
    <title>ic_mr_flake</title>
    <g id="Page-1" stroke="none" stroke-width="1" fill="none" fill-rule="evenodd">
        <g id="Chapter3" transform="translate(-566.000000, -13733.000000)">
            <g id="ic_mr_use" transform="translate(306.000000, 13187.000000)">
                <g id="ic_mr_flake" transform="translate(260.000000, 546.000000)">
                    <rect id="Rectangle" x="0" y="0" width="76" height="76"></rect>
                    <g id="Group-21" transform="translate(9.000000, 8.000000)" stroke="#3CDC87" stroke-width="2">
                        <path d="M24.5802356,47.7571968 C24.5802356,48.9814143 23.2001434,49.9733288 22.8401127,51.0779538 C22.4668783,52.2227998 22.9850462,53.8308757 22.2889357,54.7837926 C21.5857627,55.7463441 19.885558,55.748791 18.9192325,56.4493707 C17.9625795,57.1427627 17.4385774,58.756497 16.2892427,59.1282738 C15.1802867,59.4868984 13.809253,58.4998778 12.5802356,58.4998778 C11.3512182,58.4998778 9.98003085,59.4868984 8.87107486,59.1282738 C7.72174016,58.756497 7.19773811,57.1427627 6.24108509,56.4492178 C5.27491314,55.748791 3.57470843,55.7461912 2.87153545,54.7837926 C2.17527138,53.8308757 2.69359277,52.2227998 2.32035838,51.0779538 C1.96032767,49.9733288 0.580235554,48.9814143 0.580235554,47.7571968 C0.580235554,46.5329792 1.96032767,45.5410648 2.32035838,44.4364398 C2.69359277,43.2915938 2.17542491,41.6835179 2.87153545,40.730601 C3.57470843,39.7680495 5.27491314,39.7656026 6.24123862,39.0650228 C7.19789164,38.3716309 7.72189369,36.7578966 8.87122839,36.3861198 C9.98003085,36.0274952 11.3512182,37.0145158 12.5802356,37.0145158 C13.809253,37.0145158 15.1804403,36.0274952 16.2893962,36.3861198 C17.4387309,36.7578966 17.962733,38.3716309 18.919386,39.0651758 C19.885558,39.7656026 21.5857627,39.7682024 22.2889357,40.730601 C22.9851997,41.6835179 22.4668783,43.2915938 22.8401127,44.4364398 C23.2001434,45.5410648 24.5802356,46.5329792 24.5802356,47.7571968" id="Fill-1655" transform="translate(12.580236, 47.757197) rotate(-90.000000) translate(-12.580236, -47.757197) "></path>
                        <path d="M0,19.6363957 L0,4.36360429 C0,1.95368941 1.95368941,0 4.36360429,0 L19.6363957,0 C22.0463106,0 24,1.95368941 24,4.36360429 L24,19.6363957 C24,22.0463106 22.0463106,24 19.6363957,24 L4.36360429,24 C1.95368941,24 0,22.0463106 0,19.6363957" id="Fill-1657" transform="translate(12.000000, 12.000000) rotate(-90.000000) translate(-12.000000, -12.000000) "></path>
                        <path d="M57,28.7593301 C57,35.3867172 51.6273508,40.7593301 44.9999191,40.7593301 C38.3724874,40.7593301 33,35.3867172 33,28.7593301 C33,22.1319431 38.3724874,16.7593301 44.9999191,16.7593301 C51.6273508,16.7593301 57,22.1319431 57,28.7593301" id="Fill-1661" transform="translate(45.000000, 28.759330) rotate(-90.000000) translate(-45.000000, -28.759330) "></path>
                    </g>
                </g>
            </g>
        </g>
    </g>
</svg>