<?xml version="1.0" encoding="UTF-8"?>
<svg width="76px" height="76px" viewBox="0 0 76 76" version="1.1" xmlns="http://www.w3.org/2000/svg" xmlns:xlink="http://www.w3.org/1999/xlink">
    <title>ic_mr_process</title>
    <g id="Page-1" stroke="none" stroke-width="1" fill="none" fill-rule="evenodd">
        <g id="Chapter3" transform="translate(-323.000000, -13489.000000)">
            <g id="ic_mr_use" transform="translate(306.000000, 13187.000000)">
                <g id="ic_mr_process" transform="translate(17.000000, 302.000000)">
                    <rect id="Rectangle" x="0" y="0" width="76" height="76"></rect>
                    <g id="Group-20" transform="translate(13.000000, 10.000000)" fill="#3CDC87">
                        <path d="M11.2189523,7.66175419 C12.1595073,7.66175419 12.9220576,6.89929568 12.9220576,5.95874067 C12.9220576,5.01809395 12.1595073,4.25563544 11.2189523,4.25563544 C10.2783973,4.25563544 9.5158471,5.01809395 9.5158471,5.95874067 C9.5158471,6.89929568 10.2783973,7.66175419 11.2189523,7.66175419" id="Fill-123"></path>
                        <path d="M11.2189523,11.9173988 C12.1595073,11.9173988 12.9220576,11.1549403 12.9220576,10.2143853 C12.9220576,9.27373856 12.1595073,8.51128006 11.2189523,8.51128006 C10.2783973,8.51128006 9.5158471,9.27373856 9.5158471,10.2143853 C9.5158471,11.1549403 10.2783973,11.9173988 11.2189523,11.9173988" id="Fill-125"></path>
                        <path d="M15.4768988,3.40611874 C16.4174538,3.40611874 17.180004,2.64366024 17.180004,1.70310523 C17.180004,0.76255021 16.4174538,1.66815484e-13 15.4768988,1.66815484e-13 C14.5363438,1.66815484e-13 13.7738853,0.76255021 13.7738853,1.70310523 C13.7738853,2.64366024 14.5363438,3.40611874 15.4768988,3.40611874" id="Fill-127"></path>
                        <path d="M15.4768988,7.66175419 C16.4174538,7.66175419 17.180004,6.89929568 17.180004,5.95874067 C17.180004,5.01809395 16.4174538,4.25563544 15.4768988,4.25563544 C14.5363438,4.25563544 13.7738853,5.01809395 13.7738853,5.95874067 C13.7738853,6.89929568 14.5363438,7.66175419 15.4768988,7.66175419" id="Fill-129"></path>
                        <path d="M15.4768988,11.9173988 C16.4174538,11.9173988 17.180004,11.1549403 17.180004,10.2143853 C17.180004,9.27373856 16.4174538,8.51128006 15.4768988,8.51128006 C14.5363438,8.51128006 13.7738853,9.27373856 13.7738853,10.2143853 C13.7738853,11.1549403 14.5363438,11.9173988 15.4768988,11.9173988" id="Fill-131"></path>
                        <path d="M15.4768988,16.1730342 C16.4174538,16.1730342 17.180004,15.4105757 17.180004,14.4700207 C17.180004,13.529374 16.4174538,12.7669155 15.4768988,12.7669155 C14.5363438,12.7669155 13.7738853,13.529374 13.7738853,14.4700207 C13.7738853,15.4105757 14.5363438,16.1730342 15.4768988,16.1730342" id="Fill-133"></path>
                        <path d="M15.4768988,20.4286697 C16.4174538,20.4286697 17.180004,19.6662112 17.180004,18.7255645 C17.180004,17.7850094 16.4174538,17.0225509 15.4768988,17.0225509 C14.5363438,17.0225509 13.7738853,17.7850094 13.7738853,18.7255645 C13.7738853,19.6662112 14.5363438,20.4286697 15.4768988,20.4286697" id="Fill-135"></path>
                        <path d="M15.4768988,24.6842593 C16.4174538,24.6842593 17.180004,23.9218008 17.180004,22.9812458 C17.180004,22.040599 16.4174538,21.2781405 15.4768988,21.2781405 C14.5363438,21.2781405 13.7738853,22.040599 13.7738853,22.9812458 C13.7738853,23.9218008 14.5363438,24.6842593 15.4768988,24.6842593" id="Fill-137"></path>
                        <path d="M19.7348545,7.66175419 C20.6754095,7.66175419 21.437868,6.89929568 21.437868,5.95874067 C21.437868,5.01809395 20.6754095,4.25563544 19.7348545,4.25563544 C18.7942994,4.25563544 18.0317492,5.01809395 18.0317492,5.95874067 C18.0317492,6.89929568 18.7942994,7.66175419 19.7348545,7.66175419" id="Fill-139"></path>
                        <path d="M19.7348545,11.9173988 C20.6754095,11.9173988 21.437868,11.1549403 21.437868,10.2143853 C21.437868,9.27373856 20.6754095,8.51128006 19.7348545,8.51128006 C18.7942994,8.51128006 18.0317492,9.27373856 18.0317492,10.2143853 C18.0317492,11.1549403 18.7942994,11.9173988 19.7348545,11.9173988" id="Fill-141"></path>
                        <path d="M19.7348545,16.1730342 C20.6754095,16.1730342 21.437868,15.4105757 21.437868,14.4700207 C21.437868,13.529374 20.6754095,12.7669155 19.7348545,12.7669155 C18.7942994,12.7669155 18.0317492,13.529374 18.0317492,14.4700207 C18.0317492,15.4105757 18.7942994,16.1730342 19.7348545,16.1730342" id="Fill-143"></path>
                        <path d="M19.7348545,20.4286697 C20.6754095,20.4286697 21.437868,19.6662112 21.437868,18.7255645 C21.437868,17.7850094 20.6754095,17.0225509 19.7348545,17.0225509 C18.7942994,17.0225509 18.0317492,17.7850094 18.0317492,18.7255645 C18.0317492,19.6662112 18.7942994,20.4286697 19.7348545,20.4286697" id="Fill-145"></path>
                        <path d="M6.76467783,5.21057941 C7.1445439,5.21057941 7.4524862,5.51852171 7.4524862,5.89838778 C7.4524862,6.27080549 7.15650168,6.57409232 6.78693816,6.58584274 L6.76467783,6.58619614 L5.2179894,6.58615029 L5.21802608,9.75259074 C5.21802608,10.1270479 5.40292765,10.4765144 5.71075872,10.6872652 L5.73744384,10.7049872 L10.5279534,13.7912099 C11.1992426,14.2236301 11.6093827,14.9621881 11.6230929,15.7587342 L11.6234478,15.7999853 L11.6234478,22.8945911 C11.6234478,23.7685025 11.2413537,24.5978218 10.5789852,25.1655895 L10.5438655,25.1952294 L6.17426989,28.825829 C6.0858031,28.8993096 6.03222647,29.0062941 6.02587496,29.1205313 L6.02523798,29.1434677 L6.02523798,47.8838613 C6.02523798,48.2637273 5.71729569,48.5716696 5.33742961,48.5716696 C4.9650119,48.5716696 4.66172507,48.2756851 4.64997465,47.9061216 L4.64962125,47.8838613 L4.64962125,29.1434677 C4.64962125,28.6240866 4.8754004,28.1308593 5.26699048,27.7916667 L5.29524238,27.7677023 L9.66473671,24.1371868 C10.0246893,23.8380934 10.2367713,23.3981407 10.2474106,22.9314857 L10.2478311,22.8945911 L10.2478311,15.7999853 C10.2478311,15.4658031 10.0831971,15.1537794 9.80900434,14.9649781 L9.78297948,14.9476421 L4.99254088,11.861465 C4.28735999,11.4073355 3.8566888,10.6313425 3.84275795,9.79448322 L3.84240935,9.75259074 L3.84240935,6.33363291 C3.84240935,5.72276217 4.33014459,5.22584228 4.93744189,5.21057941 L4.96555456,5.21057941 L6.76467783,5.21057941 Z" id="Stroke-147" fill-rule="nonzero"></path>
                        <path d="M29.106326,5.21054273 C29.717251,5.21054273 30.2142072,5.69824248 30.2291263,6.30557366 L30.2294712,6.33368794 L30.2294712,14.7948313 C30.2294712,15.6844425 29.8295169,16.5259996 29.1418035,17.0878077 L29.1059761,17.116616 L22.711524,22.1769318 L22.711524,23.2876048 L25.4230663,23.2876139 C25.9364334,23.2876139 26.4437164,23.395612 26.9121205,23.6043548 L26.9659927,23.6288872 L44.0815225,31.5877539 C44.931029,31.9828059 45.478647,32.8281656 45.4939043,33.7625465 L45.4942316,33.8026449 L45.4942316,47.8838246 C45.4942316,48.2636907 45.1862893,48.5716329 44.8064232,48.5716329 C44.4340055,48.5716329 44.1307187,48.2756484 44.1189682,47.9060849 L44.1186148,47.8838246 L44.1186148,33.8026449 C44.1186148,33.3969843 43.8887094,33.0273196 43.5269316,32.8473458 L43.5014785,32.8350992 L26.3858719,24.8761968 C26.1001444,24.7432801 25.7902518,24.671067 25.4755567,24.6638338 L25.4230663,24.6632307 L21.3359256,24.6632307 L21.3359256,21.5113146 L28.2523102,16.0379243 C28.622771,15.7447363 28.8426763,15.3021253 28.85344,14.8311168 L28.8538545,14.7948313 L28.8538361,6.58615029 L24.1891381,6.58615946 C23.8167204,6.58615946 23.5134336,6.29017494 23.5016832,5.92061142 L23.5013298,5.89835109 C23.5013298,5.52593338 23.7973143,5.22264655 24.1668778,5.21054273 L24.1891381,5.21054273 L29.106326,5.21054273 Z" id="Stroke-149" fill-rule="nonzero"></path>
                        <path d="M18.793309,27.3791475 L16.3715117,25.9951214 L16.3509255,25.9838095 C16.0266685,25.8126622 15.6227695,25.9263063 15.4363823,26.2452567 L14.0288146,28.653794 L11.2397447,28.6695695 L11.2172231,28.6700588 C10.8508394,28.6839256 10.5579201,28.984189 10.5558335,29.3534807 L10.5399754,32.1425414 L8.13153549,33.550018 L8.11145554,33.5622075 C7.80126207,33.7577154 7.69807734,34.1644308 7.88139393,34.4851709 L9.26551237,36.9069441 L7.88138905,39.3287992 L7.87007672,39.3493859 C7.69892194,39.6736491 7.81257237,40.0775597 8.13153549,40.2639436 L10.5399754,41.6713468 L10.5558335,44.4605725 L10.5563228,44.4830941 C10.5701895,44.8494778 10.8704529,45.1423972 11.2397447,45.1444838 L14.0288146,45.160186 L15.4363823,47.5687966 L15.4485722,47.5888759 C15.6440842,47.8990592 16.0507921,48.0022367 16.3715266,47.8189234 L18.793309,46.4347407 L21.2150547,47.8189234 L21.235641,47.8302359 C21.5598994,48.0013941 21.9638085,47.8877527 22.150199,47.5687966 L23.5577117,45.160186 L26.3468366,45.1444838 L26.3693582,45.1439945 C26.735742,45.1301277 27.0286613,44.8298642 27.0307478,44.4605725 L27.0464592,41.6713468 L29.4550458,40.2639436 L29.4751254,40.2517543 C29.7853136,40.05625 29.8885012,39.6495447 29.7051959,39.3288056 L28.3211056,36.9069441 L29.7052008,34.4851474 L29.7165122,34.4645612 C29.8876533,34.1403052 29.7740078,33.7364119 29.4550606,33.5500266 L27.0464592,32.1424497 L27.0307478,29.3534806 L27.0302585,29.330959 C27.0163917,28.9645753 26.7161283,28.6716561 26.3468366,28.6695695 L23.5577117,28.653794 L22.1502993,26.2452715 C21.9599532,25.9195277 21.5427325,25.8079177 21.2151699,25.9951165 L18.793309,27.3791475 Z M21.3062857,27.527439 L22.567846,29.6864062 L22.5808909,29.7078271 C22.7059646,29.9050454 22.9231391,30.0258636 23.157813,30.0271895 L25.6589204,30.041241 L25.6731278,32.5424127 L25.6737251,32.5674854 C25.6835308,32.8008083 25.811284,33.0139691 26.0138963,33.132371 L28.1728141,34.3939675 L26.9317464,36.5657504 L26.9188155,36.5894405 C26.8110582,36.7963874 26.8153703,37.0446734 26.9317513,37.2483114 L28.1728141,39.4198291 L26.0139111,40.6814903 L25.9924902,40.6945352 C25.7952719,40.8196089 25.6744537,41.0367835 25.6731278,41.2714574 L25.6589204,43.7727389 L23.157813,43.7868638 L23.1327403,43.7874611 C22.8994174,43.7972668 22.6862566,43.9250199 22.5678546,44.1276323 L21.3061939,46.286541 L19.1345904,45.0454041 L19.1108992,45.0324715 C18.9039431,44.9246996 18.6556392,44.9290105 18.4519909,45.0454041 L16.2803323,46.286541 L15.0187267,44.1276323 L15.0056816,44.1062123 C14.8806063,43.9090019 14.6634363,43.7881897 14.4287684,43.7868638 L11.9275142,43.7727389 L11.9134536,41.2714574 L11.9128562,41.2463841 C11.9030501,41.0130553 11.7752907,40.7998902 11.5726702,40.6814903 L9.41371215,39.4199208 L10.6549181,37.2482261 L10.6678502,37.2245351 C10.7756177,37.0175805 10.7713052,36.7692806 10.6549132,36.5656352 L9.41371215,34.3939675 L11.5726702,33.1324713 L11.5940911,33.1194264 C11.7913094,32.9943527 11.9121276,32.7771782 11.9134536,32.5425043 L11.9275142,30.041241 L14.4287684,30.0271895 L14.453841,30.0265922 C14.6871639,30.0167865 14.9003248,29.8890334 15.0187267,29.686421 L16.2803323,27.527439 L18.4520059,28.768566 C18.6634761,28.8894232 18.9230949,28.8894251 19.1345669,28.7685709 L21.3062857,27.527439 Z" id="Stroke-151" fill-rule="nonzero"></path>
                        <path d="M14.8499385,33.2480053 C16.9493068,31.1486369 20.3529254,31.1486369 22.4522937,33.2480053 C22.7208996,33.5166112 22.7208996,33.9521073 22.4522937,34.2207132 C22.1836878,34.4893191 21.7481916,34.4893191 21.4795858,34.2207132 C19.9174292,32.6585566 17.384803,32.6585566 15.8226464,34.2207132 C14.2604898,35.7828698 14.2604898,38.315496 15.8226464,39.8776526 C17.384803,41.4398092 19.9174292,41.4398092 21.4795858,39.8776526 C21.7481916,39.6090467 22.1836878,39.6090467 22.4522937,39.8776526 C22.7208996,40.1462584 22.7208996,40.5817546 22.4522937,40.8503605 C20.3529254,42.9497288 16.9493068,42.9497288 14.8499385,40.8503605 C12.7505701,38.7509922 12.7505701,35.3473736 14.8499385,33.2480053 Z" id="Stroke-153" fill-rule="nonzero"></path>
                        <path d="M21.5977562,30.9028595 C21.9640706,30.8365437 22.3150987,31.0735504 22.3926829,31.4348656 L22.3970891,31.4571407 L22.8327011,33.8633695 C22.8990172,34.2296856 22.662008,34.5807149 22.3006907,34.6582971 L22.2784154,34.6627032 L19.8720949,35.0983152 C19.4983042,35.1659818 19.1404324,34.9178193 19.0727657,34.5440286 C19.0064524,34.1777138 19.2434614,33.8266874 19.6047771,33.7491055 L19.6270522,33.7446995 L21.3565415,33.431586 L21.0434751,31.7021924 C20.9771593,31.335878 21.214166,30.98485 21.5754811,30.9072657 L21.5977562,30.9028595 Z" id="Stroke-155" fill-rule="nonzero"></path>
                        <path d="M34.5102524,38.0910159 C34.6561688,37.7402929 35.0587746,37.5742643 35.4094976,37.7201807 C35.753063,37.8631192 35.9193956,38.2523769 35.7888778,38.5978909 L35.7803329,38.6194259 L34.9984323,40.4987935 C34.8525159,40.8495165 34.4499101,41.0155451 34.0991871,40.8696287 C33.7556217,40.7266902 33.5892891,40.3374325 33.7198069,39.9919186 L33.7283519,39.9703835 L34.5102524,38.0910159 Z" id="Stroke-157" fill-rule="nonzero"></path>
                        <path d="M38.6693486,33.6524628 C38.7825089,33.2898432 39.1682047,33.0876165 39.5308243,33.2007768 C39.8861915,33.311674 40.0875174,33.6843142 39.9889227,34.0404701 L39.9825103,34.0622526 L39.3761385,36.0053571 C39.2629782,36.3679767 38.8772823,36.5702034 38.5146627,36.4570431 C38.1592955,36.346146 37.9579696,35.9735057 38.0565643,35.6173498 L38.0629767,35.5955673 L38.6693486,33.6524628 Z" id="Stroke-159" fill-rule="nonzero"></path>
                        <path d="M37.7985312,41.5931874 C38.1535675,41.4581042 38.5508878,41.6364114 38.685971,41.9914477 C38.8182975,42.3392383 38.6498944,42.7276048 38.3092257,42.8702921 L38.2877108,42.8788875 L36.3852329,43.6027371 C36.0301966,43.7378203 35.6328762,43.5595131 35.497793,43.2044768 C35.3654666,42.8566862 35.5338697,42.4683197 35.8745383,42.3256324 L35.8960533,42.317037 L37.7985312,41.5931874 Z" id="Stroke-161" fill-rule="nonzero"></path>
                        <path d="M38.3993344,38.57443 C38.5565251,38.2371473 38.9524025,38.08725 39.2921519,38.2321124 L39.3133105,38.2415511 L41.1582876,39.1014033 C41.5025971,39.2618688 41.6516321,39.6710699 41.4911666,40.0153794 C41.3339758,40.3526622 40.9380985,40.5025595 40.598349,40.357697 L40.5771905,40.3482583 L38.7322133,39.4884062 C38.3879038,39.3279406 38.2388688,38.9187396 38.3993344,38.57443 Z" id="Stroke-163" fill-rule="nonzero"></path>
                        <path d="M32.1042562,44.061478 C32.3670144,43.798703 32.7894939,43.7929772 33.0592126,44.0443106 L33.0769641,44.061447 L34.5163177,45.5007089 C34.7849322,45.7693062 34.784946,46.2048024 34.5163487,46.4734168 C34.2535905,46.7361918 33.831111,46.7419176 33.5613923,46.4905842 L33.5436408,46.4734478 L32.1042872,45.0341859 C31.8356727,44.7655886 31.8356589,44.3300924 32.1042562,44.061478 Z" id="Stroke-165" fill-rule="nonzero"></path>
                        <path d="M39.4448699,44.6898262 C39.6347977,44.3608495 40.055453,44.2481282 40.3844296,44.438056 C40.7065526,44.624027 40.821337,45.0312119 40.647677,45.3569382 L40.6361998,45.3776157 L39.6184268,47.1405144 C39.428499,47.4694911 39.0078437,47.5822124 38.6788671,47.3922846 C38.3567441,47.2063136 38.2419597,46.7991287 38.4156197,46.4734024 L38.4270969,46.4527249 L39.4448699,44.6898262 Z" id="Stroke-167" fill-rule="nonzero"></path>
                        <path d="M34.9682089,33.4621462 C35.3232452,33.327063 35.7205656,33.5053702 35.8556488,33.8604064 C35.9879752,34.2081971 35.8195721,34.5965635 35.4789035,34.7392508 L35.4573885,34.7478463 L33.5549106,35.4716958 C33.1998743,35.606779 32.802554,35.4284718 32.6674707,35.0734356 C32.5351443,34.7256449 32.7035474,34.3372785 33.0442161,34.1945912 L33.065731,34.1859957 L34.9682089,33.4621462 Z" id="Stroke-169" fill-rule="nonzero"></path>
                        <path d="M48.5391867,50.0389941 L0.797490875,50.0389941 C0.356845539,50.0389941 0,50.396252 0,50.8365767 L0,55.2025091 C0,55.642994 0.357005959,56 0.797490875,56 L48.5391867,56 C48.9796717,56 49.3366776,55.642994 49.3366776,55.2025091 L49.3366776,50.8365767 C49.3366776,50.396252 48.9798321,50.0389941 48.5391867,50.0389941 Z M47.9610609,51.414565 L47.9610609,54.6243374 L1.37561673,54.6243374 L1.37561673,51.414565 L47.9610609,51.414565 Z" id="Stroke-171" fill-rule="nonzero"></path>
                    </g>
                </g>
            </g>
        </g>
    </g>
</svg>