<?xml version="1.0" encoding="UTF-8"?>
<svg width="76px" height="76px" viewBox="0 0 76 76" version="1.1" xmlns="http://www.w3.org/2000/svg" xmlns:xlink="http://www.w3.org/1999/xlink">
    <title>ic_mr_waste</title>
    <g id="Page-1" stroke="none" stroke-width="1" fill="none" fill-rule="evenodd">
        <g id="Chapter3" transform="translate(-1286.000000, -13735.000000)">
            <g id="ic_mr_use" transform="translate(306.000000, 13187.000000)">
                <g id="ic_mr_waste" transform="translate(980.000000, 548.000000)">
                    <rect id="Rectangle" x="0" y="0" width="76" height="76"></rect>
                    <g id="Group-26" transform="translate(6.000000, 16.000000)" stroke="#3CDC87">
                        <polygon id="Path-Copy-10" fill-rule="nonzero" points="8.16410437 40.5633803 12.5683791 40.5633803 13.971831 30.6478873 6.76056338 30.6478873"></polygon>
                        <path d="M22.9859155,35.6056338 C22.9859155,36.8501054 21.976866,37.8591549 20.7323944,37.8591549 C19.4879227,37.8591549 18.4788732,36.8501054 18.4788732,35.6056338 C18.4788732,34.3611622 19.4879227,33.3521127 20.7323944,33.3521127 C21.976866,33.3521127 22.9859155,34.3611622 22.9859155,35.6056338" id="Path-Copy-11" fill-rule="nonzero"></path>
                        <path d="M22.084507,22.084507 C22.084507,22.8311823 21.4790696,23.4366197 20.7323944,23.4366197 C19.9857191,23.4366197 19.3802817,22.8311823 19.3802817,22.084507 C19.3802817,21.3378318 19.9857191,20.7323944 20.7323944,20.7323944 C21.4790696,20.7323944 22.084507,21.3378318 22.084507,22.084507" id="Path-Copy-12" fill-rule="nonzero"></path>
                        <path d="M32,34.7042254 C32,35.4509006 31.3945626,36.056338 30.6478873,36.056338 C29.9012121,36.056338 29.2957746,35.4509006 29.2957746,34.7042254 C29.2957746,33.9575501 29.9012121,33.3521127 30.6478873,33.3521127 C31.3945626,33.3521127 32,33.9575501 32,34.7042254" id="Path-Copy-13" fill-rule="nonzero"></path>
                        <polygon id="Path-Copy-14" fill-rule="nonzero" points="32.0241953 12.6197183 29.2715236 12.6197183 28.3943662 18.9295775 32.9014085 18.9295775"></polygon>
                        <path d="M12.1690141,13.971831 C12.1690141,15.2163026 11.1599646,16.2253521 9.91549296,16.2253521 C8.67102133,16.2253521 7.66197183,15.2163026 7.66197183,13.971831 C7.66197183,12.7273594 8.67102133,11.7183099 9.91549296,11.7183099 C11.1599646,11.7183099 12.1690141,12.7273594 12.1690141,13.971831" id="Path-Copy-15" fill-rule="nonzero"></path>
                        <path d="M40.3677925,17.7094815 L44.3809853,21.7135014 C44.5576405,21.8884926 44.657221,22.1272362 44.657221,22.3759742 C44.657221,22.6247121 44.5576415,22.8634558 44.3809853,23.038447 L39.714482,27.7049503 C39.5394908,27.8816055 39.3007471,27.981186 39.0520092,27.981186 C38.8032712,27.981186 38.5645276,27.8816065 38.3895364,27.7049503 L34.3855165,23.6917575 L32.9014085,25.1758655 L45.5846979,37.8591549 L54.5352113,28.9086415 L41.8519218,16.2253521 L40.3677925,17.7094815 Z" id="Path-Copy-16" fill-rule="nonzero"></path>
                        <path d="M52.714375,4.09014861 L50.481191,6.53150918 C50.3836312,6.63893628 50.2461653,6.70373762 50.0997441,6.71127369 C49.953323,6.71880977 49.809713,6.66847559 49.7012534,6.57165137 L46.8103242,4.01530118 C46.7009365,3.91948992 46.6349525,3.78448787 46.6272789,3.64069103 C46.6196053,3.49689418 46.6708581,3.35585813 46.7694494,3.24934251 L49.0083161,0.813007006 L48.0889015,0 L41.0140845,7.716551 L46.5589858,12.6197183 L53.6338028,4.90316731 L52.714375,4.09014861 Z" id="Path-Copy-20" fill-rule="nonzero"></path>
                        <path d="M17.4258132,0.865742143 L19.7668424,3.20142039 C19.8698912,3.3034986 19.9279799,3.44276573 19.9279799,3.58786287 C19.9279799,3.73296001 19.8698918,3.87222714 19.7668424,3.97430534 L17.0447154,6.69643229 C16.9426372,6.79948113 16.8033701,6.85756976 16.658273,6.85756976 C16.5131758,6.85756976 16.3739087,6.79948175 16.2718305,6.69643229 L13.9361522,4.35540312 L13.0704225,5.22113282 L20.469008,12.6197183 L25.6901408,7.39858549 L18.2915554,0 L17.4258132,0.865742143 Z" id="Path-Copy-21" fill-rule="nonzero"></path>
                        <path d="M58.1408451,13.0704225 C58.1408451,14.3148813 57.1317827,15.3239437 55.8873239,15.3239437 C54.6428652,15.3239437 53.6338028,14.3148813 53.6338028,13.0704225 C53.6338028,11.8259638 54.6428652,10.8169014 55.8873239,10.8169014 C57.1317827,10.8169014 58.1408451,11.8259638 58.1408451,13.0704225" id="Path-Copy-17" fill-rule="nonzero"></path>
                        <path d="M57.2394366,37.8591549 C57.2394366,38.8547219 56.4321867,39.6619718 55.4366197,39.6619718 C54.4410527,39.6619718 53.6338028,38.8547219 53.6338028,37.8591549 C53.6338028,36.8635879 54.4410527,36.056338 55.4366197,36.056338 C56.4321867,36.056338 57.2394366,36.8635879 57.2394366,37.8591549" id="Path-Copy-18" fill-rule="nonzero"></path>
                        <polyline id="Rectangle" transform="translate(32.000000, 22.985915) rotate(90.000000) translate(-32.000000, -22.985915) " points="11.2676056 -9.01408451 52.7323944 -5.96646546 52.7323944 51.9382964 11.2676056 54.9859155"></polyline>
                    </g>
                </g>
            </g>
        </g>
    </g>
</svg>