<?xml version="1.0" encoding="UTF-8"?>
<svg width="76px" height="76px" viewBox="0 0 76 76" version="1.1" xmlns="http://www.w3.org/2000/svg" xmlns:xlink="http://www.w3.org/1999/xlink">
    <title>ic_mr_grind</title>
    <g id="Page-1" stroke="none" stroke-width="1" fill="none" fill-rule="evenodd">
        <g id="Chapter3" transform="translate(-564.000000, -13248.000000)">
            <g id="ic_mr_use" transform="translate(306.000000, 13187.000000)">
                <g id="ic_mr_grind" transform="translate(258.000000, 61.000000)">
                    <rect id="Rectangle" x="0" y="0" width="76" height="76"></rect>
                    <g id="Group-25" transform="translate(14.000000, 6.000000)" fill="#3CDC87" fill-rule="nonzero">
                        <path d="M27.5131159,0.118164621 C27.9307133,-0.120498144 28.4602391,0.0138477694 28.7147865,0.41770694 L28.7306571,0.443850208 L30.6777984,3.77601916 L34.5367565,3.79800374 C35.0175574,3.8007366 35.4084791,4.18210735 35.4265358,4.65912231 L35.427173,4.68844441 L35.4490142,8.5471155 L38.781334,10.494524 C39.1966097,10.7371974 39.3445756,11.2630752 39.1217401,11.6852574 L39.107012,11.7120607 L36.9380604,15.5071587 C36.6926512,15.9365608 36.1456085,16.0857164 35.7162064,15.8403071 C35.2957502,15.6000105 35.1439851,15.0705177 35.3682326,14.6454401 L35.383058,14.6184531 L37.1118173,11.5933193 L34.1045596,9.83600003 C33.8407587,9.68184348 33.6744232,9.40431081 33.6616542,9.10052621 L33.6608763,9.06788183 L33.6411366,5.58389667 L30.157151,5.56418075 C29.8516206,5.56244411 29.5688763,5.40514331 29.4060366,5.14837856 L29.3890527,5.12049001 L27.6317141,2.11321603 L24.6067235,3.84211863 C24.3415833,3.99364999 24.0183091,3.99926226 23.7488626,3.85895545 L23.7180179,3.84211863 L20.6928602,2.11321603 L18.9355586,5.12050825 C18.7814049,5.38429605 18.5038859,5.5506257 18.2001142,5.56340199 L18.1674711,5.56418075 L14.683557,5.58389667 L14.6637456,9.0679063 C14.6620089,9.37343368 14.5047112,9.65617551 14.2479505,9.81901606 L14.2200624,9.83600003 L11.2126376,11.5933193 L12.9416729,14.6184346 C13.1819795,15.0388851 13.0439928,15.5721346 12.6350248,15.8245689 L12.6085535,15.8402966 C12.188103,16.0806031 11.6548535,15.9426164 11.4024192,15.5336485 L11.3866915,15.5071771 L9.2176206,11.7120791 C8.97894558,11.2944832 9.11328418,10.7649489 9.5171447,10.5103949 L9.54328807,10.494524 L12.8755601,8.5471155 L12.8975686,4.68841994 C12.9003015,4.20762847 13.281658,3.81671079 13.7586633,3.79864173 L13.7879848,3.79800374 L17.6466565,3.77601916 L19.594095,0.443831969 C19.8367718,0.0285636864 20.3626444,-0.119396807 20.7848226,0.103436645 L20.8116255,0.118164621 L24.1623468,2.03309676 L27.5131159,0.118164621 Z" id="Stroke-1"></path>
                        <path d="M28.0229278,6.86457111 C28.4998657,6.77822637 28.9569027,7.08680507 29.0579189,7.55723397 L29.0636559,7.58623599 L29.6619832,10.8911856 C29.748328,11.3681235 29.4397493,11.8251605 28.9693204,11.9261767 L28.9403183,11.9319137 L25.6353688,12.530241 C25.1486974,12.6183479 24.6827475,12.2952475 24.5946406,11.8085762 C24.5082959,11.3316382 24.8168746,10.8746012 25.2873035,10.773585 L25.3163055,10.767848 L27.7400124,10.3289632 L27.3012629,7.90529923 C27.2149181,7.42836127 27.5234968,6.97132427 27.9939257,6.87030808 L28.0229278,6.86457111 Z" id="Stroke-3"></path>
                        <path d="M18.7809439,10.0719875 C21.6450512,7.20774417 26.2889638,7.20774417 29.1531922,10.0719725 C29.5029148,10.4216951 29.5029148,10.9887076 29.1531922,11.3384302 C28.8034695,11.6881529 28.2364571,11.6881529 27.8867344,11.3384302 C25.7219564,9.17365222 22.2120919,9.17365222 20.047448,11.3383989 C19.0353737,12.3505733 18.4703886,13.6858409 18.4281121,15.0897607 C18.4132253,15.5841191 18.0004006,15.9728077 17.5060422,15.957921 C17.0116837,15.9430343 16.6229951,15.5302095 16.6378819,15.0358511 C16.6937528,13.1804867 17.4427625,11.4103012 18.7809439,10.0719875 Z" id="Stroke-4"></path>
                        <path d="M46.8366962,17.8539056 L1.48787806,17.8539056 C0.666204952,17.8539056 0,18.5202033 0,19.3419031 L0,23.7411791 C0,24.5629119 0.666237996,25.2290572 1.48787806,25.2290572 L46.8366962,25.2290572 C47.6584093,25.2290572 48.3246937,24.5629583 48.3246937,23.7411791 L48.3246937,19.3419031 C48.3246937,18.5201569 47.6584424,17.8539056 46.8366962,17.8539056 Z M46.533652,19.6448876 L46.533652,23.4379558 L1.79104172,23.4379558 L1.79104172,19.6448876 L46.533652,19.6448876 Z" id="Stroke-6"></path>
                        <path d="M44.4027684,27.3349694 C44.7114706,26.9485567 45.2749727,26.8855599 45.6613854,27.1942622 C46.0395765,27.4963963 46.1079678,28.042603 45.8212927,28.4279782 L45.8020926,28.4528791 L35.0931939,41.8575064 L35.0932536,50.2300056 C35.0932536,50.7148904 34.7078841,51.1097674 34.2267155,51.1250663 L34.1977327,51.1255264 C33.7128479,51.1255264 33.3179709,50.740157 33.302672,50.2589883 L33.3022118,50.2300056 L33.3022118,41.543692 C33.3022118,41.3532485 33.362914,41.1681099 33.4749761,41.0149375 L33.4980706,40.9847372 L44.4027684,27.3349694 Z" id="Stroke-8"></path>
                        <path d="M2.66331502,27.194209 C3.0415091,26.8920786 3.5893335,26.946 3.9018846,27.3107032 L3.92193065,27.3349284 L14.8265091,40.9848155 C14.9453745,41.1336063 15.013504,41.3161392 15.0215559,41.5057542 L15.0223624,41.5437637 L15.0223624,50.2299578 C15.0223624,50.7245403 14.6214241,51.1254787 14.1268416,51.1254787 C13.6419568,51.1254787 13.2470798,50.7401093 13.2317808,50.2589406 L13.2313207,50.2299578 L13.231261,41.8575064 L2.52259567,28.4528247 C2.22046519,28.0746306 2.27438666,27.5268062 2.63908988,27.2142551 L2.66331502,27.194209 Z" id="Stroke-10"></path>
                        <path d="M30.6690104,41.2923492 C31.1635929,41.2923492 31.5645312,41.6932875 31.5645312,42.18787 C31.5645312,42.6727549 31.1791618,43.0676318 30.6979931,43.0829308 L30.6690104,43.0833909 L17.65554,43.0833909 C17.1609575,43.0833909 16.7600192,42.6824526 16.7600192,42.18787 C16.7600192,41.7029852 17.1453886,41.3081083 17.6265573,41.2928093 L17.65554,41.2923492 L30.6690104,41.2923492 Z" id="Stroke-12"></path>
                        <path d="M17.3949315,52.9022279 C17.8798163,52.9022279 18.2746933,53.2875973 18.2899923,53.768766 L18.2904524,53.7977487 L18.2904524,63.1044791 C18.2904524,63.5990617 17.889514,64 17.3949315,64 C16.9100467,64 16.5151697,63.6146306 16.4998708,63.1334619 L16.4994107,63.1044791 L16.4994107,53.7977487 C16.4994107,53.3031662 16.900349,52.9022279 17.3949315,52.9022279 Z" id="Stroke-14"></path>
                        <path d="M18.4069894,60.8259993 C18.756712,60.4762767 19.3237245,60.4762767 19.6734471,60.8259993 C20.0155671,61.1681193 20.0230045,61.7181844 19.6957593,62.0693455 L19.6734471,62.0924571 L18.0281962,63.737708 C17.6860762,64.079828 17.1360111,64.0872654 16.7848501,63.7600202 L16.7617385,63.737708 L15.1164875,62.0924571 C14.7667649,61.7427344 14.7667649,61.175722 15.1164875,60.8259993 C15.4586075,60.4838794 16.0086726,60.476442 16.3598337,60.8036872 L16.3829453,60.8259993 L17.3949554,61.8380097 L18.4069894,60.8259993 Z" id="Stroke-16"></path>
                        <path d="M24.1622991,52.9022279 C24.6471839,52.9022279 25.0420609,53.2875973 25.0573598,53.768766 L25.0578199,53.7977487 L25.0578199,63.1044791 C25.0578199,63.5990617 24.6568816,64 24.1622991,64 C23.6774143,64 23.2825373,63.6146306 23.2672383,63.1334619 L23.2667782,63.1044791 L23.2667782,53.7977487 C23.2667782,53.3031662 23.6677166,52.9022279 24.1622991,52.9022279 Z" id="Stroke-18"></path>
                        <path d="M25.174357,60.8259993 C25.5240796,60.4762767 26.091092,60.4762767 26.4408147,60.8259993 C26.7829347,61.1681193 26.7903721,61.7181844 26.4631269,62.0693455 L26.4408147,62.0924571 L24.7955638,63.737708 C24.4534438,64.079828 23.9033787,64.0872654 23.5522176,63.7600202 L23.529106,63.737708 L21.8838551,62.0924571 C21.5341325,61.7427344 21.5341325,61.175722 21.8838551,60.8259993 C22.2259751,60.4838794 22.7760402,60.476442 23.1272012,60.8036872 L23.1503128,60.8259993 L24.1623468,61.8380097 L25.174357,60.8259993 Z" id="Stroke-20"></path>
                        <path d="M30.9296666,52.9022279 C31.4145515,52.9022279 31.8094284,53.2875973 31.8247274,53.768766 L31.8251875,53.7977487 L31.8251875,63.1044791 C31.8251875,63.5990617 31.4242492,64 30.9296666,64 C30.4447818,64 30.0499049,63.6146306 30.0346059,63.1334619 L30.0341458,63.1044791 L30.0341458,53.7977487 C30.0341458,53.3031662 30.4350841,52.9022279 30.9296666,52.9022279 Z" id="Stroke-22"></path>
                        <path d="M31.9417245,60.8259993 C32.2914472,60.4762767 32.8584596,60.4762767 33.2081823,60.8259993 C33.5503022,61.1681193 33.5577396,61.7181844 33.2304944,62.0693455 L33.2081823,62.0924571 L31.5629313,63.737708 C31.2208113,64.079828 30.6707463,64.0872654 30.3195852,63.7600202 L30.2964736,63.737708 L28.6512227,62.0924571 C28.3015,61.7427344 28.3015,61.175722 28.6512227,60.8259993 C28.9933426,60.4838794 29.5434077,60.476442 29.8945688,60.8036872 L29.9176804,60.8259993 L30.9297383,61.8380097 L31.9417245,60.8259993 Z" id="Stroke-24"></path>
                    </g>
                </g>
            </g>
        </g>
    </g>
</svg>