<?xml version="1.0" encoding="UTF-8"?>
<svg width="76px" height="76px" viewBox="0 0 76 76" version="1.1" xmlns="http://www.w3.org/2000/svg" xmlns:xlink="http://www.w3.org/1999/xlink">
    <title>ic_waste2</title>
    <g id="Page-1" stroke="none" stroke-width="1" fill="none" fill-rule="evenodd">
        <g id="ic_waste2">
            <rect id="Rectangle" x="0" y="0" width="76" height="76"></rect>
            <path d="M45.8581325,23.3922454 C46.2715915,23.2150395 46.755935,23.4158664 46.9331302,23.8411413 L46.9331302,23.8411413 L50.9732143,33.6933692 C52.2136669,34.4848395 53.2413901,35.0991686 54.080124,35.6071331 C57.9193164,37.9225725 58.7107867,38.5250317 60.837215,43.5455972 C60.8608425,43.5810427 60.8844678,43.6282955 60.8962815,43.6637345 L60.8962815,43.6637345 L63.0581359,48.9442712 L65.7161086,55.4297695 C66.5075789,57.3553061 65.586177,59.5525758 63.6724131,60.3440568 L63.6724131,60.3440568 L55.0252116,63.88796 C54.5763158,64.0769711 54.0919723,64.1714766 53.6076288,64.1714766 C52.071887,64.1714766 50.7015461,63.2618474 50.122697,61.8442645 L50.122697,61.8442645 L45.8817211,51.4959636 C43.2355664,45.0458265 43.2827652,44.3134357 44.4995643,39.5645061 C44.7358281,38.6075701 45.0429765,37.4380778 45.3619299,36.0087222 L45.3619299,36.0087222 L41.3218457,26.1564942 C41.2391539,25.9438622 41.2391561,25.7194035 41.3218457,25.5185873 C41.4045354,25.3177712 41.5699146,25.1523833 41.7707416,25.0696915 L41.7707416,25.0696915 Z M29.5209657,23.3927855 C29.7335977,23.3100937 29.9580456,23.3100937 30.1588726,23.3927855 L30.1588726,23.3927855 L34.2461771,25.0700566 C34.6714542,25.2353926 34.8722789,25.7197253 34.6832679,26.1568161 L34.6832679,26.1568161 L34.0807979,27.6334784 L30.6431729,35.9972714 C30.9621371,37.4266269 31.2574588,38.5961193 31.5055385,39.5411745 C32.7222296,44.2903202 32.7695364,45.0344837 30.1233817,51.4845127 L30.1233817,51.4845127 L25.8824058,61.8328137 C25.3034919,63.2386023 23.9332158,64.1600258 22.3974741,64.1600258 C21.9131305,64.1600258 21.428787,64.0655202 20.9798912,63.8765092 L20.9798912,63.8765092 L12.3326897,60.332606 C10.4189798,59.5410277 9.49754554,57.3438553 10.2772215,55.4300914 L10.2772215,55.4300914 L14.5181974,45.0817904 C14.565448,44.975469 14.6008871,44.8809613 14.6481398,44.7746421 L14.6481398,44.7746421 L15.1088516,43.6642292 C15.1206653,43.6287891 15.132478,43.593349 15.1561043,43.5579099 C17.2943053,38.5373444 18.0857756,37.9231125 21.925076,35.6076732 C22.7638531,35.1114921 23.7916412,34.4853903 25.0319857,33.6939093 L25.0319857,33.6939093 L29.0720699,23.8416813 C29.1547595,23.6408652 29.3201388,23.4754773 29.5209657,23.3927855 Z M12.5926933,54.1427339 L11.8130173,56.0564978 C11.3759157,57.1314846 11.8957393,58.3718399 12.970737,58.8089307 L12.970737,58.8089307 L21.6179385,62.3528339 C21.8660182,62.4591553 22.1377189,62.506408 22.4094196,62.506408 C23.27185,62.506408 24.0396561,61.9984651 24.3586095,61.2069841 L24.3586095,61.2069841 L25.0198998,59.5767476 L12.5926933,54.1427339 Z M63.4001811,54.1419563 L50.9729746,59.5759699 L51.6345132,61.1943365 C51.9652286,61.9976767 52.7331103,62.5056412 53.5954759,62.5056412 C53.8671766,62.5056412 54.1388773,62.4583863 54.386957,62.352067 L54.386957,62.352067 L63.0340181,58.808153 C64.1089779,58.3711595 64.6287529,57.1307178 64.179857,56.0557201 L64.179857,56.0557201 L63.4001811,54.1419563 Z M16.337715,45.0821382 C16.3022695,45.1766438 16.2550167,45.2829652 16.2195777,45.3774707 L16.2195777,45.3774707 L13.2427077,52.6307427 L25.6580335,58.0647564 L28.6112825,50.8587371 C28.6585353,50.7405998 28.6939743,50.6224712 28.7530408,50.5161519 L28.7530408,50.5161519 Z M59.6668996,45.0812634 L47.2515738,50.515277 C47.2988266,50.6215985 47.3460793,50.7279091 47.3933321,50.8460464 L47.3933321,50.8460464 L50.3466568,58.0521196 L62.7619502,52.6180736 L61.4388728,49.4048857 L59.9267844,45.7191703 C59.8440948,45.4947223 59.7495914,45.2820903 59.6668996,45.0812634 L59.6668996,45.0812634 Z M20.8966615,48.1891181 C22.5505622,48.1891181 23.9799394,49.4295706 24.1925822,51.0715906 C24.3107195,51.9457937 24.0862608,52.8199428 23.5428594,53.5287342 C23.0112523,54.2256558 22.2315656,54.6863675 21.345579,54.8045048 C21.1920156,54.8163174 21.0384414,54.8281312 20.8966831,54.8281312 C19.2428148,54.8280232 17.8252104,53.575798 17.6125675,51.9574314 C17.4944302,51.0714556 17.718889,50.1973065 18.2622903,49.488515 C18.7938974,48.7797776 19.5853893,48.3308817 20.4595708,48.2127444 C20.6013291,48.2009318 20.7549032,48.1891181 20.8966615,48.1891181 Z M55.1080179,48.1772374 C55.2497762,48.1772374 55.4033504,48.1772374 55.5451087,48.2008637 C56.4311277,48.30725 57.2108015,48.7680049 57.754205,49.4767423 C58.2976085,50.1854798 58.5220651,51.0596721 58.4039278,51.9456587 C58.1912634,53.5877867 56.7736805,54.8281312 55.1080071,54.8281312 C54.9662488,54.8281312 54.8126746,54.8281312 54.6709164,54.8045048 C52.851658,54.5564143 51.5640175,52.8789682 51.8120972,51.0597099 C52.0247617,49.4175819 53.4423445,48.1772374 55.1080179,48.1772374 Z M20.9084666,49.8311564 C20.8375929,49.8311564 20.7548978,49.8311564 20.6840187,49.8429701 C20.2351445,49.902028 19.8453065,50.1264867 19.5736058,50.480877 C19.3019029,50.8352349 19.1837699,51.2723257 19.2428364,51.7330374 C19.3609953,52.5599446 20.069776,53.1860464 20.9085098,53.1860464 C20.9793836,53.1860464 21.0620786,53.1860464 21.1329577,53.1742326 C21.581832,53.1033589 21.9716678,52.8788678 22.2433707,52.5245099 C22.5150735,52.1701519 22.6332065,51.7212561 22.57414,51.2841654 C22.4559811,50.4572582 21.7472004,49.8311564 20.9084666,49.8311564 Z M55.1081043,49.83107 C54.2693489,49.83107 53.5487502,50.457161 53.4424309,51.2840789 C53.324272,52.1937297 53.9622437,53.0324744 54.8836672,53.1624168 C54.9545409,53.1742305 55.037236,53.1742305 55.1081151,53.1742305 C55.9349899,53.1742305 56.6555885,52.5481395 56.7619078,51.7212215 C56.8209872,51.2722717 56.7028499,50.8351809 56.4429651,50.4807906 C56.1712861,50.1264003 55.7814481,49.9019502 55.3325522,49.8428837 C55.2616785,49.83107 55.1789835,49.83107 55.1081043,49.83107 Z M29.4977335,27.1617522 L26.4617841,34.5686092 C26.3909103,34.7221834 26.2845889,34.8521258 26.1428306,34.9466313 C24.7843272,35.8207264 23.6738603,36.4941242 22.7760578,37.0375255 C19.4211657,39.0575676 18.7359736,39.4710158 16.964022,43.5584067 L16.964022,43.5584067 L29.3555864,48.9806477 C31.0921768,44.5625415 30.9031117,43.8419233 29.9108037,39.9554241 C29.6509189,38.9395167 29.3319546,37.6755188 28.9775643,36.104351 C28.9421253,35.9389609 28.9657506,35.7617658 29.0248171,35.6081916 L29.0248171,35.6081916 L32.0493827,28.2131289 L29.4977335,27.1617522 Z M46.4838217,27.1491155 L43.9321726,28.2004921 L46.9681221,35.6073491 C47.0390012,35.7609233 47.0508138,35.9381293 47.0153748,36.1035085 C46.6609845,37.6746764 46.3420203,38.9386527 46.0821355,39.9545817 C45.0902271,43.8410593 44.901216,44.5616774 46.6259689,48.968011 L46.6259689,48.968011 L59.0175333,43.54577 C57.2574624,39.4583791 56.5722703,39.0449309 53.2054975,37.0248888 C52.307641,36.481509 51.1972281,35.8081761 49.8387247,34.9339946 C49.6969664,34.839489 49.5788377,34.7095466 49.5197712,34.5559725 L49.5197712,34.5559725 L46.4838217,27.1491155 Z M30.2888042,25.2361508 L30.13523,25.6259888 L32.6868792,26.6773655 L32.8404534,26.2875275 L30.2888042,25.2361508 Z M45.7041134,25.235006 L43.1524642,26.2863826 L43.3178435,26.6762206 L45.8694926,25.624844 L45.7041134,25.235006 Z M32.7357331,19.2803882 L32.8406694,19.2821732 C33.0414531,19.3058266 37.5540649,19.7192747 40.5073896,21.5503058 C40.89726,21.786548 41.0153865,22.3063284 40.7791226,22.6961663 C40.6137326,22.9442461 40.3420319,23.0860043 40.0703312,23.0860043 C39.916757,23.0860043 39.7631829,23.0387537 39.6332405,22.9560619 C37.0225118,21.3376737 32.7461638,20.9360199 32.6989111,20.9360199 C32.2381993,20.8887671 31.8956141,20.4989291 31.9428669,20.0382174 C31.9901196,19.5775056 32.3799576,19.2467341 32.8406694,19.2821732 Z M34.2348149,12.5483251 C34.4828514,12.1584639 34.9908159,12.0403606 35.3806539,12.2884403 C35.5933183,12.4183719 40.6138838,15.6197871 42.9410958,19.5062863 C43.1773596,19.8961243 43.0474172,20.4040888 42.6575793,20.6403526 C42.5276369,20.7230508 42.3740627,20.7584899 42.2323044,20.7584899 C41.9487878,20.7584899 41.6770871,20.6167208 41.523513,20.356836 C39.6686378,17.2652518 35.7370987,14.5243017 34.7321624,13.8513425 L34.6065712,13.7678226 C34.537546,13.7222502 34.4986996,13.6971586 34.4946781,13.6941425 C34.1048576,13.4461276 33.9867784,12.9381523 34.2348149,12.5483251 Z M47.1818752,11.3673171 C47.4299117,10.989295 47.9496921,10.8829844 48.3277142,11.1428692 C48.7057363,11.3909057 48.8002418,11.9106861 48.5521621,12.2887082 C48.516736,12.3360149 46.1540979,15.9154522 45.7760758,18.9514017 C45.728823,19.3648606 45.3744219,19.672009 44.960963,19.672009 L44.960963,19.672009 L44.8547171,19.6601391 C44.3940054,19.6010705 44.0750466,19.1876115 44.1459257,18.7505207 C44.5593739,15.3128958 47.0755559,11.5208913 47.1818752,11.3673171 Z M25.6343639,12.9499574 C25.7997432,12.5246847 26.2840867,12.3238664 26.7093615,12.4892457 C26.8864919,12.5600978 31.0920417,14.2494246 33.3956004,16.8482725 C33.7027434,17.1908469 33.6673065,17.7106165 33.3247213,18.0177649 C33.1711579,18.1595285 32.9821468,18.2304077 32.7813199,18.2304077 C32.556872,18.2304077 32.3324133,18.1359022 32.167034,17.9468911 C30.1234465,15.6433324 26.1423467,14.0367796 26.1069077,14.0249658 C25.6816167,13.8595758 25.4807897,13.3752323 25.6343639,12.9499574 Z" id="Combined-Shape" fill="#3CDC87" fill-rule="nonzero"></path>
        </g>
    </g>
</svg>