<?xml version="1.0" encoding="UTF-8"?>
<svg width="76px" height="76px" viewBox="0 0 76 76" version="1.1" xmlns="http://www.w3.org/2000/svg" xmlns:xlink="http://www.w3.org/1999/xlink">
    <title>ic_waste2</title>
    <g id="Page-1" stroke="none" stroke-width="1" fill="none" fill-rule="evenodd">
        <g id="ic_waste2">
            <rect id="Rectangle" x="0" y="0" width="76" height="76"></rect>
            <path d="M26.1069077,14.0249658 C26.1423467,14.0367796 30.1234465,15.6433324 32.167034,17.9468911 C32.3324133,18.1359022 32.556872,18.2304077 32.7813199,18.2304077 C32.9821468,18.2304077 33.1711579,18.1595285 33.3247213,18.0177649 C33.6673065,17.7106165 33.7027434,17.1908469 33.3956004,16.8482725 C31.0920417,14.2494246 26.8864919,12.5600978 26.7093615,12.4892457 C26.2840867,12.3238664 25.7997432,12.5246847 25.6343639,12.9499574 C25.4807897,13.3752323 25.6816167,13.8595758 26.1068915,14.024955 L26.1069077,14.0249658 Z" id="Path" fill="#3CDC87" fill-rule="nonzero"></path>
            <path d="M65.7160633,55.4297263 L63.0581359,48.9442712 L60.8962815,43.6637345 C60.8844678,43.6282955 60.8608425,43.5810427 60.837215,43.5455972 C58.7107867,38.5250317 57.9193164,37.9225725 54.080124,35.6071331 C53.2413901,35.0991686 52.2136669,34.4848395 50.9732143,33.6933692 L46.9331302,23.8411413 C46.755935,23.4158664 46.2715915,23.2150395 45.8581325,23.3922454 L41.7707416,25.0696915 C41.5699146,25.1523833 41.4045354,25.3177712 41.3218457,25.5185873 C41.2391561,25.7194035 41.2391539,25.9438622 41.3218457,26.1564942 L45.3619299,36.0087222 C45.0429765,37.4380778 44.7358281,38.6075701 44.4995643,39.5645061 C43.2827652,44.3134357 43.2355664,45.0458265 45.8817211,51.4959636 L50.122697,61.8442645 C50.7015461,63.2618474 52.071887,64.1714766 53.6076288,64.1714766 C54.0919723,64.1714766 54.5763158,64.0769711 55.0252116,63.88796 L63.6724131,60.3440568 C65.586177,59.5525758 66.5075789,57.3553061 65.7161086,55.4297695 L65.7160633,55.4297263 Z M43.1524642,26.2863826 L45.7041134,25.235006 L45.8694926,25.624844 L43.3178435,26.6762206 L43.1524642,26.2863826 Z M46.0821355,39.9545817 C46.3420203,38.9386527 46.6609845,37.6746764 47.0153748,36.1035085 C47.0508138,35.9381293 47.0390012,35.7609233 46.9681221,35.6073491 L43.9321726,28.2004921 L46.4838217,27.1491155 L49.5197712,34.5559725 C49.5788377,34.7095466 49.6969664,34.839489 49.8387247,34.9339946 C51.1972281,35.8081761 52.307641,36.481509 53.2054975,37.0248888 C56.5722703,39.0449309 57.2574624,39.4583791 59.0175333,43.54577 L46.6259689,48.968011 C44.901216,44.5616774 45.0902271,43.8410593 46.0825675,39.9545601 L46.0821355,39.9545817 Z M50.3466568,58.0521196 L47.3933321,50.8460464 C47.3460793,50.7279091 47.2988266,50.6215985 47.2515738,50.515277 L59.6668996,45.0812634 C59.7495914,45.2820903 59.8440948,45.4947223 59.9267844,45.7191703 L61.4388728,49.4048857 L62.7619502,52.6180736 L50.3466568,58.0521196 Z M63.0341585,58.8081638 L54.386957,62.352067 C54.1388773,62.4583863 53.8671766,62.5056412 53.5954759,62.5056412 C52.7331103,62.5056412 51.9652286,61.9976767 51.6345132,61.1943365 L50.9729746,59.5759699 L63.4001811,54.1419563 L64.179857,56.0557201 C64.6287529,57.1307178 64.1089779,58.3711595 63.0340181,58.808153 L63.0341585,58.8081638 Z M38.7703226,35.2778037 L37.1562867,34.3459396 C36.4836229,33.957577 35.7743019,34.0555601 35.4633179,34.5858086 L33.1432264,38.6043249 L30.3910876,37.0157047 L30.3208898,36.8105997 C30.1707605,36.3855883 29.7566947,35.9160501 29.3152321,35.6611716 L28.1736991,35.0021072 C27.7288676,34.7452836 27.1153629,34.6212264 26.6720489,34.7039405 L26.4557148,34.7436161 L23.706859,33.1565635 L26.0270958,29.1377953 C26.3323129,28.6091439 26.0611655,27.9398248 25.3921231,27.553553 L23.7746998,26.6197332 C23.1333227,26.249434 22.3049812,26.4813133 21.9265126,27.1368401 L8.75497815,49.950607 C8.37650959,50.6061337 8.58786815,51.4429003 9.22924528,51.8131995 L24.2253002,60.4711759 C24.8666773,60.8414751 25.6968614,60.6064044 26.0754862,59.950607 L39.2470207,37.1368401 C39.6256346,36.4810615 39.408763,35.6460638 38.7705084,35.2775673 L38.7703226,35.2778037 Z M24.4978133,28.8000738 L22.3364286,32.543702 C21.9558159,33.2029426 22.1693186,34.0359953 22.8143294,34.4083924 L25.925261,36.2044896 C25.9666407,36.2283802 26.0087709,36.2431966 26.0541208,36.2601993 C26.0698215,36.2646741 26.0822952,36.2669583 26.0962491,36.2750146 C26.1297793,36.2802757 26.1635503,36.2856758 26.1883588,36.2904916 C26.2061889,36.2912783 26.2274856,36.2943938 26.245315,36.2951802 C26.2721093,36.2965523 26.2989029,36.2979241 26.3276838,36.295854 C26.345754,36.2967794 26.3675592,36.290681 26.3853892,36.2914677 C26.399851,36.2903097 26.4108028,36.2874526 26.4272518,36.2828527 L26.9062876,36.2020716 C26.9913932,36.190228 27.2521151,36.2325682 27.4106549,36.3241011 L28.5521879,36.9831655 C28.7073588,37.0727535 28.8743865,37.2773797 28.9050622,37.3514738 L29.0760026,37.8121097 C29.0768748,37.8267109 29.083245,37.839568 29.0894731,37.8526712 C29.0990694,37.8677191 29.10469,37.8896518 29.1145271,37.9048387 C29.127125,37.9307997 29.1417105,37.9533182 29.1596639,37.9777803 C29.165892,37.9908836 29.1792385,38.0077693 29.1888348,38.0228172 C29.2090163,38.0439765 29.22697,38.0684396 29.2469118,38.0894605 C29.2642335,38.0994611 29.2725909,38.1088761 29.2841747,38.1204817 C29.3214376,38.1515029 29.3554758,38.180335 29.3968506,38.2042227 L32.5077821,40.0003199 C33.152793,40.3727171 33.9809891,40.1410895 34.3616019,39.4818489 L36.5209991,35.7416633 L37.8797529,36.5261402 L26.1306442,56.8761933 L11.3932588,48.3675599 L23.1423674,28.0175067 L24.4978133,28.8000738 Z M10.1253056,50.5637605 L10.6301362,49.6893681 L25.3638264,58.1958681 L24.8591411,59.0700087 L10.1253056,50.5637605 Z" id="Shape" fill="#3CDC87" fill-rule="nonzero"></path>
            <path d="M44.8546437,19.6601953 C44.8900827,19.6601953 44.9255228,19.672009 44.960963,19.672009 C45.3744219,19.672009 45.728823,19.3648606 45.7760758,18.9514017 C46.1540979,15.9154522 48.516736,12.3360149 48.5521621,12.2887082 C48.8002418,11.9106861 48.7057363,11.3909057 48.3277142,11.1428692 C47.9496921,10.8829844 47.4299117,10.989295 47.1818752,11.3673171 C47.0755559,11.5208913 44.5593739,15.3128958 44.1459257,18.7505207 C44.0750466,19.1876115 44.3940054,19.6010705 44.8547171,19.6601391 L44.8546437,19.6601953 Z" id="Path" fill="#3CDC87" fill-rule="nonzero"></path>
            <path d="M40.5073896,21.5503058 C37.5540649,19.7192747 33.0414531,19.3058266 32.8406694,19.2821732 C32.3799576,19.2467341 31.9901196,19.5775056 31.9428669,20.0382174 C31.8956141,20.4989291 32.2381993,20.8887671 32.6989111,20.9360199 C32.7461638,20.9360199 37.0225118,21.3376737 39.6332405,22.9560619 C39.7631829,23.0387537 39.916757,23.0860043 40.0703312,23.0860043 C40.3420319,23.0860043 40.6137326,22.9442461 40.7791226,22.6961663 C41.0153865,22.3063284 40.89726,21.786548 40.507422,21.5503274 L40.5073896,21.5503058 Z" id="Path" fill="#3CDC87" fill-rule="nonzero"></path>
            <path d="M34.4946781,13.6941425 C34.5419308,13.7295815 39.3971927,16.8128248 41.523513,20.356836 C41.6770871,20.6167208 41.9487878,20.7584899 42.2323044,20.7584899 C42.3740627,20.7584899 42.5276369,20.7230508 42.6575793,20.6403526 C43.0474172,20.4040888 43.1773596,19.8961243 42.9410958,19.5062863 C40.6138838,15.6197871 35.5933183,12.4183719 35.3806539,12.2884403 C34.9908159,12.0403606 34.4828514,12.1584639 34.2348149,12.5483251 C33.9867784,12.9381523 34.1048576,13.4461276 34.4946997,13.6941641 L34.4946781,13.6941425 Z" id="Path" fill="#3CDC87" fill-rule="nonzero"></path>
            <path d="M55.5451087,48.2008637 C55.4033504,48.1772374 55.2497762,48.1772374 55.1080179,48.1772374 C53.4423445,48.1772374 52.0247617,49.4175819 51.8120972,51.0597099 C51.5640175,52.8789682 52.851658,54.5564143 54.6709164,54.8045048 C54.8126746,54.8281312 54.9662488,54.8281312 55.1080071,54.8281312 C56.7736805,54.8281312 58.1912634,53.5877867 58.4039278,51.9456587 C58.5220651,51.0596721 58.2976085,50.1854798 57.754205,49.4767423 C57.2108015,48.7680049 56.4311277,48.30725 55.5451519,48.2009718 L55.5451087,48.2008637 Z M56.7619078,51.7212215 C56.6555885,52.5481395 55.9349899,53.1742305 55.1081151,53.1742305 C55.037236,53.1742305 54.9545409,53.1742305 54.8836672,53.1624168 C53.9622437,53.0324744 53.324272,52.1937297 53.4424309,51.2840789 C53.5487502,50.457161 54.2693489,49.83107 55.1081043,49.83107 C55.1789835,49.83107 55.2616785,49.83107 55.3325522,49.8428837 C55.7814481,49.9019502 56.1712861,50.1264003 56.4429651,50.4807906 C56.7028499,50.8351809 56.8209872,51.2722717 56.7619186,51.7211351 L56.7619078,51.7212215 Z" id="Shape" fill="#3CDC87" fill-rule="nonzero"></path>
        </g>
    </g>
</svg>