<?xml version="1.0" encoding="UTF-8"?>
<svg width="1016px" height="1016px" viewBox="0 0 1016 1016" version="1.1" xmlns="http://www.w3.org/2000/svg" xmlns:xlink="http://www.w3.org/1999/xlink">
    <title>circle_flake</title>
    <g id="Page-4" stroke="none" stroke-width="1" fill="none" fill-rule="evenodd">
        <g id="circle_flake">
            <circle id="Oval-Copy-4" stroke-opacity="0.05" stroke="#009999" stroke-width="100" cx="508" cy="508" r="458"></circle>
            <g id="Group-57" transform="translate(35.000000, 55.000000)">
                <g id="Mask" transform="translate(0.000000, 260.000000)" fill="#057EC2">
                    <circle id="Oval" cx="16" cy="28" r="4"></circle>
                    <circle id="Oval" cx="4" cy="28" r="4"></circle>
                    <circle id="Oval" cx="40" cy="16" r="4"></circle>
                    <circle id="Oval" cx="40" cy="4" r="4"></circle>
                    <circle id="Oval" cx="40" cy="28" r="4"></circle>
                    <circle id="Oval" cx="16" cy="16" r="4"></circle>
                    <circle id="Oval" cx="52" cy="16" r="4"></circle>
                    <circle id="Oval" cx="52" cy="4" r="4"></circle>
                    <circle id="Oval" cx="64" cy="28" r="4"></circle>
                    <circle id="Oval" cx="76" cy="28" r="4"></circle>
                    <circle id="Oval" cx="28" cy="28" r="4"></circle>
                    <circle id="Oval" cx="64" cy="16" r="4"></circle>
                    <circle id="Oval" cx="64" cy="40" r="4"></circle>
                    <circle id="Oval" cx="76" cy="40" r="4"></circle>
                    <circle id="Oval" cx="16" cy="52" r="4"></circle>
                    <circle id="Oval" cx="4" cy="52" r="4"></circle>
                    <circle id="Oval" cx="16" cy="64" r="4"></circle>
                    <circle id="Oval" cx="28" cy="52" r="4"></circle>
                    <circle id="Oval" cx="28" cy="64" r="4"></circle>
                    <circle id="Oval" cx="28" cy="76" r="4"></circle>
                    <circle id="Oval" cx="52" cy="52" r="4"></circle>
                    <circle id="Oval" cx="52" cy="64" r="4"></circle>
                    <circle id="Oval" cx="52" cy="76" r="4"></circle>
                    <circle id="Oval" cx="40" cy="52" r="4"></circle>
                    <circle id="Oval" cx="40" cy="64" r="4"></circle>
                    <circle id="Oval" cx="40" cy="76" r="4"></circle>
                    <circle id="Oval" cx="64" cy="52" r="4"></circle>
                    <circle id="Oval" cx="76" cy="52" r="4"></circle>
                    <circle id="Oval" cx="64" cy="64" r="4"></circle>
                    <circle id="Oval" cx="16" cy="40" r="4"></circle>
                    <circle id="Oval" cx="4" cy="40" r="4"></circle>
                    <circle id="Oval" cx="28" cy="16" r="4"></circle>
                    <circle id="Oval" cx="28" cy="4" r="4"></circle>
                    <circle id="Oval" cx="40" cy="40" r="4"></circle>
                    <circle id="Oval" cx="28" cy="40" r="4"></circle>
                    <circle id="Oval" cx="52" cy="28" r="4"></circle>
                    <circle id="Oval" cx="52" cy="40" r="4"></circle>
                </g>
                <g id="Mask" transform="translate(97.000000, 100.000000)" fill="#009999">
                    <circle id="Oval" cx="16" cy="28" r="4"></circle>
                    <circle id="Oval" cx="4" cy="28" r="4"></circle>
                    <circle id="Oval" cx="40" cy="16" r="4"></circle>
                    <circle id="Oval" cx="40" cy="4" r="4"></circle>
                    <circle id="Oval" cx="40" cy="28" r="4"></circle>
                    <circle id="Oval" cx="16" cy="16" r="4"></circle>
                    <circle id="Oval" cx="52" cy="16" r="4"></circle>
                    <circle id="Oval" cx="52" cy="4" r="4"></circle>
                    <circle id="Oval" cx="64" cy="28" r="4"></circle>
                    <circle id="Oval" cx="76" cy="28" r="4"></circle>
                    <circle id="Oval" cx="28" cy="28" r="4"></circle>
                    <circle id="Oval" cx="64" cy="16" r="4"></circle>
                    <circle id="Oval" cx="64" cy="40" r="4"></circle>
                    <circle id="Oval" cx="76" cy="40" r="4"></circle>
                    <circle id="Oval" cx="16" cy="52" r="4"></circle>
                    <circle id="Oval" cx="4" cy="52" r="4"></circle>
                    <circle id="Oval" cx="16" cy="64" r="4"></circle>
                    <circle id="Oval" cx="28" cy="52" r="4"></circle>
                    <circle id="Oval" cx="28" cy="64" r="4"></circle>
                    <circle id="Oval" cx="28" cy="76" r="4"></circle>
                    <circle id="Oval" cx="52" cy="52" r="4"></circle>
                    <circle id="Oval" cx="52" cy="64" r="4"></circle>
                    <circle id="Oval" cx="52" cy="76" r="4"></circle>
                    <circle id="Oval" cx="40" cy="52" r="4"></circle>
                    <circle id="Oval" cx="40" cy="64" r="4"></circle>
                    <circle id="Oval" cx="40" cy="76" r="4"></circle>
                    <circle id="Oval" cx="64" cy="52" r="4"></circle>
                    <circle id="Oval" cx="76" cy="52" r="4"></circle>
                    <circle id="Oval" cx="64" cy="64" r="4"></circle>
                    <circle id="Oval" cx="16" cy="40" r="4"></circle>
                    <circle id="Oval" cx="4" cy="40" r="4"></circle>
                    <circle id="Oval" cx="28" cy="16" r="4"></circle>
                    <circle id="Oval" cx="28" cy="4" r="4"></circle>
                    <circle id="Oval" cx="40" cy="40" r="4"></circle>
                    <circle id="Oval" cx="28" cy="40" r="4"></circle>
                    <circle id="Oval" cx="52" cy="28" r="4"></circle>
                    <circle id="Oval" cx="52" cy="40" r="4"></circle>
                </g>
                <g id="Mask" transform="translate(241.000000, 0.000000)" fill="#F99E1A">
                    <circle id="Oval" cx="16" cy="28" r="4"></circle>
                    <circle id="Oval" cx="4" cy="28" r="4"></circle>
                    <circle id="Oval" cx="40" cy="16" r="4"></circle>
                    <circle id="Oval" cx="40" cy="4" r="4"></circle>
                    <circle id="Oval" cx="40" cy="28" r="4"></circle>
                    <circle id="Oval" cx="16" cy="16" r="4"></circle>
                    <circle id="Oval" cx="52" cy="16" r="4"></circle>
                    <circle id="Oval" cx="52" cy="4" r="4"></circle>
                    <circle id="Oval" cx="64" cy="28" r="4"></circle>
                    <circle id="Oval" cx="76" cy="28" r="4"></circle>
                    <circle id="Oval" cx="28" cy="28" r="4"></circle>
                    <circle id="Oval" cx="64" cy="16" r="4"></circle>
                    <circle id="Oval" cx="64" cy="40" r="4"></circle>
                    <circle id="Oval" cx="76" cy="40" r="4"></circle>
                    <circle id="Oval" cx="16" cy="52" r="4"></circle>
                    <circle id="Oval" cx="4" cy="52" r="4"></circle>
                    <circle id="Oval" cx="16" cy="64" r="4"></circle>
                    <circle id="Oval" cx="28" cy="52" r="4"></circle>
                    <circle id="Oval" cx="28" cy="64" r="4"></circle>
                    <circle id="Oval" cx="28" cy="76" r="4"></circle>
                    <circle id="Oval" cx="52" cy="52" r="4"></circle>
                    <circle id="Oval" cx="52" cy="64" r="4"></circle>
                    <circle id="Oval" cx="52" cy="76" r="4"></circle>
                    <circle id="Oval" cx="40" cy="52" r="4"></circle>
                    <circle id="Oval" cx="40" cy="64" r="4"></circle>
                    <circle id="Oval" cx="40" cy="76" r="4"></circle>
                    <circle id="Oval" cx="64" cy="52" r="4"></circle>
                    <circle id="Oval" cx="76" cy="52" r="4"></circle>
                    <circle id="Oval" cx="64" cy="64" r="4"></circle>
                    <circle id="Oval" cx="16" cy="40" r="4"></circle>
                    <circle id="Oval" cx="4" cy="40" r="4"></circle>
                    <circle id="Oval" cx="28" cy="16" r="4"></circle>
                    <circle id="Oval" cx="28" cy="4" r="4"></circle>
                    <circle id="Oval" cx="40" cy="40" r="4"></circle>
                    <circle id="Oval" cx="28" cy="40" r="4"></circle>
                    <circle id="Oval" cx="52" cy="28" r="4"></circle>
                    <circle id="Oval" cx="52" cy="40" r="4"></circle>
                </g>
            </g>
            <g id="Group-57-Copy" transform="translate(725.000000, 200.000000) scale(-1, 1) translate(-725.000000, -200.000000) translate(468.000000, 5.000000)">
                <g id="Mask" transform="translate(0.000000, 310.000000)" fill="#057EC2">
                    <circle id="Oval" cx="16" cy="28" r="4"></circle>
                    <circle id="Oval" cx="4" cy="28" r="4"></circle>
                    <circle id="Oval" cx="40" cy="16" r="4"></circle>
                    <circle id="Oval" cx="40" cy="4" r="4"></circle>
                    <circle id="Oval" cx="40" cy="28" r="4"></circle>
                    <circle id="Oval" cx="16" cy="16" r="4"></circle>
                    <circle id="Oval" cx="52" cy="16" r="4"></circle>
                    <circle id="Oval" cx="52" cy="4" r="4"></circle>
                    <circle id="Oval" cx="64" cy="28" r="4"></circle>
                    <circle id="Oval" cx="76" cy="28" r="4"></circle>
                    <circle id="Oval" cx="28" cy="28" r="4"></circle>
                    <circle id="Oval" cx="64" cy="16" r="4"></circle>
                    <circle id="Oval" cx="64" cy="40" r="4"></circle>
                    <circle id="Oval" cx="76" cy="40" r="4"></circle>
                    <circle id="Oval" cx="16" cy="52" r="4"></circle>
                    <circle id="Oval" cx="4" cy="52" r="4"></circle>
                    <circle id="Oval" cx="16" cy="64" r="4"></circle>
                    <circle id="Oval" cx="28" cy="52" r="4"></circle>
                    <circle id="Oval" cx="28" cy="64" r="4"></circle>
                    <circle id="Oval" cx="28" cy="76" r="4"></circle>
                    <circle id="Oval" cx="52" cy="52" r="4"></circle>
                    <circle id="Oval" cx="52" cy="64" r="4"></circle>
                    <circle id="Oval" cx="52" cy="76" r="4"></circle>
                    <circle id="Oval" cx="40" cy="52" r="4"></circle>
                    <circle id="Oval" cx="40" cy="64" r="4"></circle>
                    <circle id="Oval" cx="40" cy="76" r="4"></circle>
                    <circle id="Oval" cx="64" cy="52" r="4"></circle>
                    <circle id="Oval" cx="76" cy="52" r="4"></circle>
                    <circle id="Oval" cx="64" cy="64" r="4"></circle>
                    <circle id="Oval" cx="16" cy="40" r="4"></circle>
                    <circle id="Oval" cx="4" cy="40" r="4"></circle>
                    <circle id="Oval" cx="28" cy="16" r="4"></circle>
                    <circle id="Oval" cx="28" cy="4" r="4"></circle>
                    <circle id="Oval" cx="40" cy="40" r="4"></circle>
                    <circle id="Oval" cx="28" cy="40" r="4"></circle>
                    <circle id="Oval" cx="52" cy="28" r="4"></circle>
                    <circle id="Oval" cx="52" cy="40" r="4"></circle>
                </g>
                <g id="Mask" transform="translate(97.000000, 150.000000)" fill="#009999">
                    <circle id="Oval" cx="16" cy="28" r="4"></circle>
                    <circle id="Oval" cx="4" cy="28" r="4"></circle>
                    <circle id="Oval" cx="40" cy="16" r="4"></circle>
                    <circle id="Oval" cx="40" cy="4" r="4"></circle>
                    <circle id="Oval" cx="40" cy="28" r="4"></circle>
                    <circle id="Oval" cx="16" cy="16" r="4"></circle>
                    <circle id="Oval" cx="52" cy="16" r="4"></circle>
                    <circle id="Oval" cx="52" cy="4" r="4"></circle>
                    <circle id="Oval" cx="64" cy="28" r="4"></circle>
                    <circle id="Oval" cx="76" cy="28" r="4"></circle>
                    <circle id="Oval" cx="28" cy="28" r="4"></circle>
                    <circle id="Oval" cx="64" cy="16" r="4"></circle>
                    <circle id="Oval" cx="64" cy="40" r="4"></circle>
                    <circle id="Oval" cx="76" cy="40" r="4"></circle>
                    <circle id="Oval" cx="16" cy="52" r="4"></circle>
                    <circle id="Oval" cx="4" cy="52" r="4"></circle>
                    <circle id="Oval" cx="16" cy="64" r="4"></circle>
                    <circle id="Oval" cx="28" cy="52" r="4"></circle>
                    <circle id="Oval" cx="28" cy="64" r="4"></circle>
                    <circle id="Oval" cx="28" cy="76" r="4"></circle>
                    <circle id="Oval" cx="52" cy="52" r="4"></circle>
                    <circle id="Oval" cx="52" cy="64" r="4"></circle>
                    <circle id="Oval" cx="52" cy="76" r="4"></circle>
                    <circle id="Oval" cx="40" cy="52" r="4"></circle>
                    <circle id="Oval" cx="40" cy="64" r="4"></circle>
                    <circle id="Oval" cx="40" cy="76" r="4"></circle>
                    <circle id="Oval" cx="64" cy="52" r="4"></circle>
                    <circle id="Oval" cx="76" cy="52" r="4"></circle>
                    <circle id="Oval" cx="64" cy="64" r="4"></circle>
                    <circle id="Oval" cx="16" cy="40" r="4"></circle>
                    <circle id="Oval" cx="4" cy="40" r="4"></circle>
                    <circle id="Oval" cx="28" cy="16" r="4"></circle>
                    <circle id="Oval" cx="28" cy="4" r="4"></circle>
                    <circle id="Oval" cx="40" cy="40" r="4"></circle>
                    <circle id="Oval" cx="28" cy="40" r="4"></circle>
                    <circle id="Oval" cx="52" cy="28" r="4"></circle>
                    <circle id="Oval" cx="52" cy="40" r="4"></circle>
                </g>
                <g id="Mask" transform="translate(434.000000, 0.000000)" fill="#009999">
                    <circle id="Oval" cx="16" cy="28" r="4"></circle>
                    <circle id="Oval" cx="4" cy="28" r="4"></circle>
                    <circle id="Oval" cx="40" cy="16" r="4"></circle>
                    <circle id="Oval" cx="40" cy="4" r="4"></circle>
                    <circle id="Oval" cx="40" cy="28" r="4"></circle>
                    <circle id="Oval" cx="16" cy="16" r="4"></circle>
                    <circle id="Oval" cx="52" cy="16" r="4"></circle>
                    <circle id="Oval" cx="52" cy="4" r="4"></circle>
                    <circle id="Oval" cx="64" cy="28" r="4"></circle>
                    <circle id="Oval" cx="76" cy="28" r="4"></circle>
                    <circle id="Oval" cx="28" cy="28" r="4"></circle>
                    <circle id="Oval" cx="64" cy="16" r="4"></circle>
                    <circle id="Oval" cx="64" cy="40" r="4"></circle>
                    <circle id="Oval" cx="76" cy="40" r="4"></circle>
                    <circle id="Oval" cx="16" cy="52" r="4"></circle>
                    <circle id="Oval" cx="4" cy="52" r="4"></circle>
                    <circle id="Oval" cx="16" cy="64" r="4"></circle>
                    <circle id="Oval" cx="28" cy="52" r="4"></circle>
                    <circle id="Oval" cx="28" cy="64" r="4"></circle>
                    <circle id="Oval" cx="28" cy="76" r="4"></circle>
                    <circle id="Oval" cx="52" cy="52" r="4"></circle>
                    <circle id="Oval" cx="52" cy="64" r="4"></circle>
                    <circle id="Oval" cx="52" cy="76" r="4"></circle>
                    <circle id="Oval" cx="40" cy="52" r="4"></circle>
                    <circle id="Oval" cx="40" cy="64" r="4"></circle>
                    <circle id="Oval" cx="40" cy="76" r="4"></circle>
                    <circle id="Oval" cx="64" cy="52" r="4"></circle>
                    <circle id="Oval" cx="76" cy="52" r="4"></circle>
                    <circle id="Oval" cx="64" cy="64" r="4"></circle>
                    <circle id="Oval" cx="16" cy="40" r="4"></circle>
                    <circle id="Oval" cx="4" cy="40" r="4"></circle>
                    <circle id="Oval" cx="28" cy="16" r="4"></circle>
                    <circle id="Oval" cx="28" cy="4" r="4"></circle>
                    <circle id="Oval" cx="40" cy="40" r="4"></circle>
                    <circle id="Oval" cx="28" cy="40" r="4"></circle>
                    <circle id="Oval" cx="52" cy="28" r="4"></circle>
                    <circle id="Oval" cx="52" cy="40" r="4"></circle>
                </g>
                <g id="Mask" transform="translate(241.000000, 50.000000)" fill="#F99E1A">
                    <circle id="Oval" cx="16" cy="28" r="4"></circle>
                    <circle id="Oval" cx="4" cy="28" r="4"></circle>
                    <circle id="Oval" cx="40" cy="16" r="4"></circle>
                    <circle id="Oval" cx="40" cy="4" r="4"></circle>
                    <circle id="Oval" cx="40" cy="28" r="4"></circle>
                    <circle id="Oval" cx="16" cy="16" r="4"></circle>
                    <circle id="Oval" cx="52" cy="16" r="4"></circle>
                    <circle id="Oval" cx="52" cy="4" r="4"></circle>
                    <circle id="Oval" cx="64" cy="28" r="4"></circle>
                    <circle id="Oval" cx="76" cy="28" r="4"></circle>
                    <circle id="Oval" cx="28" cy="28" r="4"></circle>
                    <circle id="Oval" cx="64" cy="16" r="4"></circle>
                    <circle id="Oval" cx="64" cy="40" r="4"></circle>
                    <circle id="Oval" cx="76" cy="40" r="4"></circle>
                    <circle id="Oval" cx="16" cy="52" r="4"></circle>
                    <circle id="Oval" cx="4" cy="52" r="4"></circle>
                    <circle id="Oval" cx="16" cy="64" r="4"></circle>
                    <circle id="Oval" cx="28" cy="52" r="4"></circle>
                    <circle id="Oval" cx="28" cy="64" r="4"></circle>
                    <circle id="Oval" cx="28" cy="76" r="4"></circle>
                    <circle id="Oval" cx="52" cy="52" r="4"></circle>
                    <circle id="Oval" cx="52" cy="64" r="4"></circle>
                    <circle id="Oval" cx="52" cy="76" r="4"></circle>
                    <circle id="Oval" cx="40" cy="52" r="4"></circle>
                    <circle id="Oval" cx="40" cy="64" r="4"></circle>
                    <circle id="Oval" cx="40" cy="76" r="4"></circle>
                    <circle id="Oval" cx="64" cy="52" r="4"></circle>
                    <circle id="Oval" cx="76" cy="52" r="4"></circle>
                    <circle id="Oval" cx="64" cy="64" r="4"></circle>
                    <circle id="Oval" cx="16" cy="40" r="4"></circle>
                    <circle id="Oval" cx="4" cy="40" r="4"></circle>
                    <circle id="Oval" cx="28" cy="16" r="4"></circle>
                    <circle id="Oval" cx="28" cy="4" r="4"></circle>
                    <circle id="Oval" cx="40" cy="40" r="4"></circle>
                    <circle id="Oval" cx="28" cy="40" r="4"></circle>
                    <circle id="Oval" cx="52" cy="28" r="4"></circle>
                    <circle id="Oval" cx="52" cy="40" r="4"></circle>
                </g>
            </g>
            <g id="Mask" transform="translate(75.000000, 660.000000) scale(1, -1) translate(-75.000000, -660.000000) translate(35.000000, 620.000000)" fill="#057EC2">
                <circle id="Oval" cx="16" cy="28" r="4"></circle>
                <circle id="Oval" cx="4" cy="28" r="4"></circle>
                <circle id="Oval" cx="40" cy="16" r="4"></circle>
                <circle id="Oval" cx="40" cy="4" r="4"></circle>
                <circle id="Oval" cx="40" cy="28" r="4"></circle>
                <circle id="Oval" cx="16" cy="16" r="4"></circle>
                <circle id="Oval" cx="52" cy="16" r="4"></circle>
                <circle id="Oval" cx="52" cy="4" r="4"></circle>
                <circle id="Oval" cx="64" cy="28" r="4"></circle>
                <circle id="Oval" cx="76" cy="28" r="4"></circle>
                <circle id="Oval" cx="28" cy="28" r="4"></circle>
                <circle id="Oval" cx="64" cy="16" r="4"></circle>
                <circle id="Oval" cx="64" cy="40" r="4"></circle>
                <circle id="Oval" cx="76" cy="40" r="4"></circle>
                <circle id="Oval" cx="16" cy="52" r="4"></circle>
                <circle id="Oval" cx="4" cy="52" r="4"></circle>
                <circle id="Oval" cx="16" cy="64" r="4"></circle>
                <circle id="Oval" cx="28" cy="52" r="4"></circle>
                <circle id="Oval" cx="28" cy="64" r="4"></circle>
                <circle id="Oval" cx="28" cy="76" r="4"></circle>
                <circle id="Oval" cx="52" cy="52" r="4"></circle>
                <circle id="Oval" cx="52" cy="64" r="4"></circle>
                <circle id="Oval" cx="52" cy="76" r="4"></circle>
                <circle id="Oval" cx="40" cy="52" r="4"></circle>
                <circle id="Oval" cx="40" cy="64" r="4"></circle>
                <circle id="Oval" cx="40" cy="76" r="4"></circle>
                <circle id="Oval" cx="64" cy="52" r="4"></circle>
                <circle id="Oval" cx="76" cy="52" r="4"></circle>
                <circle id="Oval" cx="64" cy="64" r="4"></circle>
                <circle id="Oval" cx="16" cy="40" r="4"></circle>
                <circle id="Oval" cx="4" cy="40" r="4"></circle>
                <circle id="Oval" cx="28" cy="16" r="4"></circle>
                <circle id="Oval" cx="28" cy="4" r="4"></circle>
                <circle id="Oval" cx="40" cy="40" r="4"></circle>
                <circle id="Oval" cx="28" cy="40" r="4"></circle>
                <circle id="Oval" cx="52" cy="28" r="4"></circle>
                <circle id="Oval" cx="52" cy="40" r="4"></circle>
            </g>
            <g id="Mask" transform="translate(172.000000, 820.000000) scale(1, -1) translate(-172.000000, -820.000000) translate(132.000000, 780.000000)" fill="#009999">
                <circle id="Oval" cx="16" cy="28" r="4"></circle>
                <circle id="Oval" cx="4" cy="28" r="4"></circle>
                <circle id="Oval" cx="40" cy="16" r="4"></circle>
                <circle id="Oval" cx="40" cy="4" r="4"></circle>
                <circle id="Oval" cx="40" cy="28" r="4"></circle>
                <circle id="Oval" cx="16" cy="16" r="4"></circle>
                <circle id="Oval" cx="52" cy="16" r="4"></circle>
                <circle id="Oval" cx="52" cy="4" r="4"></circle>
                <circle id="Oval" cx="64" cy="28" r="4"></circle>
                <circle id="Oval" cx="76" cy="28" r="4"></circle>
                <circle id="Oval" cx="28" cy="28" r="4"></circle>
                <circle id="Oval" cx="64" cy="16" r="4"></circle>
                <circle id="Oval" cx="64" cy="40" r="4"></circle>
                <circle id="Oval" cx="76" cy="40" r="4"></circle>
                <circle id="Oval" cx="16" cy="52" r="4"></circle>
                <circle id="Oval" cx="4" cy="52" r="4"></circle>
                <circle id="Oval" cx="16" cy="64" r="4"></circle>
                <circle id="Oval" cx="28" cy="52" r="4"></circle>
                <circle id="Oval" cx="28" cy="64" r="4"></circle>
                <circle id="Oval" cx="28" cy="76" r="4"></circle>
                <circle id="Oval" cx="52" cy="52" r="4"></circle>
                <circle id="Oval" cx="52" cy="64" r="4"></circle>
                <circle id="Oval" cx="52" cy="76" r="4"></circle>
                <circle id="Oval" cx="40" cy="52" r="4"></circle>
                <circle id="Oval" cx="40" cy="64" r="4"></circle>
                <circle id="Oval" cx="40" cy="76" r="4"></circle>
                <circle id="Oval" cx="64" cy="52" r="4"></circle>
                <circle id="Oval" cx="76" cy="52" r="4"></circle>
                <circle id="Oval" cx="64" cy="64" r="4"></circle>
                <circle id="Oval" cx="16" cy="40" r="4"></circle>
                <circle id="Oval" cx="4" cy="40" r="4"></circle>
                <circle id="Oval" cx="28" cy="16" r="4"></circle>
                <circle id="Oval" cx="28" cy="4" r="4"></circle>
                <circle id="Oval" cx="40" cy="40" r="4"></circle>
                <circle id="Oval" cx="28" cy="40" r="4"></circle>
                <circle id="Oval" cx="52" cy="28" r="4"></circle>
                <circle id="Oval" cx="52" cy="40" r="4"></circle>
            </g>
            <g id="Mask" transform="translate(508.000000, 967.000000) scale(1, -1) translate(-508.000000, -967.000000) translate(468.000000, 927.000000)" fill="#009999">
                <circle id="Oval" cx="16" cy="28" r="4"></circle>
                <circle id="Oval" cx="4" cy="28" r="4"></circle>
                <circle id="Oval" cx="40" cy="16" r="4"></circle>
                <circle id="Oval" cx="40" cy="4" r="4"></circle>
                <circle id="Oval" cx="40" cy="28" r="4"></circle>
                <circle id="Oval" cx="16" cy="16" r="4"></circle>
                <circle id="Oval" cx="52" cy="16" r="4"></circle>
                <circle id="Oval" cx="52" cy="4" r="4"></circle>
                <circle id="Oval" cx="64" cy="28" r="4"></circle>
                <circle id="Oval" cx="76" cy="28" r="4"></circle>
                <circle id="Oval" cx="28" cy="28" r="4"></circle>
                <circle id="Oval" cx="64" cy="16" r="4"></circle>
                <circle id="Oval" cx="64" cy="40" r="4"></circle>
                <circle id="Oval" cx="76" cy="40" r="4"></circle>
                <circle id="Oval" cx="16" cy="52" r="4"></circle>
                <circle id="Oval" cx="4" cy="52" r="4"></circle>
                <circle id="Oval" cx="16" cy="64" r="4"></circle>
                <circle id="Oval" cx="28" cy="52" r="4"></circle>
                <circle id="Oval" cx="28" cy="64" r="4"></circle>
                <circle id="Oval" cx="28" cy="76" r="4"></circle>
                <circle id="Oval" cx="52" cy="52" r="4"></circle>
                <circle id="Oval" cx="52" cy="64" r="4"></circle>
                <circle id="Oval" cx="52" cy="76" r="4"></circle>
                <circle id="Oval" cx="40" cy="52" r="4"></circle>
                <circle id="Oval" cx="40" cy="64" r="4"></circle>
                <circle id="Oval" cx="40" cy="76" r="4"></circle>
                <circle id="Oval" cx="64" cy="52" r="4"></circle>
                <circle id="Oval" cx="76" cy="52" r="4"></circle>
                <circle id="Oval" cx="64" cy="64" r="4"></circle>
                <circle id="Oval" cx="16" cy="40" r="4"></circle>
                <circle id="Oval" cx="4" cy="40" r="4"></circle>
                <circle id="Oval" cx="28" cy="16" r="4"></circle>
                <circle id="Oval" cx="28" cy="4" r="4"></circle>
                <circle id="Oval" cx="40" cy="40" r="4"></circle>
                <circle id="Oval" cx="28" cy="40" r="4"></circle>
                <circle id="Oval" cx="52" cy="28" r="4"></circle>
                <circle id="Oval" cx="52" cy="40" r="4"></circle>
            </g>
            <g id="Mask" transform="translate(316.000000, 920.000000) scale(1, -1) translate(-316.000000, -920.000000) translate(276.000000, 880.000000)" fill="#F99E1A">
                <circle id="Oval" cx="16" cy="28" r="4"></circle>
                <circle id="Oval" cx="4" cy="28" r="4"></circle>
                <circle id="Oval" cx="40" cy="16" r="4"></circle>
                <circle id="Oval" cx="40" cy="4" r="4"></circle>
                <circle id="Oval" cx="40" cy="28" r="4"></circle>
                <circle id="Oval" cx="16" cy="16" r="4"></circle>
                <circle id="Oval" cx="52" cy="16" r="4"></circle>
                <circle id="Oval" cx="52" cy="4" r="4"></circle>
                <circle id="Oval" cx="64" cy="28" r="4"></circle>
                <circle id="Oval" cx="76" cy="28" r="4"></circle>
                <circle id="Oval" cx="28" cy="28" r="4"></circle>
                <circle id="Oval" cx="64" cy="16" r="4"></circle>
                <circle id="Oval" cx="64" cy="40" r="4"></circle>
                <circle id="Oval" cx="76" cy="40" r="4"></circle>
                <circle id="Oval" cx="16" cy="52" r="4"></circle>
                <circle id="Oval" cx="4" cy="52" r="4"></circle>
                <circle id="Oval" cx="16" cy="64" r="4"></circle>
                <circle id="Oval" cx="28" cy="52" r="4"></circle>
                <circle id="Oval" cx="28" cy="64" r="4"></circle>
                <circle id="Oval" cx="28" cy="76" r="4"></circle>
                <circle id="Oval" cx="52" cy="52" r="4"></circle>
                <circle id="Oval" cx="52" cy="64" r="4"></circle>
                <circle id="Oval" cx="52" cy="76" r="4"></circle>
                <circle id="Oval" cx="40" cy="52" r="4"></circle>
                <circle id="Oval" cx="40" cy="64" r="4"></circle>
                <circle id="Oval" cx="40" cy="76" r="4"></circle>
                <circle id="Oval" cx="64" cy="52" r="4"></circle>
                <circle id="Oval" cx="76" cy="52" r="4"></circle>
                <circle id="Oval" cx="64" cy="64" r="4"></circle>
                <circle id="Oval" cx="16" cy="40" r="4"></circle>
                <circle id="Oval" cx="4" cy="40" r="4"></circle>
                <circle id="Oval" cx="28" cy="16" r="4"></circle>
                <circle id="Oval" cx="28" cy="4" r="4"></circle>
                <circle id="Oval" cx="40" cy="40" r="4"></circle>
                <circle id="Oval" cx="28" cy="40" r="4"></circle>
                <circle id="Oval" cx="52" cy="28" r="4"></circle>
                <circle id="Oval" cx="52" cy="40" r="4"></circle>
            </g>
            <g id="Mask" transform="translate(942.000000, 660.000000) scale(-1, -1) translate(-942.000000, -660.000000) translate(902.000000, 620.000000)" fill="#057EC2">
                <circle id="Oval" cx="16" cy="28" r="4"></circle>
                <circle id="Oval" cx="4" cy="28" r="4"></circle>
                <circle id="Oval" cx="40" cy="16" r="4"></circle>
                <circle id="Oval" cx="40" cy="4" r="4"></circle>
                <circle id="Oval" cx="40" cy="28" r="4"></circle>
                <circle id="Oval" cx="16" cy="16" r="4"></circle>
                <circle id="Oval" cx="52" cy="16" r="4"></circle>
                <circle id="Oval" cx="52" cy="4" r="4"></circle>
                <circle id="Oval" cx="64" cy="28" r="4"></circle>
                <circle id="Oval" cx="76" cy="28" r="4"></circle>
                <circle id="Oval" cx="28" cy="28" r="4"></circle>
                <circle id="Oval" cx="64" cy="16" r="4"></circle>
                <circle id="Oval" cx="64" cy="40" r="4"></circle>
                <circle id="Oval" cx="76" cy="40" r="4"></circle>
                <circle id="Oval" cx="16" cy="52" r="4"></circle>
                <circle id="Oval" cx="4" cy="52" r="4"></circle>
                <circle id="Oval" cx="16" cy="64" r="4"></circle>
                <circle id="Oval" cx="28" cy="52" r="4"></circle>
                <circle id="Oval" cx="28" cy="64" r="4"></circle>
                <circle id="Oval" cx="28" cy="76" r="4"></circle>
                <circle id="Oval" cx="52" cy="52" r="4"></circle>
                <circle id="Oval" cx="52" cy="64" r="4"></circle>
                <circle id="Oval" cx="52" cy="76" r="4"></circle>
                <circle id="Oval" cx="40" cy="52" r="4"></circle>
                <circle id="Oval" cx="40" cy="64" r="4"></circle>
                <circle id="Oval" cx="40" cy="76" r="4"></circle>
                <circle id="Oval" cx="64" cy="52" r="4"></circle>
                <circle id="Oval" cx="76" cy="52" r="4"></circle>
                <circle id="Oval" cx="64" cy="64" r="4"></circle>
                <circle id="Oval" cx="16" cy="40" r="4"></circle>
                <circle id="Oval" cx="4" cy="40" r="4"></circle>
                <circle id="Oval" cx="28" cy="16" r="4"></circle>
                <circle id="Oval" cx="28" cy="4" r="4"></circle>
                <circle id="Oval" cx="40" cy="40" r="4"></circle>
                <circle id="Oval" cx="28" cy="40" r="4"></circle>
                <circle id="Oval" cx="52" cy="28" r="4"></circle>
                <circle id="Oval" cx="52" cy="40" r="4"></circle>
            </g>
            <g id="Mask" transform="translate(845.000000, 820.000000) scale(-1, -1) translate(-845.000000, -820.000000) translate(805.000000, 780.000000)" fill="#009999">
                <circle id="Oval" cx="16" cy="28" r="4"></circle>
                <circle id="Oval" cx="4" cy="28" r="4"></circle>
                <circle id="Oval" cx="40" cy="16" r="4"></circle>
                <circle id="Oval" cx="40" cy="4" r="4"></circle>
                <circle id="Oval" cx="40" cy="28" r="4"></circle>
                <circle id="Oval" cx="16" cy="16" r="4"></circle>
                <circle id="Oval" cx="52" cy="16" r="4"></circle>
                <circle id="Oval" cx="52" cy="4" r="4"></circle>
                <circle id="Oval" cx="64" cy="28" r="4"></circle>
                <circle id="Oval" cx="76" cy="28" r="4"></circle>
                <circle id="Oval" cx="28" cy="28" r="4"></circle>
                <circle id="Oval" cx="64" cy="16" r="4"></circle>
                <circle id="Oval" cx="64" cy="40" r="4"></circle>
                <circle id="Oval" cx="76" cy="40" r="4"></circle>
                <circle id="Oval" cx="16" cy="52" r="4"></circle>
                <circle id="Oval" cx="4" cy="52" r="4"></circle>
                <circle id="Oval" cx="16" cy="64" r="4"></circle>
                <circle id="Oval" cx="28" cy="52" r="4"></circle>
                <circle id="Oval" cx="28" cy="64" r="4"></circle>
                <circle id="Oval" cx="28" cy="76" r="4"></circle>
                <circle id="Oval" cx="52" cy="52" r="4"></circle>
                <circle id="Oval" cx="52" cy="64" r="4"></circle>
                <circle id="Oval" cx="52" cy="76" r="4"></circle>
                <circle id="Oval" cx="40" cy="52" r="4"></circle>
                <circle id="Oval" cx="40" cy="64" r="4"></circle>
                <circle id="Oval" cx="40" cy="76" r="4"></circle>
                <circle id="Oval" cx="64" cy="52" r="4"></circle>
                <circle id="Oval" cx="76" cy="52" r="4"></circle>
                <circle id="Oval" cx="64" cy="64" r="4"></circle>
                <circle id="Oval" cx="16" cy="40" r="4"></circle>
                <circle id="Oval" cx="4" cy="40" r="4"></circle>
                <circle id="Oval" cx="28" cy="16" r="4"></circle>
                <circle id="Oval" cx="28" cy="4" r="4"></circle>
                <circle id="Oval" cx="40" cy="40" r="4"></circle>
                <circle id="Oval" cx="28" cy="40" r="4"></circle>
                <circle id="Oval" cx="52" cy="28" r="4"></circle>
                <circle id="Oval" cx="52" cy="40" r="4"></circle>
            </g>
            <g id="Mask" transform="translate(701.000000, 920.000000) scale(-1, -1) translate(-701.000000, -920.000000) translate(661.000000, 880.000000)" fill="#F99E1A">
                <circle id="Oval" cx="16" cy="28" r="4"></circle>
                <circle id="Oval" cx="4" cy="28" r="4"></circle>
                <circle id="Oval" cx="40" cy="16" r="4"></circle>
                <circle id="Oval" cx="40" cy="4" r="4"></circle>
                <circle id="Oval" cx="40" cy="28" r="4"></circle>
                <circle id="Oval" cx="16" cy="16" r="4"></circle>
                <circle id="Oval" cx="52" cy="16" r="4"></circle>
                <circle id="Oval" cx="52" cy="4" r="4"></circle>
                <circle id="Oval" cx="64" cy="28" r="4"></circle>
                <circle id="Oval" cx="76" cy="28" r="4"></circle>
                <circle id="Oval" cx="28" cy="28" r="4"></circle>
                <circle id="Oval" cx="64" cy="16" r="4"></circle>
                <circle id="Oval" cx="64" cy="40" r="4"></circle>
                <circle id="Oval" cx="76" cy="40" r="4"></circle>
                <circle id="Oval" cx="16" cy="52" r="4"></circle>
                <circle id="Oval" cx="4" cy="52" r="4"></circle>
                <circle id="Oval" cx="16" cy="64" r="4"></circle>
                <circle id="Oval" cx="28" cy="52" r="4"></circle>
                <circle id="Oval" cx="28" cy="64" r="4"></circle>
                <circle id="Oval" cx="28" cy="76" r="4"></circle>
                <circle id="Oval" cx="52" cy="52" r="4"></circle>
                <circle id="Oval" cx="52" cy="64" r="4"></circle>
                <circle id="Oval" cx="52" cy="76" r="4"></circle>
                <circle id="Oval" cx="40" cy="52" r="4"></circle>
                <circle id="Oval" cx="40" cy="64" r="4"></circle>
                <circle id="Oval" cx="40" cy="76" r="4"></circle>
                <circle id="Oval" cx="64" cy="52" r="4"></circle>
                <circle id="Oval" cx="76" cy="52" r="4"></circle>
                <circle id="Oval" cx="64" cy="64" r="4"></circle>
                <circle id="Oval" cx="16" cy="40" r="4"></circle>
                <circle id="Oval" cx="4" cy="40" r="4"></circle>
                <circle id="Oval" cx="28" cy="16" r="4"></circle>
                <circle id="Oval" cx="28" cy="4" r="4"></circle>
                <circle id="Oval" cx="40" cy="40" r="4"></circle>
                <circle id="Oval" cx="28" cy="40" r="4"></circle>
                <circle id="Oval" cx="52" cy="28" r="4"></circle>
                <circle id="Oval" cx="52" cy="40" r="4"></circle>
            </g>
            <g id="Mask-Copy" transform="translate(966.000000, 508.000000) scale(-1, -1) translate(-966.000000, -508.000000) translate(926.000000, 468.000000)" fill="#F99E1A">
                <circle id="Oval" cx="16" cy="28" r="4"></circle>
                <circle id="Oval" cx="4" cy="28" r="4"></circle>
                <circle id="Oval" cx="40" cy="16" r="4"></circle>
                <circle id="Oval" cx="40" cy="4" r="4"></circle>
                <circle id="Oval" cx="40" cy="28" r="4"></circle>
                <circle id="Oval" cx="16" cy="16" r="4"></circle>
                <circle id="Oval" cx="52" cy="16" r="4"></circle>
                <circle id="Oval" cx="52" cy="4" r="4"></circle>
                <circle id="Oval" cx="64" cy="28" r="4"></circle>
                <circle id="Oval" cx="76" cy="28" r="4"></circle>
                <circle id="Oval" cx="28" cy="28" r="4"></circle>
                <circle id="Oval" cx="64" cy="16" r="4"></circle>
                <circle id="Oval" cx="64" cy="40" r="4"></circle>
                <circle id="Oval" cx="76" cy="40" r="4"></circle>
                <circle id="Oval" cx="16" cy="52" r="4"></circle>
                <circle id="Oval" cx="4" cy="52" r="4"></circle>
                <circle id="Oval" cx="16" cy="64" r="4"></circle>
                <circle id="Oval" cx="28" cy="52" r="4"></circle>
                <circle id="Oval" cx="28" cy="64" r="4"></circle>
                <circle id="Oval" cx="28" cy="76" r="4"></circle>
                <circle id="Oval" cx="52" cy="52" r="4"></circle>
                <circle id="Oval" cx="52" cy="64" r="4"></circle>
                <circle id="Oval" cx="52" cy="76" r="4"></circle>
                <circle id="Oval" cx="40" cy="52" r="4"></circle>
                <circle id="Oval" cx="40" cy="64" r="4"></circle>
                <circle id="Oval" cx="40" cy="76" r="4"></circle>
                <circle id="Oval" cx="64" cy="52" r="4"></circle>
                <circle id="Oval" cx="76" cy="52" r="4"></circle>
                <circle id="Oval" cx="64" cy="64" r="4"></circle>
                <circle id="Oval" cx="16" cy="40" r="4"></circle>
                <circle id="Oval" cx="4" cy="40" r="4"></circle>
                <circle id="Oval" cx="28" cy="16" r="4"></circle>
                <circle id="Oval" cx="28" cy="4" r="4"></circle>
                <circle id="Oval" cx="40" cy="40" r="4"></circle>
                <circle id="Oval" cx="28" cy="40" r="4"></circle>
                <circle id="Oval" cx="52" cy="28" r="4"></circle>
                <circle id="Oval" cx="52" cy="40" r="4"></circle>
            </g>
            <g id="Mask-Copy-2" transform="translate(50.000000, 508.000000) scale(-1, -1) translate(-50.000000, -508.000000) translate(10.000000, 468.000000)" fill="#F99E1A">
                <circle id="Oval" cx="16" cy="28" r="4"></circle>
                <circle id="Oval" cx="4" cy="28" r="4"></circle>
                <circle id="Oval" cx="40" cy="16" r="4"></circle>
                <circle id="Oval" cx="40" cy="4" r="4"></circle>
                <circle id="Oval" cx="40" cy="28" r="4"></circle>
                <circle id="Oval" cx="16" cy="16" r="4"></circle>
                <circle id="Oval" cx="52" cy="16" r="4"></circle>
                <circle id="Oval" cx="52" cy="4" r="4"></circle>
                <circle id="Oval" cx="64" cy="28" r="4"></circle>
                <circle id="Oval" cx="76" cy="28" r="4"></circle>
                <circle id="Oval" cx="28" cy="28" r="4"></circle>
                <circle id="Oval" cx="64" cy="16" r="4"></circle>
                <circle id="Oval" cx="64" cy="40" r="4"></circle>
                <circle id="Oval" cx="76" cy="40" r="4"></circle>
                <circle id="Oval" cx="16" cy="52" r="4"></circle>
                <circle id="Oval" cx="4" cy="52" r="4"></circle>
                <circle id="Oval" cx="16" cy="64" r="4"></circle>
                <circle id="Oval" cx="28" cy="52" r="4"></circle>
                <circle id="Oval" cx="28" cy="64" r="4"></circle>
                <circle id="Oval" cx="28" cy="76" r="4"></circle>
                <circle id="Oval" cx="52" cy="52" r="4"></circle>
                <circle id="Oval" cx="52" cy="64" r="4"></circle>
                <circle id="Oval" cx="52" cy="76" r="4"></circle>
                <circle id="Oval" cx="40" cy="52" r="4"></circle>
                <circle id="Oval" cx="40" cy="64" r="4"></circle>
                <circle id="Oval" cx="40" cy="76" r="4"></circle>
                <circle id="Oval" cx="64" cy="52" r="4"></circle>
                <circle id="Oval" cx="76" cy="52" r="4"></circle>
                <circle id="Oval" cx="64" cy="64" r="4"></circle>
                <circle id="Oval" cx="16" cy="40" r="4"></circle>
                <circle id="Oval" cx="4" cy="40" r="4"></circle>
                <circle id="Oval" cx="28" cy="16" r="4"></circle>
                <circle id="Oval" cx="28" cy="4" r="4"></circle>
                <circle id="Oval" cx="40" cy="40" r="4"></circle>
                <circle id="Oval" cx="28" cy="40" r="4"></circle>
                <circle id="Oval" cx="52" cy="28" r="4"></circle>
                <circle id="Oval" cx="52" cy="40" r="4"></circle>
            </g>
        </g>
    </g>
</svg>