<?xml version="1.0" encoding="UTF-8"?>
<svg width="42px" height="42px" viewBox="0 0 42 42" version="1.1" xmlns="http://www.w3.org/2000/svg" xmlns:xlink="http://www.w3.org/1999/xlink">
    <title>falke_simple_1</title>
    <g id="Page-1" stroke="none" stroke-width="1" fill="none" fill-rule="evenodd">
        <path d="M3.89311092,35.0289387 C5.79245879,35.0247048 7.33410678,36.5613649 7.33835824,38.4607128 C7.34259217,40.3600607 5.80593201,41.9017087 3.90658415,41.9059566 C2.00797183,41.9092179 0.465588288,40.3735339 0.461336835,38.474186 C0.457102901,36.5748382 1.99449861,35.0322141 3.89311092,35.0289387 Z M10.7703355,35.0151727 C12.6696833,35.0109387 14.2113313,36.5475989 14.2155828,38.4469468 C14.2198167,40.3462946 12.6831566,41.8879426 10.7838087,41.8921905 C8.88519638,41.8954519 7.34281283,40.3597678 7.33856138,38.46042 C7.33432745,36.5610721 8.87172315,35.018448 10.7703355,35.0151727 Z M17.6474624,35.001333 C19.5468103,34.9970991 21.0884583,36.5337593 21.0927097,38.4331071 C21.0969436,40.332455 19.5602835,41.874103 17.6609356,41.8783509 C15.7623233,41.8816123 14.2199398,40.3459282 14.2156883,38.4465804 C14.2114544,36.5472325 15.7488501,35.0046084 17.6474624,35.001333 Z M24.5246629,34.9873958 C26.4240108,34.9831619 27.9656587,36.519822 27.9699102,38.4191699 C27.9741441,40.3185178 26.437484,41.8601658 24.5381361,41.8644137 C22.6395238,41.867675 21.0971403,40.331991 21.0928888,38.4326431 C21.0886549,36.5332953 22.6260506,34.9906712 24.5246629,34.9873958 Z M31.4018634,34.9734586 C33.3012112,34.9692247 34.8428592,36.5058848 34.8471107,38.4052327 C34.8513446,40.3045806 33.3146845,41.8462285 31.4153366,41.8504764 C29.5167243,41.8537378 27.9743407,40.3180538 27.9700893,38.4187059 C27.9658554,36.5193581 29.5032511,34.9767339 31.4018634,34.9734586 Z M38.2789903,34.959619 C40.1783382,34.9553851 41.7199862,36.4920452 41.7242376,38.3913931 C41.7284716,40.2907409 40.1918114,41.8323889 38.2924635,41.8366368 C36.3938512,41.8398982 34.8514677,40.3042142 34.8472162,38.4048663 C34.8429823,36.5055184 36.380378,34.9628943 38.2789903,34.959619 Z M3.87927131,28.1518118 C5.77861917,28.1475779 7.32026717,29.684238 7.32451862,31.5835859 C7.32875255,33.4829337 5.7920924,35.0245817 3.89274453,35.0288296 C1.99413222,35.032091 0.451748675,33.496407 0.447497221,31.5970591 C0.443263288,29.6977112 1.980659,28.1550871 3.87927131,28.1518118 Z M10.7564718,28.1378746 C12.6558197,28.1336406 14.1974677,29.6703008 14.2017191,31.5696487 C14.205953,33.4689965 12.6692929,35.0106445 10.769945,35.0148924 C8.87133271,35.0181538 7.32894916,33.4824697 7.32469771,31.5831219 C7.32046378,29.683774 8.85785948,28.1411499 10.7564718,28.1378746 Z M17.6336963,28.1241085 C19.5330442,28.1198746 21.0746922,29.6565347 21.0789437,31.5558826 C21.0831776,33.4552305 19.5465174,34.9968785 17.6471696,35.0011263 C15.7485573,35.0043877 14.2061737,33.4687037 14.2019223,31.5693558 C14.1976883,29.670008 15.735084,28.1273838 17.6336963,28.1241085 Z M24.5108233,28.1102689 C26.4101711,28.106035 27.9518191,29.6426951 27.9560706,31.542043 C27.9603045,33.4413908 26.4236444,34.9830388 24.5242965,34.9872867 C22.6256842,34.9905481 21.0833006,33.4548641 21.0790492,31.5555162 C21.0748153,29.6561683 22.612211,28.1135442 24.5108233,28.1102689 Z M31.3880238,28.0963317 C33.2873716,28.0920977 34.8290196,29.6287579 34.8332711,31.5281058 C34.837505,33.4274536 33.3008449,34.9691016 31.401497,34.9733495 C29.5028847,34.9766109 27.9605011,33.4409268 27.9562497,31.541579 C27.9520157,29.6422311 29.4886759,28.1005831 31.3880238,28.0963317 Z M38.2651507,28.0824921 C40.1644986,28.0782581 41.7061466,29.6149183 41.710398,31.5142661 C41.7146319,33.413614 40.1779718,34.955262 38.2786239,34.9595099 C36.3800116,34.9627713 34.8376281,33.4270872 34.8333766,31.5277394 C34.8291427,29.6283915 36.3665384,28.0857674 38.2651507,28.0824921 Z M3.86553069,21.2741509 C5.76414301,21.2708895 7.30652655,22.8065735 7.31077801,24.7059214 C7.31501194,26.6052693 5.77761623,28.1478934 3.87900392,28.1511687 C1.97965606,28.1554026 0.438008061,26.6187425 0.433756603,24.7193946 C0.429522673,22.8200467 1.96618283,21.2783988 3.86553069,21.2741509 Z M10.7427552,21.2603848 C12.6413676,21.2571234 14.1837511,22.7928075 14.1880026,24.6921553 C14.1922365,26.5915032 12.6548408,28.1341273 10.7562285,28.1374026 C8.8568806,28.1416366 7.3152326,26.6049764 7.31098115,24.7056286 C7.30674722,22.8062807 8.84340737,21.2646327 10.7427552,21.2603848 Z M17.6198822,21.2465452 C19.5184945,21.2432838 21.060878,22.7789679 21.0651295,24.6783157 C21.0693634,26.5776636 19.5319677,28.1202877 17.6333554,28.123563 C15.7340075,28.127797 14.1923595,26.5911368 14.1881081,24.6917889 C14.1838742,22.7924411 15.7205343,21.2507931 17.6198822,21.2465452 Z M24.4970827,21.232608 C26.395695,21.2293466 27.9380785,22.7650306 27.94233,24.6643785 C27.9465639,26.5637264 26.4099037,28.1053744 24.5105559,28.1096258 C22.611208,28.1138597 21.06956,26.5771996 21.0653086,24.6778517 C21.0610746,22.7785039 22.5977348,21.2368559 24.4970827,21.232608 Z M31.3742831,21.2186707 C33.2728955,21.2154094 34.815279,22.7510934 34.8195305,24.6504413 C34.8237644,26.5497891 33.2863687,28.0924132 31.3877564,28.0956886 C29.4884085,28.0999225 27.9467605,26.5632624 27.9425091,24.6639145 C27.9382751,22.7645666 29.4749353,21.2229186 31.3742831,21.2186707 Z M38.2515077,21.2049047 C40.15012,21.2016433 41.6925036,22.7373273 41.696755,24.6366752 C41.7009889,26.5360231 40.1635932,28.0786472 38.2649809,28.0819225 C36.3656331,28.0861565 34.8239851,26.5494963 34.8197336,24.6501484 C34.8154997,22.7508006 36.3521598,21.2091526 38.2515077,21.2049047 Z M3.85169108,14.3970239 C5.75030339,14.3937625 7.29268694,15.9294466 7.29693839,17.8287945 C7.30117233,19.7281423 5.76377662,21.2707664 3.86516431,21.2740418 C1.96581644,21.2782757 0.424168447,19.7416155 0.419916989,17.8422677 C0.41568306,15.9429198 1.95234322,14.4012718 3.85169108,14.3970239 Z M10.7288916,14.3830867 C12.6275039,14.3798253 14.1698874,15.9155094 14.1741389,17.8148572 C14.1783728,19.7142051 12.6409771,21.2568292 10.7423648,21.2601045 C8.84301693,21.2643385 7.30136894,19.7276783 7.29711748,17.8283305 C7.29288355,15.9289826 8.82954371,14.3873346 10.7288916,14.3830867 Z M17.6060185,14.3692471 C19.5046308,14.3659857 21.0470144,15.9016698 21.0512658,17.8010176 C21.0554997,19.7003655 19.518104,21.2429896 17.6194917,21.2462649 C15.7201439,21.2504989 14.1784959,19.7138387 14.1742444,17.8144908 C14.1700105,15.915143 15.7066706,14.373495 17.6060185,14.3692471 Z M24.483243,14.355481 C26.3818554,14.3522196 27.9242389,15.8879037 27.9284904,17.7872516 C27.9327243,19.6865994 26.3953286,21.2292235 24.4967163,21.2324989 C22.5973684,21.2367328 21.0557204,19.7000726 21.051469,17.8007248 C21.047235,15.9013769 22.5838952,14.3597289 24.483243,14.355481 Z M31.36037,14.3416414 C33.2589823,14.33838 34.8013658,15.8740641 34.8056173,17.7734119 C34.8098512,19.6727598 33.2731911,21.2144078 31.3738432,21.2186593 C29.4744953,21.2228932 27.9328473,19.686233 27.9285959,17.7868852 C27.924362,15.8875373 29.4610221,14.3458893 31.36037,14.3416414 Z M38.2375705,14.3277042 C40.1361828,14.3244428 41.6785663,15.8601269 41.6828178,17.7594747 C41.6870517,19.6588226 40.149656,21.2014467 38.2510437,21.204722 C36.3516958,21.208956 34.8100478,19.6722958 34.8057964,17.7729479 C34.8015624,15.8736001 36.3382226,14.3319521 38.2375705,14.3277042 Z M3.83785147,7.51989699 C5.73646378,7.51663561 7.27884733,9.05231966 7.28309878,10.9516675 C7.28733271,12.8510154 5.749937,14.3936395 3.85132469,14.3969148 C1.95197683,14.4011488 0.410328834,12.8644886 0.406077376,10.9651407 C0.401843447,9.06579288 1.9385036,7.52414489 3.83785147,7.51989699 Z M10.715052,7.50595977 C12.6136643,7.50269839 14.1560478,9.03838243 14.1602993,10.9377303 C14.1645332,12.8370782 12.6271375,14.3797023 10.7285252,14.3829776 C8.82917732,14.3872115 7.28752932,12.8505514 7.28327786,10.9512035 C7.27904394,9.05185566 8.81570409,7.51020766 10.715052,7.50595977 Z M17.5921789,7.49212016 C19.4907912,7.48885877 21.0331747,9.02454282 21.0374262,10.9238907 C21.0416601,12.8232385 19.5042644,14.3658627 17.6056521,14.369138 C15.7063043,14.3733719 14.1646563,12.8367118 14.1604048,10.9373639 C14.1561709,9.03801604 15.692831,7.49636805 17.5921789,7.49212016 Z M24.4693058,7.47828054 C26.3679181,7.47501916 27.9103017,9.01070321 27.9145531,10.9100511 C27.9187871,12.8093989 26.3813914,14.352023 24.482779,14.3552984 C22.5834312,14.3595323 21.0417832,12.8228722 21.0375317,10.9235243 C21.0332978,9.02417643 22.569958,7.48252844 24.4693058,7.47828054 Z M31.3466039,7.46441687 C33.2452162,7.46115549 34.7875998,8.99683954 34.7918512,10.8961874 C34.7960852,12.7955353 33.2586895,14.3381594 31.3600771,14.3414347 C29.4607293,14.3456686 27.9190813,12.8090085 27.9148298,10.9096606 C27.9105959,9.01031276 29.4472561,7.46866477 31.3466039,7.46441687 Z M38.2237309,7.45057726 C40.1223432,7.44731588 41.6647267,8.98299992 41.6689782,10.8823478 C41.6732121,12.7816957 40.1365519,14.3233436 38.2372041,14.3275951 C36.3378562,14.331829 34.7962082,12.7951689 34.7919568,10.895821 C34.7877228,8.99647315 36.324383,7.45482515 38.2237309,7.45057726 Z M3.82391424,0.642696504 C5.72252656,0.639435122 7.2649101,2.17511917 7.26916156,4.07446703 C7.27339549,5.9738149 5.73599978,7.516439 3.83738747,7.51971435 C1.9380396,7.52394828 0.39639161,5.98728812 0.392140152,4.08794026 C0.387906223,2.18859239 1.92456638,0.646944399 3.82391424,0.642696504 Z M10.7011147,0.62875928 C12.599727,0.625497898 14.1421106,2.16118194 14.146362,4.06052981 C14.150596,5.95987767 12.6132003,7.50250178 10.714588,7.50577712 C8.81524009,7.51001105 7.2735921,5.9733509 7.26934064,4.07400303 C7.26510671,2.17465517 8.80176687,0.633007175 10.7011147,0.62875928 Z M17.5784128,0.614895611 C19.4770251,0.611634229 21.0194087,2.14731828 21.0236601,4.04666614 C21.0278941,5.946014 19.4904984,7.48863811 17.5918861,7.49191346 C15.6925382,7.49614738 14.1508902,5.95948723 14.1466387,4.06013936 C14.1424048,2.1607915 15.679065,0.619143506 17.5784128,0.614895611 Z M24.4555398,0.601055998 C26.3541521,0.597794616 27.8965356,2.13347866 27.9007871,4.03282653 C27.905021,5.93217439 26.3676253,7.47479849 24.469013,7.47807384 C22.5696651,7.48230777 21.0280171,5.94564762 21.0237657,4.04629975 C21.0195317,2.14695189 22.5561919,0.605303893 24.4555398,0.601055998 Z M31.3326667,0.587216384 C33.231279,0.583955003 34.7736626,2.11963905 34.777914,4.01898691 C34.7821479,5.91833478 33.2447522,7.46095888 31.3461399,7.46423423 C29.4467921,7.46846816 27.9051441,5.931808 27.9008926,4.03246014 C27.8966587,2.13311227 29.4333188,0.59146428 31.3326667,0.587216384 Z M38.2097936,0.573376771 C40.1084059,0.570115389 41.6507895,2.10579944 41.6550409,4.0051473 C41.6592749,5.90449516 40.1218792,7.44711927 38.2232669,7.45039462 C36.323919,7.45462855 34.782271,5.91796839 34.7780195,4.01862052 C34.7737856,2.11927266 36.3104458,0.577624666 38.2097936,0.573376771 Z" id="falke_simple_1" fill="#C5F5DB"></path>
    </g>
</svg>