<?xml version="1.0" encoding="UTF-8"?>
<svg width="108px" height="108px" viewBox="0 0 108 108" version="1.1" xmlns="http://www.w3.org/2000/svg" xmlns:xlink="http://www.w3.org/1999/xlink">
    <title>ic_collect</title>
    <g id="Page-4" stroke="none" stroke-width="1" fill="none" fill-rule="evenodd">
        <g id="1.0MAIN-ver4" transform="translate(-666.000000, -1183.000000)">
            <g id="illust_title" transform="translate(205.000000, 267.000000)">
                <g id="diagram/c3-s1/node" transform="translate(461.000000, 916.000000)">
                    <circle id="Oval-Copy-6" fill="#001F1F" cx="54" cy="54" r="54"></circle>
                    <g id="ic/cycle/factory" transform="translate(31.896373, 31.896373)">
                        <rect id="Rectangle-Copy-22" x="0" y="0" width="44.7668394" height="44.7668394"></rect>
                        <path d="M10.7920059,27.9792746 C12.3368257,27.9792746 13.5899334,29.2328852 13.5899334,30.7760975 C13.5899334,32.3235142 12.3368257,33.5751295 10.7920059,33.5751295 C9.24611678,33.5751295 7.99407846,32.3236567 7.99407846,30.7760975 C7.99407846,29.2328852 9.2459742,27.9792746 10.7920059,27.9792746 Z M18.7866902,27.9792746 C20.3301777,27.9792746 21.5840831,29.2328852 21.5840118,30.7760975 C21.5840118,32.3235142 20.3300352,33.5751295 18.7866902,33.5751295 C17.240922,33.5751295 15.9881569,32.3236567 15.9881569,30.7760975 C15.9881569,29.2328852 17.240922,27.9792746 18.7866902,27.9792746 Z M33.975938,27.9792746 C35.520148,27.9792746 36.7727609,29.2328852 36.7727609,30.7760975 C36.7727609,32.3235142 35.5202192,33.5751295 33.975938,33.5751295 C32.4294477,33.5751295 31.176906,32.3236567 31.176906,30.7760975 C31.176906,29.2328852 32.4294477,27.9792746 33.975938,27.9792746 Z M26.793559,11.1917098 L26.793559,25.6942505 L28.2391058,25.6942505 L28.2391058,16.4383486 L34.7000216,16.4383486 L37.3351734,21.6892016 L37.3351734,21.6975632 L39.9703923,23.1838455 L39.9703923,29.5780903 L37.3667297,29.5780903 C36.8340326,27.9226371 35.2741447,26.7227212 33.4403884,26.7227212 C31.6045507,26.7227212 30.0468113,27.9226371 29.5117643,29.5780903 L29.5117643,29.5780903 L22.6773429,29.5780903 C22.1433701,27.9226371 20.5845565,26.7227212 18.7497931,26.7227212 C16.9139554,26.7227212 15.3540675,27.9226371 14.8211019,29.5780903 L14.8211019,29.5780903 L14.795924,29.5780903 C14.2620184,27.9226371 12.7020633,26.7227212 10.8672999,26.7227212 C9.03146228,26.7227212 7.47365572,27.9226371 6.93968297,29.5780903 L6.93968297,29.5780903 L5.59585492,29.5780903 L5.59585492,11.1917098 L26.793559,11.1917098 Z" id="Combined-Shape" fill="#009999"></path>
                    </g>
                </g>
            </g>
        </g>
    </g>
</svg>