<?xml version="1.0" encoding="UTF-8"?>
<svg width="108px" height="108px" viewBox="0 0 108 108" version="1.1" xmlns="http://www.w3.org/2000/svg" xmlns:xlink="http://www.w3.org/1999/xlink">
    <title>ic_collect</title>
    <g id="Page-4" stroke="none" stroke-width="1" fill="none" fill-rule="evenodd">
        <g id="1.0MAIN-ver4" transform="translate(-666.000000, -1183.000000)">
            <g id="illust_title" transform="translate(205.000000, 267.000000)">
                <g id="ic_collect" transform="translate(461.000000, 916.000000)">
                    <circle id="Oval-Copy-6" fill="#020F18" cx="54" cy="54" r="54"></circle>
                    <g id="ic/cycle/factory" transform="translate(16.227979, 16.227979)">
                        <rect id="Rectangle-Copy-22" x="0" y="0" width="76.1036269" height="76.1036269"></rect>
                        <path d="M18.3464101,47.5647668 C20.9726038,47.5647668 23.1028868,49.6959049 23.1028868,52.3193658 C23.1028868,54.9499742 20.9726038,57.0777202 18.3464101,57.0777202 C15.7183985,57.0777202 13.5899334,54.9502165 13.5899334,52.3193658 C13.5899334,49.6959049 15.7181561,47.5647668 18.3464101,47.5647668 Z M31.9373733,47.5647668 C34.5613021,47.5647668 36.6929413,49.6959049 36.6928201,52.3193658 C36.6928201,54.9499742 34.5610598,57.0777202 31.9373733,57.0777202 C29.3095673,57.0777202 27.1798668,54.9502165 27.1798668,52.3193658 C27.1798668,49.6959049 29.3095673,47.5647668 31.9373733,47.5647668 Z M57.7590946,47.5647668 C60.3842515,47.5647668 62.5136936,49.6959049 62.5136936,52.3193658 C62.5136936,54.9499742 60.3843727,57.0777202 57.7590946,57.0777202 C55.1300611,57.0777202 53.0007402,54.9502165 53.0007402,52.3193658 C53.0007402,49.6959049 55.1300611,47.5647668 57.7590946,47.5647668 Z M45.5490504,19.0259067 L45.5490504,43.6802258 L48.0064798,43.6802258 L48.0064798,27.9451926 L58.9900367,27.9451926 L63.4697947,36.8716427 L63.4697947,36.8858574 L67.9496669,39.4125373 L67.9496669,50.2827535 L63.5234404,50.2827535 C62.6178554,47.4684831 59.9660459,45.428626 56.8486603,45.428626 C53.7277363,45.428626 51.0795792,47.4684831 50.1699993,50.2827535 L50.1699993,50.2827535 L38.5514829,50.2827535 C37.6437293,47.4684831 34.993746,45.428626 31.8746482,45.428626 C28.7537243,45.428626 26.1019148,47.4684831 25.1958732,50.2827535 L25.1958732,50.2827535 L25.1530708,50.2827535 C24.2454313,47.4684831 21.5935076,45.428626 18.4744099,45.428626 C15.3534859,45.428626 12.7052147,47.4684831 11.7974611,50.2827535 L11.7974611,50.2827535 L9.51295337,50.2827535 L9.51295337,19.0259067 L45.5490504,19.0259067 Z" id="Combined-Shape" fill="#3DDB87" transform="translate(38.731310, 38.051813) scale(-1, 1) translate(-38.731310, -38.051813) "></path>
                    </g>
                </g>
            </g>
        </g>
    </g>
</svg>