<?xml version="1.0" encoding="UTF-8"?>
<svg width="108px" height="108px" viewBox="0 0 108 108" version="1.1" xmlns="http://www.w3.org/2000/svg" xmlns:xlink="http://www.w3.org/1999/xlink">
    <title>ic_dispose</title>
    <g id="Page-4" stroke="none" stroke-width="1" fill="none" fill-rule="evenodd">
        <g id="1.0MAIN-ver4" transform="translate(-1125.000000, -725.000000)">
            <g id="illust_title" transform="translate(205.000000, 267.000000)">
                <g id="diagram/c3-s1/node" transform="translate(920.000000, 458.000000)">
                    <circle id="Oval-Copy-6" fill="#001F1F" cx="54" cy="54" r="54"></circle>
                    <g id="ic/cycle/factory" transform="translate(31.896373, 31.896373)">
                        <rect id="Rectangle-Copy-21" x="0" y="0" width="44.7668394" height="44.7668394"></rect>
                        <path d="M35.2339888,21.4126036 L33.6711108,30.7670702 L34.4249696,39.1709845 L30.9792832,33.0623962 L30.1003941,27.1896039 L24.9667995,39.1709845 L27.0959909,21.4126036 L35.2339888,21.4126036 Z M23.6466272,22.1789404 L23.6466272,23.1958103 L23.256827,23.1958103 L21.0209921,39.1709845 L12.8682848,39.1709845 L10.6361273,23.1958103 L10.2500045,23.1958103 L10.2500045,22.1789404 L23.6466272,22.1789404 Z M14.9790895,9.57859552 L15.8984295,10.0059756 L10.2500045,22.1789404 L9.32698709,21.747876 L9.56969286,21.2210195 C9.31595501,20.8968001 9.24608517,20.4509984 9.42995317,20.0494084 L9.42995317,20.0494084 L13.7508513,10.7502065 C13.9310419,10.3523009 14.3208421,10.1201893 14.7327064,10.1017677 L14.7327064,10.1017677 L14.9790895,9.57859552 Z M14.8687687,16.9951111 C17.4980812,17.9788254 21.6351112,17.4961807 21.6351112,17.4961807 C21.5689188,18.719372 20.6789976,19.5188676 20.6789976,19.5188676 C19.5721122,20.565212 19.17128,21.5894506 19.17128,21.5894506 C18.935929,20.8710099 15.5711445,21.3683919 15.5711445,21.3683919 C14.3245194,21.6336623 11.9673316,20.292573 11.9673316,20.292573 C13.1872007,20.180265 14.5548638,17.6158616 14.822124,17.0891501 Z M31.6669495,11.7523392 C31.6669495,11.7523392 31.6839743,11.7724892 31.7172471,11.8170042 L31.7559071,11.8697969 C32.093382,12.339201 33.3706568,14.3233063 35.2376661,19.7215047 L35.2376661,19.7215047 L27.2210212,20.2852044 C27.2210212,20.2852044 27.0243723,19.1345202 26.8129399,17.953794 L26.733315,17.5118021 C26.5741,16.633757 26.4193567,15.8176084 26.3458095,15.536127 L26.3458095,15.536127 L16.2183599,14.5118884 L25.6544658,12.8171052 Z M27.8461724,5.59585492 C29.4364062,5.59585492 30.7255453,6.88743095 30.7255453,8.48067073 C30.7255453,10.0739105 29.4364062,11.3654865 27.8461724,11.3654865 C26.2559386,11.3654865 24.9667995,10.0739105 24.9667995,8.48067073 C24.9667995,6.88743095 26.2559386,5.59585492 27.8461724,5.59585492 Z" id="Combined-Shape" fill="#009999"></path>
                    </g>
                </g>
            </g>
        </g>
    </g>
</svg>