<?xml version="1.0" encoding="UTF-8"?>
<svg width="108px" height="108px" viewBox="0 0 108 108" version="1.1" xmlns="http://www.w3.org/2000/svg" xmlns:xlink="http://www.w3.org/1999/xlink">
    <title>ic_dispose</title>
    <g id="Page-4" stroke="none" stroke-width="1" fill="none" fill-rule="evenodd">
        <g id="1.0MAIN-ver4" transform="translate(-1125.000000, -725.000000)">
            <g id="illust_title" transform="translate(205.000000, 267.000000)">
                <g id="ic_dispose" transform="translate(920.000000, 458.000000)">
                    <circle id="Oval-Copy-6" fill="#020F18" cx="54" cy="54" r="54"></circle>
                    <g id="ic/cycle/factory" transform="translate(16.227979, 16.227979)">
                        <rect id="Rectangle-Copy-21" x="0" y="0" width="76.1036269" height="76.1036269"></rect>
                        <path d="M59.8977809,36.4014262 L57.2408883,52.3040194 L58.5224483,66.5906736 L52.6647814,56.2060735 L51.17067,46.2223266 L42.4435591,66.5906736 L46.0631846,36.4014262 L59.8977809,36.4014262 Z M40.1992662,37.7041987 L40.1992662,39.4328776 L39.536606,39.4328776 L35.7356866,66.5906736 L21.8760842,66.5906736 L18.0814164,39.4328776 L17.4250076,39.4328776 L17.4250076,37.7041987 L40.1992662,37.7041987 Z M25.4644522,16.2836124 L27.0273302,17.0101586 L17.4250076,37.7041987 L15.8558781,36.9713892 L16.2684779,36.0757331 C15.8371235,35.5245601 15.7183448,34.7666972 16.0309204,34.0839943 L16.0309204,34.0839943 L23.3764471,18.2753511 C23.6827712,17.5989115 24.3454315,17.2043218 25.0456009,17.1730051 L25.0456009,17.1730051 L25.4644522,16.2836124 Z M25.2769068,28.8916889 C29.746738,30.5640033 36.7796891,29.7435071 36.7796891,29.7435071 C36.6671619,31.8229325 35.154296,33.1820749 35.154296,33.1820749 C33.2725908,34.9608604 32.591176,36.702066 32.591176,36.702066 C32.1910792,35.4807168 26.4709456,36.3262662 26.4709456,36.3262662 C24.351683,36.777226 20.3444638,34.4973741 20.3444638,34.4973741 C22.6575232,34.2844209 25.2831583,28.885431 25.2769068,28.8916889 Z M53.8338142,19.9789767 C53.8338142,19.9789767 56.1781312,22.7536316 59.9040324,33.526558 L59.9040324,33.526558 L46.275736,34.4848474 C46.275736,34.4848474 45.1004517,27.6077118 44.7878761,26.4114159 L44.7878761,26.4114159 L27.5712118,24.6702104 L43.6125919,21.7890789 Z M47.3384931,9.51295337 C50.0418905,9.51295337 52.2334271,11.7086326 52.2334271,14.4171402 C52.2334271,17.1256479 50.0418905,19.3213271 47.3384931,19.3213271 C44.6350957,19.3213271 42.4435591,17.1256479 42.4435591,14.4171402 C42.4435591,11.7086326 44.6350957,9.51295337 47.3384931,9.51295337 Z" id="Combined-Shape" fill="#3DDB87"></path>
                    </g>
                </g>
            </g>
        </g>
    </g>
</svg>