<?xml version="1.0" encoding="UTF-8"?>
<svg width="160px" height="160px" viewBox="0 0 160 160" version="1.1" xmlns="http://www.w3.org/2000/svg" xmlns:xlink="http://www.w3.org/1999/xlink">
    <title>ic_ep_dispose</title>
    <g id="plastic-literacy" stroke="none" stroke-width="1" fill="none" fill-rule="evenodd">
        <g id="Artboard" transform="translate(-612.000000, -209.000000)">
            <g id="ic_ep_dispose" transform="translate(612.000000, 209.000000)">
                <rect id="Rectangle-Copy" x="0" y="0" width="160" height="160"></rect>
                <g id="Group-3" transform="translate(36.000000, 18.000000)" fill="#3DDB87" stroke="#020F18" stroke-width="3">
                    <path d="M54.7307802,-1.5 L54.730011,103.509119 L67.3916054,103.510121 L44,129.229364 L20.6083814,103.510106 L33.8840088,103.509112 L33.8846242,-1.5 L54.7307802,-1.5 Z" id="Combined-Shape"></path>
                    <path d="M90.5,-1.5 L90.5,59.1722765 C90.5,69.7206717 87.4494554,77.9498896 81.8194646,83.596879 C76.3960822,89.0366363 68.5374938,92.1193701 58.4948771,92.4402559 L58.191,92.448 L58.1924006,105.488009 L34.8192526,83.3393491 L58.1924008,61.1906886 L58.1920422,74.1485424 C62.9177581,73.9909825 66.3439955,73.0273748 68.6051373,70.8699215 C71.0815799,68.5070403 72.0706501,64.773608 72.1139639,59.5198728 L72.1139639,59.5198728 L72.1154232,-1.5 L90.5,-1.5 Z" id="Combined-Shape-Copy" transform="translate(63.000000, 51.000000) scale(-1, 1) translate(-63.000000, -51.000000) "></path>
                    <path d="M53.5,-1.5 L53.5,59.1722765 C53.5,69.7206717 50.4494554,77.9498896 44.8194646,83.596879 C39.3960822,89.0366363 31.5374938,92.1193701 21.4948771,92.4402559 L21.191,92.448 L21.1924006,105.488009 L-2.18074741,83.3393491 L21.1924008,61.1906886 L21.1920422,74.1485424 C25.9177581,73.9909825 29.3439955,73.0273748 31.6051373,70.8699215 C34.0815799,68.5070403 35.0706501,64.773608 35.1139639,59.5198728 L35.1139639,59.5198728 L35.1154232,-1.5 L53.5,-1.5 Z" id="Combined-Shape"></path>
                </g>
            </g>
        </g>
    </g>
</svg>