<?xml version="1.0" encoding="UTF-8"?>
<svg width="108px" height="108px" viewBox="0 0 108 108" version="1.1" xmlns="http://www.w3.org/2000/svg" xmlns:xlink="http://www.w3.org/1999/xlink">
    <title>ic_production</title>
    <g id="Page-4" stroke="none" stroke-width="1" fill="none" fill-rule="evenodd">
        <g id="1.0MAIN-ver4" transform="translate(-666.000000, -267.000000)">
            <g id="illust_title" transform="translate(205.000000, 267.000000)">
                <g id="diagram/c3-s1/node" transform="translate(461.000000, 0.000000)">
                    <circle id="Oval-Copy-6" fill="#020F18" cx="54" cy="54" r="54"></circle>
                    <g id="ic/cycle/factory" transform="translate(16.227979, 16.227979)">
                        <rect id="Rectangle" x="0" y="0" width="76.1036269" height="76.1036269"></rect>
                        <path d="M31.2568415,9.51295337 C27.1714367,18.3312552 17.3505377,11.0003712 12.2309393,16.3079184 C13.4231838,7.17854312 21.3904842,14.5350441 31.2568415,9.51295337 Z M19.0259043,17.6669115 L19.0259043,35.6735689 L28.5388554,40.7698063 L28.5388554,31.2568416 L47.5647576,40.7698063 L47.5647576,31.2568416 L66.5906598,40.7698063 L66.5906598,66.5906736 L9.51295337,66.5906736 L9.51295337,17.6669115 L19.0259043,17.6669115 L19.0259043,17.6669115 Z M59.1161983,49.6032609 L49.6032472,49.6032609 L49.6032472,56.398226 L59.1161983,56.398226 L59.1161983,49.6032609 L59.1161983,49.6032609 Z M42.8082821,49.6032609 L33.295331,49.6032609 L33.295331,56.398226 L42.8082821,56.398226 L42.8082821,49.6032609 L42.8082821,49.6032609 Z M26.5003659,49.6032609 L16.9874148,49.6032609 L16.9874148,56.398226 L26.5003659,56.398226 L26.5003659,49.6032609 L26.5003659,49.6032609 Z" id="Shape" fill="#3DDB87"></path>
                    </g>
                </g>
            </g>
        </g>
    </g>
</svg>