<?xml version="1.0" encoding="UTF-8"?>
<svg width="108px" height="108px" viewBox="0 0 108 108" version="1.1" xmlns="http://www.w3.org/2000/svg" xmlns:xlink="http://www.w3.org/1999/xlink">
    <title>ic_production</title>
    <g id="Page-4" stroke="none" stroke-width="1" fill="none" fill-rule="evenodd">
        <g id="1.0MAIN-ver4" transform="translate(-666.000000, -267.000000)">
            <g id="illust_title" transform="translate(205.000000, 267.000000)">
                <g id="diagram/c3-s1/node" transform="translate(461.000000, 0.000000)">
                    <circle id="Oval-Copy-6" fill="#001F1F" cx="54" cy="54" r="54"></circle>
                    <g id="ic/cycle/factory" transform="translate(31.896373, 31.896373)">
                        <rect id="Rectangle" x="0" y="0" width="44.7668394" height="44.7668394"></rect>
                        <path d="M18.3863773,5.59585492 C15.983198,10.7830913 10.2061987,6.4708066 7.19467015,9.5928932 C7.89599049,4.22267242 12.5826378,8.55002594 18.3863773,5.59585492 Z M11.1917084,10.3923009 L11.1917084,20.9844523 L16.787562,23.982239 L16.787562,18.3863774 L27.9792692,23.982239 L27.9792692,18.3863774 L39.1709764,23.982239 L39.1709764,39.1709845 L5.59585492,39.1709845 L5.59585492,10.3923009 L11.1917084,10.3923009 L11.1917084,10.3923009 Z M34.7742343,29.1783888 L29.1783807,29.1783888 L29.1783807,33.175427 L34.7742343,33.175427 L34.7742343,29.1783888 L34.7742343,29.1783888 Z M25.1813424,29.1783888 L19.5854888,29.1783888 L19.5854888,33.175427 L25.1813424,33.175427 L25.1813424,29.1783888 L25.1813424,29.1783888 Z M15.5884505,29.1783888 L9.99259695,29.1783888 L9.99259695,33.175427 L15.5884505,33.175427 L15.5884505,29.1783888 L15.5884505,29.1783888 Z" id="Shape" fill="#009999"></path>
                    </g>
                </g>
            </g>
        </g>
    </g>
</svg>