<?xml version="1.0" encoding="UTF-8"?>
<svg width="108px" height="108px" viewBox="0 0 108 108" version="1.1" xmlns="http://www.w3.org/2000/svg" xmlns:xlink="http://www.w3.org/1999/xlink">
    <title>ic_recycling</title>
    <g id="Page-4" stroke="none" stroke-width="1" fill="none" fill-rule="evenodd">
        <g id="1.0MAIN-ver4" transform="translate(-205.000000, -725.000000)">
            <g id="illust_title" transform="translate(205.000000, 267.000000)">
                <g id="diagram/c3-s1/node" transform="translate(0.000000, 458.000000)">
                    <circle id="Oval-Copy-6" fill="#001F1F" cx="54" cy="54" r="54"></circle>
                    <g id="ic/cycle/factory" transform="translate(31.896373, 31.896373)">
                        <rect id="Rectangle-Copy-20" x="0" y="0" width="44.7668394" height="44.7668394"></rect>
                        <path d="M33.8627908,11.4646784 C36.7568127,14.4237266 38.3748262,18.3788561 38.3748262,22.4954194 C38.3748262,30.5877207 32.2187363,37.3833991 24.0887393,38.2678505 L24.396023,41.0362694 L19.3301824,38.8345864 L14.2626058,36.631186 L18.7242954,33.3922046 L23.185985,30.1532232 L23.4950047,32.9233595 C28.8716011,32.3394498 32.9409397,27.84678 32.9409397,22.4954194 C32.9409397,19.7733698 31.869787,17.1560805 29.9549062,15.199983 L33.8627908,11.4646784 Z M20.5097662,3.73056995 L25.575242,5.93384238 L30.6407178,8.13711482 L26.1793495,11.3759081 L21.7162452,14.6147014 L21.4089836,11.844726 C16.0345103,12.4286018 11.9637287,16.922728 11.9637287,22.2720606 C11.9637287,24.9956694 13.0348043,27.6110894 14.9478112,29.5670733 L11.0402081,33.302161 C8.14639442,30.3415673 6.52849741,26.3883848 6.52849741,22.2703433 C6.52849741,14.1785119 12.6841442,7.38322815 20.8152918,6.49882807 L20.5097662,3.73056995 Z" id="Combined-Shape" fill="#009999"></path>
                    </g>
                </g>
            </g>
        </g>
    </g>
</svg>