<?xml version="1.0" encoding="UTF-8"?>
<svg width="440px" height="440px" viewBox="0 0 440 440" version="1.1" xmlns="http://www.w3.org/2000/svg" xmlns:xlink="http://www.w3.org/1999/xlink">
    <title>illust_earth_green</title>
    <defs>
        <polygon id="path-1" points="0 0 439.999768 0 439.999768 439.999722 0 439.999722"></polygon>
        <path d="M219.999884,0 C98.497885,0 2.63274644e-14,98.4974218 2.63274644e-14,219.999884 L2.63274644e-14,219.999884 C2.63274644e-14,341.502347 98.497885,439.999768 219.999884,439.999768 L219.999884,439.999768 C341.50281,439.999768 439.999768,341.502347 439.999768,219.999884 L439.999768,219.999884" id="path-3"></path>
        <path d="M219.999884,0 C98.497885,0 2.63274644e-14,98.4974218 2.63274644e-14,219.999884 L2.63274644e-14,219.999884 C2.63274644e-14,341.502347 98.497885,439.999768 219.999884,439.999768 L219.999884,439.999768 C341.50281,439.999768 439.999768,341.502347 439.999768,219.999884 L439.999768,219.999884" id="path-5"></path>
        <path d="M219.999884,0 C98.497885,0 2.63274644e-14,98.4974218 2.63274644e-14,219.999884 L2.63274644e-14,219.999884 C2.63274644e-14,341.502347 98.497885,439.999768 219.999884,439.999768 L219.999884,439.999768 C341.50281,439.999768 439.999768,341.502347 439.999768,219.999884 L439.999768,219.999884" id="path-7"></path>
        <path d="M219.999884,0 C98.497885,0 2.63274644e-14,98.4974218 2.63274644e-14,219.999884 L2.63274644e-14,219.999884 C2.63274644e-14,341.502347 98.497885,439.999768 219.999884,439.999768 L219.999884,439.999768 C341.50281,439.999768 439.999768,341.502347 439.999768,219.999884 L439.999768,219.999884" id="path-9"></path>
        <path d="M219.999884,0 C98.497885,0 2.63274644e-14,98.4974218 2.63274644e-14,219.999884 L2.63274644e-14,219.999884 C2.63274644e-14,341.502347 98.497885,439.999768 219.999884,439.999768 L219.999884,439.999768 C341.50281,439.999768 439.999768,341.502347 439.999768,219.999884 L439.999768,219.999884" id="path-11"></path>
        <path d="M219.999884,0 C98.497885,0 2.63274644e-14,98.4974218 2.63274644e-14,219.999884 L2.63274644e-14,219.999884 C2.63274644e-14,341.502347 98.497885,439.999768 219.999884,439.999768 L219.999884,439.999768 C341.50281,439.999768 439.999768,341.502347 439.999768,219.999884 L439.999768,219.999884" id="path-13"></path>
        <path d="M219.999884,0 C98.497885,0 2.63274644e-14,98.4974218 2.63274644e-14,219.999884 L2.63274644e-14,219.999884 C2.63274644e-14,341.502347 98.497885,439.999768 219.999884,439.999768 L219.999884,439.999768 C341.50281,439.999768 439.999768,341.502347 439.999768,219.999884 L439.999768,219.999884" id="path-15"></path>
        <path d="M219.999884,0 C98.497885,0 2.63274644e-14,98.4974218 2.63274644e-14,219.999884 L2.63274644e-14,219.999884 C2.63274644e-14,341.502347 98.497885,439.999768 219.999884,439.999768 L219.999884,439.999768 C341.50281,439.999768 439.999768,341.502347 439.999768,219.999884 L439.999768,219.999884" id="path-17"></path>
        <path d="M219.999884,0 C98.497885,0 2.63274644e-14,98.4974218 2.63274644e-14,219.999884 L2.63274644e-14,219.999884 C2.63274644e-14,341.502347 98.497885,439.999768 219.999884,439.999768 L219.999884,439.999768 C341.50281,439.999768 439.999768,341.502347 439.999768,219.999884 L439.999768,219.999884" id="path-19"></path>
        <path d="M219.999884,0 C98.497885,0 2.63274644e-14,98.4974218 2.63274644e-14,219.999884 L2.63274644e-14,219.999884 C2.63274644e-14,341.502347 98.497885,439.999768 219.999884,439.999768 L219.999884,439.999768 C341.50281,439.999768 439.999768,341.502347 439.999768,219.999884 L439.999768,219.999884" id="path-21"></path>
        <path d="M219.999884,0 C98.497885,0 2.63274644e-14,98.4974218 2.63274644e-14,219.999884 L2.63274644e-14,219.999884 C2.63274644e-14,341.502347 98.497885,439.999768 219.999884,439.999768 L219.999884,439.999768 C341.50281,439.999768 439.999768,341.502347 439.999768,219.999884 L439.999768,219.999884" id="path-23"></path>
        <path d="M219.999884,0 C98.497885,0 2.63274644e-14,98.4974218 2.63274644e-14,219.999884 L2.63274644e-14,219.999884 C2.63274644e-14,341.502347 98.497885,439.999768 219.999884,439.999768 L219.999884,439.999768 C341.50281,439.999768 439.999768,341.502347 439.999768,219.999884 L439.999768,219.999884" id="path-25"></path>
        <path d="M219.999884,0 C98.497885,0 2.63274644e-14,98.4974218 2.63274644e-14,219.999884 L2.63274644e-14,219.999884 C2.63274644e-14,341.502347 98.497885,439.999768 219.999884,439.999768 L219.999884,439.999768 C341.50281,439.999768 439.999768,341.502347 439.999768,219.999884 L439.999768,219.999884" id="path-27"></path>
        <path d="M219.999884,0 C98.497885,0 2.63274644e-14,98.4974218 2.63274644e-14,219.999884 L2.63274644e-14,219.999884 C2.63274644e-14,341.502347 98.497885,439.999768 219.999884,439.999768 L219.999884,439.999768 C341.50281,439.999768 439.999768,341.502347 439.999768,219.999884 L439.999768,219.999884" id="path-29"></path>
        <path d="M219.999884,0 C98.497885,0 2.63274644e-14,98.4974218 2.63274644e-14,219.999884 L2.63274644e-14,219.999884 C2.63274644e-14,341.502347 98.497885,439.999768 219.999884,439.999768 L219.999884,439.999768 C341.50281,439.999768 439.999768,341.502347 439.999768,219.999884 L439.999768,219.999884" id="path-31"></path>
        <path d="M219.999884,0 C98.497885,0 2.63274644e-14,98.4974218 2.63274644e-14,219.999884 L2.63274644e-14,219.999884 C2.63274644e-14,341.502347 98.497885,439.999768 219.999884,439.999768 L219.999884,439.999768 C341.50281,439.999768 439.999768,341.502347 439.999768,219.999884 L439.999768,219.999884" id="path-33"></path>
        <path d="M219.999884,0 C98.497885,0 2.63274644e-14,98.4974218 2.63274644e-14,219.999884 L2.63274644e-14,219.999884 C2.63274644e-14,341.502347 98.497885,439.999768 219.999884,439.999768 L219.999884,439.999768 C341.50281,439.999768 439.999768,341.502347 439.999768,219.999884 L439.999768,219.999884" id="path-35"></path>
        <path d="M219.999884,0 C98.497885,0 2.63274644e-14,98.4974218 2.63274644e-14,219.999884 L2.63274644e-14,219.999884 C2.63274644e-14,341.502347 98.497885,439.999768 219.999884,439.999768 L219.999884,439.999768 C341.50281,439.999768 439.999768,341.502347 439.999768,219.999884 L439.999768,219.999884" id="path-37"></path>
        <path d="M219.999884,0 C98.497885,0 2.63274644e-14,98.4974218 2.63274644e-14,219.999884 L2.63274644e-14,219.999884 C2.63274644e-14,341.502347 98.497885,439.999768 219.999884,439.999768 L219.999884,439.999768 C341.50281,439.999768 439.999768,341.502347 439.999768,219.999884 L439.999768,219.999884" id="path-39"></path>
        <path d="M219.999884,0 C98.497885,0 2.63274644e-14,98.4974218 2.63274644e-14,219.999884 L2.63274644e-14,219.999884 C2.63274644e-14,341.502347 98.497885,439.999768 219.999884,439.999768 L219.999884,439.999768 C341.50281,439.999768 439.999768,341.502347 439.999768,219.999884 L439.999768,219.999884" id="path-41"></path>
        <path d="M219.999884,0 C98.497885,0 2.63274644e-14,98.4974218 2.63274644e-14,219.999884 L2.63274644e-14,219.999884 C2.63274644e-14,341.502347 98.497885,439.999768 219.999884,439.999768 L219.999884,439.999768 C341.50281,439.999768 439.999768,341.502347 439.999768,219.999884 L439.999768,219.999884" id="path-43"></path>
        <path d="M219.999884,0 C98.497885,0 2.63274644e-14,98.4974218 2.63274644e-14,219.999884 L2.63274644e-14,219.999884 C2.63274644e-14,341.502347 98.497885,439.999768 219.999884,439.999768 L219.999884,439.999768 C341.50281,439.999768 439.999768,341.502347 439.999768,219.999884 L439.999768,219.999884" id="path-45"></path>
        <path d="M219.999884,0 C98.497885,0 2.63274644e-14,98.4974218 2.63274644e-14,219.999884 L2.63274644e-14,219.999884 C2.63274644e-14,341.502347 98.497885,439.999768 219.999884,439.999768 L219.999884,439.999768 C341.50281,439.999768 439.999768,341.502347 439.999768,219.999884 L439.999768,219.999884" id="path-47"></path>
        <path d="M219.999884,0 C98.497885,0 2.63274644e-14,98.4974218 2.63274644e-14,219.999884 L2.63274644e-14,219.999884 C2.63274644e-14,341.502347 98.497885,439.999768 219.999884,439.999768 L219.999884,439.999768 C341.50281,439.999768 439.999768,341.502347 439.999768,219.999884 L439.999768,219.999884" id="path-49"></path>
        <path d="M219.999884,0 C98.497885,0 2.63274644e-14,98.4974218 2.63274644e-14,219.999884 L2.63274644e-14,219.999884 C2.63274644e-14,341.502347 98.497885,439.999768 219.999884,439.999768 L219.999884,439.999768 C341.50281,439.999768 439.999768,341.502347 439.999768,219.999884 L439.999768,219.999884" id="path-51"></path>
        <path d="M219.999884,0 C98.497885,0 2.63274644e-14,98.4974218 2.63274644e-14,219.999884 L2.63274644e-14,219.999884 C2.63274644e-14,341.502347 98.497885,439.999768 219.999884,439.999768 L219.999884,439.999768 C341.50281,439.999768 439.999768,341.502347 439.999768,219.999884 L439.999768,219.999884" id="path-53"></path>
        <path d="M219.999884,0 C98.497885,0 2.63274644e-14,98.4974218 2.63274644e-14,219.999884 L2.63274644e-14,219.999884 C2.63274644e-14,341.502347 98.497885,439.999768 219.999884,439.999768 L219.999884,439.999768 C341.50281,439.999768 439.999768,341.502347 439.999768,219.999884 L439.999768,219.999884" id="path-55"></path>
        <path d="M219.999884,0 C98.497885,0 2.63274644e-14,98.4974218 2.63274644e-14,219.999884 L2.63274644e-14,219.999884 C2.63274644e-14,341.502347 98.497885,439.999768 219.999884,439.999768 L219.999884,439.999768 C341.50281,439.999768 439.999768,341.502347 439.999768,219.999884 L439.999768,219.999884" id="path-57"></path>
        <path d="M219.999884,0 C98.497885,0 2.63274644e-14,98.4974218 2.63274644e-14,219.999884 L2.63274644e-14,219.999884 C2.63274644e-14,341.502347 98.497885,439.999768 219.999884,439.999768 L219.999884,439.999768 C341.50281,439.999768 439.999768,341.502347 439.999768,219.999884 L439.999768,219.999884" id="path-59"></path>
        <path d="M219.999884,0 C98.497885,0 2.63274644e-14,98.4974218 2.63274644e-14,219.999884 L2.63274644e-14,219.999884 C2.63274644e-14,341.502347 98.497885,439.999768 219.999884,439.999768 L219.999884,439.999768 C341.50281,439.999768 439.999768,341.502347 439.999768,219.999884 L439.999768,219.999884" id="path-61"></path>
        <path d="M219.999884,0 C98.497885,0 2.63274644e-14,98.4974218 2.63274644e-14,219.999884 L2.63274644e-14,219.999884 C2.63274644e-14,341.502347 98.497885,439.999768 219.999884,439.999768 L219.999884,439.999768 C341.50281,439.999768 439.999768,341.502347 439.999768,219.999884 L439.999768,219.999884" id="path-63"></path>
        <path d="M219.999884,0 C98.497885,0 2.63274644e-14,98.4974218 2.63274644e-14,219.999884 L2.63274644e-14,219.999884 C2.63274644e-14,341.502347 98.497885,439.999768 219.999884,439.999768 L219.999884,439.999768 C341.50281,439.999768 439.999768,341.502347 439.999768,219.999884 L439.999768,219.999884" id="path-65"></path>
        <path d="M219.999884,0 C98.497885,0 2.63274644e-14,98.4974218 2.63274644e-14,219.999884 L2.63274644e-14,219.999884 C2.63274644e-14,341.502347 98.497885,439.999768 219.999884,439.999768 L219.999884,439.999768 C341.50281,439.999768 439.999768,341.502347 439.999768,219.999884 L439.999768,219.999884" id="path-67"></path>
        <path d="M219.999884,0 C98.497885,0 2.63274644e-14,98.4974218 2.63274644e-14,219.999884 L2.63274644e-14,219.999884 C2.63274644e-14,341.502347 98.497885,439.999768 219.999884,439.999768 L219.999884,439.999768 C341.50281,439.999768 439.999768,341.502347 439.999768,219.999884 L439.999768,219.999884" id="path-69"></path>
        <path d="M219.999884,0 C98.497885,0 2.63274644e-14,98.4974218 2.63274644e-14,219.999884 L2.63274644e-14,219.999884 C2.63274644e-14,341.502347 98.497885,439.999768 219.999884,439.999768 L219.999884,439.999768 C341.50281,439.999768 439.999768,341.502347 439.999768,219.999884 L439.999768,219.999884" id="path-71"></path>
        <path d="M219.999884,0 C98.497885,0 2.63274644e-14,98.4974218 2.63274644e-14,219.999884 L2.63274644e-14,219.999884 C2.63274644e-14,341.502347 98.497885,439.999768 219.999884,439.999768 L219.999884,439.999768 C341.50281,439.999768 439.999768,341.502347 439.999768,219.999884 L439.999768,219.999884" id="path-73"></path>
        <path d="M219.999884,0 C98.497885,0 2.63274644e-14,98.4974218 2.63274644e-14,219.999884 L2.63274644e-14,219.999884 C2.63274644e-14,341.502347 98.497885,439.999768 219.999884,439.999768 L219.999884,439.999768 C341.50281,439.999768 439.999768,341.502347 439.999768,219.999884 L439.999768,219.999884" id="path-75"></path>
        <path d="M219.999884,0 C98.497885,0 2.63274644e-14,98.4974218 2.63274644e-14,219.999884 L2.63274644e-14,219.999884 C2.63274644e-14,341.502347 98.497885,439.999768 219.999884,439.999768 L219.999884,439.999768 C341.50281,439.999768 439.999768,341.502347 439.999768,219.999884 L439.999768,219.999884" id="path-77"></path>
        <path d="M219.999884,0 C98.497885,0 2.63274644e-14,98.4974218 2.63274644e-14,219.999884 L2.63274644e-14,219.999884 C2.63274644e-14,341.502347 98.497885,439.999768 219.999884,439.999768 L219.999884,439.999768 C341.50281,439.999768 439.999768,341.502347 439.999768,219.999884 L439.999768,219.999884" id="path-79"></path>
        <path d="M219.999884,0 C98.497885,0 2.63274644e-14,98.4974218 2.63274644e-14,219.999884 L2.63274644e-14,219.999884 C2.63274644e-14,341.502347 98.497885,439.999768 219.999884,439.999768 L219.999884,439.999768 C341.50281,439.999768 439.999768,341.502347 439.999768,219.999884 L439.999768,219.999884" id="path-81"></path>
        <path d="M219.999884,0 C98.497885,0 2.63274644e-14,98.4974218 2.63274644e-14,219.999884 L2.63274644e-14,219.999884 C2.63274644e-14,341.502347 98.497885,439.999768 219.999884,439.999768 L219.999884,439.999768 C341.50281,439.999768 439.999768,341.502347 439.999768,219.999884 L439.999768,219.999884" id="path-83"></path>
        <path d="M219.999884,0 C98.497885,0 2.63274644e-14,98.4974218 2.63274644e-14,219.999884 L2.63274644e-14,219.999884 C2.63274644e-14,341.502347 98.497885,439.999768 219.999884,439.999768 L219.999884,439.999768 C341.50281,439.999768 439.999768,341.502347 439.999768,219.999884 L439.999768,219.999884" id="path-85"></path>
        <path d="M219.999884,0 C98.497885,0 2.63274644e-14,98.4974218 2.63274644e-14,219.999884 L2.63274644e-14,219.999884 C2.63274644e-14,341.502347 98.497885,439.999768 219.999884,439.999768 L219.999884,439.999768 C341.50281,439.999768 439.999768,341.502347 439.999768,219.999884 L439.999768,219.999884" id="path-87"></path>
        <path d="M219.999884,0 C98.497885,0 2.63274644e-14,98.4974218 2.63274644e-14,219.999884 L2.63274644e-14,219.999884 C2.63274644e-14,341.502347 98.497885,439.999768 219.999884,439.999768 L219.999884,439.999768 C341.50281,439.999768 439.999768,341.502347 439.999768,219.999884 L439.999768,219.999884" id="path-89"></path>
        <path d="M219.999884,0 C98.497885,0 2.63274644e-14,98.4974218 2.63274644e-14,219.999884 L2.63274644e-14,219.999884 C2.63274644e-14,341.502347 98.497885,439.999768 219.999884,439.999768 L219.999884,439.999768 C341.50281,439.999768 439.999768,341.502347 439.999768,219.999884 L439.999768,219.999884" id="path-91"></path>
        <path d="M219.999884,0 C98.497885,0 2.63274644e-14,98.4974218 2.63274644e-14,219.999884 L2.63274644e-14,219.999884 C2.63274644e-14,341.502347 98.497885,439.999768 219.999884,439.999768 L219.999884,439.999768 C341.50281,439.999768 439.999768,341.502347 439.999768,219.999884 L439.999768,219.999884" id="path-93"></path>
        <path d="M219.999884,0 C98.497885,0 2.63274644e-14,98.4974218 2.63274644e-14,219.999884 L2.63274644e-14,219.999884 C2.63274644e-14,341.502347 98.497885,439.999768 219.999884,439.999768 L219.999884,439.999768 C341.50281,439.999768 439.999768,341.502347 439.999768,219.999884 L439.999768,219.999884" id="path-95"></path>
        <path d="M219.999884,0 C98.497885,0 2.63274644e-14,98.4974218 2.63274644e-14,219.999884 L2.63274644e-14,219.999884 C2.63274644e-14,341.502347 98.497885,439.999768 219.999884,439.999768 L219.999884,439.999768 C341.50281,439.999768 439.999768,341.502347 439.999768,219.999884 L439.999768,219.999884" id="path-97"></path>
        <path d="M219.999884,0 C98.497885,0 2.63274644e-14,98.4974218 2.63274644e-14,219.999884 L2.63274644e-14,219.999884 C2.63274644e-14,341.502347 98.497885,439.999768 219.999884,439.999768 L219.999884,439.999768 C341.50281,439.999768 439.999768,341.502347 439.999768,219.999884 L439.999768,219.999884" id="path-99"></path>
        <path d="M219.999884,0 C98.497885,0 2.63274644e-14,98.4974218 2.63274644e-14,219.999884 L2.63274644e-14,219.999884 C2.63274644e-14,341.502347 98.497885,439.999768 219.999884,439.999768 L219.999884,439.999768 C341.50281,439.999768 439.999768,341.502347 439.999768,219.999884 L439.999768,219.999884" id="path-101"></path>
    </defs>
    <g id="Page-1" stroke="none" stroke-width="1" fill="none" fill-rule="evenodd">
        <g id="illust_earth_green">
            <g id="Group-3" transform="translate(0.000232, 0.000000)">
                <mask id="mask-2" fill="white">
                    <use xlink:href="#path-1"></use>
                </mask>
                <g id="Clip-2"></g>
                <path d="M439.999768,219.999838 C439.999768,341.5023 341.502347,439.999722 219.999884,439.999722 C98.4974218,439.999722 0,341.5023 0,219.999838 C0,98.4973755 98.4974218,-4.63157651e-05 219.999884,-4.63157651e-05 C341.502347,-4.63157651e-05 439.999768,98.4973755 439.999768,219.999838" id="Fill-1" fill="#07D270" mask="url(#mask-2)"></path>
            </g>
            <g id="Group-154" opacity="0.5">
                <g id="Group-6">
                    <mask id="mask-4" fill="white">
                        <use xlink:href="#path-3"></use>
                    </mask>
                    <g id="Clip-5"></g>
                    <path d="M209.880306,26.1703989 L-66.183422,26.1703989 C-68.101821,26.1703989 -69.6571044,24.6151155 -69.6571044,22.6967165 C-69.6571044,20.7783175 -68.101821,19.2230341 -66.183422,19.2230341 L209.880306,19.2230341 C211.798705,19.2230341 213.353989,20.7783175 213.353989,22.6967165 C213.353989,24.6151155 211.798705,26.1703989 209.880306,26.1703989" id="Fill-4" fill="#FFFFFF" mask="url(#mask-4)"></path>
                </g>
                <g id="Group-9">
                    <mask id="mask-6" fill="white">
                        <use xlink:href="#path-5"></use>
                    </mask>
                    <g id="Clip-8"></g>
                    <path d="M177.521658,53.3906372 L-74.9835563,53.3906372 C-76.9019553,53.3906372 -78.4572387,51.8353538 -78.4572387,49.9169548 C-78.4572387,47.9985558 -76.9019553,46.4432724 -74.9835563,46.4432724 L177.521658,46.4432724 C179.440057,46.4432724 180.995341,47.9985558 180.995341,49.9169548 C180.995341,51.8353538 179.440057,53.3906372 177.521658,53.3906372" id="Fill-7" fill="#FFFFFF" mask="url(#mask-6)"></path>
                </g>
                <g id="Group-12">
                    <mask id="mask-8" fill="white">
                        <use xlink:href="#path-7"></use>
                    </mask>
                    <g id="Clip-11"></g>
                    <path d="M506.886912,26.1703989 L296.564707,26.1703989 C294.646308,26.1703989 293.091025,24.6151155 293.091025,22.6967165 C293.091025,20.7783175 294.646308,19.2230341 296.564707,19.2230341 L506.886912,19.2230341 C508.805311,19.2230341 510.360595,20.7783175 510.360595,22.6967165 C510.360595,24.6151155 508.805311,26.1703989 506.886912,26.1703989" id="Fill-10" fill="#FFFFFF" mask="url(#mask-8)"></path>
                </g>
                <g id="Group-15">
                    <mask id="mask-10" fill="white">
                        <use xlink:href="#path-9"></use>
                    </mask>
                    <g id="Clip-14"></g>
                    <path d="M493.238258,53.3906372 L301.329349,53.3906372 C299.41095,53.3906372 297.855666,51.8353538 297.855666,49.9169548 C297.855666,47.9985558 299.41095,46.4432724 301.329349,46.4432724 L493.238258,46.4432724 C495.156657,46.4432724 496.711941,47.9985558 496.711941,49.9169548 C496.711941,51.8353538 495.156657,53.3906372 493.238258,53.3906372" id="Fill-13" fill="#FFFFFF" mask="url(#mask-10)"></path>
                </g>
                <g id="Group-18">
                    <mask id="mask-12" fill="white">
                        <use xlink:href="#path-11"></use>
                    </mask>
                    <g id="Clip-17"></g>
                    <path d="M515.686908,80.6108755 L358.703327,80.6108755 C356.784928,80.6108755 355.229645,79.0555921 355.229645,77.1371931 C355.229645,75.2187941 356.784928,73.6635107 358.703327,73.6635107 L515.686908,73.6635107 C517.605307,73.6635107 519.16059,75.2187941 519.16059,77.1371931 C519.16059,79.0555921 517.605307,80.6108755 515.686908,80.6108755" id="Fill-16" fill="#FFFFFF" mask="url(#mask-12)"></path>
                </g>
                <g id="Group-21">
                    <mask id="mask-14" fill="white">
                        <use xlink:href="#path-13"></use>
                    </mask>
                    <g id="Clip-20"></g>
                    <path d="M242.926883,80.6108755 L76.9172858,80.6108755 C74.9988868,80.6108755 73.4436035,79.0555921 73.4436035,77.1371931 C73.4436035,75.2187941 74.9988868,73.6635107 76.9172858,73.6635107 L242.926883,73.6635107 C244.845282,73.6635107 246.400565,75.2187941 246.400565,77.1371931 C246.400565,79.0555921 244.845282,80.6108755 242.926883,80.6108755" id="Fill-19" fill="#FFFFFF" mask="url(#mask-14)"></path>
                </g>
                <g id="Group-24">
                    <mask id="mask-16" fill="white">
                        <use xlink:href="#path-15"></use>
                    </mask>
                    <g id="Clip-23"></g>
                    <path d="M228.187909,162.27159 L57.9973884,162.27159 C56.0789894,162.27159 54.523706,160.716307 54.523706,158.797908 C54.523706,156.879509 56.0789894,155.324226 57.9973884,155.324226 L228.187909,155.324226 C230.106308,155.324226 231.661592,156.879509 231.661592,158.797908 C231.661592,160.716307 230.106308,162.27159 228.187909,162.27159" id="Fill-22" fill="#FFFFFF" mask="url(#mask-16)"></path>
                </g>
                <g id="Group-27">
                    <mask id="mask-18" fill="white">
                        <use xlink:href="#path-17"></use>
                    </mask>
                    <g id="Clip-26"></g>
                    <path d="M235.66471,189.491782 L99.0596026,189.491782 C97.1412036,189.491782 95.5859202,187.936499 95.5859202,186.0181 C95.5859202,184.099701 97.1412036,182.544418 99.0596026,182.544418 L235.66471,182.544418 C237.583109,182.544418 239.138392,184.099701 239.138392,186.0181 C239.138392,187.936499 237.583109,189.491782 235.66471,189.491782" id="Fill-25" fill="#FFFFFF" mask="url(#mask-18)"></path>
                </g>
                <g id="Group-30">
                    <mask id="mask-20" fill="white">
                        <use xlink:href="#path-19"></use>
                    </mask>
                    <g id="Clip-29"></g>
                    <path d="M493.686919,189.491782 L401.788567,189.491782 C399.870168,189.491782 398.314885,187.936499 398.314885,186.0181 C398.314885,184.099701 399.870168,182.544418 401.788567,182.544418 L493.686919,182.544418 C495.605318,182.544418 497.160601,184.099701 497.160601,186.0181 C497.160601,187.936499 495.605318,189.491782 493.686919,189.491782" id="Fill-28" fill="#FFFFFF" mask="url(#mask-20)"></path>
                </g>
                <g id="Group-33">
                    <mask id="mask-22" fill="white">
                        <use xlink:href="#path-21"></use>
                    </mask>
                    <g id="Clip-32"></g>
                    <path d="M484.886924,216.712067 L370.713468,216.712067 C368.795069,216.712067 367.239786,215.156784 367.239786,213.238385 C367.239786,211.319986 368.795069,209.764702 370.713468,209.764702 L484.886924,209.764702 C486.805323,209.764702 488.360606,211.319986 488.360606,213.238385 C488.360606,215.156784 486.805323,216.712067 484.886924,216.712067" id="Fill-31" fill="#FFFFFF" mask="url(#mask-22)"></path>
                </g>
                <g id="Group-36">
                    <mask id="mask-24" fill="white">
                        <use xlink:href="#path-23"></use>
                    </mask>
                    <g id="Clip-35"></g>
                    <path d="M505.236913,243.932305 L374.763087,243.932305 C372.844688,243.932305 371.289405,242.377022 371.289405,240.458623 C371.289405,238.540224 372.844688,236.984941 374.763087,236.984941 L505.236913,236.984941 C507.155312,236.984941 508.710595,238.540224 508.710595,240.458623 C508.710595,242.377022 507.155312,243.932305 505.236913,243.932305" id="Fill-34" fill="#FFFFFF" mask="url(#mask-24)"></path>
                </g>
                <g id="Group-39">
                    <mask id="mask-26" fill="white">
                        <use xlink:href="#path-25"></use>
                    </mask>
                    <g id="Clip-38"></g>
                    <path d="M490.142235,271.152544 L359.668409,271.152544 C357.75001,271.152544 356.194726,269.59726 356.194726,267.678861 C356.194726,265.760462 357.75001,264.205179 359.668409,264.205179 L490.142235,264.205179 C492.060634,264.205179 493.615917,265.760462 493.615917,267.678861 C493.615917,269.59726 492.060634,271.152544 490.142235,271.152544" id="Fill-37" fill="#FFFFFF" mask="url(#mask-26)"></path>
                </g>
                <g id="Group-42">
                    <mask id="mask-28" fill="white">
                        <use xlink:href="#path-27"></use>
                    </mask>
                    <g id="Clip-41"></g>
                    <path d="M505.236913,298.372782 L374.763087,298.372782 C372.844688,298.372782 371.289405,296.817499 371.289405,294.8991 C371.289405,292.980701 372.844688,291.425417 374.763087,291.425417 L505.236913,291.425417 C507.155312,291.425417 508.710595,292.980701 508.710595,294.8991 C508.710595,296.817499 507.155312,298.372782 505.236913,298.372782" id="Fill-40" fill="#FFFFFF" mask="url(#mask-28)"></path>
                </g>
                <g id="Group-45">
                    <mask id="mask-30" fill="white">
                        <use xlink:href="#path-29"></use>
                    </mask>
                    <g id="Clip-44"></g>
                    <path d="M218.06583,216.712067 L188.443657,216.712067 C186.525258,216.712067 184.969974,215.156784 184.969974,213.238385 C184.969974,211.319986 186.525258,209.764702 188.443657,209.764702 L218.06583,209.764702 C219.984229,209.764702 221.539513,211.319986 221.539513,213.238385 C221.539513,215.156784 219.984229,216.712067 218.06583,216.712067" id="Fill-43" fill="#FFFFFF" mask="url(#mask-30)"></path>
                </g>
                <g id="Group-48">
                    <mask id="mask-32" fill="white">
                        <use xlink:href="#path-31"></use>
                    </mask>
                    <g id="Clip-47"></g>
                    <path d="M188.798019,271.152544 L159.031803,271.152544 C157.113404,271.152544 155.55812,269.59726 155.55812,267.678861 C155.55812,265.760462 157.113404,264.205179 159.031803,264.205179 L188.798019,264.205179 C190.716418,264.205179 192.271701,265.760462 192.271701,267.678861 C192.271701,269.59726 190.716418,271.152544 188.798019,271.152544" id="Fill-46" fill="#FFFFFF" mask="url(#mask-32)"></path>
                </g>
                <g id="Group-51">
                    <mask id="mask-34" fill="white">
                        <use xlink:href="#path-33"></use>
                    </mask>
                    <g id="Clip-50"></g>
                    <path d="M188.735631,230.322279 L138.291742,230.322279 C136.373343,230.322279 134.81806,228.766995 134.81806,226.848596 C134.81806,224.930197 136.373343,223.374914 138.291742,223.374914 L188.735631,223.374914 C190.65403,223.374914 192.209314,224.930197 192.209314,226.848596 C192.209314,228.766995 190.65403,230.322279 188.735631,230.322279" id="Fill-49" fill="#FFFFFF" mask="url(#mask-34)"></path>
                </g>
                <g id="Group-54">
                    <mask id="mask-36" fill="white">
                        <use xlink:href="#path-35"></use>
                    </mask>
                    <g id="Clip-53"></g>
                    <path d="M173.914772,216.712067 L108.378427,216.712067 C106.460028,216.712067 104.904745,215.156784 104.904745,213.238385 C104.904745,211.319986 106.460028,209.764702 108.378427,209.764702 L173.914772,209.764702 C175.833171,209.764702 177.388454,211.319986 177.388454,213.238385 C177.388454,215.156784 175.833171,216.712067 173.914772,216.712067" id="Fill-52" fill="#FFFFFF" mask="url(#mask-36)"></path>
                </g>
                <g id="Group-57">
                    <mask id="mask-38" fill="white">
                        <use xlink:href="#path-37"></use>
                    </mask>
                    <g id="Clip-56"></g>
                    <path d="M121.236239,298.372782 L95.0585689,298.372782 C93.1401699,298.372782 91.5848865,296.817499 91.5848865,294.8991 C91.5848865,292.980701 93.1401699,291.425417 95.0585689,291.425417 L121.236239,291.425417 C123.154638,291.425417 124.709922,292.980701 124.709922,294.8991 C124.709922,296.817499 123.154638,298.372782 121.236239,298.372782" id="Fill-55" fill="#FFFFFF" mask="url(#mask-38)"></path>
                </g>
                <g id="Group-60">
                    <mask id="mask-40" fill="white">
                        <use xlink:href="#path-39"></use>
                    </mask>
                    <g id="Clip-59"></g>
                    <path d="M149.182894,325.592974 L83.9249074,325.592974 C82.0060453,325.592974 80.451225,324.037691 80.451225,322.119292 C80.451225,320.200893 82.0060453,318.645609 83.9249074,318.645609 L149.182894,318.645609 C151.101293,318.645609 152.656576,320.200893 152.656576,322.119292 C152.656576,324.037691 151.101293,325.592974 149.182894,325.592974" id="Fill-58" fill="#FFFFFF" mask="url(#mask-40)"></path>
                </g>
                <g id="Group-63">
                    <mask id="mask-42" fill="white">
                        <use xlink:href="#path-41"></use>
                    </mask>
                    <g id="Clip-62"></g>
                    <path d="M191.514762,325.592974 L165.141639,325.592974 C163.22324,325.592974 161.667957,324.037691 161.667957,322.119292 C161.667957,320.200893 163.22324,318.645609 165.141639,318.645609 L191.514762,318.645609 C193.433161,318.645609 194.988445,320.200893 194.988445,322.119292 C194.988445,324.037691 193.433161,325.592974 191.514762,325.592974" id="Fill-61" fill="#FFFFFF" mask="url(#mask-42)"></path>
                </g>
                <g id="Group-66">
                    <mask id="mask-44" fill="white">
                        <use xlink:href="#path-43"></use>
                    </mask>
                    <g id="Clip-65"></g>
                    <path d="M233.246934,352.813212 L145.622138,352.813212 C143.703739,352.813212 142.148456,351.257929 142.148456,349.33953 C142.148456,347.421131 143.703739,345.865847 145.622138,345.865847 L233.246934,345.865847 C235.165333,345.865847 236.720616,347.421131 236.720616,349.33953 C236.720616,351.257929 235.165333,352.813212 233.246934,352.813212" id="Fill-64" fill="#FFFFFF" mask="url(#mask-44)"></path>
                </g>
                <g id="Group-69">
                    <mask id="mask-46" fill="white">
                        <use xlink:href="#path-45"></use>
                    </mask>
                    <g id="Clip-68"></g>
                    <path d="M290.313005,380.033451 L142.306346,380.033451 C140.387947,380.033451 138.832664,378.478167 138.832664,376.559768 C138.832664,374.641369 140.387947,373.086086 142.306346,373.086086 L290.313005,373.086086 C292.231404,373.086086 293.786687,374.641369 293.786687,376.559768 C293.786687,378.478167 292.231404,380.033451 290.313005,380.033451" id="Fill-67" fill="#FFFFFF" mask="url(#mask-46)"></path>
                </g>
                <g id="Group-72">
                    <mask id="mask-48" fill="white">
                        <use xlink:href="#path-47"></use>
                    </mask>
                    <g id="Clip-71"></g>
                    <path d="M284.305758,407.25392 L158.124014,407.25392 C156.205615,407.25392 154.650331,405.698637 154.650331,403.780238 C154.650331,401.861839 156.205615,400.306556 158.124014,400.306556 L284.305758,400.306556 C286.224157,400.306556 287.77944,401.861839 287.77944,403.780238 C287.77944,405.698637 286.224157,407.25392 284.305758,407.25392" id="Fill-70" fill="#FFFFFF" mask="url(#mask-48)"></path>
                </g>
                <g id="Group-75">
                    <mask id="mask-50" fill="white">
                        <use xlink:href="#path-49"></use>
                    </mask>
                    <g id="Clip-74"></g>
                    <path d="M360.799347,420.863947 L209.265742,420.863947 C207.347344,420.863947 205.79206,419.308664 205.79206,417.390265 C205.79206,415.471866 207.347344,413.916582 209.265742,413.916582 L360.799347,413.916582 C362.717746,413.916582 364.273029,415.471866 364.273029,417.390265 C364.273029,419.308664 362.717746,420.863947 360.799347,420.863947" id="Fill-73" fill="#FFFFFF" mask="url(#mask-50)"></path>
                </g>
                <g id="Group-78">
                    <mask id="mask-52" fill="white">
                        <use xlink:href="#path-51"></use>
                    </mask>
                    <g id="Clip-77"></g>
                    <path d="M390.348249,434.474159 L238.814645,434.474159 C236.896246,434.474159 235.340962,432.918875 235.340962,431.000476 C235.340962,429.082077 236.896246,427.526794 238.814645,427.526794 L390.348249,427.526794 C392.266648,427.526794 393.821932,429.082077 393.821932,431.000476 C393.821932,432.918875 392.266648,434.474159 390.348249,434.474159" id="Fill-76" fill="#FFFFFF" mask="url(#mask-52)"></path>
                </g>
                <g id="Group-81">
                    <mask id="mask-54" fill="white">
                        <use xlink:href="#path-53"></use>
                    </mask>
                    <g id="Clip-80"></g>
                    <path d="M287.438834,107.831114 L62.6082155,107.831114 C60.6898165,107.831114 59.1345331,106.27583 59.1345331,104.357431 C59.1345331,102.439032 60.6898165,100.883749 62.6082155,100.883749 L287.438834,100.883749 C289.357233,100.883749 290.912516,102.439032 290.912516,104.357431 C290.912516,106.27583 289.357233,107.831114 287.438834,107.831114" id="Fill-79" fill="#FFFFFF" mask="url(#mask-54)"></path>
                </g>
                <g id="Group-84">
                    <mask id="mask-56" fill="white">
                        <use xlink:href="#path-55"></use>
                    </mask>
                    <g id="Clip-83"></g>
                    <path d="M259.64692,135.051352 L38.5655629,135.051352 C36.6467007,135.051352 35.0918805,133.496069 35.0918805,131.57767 C35.0918805,129.659271 36.6467007,128.103987 38.5655629,128.103987 L259.64692,128.103987 C261.565319,128.103987 263.120603,129.659271 263.120603,131.57767 C263.120603,133.496069 261.565319,135.051352 259.64692,135.051352" id="Fill-82" fill="#FFFFFF" mask="url(#mask-56)"></path>
                </g>
                <g id="Group-87">
                    <mask id="mask-58" fill="white">
                        <use xlink:href="#path-57"></use>
                    </mask>
                    <g id="Clip-86"></g>
                    <path d="M196.680313,39.7803791 L-79.3834151,39.7803791 C-81.3018141,39.7803791 -82.8570974,38.2250957 -82.8570974,36.3066967 C-82.8570974,34.3882977 -81.3018141,32.8330143 -79.3834151,32.8330143 L196.680313,32.8330143 C198.598712,32.8330143 200.153996,34.3882977 200.153996,36.3066967 C200.153996,38.2250957 198.598712,39.7803791 196.680313,39.7803791" id="Fill-85" fill="#FFFFFF" mask="url(#mask-58)"></path>
                </g>
                <g id="Group-90">
                    <mask id="mask-60" fill="white">
                        <use xlink:href="#path-59"></use>
                    </mask>
                    <g id="Clip-89"></g>
                    <path d="M230.014742,12.5601408 L-46.0485231,12.5601408 C-47.9669221,12.5601408 -49.5222055,11.0048574 -49.5222055,9.08645838 C-49.5222055,7.16805939 -47.9669221,5.61277599 -46.0485231,5.61277599 L230.014742,5.61277599 C231.933141,5.61277599 233.488424,7.16805939 233.488424,9.08645838 C233.488424,11.0048574 231.933141,12.5601408 230.014742,12.5601408" id="Fill-88" fill="#FFFFFF" mask="url(#mask-60)"></path>
                </g>
                <g id="Group-93">
                    <mask id="mask-62" fill="white">
                        <use xlink:href="#path-61"></use>
                    </mask>
                    <g id="Clip-92"></g>
                    <path d="M168.721663,67.0006174 L-83.7835517,67.0006174 C-85.7019507,67.0006174 -87.2572341,65.445334 -87.2572341,63.526935 C-87.2572341,61.608536 -85.7019507,60.0532526 -83.7835517,60.0532526 L168.721663,60.0532526 C170.640062,60.0532526 172.195345,61.608536 172.195345,63.526935 C172.195345,65.445334 170.640062,67.0006174 168.721663,67.0006174" id="Fill-91" fill="#FFFFFF" mask="url(#mask-62)"></path>
                </g>
                <g id="Group-96">
                    <mask id="mask-64" fill="white">
                        <use xlink:href="#path-63"></use>
                    </mask>
                    <g id="Clip-95"></g>
                    <path d="M515.686908,39.7803791 L284.202566,39.7803791 C282.284167,39.7803791 280.728884,38.2250957 280.728884,36.3066967 C280.728884,34.3882977 282.284167,32.8330143 284.202566,32.8330143 L515.686908,32.8330143 C517.605307,32.8330143 519.16059,34.3882977 519.16059,36.3066967 C519.16059,38.2250957 517.605307,39.7803791 515.686908,39.7803791" id="Fill-94" fill="#FFFFFF" mask="url(#mask-64)"></path>
                </g>
                <g id="Group-99">
                    <mask id="mask-66" fill="white">
                        <use xlink:href="#path-65"></use>
                    </mask>
                    <g id="Clip-98"></g>
                    <path d="M529.659679,67.0006174 L337.75077,67.0006174 C335.832371,67.0006174 334.277087,65.445334 334.277087,63.526935 C334.277087,61.608536 335.832371,60.0532526 337.75077,60.0532526 L529.659679,60.0532526 C531.578078,60.0532526 533.133362,61.608536 533.133362,63.526935 C533.133362,65.445334 531.578078,67.0006174 529.659679,67.0006174" id="Fill-97" fill="#FFFFFF" mask="url(#mask-66)"></path>
                </g>
                <g id="Group-102">
                    <mask id="mask-68" fill="white">
                        <use xlink:href="#path-67"></use>
                    </mask>
                    <g id="Clip-101"></g>
                    <path d="M533.286898,94.2208557 L376.303318,94.2208557 C374.384919,94.2208557 372.829635,92.6655723 372.829635,90.7471733 C372.829635,88.8287743 374.384919,87.2734909 376.303318,87.2734909 L533.286898,87.2734909 C535.205297,87.2734909 536.760581,88.8287743 536.760581,90.7471733 C536.760581,92.6655723 535.205297,94.2208557 533.286898,94.2208557" id="Fill-100" fill="#FFFFFF" mask="url(#mask-68)"></path>
                </g>
                <g id="Group-105">
                    <mask id="mask-70" fill="white">
                        <use xlink:href="#path-69"></use>
                    </mask>
                    <g id="Clip-104"></g>
                    <path d="M255.246923,94.2208557 L89.2373257,94.2208557 C87.3189267,94.2208557 85.7636433,92.6655723 85.7636433,90.7471733 C85.7636433,88.8287743 87.3189267,87.2734909 89.2373257,87.2734909 L255.246923,87.2734909 C257.165321,87.2734909 258.720605,88.8287743 258.720605,90.7471733 C258.720605,92.6655723 257.165321,94.2208557 255.246923,94.2208557" id="Fill-103" fill="#FFFFFF" mask="url(#mask-70)"></path>
                </g>
                <g id="Group-108">
                    <mask id="mask-72" fill="white">
                        <use xlink:href="#path-71"></use>
                    </mask>
                    <g id="Clip-107"></g>
                    <path d="M242.406016,175.881571 L79.9974695,175.881571 C78.0790705,175.881571 76.5237871,174.326287 76.5237871,172.407888 C76.5237871,170.489489 78.0790705,168.934206 79.9974695,168.934206 L242.406016,168.934206 C244.324415,168.934206 245.879698,170.489489 245.879698,172.407888 C245.879698,174.326287 244.324415,175.881571 242.406016,175.881571" id="Fill-106" fill="#FFFFFF" mask="url(#mask-72)"></path>
                </g>
                <g id="Group-111">
                    <mask id="mask-74" fill="white">
                        <use xlink:href="#path-73"></use>
                    </mask>
                    <g id="Clip-110"></g>
                    <path d="M220.000116,203.101809 L90.8750048,203.101809 C88.9566058,203.101809 87.4013224,201.546526 87.4013224,199.628127 C87.4013224,197.709728 88.9566058,196.154444 90.8750048,196.154444 L220.000116,196.154444 C221.918515,196.154444 223.473798,197.709728 223.473798,199.628127 C223.473798,201.546526 221.918515,203.101809 220.000116,203.101809" id="Fill-109" fill="#FFFFFF" mask="url(#mask-74)"></path>
                </g>
                <g id="Group-114">
                    <mask id="mask-76" fill="white">
                        <use xlink:href="#path-75"></use>
                    </mask>
                    <g id="Clip-113"></g>
                    <path d="M484.886924,203.101809 L392.988572,203.101809 C391.070173,203.101809 389.51489,201.546526 389.51489,199.628127 C389.51489,197.709728 391.070173,196.154444 392.988572,196.154444 L484.886924,196.154444 C486.805323,196.154444 488.360606,197.709728 488.360606,199.628127 C488.360606,201.546526 486.805323,203.101809 484.886924,203.101809" id="Fill-112" fill="#FFFFFF" mask="url(#mask-76)"></path>
                </g>
                <g id="Group-117">
                    <mask id="mask-78" fill="white">
                        <use xlink:href="#path-77"></use>
                    </mask>
                    <g id="Clip-116"></g>
                    <path d="M472.987755,230.322279 L358.8143,230.322279 C356.895901,230.322279 355.340617,228.766995 355.340617,226.848596 C355.340617,224.930197 356.895901,223.374914 358.8143,223.374914 L472.987755,223.374914 C474.906154,223.374914 476.461438,224.930197 476.461438,226.848596 C476.461438,228.766995 474.906154,230.322279 472.987755,230.322279" id="Fill-115" fill="#FFFFFF" mask="url(#mask-78)"></path>
                </g>
                <g id="Group-120">
                    <mask id="mask-80" fill="white">
                        <use xlink:href="#path-79"></use>
                    </mask>
                    <g id="Clip-119"></g>
                    <path d="M521.380273,257.542517 L390.906447,257.542517 C388.988048,257.542517 387.432765,255.987234 387.432765,254.068835 C387.432765,252.150436 388.988048,250.595152 390.906447,250.595152 L521.380273,250.595152 C523.298672,250.595152 524.853955,252.150436 524.853955,254.068835 C524.853955,255.987234 523.298672,257.542517 521.380273,257.542517" id="Fill-118" fill="#FFFFFF" mask="url(#mask-80)"></path>
                </g>
                <g id="Group-123">
                    <mask id="mask-82" fill="white">
                        <use xlink:href="#path-81"></use>
                    </mask>
                    <g id="Clip-122"></g>
                    <path d="M470.97251,284.762755 L340.498684,284.762755 C338.580285,284.762755 337.025002,283.207472 337.025002,281.289073 C337.025002,279.370674 338.580285,277.815391 340.498684,277.815391 L470.97251,277.815391 C472.890909,277.815391 474.446192,279.370674 474.446192,281.289073 C474.446192,283.207472 472.890909,284.762755 470.97251,284.762755" id="Fill-121" fill="#FFFFFF" mask="url(#mask-82)"></path>
                </g>
                <g id="Group-126">
                    <mask id="mask-84" fill="white">
                        <use xlink:href="#path-83"></use>
                    </mask>
                    <g id="Clip-125"></g>
                    <path d="M529.571031,311.982994 L399.097205,311.982994 C397.178806,311.982994 395.623522,310.42771 395.623522,308.509311 C395.623522,306.590912 397.178806,305.035629 399.097205,305.035629 L529.571031,305.035629 C531.48943,305.035629 533.044713,306.590912 533.044713,308.509311 C533.044713,310.42771 531.48943,311.982994 529.571031,311.982994" id="Fill-124" fill="#FFFFFF" mask="url(#mask-84)"></path>
                </g>
                <g id="Group-129">
                    <mask id="mask-86" fill="white">
                        <use xlink:href="#path-85"></use>
                    </mask>
                    <g id="Clip-128"></g>
                    <path d="M204.172907,243.932305 L156.154111,243.932305 C154.235713,243.932305 152.680429,242.377022 152.680429,240.458623 C152.680429,238.540224 154.235713,236.984941 156.154111,236.984941 L204.172907,236.984941 C206.091306,236.984941 207.64659,238.540224 207.64659,240.458623 C207.64659,242.377022 206.091306,243.932305 204.172907,243.932305" id="Fill-127" fill="#FFFFFF" mask="url(#mask-86)"></path>
                </g>
                <g id="Group-132">
                    <mask id="mask-88" fill="white">
                        <use xlink:href="#path-87"></use>
                    </mask>
                    <g id="Clip-131"></g>
                    <path d="M170.400841,284.762755 L114.945586,284.762755 C113.027187,284.762755 111.471903,283.207472 111.471903,281.289073 C111.471903,279.370674 113.027187,277.815391 114.945586,277.815391 L170.400841,277.815391 C172.31924,277.815391 173.874523,279.370674 173.874523,281.289073 C173.874523,283.207472 172.31924,284.762755 170.400841,284.762755" id="Fill-130" fill="#FFFFFF" mask="url(#mask-88)"></path>
                </g>
                <g id="Group-135">
                    <mask id="mask-90" fill="white">
                        <use xlink:href="#path-89"></use>
                    </mask>
                    <g id="Clip-134"></g>
                    <path d="M181.376195,257.542517 L130.932306,257.542517 C129.013907,257.542517 127.458623,255.987234 127.458623,254.068835 C127.458623,252.150436 129.013907,250.595152 130.932306,250.595152 L181.376195,250.595152 C183.294594,250.595152 184.849877,252.150436 184.849877,254.068835 C184.849877,255.987234 183.294594,257.542517 181.376195,257.542517" id="Fill-133" fill="#FFFFFF" mask="url(#mask-90)"></path>
                </g>
                <g id="Group-138">
                    <mask id="mask-92" fill="white">
                        <use xlink:href="#path-91"></use>
                    </mask>
                    <g id="Clip-137"></g>
                    <path d="M168.159482,311.982994 L118.421908,311.982994 C116.503509,311.982994 114.948226,310.42771 114.948226,308.509311 C114.948226,306.590912 116.503509,305.035629 118.421908,305.035629 L168.159482,305.035629 C170.077881,305.035629 171.633164,306.590912 171.633164,308.509311 C171.633164,310.42771 170.077881,311.982994 168.159482,311.982994" id="Fill-136" fill="#FFFFFF" mask="url(#mask-92)"></path>
                </g>
                <g id="Group-141">
                    <mask id="mask-94" fill="white">
                        <use xlink:href="#path-93"></use>
                    </mask>
                    <g id="Clip-140"></g>
                    <path d="M183.341234,339.203232 L128.967452,339.203232 C127.049053,339.203232 125.49377,337.647949 125.49377,335.72955 C125.49377,333.811151 127.049053,332.255867 128.967452,332.255867 L183.341234,332.255867 C185.259633,332.255867 186.814916,333.811151 186.814916,335.72955 C186.814916,337.647949 185.259633,339.203232 183.341234,339.203232" id="Fill-139" fill="#FFFFFF" mask="url(#mask-94)"></path>
                </g>
                <g id="Group-144">
                    <mask id="mask-96" fill="white">
                        <use xlink:href="#path-95"></use>
                    </mask>
                    <g id="Clip-143"></g>
                    <path d="M265.027284,366.42347 L177.402488,366.42347 C175.484089,366.42347 173.928805,364.868187 173.928805,362.949788 C173.928805,361.031389 175.484089,359.476106 177.402488,359.476106 L265.027284,359.476106 C266.945683,359.476106 268.500966,361.031389 268.500966,362.949788 C268.500966,364.868187 266.945683,366.42347 265.027284,366.42347" id="Fill-142" fill="#FFFFFF" mask="url(#mask-96)"></path>
                </g>
                <g id="Group-147">
                    <mask id="mask-98" fill="white">
                        <use xlink:href="#path-97"></use>
                    </mask>
                    <g id="Clip-146"></g>
                    <path d="M307.564284,393.643709 L124.964844,393.643709 C123.046445,393.643709 121.491161,392.088425 121.491161,390.170026 C121.491161,388.251627 123.046445,386.696344 124.964844,386.696344 L307.564284,386.696344 C309.482683,386.696344 311.037967,388.251627 311.037967,390.170026 C311.037967,392.088425 309.482683,393.643709 307.564284,393.643709" id="Fill-145" fill="#FFFFFF" mask="url(#mask-98)"></path>
                </g>
                <g id="Group-150">
                    <mask id="mask-100" fill="white">
                        <use xlink:href="#path-99"></use>
                    </mask>
                    <g id="Clip-149"></g>
                    <path d="M279.078931,121.441094 L54.2483125,121.441094 C52.3299135,121.441094 50.7746301,119.885811 50.7746301,117.967412 C50.7746301,116.049013 52.3299135,114.493729 54.2483125,114.493729 L279.078931,114.493729 C280.99733,114.493729 282.552613,116.049013 282.552613,117.967412 C282.552613,119.885811 280.99733,121.441094 279.078931,121.441094" id="Fill-148" fill="#FFFFFF" mask="url(#mask-100)"></path>
                </g>
                <g id="Group-153">
                    <mask id="mask-102" fill="white">
                        <use xlink:href="#path-101"></use>
                    </mask>
                    <g id="Clip-152"></g>
                    <path d="M248.164733,148.661332 L38.5655165,148.661332 C36.6466544,148.661332 35.0918342,147.106049 35.0918342,145.18765 C35.0918342,143.269251 36.6466544,141.713968 38.5655165,141.713968 L248.164733,141.713968 C250.083132,141.713968 251.638415,143.269251 251.638415,145.18765 C251.638415,147.106049 250.083132,148.661332 248.164733,148.661332" id="Fill-151" fill="#FFFFFF" mask="url(#mask-102)"></path>
                </g>
            </g>
        </g>
    </g>
</svg>