<?xml version="1.0" encoding="UTF-8"?>
<svg width="56px" height="56px" viewBox="0 0 56 56" version="1.1" xmlns="http://www.w3.org/2000/svg" xmlns:xlink="http://www.w3.org/1999/xlink">
    <title>illust_crushed_cluster</title>
    <g id="Page-1" stroke="none" stroke-width="1" fill="none" fill-rule="evenodd">
        <g id="illust_crushed_cluster">
            <rect id="Rectangle" x="0" y="0" width="56" height="56"></rect>
            <path d="M43.4967236,28.3654731 C43.4967236,30.4873224 41.776669,32.2075496 39.6546471,32.2075496 C37.5327977,32.2075496 35.8125706,30.4873224 35.8125706,28.3654731 C35.8125706,26.2436237 37.5327977,24.5233966 39.6546471,24.5233966 C41.776669,24.5233966 43.4967236,26.2436237 43.4967236,28.3654731" id="Fill-1663" fill="#C5F5DB" transform="translate(39.654647, 28.365473) rotate(-90.000000) translate(-39.654647, -28.365473) "></path>
            <path d="M12.7558712,6.45609609 C12.7558712,8.57794544 11.0358167,10.2981726 8.91379472,10.2981726 C6.79194538,10.2981726 5.07171824,8.57794544 5.07171824,6.45609609 C5.07171824,4.33424674 6.79194538,2.6140196 8.91379472,2.6140196 C11.0358167,2.6140196 12.7558712,4.33424674 12.7558712,6.45609609" id="Fill-1667" fill="#C5F5DB" transform="translate(8.913795, 6.456096) rotate(-90.000000) translate(-8.913795, -6.456096) "></path>
            <path d="M8.38120458,51.8832216 C6.25935524,51.8832216 4.5391281,50.1629945 4.5391281,48.0411452 C4.5391281,45.9192958 6.25935524,44.1990687 8.38120458,44.1990687 C10.5032265,44.1990687 12.2232811,45.9192958 12.2232811,48.0411452 C12.2232811,50.1629945 10.5032265,51.8832216 8.38120458,51.8832216 Z" id="Fill-1669-Copy" fill="#C5F5DB" transform="translate(8.381205, 48.041145) rotate(-90.000000) translate(-8.381205, -48.041145) "></path>
            <polygon id="Stroke-1681" fill="#8AEAB7" fill-rule="nonzero" points="15.4149617 19 20 21.6504957 18.5700478 24.5312171 16.555752 23.3663323 14.5853452 27 10 24.3495935 11.4298404 21.4688075 13.4448043 22.6333943"></polygon>
            <polygon id="Stroke-1683" fill="#8AEAB7" fill-rule="nonzero" points="50.5333252 3 52 5.57316325 49.8211408 6.57335328 51.2597188 9.79967608 46.4665069 12 45 9.42675966 47.1787752 8.42631605 45.7400522 5.20066985"></polygon>
            <polygon id="Stroke-1685-Copy" fill="#8AEAB7" fill-rule="nonzero" points="32.936036 44.0892666 34.0220355 40 39 41.1360348 38.4246185 44.4492328 36.0640718 43.9103516 34.9778058 48 30 46.8635588 30.5755972 43.5504101"></polygon>
            <polygon id="Stroke-1693-Copy" fill="#3CDC87" fill-rule="nonzero" points="47.9575466 44 50 44.4975459 49.0424534 52 47 51.5024541"></polygon>
            <polygon id="Stroke-1695" fill="#3CDC87" fill-rule="nonzero" points="32.7004798 8 35 8.73112264 33.2995202 16 31 15.2688774"></polygon>
            <polygon id="Stroke-1687-Copy" fill="#3CDC87" fill-rule="nonzero" points="12.4229212 35 19 38.7477522 17.5770788 41 11 37.2522478"></polygon>
        </g>
    </g>
</svg>