<?xml version="1.0" encoding="UTF-8"?>
<svg width="76px" height="76px" viewBox="0 0 76 76" version="1.1" xmlns="http://www.w3.org/2000/svg" xmlns:xlink="http://www.w3.org/1999/xlink">
    <title>Group 17</title>
    <g id="Page-1" stroke="none" stroke-width="1" fill="none" fill-rule="evenodd">
        <g id="Group-17">
            <rect id="Rectangle" x="0" y="0" width="76" height="76"></rect>
            <path d="M41.8296439,6 C42.1104065,6 42.3798287,6.11237197 42.5783482,6.31234753 C42.7768676,6.51232308 42.8884176,6.78372717 42.8884176,7.06655253 L42.8884176,7.06655253 L42.8885149,10.8537411 C46.2373861,13.5697323 48.1838017,17.6678538 48.1823837,21.9983008 L48.1823837,21.9983008 L48.1823837,37.9965887 C48.1823837,38.1108622 48.164422,38.2241825 48.1285,38.3327417 L48.1285,38.3327417 L47.9899398,38.7420976 C47.8979965,39.0092291 47.8072418,39.2648632 47.7196439,39.5130916 C47.0196263,40.9553144 46.8017294,42.5870788 47.0980893,44.1644795 C47.0980893,44.1644795 47.3507902,45.1922445 47.6122049,46.2653067 L47.724062,46.7250994 C47.9644924,47.7149136 48.1823825,48.6227668 48.1823825,48.6620401 L48.1823825,48.6620401 L48.1823825,65.7268805 C48.2490066,66.8777821 47.8241055,68.0024039 47.0148999,68.8170793 C46.2061177,69.6322302 45.0896741,70.0602749 43.9472391,69.9931394 L43.9472391,69.9931394 L31.241954,69.9931394 C30.0994464,70.060253 28.9830269,69.6322302 28.1742932,68.8170793 C27.3650875,68.0023551 26.9401647,66.877709 27.0068106,65.7268805 L27.0068106,65.7268805 L27.0072832,48.6620401 C27.0072832,48.6227531 27.2264085,47.7095343 27.468202,46.7138035 L27.6368046,46.0209951 C27.8785981,45.0293285 28.0977234,44.1377852 28.0977234,44.1377852 C28.5127264,42.2994144 28.1048141,41.1891027 27.4284332,39.3502443 C27.3130934,39.0345691 27.1911468,38.7036453 27.0673127,38.3517804 C27.0276093,38.237507 27.0072839,38.1175155 27.0068113,37.9965758 L27.0068113,37.9965758 L27.0068113,21.9982879 C26.9978571,17.6583333 28.9452748,13.5487541 32.3006801,10.8261807 L32.3006801,10.8261807 L32.3006801,7.06655253 C32.3006801,6.47757175 32.7747687,6 33.3594538,6 L33.3594538,6 Z M45.6320211,39.0633721 L29.5785909,39.0633721 C30.3684119,40.8073988 30.5711883,42.7633952 30.1566572,44.6341893 L30.1566572,44.6341893 L29.1243588,48.7937441 L29.1243588,65.7269415 C29.0643294,66.309267 29.2675776,66.8877772 29.6787933,67.3015387 C30.0895491,67.7157755 30.6638401,67.9205158 31.2419063,67.8600465 L31.2419063,67.8600465 L43.9471914,67.8600465 C44.5252698,67.920517 45.0995607,67.7157755 45.5103045,67.3015387 C45.9215201,66.887765 46.1247671,66.3092548 46.0647389,65.7269415 L46.0647389,65.7269415 L46.0649809,48.7937441 L45.0378736,44.6541795 C44.6465145,42.7738779 44.8544818,40.8175158 45.6320211,39.0633721 L45.6320211,39.0633721 Z M43.8648649,61.3513514 L43.8648649,63.5135135 L30.8918919,63.5135135 L30.8918919,61.3513514 L43.8648649,61.3513514 Z M43.8648649,54.8648649 L43.8648649,57.027027 L30.8918919,57.027027 L30.8918919,54.8648649 L43.8648649,54.8648649 Z M43.8648649,48.3783784 L43.8648649,50.5405405 L30.8918919,50.5405405 L30.8918919,48.3783784 L43.8648649,48.3783784 Z M46.0647389,23.0648404 L29.1243588,23.0648404 L29.1243588,36.9300233 L46.0647389,36.9300233 L46.0647389,23.0648404 Z M37.5945946,25.8918919 C37.9430473,25.8918919 38.2717071,26.0545903 38.4845495,26.3320514 C39.192624,27.3600572 40.8378378,29.9002591 40.8378378,31.2866351 C40.8378378,32.1494013 40.4960322,32.977471 39.8880345,33.5875929 C39.2800368,34.1977149 38.4546994,34.5405405 37.5946687,34.5405405 C36.734601,34.5405405 35.9092636,34.1976034 35.3011547,33.5875929 C34.6930458,32.9775825 34.3513514,32.1495129 34.3513514,31.2866351 C34.3513514,29.9002591 35.9966269,27.3600572 36.7046397,26.3320514 C36.9174698,26.0545903 37.2461419,25.8918919 37.5945946,25.8918919 Z M37.5946687,28.9589638 C37.113015,29.6722334 36.7481422,30.4580697 36.5135918,31.2865732 C36.5135918,31.8855511 36.9976671,32.3712289 37.5946687,32.3712289 C38.1916703,32.3712289 38.6757457,31.8855511 38.6757457,31.2865732 C38.4411952,30.458144 38.0763225,29.672221 37.5946687,28.9589638 Z M41.4517524,12.3993078 L33.6877342,12.4345419 C31.0899269,14.5219375 29.4606375,17.5959247 29.1836501,20.9317354 L29.1836501,20.9317354 L46.0044795,20.9317354 C45.7076599,17.580681 44.062749,14.4976738 41.4517524,12.3993078 L41.4517524,12.3993078 Z M43,16.3783784 L43,18.5405405 L40.8378378,18.5405405 L40.8378378,16.3783784 L43,16.3783784 Z M38.6756757,14.2162162 L38.6756757,16.3783784 L36.5135135,16.3783784 L36.5135135,14.2162162 L38.6756757,14.2162162 Z M40.7708701,8.13310505 L34.4182276,8.13310505 L34.4182276,10.2662101 L40.7708701,10.2662101 L40.7708701,8.13310505 Z" id="Combined-Shape" fill="#3CDC87" fill-rule="nonzero" transform="translate(37.594595, 38.000000) scale(-1, 1) translate(-37.594595, -38.000000) "></path>
        </g>
    </g>
</svg>