<?xml version="1.0" encoding="UTF-8"?>
<svg width="76px" height="76px" viewBox="0 0 76 76" version="1.1" xmlns="http://www.w3.org/2000/svg" xmlns:xlink="http://www.w3.org/1999/xlink">
    <title>illust_plastic_bag</title>
    <g id="Page-1" stroke="none" stroke-width="1" fill="none" fill-rule="evenodd">
        <g id="illust_plastic_bag">
            <rect id="Rectangle" x="0" y="0" width="76" height="76"></rect>
            <g id="noun-plastic-bag-4625670" transform="translate(24.000000, 18.000000)" fill="#3CDC87" fill-rule="nonzero">
                <path d="M26.1207089,0.000409159619 L23.5114894,0.000409159619 C22.4240741,0.000409159619 21.6326563,0.604744113 21.6267822,1.44995755 L21.6267822,7.83020915 L17.177957,7.83059952 L16.9492732,7.63462466 C16.4697431,7.23174135 15.6390382,6.95729259 14.9253783,6.95729259 L13.079998,6.95729259 C12.3608921,6.95729259 11.530217,7.23135158 11.0506272,7.63462466 L10.8161091,7.83059952 L6.37236161,7.83059952 L6.37236161,1.44994816 C6.37236161,0.610601272 5.57508961,0 4.49352847,0 L1.87883313,0 C0.841995221,0 0,0.845603208 0,1.88639174 L0,38.1081115 C0,39.1489 0.841995221,40 1.87883313,40 L26.1211669,40 C27.1580048,40 28,39.1493298 28,38.1081115 L28,1.88639174 C28,0.845203443 27.1525587,0 26.1207686,0 L26.1207089,0.000409159619 Z M4.28180008,2.09917613 L4.28180008,8.04298415 C4.28180008,9.08966922 5.1237953,9.93487266 6.16650737,9.93487266 L11.1955795,9.93487266 C11.2624731,9.93487266 11.3239247,9.92355131 11.3908104,9.91261974 C11.4129789,9.90715415 11.4297013,9.90129839 11.4522591,9.90129839 C11.496595,9.88451125 11.5413202,9.86772411 11.57477,9.85640276 C11.5969385,9.84508141 11.6249403,9.83414984 11.6471077,9.82282849 C11.6805546,9.80604135 11.7140004,9.78925421 11.7474462,9.76700229 C11.770003,9.75568094 11.7921714,9.73342801 11.8143399,9.72210666 C11.8310633,9.71078531 11.8423417,9.69985374 11.8590651,9.6830676 L12.3833184,9.2575376 C12.4782129,9.18492426 12.8239596,9.05609594 13.0802519,9.05609594 L14.9256322,9.05609594 C15.1764785,9.05609594 15.5222272,9.18493025 15.6112853,9.25207081 L16.1409847,9.6830676 C16.152263,9.69985474 16.1689865,9.71078531 16.1857099,9.72210666 C16.2078783,9.73342801 16.2300458,9.75568094 16.2526035,9.76700229 C16.2860504,9.78925521 16.3194972,9.80604235 16.3583881,9.82282849 C16.3751115,9.83414984 16.4031133,9.84508141 16.4252818,9.85640276 C16.4645619,9.86772411 16.5034538,9.88451125 16.5423467,9.8958326 C16.5703485,9.8958326 16.5870719,9.90129809 16.6092403,9.90715395 C16.676134,9.9184753 16.7375856,9.92940687 16.8044713,9.92940687 L21.8335434,9.92940687 C22.8762555,9.92940687 23.7182507,9.08420343 23.7182507,8.03751836 L23.7182507,2.09917613 L25.9147859,2.09917613 L25.9147859,34.409225 L2.09061231,34.409225 L2.09061231,2.09917613 L4.28180008,2.09917613 Z M2.09064118,37.8961454 L2.09064118,36.507861 L25.9088411,36.507861 L25.9088411,37.8957456 L2.09064118,37.8961454 Z" id="Shape"></path>
            </g>
        </g>
    </g>
</svg>