<?xml version="1.0" encoding="UTF-8"?>
<svg width="76px" height="76px" viewBox="0 0 76 76" version="1.1" xmlns="http://www.w3.org/2000/svg" xmlns:xlink="http://www.w3.org/1999/xlink">
    <title>Group 29</title>
    <g id="Page-1" stroke="none" stroke-width="1" fill="none" fill-rule="evenodd">
        <g id="Group-29">
            <rect id="Rectangle-Copy-2" x="0" y="0" width="76" height="76"></rect>
            <path d="M56.8495899,16 L18.3837517,16 C17.5533272,16 17,16.5533272 17,17.3837517 C17,18.2141762 17.5533272,18.7675034 18.3837517,18.7675034 L21.0121839,18.7675034 L26.1318451,58.7543633 C26.2699579,59.4458055 26.8232874,60 27.5155968,60 L47.9937968,60 C48.6852391,60 49.2394336,59.4466728 49.3775486,58.7543633 L54.4972097,18.7675034 L56.9875492,18.7675034 C57.8179737,18.7675034 58.3713009,18.2141762 58.3713009,17.3837517 C58.3704321,16.5533272 57.5408764,16 56.848567,16 L56.8495899,16 Z M48.6861063,41.5971941 L37.7552083,41.5971941 C36.9247838,41.5971941 36.3714566,42.1505213 36.3714566,42.9809458 C36.3714566,43.8113703 36.9247838,44.3646975 37.7552083,44.3646975 L48.4090313,44.3646975 L46.7490719,57.2326745 L28.7612113,57.2326745 L25.3022212,30.2523291 L41.0759278,30.2523291 C41.9063522,30.2523291 42.4596795,29.6990019 42.4596795,28.8685774 C42.4596795,28.0381529 41.9063522,27.4848257 41.0759278,27.4848257 L24.8870534,27.4839571 L23.780399,18.767213 L51.5924141,18.767213 L48.6861063,41.5971941 Z" id="Shape" fill="#3CDC87" fill-rule="nonzero"></path>
        </g>
    </g>
</svg>