<?xml version="1.0" encoding="UTF-8"?>
<svg width="37px" height="34px" viewBox="0 0 37 34" version="1.1" xmlns="http://www.w3.org/2000/svg" xmlns:xlink="http://www.w3.org/1999/xlink">
    <title>pressed_simple_2</title>
    <g id="Page-1" stroke="none" stroke-width="1" fill="none" fill-rule="evenodd">
        <path d="M2.67012107,26.9342239 L6.06407047,29.8885883 L10.2053064,26.1012903 L14.4378563,29.7855708 L18.5790923,25.9982728 L22.8131823,29.683338 L26.9544182,25.89604 L31.1881306,29.5799428 L34.5104479,26.543218 L36.1909633,28.3810839 L31.2292686,32.9181705 L26.9955563,29.2342677 L22.8539427,33.0204033 L18.6202304,29.3365004 L14.4789944,33.1237985 L10.2464445,29.439518 L6.10520855,33.226816 L1.03405809,28.8126193 L2.67012107,26.9342239 Z M2.51451028,14.261835 L5.90845969,17.2161994 L10.0496956,13.4289013 L14.2822456,17.1131819 L18.4238592,13.3270462 L22.6575715,17.0109491 L26.7988074,13.223651 L31.0325198,16.9075539 L34.3548371,13.8708291 L36.0353525,15.708695 L31.0736579,20.2457816 L26.8399455,16.5618787 L22.6983319,20.3480144 L18.4646196,16.6641115 L14.3233836,20.4514096 L10.0908337,16.767129 L5.94959777,20.5544271 L0.878447306,16.1402304 L2.51451028,14.261835 Z M2.3588995,1.58944608 L5.7528489,4.54381048 L9.89408484,0.756512415 L14.1266348,4.44079297 L18.2678707,0.653494906 L22.5019607,4.33856018 L26.6431967,0.551262111 L30.876909,4.23516498 L34.1992263,1.19844013 L35.8797417,3.03630609 L30.9180471,7.57339266 L26.6843347,3.88948979 L22.5427211,7.67562546 L18.3090088,3.99172259 L14.1677729,7.77902065 L9.93522292,4.0947401 L5.79398698,7.88203816 L0.722836523,3.46784145 L2.3588995,1.58944608 Z" id="pressed_simple_2" fill="#8AEAB7"></path>
    </g>
</svg>