<?xml version="1.0" encoding="UTF-8"?>
<svg width="34px" height="34px" viewBox="0 0 34 34" version="1.1" xmlns="http://www.w3.org/2000/svg" xmlns:xlink="http://www.w3.org/1999/xlink">
    <title>pressed_simple_3</title>
    <g id="Page-1" stroke="none" stroke-width="1" fill="none" fill-rule="evenodd">
        <path d="M28.2012498,22.2627622 C31.1847847,22.198524 33.6560889,24.5643064 33.7203271,27.5478413 C33.7845653,30.5313763 31.4187829,33.0026804 28.435248,33.0669186 C25.451713,33.1311569 22.9804089,30.7653745 22.9161706,27.7818395 C22.8519324,24.7983046 25.2177148,22.3270004 28.2012498,22.2627622 Z M17.3967565,22.4966827 C20.3802915,22.4324444 22.8515956,24.7982268 22.9158338,27.7817618 C22.980072,30.7652967 20.6142897,33.2366009 17.6307547,33.3008391 C14.6472197,33.3650773 12.1759156,30.999295 12.1116774,28.01576 C12.0474392,25.032225 14.4132215,22.5609209 17.3967565,22.4966827 Z M27.9673293,11.458269 C30.9508643,11.3940307 33.4221684,13.7598131 33.4864066,16.7433481 C33.5506449,19.726883 31.1848625,22.1981872 28.2013275,22.2624254 C25.2177926,22.3266636 22.7464884,19.9608812 22.6822502,16.9773463 C22.618012,13.9938113 24.9837943,11.5225072 27.9673293,11.458269 Z M6.592328,22.7307068 C9.57586297,22.6664685 12.0471671,25.0322509 12.1114053,28.0157859 C12.1756435,30.9993208 9.80986118,33.470625 6.82632621,33.5348632 C3.84279124,33.5991014 1.37148712,31.233319 1.3072489,28.2497841 C1.24301067,25.2662491 3.60879303,22.794945 6.592328,22.7307068 Z M17.1628361,11.6921894 C20.146371,11.6279512 22.6176752,13.9937335 22.6819134,16.9772685 C22.7461516,19.9608035 20.3803692,22.4321076 17.3968343,22.4963458 C14.4132993,22.560584 11.9419952,20.1948017 11.8777569,17.2112667 C11.8135187,14.2277317 14.1793011,11.7564276 17.1628361,11.6921894 Z M27.7332405,0.653736818 C30.7167754,0.589498597 33.1880796,2.95528096 33.2523178,5.93881593 C33.316556,8.9223509 30.9507736,11.393655 27.9672387,11.4578932 C24.9837037,11.5221315 22.5123996,9.1563491 22.4481613,6.17281413 C22.3839231,3.18927916 24.7497055,0.717975038 27.7332405,0.653736818 Z M6.35830391,11.9262783 C9.34183888,11.86204 11.813143,14.2278224 11.8773812,17.2113574 C11.9416194,20.1948923 9.57583709,22.6661965 6.59230212,22.7304347 C3.60876715,22.7946729 1.13746302,20.4288906 1.0732248,17.4453556 C1.00898658,14.4618206 3.37476894,11.9905165 6.35830391,11.9262783 Z M16.928812,0.88776091 C19.9123469,0.82352269 22.3836511,3.18930505 22.4478893,6.17284002 C22.5121275,9.15637499 20.1463451,11.6276791 17.1628102,11.6919173 C14.1792752,11.7561556 11.7079711,9.3903732 11.6437329,6.40683823 C11.5794946,3.42330326 13.945277,0.951999131 16.928812,0.88776091 Z M6.1243187,1.12168135 C9.10785367,1.05744313 11.5791578,3.42322549 11.643396,6.40676046 C11.7076342,9.39029543 9.34185188,11.8615996 6.35831691,11.9258378 C3.37478194,11.990076 0.903477813,9.62429364 0.839239592,6.64075867 C0.775001371,3.6572237 3.14078373,1.18591957 6.1243187,1.12168135 Z" id="pressed_simple_3" fill="#C5F5DB"></path>
    </g>
</svg>