<?xml version="1.0" encoding="UTF-8"?>
<svg width="38px" height="36px" viewBox="0 0 38 36" version="1.1" xmlns="http://www.w3.org/2000/svg" xmlns:xlink="http://www.w3.org/1999/xlink">
    <title>product_simple_1</title>
    <g id="Page-1" stroke="none" stroke-width="1" fill="none" fill-rule="evenodd">
        <path d="M37.6257889,18.1447556 C37.6257889,20.0465333 35.4905667,21.5877556 34.9332333,23.3037556 C34.3551222,25.0833111 35.1569,27.5815333 34.0801222,29.0616444 C32.9911222,30.5564222 30.3609,30.5613111 28.8649,31.6490889 C27.3847889,32.7270889 26.5732333,35.2338667 24.7949,35.8107556 C23.0789,36.3680889 20.9571222,34.8354222 19.0553444,34.8354222 C17.1535667,34.8354222 15.0305667,36.3680889 13.3145667,35.8107556 C11.5362333,35.2338667 10.7246778,32.7258667 9.24456667,31.6490889 C7.74978889,30.5613111 5.11834444,30.5564222 4.03056667,29.0616444 C2.95256667,27.5815333 3.75434444,25.0820889 3.17745556,23.3037556 C2.62012222,21.5877556 0.483677778,20.0465333 0.483677778,18.1447556 C0.483677778,16.2429778 2.62012222,14.7017556 3.17745556,12.9857556 C3.75434444,11.2062 2.95256667,8.70797778 4.03056667,7.22786667 C5.11834444,5.73308889 7.74978889,5.7282 9.24456667,4.64042222 C10.7259,3.56242222 11.5362333,1.05564444 13.3145667,0.478755556 C15.0305667,-0.0785777778 17.1535667,1.45408889 19.0553444,1.45408889 C20.9571222,1.45408889 23.0789,-0.0785777778 24.7949,0.478755556 C26.5732333,1.05564444 27.3847889,3.56364444 28.8649,4.64042222 C30.3609,5.7282 32.9911222,5.73308889 34.0801222,7.22786667 C35.1569,8.70797778 34.3551222,11.2074222 34.9332333,12.9857556 C35.4905667,14.7017556 37.6257889,16.2429778 37.6257889,18.1447556" id="product_simple_1" fill="#C5F5DB"></path>
    </g>
</svg>