<?xml version="1.0" encoding="UTF-8"?>
<svg width="56px" height="56px" viewBox="0 0 56 56" version="1.1" xmlns="http://www.w3.org/2000/svg" xmlns:xlink="http://www.w3.org/1999/xlink">
    <title>product_car</title>
    <g id="Page-1" stroke="none" stroke-width="1" fill="none" fill-rule="evenodd">
        <g id="product_car">
            <rect id="Rectangle" x="0" y="0" width="56" height="56"></rect>
            <g id="Group-4" transform="translate(0.000000, 15.000000)" fill="#3CDC87" fill-rule="nonzero">
                <path d="M24.2307692,2.15384615 C24.5167155,2.15384615 24.7506031,2.29637404 24.7681714,2.4763926 L24.7692308,2.49816806 L24.7692308,6.11721656 C24.7692308,6.30738029 24.5281533,6.46153846 24.2307692,6.46153846 C23.944823,6.46153846 23.7109354,6.31901057 23.693367,6.13899202 L23.6923077,6.11721656 L23.6923077,2.49816806 C23.6923077,2.30800432 23.9333851,2.15384615 24.2307692,2.15384615 Z" id="Stroke-1"></path>
                <path d="M22.0769231,7.53846154 C22.3628693,7.53846154 22.5967569,7.70520073 22.6143253,7.91579914 L22.6153846,7.94127361 L22.6153846,18.9818033 C22.6153846,19.2042703 22.3743072,19.3846154 22.0769231,19.3846154 C21.7909768,19.3846154 21.5570893,19.2178762 21.5395209,19.0072778 L21.5384615,18.9818033 L21.5384615,7.94127361 C21.5384615,7.71880665 21.779539,7.53846154 22.0769231,7.53846154 Z" id="Stroke-2"></path>
                <path d="M33.7524441,0 C34.6383061,0 35.5054987,0.445257234 36.044156,1.17723841 L36.0788169,1.22538119 L40.852316,8.00193426 C40.9773401,8.17942085 40.9323209,8.42293011 40.7517629,8.54582742 C40.5787282,8.66360401 40.3440088,8.62786896 40.214711,8.46847423 L40.1984577,8.44698479 L35.4249344,1.67039737 C35.0470358,1.13380264 34.4287653,0.800158733 33.804477,0.782515888 L33.7524441,0.781779558 L10.0899618,0.781779558 C9.87034351,0.781779558 9.69230769,0.606772242 9.69230769,0.390889779 C9.69230769,0.183310487 9.85691181,0.0135225674 10.0648135,0.00076902813 L10.0899618,0 L33.7524441,0 Z" id="Stroke-3"></path>
                <path d="M40.7840163,7.53846154 C42.4789406,7.53846154 44.1582526,7.83936953 45.7340896,8.42500735 L45.8651679,8.47446925 L50.9785586,10.4331252 C52.7123025,11.0971909 53.8461538,12.6840999 53.8461538,14.4466384 C53.8461538,14.652556 53.6688855,14.8194852 53.4502138,14.8194852 C53.2315422,14.8194852 53.0542738,14.652556 53.0542738,14.4466384 C53.0542738,13.0071629 52.1407579,11.7091772 50.7381104,11.1465682 L50.6801931,11.1238628 L45.5667837,9.16519974 C44.0912973,8.59997025 42.5164441,8.30148249 40.9245222,8.28488746 L40.7840163,8.28415513 L7.34272833,8.28415513 C6.4098489,8.28415513 5.63206851,8.95040645 5.53950993,9.81998889 L5.53556829,9.8622222 L5.27051932,13.1629969 C5.22662214,13.7111598 4.87990849,14.1960624 4.36005328,14.4414086 L4.316334,14.4612958 L4.11981086,14.5473576 C3.41862222,14.8544031 2.96492057,15.509153 2.94632067,16.2345932 L2.94572615,16.2809912 L2.94572615,21.1656147 C2.94572615,21.3715323 2.76845778,21.5384615 2.54978615,21.5384615 C2.33952498,21.5384615 2.16754343,21.3841261 2.15462512,21.1891942 L2.15384615,21.1656147 L2.15384615,16.2809912 C2.15384615,15.2649266 2.76869603,14.3395382 3.73473454,13.8941931 L3.78590152,13.8711992 L3.98236997,13.7851614 C4.25523947,13.6656262 4.44191011,13.4217302 4.47726136,13.1419946 L4.48088744,13.1068474 L4.74594164,9.80600735 C4.84735716,8.54255105 5.95314588,7.56261429 7.29299858,7.5389013 L7.34272833,7.53846154 L40.7840163,7.53846154 Z" id="Stroke-5"></path>
                <path d="M53.8082203,15.0769231 L52.6192023,15.0769231 C52.1072402,15.0769231 51.6923077,15.435992 51.6923077,15.8790272 L51.6923077,20.7363575 C51.6923077,21.1793926 52.1072402,21.5384615 52.6192023,21.5384615 L53.8082203,21.5384615 C55.018726,21.5384615 56,20.6891911 56,19.641627 L56,16.9737576 C56,15.9261935 55.018726,15.0769231 53.8082203,15.0769231 Z M52.6192023,15.822442 L53.8082203,15.822442 C54.5429048,15.822442 55.138494,16.3379109 55.138494,16.9737576 L55.138494,19.641627 C55.138494,20.2774737 54.5429048,20.7929427 53.8082203,20.7929427 L52.6192023,20.7929427 C52.5830368,20.7929427 52.5538137,20.7676539 52.5538137,20.7363575 L52.5538137,15.8790272 C52.5538137,15.8477307 52.5830368,15.822442 52.6192023,15.822442 Z" id="Stroke-7"></path>
                <path d="M9.69230769,16.1538462 C6.71852425,16.1538462 4.30769231,18.5646258 4.30769231,21.5384615 C4.30769231,24.5122973 6.71852425,26.9230769 9.69230769,26.9230769 C12.6661954,26.9230769 15.0769231,24.5123492 15.0769231,21.5384615 C15.0769231,18.5645738 12.6661954,16.1538462 9.69230769,16.1538462 Z M9.69230769,16.9822005 C12.2087079,16.9822005 14.2485688,19.0220613 14.2485688,21.5384615 C14.2485688,24.0548618 12.2087079,26.0947226 9.69230769,26.0947226 C7.17600768,26.0947226 5.13604661,24.0548058 5.13604661,21.5384615 C5.13604661,19.0221172 7.17600768,16.9822005 9.69230769,16.9822005 Z" id="Stroke-9"></path>
                <path d="M42,16.1538462 C39.0262166,16.1538462 36.6153846,18.5646258 36.6153846,21.5384615 C36.6153846,24.5122973 39.0262166,26.9230769 42,26.9230769 C44.9738877,26.9230769 47.3846154,24.5123492 47.3846154,21.5384615 C47.3846154,18.5645738 44.9738877,16.1538462 42,16.1538462 Z M42,16.9822005 C44.5164003,16.9822005 46.5562611,19.0220613 46.5562611,21.5384615 C46.5562611,24.0548618 44.5164003,26.0947226 42,26.0947226 C39.4837,26.0947226 37.4437389,24.0548058 37.4437389,21.5384615 C37.4437389,19.0221172 39.4837,16.9822005 42,16.9822005 Z" id="Stroke-11"></path>
                <path d="M36.2329275,21.5384615 C36.4441527,21.5384615 36.6153846,21.779539 36.6153846,22.0769231 C36.6153846,22.3628693 36.4570711,22.5967569 36.2571147,22.6143253 L36.2329275,22.6153846 L14.3824572,22.6153846 C14.1712319,22.6153846 14,22.3743072 14,22.0769231 C14,21.7909768 14.1583135,21.5570893 14.35827,21.5395209 L14.3824572,21.5384615 L36.2329275,21.5384615 Z" id="Stroke-13"></path>
                <path d="M50.1829846,21.5384615 C50.4217925,21.5384615 50.6153846,21.779539 50.6153846,22.0769231 C50.6153846,22.3628693 50.4363979,22.5967569 50.2103303,22.6143253 L50.1829846,22.6153846 L46.7400923,22.6153846 C46.5012844,22.6153846 46.3076923,22.3743072 46.3076923,22.0769231 C46.3076923,21.7909768 46.4866791,21.5570893 46.7127467,21.5395209 L46.7400923,21.5384615 L50.1829846,21.5384615 Z" id="Stroke-15"></path>
                <path d="M34.0613237,18.3076923 C34.2823562,18.3076923 34.4615385,18.5487698 34.4615385,18.8461538 C34.4615385,19.1321001 34.2958744,19.3659877 34.0866339,19.383556 L34.0613237,19.3846154 L16.5540609,19.3846154 C16.3330284,19.3846154 16.1538462,19.1435379 16.1538462,18.8461538 C16.1538462,18.5602076 16.3195102,18.32632 16.5287507,18.3087517 L16.5540609,18.3076923 L34.0613237,18.3076923 Z" id="Stroke-17"></path>
                <path d="M27.6144785,10.7692308 C27.8273961,10.7692308 28,11.0103082 28,11.3076923 C28,11.5936386 27.840418,11.8275261 27.6388595,11.8450945 L27.6144785,11.8461538 L24.0778292,11.8461538 C23.8649116,11.8461538 23.6923077,11.6050764 23.6923077,11.3076923 C23.6923077,11.0217461 23.8518897,10.7878585 24.0534482,10.7702901 L24.0778292,10.7692308 L27.6144785,10.7692308 Z" id="Stroke-19"></path>
                <path d="M12.3699479,0.0876283558 C12.5152693,-0.0485735311 12.7288741,-0.0232082802 12.8470475,0.144283229 C12.9602971,0.304795926 12.9448038,0.537587501 12.8154135,0.676584314 L12.7978918,0.694168767 L12.7282724,0.759419134 C10.5486323,2.80573804 8.98057478,5.43293883 8.20174491,8.33972998 C8.1464783,8.54599903 7.95659514,8.66157567 7.777629,8.59787763 C7.59866287,8.5341796 7.49838459,8.31532804 7.5536512,8.10905899 C8.36199644,5.09210899 9.97550583,2.36716358 12.2115237,0.236864379 L12.3001105,0.153083165 L12.3699479,0.0876283558 Z" id="Stroke-21"></path>
                <path d="M2.79022489,16.1538462 C3.03353081,16.1538462 3.23076923,16.324009 3.23076923,16.5339156 C3.23076923,16.7357488 3.04841123,16.9008367 2.81808561,16.9132372 L2.79022489,16.913985 L1.35619202,16.913985 C1.10311337,16.913985 0.89634158,17.0845748 0.881894971,17.2997805 L0.881088672,17.3238694 L0.881088672,19.2913719 C0.881088672,19.5097566 1.07887439,19.6882338 1.32827577,19.7007037 L1.35619202,19.7013996 L2.79022489,19.7013996 C3.03353081,19.7013996 3.23076923,19.8715625 3.23076923,20.081469 C3.23076923,20.2833023 3.04841123,20.4483902 2.81808561,20.4607907 L2.79022489,20.4615385 L1.35619202,20.4615385 C0.621006633,20.4615385 0.0225351593,19.9568402 0.00062167029,19.3271459 L0,19.2913719 L0,17.3238694 C0,16.6895993 0.58485022,16.1732876 1.31472635,16.1543825 L1.35619202,16.1538462 L2.79022489,16.1538462 Z" id="Stroke-23"></path>
                <path d="M9.69230769,16.1538462 C6.71852425,16.1538462 4.30769231,18.5646258 4.30769231,21.5384615 C4.30769231,24.5122973 6.71852425,26.9230769 9.69230769,26.9230769 C12.6661954,26.9230769 15.0769231,24.5123492 15.0769231,21.5384615 C15.0769231,18.5645738 12.6661954,16.1538462 9.69230769,16.1538462 Z M9.69230769,16.9822005 C12.2087079,16.9822005 14.2485688,19.0220613 14.2485688,21.5384615 C14.2485688,24.0548618 12.2087079,26.0947226 9.69230769,26.0947226 C7.17600768,26.0947226 5.13604661,24.0548058 5.13604661,21.5384615 C5.13604661,19.0221172 7.17600768,16.9822005 9.69230769,16.9822005 Z" id="Stroke-25"></path>
                <path d="M42,16.1538462 C39.0262166,16.1538462 36.6153846,18.5646258 36.6153846,21.5384615 C36.6153846,24.5122973 39.0262166,26.9230769 42,26.9230769 C44.9738877,26.9230769 47.3846154,24.5123492 47.3846154,21.5384615 C47.3846154,18.5645738 44.9738877,16.1538462 42,16.1538462 Z M42,16.9822005 C44.5164003,16.9822005 46.5562611,19.0220613 46.5562611,21.5384615 C46.5562611,24.0548618 44.5164003,26.0947226 42,26.0947226 C39.4837,26.0947226 37.4437389,24.0548058 37.4437389,21.5384615 C37.4437389,19.0221172 39.4837,16.9822005 42,16.9822005 Z" id="Stroke-27"></path>
                <path d="M9.69238384,20.4615385 C8.50283353,20.4615385 7.53846154,21.4258286 7.53846154,22.6153846 C7.53846154,23.8049406 8.50283353,24.7692308 9.69238384,24.7692308 C10.881916,24.7692308 11.8461538,23.8049588 11.8461538,22.6153846 C11.8461538,21.4258104 10.881916,20.4615385 9.69238384,20.4615385 Z M9.69238384,21.2692213 C10.4358609,21.2692213 11.0384996,21.8718813 11.0384996,22.6153846 C11.0384996,23.3588879 10.4358609,23.961548 9.69238384,23.961548 C8.94886691,23.961548 8.34611577,23.358848 8.34611577,22.6153846 C8.34611577,21.8719212 8.94886691,21.2692213 9.69238384,21.2692213 Z" id="Stroke-29"></path>
                <path d="M40.9231531,20.4615385 C39.7336028,20.4615385 38.7692308,21.4258286 38.7692308,22.6153846 C38.7692308,23.8049406 39.7336028,24.7692308 40.9231531,24.7692308 C42.1126852,24.7692308 43.0769231,23.8049588 43.0769231,22.6153846 C43.0769231,21.4258104 42.1126852,20.4615385 40.9231531,20.4615385 Z M40.9231531,21.2692213 C41.6666301,21.2692213 42.2692688,21.8718813 42.2692688,22.6153846 C42.2692688,23.3588879 41.6666301,23.961548 40.9231531,23.961548 C40.1796361,23.961548 39.576885,23.358848 39.576885,22.6153846 C39.576885,21.8719212 40.1796361,21.2692213 40.9231531,21.2692213 Z" id="Stroke-31"></path>
            </g>
        </g>
    </g>
</svg>