<?xml version="1.0" encoding="UTF-8"?>
<svg width="56px" height="56px" viewBox="0 0 56 56" version="1.1" xmlns="http://www.w3.org/2000/svg" xmlns:xlink="http://www.w3.org/1999/xlink">
    <title>product_part</title>
    <g id="Page-1" stroke="none" stroke-width="1" fill="none" fill-rule="evenodd">
        <g id="product_part">
            <rect id="Rectangle-Copy-38" x="0" y="0" width="56" height="56"></rect>
            <g id="Group-8" transform="translate(4.000000, 10.000000)" fill="#3CDC87" fill-rule="nonzero">
                <path d="M11.3454545,27.9272727 L2.61818182,27.9272727 L2.61818182,33.1636364 L11.3454545,33.1636364 L11.3454545,27.9272727 Z M10.0986975,29.1355855 L10.0986975,31.9553236 L3.8647802,31.9553236 L3.8647802,29.1355855 L10.0986975,29.1355855 Z" id="Stroke-1"></path>
                <path d="M27.9272727,27.9272727 L19.2,27.9272727 L19.2,33.1636364 L27.9272727,33.1636364 L27.9272727,27.9272727 Z M26.6805157,29.1355855 L26.6805157,31.9553236 L20.4465984,31.9553236 L20.4465984,29.1355855 L26.6805157,29.1355855 Z" id="Stroke-2"></path>
                <path d="M44.5090909,27.9272727 L35.7818182,27.9272727 L35.7818182,33.1636364 L44.5090909,33.1636364 L44.5090909,27.9272727 Z M43.2623339,29.1355855 L43.2623339,31.9553236 L37.0284166,31.9553236 L37.0284166,29.1355855 L43.2623339,29.1355855 Z" id="Stroke-3"></path>
                <path d="M11.3454545,20.9454545 L2.61818182,20.9454545 L2.61818182,26.1818182 L11.3454545,26.1818182 L11.3454545,20.9454545 Z M10.0986975,22.1537673 L10.0986975,24.9735054 L3.8647802,24.9735054 L3.8647802,22.1537673 L10.0986975,22.1537673 Z" id="Stroke-4"></path>
                <path d="M27.9272727,20.9454545 L19.2,20.9454545 L19.2,26.1818182 L27.9272727,26.1818182 L27.9272727,20.9454545 Z M26.6805157,22.1537673 L26.6805157,24.9735054 L20.4465984,24.9735054 L20.4465984,22.1537673 L26.6805157,22.1537673 Z" id="Stroke-5"></path>
                <path d="M44.5090909,20.9454545 L35.7818182,20.9454545 L35.7818182,26.1818182 L44.5090909,26.1818182 L44.5090909,20.9454545 Z M43.2623339,22.1537673 L43.2623339,24.9735054 L37.0284166,24.9735054 L37.0284166,22.1537673 L43.2623339,22.1537673 Z" id="Stroke-6"></path>
                <path d="M47.3628881,27.9272727 C47.7147553,27.9272727 48,28.1511304 48,28.4272727 C48,28.6919092 47.7380304,28.9085272 47.4065087,28.9261192 L47.3628881,28.9272727 L0.637111939,28.9272727 C0.285244731,28.9272727 0,28.7034151 0,28.4272727 C0,28.1626363 0.261969554,27.9460183 0.593491345,27.9284262 L0.637111939,27.9272727 L47.3628881,27.9272727 Z" id="Stroke-7"></path>
                <path d="M47.3628881,34.9090909 C47.7147553,34.9090909 48,35.1329485 48,35.4090909 C48,35.6737274 47.7380304,35.8903453 47.4065087,35.9079374 L47.3628881,35.9090909 L0.637111939,35.9090909 C0.285244731,35.9090909 0,35.6852333 0,35.4090909 C0,35.1444545 0.261969554,34.9278365 0.593491345,34.9102444 L0.637111939,34.9090909 L47.3628881,34.9090909 Z" id="Stroke-9"></path>
                <path d="M47.3628881,20.9454545 C47.7147553,20.9454545 48,21.1693122 48,21.4454545 C48,21.710091 47.7380304,21.926709 47.4065087,21.944301 L47.3628881,21.9454545 L0.637111939,21.9454545 C0.285244731,21.9454545 0,21.7215969 0,21.4454545 C0,21.1808181 0.261969554,20.9642001 0.593491345,20.9466081 L0.637111939,20.9454545 L47.3628881,20.9454545 Z" id="Stroke-11"></path>
                <path d="M11.3454545,13.9636364 L2.61818182,13.9636364 L2.61818182,19.2 L11.3454545,19.2 L11.3454545,13.9636364 Z M10.0986975,15.1719491 L10.0986975,17.9916872 L3.8647802,17.9916872 L3.8647802,15.1719491 L10.0986975,15.1719491 Z" id="Stroke-14"></path>
                <path d="M27.9272727,13.9636364 L19.2,13.9636364 L19.2,19.2 L27.9272727,19.2 L27.9272727,13.9636364 Z M26.6805157,15.1719491 L26.6805157,17.9916872 L20.4465984,17.9916872 L20.4465984,15.1719491 L26.6805157,15.1719491 Z" id="Stroke-15"></path>
                <path d="M44.5090909,13.9636364 L35.7818182,13.9636364 L35.7818182,19.2 L44.5090909,19.2 L44.5090909,13.9636364 Z M43.2623339,15.1719491 L43.2623339,17.9916872 L37.0284166,17.9916872 L37.0284166,15.1719491 L43.2623339,15.1719491 Z" id="Stroke-16"></path>
                <path d="M11.3454545,6.98181818 L2.61818182,6.98181818 L2.61818182,12.2181818 L11.3454545,12.2181818 L11.3454545,6.98181818 Z M10.0986975,8.18995155 L10.0986975,11.0096897 L3.8647802,11.0096897 L3.8647802,8.18995155 L10.0986975,8.18995155 Z" id="Stroke-1"></path>
                <path d="M27.9272727,6.98181818 L19.2,6.98181818 L19.2,12.2181818 L27.9272727,12.2181818 L27.9272727,6.98181818 Z M26.6805157,8.18995155 L26.6805157,11.0096897 L20.4465984,11.0096897 L20.4465984,8.18995155 L26.6805157,8.18995155 Z" id="Stroke-2"></path>
                <path d="M44.5090909,6.98181818 L35.7818182,6.98181818 L35.7818182,12.2181818 L44.5090909,12.2181818 L44.5090909,6.98181818 Z M43.2623339,8.18995155 L43.2623339,11.0096897 L37.0284166,11.0096897 L37.0284166,8.18995155 L43.2623339,8.18995155 Z" id="Stroke-3"></path>
                <path d="M11.3454545,0 L2.61818182,0 L2.61818182,5.23636364 L11.3454545,5.23636364 L11.3454545,0 Z M10.0986975,1.20813337 L10.0986975,4.02787149 L3.8647802,4.02787149 L3.8647802,1.20813337 L10.0986975,1.20813337 Z" id="Stroke-4"></path>
                <path d="M27.9272727,0 L19.2,0 L19.2,5.23636364 L27.9272727,5.23636364 L27.9272727,0 Z M26.6805157,1.20813337 L26.6805157,4.02787149 L20.4465984,4.02787149 L20.4465984,1.20813337 L26.6805157,1.20813337 Z" id="Stroke-5"></path>
                <path d="M44.5090909,0 L35.7818182,0 L35.7818182,5.23636364 L44.5090909,5.23636364 L44.5090909,0 Z M43.2623339,1.20813337 L43.2623339,4.02787149 L37.0284166,4.02787149 L37.0284166,1.20813337 L43.2623339,1.20813337 Z" id="Stroke-6"></path>
                <path d="M47.3628881,6.98181818 C47.7147553,6.98181818 48,7.20567581 48,7.48181818 C48,7.74645462 47.7380304,7.96307261 47.4065087,7.98066467 L47.3628881,7.98181818 L0.637111939,7.98181818 C0.285244731,7.98181818 0,7.75796056 0,7.48181818 C0,7.21718174 0.261969554,7.00056376 0.593491345,6.9829717 L0.637111939,6.98181818 L47.3628881,6.98181818 Z" id="Stroke-7"></path>
                <path d="M47.3628881,13.9636364 C47.7147553,13.9636364 48,14.187494 48,14.4636364 C48,14.7282728 47.7380304,14.9448908 47.4065087,14.9624828 L47.3628881,14.9636364 L0.637111939,14.9636364 C0.285244731,14.9636364 0,14.7397787 0,14.4636364 C0,14.1989999 0.261969554,13.9823819 0.593491345,13.9647899 L0.637111939,13.9636364 L47.3628881,13.9636364 Z" id="Stroke-9"></path>
                <path d="M47.3628881,0 C47.7147553,0 48,0.223857625 48,0.5 C48,0.764636443 47.7380304,0.981254426 47.4065087,0.998846486 L47.3628881,1 L0.637111939,1 C0.285244731,1 0,0.776142375 0,0.5 C0,0.235363557 0.261969554,0.0187455742 0.593491345,0.0011535139 L0.637111939,0 L47.3628881,0 Z" id="Stroke-11"></path>
            </g>
        </g>
    </g>
</svg>