<?xml version="1.0" encoding="UTF-8"?>
<svg width="56px" height="56px" viewBox="0 0 56 56" version="1.1" xmlns="http://www.w3.org/2000/svg" xmlns:xlink="http://www.w3.org/1999/xlink">
    <title>product_washing</title>
    <defs>
        <path d="M0,9.23924336 C0,14.3418424 4.15857298,18.4782609 9.28872848,18.4782609 L9.28872848,18.4782609 C12.4125967,18.4782609 15.1765776,16.9442967 16.860215,14.5923086 L16.860215,14.5923086 C16.5089557,14.211076 16.2943856,13.7033682 16.2943856,13.1457479 L16.2943856,13.1457479 L16.2943856,6.5852956 C16.2943856,5.78443621 16.7366952,5.08678966 17.3913043,4.71955972 L17.3913043,4.71955972 C15.7998526,1.90322677 12.767943,0 9.28872848,0 L9.28872848,0 C4.15857298,0 0,4.13641844 0,9.23924336 M2.6742928,9.23924336 C2.6742928,5.60578991 5.6355873,2.66004567 9.28872848,2.66004567 L9.28872848,2.66004567 C12.9414155,2.66004567 15.9027101,5.60556406 15.9027101,9.23924336 L15.9027101,9.23924336 C15.9027101,12.8726968 12.9414155,15.8182152 9.28872848,15.8182152 L9.28872848,15.8182152 C5.6355873,15.8182152 2.6742928,12.8726968 2.6742928,9.23924336" id="path-1"></path>
        <path d="M0,9.23924336 C0,14.3418424 4.15857298,18.4782609 9.28872848,18.4782609 L9.28872848,18.4782609 C12.4125967,18.4782609 15.1765776,16.9442967 16.860215,14.5923086 L16.860215,14.5923086 C16.5089557,14.211076 16.2943856,13.7033682 16.2943856,13.1457479 L16.2943856,13.1457479 L16.2943856,6.5852956 C16.2943856,5.78443621 16.7366952,5.08678966 17.3913043,4.71955972 L17.3913043,4.71955972 C15.7998526,1.90322677 12.767943,0 9.28872848,0 L9.28872848,0 C4.15857298,0 0,4.13641844 0,9.23924336 M2.6742928,9.23924336 C2.6742928,5.60578991 5.6355873,2.66004567 9.28872848,2.66004567 L9.28872848,2.66004567 C12.9414155,2.66004567 15.9027101,5.60556406 15.9027101,9.23924336 L15.9027101,9.23924336 C15.9027101,12.8726968 12.9414155,15.8182152 9.28872848,15.8182152 L9.28872848,15.8182152 C5.6355873,15.8182152 2.6742928,12.8726968 2.6742928,9.23924336" id="path-3"></path>
        <path d="M0,9.23924336 C0,14.3418424 4.15857298,18.4782609 9.28872848,18.4782609 L9.28872848,18.4782609 C12.4125967,18.4782609 15.1765776,16.9442967 16.860215,14.5923086 L16.860215,14.5923086 C16.5089557,14.211076 16.2943856,13.7033682 16.2943856,13.1457479 L16.2943856,13.1457479 L16.2943856,6.5852956 C16.2943856,5.78443621 16.7366952,5.08678966 17.3913043,4.71955972 L17.3913043,4.71955972 C15.7998526,1.90322677 12.767943,0 9.28872848,0 L9.28872848,0 C4.15857298,0 0,4.13641844 0,9.23924336 M2.6742928,9.23924336 C2.6742928,5.60578991 5.6355873,2.66004567 9.28872848,2.66004567 L9.28872848,2.66004567 C12.9414155,2.66004567 15.9027101,5.60556406 15.9027101,9.23924336 L15.9027101,9.23924336 C15.9027101,12.8726968 12.9414155,15.8182152 9.28872848,15.8182152 L9.28872848,15.8182152 C5.6355873,15.8182152 2.6742928,12.8726968 2.6742928,9.23924336" id="path-5"></path>
        <path d="M0,9.23924336 C0,14.3418424 4.15857298,18.4782609 9.28872848,18.4782609 L9.28872848,18.4782609 C12.4125967,18.4782609 15.1765776,16.9442967 16.860215,14.5923086 L16.860215,14.5923086 C16.5089557,14.211076 16.2943856,13.7033682 16.2943856,13.1457479 L16.2943856,13.1457479 L16.2943856,6.5852956 C16.2943856,5.78443621 16.7366952,5.08678966 17.3913043,4.71955972 L17.3913043,4.71955972 C15.7998526,1.90322677 12.767943,0 9.28872848,0 L9.28872848,0 C4.15857298,0 0,4.13641844 0,9.23924336 M2.6742928,9.23924336 C2.6742928,5.60578991 5.6355873,2.66004567 9.28872848,2.66004567 L9.28872848,2.66004567 C12.9414155,2.66004567 15.9027101,5.60556406 15.9027101,9.23924336 L15.9027101,9.23924336 C15.9027101,12.8726968 12.9414155,15.8182152 9.28872848,15.8182152 L9.28872848,15.8182152 C5.6355873,15.8182152 2.6742928,12.8726968 2.6742928,9.23924336" id="path-7"></path>
        <path d="M0,9.23924336 C0,14.3418424 4.15857298,18.4782609 9.28872848,18.4782609 L9.28872848,18.4782609 C12.4125967,18.4782609 15.1765776,16.9442967 16.860215,14.5923086 L16.860215,14.5923086 C16.5089557,14.211076 16.2943856,13.7033682 16.2943856,13.1457479 L16.2943856,13.1457479 L16.2943856,6.5852956 C16.2943856,5.78443621 16.7366952,5.08678966 17.3913043,4.71955972 L17.3913043,4.71955972 C15.7998526,1.90322677 12.767943,0 9.28872848,0 L9.28872848,0 C4.15857298,0 0,4.13641844 0,9.23924336 M2.6742928,9.23924336 C2.6742928,5.60578991 5.6355873,2.66004567 9.28872848,2.66004567 L9.28872848,2.66004567 C12.9414155,2.66004567 15.9027101,5.60556406 15.9027101,9.23924336 L15.9027101,9.23924336 C15.9027101,12.8726968 12.9414155,15.8182152 9.28872848,15.8182152 L9.28872848,15.8182152 C5.6355873,15.8182152 2.6742928,12.8726968 2.6742928,9.23924336" id="path-9"></path>
        <path d="M0,9.23924336 C0,14.3418424 4.15857298,18.4782609 9.28872848,18.4782609 L9.28872848,18.4782609 C12.4125967,18.4782609 15.1765776,16.9442967 16.860215,14.5923086 L16.860215,14.5923086 C16.5089557,14.211076 16.2943856,13.7033682 16.2943856,13.1457479 L16.2943856,13.1457479 L16.2943856,6.5852956 C16.2943856,5.78443621 16.7366952,5.08678966 17.3913043,4.71955972 L17.3913043,4.71955972 C15.7998526,1.90322677 12.767943,0 9.28872848,0 L9.28872848,0 C4.15857298,0 0,4.13641844 0,9.23924336 M2.6742928,9.23924336 C2.6742928,5.60578991 5.6355873,2.66004567 9.28872848,2.66004567 L9.28872848,2.66004567 C12.9414155,2.66004567 15.9027101,5.60556406 15.9027101,9.23924336 L15.9027101,9.23924336 C15.9027101,12.8726968 12.9414155,15.8182152 9.28872848,15.8182152 L9.28872848,15.8182152 C5.6355873,15.8182152 2.6742928,12.8726968 2.6742928,9.23924336" id="path-11"></path>
    </defs>
    <g id="Page-1" stroke="none" stroke-width="1" fill="none" fill-rule="evenodd">
        <g id="product_washing">
            <rect id="Rectangle-Copy-37" x="0" y="0" width="56" height="56"></rect>
            <g id="Group-7" transform="translate(8.000000, 3.000000)">
                <path d="M20.1086957,22.826087 C16.206696,22.826087 13.0434783,25.9893047 13.0434783,29.8913043 C13.0434783,33.793304 16.206696,36.9565217 20.1086957,36.9565217 C24.0106953,36.9565217 27.173913,33.793304 27.173913,29.8913043 C27.173913,25.9893047 24.0106953,22.826087 20.1086957,22.826087 Z M20.1086957,24.0049755 C23.3596131,24.0049755 25.9950245,26.6403869 25.9950245,29.8913043 C25.9950245,33.1422218 23.3596131,35.7776331 20.1086957,35.7776331 C16.8577782,35.7776331 14.2223669,33.1422218 14.2223669,29.8913043 C14.2223669,26.6403869 16.8577782,24.0049755 20.1086957,24.0049755 Z" id="Stroke-1" fill="#3CDC87" fill-rule="nonzero"></path>
                <path d="M38.6252045,0 L1.59195883,0 C0.71280084,0 0,0.71334933 0,1.59315794 L0,48.4068421 C0,49.2866507 0.71280084,50 1.59195883,50 L38.6252045,50 C39.5045336,50 40.2173913,49.2867075 40.2173913,48.4068421 L40.2173913,1.59315794 C40.2173913,0.71329247 39.5045336,0 38.6252045,0 Z M1.59195883,1.20960936 L38.6252045,1.20960936 C38.8368921,1.20960936 39.0085193,1.38134127 39.0085193,1.59315794 L39.0085193,48.4068421 C39.0085193,48.6186587 38.8368921,48.7903906 38.6252045,48.7903906 L1.59195883,48.7903906 C1.38048556,48.7903906 1.20887201,48.618645 1.20887201,48.4068421 L1.20887201,1.59315794 C1.20887201,1.38135497 1.38048556,1.20960936 1.59195883,1.20960936 Z" id="Stroke-3" fill="#3CDC87" fill-rule="nonzero"></path>
                <path d="M35.2756332,10.8695652 C35.6036528,10.8695652 35.8695652,11.1128887 35.8695652,11.4130435 C35.8695652,11.7016538 35.6237142,11.9377205 35.3131944,11.9554525 L35.2756332,11.9565217 L4.94175808,11.9565217 C4.6137385,11.9565217 4.34782609,11.7131982 4.34782609,11.4130435 C4.34782609,11.1244331 4.59367706,10.8883665 4.90419688,10.8706344 L4.94175808,10.8695652 L35.2756332,10.8695652 Z" id="Stroke-5" fill="#3CDC87" fill-rule="nonzero"></path>
                <path d="M13.5869565,0 C13.8755669,0 14.1116335,0.251060968 14.1293656,0.568161233 L14.1304348,0.606518412 L14.1304348,11.3500033 C14.1304348,11.6849742 13.8871113,11.9565217 13.5869565,11.9565217 C13.2983462,11.9565217 13.0622795,11.7054608 13.0445475,11.3883605 L13.0434783,11.3500033 L13.0434783,0.606518412 C13.0434783,0.271547543 13.2868018,0 13.5869565,0 Z" id="Stroke-7" fill="#3CDC87" fill-rule="nonzero"></path>
                <path d="M19.5652174,3.26086957 C17.7641764,3.26086957 16.3043478,4.72069814 16.3043478,6.52173913 C16.3043478,8.32278013 17.7641764,9.7826087 19.5652174,9.7826087 C21.3661013,9.7826087 22.826087,8.32270948 22.826087,6.52173913 C22.826087,4.72076878 21.3661013,3.26086957 19.5652174,3.26086957 Z M19.5652174,4.46856529 C20.6991254,4.46856529 21.6183912,5.38777673 21.6183912,6.52173913 C21.6183912,7.65570154 20.6991254,8.57491297 19.5652174,8.57491297 C18.4311683,8.57491297 17.5120436,7.65578819 17.5120436,6.52173913 C17.5120436,5.38769007 18.4311683,4.46856529 19.5652174,4.46856529 Z" id="Stroke-9" fill="#3CDC87" fill-rule="nonzero"></path>
                <path d="M35.3600664,3.26086957 C35.6414548,3.26086957 35.8695652,3.50419307 35.8695652,3.80434783 C35.8695652,4.09295817 35.6586643,4.32902482 35.3922879,4.34675686 L35.3600664,4.34782609 L33.1181945,4.34782609 C32.8368061,4.34782609 32.6086957,4.10450258 32.6086957,3.80434783 C32.6086957,3.51573748 32.8195965,3.27967083 33.085973,3.26193879 L33.1181945,3.26086957 L35.3600664,3.26086957 Z" id="Stroke-11" fill="#3CDC87" fill-rule="nonzero"></path>
                <path d="M35.3600664,5.43478261 C35.6414548,5.43478261 35.8695652,5.67810611 35.8695652,5.97826087 C35.8695652,6.26687121 35.6586643,6.50293787 35.3922879,6.5206699 L35.3600664,6.52173913 L33.1181945,6.52173913 C32.8368061,6.52173913 32.6086957,6.27841562 32.6086957,5.97826087 C32.6086957,5.68965053 32.8195965,5.45358387 33.085973,5.43585184 L33.1181945,5.43478261 L35.3600664,5.43478261 Z" id="Stroke-13" fill="#3CDC87" fill-rule="nonzero"></path>
                <path d="M35.3600664,7.60869565 C35.6414548,7.60869565 35.8695652,7.85201916 35.8695652,8.15217391 C35.8695652,8.44078425 35.6586643,8.67685091 35.3922879,8.69458295 L35.3600664,8.69565217 L33.1181945,8.69565217 C32.8368061,8.69565217 32.6086957,8.45232867 32.6086957,8.15217391 C32.6086957,7.86356357 32.8195965,7.62749691 33.085973,7.60976488 L33.1181945,7.60869565 L35.3600664,7.60869565 Z" id="Stroke-15" fill="#3CDC87" fill-rule="nonzero"></path>
                <path d="M29.9252837,3.26086957 C30.2066722,3.26086957 30.4347826,3.50419307 30.4347826,3.80434783 C30.4347826,4.09295817 30.2238817,4.32902482 29.9575053,4.34675686 L29.9252837,4.34782609 L27.6834119,4.34782609 C27.4020235,4.34782609 27.173913,4.10450258 27.173913,3.80434783 C27.173913,3.51573748 27.3848139,3.27967083 27.6511904,3.26193879 L27.6834119,3.26086957 L29.9252837,3.26086957 Z" id="Stroke-17" fill="#3CDC87" fill-rule="nonzero"></path>
                <path d="M29.9252837,5.43478261 C30.2066722,5.43478261 30.4347826,5.67810611 30.4347826,5.97826087 C30.4347826,6.26687121 30.2238817,6.50293787 29.9575053,6.5206699 L29.9252837,6.52173913 L27.6834119,6.52173913 C27.4020235,6.52173913 27.173913,6.27841562 27.173913,5.97826087 C27.173913,5.68965053 27.3848139,5.45358387 27.6511904,5.43585184 L27.6834119,5.43478261 L29.9252837,5.43478261 Z" id="Stroke-19" fill="#3CDC87" fill-rule="nonzero"></path>
                <path d="M29.9252837,7.60869565 C30.2066722,7.60869565 30.4347826,7.85201916 30.4347826,8.15217391 C30.4347826,8.44078425 30.2238817,8.67685091 29.9575053,8.69458295 L29.9252837,8.69565217 L27.6834119,8.69565217 C27.4020235,8.69565217 27.173913,8.45232867 27.173913,8.15217391 C27.173913,7.86356357 27.3848139,7.62749691 27.6511904,7.60976488 L27.6834119,7.60869565 L29.9252837,7.60869565 Z" id="Stroke-21" fill="#3CDC87" fill-rule="nonzero"></path>
                <path d="M20.6521739,16.3043478 C12.8481695,16.3043478 6.52173913,22.6307782 6.52173913,30.4347826 C6.52173913,38.238787 12.8481695,44.5652174 20.6521739,44.5652174 C28.4561783,44.5652174 34.7826087,38.238787 34.7826087,30.4347826 C34.7826087,22.6307782 28.4561783,16.3043478 20.6521739,16.3043478 Z M20.6521739,17.5330208 C27.7776009,17.5330208 33.5539357,23.3093556 33.5539357,30.4347826 C33.5539357,37.5602096 27.7776009,43.3365444 20.6521739,43.3365444 C13.5267469,43.3365444 7.75041215,37.5602096 7.75041215,30.4347826 C7.75041215,23.3093556 13.5267469,17.5330208 20.6521739,17.5330208 Z" id="Stroke-23" fill="#3CDC87" fill-rule="nonzero"></path>
                <path d="M19.7887101,20.6521739 C23.2022791,20.6521739 26.3232809,22.3368583 28.1609887,25.0754197 C28.3455083,25.3503917 28.2670843,25.7195388 27.9858239,25.8999329 C27.7045634,26.0803269 27.3269741,26.0036564 27.1424546,25.7286844 C25.5275972,23.3222158 22.7874193,21.8430963 19.7887101,21.8430963 C14.9352803,21.8430963 11.0007667,25.6897715 11.0007667,30.4347826 C11.0007667,35.1797937 14.9352803,39.0264689 19.7887101,39.0264689 C22.390723,39.0264689 24.8065255,37.9154037 26.4666652,36.0202554 C26.6854736,35.7704726 27.0699726,35.741397 27.3254678,35.9553133 C27.580963,36.1692295 27.6107035,36.5451319 27.3918951,36.7949147 C25.5027156,38.9515255 22.7503285,40.2173913 19.7887101,40.2173913 C14.262501,40.2173913 9.7826087,35.8375129 9.7826087,30.4347826 C9.7826087,25.0320523 14.262501,20.6521739 19.7887101,20.6521739 Z" id="Stroke-25" fill="#3CDC87" fill-rule="nonzero"></path>
                <path d="M29.8499084,25 C30.1729255,25 30.4347826,25.2662401 30.4347826,25.5946638 C30.4347826,25.9104559 30.192681,26.1687556 29.8868968,26.1881577 L29.8499084,26.1893276 C29.0353483,26.1893276 28.371828,26.8467956 28.3445349,27.6683524 L28.3436615,27.7210103 L28.3436615,34.2357357 C28.3436615,35.0638565 28.9902353,35.7385531 29.7981265,35.766306 L29.8499084,35.7671941 C30.1729255,35.7671941 30.4347826,36.0334342 30.4347826,36.3618579 C30.4347826,36.6902817 30.1729255,36.9565217 29.8499084,36.9565217 C28.3943812,36.9565217 27.2102826,35.7749402 27.174735,34.3038352 L27.173913,34.2357357 L27.173913,27.7210103 C27.173913,26.2182619 28.3719448,25 29.8499084,25 Z" id="Stroke-27" fill="#3CDC87" fill-rule="nonzero"></path>
                <path d="M20.1086957,22.826087 C16.206696,22.826087 13.0434783,25.9893047 13.0434783,29.8913043 C13.0434783,33.793304 16.206696,36.9565217 20.1086957,36.9565217 C24.0106953,36.9565217 27.173913,33.793304 27.173913,29.8913043 C27.173913,25.9893047 24.0106953,22.826087 20.1086957,22.826087 Z M20.1086957,24.0049755 C23.3596131,24.0049755 25.9950245,26.6403869 25.9950245,29.8913043 C25.9950245,33.1422218 23.3596131,35.7776331 20.1086957,35.7776331 C16.8577782,35.7776331 14.2223669,33.1422218 14.2223669,29.8913043 C14.2223669,26.6403869 16.8577782,24.0049755 20.1086957,24.0049755 Z" id="Stroke-29" fill="#3CDC87" fill-rule="nonzero"></path>
                <g id="Group-5" transform="translate(10.869565, 20.652174)">
                    <mask id="mask-2" fill="white">
                        <use xlink:href="#path-1"></use>
                    </mask>
                    <g id="Clip-33"></g>
                    <path d="M20.377825,8.64033785 C20.7103254,8.64033785 20.9798701,8.90844664 20.9798701,9.2391756 C20.9798701,9.55718422 20.7306608,9.81729697 20.4158993,9.83683522 L20.377825,9.83801336 L-1.80054971,9.83801336 C-2.13305004,9.83801336 -2.40259482,9.56990456 -2.40259482,9.2391756 C-2.40259482,8.92116699 -2.15338552,8.66105424 -1.83862399,8.64151599 L-1.80054971,8.64033785 L20.377825,8.64033785 Z" id="Stroke-32" fill="#3CDC87" fill-rule="nonzero" mask="url(#mask-2)"></path>
                    <mask id="mask-4" fill="white">
                        <use xlink:href="#path-3"></use>
                    </mask>
                    <g id="Clip-36"></g>
                    <path d="M18.5911856,3.20561163 C18.8791403,3.04024877 19.2473447,3.13838547 19.4135933,3.42480608 C19.5731919,3.69976987 19.4886486,4.04829785 19.2268659,4.22204263 L19.1932248,4.24283243 L-0.0138648529,15.2728299 C-0.301819528,15.4381928 -0.670023987,15.3400561 -0.836272529,15.0536355 C-0.99587113,14.7786717 -0.911327885,14.4301437 -0.649545199,14.2563989 L-0.615904081,14.2356091 L18.5911856,3.20561163 Z" id="Stroke-35" fill="#3CDC87" fill-rule="nonzero" mask="url(#mask-4)"></path>
                    <mask id="mask-6" fill="white">
                        <use xlink:href="#path-5"></use>
                    </mask>
                    <g id="Clip-39"></g>
                    <path d="M14.3117184,-0.61266806 C14.4779669,-0.899088675 14.8461714,-0.997225372 15.1341261,-0.831862509 C15.4105626,-0.67311416 15.5125472,-0.329234795 15.3731776,-0.0485718141 L15.3544945,-0.0138361585 L4.26542069,19.0909289 C4.09917214,19.3773495 3.73096769,19.4754862 3.44301301,19.3101234 C3.16657652,19.151375 3.06459187,18.8074957 3.20396147,18.5268327 L3.22264456,18.492097 L14.3117184,-0.61266806 Z" id="Stroke-38" fill="#3CDC87" fill-rule="nonzero" mask="url(#mask-6)"></path>
                    <mask id="mask-8" fill="white">
                        <use xlink:href="#path-7"></use>
                    </mask>
                    <g id="Clip-42"></g>
                    <path d="M9.28861496,-2.38979515 C9.60832682,-2.38979515 9.86983273,-2.14191349 9.88947562,-1.82882883 L9.89066007,-1.79095739 L9.89066007,20.2692634 C9.89066007,20.5999924 9.62111529,20.8681012 9.28861496,20.8681012 C8.96890309,20.8681012 8.70739718,20.6202195 8.68775429,20.3071349 L8.68656984,20.2692634 L8.68656984,-1.79095739 C8.68656984,-2.12168635 8.95611462,-2.38979515 9.28861496,-2.38979515 Z" id="Stroke-41" fill="#3CDC87" fill-rule="nonzero" mask="url(#mask-8)"></path>
                    <mask id="mask-10" fill="white">
                        <use xlink:href="#path-9"></use>
                    </mask>
                    <g id="Clip-45"></g>
                    <path d="M3.44308113,-0.831862509 C3.71951762,-0.990610858 4.0699123,-0.906518011 4.24458765,-0.646129957 L4.2654888,-0.61266806 L15.3545626,18.492097 C15.5208112,18.7785176 15.4221489,19.1447605 15.1341942,19.3101234 C14.8577577,19.4688717 14.507363,19.3847789 14.3326877,19.1243908 L14.3117865,19.0909289 L3.22271268,-0.0138361585 C3.05646414,-0.300256773 3.15512645,-0.666499645 3.44308113,-0.831862509 Z" id="Stroke-44" fill="#3CDC87" fill-rule="nonzero" mask="url(#mask-10)"></path>
                    <mask id="mask-12" fill="white">
                        <use xlink:href="#path-11"></use>
                    </mask>
                    <g id="Clip-48"></g>
                    <path d="M-0.836386058,3.42480608 C-0.676787458,3.14984229 -0.331066285,3.04840096 -0.0489000809,3.18702807 L-0.013978382,3.20561163 L19.1931113,14.2356091 C19.481066,14.400972 19.5797283,14.7672149 19.4134797,15.0536355 C19.2538811,15.3285993 18.90816,15.4300406 18.6259938,15.2914135 L18.5910721,15.2728299 L-0.61601761,4.24283243 C-0.903972286,4.07746957 -1.0026346,3.7112267 -0.836386058,3.42480608 Z" id="Stroke-47" fill="#3CDC87" fill-rule="nonzero" mask="url(#mask-12)"></path>
                    <path d="M9.28861496,-0.598882926 C12.8648352,-0.598882926 16.1061024,1.30614879 17.8593723,4.32719173 L17.9160152,4.42609855 L18.2105715,4.9473638 L17.6869459,5.24111316 C17.2193274,5.50344299 16.9183809,5.98618599 16.8974812,6.5251433 L16.8963172,6.58525043 L16.8963172,13.1457027 C16.8963172,13.5143116 17.0262171,13.8612884 17.2589826,14.1367352 L17.303825,14.1875311 L17.6331671,14.5447645 L17.3505302,14.9395993 C15.5065565,17.5155721 12.5287848,19.0772793 9.28861496,19.0772793 C3.82618618,19.0772793 -0.602158643,14.6725262 -0.602158643,9.23919819 C-0.602158643,3.80587016 3.82618618,-0.598882926 9.28861496,-0.598882926 Z M9.28861496,0.598792586 C4.49118685,0.598792586 0.601931585,4.46732808 0.601931585,9.23919819 C0.601931585,14.0110683 4.49118685,17.8796038 9.28861496,17.8796038 C11.9333966,17.8796038 14.3776399,16.6959903 16.0105296,14.712493 L16.0864747,14.6189322 L16.1075167,14.5921301 L16.0764438,14.5419846 C15.8573189,14.1747122 15.7259629,13.7584991 15.6979047,13.322548 L15.6934789,13.2288384 L15.692227,13.1457027 L15.6924227,12.5511663 C14.4890953,14.8484128 12.073012,16.4170078 9.28861496,16.4170078 C5.3032005,16.4170078 2.07236121,13.2033806 2.07236121,9.23919819 C2.07236121,5.27501578 5.3032005,2.06138859 9.28861496,2.06138859 C12.1165343,2.06138859 14.564536,3.67940363 15.7479575,6.03548433 C15.8568914,5.50504057 16.1211311,5.02287273 16.501366,4.64579245 L16.5658058,4.58392851 L16.591832,4.56015794 L16.586346,4.55140515 C15.0431778,2.17734787 12.4176879,0.676771288 9.51700706,0.601744131 L9.39926312,0.599484832 L9.28861496,0.598792586 Z M9.28861496,3.2590641 C5.96820117,3.2590641 3.27645144,5.9364737 3.27645144,9.23919819 C3.27645144,12.5419227 5.96820117,15.2193323 9.28861496,15.2193323 C12.6090287,15.2193323 15.3007785,12.5419227 15.3007785,9.23919819 C15.3007785,5.9364737 12.6090287,3.2590641 9.28861496,3.2590641 Z" id="Stroke-51" fill="#3CDC87" fill-rule="nonzero" mask="url(#mask-12)"></path>
                </g>
            </g>
        </g>
    </g>
</svg>