<?xml version="1.0" encoding="UTF-8"?>
<svg width="240px" height="240px" viewBox="0 0 240 240" version="1.1" xmlns="http://www.w3.org/2000/svg" xmlns:xlink="http://www.w3.org/1999/xlink">
    <title>illust_MR</title>
    <g id="element" stroke="none" stroke-width="1" fill="none" fill-rule="evenodd">
        <g id="Artboard" transform="translate(-1965.000000, -814.000000)">
            <g id="illust_MR" transform="translate(1965.000000, 814.000000)">
                <rect id="Rectangle-Copy" x="0" y="0" width="240" height="240"></rect>
                <g id="Group-7" transform="translate(77.000000, 23.000000)">
                    <polygon id="Fill-4" fill="#3CD885" points="72.809816 165.141104 65.4233129 160.943816 65.4233129 7.38650307 72.809816 11.5837914"></polygon>
                    <polygon id="Fill-5" fill="#3CD885" points="78.7814437 0 65.9509202 7.4273762 73.1739147 11.607362 86 4.17998577"></polygon>
                    <polygon id="Fill-6" fill="#175940" points="86 158.192221 72.809816 165.668712 72.809816 11.6973497 86 4.2208589"></polygon>
                    <path d="M81.6169219,32.836869 L77.5004144,35.2113289 C76.5384044,35.7680525 75.7576103,35.1777913 75.7576103,33.8944203 L75.7576103,19.63201 C75.7576103,18.348639 76.5384044,16.857335 77.5004144,16.3006114 L81.6169219,13.9261515 C82.5811691,13.3716637 83.3619632,13.9619249 83.3619632,15.2452959 L83.3619632,29.5077062 C83.3619632,30.7910772 82.5811691,32.2801453 81.6169219,32.836869" id="Fill-7" fill="#32B472"></path>
                    <path d="M81.6169219,60.8613092 L77.5004144,63.2357691 C76.5384044,63.7924928 75.7576103,63.2022315 75.7576103,61.9188605 L75.7576103,47.6564502 C75.7576103,46.3730792 76.5384044,44.8840111 77.5004144,44.3250516 L81.6169219,41.9505917 C82.5811691,41.3961039 83.3619632,41.9863651 83.3619632,43.2697361 L83.3619632,57.5321465 C83.3619632,58.8155175 82.5811691,60.3068214 81.6169219,60.8613092" id="Fill-9" fill="#32B472"></path>
                    <path d="M81.6169219,88.8855258 L77.5004144,91.2599857 C76.5384044,91.8167094 75.7576103,91.2264482 75.7576103,89.9430772 L75.7576103,75.6806668 C75.7576103,74.3995316 76.5384044,72.9082277 77.5004144,72.3492682 L81.6169219,69.9770442 C82.5811691,69.4203205 83.3619632,70.0105817 83.3619632,71.2939527 L83.3619632,85.5563631 C83.3619632,86.8397341 82.5811691,88.331038 81.6169219,88.8855258" id="Fill-11" fill="#32B472"></path>
                    <polygon id="Fill-13" fill="#175940" points="71.8925677 32.2340871 40.1820359 50.5299491 40.1820359 44.91576 71.8925677 26.6198979"></polygon>
                    <polygon id="Fill-15" fill="#3CD885" points="35.3178453 42.1032994 67.0261398 23.8096732 71.8921202 26.6156498 40.1838257 44.9115119"></polygon>
                    <path d="M60.0793095,171.960992 L60.0793095,179.714878 C60.0793095,183.38836 57.6429635,187.099851 52.7680341,189.937129 C42.9779052,195.566969 27.1159276,195.566969 17.328036,189.937129 C12.4128364,187.099851 9.97425312,183.38836 9.97425312,179.714878 L9.97425312,171.960992 L60.0793095,171.960992 Z" id="Fill-17" fill="#175940"></path>
                    <path d="M52.7481227,182.183914 C42.9647055,187.827169 27.102728,187.827169 17.3193108,182.183914 C7.53589355,176.538423 7.53589355,167.387138 17.3193108,161.739412 C27.102728,156.096157 42.9647055,156.096157 52.7481227,161.741647 C62.5315399,167.387138 62.5315399,176.538423 52.7481227,182.183914" id="Fill-19" fill="#3CD885"></path>
                    <path d="M55.5097624,118.40999 L55.5097624,170.341798 C55.5097624,173.344529 53.5163883,176.380796 49.5318775,178.69936 C41.52706,183.300715 28.5600611,183.300715 20.5574809,178.69936 C16.5394115,176.380796 14.5460375,173.344529 14.5460375,170.341798 L14.5460375,118.40999 L55.5097624,118.40999 Z" id="Fill-21" fill="#32B472"></path>
                    <path d="M49.5157694,126.768223 C41.5176636,131.380757 28.5484275,131.380757 20.5503218,126.768223 C12.552216,122.153453 12.552216,114.670104 20.5503218,110.053098 C28.5484275,105.440564 41.5176636,105.440564 49.5157694,110.053098 C57.5138752,114.670104 57.5138752,122.153453 49.5157694,126.768223" id="Fill-23" fill="#69C3FA"></path>
                    <polygon id="Fill-25" fill="#5D7280" points="35.0305846 134.397126 4.798561e-13 114.18515 35.0305846 93.9731751 70.0611692 114.187386"></polygon>
                    <polygon id="Fill-27" fill="#3B4951" points="35.0305846 130.997534 5.89510732 114.184032 35.0305846 97.3750026 64.1660619 114.186268"></polygon>
                    <polygon id="Fill-29" fill="#020F18" points="35.0305846 128.980137 9.3896643 114.185597 35.0305846 99.3932935 60.6715049 114.187833"></polygon>
                    <polygon id="Fill-31" fill="#3B4951" points="35.0305846 141.53705 0 121.325075 0 114.165922 35.0305846 134.377897"></polygon>
                    <polygon id="Fill-33" fill="#5D7280" points="10.1140801 125.106548 7.46743424 123.579471 7.46743424 120.527552 10.1140801 122.054629"></polygon>
                    <polygon id="Fill-35" fill="#5D7280" points="18.8379441 130.141655 16.1912982 128.614578 16.1912982 125.562659 18.8379441 127.089736"></polygon>
                    <polygon id="Fill-37" fill="#5D7280" points="27.561808 135.174526 24.9173994 133.647449 24.9173994 130.59553 27.561808 132.122608"></polygon>
                    <polygon id="Fill-39" fill="#2C353B" points="35.0305846 141.53705 70.0611692 121.325075 70.0611692 114.165922 35.0305846 134.377897"></polygon>
                    <polygon id="Fill-41" fill="#3B4951" points="59.9470891 125.106548 62.593735 123.579471 62.593735 120.527552 59.9470891 122.054629"></polygon>
                    <polygon id="Fill-43" fill="#3B4951" points="51.2232251 130.141655 53.8698711 128.614578 53.8698711 125.562659 51.2232251 127.089736"></polygon>
                    <polygon id="Fill-45" fill="#3B4951" points="42.4993612 135.174526 45.1437699 133.647449 45.1437699 130.59553 42.4993612 132.122608"></polygon>
                    <polygon id="Fill-47" fill="#F3AE00" points="35.0305846 103.62171 2.9643329 85.1201511 2.9643329 80.7692104 35.0305846 99.2707696"></polygon>
                    <polygon id="Fill-49" fill="#F08700" points="35.0305846 103.62171 67.0968363 85.1201511 67.0968363 80.7692104 35.0305846 99.2707696"></polygon>
                    <polygon id="Fill-51" fill="#F6D13A" points="67.0968363 80.7741293 35.0305846 62.2748059 2.9643329 80.7741293 35.0305846 99.2756884"></polygon>
                    <polygon id="Fill-53" fill="#F3AE00" points="35.0305846 89.7807553 16.7098887 79.2097134 16.7098887 72.5670389 35.0305846 83.1380807"></polygon>
                    <polygon id="Fill-55" fill="#F08700" points="35.0305846 89.7807553 53.3512806 79.2097134 53.3512806 72.5670389 35.0305846 83.1380807"></polygon>
                    <polygon id="Fill-57" fill="#F6D13A" points="53.3521755 72.5710634 35.0314795 61.9977856 16.7085463 72.5710634 35.0314795 83.1421053"></polygon>
                    <path d="M38.0181847,48.1733759 L38.0181847,74.3416234 L38.011473,74.3416234 C38.0002869,74.8156211 37.7049722,75.2940904 37.0830216,75.6607678 C35.8167481,76.3829435 33.7741549,76.3829435 32.5190675,75.6607678 C31.8814563,75.2985621 31.5727183,74.8200928 31.5727183,74.3416234 L31.5727183,48.1733759 L38.0181847,48.1733759 Z" id="Fill-59" fill="#3B4951"></path>
                    <path d="M37.0776522,49.4920731 C35.8180904,50.2187205 33.7754973,50.2187205 32.5159354,49.4920731 C31.2563736,48.7654258 31.2563736,47.5849034 32.5159354,46.858256 C33.7754973,46.1338445 35.8180904,46.1338445 37.0776522,46.858256 C38.3372141,47.5849034 38.3372141,48.7654258 37.0776522,49.4920731" id="Fill-61" fill="#5D7280"></path>
                    <path d="M43.8135115,35.6927048 L43.8135115,51.7303705 L43.7933764,51.7303705 C43.7642924,53.0562224 42.9365164,54.3887819 41.1937124,55.4172673 C37.6521735,57.4429365 31.9338076,57.4429365 28.42359,55.4172673 C26.6360413,54.4066686 25.7724696,53.0674016 25.7724696,51.7303705 L25.7724696,35.6927048 L43.8135115,35.6927048 Z" id="Fill-63" fill="#32B472"></path>
                    <path d="M41.1818551,39.3804959 C37.6559768,41.4151085 31.9398481,41.4151085 28.4117326,39.3804959 C24.8858544,37.3481192 24.8858544,34.0480224 28.4117326,32.0134099 C31.9376109,29.9787973 37.6559768,29.9787973 41.1818551,32.0134099 C44.7077333,34.0480224 44.7077333,37.3481192 41.1818551,39.3804959" id="Fill-65" fill="#3CD885"></path>
                    <path d="M38.0181847,22.5681124 L38.0181847,35.6276419 L38.011473,35.6276419 C38.0002869,36.1016396 37.7049722,36.5778731 37.0830216,36.9445505 C35.8167481,37.6667261 33.7741549,37.6667261 32.5190675,36.9445505 C31.8814563,36.5845806 31.5727183,36.1061112 31.5727183,35.6276419 L31.5727183,22.5681124 L38.0181847,22.5681124 Z" id="Fill-67" fill="#3B4951"></path>
                    <path d="M37.0776522,23.8870332 C35.8180904,24.6136805 33.7754973,24.6136805 32.5159354,23.8870332 C31.2563736,23.1603858 31.2563736,21.9798634 32.5159354,21.2532161 C33.7754973,20.5265687 35.8180904,20.5265687 37.0776522,21.2532161 C38.3372141,21.9798634 38.3372141,23.1603858 37.0776522,23.8870332" id="Fill-69" fill="#5D7280"></path>
                </g>
            </g>
        </g>
    </g>
</svg>