<?xml version="1.0" encoding="UTF-8"?>
<svg width="240px" height="240px" viewBox="0 0 240 240" version="1.1" xmlns="http://www.w3.org/2000/svg" xmlns:xlink="http://www.w3.org/1999/xlink">
    <title>illust_CR</title>
    <defs>
        <path d="M19.6341887,10.8550941 C11.0484777,13.3288367 3.12863369,13.0110603 -3.7137119e-15,10.373203 L-3.7137119e-15,10.373203 L9.29025458,42.7644399 C11.6490123,50.9518851 19.1068263,56.2877056 27.2179633,56.3159292 L27.2179633,56.3159292 L27.3392201,56.3159292 C29.0383828,56.3107026 30.7642011,56.0723703 32.4774756,55.5789807 L32.4774756,55.5789807 C42.4189627,52.7148122 48.1561849,42.332724 45.2914937,32.3907143 L45.2914937,32.3907143 L36.0017618,0 C34.7567893,3.89850964 28.2198996,8.38135147 19.6341887,10.8550941" id="path-1"></path>
        <linearGradient x1="56.7111235%" y1="66.0260192%" x2="40.6655303%" y2="3.93493072%" id="linearGradient-3">
            <stop stop-color="#FFEB00" offset="0%"></stop>
            <stop stop-color="#FF7E00" offset="100%"></stop>
        </linearGradient>
        <path d="M19.1324365,10.5775624 C10.7662421,12.988586 3.04866695,12.6791722 0,10.1082151 L0,10.1082151 L9.05244497,41.6720837 C11.8439639,51.3595587 21.9600189,56.9499139 31.647494,54.1589176 L31.647494,54.1589176 C41.334969,51.3673986 46.9258468,41.2518663 44.1343278,31.5638686 L44.1343278,31.5638686 L35.0818829,0 C33.8687925,3.79920453 27.4991536,8.16810681 19.1324365,10.5775624" id="path-4"></path>
        <linearGradient x1="57.5284523%" y1="72.2835507%" x2="64.2033228%" y2="100.689468%" id="linearGradient-6">
            <stop stop-color="#FFEB00" offset="0%"></stop>
            <stop stop-color="#FF7E00" offset="100%"></stop>
        </linearGradient>
        <path d="M16.0160159,1.63017182 C6.05309988,4.50113488 -1.05923679,10.1740701 0.129811266,14.3015041 L0.129811266,14.3015041 C1.31938198,18.4289382 10.3603285,19.4481222 20.3232445,16.5776818 L20.3232445,16.5776818 C30.2861606,13.7067188 37.3984972,8.03378358 36.2089265,3.90634952 L36.2089265,3.90634952 C35.476682,1.36309333 31.7616255,0 26.6881795,0 L26.6881795,0 C23.527141,0 19.8403081,0.528407729 16.0160159,1.63017182" id="path-7"></path>
        <linearGradient x1="54.5965924%" y1="59.0902923%" x2="44.6181501%" y2="39.3542159%" id="linearGradient-9">
            <stop stop-color="#FFEB00" offset="0%"></stop>
            <stop stop-color="#FF7E00" offset="100%"></stop>
        </linearGradient>
        <path d="M36.0012391,0 L60.0388255,83.4241342 C62.902994,93.3656212 57.1657719,103.747187 47.2242848,106.611878 C37.2827977,109.476046 26.9012322,103.739347 24.0365411,93.7973371 L24.0365411,93.7973371 L0,10.373203 C3.12811104,13.011583 11.0479551,13.3288367 19.6341887,10.8550941 C28.2198996,8.38135147 34.7562666,3.89850964 36.0012391,0" id="path-10"></path>
        <path d="M36.0012391,0 L60.0388255,83.4241342 C62.902994,93.3656212 57.1657719,103.747187 47.2242848,106.611878 C37.2827977,109.476046 26.9012322,103.739347 24.0365411,93.7973371 L24.0365411,93.7973371 L0,10.373203 C3.12811104,13.011583 11.0479551,13.3288367 19.6341887,10.8550941 C28.2198996,8.38135147 34.7562666,3.89850964 36.0012391,0" id="path-12"></path>
        <linearGradient x1="43.8515994%" y1="7.42969863%" x2="49.2723956%" y2="40.4414312%" id="linearGradient-14">
            <stop stop-color="#282867" offset="0%"></stop>
            <stop stop-color="#5754BF" offset="100%"></stop>
        </linearGradient>
        <path d="M4.61739008,0 L30.538115,89.9448214 L25.1155332,91.5070476 L1.83318833,10.7014325 C1.17463864,10.1599583 0.716267149,9.52179229 0.504067804,8.78536648 L0.504067804,8.78536648 L0.134548255,7.5022399 C-0.520865486,5.22867549 1.25721868,2.50196617 4.61739008,0 L4.61739008,0 Z" id="path-15"></path>
        <path d="M16.5877178,1.68902769 C26.9055189,-1.28437643 36.2689457,-0.229128948 37.5008518,4.0456948 L37.5008518,4.0456948 L37.8703713,5.32882139 C39.1017547,9.60312248 31.735406,15.4788492 21.4170822,18.4517306 C11.099281,21.4251348 1.73585426,20.3698873 0.503948211,16.0950635 L0.503948211,16.0950635 L0.134428662,14.8124596 M36.9144289,4.50197566 C35.7347887,0.409037062 26.648371,-0.566243671 16.6190773,2.32405775 C6.58926096,5.21383652 -0.585272072,10.8742279 0.593845471,14.9666439 C1.77296301,19.0595825 10.8599034,20.0343405 20.8891971,17.1445618" id="path-17"></path>
        <linearGradient x1="44.540358%" y1="38.9707235%" x2="68.9232539%" y2="88.2295133%" id="linearGradient-19">
            <stop stop-color="#5754BF" offset="0%"></stop>
            <stop stop-color="#FFFFFF" offset="100%"></stop>
        </linearGradient>
        <path d="M16.1520596,1.66217947 C26.1813532,-1.22812195 35.267771,-0.252841219 36.4474112,3.84009738 C37.6260061,7.93251332 30.4514731,13.5929047 20.4221794,16.4826835 C10.3928857,19.3724623 1.30594529,18.3977042 0.126827748,14.3047656" id="path-20"></path>
        <path d="M1.14517705,0.141117791 C0.403524661,0.389380572 -0.101363436,0.879111573 0.0172800398,1.23556466 L0.0172800398,1.23556466 C0.136968833,1.59097243 0.834717911,1.67773374 1.5763703,1.42999362 L1.5763703,1.42999362 C2.31854535,1.18173084 2.82343345,0.692522493 2.70478997,0.336592065 L2.70478997,0.336592065 C2.63109513,0.117075501 2.33840637,0 1.95163909,0 L1.95163909,0 C1.70964822,0 1.43054858,0.0454712882 1.14517705,0.141117791" id="path-22"></path>
        <path d="M1.47326283,0.111848916 C0.343797846,0.489208342 -0.265621948,1.7122292 0.111737478,2.84117153 L0.111737478,2.84117153 C0.490142222,3.97115917 1.71211776,4.58110163 2.84158275,4.20269688 L2.84158275,4.20269688 C3.97157039,3.8248148 4.58046753,2.60283926 4.2031081,1.47285161 L4.2031081,1.47285161 C3.9010115,0.570220408 3.06005399,0 2.15742279,0 L2.15742279,0 C1.93058901,0 1.70009662,0.0360634355 1.47326283,0.111848916" id="path-24"></path>
        <path d="M0.814773582,0.100350429 C0.286888511,0.277531656 -0.0727005267,0.625622207 0.0124928065,0.878588914 L0.0124928065,0.878588914 C0.0971634811,1.13155562 0.593689042,1.19375198 1.12157411,1.01709341 L1.12157411,1.01709341 C1.64893652,0.840434845 2.0080029,0.492344293 1.92333223,0.239377586 L1.92333223,0.239377586 C1.87158904,0.0836253577 1.6630483,0 1.38812994,0 L1.38812994,0 C1.2161753,0 1.01756507,0.0324048261 0.814773582,0.100350429" id="path-26"></path>
        <path d="M0.814125798,0.100350429 C0.286763387,0.276486339 -0.072302993,0.625099549 0.0123676817,0.878066256 L0.0123676817,0.878066256 C0.0970383563,1.13155562 0.593563918,1.19322932 1.12092633,1.01709341 L1.12092633,1.01709341 C1.6488114,0.840434845 2.00787778,0.491821635 1.92372976,0.238854928 L1.92372976,0.238854928 C1.87094126,0.0831026992 1.66292318,1.48548476e-14 1.38748216,1.48548476e-14 L1.38748216,1.48548476e-14 C1.21552752,1.48548476e-14 1.01743995,0.0324048261 0.814125798,0.100350429" id="path-28"></path>
        <path d="M1.23360951,0.0935558689 C0.287597652,0.409764253 -0.22251703,1.43312957 0.0936913538,2.37914143 L0.0936913538,2.37914143 C0.410422396,3.32515328 1.43378771,3.83526797 2.37979957,3.51905958 L2.37979957,3.51905958 C3.32528877,3.20232854 3.83592611,2.17948588 3.51919507,1.23347403 L3.51919507,1.23347403 C3.26622836,0.477709856 2.56220738,0 1.80696587,0 L1.80696587,0 C1.61671818,0 1.4238572,0.0297915337 1.23360951,0.0935558689" id="path-30"></path>
        <path d="M0.682024188,0.0836253577 C0.239855109,0.231537709 -0.06067352,0.523181144 0.010408034,0.735380489 L0.010408034,0.735380489 C0.081489588,0.947057176 0.496480426,0.999323024 0.938649504,0.850888014 L0.938649504,0.850888014 C1.38029592,0.703498321 1.68082455,0.411854887 1.609743,0.2001782 L1.609743,0.2001782 C1.56636235,0.0695135786 1.39231707,0 1.16182468,0 L1.16182468,0 C1.01757094,0 0.851888196,0.0271782412 0.682024188,0.0836253577" id="path-32"></path>
        <path d="M0.83523397,0.0632416767 C0.194977325,0.277531656 -0.150499934,0.970054149 0.0632673866,1.61083345 L0.0632673866,1.61083345 C0.277557366,2.2510901 0.970602517,2.59656736 1.61085916,2.38227738 L1.61085916,2.38227738 C2.25111581,2.16851006 2.59711572,1.4754649 2.38230309,0.83520826 L2.38230309,0.83520826 C2.21139376,0.323525603 1.73472922,0 1.22356922,0 L1.22356922,0 C1.09499524,0 0.964330616,0.0203836809 0.83523397,0.0632416767" id="path-34"></path>
        <path d="M0.462136162,0.0569697749 C0.16265285,0.156797546 -0.0406613007,0.354362453 0.00690062152,0.498093537 L0.00690062152,0.498093537 C0.0549852022,0.641301962 0.336698126,0.676842739 0.63565878,0.576492309 L0.63565878,0.576492309 C0.934619433,0.47614188 1.13845624,0.278576973 1.09037166,0.135368548 L1.09037166,0.135368548 C1.06110279,0.0470392637 0.942981969,0 0.78722974,0 L0.78722974,0 C0.689492604,0 0.577121029,0.018293047 0.462136162,0.0569697749" id="path-36"></path>
        <path d="M0.461739112,0.0574924334 C0.162778458,0.157320204 -0.0410583514,0.354885112 0.00702622926,0.498093537 L0.00702622926,0.498093537 C0.0551108099,0.641301962 0.336301075,0.676842739 0.635261729,0.577014968 L0.635261729,0.577014968 C0.934745041,0.476664539 1.13805919,0.279099631 1.08997461,0.135891206 L1.08997461,0.135891206 C1.06018308,0.0475619222 0.942584918,1.48548476e-14 0.78683269,1.48548476e-14 L0.78683269,1.48548476e-14 C0.689095553,1.48548476e-14 0.576723978,0.0188157055 0.461739112,0.0574924334" id="path-38"></path>
        <path d="M0.461739112,0.0569697749 C0.162778458,0.157320204 -0.0410583514,0.354362453 0.00702622926,0.497570878 L0.00702622926,0.497570878 C0.0551108099,0.64182462 0.336301075,0.67632008 0.635261729,0.576492309 L0.635261729,0.576492309 C0.934745041,0.476664539 1.13805919,0.279099631 1.09049727,0.135368548 L1.09049727,0.135368548 C1.06070574,0.0470392637 0.943107577,-1.48548476e-14 0.78683269,-1.48548476e-14 L0.78683269,-1.48548476e-14 C0.689618211,-1.48548476e-14 0.576723978,0.018293047 0.461739112,0.0569697749" id="path-40"></path>
        <path d="M13.5997757,7.4550758 C7.65281527,9.15399601 2.16707281,8.93575314 0,7.12412198 L0,7.12412198 L6.43496813,29.3698183 C8.0687803,34.9928027 13.234494,38.6573445 18.852737,38.6767279 L18.852737,38.6767279 L18.9367265,38.6767279 C20.113665,38.6731384 21.3090666,38.5094563 22.4957797,38.1706055 L22.4957797,38.1706055 C29.3818292,36.2035481 33.3557614,29.0733239 31.3715105,22.2453374 L31.3715105,22.2453374 L24.9369044,0 C24.0745643,2.67742358 19.5467361,5.75615559 13.5997757,7.4550758" id="path-42"></path>
        <linearGradient x1="56.8264648%" y1="66.0260192%" x2="40.5051026%" y2="3.93493072%" id="linearGradient-44">
            <stop stop-color="#FFEB00" offset="0%"></stop>
            <stop stop-color="#FF7E00" offset="100%"></stop>
        </linearGradient>
        <path d="M13.1538073,7.25345182 C7.40193622,8.90678581 2.09599951,8.69460854 0,6.93160185 L0,6.93160185 L6.22367762,28.5761917 C8.14288444,35.2192755 15.0978082,39.0528025 21.7580776,37.1389062 L21.7580776,37.1389062 C28.4183469,35.2246516 32.2621506,28.288032 30.3429437,21.6445898 L30.3429437,21.6445898 L24.1192661,0 C23.2852502,2.60526442 18.9060378,5.60119305 13.1538073,7.25345182" id="path-45"></path>
        <linearGradient x1="57.5674546%" y1="72.2835507%" x2="64.2769054%" y2="100.689468%" id="linearGradient-47">
            <stop stop-color="#FFEB00" offset="0%"></stop>
            <stop stop-color="#FF7E00" offset="100%"></stop>
        </linearGradient>
        <path d="M11.0571352,1.1230516 C4.17893839,3.10090426 -0.73127577,7.00908063 0.0896190865,9.85253638 L0.0896190865,9.85253638 C0.910874776,12.6959921 7.15256235,13.3981244 14.0307592,11.4206318 L14.0307592,11.4206318 C20.908956,9.44277917 25.8191701,5.53460281 24.9979145,2.69114706 L24.9979145,2.69114706 C24.4923876,0.939056934 21.9275873,0 18.4249823,0 L18.4249823,0 C16.2426649,0 13.6973496,0.364028589 11.0571352,1.1230516" id="path-48"></path>
        <linearGradient x1="54.5965924%" y1="59.0517855%" x2="44.6181501%" y2="39.3993118%" id="linearGradient-50">
            <stop stop-color="#FFEB00" offset="0%"></stop>
            <stop stop-color="#FF7E00" offset="100%"></stop>
        </linearGradient>
        <path d="M24.7682014,0 L41.3056262,56.8643425 C43.2761223,63.6407524 39.3290172,70.7171327 32.4894539,72.6697904 C25.6498906,74.6220918 18.5075613,70.7117888 16.5367056,63.9350227 L16.5367056,63.9350227 L0,7.07068011 C2.15208382,8.86907752 7.60079328,9.08532697 13.5079667,7.39915127 C19.4147806,5.71297558 23.9116829,2.65733879 24.7682014,0" id="path-51"></path>
        <path d="M24.6570325,0 L41.1202311,56.9399275 C43.0818829,63.7253447 39.1524939,70.8111309 32.3436291,72.7663842 C25.5347643,74.7212807 18.4244924,70.80578 16.4624827,64.0200061 L16.4624827,64.0200061 L0,7.08007857 C2.14242447,8.88086643 7.56667809,9.09740332 13.4473379,7.40898634 C19.3276398,5.72056935 23.8043583,2.66087097 24.6570325,0" id="path-53"></path>
        <linearGradient x1="43.8090333%" y1="7.42969863%" x2="49.2673583%" y2="40.4414312%" id="linearGradient-55">
            <stop stop-color="#282867" offset="0%"></stop>
            <stop stop-color="#5754BF" offset="100%"></stop>
        </linearGradient>
        <path d="M3.16242275,0 L20.9153716,61.3905276 L17.2014779,62.4568023 L1.25553968,7.30410685 C0.804502952,6.93453153 0.49056707,6.49896062 0.345233012,5.99632391 L0.345233012,5.99632391 L0.0921512919,5.12054455 C-0.356737644,3.56875629 0.861061526,1.70768056 3.16242275,0 L3.16242275,0 Z" id="path-56"></path>
        <path d="M11.2687589,1.15282125 C18.335359,-0.876632422 24.7483138,-0.156388626 25.5920388,2.76133005 L25.5920388,2.76133005 L25.8451205,3.63710941 C26.6884876,6.55447136 21.6433196,10.564863 14.5763616,12.59396 C7.50976155,14.6234136 1.09680678,13.9031698 0.253081721,10.9854511 L0.253081721,10.9854511 L1.09509624e-13,10.1100285 M25.1904014,3.07275791 C24.3824729,0.279182288 18.1592399,-0.386481369 11.2902369,1.58625176 C4.42087588,3.55862816 -0.492918712,7.42204585 0.314651814,10.2152647 C1.12222234,13.0088404 7.34581328,13.6741473 14.2148163,11.7017709" id="path-58"></path>
        <linearGradient x1="44.540358%" y1="39.0465555%" x2="68.9232539%" y2="87.9666654%" id="linearGradient-60">
            <stop stop-color="#5754BF" offset="0%"></stop>
            <stop stop-color="#FFFFFF" offset="100%"></stop>
        </linearGradient>
        <path d="M11.0793199,1.10122361 C17.9587988,-0.813652749 24.1915227,-0.167511828 25.0006834,2.54413316 C25.809127,5.25543188 20.8878384,9.00554238 14.0083596,10.9200725 C7.12888067,12.8346026 0.895798183,12.1888079 0.0869960382,9.47716292" id="path-61"></path>
        <path d="M0.879531547,0.0938886091 C0.309919473,0.259063014 -0.0778502677,0.584891261 0.0132716073,0.822046933 L0.0132716073,0.822046933 C0.105196318,1.05850713 0.641089283,1.11623124 1.21070136,0.951404572 L1.21070136,0.951404572 C1.78071485,0.786230167 2.16848459,0.460749656 2.07736271,0.223941719 L2.07736271,0.223941719 C2.02076278,0.077892772 1.79596873,0 1.49891945,0 L1.49891945,0 C1.31306293,0 1.09870575,0.0302529963 0.879531547,0.0938886091" id="path-63"></path>
        <path d="M1.07072797,0.0812889641 C0.249863066,0.355544254 -0.193046918,1.24440489 0.0812078063,2.06489163 L0.0812078063,2.06489163 C0.356222239,2.88613808 1.24432133,3.32942883 2.06518623,3.05441383 L2.06518623,3.05441383 C2.88643099,2.77977869 3.32896112,1.89167776 3.05470639,1.07043131 L3.05470639,1.07043131 C2.83515067,0.414421775 2.22396528,0 1.5679571,0 L1.5679571,0 C1.40310038,0 1.23558468,0.0262099931 1.07072797,0.0812889641" id="path-65"></path>
        <path d="M0.659991237,0.0469272885 C0.232388369,0.129783282 -0.0588896248,0.292562314 0.010119551,0.410858188 L0.010119551,0.410858188 C0.0787053576,0.529154061 0.480906075,0.558239203 0.908508944,0.475627622 L0.908508944,0.475627622 C1.33568844,0.393016042 1.62654307,0.230237009 1.55795726,0.111941136 L1.55795726,0.111941136 C1.51604371,0.0391060738 1.34711941,0 1.12442722,0 L1.12442722,0 C0.985138765,0 0.824258477,0.0151536036 0.659991237,0.0469272885" id="path-67"></path>
        <path d="M0.659378713,0.0469381288 C0.232256088,0.129324324 -0.058559813,0.292385427 0.0100168623,0.410708627 L0.0100168623,0.410708627 C0.0785935376,0.529276296 0.480740707,0.558123688 0.907863333,0.475737493 L0.907863333,0.475737493 C1.33540927,0.393106829 1.62622517,0.230045725 1.55807181,0.111722525 L1.55807181,0.111722525 C1.51531722,0.0388706379 1.34683872,0 1.12375287,0 L1.12375287,0 C0.984482952,0 0.824047397,0.0151571041 0.659378713,0.0469381288" id="path-69"></path>
        <path d="M0.892250335,0.0676738718 C0.208014853,0.296403997 -0.160943064,1.03665786 0.067765481,1.7209579 L0.067765481,1.7209579 C0.296852057,2.40525795 1.03703608,2.77425068 1.72127156,2.54552055 L1.72127156,2.54552055 C2.40512901,2.31641236 2.77446496,1.57653657 2.54537838,0.892236522 L2.54537838,0.892236522 C2.36241154,0.345552619 1.85320425,0 1.30694996,0 L1.30694996,0 C1.1693468,0 1.02985349,0.0215497804 0.892250335,0.0676738718" id="path-71"></path>
        <path d="M0.440039986,0.0467240005 C0.154753806,0.129367077 -0.0391463754,0.292317028 0.00671523272,0.41087918 L0.00671523272,0.41087918 C0.0525768408,0.529149306 0.3203277,0.558351807 0.605613879,0.475416706 L0.605613879,0.475416706 C0.890562841,0.393065655 1.08446302,0.230115703 1.03860141,0.111845576 L1.03860141,0.111845576 C1.01061234,0.0388393255 0.898318849,0 0.74960584,0 L0.74960584,0 C0.656533753,0 0.54963574,0.0151853002 0.440039986,0.0467240005" id="path-73"></path>
        <path d="M0.535409488,0.0405435324 C0.124986188,0.177922444 -0.0964748747,0.621890877 0.0405562516,1.03268733 L0.0405562516,1.03268733 C0.177922417,1.44314871 0.6221847,1.66463032 1.032608,1.52725141 L1.032608,1.52725141 C1.4430313,1.39020757 1.6648274,0.945904066 1.5271262,0.535442684 L1.5271262,0.535442684 C1.4175683,0.207408649 1.11201234,0 0.784343783,0 L0.784343783,0 C0.701924084,0 0.618164227,0.0130677501 0.535409488,0.0405435324" id="path-75"></path>
        <path d="M0.220101924,0.0469959931 C0.0774667903,0.12934677 -0.019365787,0.2923237 0.00328656399,0.410891572 L0.00328656399,0.410891572 C0.0261878419,0.529028289 0.160359459,0.55834689 0.302745666,0.475564957 L0.302745666,0.475564957 C0.445131872,0.392783024 0.542213376,0.229806094 0.519312098,0.111669378 L0.519312098,0.111669378 C0.50537219,0.038804031 0.449114703,0 0.374934476,0 L0.374934476,0 C0.32838514,0 0.274865849,0.0150904565 0.220101924,0.0469959931" id="path-77"></path>
        <path d="M0.219989663,0.0474180143 C0.0775537034,0.12975293 -0.0195617236,0.29269847 0.00334755659,0.410812433 L0.00334755659,0.410812433 C0.0262568368,0.528926396 0.160226323,0.55823935 0.302662283,0.475904435 L0.302662283,0.475904435 C0.445347256,0.393138446 0.542213669,0.230192906 0.519304389,0.112078943 L0.519304389,0.112078943 C0.505110596,0.03922763 0.449082465,0 0.374876318,0 L0.374876318,0 C0.328310716,0 0.274772724,0.0155186229 0.219989663,0.0474180143" id="path-79"></path>
        <path d="M0.21991282,0.0470045447 C0.0775266136,0.129801541 -0.0195548907,0.292376893 0.00334638728,0.410535106 L0.00334638728,0.410535106 C0.0262476652,0.529555788 0.160170356,0.558017255 0.302556562,0.475651494 L0.302556562,0.475651494 C0.445191695,0.393285732 0.542024272,0.230279146 0.519371921,0.111689698 L0.519371921,0.111689698 C0.505183086,0.038811092 0.449174526,0 0.374745373,0 L0.374745373,0 C0.328444963,0 0.274676745,0.0150932024 0.21991282,0.0470045447" id="path-81"></path>
    </defs>
    <g id="element" stroke="none" stroke-width="1" fill="none" fill-rule="evenodd">
        <g id="Artboard" transform="translate(-1491.000000, -814.000000)">
            <g id="illust_CR" transform="translate(1491.000000, 814.000000)">
                <rect id="Rectangle" x="0" y="0" width="240" height="240"></rect>
                <g id="Group-10" transform="translate(60.000000, 53.000000)">
                    <g id="Group-5" transform="translate(0.000000, 0.000000)">
                        <g id="Group-16" transform="translate(16.547070, 78.249428)">
                            <mask id="mask-2" fill="white">
                                <use xlink:href="#path-1"></use>
                            </mask>
                            <g id="Clip-15"></g>
                            <path d="M19.6341887,10.8550941 C11.0484777,13.3288367 3.12863369,13.0110603 -3.7137119e-15,10.373203 L-3.7137119e-15,10.373203 L9.29025458,42.7644399 C11.6490123,50.9518851 19.1068263,56.2877056 27.2179633,56.3159292 L27.2179633,56.3159292 L27.3392201,56.3159292 C29.0383828,56.3107026 30.7642011,56.0723703 32.4774756,55.5789807 L32.4774756,55.5789807 C42.4189627,52.7148122 48.1561849,42.332724 45.2914937,32.3907143 L45.2914937,32.3907143 L36.0017618,0 C34.7567893,3.89850964 28.2198996,8.38135147 19.6341887,10.8550941" id="Fill-14" fill="url(#linearGradient-3)" mask="url(#mask-2)"></path>
                        </g>
                        <g id="Group-19" transform="translate(17.192031, 79.025576)">
                            <mask id="mask-5" fill="white">
                                <use xlink:href="#path-4"></use>
                            </mask>
                            <g id="Clip-18"></g>
                            <path d="M19.1324365,10.5775624 C10.7662421,12.988586 3.04866695,12.6791722 0,10.1082151 L0,10.1082151 L9.05244497,41.6720837 C11.8439639,51.3595587 21.9600189,56.9499139 31.647494,54.1589176 L31.647494,54.1589176 C41.334969,51.3673986 46.9258468,41.2518663 44.1343278,31.5638686 L44.1343278,31.5638686 L35.0818829,0 C33.8687925,3.79920453 27.4991536,8.16810681 19.1324365,10.5775624" id="Fill-17" fill="url(#linearGradient-6)" mask="url(#mask-5)"></path>
                        </g>
                        <g id="Group-22" transform="translate(16.343564, 74.360326)">
                            <mask id="mask-8" fill="white">
                                <use xlink:href="#path-7"></use>
                            </mask>
                            <g id="Clip-21"></g>
                            <path d="M16.0160159,1.63017182 C6.05309988,4.50113488 -1.05923679,10.1740701 0.129811266,14.3015041 L0.129811266,14.3015041 C1.31938198,18.4289382 10.3603285,19.4481222 20.3232445,16.5776818 L20.3232445,16.5776818 C30.2861606,13.7067188 37.3984972,8.03378358 36.2089265,3.90634952 L36.2089265,3.90634952 C35.476682,1.36309333 31.7616255,0 26.6881795,0 L26.6881795,0 C23.527141,0 19.8403081,0.528407729 16.0160159,1.63017182" id="Fill-20" fill="url(#linearGradient-9)" mask="url(#mask-8)"></path>
                        </g>
                        <g id="Group-28" transform="translate(21.661283, 27.216531)">
                            <mask id="mask-11" fill="white">
                                <use xlink:href="#path-10"></use>
                            </mask>
                            <g id="Clip-27"></g>
                            <path d="M19.6341887,10.8550941 C11.0479551,13.3288367 3.12811104,13.011583 0,10.373203 L24.0365411,93.7973371 C26.9012322,103.739347 37.2827977,109.476046 47.2242848,106.611878 C57.1657719,103.747187 62.902994,93.3656212 60.0388255,83.4241342 L36.0012391,0 C34.7562666,3.89850964 28.2198996,8.38135147 19.6341887,10.8550941" id="Fill-26" mask="url(#mask-11)"></path>
                        </g>
                        <g id="Group-13" transform="translate(0.000000, 19.701429)">
                            <g id="Group-3" opacity="0.2" transform="translate(1.800261, 7.515102)">
                                <mask id="mask-13" fill="white">
                                    <use xlink:href="#path-12"></use>
                                </mask>
                                <g id="Clip-2"></g>
                                <path d="M19.6341887,10.8550941 C11.0479551,13.3288367 3.12811104,13.011583 0,10.373203 L24.0365411,93.7973371 C26.9012322,103.739347 37.2827977,109.476046 47.2242848,106.611878 C57.1657719,103.747187 62.902994,93.3656212 60.0388255,83.4241342 L36.0012391,0 C34.7562666,3.89850964 28.2198996,8.38135147 19.6341887,10.8550941" id="Fill-1" fill="url(#linearGradient-14)" mask="url(#mask-13)"></path>
                            </g>
                            <g id="Group-6" transform="translate(0.000000, 7.309697)">
                                <mask id="mask-16" fill="white">
                                    <use xlink:href="#path-15"></use>
                                </mask>
                                <g id="Clip-5"></g>
                            </g>
                            <g id="Group-12" transform="translate(0.002210, 0.000000)">
                                <mask id="mask-18" fill="white">
                                    <use xlink:href="#path-17"></use>
                                </mask>
                                <g id="Clip-11"></g>
                                <path d="M20.8891971,17.1445618 C10.8599034,20.0343405 1.77296301,19.0595825 0.593845471,14.9666439 C-0.585272072,10.8742279 6.58926096,5.21383652 16.6190773,2.32405775 C26.648371,-0.566243671 35.7347887,0.409037062 36.9144289,4.50197566 C38.0930238,8.5943916 30.9184908,14.254783 20.8891971,17.1445618 M37.8703713,5.32882139 L37.5008518,4.0456948 C36.2689457,-0.229128948 26.9055189,-1.28437643 16.5877178,1.68902769 C6.26887131,4.66190916 -1.09695473,10.5376359 0.134428662,14.8124596 L0.503948211,16.0950635 C1.73585426,20.3698873 11.099281,21.4251348 21.4170822,18.4517306 C31.735406,15.4788492 39.1017547,9.60312248 37.8703713,5.32882139" id="Fill-10" fill="url(#linearGradient-19)" mask="url(#mask-18)"></path>
                            </g>
                        </g>
                        <g id="Group-34" transform="translate(0.469228, 20.363307)">
                            <mask id="mask-21" fill="white">
                                <use xlink:href="#path-20"></use>
                            </mask>
                            <g id="Clip-33"></g>
                            <path d="M36.4474112,3.84009738 C35.267771,-0.252841219 26.1813532,-1.22812195 16.1520596,1.66217947 C6.12224324,4.55195824 -1.0522898,10.2123496 0.126827748,14.3047656 C1.30594529,18.3977042 10.3928857,19.3724623 20.4221794,16.4826835 C30.4514731,13.5929047 37.6260061,7.93251332 36.4474112,3.84009738" id="Fill-32" mask="url(#mask-21)"></path>
                        </g>
                        <g id="Group-54" transform="translate(19.254216, 24.935127)" fill="#FFEC00">
                            <path d="M2.07152052,0.157320204 C0.483161378,0.688863884 -0.373998538,2.40684233 0.157545141,3.99572412 L0.157545141,3.99572412 C0.688566163,5.58408326 2.40706726,6.44072052 3.9954264,5.9096995 L3.9954264,5.9096995 C5.58378554,5.37815582 6.44094545,3.65965472 5.90940177,2.07181824 L5.90940177,2.07181824 C5.48500308,0.801758117 4.30222693,0 3.03373479,0 L3.03373479,0 C2.71491311,0 2.39086485,0.0506978731 2.07152052,0.157320204" id="Fill-52"></path>
                        </g>
                        <g id="Group-60" transform="translate(20.245369, 25.146281)">
                            <mask id="mask-23" fill="white">
                                <use xlink:href="#path-22"></use>
                            </mask>
                            <g id="Clip-59"></g>
                            <path d="M1.14517705,0.141117791 C0.403524661,0.389380572 -0.101363436,0.879111573 0.0172800398,1.23556466 L0.0172800398,1.23556466 C0.136968833,1.59097243 0.834717911,1.67773374 1.5763703,1.42999362 L1.5763703,1.42999362 C2.31854535,1.18173084 2.82343345,0.692522493 2.70478997,0.336592065 L2.70478997,0.336592065 C2.63109513,0.117075501 2.33840637,0 1.95163909,0 L1.95163909,0 C1.70964822,0 1.43054858,0.0454712882 1.14517705,0.141117791" id="Fill-58" mask="url(#mask-23)"></path>
                        </g>
                        <path d="M29.7666188,11.2365612 C29.3887367,10.1065736 28.1662385,9.49715376 27.0367736,9.87503585 C25.9073086,10.2529179 25.2973661,11.4754161 25.6752482,12.6048811 C26.0536529,13.7343461 27.2756285,14.3442886 28.4050935,13.9664065 C29.5350811,13.5885244 30.1445009,12.3665488 29.7666188,11.2365612" id="Fill-61" fill="#FFEC00"></path>
                        <g id="Group-65" transform="translate(25.563563, 9.763396)">
                            <mask id="mask-25" fill="white">
                                <use xlink:href="#path-24"></use>
                            </mask>
                            <g id="Clip-64"></g>
                        </g>
                        <g id="Group-71" transform="translate(26.268569, 9.913399)">
                            <mask id="mask-27" fill="white">
                                <use xlink:href="#path-26"></use>
                            </mask>
                            <g id="Clip-70"></g>
                            <path d="M0.814773582,0.100350429 C0.286888511,0.277531656 -0.0727005267,0.625622207 0.0124928065,0.878588914 L0.0124928065,0.878588914 C0.0971634811,1.13155562 0.593689042,1.19375198 1.12157411,1.01709341 L1.12157411,1.01709341 C1.64893652,0.840434845 2.0080029,0.492344293 1.92333223,0.239377586 L1.92333223,0.239377586 C1.87158904,0.0836253577 1.6630483,0 1.38812994,0 L1.38812994,0 C1.2161753,0 1.01756507,0.0324048261 0.814773582,0.100350429" id="Fill-69" mask="url(#mask-27)"></path>
                        </g>
                        <path d="M9.87089185,25.8957728 C9.49300977,24.7663078 8.27103423,24.1563654 7.14104658,24.5347701 C6.01158159,24.9121295 5.4021618,26.1346277 5.78004389,27.2640927 C6.15792597,28.3940804 7.37990151,29.0035002 8.50988916,28.6256181 C9.63935414,28.247736 10.2487739,27.0257605 9.87089185,25.8957728" id="Fill-72" fill="#FFEC00"></path>
                        <g id="Group-82" transform="translate(6.373176, 24.572924)">
                            <mask id="mask-29" fill="white">
                                <use xlink:href="#path-28"></use>
                            </mask>
                            <g id="Clip-81"></g>
                            <path d="M0.814125798,0.100350429 C0.286763387,0.276486339 -0.072302993,0.625099549 0.0123676817,0.878066256 L0.0123676817,0.878066256 C0.0970383563,1.13155562 0.593563918,1.19322932 1.12092633,1.01709341 L1.12092633,1.01709341 C1.6488114,0.840434845 2.00787778,0.491821635 1.92372976,0.238854928 L1.92372976,0.238854928 C1.87094126,0.0831026992 1.66292318,1.48548476e-14 1.38748216,1.48548476e-14 L1.38748216,1.48548476e-14 C1.21552752,1.48548476e-14 1.01743995,0.0324048261 0.814125798,0.100350429" id="Fill-80" mask="url(#mask-29)"></path>
                        </g>
                        <path d="M17.5423686,1.23360951 C17.2261602,0.287597652 16.2027949,-0.22251703 15.256783,0.0936913538 C14.3107712,0.409899738 13.8006565,1.43326505 14.1168649,2.37927691 C14.4335959,3.32528877 15.4564386,3.83540345 16.4024504,3.51919507 C17.3484623,3.20298668 17.858577,2.17962137 17.5423686,1.23360951" id="Fill-83" fill="#FFEC00"></path>
                        <g id="Group-87" transform="translate(14.023017, 0.000135)">
                            <mask id="mask-31" fill="white">
                                <use xlink:href="#path-30"></use>
                            </mask>
                            <g id="Clip-86"></g>
                        </g>
                        <g id="Group-93" transform="translate(14.613801, 0.126096)">
                            <mask id="mask-33" fill="white">
                                <use xlink:href="#path-32"></use>
                            </mask>
                            <g id="Clip-92"></g>
                            <path d="M0.682024188,0.0836253577 C0.239855109,0.231537709 -0.06067352,0.523181144 0.010408034,0.735380489 L0.010408034,0.735380489 C0.081489588,0.947057176 0.496480426,0.999323024 0.938649504,0.850888014 L0.938649504,0.850888014 C1.38029592,0.703498321 1.68082455,0.411854887 1.609743,0.2001782 L1.609743,0.2001782 C1.56636235,0.0695135786 1.39231707,0 1.16182468,0 L1.16182468,0 C1.01757094,0 0.851888196,0.0271782412 0.682024188,0.0836253577" id="Fill-91" mask="url(#mask-33)"></path>
                        </g>
                        <path d="M16.4120673,13.4052803 C16.1977774,12.764501 15.5052549,12.4190238 14.8649982,12.6333137 C14.2242189,12.8476037 13.8787417,13.5406489 14.0930316,14.1809055 C14.3073216,14.8211622 14.9998441,15.1666394 15.6401007,14.9523494 C16.28088,14.7385821 16.6263573,14.045537 16.4120673,13.4052803" id="Fill-94" fill="#FFEC00"></path>
                        <g id="Group-98" transform="translate(14.029398, 12.570072)">
                            <mask id="mask-35" fill="white">
                                <use xlink:href="#path-34"></use>
                            </mask>
                            <g id="Clip-97"></g>
                        </g>
                        <g id="Group-104" transform="translate(14.429152, 12.655265)">
                            <mask id="mask-37" fill="white">
                                <use xlink:href="#path-36"></use>
                            </mask>
                            <g id="Clip-103"></g>
                            <path d="M0.462136162,0.0569697749 C0.16265285,0.156797546 -0.0406613007,0.354362453 0.00690062152,0.498093537 L0.00690062152,0.498093537 C0.0549852022,0.641301962 0.336698126,0.676842739 0.63565878,0.576492309 L0.63565878,0.576492309 C0.934619433,0.47614188 1.13845624,0.278576973 1.09037166,0.135368548 L1.09037166,0.135368548 C1.06110279,0.0470392637 0.942981969,0 0.78722974,0 L0.78722974,0 C0.689492604,0 0.577121029,0.018293047 0.462136162,0.0569697749" id="Fill-102" mask="url(#mask-37)"></path>
                        </g>
                        <path d="M13.9881341,29.8787441 C13.7738441,29.2379648 13.0813216,28.8924875 12.441065,29.1067775 C11.8002857,29.3210675 11.4548084,30.0141126 11.6690984,30.6543693 C11.8833884,31.2946259 12.5759108,31.6401032 13.2161675,31.4258132 C13.8569468,31.2120459 14.2024241,30.5190007 13.9881341,29.8787441" id="Fill-105" fill="#FFEC00"></path>
                        <g id="Group-115" transform="translate(12.005459, 29.128416)">
                            <mask id="mask-39" fill="white">
                                <use xlink:href="#path-38"></use>
                            </mask>
                            <g id="Clip-114"></g>
                            <path d="M0.461739112,0.0574924334 C0.162778458,0.157320204 -0.0410583514,0.354885112 0.00702622926,0.498093537 L0.00702622926,0.498093537 C0.0551108099,0.641301962 0.336301075,0.676842739 0.635261729,0.577014968 L0.635261729,0.577014968 C0.934745041,0.476664539 1.13805919,0.279099631 1.08997461,0.135891206 L1.08997461,0.135891206 C1.06018308,0.0475619222 0.942584918,1.48548476e-14 0.78683269,1.48548476e-14 L0.78683269,1.48548476e-14 C0.689095553,1.48548476e-14 0.576723978,0.0188157055 0.461739112,0.0574924334" id="Fill-113" mask="url(#mask-39)"></path>
                        </g>
                        <path d="M3.17333696,17.0909634 C2.95904698,16.4507068 2.26652448,16.1052295 1.62626784,16.3189968 C0.985488535,16.5338095 0.640011276,17.226332 0.854301255,17.8665886 C1.06859123,18.5068453 1.76111373,18.8528452 2.40137037,18.6385552 C3.04214968,18.4242652 3.38762693,17.7317427 3.17333696,17.0909634" id="Fill-116" fill="#FFEC00"></path>
                        <g id="Group-126" transform="translate(1.190609, 16.341053)">
                            <mask id="mask-41" fill="white">
                                <use xlink:href="#path-40"></use>
                            </mask>
                            <g id="Clip-125"></g>
                            <path d="M0.461739112,0.0569697749 C0.162778458,0.157320204 -0.0410583514,0.354362453 0.00702622926,0.497570878 L0.00702622926,0.497570878 C0.0551108099,0.64182462 0.336301075,0.67632008 0.635261729,0.576492309 L0.635261729,0.576492309 C0.934745041,0.476664539 1.13805919,0.279099631 1.09049727,0.135368548 L1.09049727,0.135368548 C1.06070574,0.0470392637 0.943107577,-1.48548476e-14 0.78683269,-1.48548476e-14 L0.78683269,-1.48548476e-14 C0.689618211,-1.48548476e-14 0.576723978,0.018293047 0.461739112,0.0569697749" id="Fill-124" mask="url(#mask-41)"></path>
                        </g>
                    </g>
                    <g id="Group-5-Copy" transform="translate(91.515113, 46.417268) scale(-1, 1) translate(-91.515113, -46.417268) translate(63.030225, 0.161992)">
                        <g id="Group-16" transform="translate(11.498487, 53.833824)">
                            <mask id="mask-43" fill="white">
                                <use xlink:href="#path-42"></use>
                            </mask>
                            <g id="Clip-15"></g>
                            <path d="M13.5997757,7.4550758 C7.65281527,9.15399601 2.16707281,8.93575314 0,7.12412198 L0,7.12412198 L6.43496813,29.3698183 C8.0687803,34.9928027 13.234494,38.6573445 18.852737,38.6767279 L18.852737,38.6767279 L18.9367265,38.6767279 C20.113665,38.6731384 21.3090666,38.5094563 22.4957797,38.1706055 L22.4957797,38.1706055 C29.3818292,36.2035481 33.3557614,29.0733239 31.3715105,22.2453374 L31.3715105,22.2453374 L24.9369044,0 C24.0745643,2.67742358 19.5467361,5.75615559 13.5997757,7.4550758" id="Fill-14" fill="url(#linearGradient-44)" mask="url(#mask-43)"></path>
                        </g>
                        <g id="Group-19" transform="translate(12.021145, 54.356482)">
                            <mask id="mask-46" fill="white">
                                <use xlink:href="#path-45"></use>
                            </mask>
                            <g id="Clip-18"></g>
                            <path d="M13.1538073,7.25345182 C7.40193622,8.90678581 2.09599951,8.69460854 0,6.93160185 L0,6.93160185 L6.22367762,28.5761917 C8.14288444,35.2192755 15.0978082,39.0528025 21.7580776,37.1389062 L21.7580776,37.1389062 C28.4183469,35.2246516 32.2621506,28.288032 30.3429437,21.6445898 L30.3429437,21.6445898 L24.1192661,0 C23.2852502,2.60526442 18.9060378,5.60119305 13.1538073,7.25345182" id="Fill-17" fill="url(#linearGradient-47)" mask="url(#mask-46)"></path>
                        </g>
                        <g id="Group-22" transform="translate(11.498487, 50.697873)">
                            <mask id="mask-49" fill="white">
                                <use xlink:href="#path-48"></use>
                            </mask>
                            <g id="Clip-21"></g>
                            <path d="M11.0571352,1.1230516 C4.17893839,3.10090426 -0.73127577,7.00908063 0.0896190865,9.85253638 L0.0896190865,9.85253638 C0.910874776,12.6959921 7.15256235,13.3981244 14.0307592,11.4206318 L14.0307592,11.4206318 C20.908956,9.44277917 25.8191701,5.53460281 24.9979145,2.69114706 L24.9979145,2.69114706 C24.4923876,0.939056934 21.9275873,0 18.4249823,0 L18.4249823,0 C16.2426649,0 13.6973496,0.364028589 11.0571352,1.1230516" id="Fill-20" fill="url(#linearGradient-50)" mask="url(#mask-49)"></path>
                        </g>
                        <g id="Group-28" transform="translate(15.157096, 19.338364)">
                            <mask id="mask-52" fill="white">
                                <use xlink:href="#path-51"></use>
                            </mask>
                            <g id="Clip-27"></g>
                            <path d="M13.5079667,7.39915127 C7.60079328,9.08532697 2.15208382,8.86907752 0,7.07068011 L16.5367056,63.9350227 C18.5075613,70.7117888 25.6498906,74.6220918 32.4894539,72.6697904 C39.3290172,70.7171327 43.2761223,63.6407524 41.3056262,56.8643425 L24.7682014,0 C23.9116829,2.65733879 19.4147806,5.71297558 13.5079667,7.39915127" id="Fill-26" mask="url(#mask-52)"></path>
                        </g>
                        <g id="Group-13" transform="translate(0.000000, 14.111779)">
                            <g id="Group-3" opacity="0.2" transform="translate(1.232988, 5.129323)">
                                <mask id="mask-54" fill="white">
                                    <use xlink:href="#path-53"></use>
                                </mask>
                                <g id="Clip-2"></g>
                                <path d="M13.4473379,7.40898634 C7.56667809,9.09740332 2.14242447,8.88086643 0,7.08007857 L16.4624827,64.0200061 C18.4244924,70.80578 25.5347643,74.7212807 32.3436291,72.7663842 C39.1524939,70.8111309 43.0818829,63.7253447 41.1202311,56.9399275 L24.6570325,0 C23.8043583,2.66087097 19.3276398,5.72056935 13.4473379,7.40898634" id="Fill-1" fill="url(#linearGradient-55)" mask="url(#mask-54)"></path>
                            </g>
                            <g id="Group-6" transform="translate(0.000000, 4.989127)">
                                <mask id="mask-57" fill="white">
                                    <use xlink:href="#path-56"></use>
                                </mask>
                                <g id="Clip-5"></g>
                            </g>
                            <g id="Group-12" transform="translate(0.093583, 0.000000)">
                                <mask id="mask-59" fill="white">
                                    <use xlink:href="#path-58"></use>
                                </mask>
                                <g id="Clip-11"></g>
                                <path d="M14.2148163,11.7017709 C7.34581328,13.6741473 1.12222234,13.0088404 0.314651814,10.2152647 C-0.492918712,7.42204585 4.42087588,3.55862816 11.2902369,1.58625176 C18.1592399,-0.386481369 24.3824729,0.279182288 25.1904014,3.07275791 C25.9976139,5.86597679 21.0838193,9.72939448 14.2148163,11.7017709 M25.8451205,3.63710941 L25.5920388,2.76133005 C24.7483138,-0.156388626 18.335359,-0.876632422 11.2687589,1.15282125 C4.20144293,3.18191818 -0.843367091,7.19230984 1.05929154e-13,10.1100285 L0.253081721,10.9854511 C1.09680678,13.9031698 7.50976155,14.6234136 14.5763616,12.59396 C21.6433196,10.564863 26.6884876,6.55447136 25.8451205,3.63710941" id="Fill-10" fill="url(#linearGradient-60)" mask="url(#mask-59)"></path>
                            </g>
                        </g>
                        <g id="Group-34" transform="translate(0.522658, 14.111779)">
                            <mask id="mask-62" fill="white">
                                <use xlink:href="#path-61"></use>
                            </mask>
                            <g id="Clip-33"></g>
                            <path d="M25.0006834,2.54413316 C24.1915227,-0.167511828 17.9587988,-0.813652749 11.0793199,1.10122361 C4.19948248,3.01575371 -0.721806107,6.7658642 0.0869960382,9.47716292 C0.895798183,12.1888079 7.12888067,12.8346026 14.0083596,10.9200725 C20.8878384,9.00554238 25.809127,5.25543188 25.0006834,2.54413316" id="Fill-32" mask="url(#mask-62)"></path>
                        </g>
                        <g id="Group-54" transform="translate(13.589121, 17.247730)" fill="#FFEC00">
                            <path d="M1.42766738,0.108421494 C0.332989093,0.474749265 -0.257755359,1.65874079 0.108578244,2.75376186 L0.108578244,2.75376186 C0.474551636,3.84842272 1.65892222,4.43879757 2.7536005,4.07283 L2.7536005,4.07283 C3.84827879,3.70650223 4.43902324,2.5221505 4.07268964,1.42784984 L4.07268964,1.42784984 C3.78019909,0.552553393 2.96504379,0 2.09081405,0 L2.09081405,0 C1.87108593,0 1.64775571,0.0349398169 1.42766738,0.108421494" id="Fill-52"></path>
                        </g>
                        <g id="Group-60" transform="translate(14.111779, 17.247730)">
                            <mask id="mask-64" fill="white">
                                <use xlink:href="#path-63"></use>
                            </mask>
                            <g id="Clip-59"></g>
                            <path d="M0.879531547,0.0938886091 C0.309919473,0.259063014 -0.0778502677,0.584891261 0.0132716073,0.822046933 L0.0132716073,0.822046933 C0.105196318,1.05850713 0.641089283,1.11623124 1.21070136,0.951404572 L1.21070136,0.951404572 C1.78071485,0.786230167 2.16848459,0.460749656 2.07736271,0.223941719 L2.07736271,0.223941719 C2.02076278,0.077892772 1.79596873,0 1.49891945,0 L1.49891945,0 C1.31306293,0 1.09870575,0.0302529963 0.879531547,0.0938886091" id="Fill-58" mask="url(#mask-64)"></path>
                        </g>
                        <path d="M20.8249563,7.86537135 C20.5503473,7.04420314 19.6619512,6.60133444 18.8411628,6.87594342 C18.0203744,7.1505524 17.5771259,8.03894854 17.8517349,8.85973692 C18.1267237,9.68052531 19.01474,10.1237738 19.8355284,9.84916485 C20.6566966,9.57455587 21.0995653,8.68653956 20.8249563,7.86537135" id="Fill-61" fill="#FFEC00"></path>
                        <g id="Group-65" transform="translate(17.770389, 6.794560)">
                            <mask id="mask-66" fill="white">
                                <use xlink:href="#path-65"></use>
                            </mask>
                            <g id="Clip-64"></g>
                        </g>
                        <g id="Group-71" transform="translate(18.293047, 6.794560)">
                            <mask id="mask-68" fill="white">
                                <use xlink:href="#path-67"></use>
                            </mask>
                            <g id="Clip-70"></g>
                            <path d="M0.659991237,0.0469272885 C0.232388369,0.129783282 -0.0588896248,0.292562314 0.010119551,0.410858188 L0.010119551,0.410858188 C0.0787053576,0.529154061 0.480906075,0.558239203 0.908508944,0.475627622 L0.908508944,0.475627622 C1.33568844,0.393016042 1.62654307,0.230237009 1.55795726,0.111941136 L1.55795726,0.111941136 C1.51604371,0.0391060738 1.34711941,0 1.12442722,0 L1.12442722,0 C0.985138765,0 0.824258477,0.0151536036 0.659991237,0.0469272885" id="Fill-69" mask="url(#mask-68)"></path>
                        </g>
                        <path d="M7.75848234,17.7957182 C7.48384386,16.9748791 6.59573213,16.5316032 5.77447569,16.806609 C4.95359911,17.0808551 4.51068282,17.9693061 4.78532131,18.7901452 C5.05995979,19.6113642 5.94807152,20.0542603 6.76932796,19.7796343 C7.59020454,19.5050084 8.03312083,18.6169372 7.75848234,17.7957182" id="Fill-72" fill="#FFEC00"></path>
                        <g id="Group-82" transform="translate(4.181268, 16.725072)">
                            <mask id="mask-70" fill="white">
                                <use xlink:href="#path-69"></use>
                            </mask>
                            <g id="Clip-81"></g>
                            <path d="M0.659378713,0.0469381288 C0.232256088,0.129324324 -0.058559813,0.292385427 0.0100168623,0.410708627 L0.0100168623,0.410708627 C0.0785935376,0.529276296 0.480740707,0.558123688 0.907863333,0.475737493 L0.907863333,0.475737493 C1.33540927,0.393106829 1.62622517,0.230045725 1.55807181,0.111722525 L1.55807181,0.111722525 C1.51531722,0.0388706379 1.34683872,0 1.12375287,0 L1.12375287,0 C0.984482952,0 0.824047397,0.0151571041 0.659378713,0.0469381288" id="Fill-80" mask="url(#mask-70)"></path>
                        </g>
                        <path d="M11.9533758,0.892301063 C11.7246543,0.20802668 10.9844282,-0.160952214 10.3001538,0.0677693337 C9.61587942,0.296490882 9.24690052,1.03671698 9.47562207,1.72099136 C9.70472167,2.40526575 10.4445697,2.77424464 11.1288441,2.54552309 C11.8131185,2.31680155 12.1820974,1.57657545 11.9533758,0.892301063" id="Fill-83" fill="#FFEC00"></path>
                        <g id="Group-87" transform="translate(9.407853, 0.000000)">
                            <mask id="mask-72" fill="white">
                                <use xlink:href="#path-71"></use>
                            </mask>
                            <g id="Clip-86"></g>
                        </g>
                        <g id="Group-93" transform="translate(10.453170, 0.522658)">
                            <mask id="mask-74" fill="white">
                                <use xlink:href="#path-73"></use>
                            </mask>
                            <g id="Clip-92"></g>
                            <path d="M0.440039986,0.0467240005 C0.154753806,0.129367077 -0.0391463754,0.292317028 0.00671523272,0.41087918 L0.00671523272,0.41087918 C0.0525768408,0.529149306 0.3203277,0.558351807 0.605613879,0.475416706 L0.605613879,0.475416706 C0.890562841,0.393065655 1.08446302,0.230115703 1.03860141,0.111845576 L1.03860141,0.111845576 C1.01061234,0.0388393255 0.898318849,0 0.74960584,0 L0.74960584,0 C0.656533753,0 0.54963574,0.0151853002 0.440039986,0.0467240005" id="Fill-91" mask="url(#mask-74)"></path>
                        </g>
                        <path d="M11.4577699,9.420754 C11.3204063,9.01000413 10.8764875,8.78854763 10.4660719,8.92591096 C10.0553213,9.0632743 9.83386443,9.50752743 9.97122801,9.91794227 C10.1085916,10.3283571 10.5525104,10.5498136 10.962926,10.4124503 C11.3736766,10.275422 11.5951335,9.83116885 11.4577699,9.420754" id="Fill-94" fill="#FFEC00"></path>
                        <g id="Group-98" transform="translate(9.930511, 8.885194)">
                            <mask id="mask-76" fill="white">
                                <use xlink:href="#path-75"></use>
                            </mask>
                            <g id="Clip-97"></g>
                        </g>
                        <g id="Group-104" transform="translate(10.453170, 8.885194)">
                            <mask id="mask-78" fill="white">
                                <use xlink:href="#path-77"></use>
                            </mask>
                            <g id="Clip-103"></g>
                            <path d="M0.220101924,0.0469959931 C0.0774667903,0.12934677 -0.019365787,0.2923237 0.00328656399,0.410891572 L0.00328656399,0.410891572 C0.0261878419,0.529028289 0.160359459,0.55834689 0.302745666,0.475564957 L0.302745666,0.475564957 C0.445131872,0.392783024 0.542213376,0.229806094 0.519312098,0.111669378 L0.519312098,0.111669378 C0.50537219,0.038804031 0.449114703,0 0.374934476,0 L0.374934476,0 C0.32838514,0 0.274865849,0.0150904565 0.220101924,0.0469959931" id="Fill-102" mask="url(#mask-78)"></path>
                        </g>
                        <path d="M10.4124529,20.9192407 C10.2750894,20.5084908 9.83117049,20.2870343 9.42075493,20.4243976 C9.01000434,20.561761 8.78854746,21.0060141 8.92591103,21.416429 C9.06327461,21.8268438 9.50719347,22.0483003 9.91760903,21.910937 C10.3283596,21.7739087 10.5498165,21.3296555 10.4124529,20.9192407" id="Fill-105" fill="#FFEC00"></path>
                        <g id="Group-115" transform="translate(8.362536, 19.861022)">
                            <mask id="mask-80" fill="white">
                                <use xlink:href="#path-79"></use>
                            </mask>
                            <g id="Clip-114"></g>
                            <path d="M0.219989663,0.0474180143 C0.0775537034,0.12975293 -0.0195617236,0.29269847 0.00334755659,0.410812433 L0.00334755659,0.410812433 C0.0262568368,0.528926396 0.160226323,0.55823935 0.302662283,0.475904435 L0.302662283,0.475904435 C0.445347256,0.393138446 0.542213669,0.230192906 0.519304389,0.112078943 L0.519304389,0.112078943 C0.505110596,0.03922763 0.449082465,0 0.374876318,0 L0.374876318,0 C0.328310716,0 0.274772724,0.0155186229 0.219989663,0.0474180143" id="Fill-113" mask="url(#mask-80)"></path>
                        </g>
                        <path d="M2.57257565,12.0338378 C2.43521207,11.6234592 1.99129321,11.4020223 1.58087765,11.5390385 C1.17012706,11.6767247 0.948670178,12.1206036 1.08603375,12.5309821 C1.22339733,12.9413607 1.66731619,13.1631326 2.07773175,13.0257814 C2.48848234,12.8884302 2.70993922,12.4445514 2.57257565,12.0338378" id="Fill-116" fill="#FFEC00"></path>
                        <g id="Group-126" transform="translate(1.567975, 10.975828)">
                            <mask id="mask-82" fill="white">
                                <use xlink:href="#path-81"></use>
                            </mask>
                            <g id="Clip-125"></g>
                            <path d="M0.21991282,0.0470045447 C0.0775266136,0.129801541 -0.0195548907,0.292376893 0.00334638728,0.410535106 L0.00334638728,0.410535106 C0.0262476652,0.529555788 0.160170356,0.558017255 0.302556562,0.475651494 L0.302556562,0.475651494 C0.445191695,0.393285732 0.542024272,0.230279146 0.519371921,0.111689698 L0.519371921,0.111689698 C0.505183086,0.038811092 0.449174526,0 0.374745373,0 L0.374745373,0 C0.328444963,0 0.274676745,0.0150932024 0.21991282,0.0470045447" id="Fill-124" mask="url(#mask-82)"></path>
                        </g>
                    </g>
                </g>
            </g>
        </g>
    </g>
</svg>