<?xml version="1.0" encoding="UTF-8"?>
<svg width="240px" height="240px" viewBox="0 0 240 240" version="1.1" xmlns="http://www.w3.org/2000/svg" xmlns:xlink="http://www.w3.org/1999/xlink">
    <title>illust_thermal</title>
    <defs>
        <path d="M8.15388519,4.71206461 C3.36756492,7.48386733 0.682268097,11.0046465 0.115699976,14.619785 L0.115699976,14.619785 C-0.610215429,19.2080031 2.08098315,23.9436575 8.15388519,27.4526418 L8.15388519,27.4526418 C19.048518,33.7275313 36.6947543,33.7275313 47.5775836,27.4526418 L47.5775836,27.4526418 C53.6681909,23.9436575 56.347586,19.2080031 55.6275723,14.619785 L55.6275723,14.619785 C55.0610042,11.0046465 52.3757074,7.48386733 47.5775836,4.71206461 L47.5775836,4.71206461 C42.1361689,1.57461984 35.0068534,0 27.8716362,0 L27.8716362,0 C20.7364189,0 13.6012016,1.57461984 8.15388519,4.71206461" id="path-1"></path>
        <path d="M7.52091415,4.68386276 C3.25828299,7.22549371 0.62839701,10.55382 0.0977548271,14.0334338 L0.0977548271,14.0334338 C-0.561174477,18.4449789 2.13285507,22.8202151 7.52091415,26.0456658 L7.52091415,26.0456658 C12.553268,29.0593139 19.2766794,30.7295285 26.4374333,30.7295285 L26.4374333,30.7295285 C33.6098496,30.7295285 40.333261,29.0593139 45.3656149,26.0456658 L45.3656149,26.0456658 C50.7420115,22.8202151 53.4535347,18.4449789 52.782943,14.0455368 L52.782943,14.0455368 C52.2523008,10.55382 49.6224148,7.22549371 45.3656149,4.68386276 L45.3656149,4.68386276 C40.333261,1.65811162 33.6040184,0 26.4374333,0 L26.4374333,0 C19.2766794,0 12.553268,1.65811162 7.52091415,4.68386276" id="path-3"></path>
        <path d="M61.6848123,7.90833078 C56.295238,11.0457148 49.2338434,12.6144068 42.1607578,12.6144068 L42.1607578,12.6144068 C35.0993633,12.6144068 28.0379688,11.0457148 22.6367034,7.90833078 L22.6367034,7.90833078 C18.7786567,5.64965018 16.311845,2.90149049 15.2187318,0 L15.2187318,0 C18.3051692,32.240749 10.9573439,60.8546348 0.172349742,88.271361 L0.172349742,88.271361 C-0.91491796,95.277399 3.14187659,102.495741 12.3485789,107.862319 L12.3485789,107.862319 C20.5907696,112.656855 31.3757637,115.057072 42.1607578,115.057072 L42.1607578,115.057072 C52.9515975,115.057072 63.7424372,112.656855 71.9846278,107.862319 L71.9846278,107.862319 C81.1913301,102.495741 85.2422792,95.277399 84.1550115,88.271361 L84.1550115,88.271361 C73.3641718,60.8546348 66.0280376,32.240749 69.1144749,0 L69.1144749,0 C68.0272072,2.90149049 65.55455,5.64965018 61.6848123,7.90833078" id="path-5"></path>
        <linearGradient x1="0.00298382835%" y1="50.0007673%" x2="100.000124%" y2="50.0007673%" id="linearGradient-7">
            <stop stop-color="#020F18" offset="0%"></stop>
            <stop stop-color="#F33A21" offset="100%"></stop>
        </linearGradient>
        <path d="M9.30379208,5.23562735 C3.84247792,8.31540814 0.778485393,12.227385 0.132016639,16.2442055 L0.132016639,16.2442055 C-0.696271451,21.3422256 2.37445513,26.6040639 9.30379208,30.5029353 L9.30379208,30.5029353 C21.7348475,37.4750348 41.8696555,37.4750348 54.2872428,30.5029353 L54.2872428,30.5029353 C61.2367819,26.6040639 64.2940404,21.3422256 63.4724864,16.2442055 L63.4724864,16.2442055 C62.8260176,12.227385 59.7620251,8.31540814 54.2872428,5.23562735 L54.2872428,5.23562735 C48.0784492,1.7495776 39.9437174,0 31.8022515,0 L31.8022515,0 C23.6607856,0 15.5193198,1.7495776 9.30379208,5.23562735" id="path-8"></path>
        <path d="M8.63888788,5.22849796 C3.74262236,8.0656674 0.721807376,11.7810083 0.11228595,15.6652284 L0.11228595,15.6652284 C-0.644592304,20.5897439 2.44990109,25.4737284 8.63888788,29.0742316 L8.63888788,29.0742316 C14.4192944,32.4383039 22.1421318,34.3027295 30.367322,34.3027295 L30.367322,34.3027295 C38.6059083,34.3027295 46.3287457,32.4383039 52.1091522,29.0742316 L52.1091522,29.0742316 C58.2847429,25.4737284 61.3993304,20.5897439 60.6290561,15.6787387 L60.6290561,15.6787387 C60.0195347,11.7810083 56.9987197,8.0656674 52.1091522,5.22849796 L52.1091522,5.22849796 C46.3287457,1.8509153 38.5992103,0 30.367322,0 L30.367322,0 C22.1421318,0 14.4192944,1.8509153 8.63888788,5.22849796" id="path-10"></path>
        <path d="M71.0943599,9.03809232 C64.8826472,12.6236741 56.7440907,14.4164649 48.5920599,14.4164649 L48.5920599,14.4164649 C40.4535035,14.4164649 32.314947,12.6236741 26.0897599,9.03809232 L26.0897599,9.03809232 C21.6431976,6.45674306 18.8000926,3.31598913 17.5402333,0 L17.5402333,0 C21.0974831,36.8465703 12.6288031,69.5481541 0.198640381,100.881555 L0.198640381,100.881555 C-1.05448172,108.888456 3.6211459,117.13799 14.2322604,123.271222 L14.2322604,123.271222 C23.7317344,128.750692 36.1618971,131.493797 48.5920599,131.493797 L48.5920599,131.493797 C61.0289598,131.493797 73.4658598,128.750692 82.9653338,123.271222 L82.9653338,123.271222 C93.5764483,117.13799 98.2453387,108.888456 96.9922166,100.881555 L96.9922166,100.881555 C84.5553166,69.5481541 76.1001111,36.8465703 79.6573609,0 L79.6573609,0 C78.4042388,3.31598913 75.5543966,6.45674306 71.0943599,9.03809232" id="path-12"></path>
        <linearGradient x1="0.00298382835%" y1="50.0007673%" x2="100.000124%" y2="50.0007673%" id="linearGradient-14">
            <stop stop-color="#020F18" offset="0%"></stop>
            <stop stop-color="#F33A21" offset="100%"></stop>
        </linearGradient>
    </defs>
    <g id="element" stroke="none" stroke-width="1" fill="none" fill-rule="evenodd">
        <g id="Artboard" transform="translate(-2419.000000, -814.000000)">
            <g id="illust_thermal" transform="translate(2419.000000, 814.000000)">
                <rect id="Rectangle-Copy-2" x="0" y="0" width="240" height="240"></rect>
                <g id="Group-17" transform="translate(48.000000, 31.000000)">
                    <g id="Group-11-Copy">
                        <g id="Group-12" transform="translate(13.399504, 0.000000)">
                            <mask id="mask-2" fill="white">
                                <use xlink:href="#path-1"></use>
                            </mask>
                            <g id="Clip-11"></g>
                            <path d="M8.15388519,4.71206461 C3.36756492,7.48386733 0.682268097,11.0046465 0.115699976,14.619785 L0.115699976,14.619785 C-0.610215429,19.2080031 2.08098315,23.9436575 8.15388519,27.4526418 L8.15388519,27.4526418 C19.048518,33.7275313 36.6947543,33.7275313 47.5775836,27.4526418 L47.5775836,27.4526418 C53.6681909,23.9436575 56.347586,19.2080031 55.6275723,14.619785 L55.6275723,14.619785 C55.0610042,11.0046465 52.3757074,7.48386733 47.5775836,4.71206461 L47.5775836,4.71206461 C42.1361689,1.57461984 35.0068534,0 27.8716362,0 L27.8716362,0 C20.7364189,0 13.6012016,1.57461984 8.15388519,4.71206461" id="Fill-10" fill="#020F18" mask="url(#mask-2)"></path>
                        </g>
                        <g id="Group-15" transform="translate(14.828784, 0.000000)">
                            <mask id="mask-4" fill="white">
                                <use xlink:href="#path-3"></use>
                            </mask>
                            <g id="Clip-14"></g>
                            <path d="M7.52091415,4.68386276 C3.25828299,7.22549371 0.62839701,10.55382 0.0977548271,14.0334338 L0.0977548271,14.0334338 C-0.561174477,18.4449789 2.13285507,22.8202151 7.52091415,26.0456658 L7.52091415,26.0456658 C12.553268,29.0593139 19.2766794,30.7295285 26.4374333,30.7295285 L26.4374333,30.7295285 C33.6098496,30.7295285 40.333261,29.0593139 45.3656149,26.0456658 L45.3656149,26.0456658 C50.7420115,22.8202151 53.4535347,18.4449789 52.782943,14.0455368 L52.782943,14.0455368 C52.2523008,10.55382 49.6224148,7.22549371 45.3656149,4.68386276 L45.3656149,4.68386276 C40.333261,1.65811162 33.6040184,0 26.4374333,0 L26.4374333,0 C19.2766794,0 12.553268,1.65811162 7.52091415,4.68386276" id="Fill-13" fill="#36191A" mask="url(#mask-4)"></path>
                        </g>
                        <g id="Group-18" transform="translate(-0.178660, 19.295285)">
                            <mask id="mask-6" fill="white">
                                <use xlink:href="#path-5"></use>
                            </mask>
                            <g id="Clip-17"></g>
                            <path d="M61.6848123,7.90833078 C56.295238,11.0457148 49.2338434,12.6144068 42.1607578,12.6144068 L42.1607578,12.6144068 C35.0993633,12.6144068 28.0379688,11.0457148 22.6367034,7.90833078 L22.6367034,7.90833078 C18.7786567,5.64965018 16.311845,2.90149049 15.2187318,0 L15.2187318,0 C18.3051692,32.240749 10.9573439,60.8546348 0.172349742,88.271361 L0.172349742,88.271361 C-0.91491796,95.277399 3.14187659,102.495741 12.3485789,107.862319 L12.3485789,107.862319 C20.5907696,112.656855 31.3757637,115.057072 42.1607578,115.057072 L42.1607578,115.057072 C52.9515975,115.057072 63.7424372,112.656855 71.9846278,107.862319 L71.9846278,107.862319 C81.1913301,102.495741 85.2422792,95.277399 84.1550115,88.271361 L84.1550115,88.271361 C73.3641718,60.8546348 66.0280376,32.240749 69.1144749,0 L69.1144749,0 C68.0272072,2.90149049 65.55455,5.64965018 61.6848123,7.90833078" id="Fill-16" fill="url(#linearGradient-7)" mask="url(#mask-6)"></path>
                        </g>
                    </g>
                    <g id="Group-11" transform="translate(47.076923, 23.538462)">
                        <g id="Group-12" transform="translate(16.347395, 0.044665)">
                            <mask id="mask-9" fill="white">
                                <use xlink:href="#path-8"></use>
                            </mask>
                            <g id="Clip-11"></g>
                            <path d="M9.30379208,5.23562735 C3.84247792,8.31540814 0.778485393,12.227385 0.132016639,16.2442055 L0.132016639,16.2442055 C-0.696271451,21.3422256 2.37445513,26.6040639 9.30379208,30.5029353 L9.30379208,30.5029353 C21.7348475,37.4750348 41.8696555,37.4750348 54.2872428,30.5029353 L54.2872428,30.5029353 C61.2367819,26.6040639 64.2940404,21.3422256 63.4724864,16.2442055 L63.4724864,16.2442055 C62.8260176,12.227385 59.7620251,8.31540814 54.2872428,5.23562735 L54.2872428,5.23562735 C48.0784492,1.7495776 39.9437174,0 31.8022515,0 L31.8022515,0 C23.6607856,0 15.5193198,1.7495776 9.30379208,5.23562735" id="Fill-10" fill="#020F18" mask="url(#mask-9)"></path>
                        </g>
                        <g id="Group-15" transform="translate(17.776675, 0.044665)">
                            <mask id="mask-11" fill="white">
                                <use xlink:href="#path-10"></use>
                            </mask>
                            <g id="Clip-14"></g>
                            <path d="M8.63888788,5.22849796 C3.74262236,8.0656674 0.721807376,11.7810083 0.11228595,15.6652284 L0.11228595,15.6652284 C-0.644592304,20.5897439 2.44990109,25.4737284 8.63888788,29.0742316 L8.63888788,29.0742316 C14.4192944,32.4383039 22.1421318,34.3027295 30.367322,34.3027295 L30.367322,34.3027295 C38.6059083,34.3027295 46.3287457,32.4383039 52.1091522,29.0742316 L52.1091522,29.0742316 C58.2847429,25.4737284 61.3993304,20.5897439 60.6290561,15.6787387 L60.6290561,15.6787387 C60.0195347,11.7810083 56.9987197,8.0656674 52.1091522,5.22849796 L52.1091522,5.22849796 C46.3287457,1.8509153 38.5992103,0 30.367322,0 L30.367322,0 C22.1421318,0 14.4192944,1.8509153 8.63888788,5.22849796" id="Fill-13" fill="#36191A" mask="url(#mask-11)"></path>
                        </g>
                        <g id="Group-18" transform="translate(-0.089330, 22.198511)">
                            <mask id="mask-13" fill="white">
                                <use xlink:href="#path-12"></use>
                            </mask>
                            <g id="Clip-17"></g>
                            <path d="M71.0943599,9.03809232 C64.8826472,12.6236741 56.7440907,14.4164649 48.5920599,14.4164649 L48.5920599,14.4164649 C40.4535035,14.4164649 32.314947,12.6236741 26.0897599,9.03809232 L26.0897599,9.03809232 C21.6431976,6.45674306 18.8000926,3.31598913 17.5402333,0 L17.5402333,0 C21.0974831,36.8465703 12.6288031,69.5481541 0.198640381,100.881555 L0.198640381,100.881555 C-1.05448172,108.888456 3.6211459,117.13799 14.2322604,123.271222 L14.2322604,123.271222 C23.7317344,128.750692 36.1618971,131.493797 48.5920599,131.493797 L48.5920599,131.493797 C61.0289598,131.493797 73.4658598,128.750692 82.9653338,123.271222 L82.9653338,123.271222 C93.5764483,117.13799 98.2453387,108.888456 96.9922166,100.881555 L96.9922166,100.881555 C84.5553166,69.5481541 76.1001111,36.8465703 79.6573609,0 L79.6573609,0 C78.4042388,3.31598913 75.5543966,6.45674306 71.0943599,9.03809232" id="Fill-16" fill="url(#linearGradient-14)" mask="url(#mask-13)"></path>
                        </g>
                    </g>
                </g>
            </g>
        </g>
    </g>
</svg>