<?xml version="1.0" encoding="UTF-8"?>
<svg width="64px" height="64px" viewBox="0 0 64 64" version="1.1" xmlns="http://www.w3.org/2000/svg" xmlns:xlink="http://www.w3.org/1999/xlink">
    <title>illust/result_mr</title>
    <g id="Page-5" stroke="none" stroke-width="1" fill="none" fill-rule="evenodd">
        <g id="ver5_chapter3" transform="translate(-371.000000, -3599.000000)" fill="#3DDB87">
            <g id="illust/result_mr" transform="translate(371.000000, 3599.000000)">
                <rect id="Rectangle" fill-opacity="0.05" x="0" y="0" width="64" height="64"></rect>
                <g id="Group" transform="translate(11.428571, 10.285714)">
                    <g id="Mask" transform="translate(21.142857, 21.142857) scale(1, -1) translate(-21.142857, -21.142857) ">
                        <circle id="Oval" cx="8.45714286" cy="14.8" r="2.11428571"></circle>
                        <circle id="Oval" cx="2.11428571" cy="14.8" r="2.11428571"></circle>
                        <circle id="Oval" cx="21.1428571" cy="8.45714286" r="2.11428571"></circle>
                        <circle id="Oval" cx="21.1428571" cy="2.11428571" r="2.11428571"></circle>
                        <circle id="Oval" cx="21.1428571" cy="14.8" r="2.11428571"></circle>
                        <circle id="Oval" cx="8.45714286" cy="8.45714286" r="2.11428571"></circle>
                        <circle id="Oval" cx="27.4857143" cy="8.45714286" r="2.11428571"></circle>
                        <circle id="Oval" cx="27.4857143" cy="2.11428571" r="2.11428571"></circle>
                        <circle id="Oval" cx="33.8285714" cy="14.8" r="2.11428571"></circle>
                        <circle id="Oval" cx="40.1714286" cy="14.8" r="2.11428571"></circle>
                        <circle id="Oval" cx="14.8" cy="14.8" r="2.11428571"></circle>
                        <circle id="Oval" cx="33.8285714" cy="8.45714286" r="2.11428571"></circle>
                        <circle id="Oval" cx="33.8285714" cy="21.1428571" r="2.11428571"></circle>
                        <circle id="Oval" cx="40.1714286" cy="21.1428571" r="2.11428571"></circle>
                        <circle id="Oval" cx="8.45714286" cy="27.4857143" r="2.11428571"></circle>
                        <circle id="Oval" cx="2.11428571" cy="27.4857143" r="2.11428571"></circle>
                        <circle id="Oval" cx="8.45714286" cy="33.8285714" r="2.11428571"></circle>
                        <circle id="Oval" cx="14.8" cy="27.4857143" r="2.11428571"></circle>
                        <circle id="Oval" cx="14.8" cy="33.8285714" r="2.11428571"></circle>
                        <circle id="Oval" cx="14.8" cy="40.1714286" r="2.11428571"></circle>
                        <circle id="Oval" cx="27.4857143" cy="27.4857143" r="2.11428571"></circle>
                        <circle id="Oval" cx="27.4857143" cy="33.8285714" r="2.11428571"></circle>
                        <circle id="Oval" cx="27.4857143" cy="40.1714286" r="2.11428571"></circle>
                        <circle id="Oval" cx="21.1428571" cy="27.4857143" r="2.11428571"></circle>
                        <circle id="Oval" cx="21.1428571" cy="33.8285714" r="2.11428571"></circle>
                        <circle id="Oval" cx="21.1428571" cy="40.1714286" r="2.11428571"></circle>
                        <circle id="Oval" cx="33.8285714" cy="27.4857143" r="2.11428571"></circle>
                        <circle id="Oval" cx="40.1714286" cy="27.4857143" r="2.11428571"></circle>
                        <circle id="Oval" cx="33.8285714" cy="33.8285714" r="2.11428571"></circle>
                        <circle id="Oval" cx="8.45714286" cy="21.1428571" r="2.11428571"></circle>
                        <circle id="Oval" cx="2.11428571" cy="21.1428571" r="2.11428571"></circle>
                        <circle id="Oval" cx="14.8" cy="8.45714286" r="2.11428571"></circle>
                        <circle id="Oval" cx="14.8" cy="2.11428571" r="2.11428571"></circle>
                        <circle id="Oval" cx="21.1428571" cy="21.1428571" r="2.11428571"></circle>
                        <circle id="Oval" cx="14.8" cy="21.1428571" r="2.11428571"></circle>
                        <circle id="Oval" cx="27.4857143" cy="14.8" r="2.11428571"></circle>
                        <circle id="Oval" cx="27.4857143" cy="21.1428571" r="2.11428571"></circle>
                    </g>
                </g>
            </g>
        </g>
    </g>
</svg>