<?xml version="1.0" encoding="UTF-8"?>
<svg width="64px" height="64px" viewBox="0 0 64 64" version="1.1" xmlns="http://www.w3.org/2000/svg" xmlns:xlink="http://www.w3.org/1999/xlink">
    <title>illust/result_tr</title>
    <defs>
        <radialGradient cx="50%" cy="50%" fx="50%" fy="50%" r="62.0689655%" gradientTransform="translate(0.500000,0.500000),scale(1.000000,0.805556),rotate(90.000000),translate(-0.500000,-0.500000)" id="radialGradient-1">
            <stop stop-color="#FA4D56" offset="0%"></stop>
            <stop stop-color="#CE1A25" offset="100%"></stop>
        </radialGradient>
    </defs>
    <g id="Page-5" stroke="none" stroke-width="1" fill="none" fill-rule="evenodd">
        <g id="ver5_chapter3" transform="translate(-1100.000000, -3606.000000)">
            <g id="illust/result_tr" transform="translate(1100.000000, 3606.000000)">
                <rect id="Rectangle-Copy-2" fill-opacity="0.1" fill="#D5222D" x="0" y="0" width="64" height="64"></rect>
                <g id="Group" transform="translate(17.142857, 13.714286)">
                    <path d="M26.244869,16.4004681 C25.7685276,15.8004509 25.1886338,15.2804361 24.650161,14.7604213 C23.2625579,13.560387 21.6885604,12.7003625 20.3630888,11.4403265 C17.2772253,8.52024316 16.593779,3.7001056 18.5612759,0 C16.593779,0.460013128 14.8748081,1.50004281 13.4043631,2.64007535 C8.04034526,6.80019407 5.92787493,14.1404036 8.45455513,20.4405834 C8.5373971,20.6405891 8.62023907,20.8405948 8.62023907,21.1006022 C8.62023907,21.5406148 8.30958167,21.9406262 7.89537181,22.1006307 C7.41903046,22.3006364 6.92197861,22.180633 6.52847924,21.8606239 C6.40421628,21.760621 6.32137431,21.6606182 6.23853233,21.5206142 C3.89824658,18.6605326 3.52545769,14.5604155 5.09945519,11.2803219 C1.64080279,14.0003996 -0.243852108,18.6005308 0.0253843069,22.9406547 C0.149647267,23.9406832 0.273910228,24.9407118 0.625988616,25.9407403 C0.915935524,27.1407746 1.47511885,28.3408088 2.09643365,29.4008391 C4.33316694,32.8609378 8.20602921,35.3410086 12.3688384,35.8410229 C16.800884,36.3810383 21.543587,35.601016 24.9401079,32.6409315 C28.7301282,29.3208368 30.0555998,24.000685 28.1088134,19.4405548 L27.839577,18.92054 C27.4046566,18.0005137 26.244869,16.4004681 26.244869,16.4004681" id="Shape" fill="url(#radialGradient-1)"></path>
                    <path d="M19.2823467,28.0509358 C18.7024953,28.5164481 17.7498822,29.020753 17.0043589,29.2147165 C14.6849531,29.9905702 12.3655474,28.904375 10.9987547,27.6242162 C13.4631233,27.0811186 14.9334609,25.3742403 15.3683495,23.6479656 C15.7204021,22.0962581 15.0577148,20.8160994 14.788498,19.3225809 C14.5399903,17.8872514 14.5814082,16.6652817 15.1405507,15.3269339 C15.5340213,16.063995 15.9482009,16.8010561 16.4452165,17.3829464 C18.0398079,19.3225809 20.5455945,20.17602 21.084028,22.8139228 C21.1668639,23.0854717 21.2082819,23.3570205 21.2082819,23.6479656 C21.2704088,25.2384659 20.5248855,26.9841369 19.2823467,28.0509358 L19.2823467,28.0509358 Z" id="Path" fill="#FA4D56"></path>
                </g>
            </g>
        </g>
    </g>
</svg>