<?xml version="1.0" encoding="UTF-8"?>
<svg width="65px" height="64px" viewBox="0 0 65 64" version="1.1" xmlns="http://www.w3.org/2000/svg" xmlns:xlink="http://www.w3.org/1999/xlink">
    <title>illust/result_cr</title>
    <g id="Page-5" stroke="none" stroke-width="1" fill="none" fill-rule="evenodd">
        <g id="ver5_chapter3" transform="translate(-735.000000, -3603.000000)">
            <g id="illust/result_cr" transform="translate(735.500000, 3603.000000)">
                <rect id="Rectangle-Copy" fill-opacity="0.1" fill="#6464FF" x="0" y="0" width="64" height="64"></rect>
                <g id="Group-7" transform="translate(6.857143, 13.714286)">
                    <path d="M44.8085332,13.0583484 C44.9899516,13.1464624 45.1905533,13.2 45.4054054,13.2 C46.1732823,13.2 46.7953668,12.5670291 46.7953668,11.7857143 C46.7953668,11.0043995 46.1732823,10.3714286 45.4054054,10.3714286 C44.6375285,10.3714286 44.015444,11.0043995 44.015444,11.7857143 C44.015444,12.0132492 44.0729937,12.2257267 44.1672655,12.4164545 C44.3053847,12.6964117 44.5301024,12.9228312 44.8085332,13.0583484" id="Fill-237" fill="#DEBA27"></path>
                    <path d="M24.3243243,15.5571429 C23.8753269,15.5571429 23.4475028,15.6464942 23.0533068,15.8042848 C22.8932619,15.8689219 22.7394445,15.9443319 22.5918545,16.0311485 C22.4430191,16.117965 22.3016565,16.2155544 22.1677668,16.3232829 C21.7449246,16.6648458 21.4036617,17.1046318 21.1738697,17.6084211 C21.0318844,17.9195665 20.9341138,18.2541587 20.8861627,18.6064944 C20.8649894,18.7655525 20.8494208,18.9271453 20.8494208,19.0925403 C20.8494208,19.3878433 20.8892764,19.6730071 20.9559098,19.9467643 C20.9976336,20.1172289 21.0486985,20.2838913 21.1134637,20.4429493 C21.1794744,20.6051758 21.2585627,20.7591643 21.3463694,20.9074495 C21.9535434,21.9372076 23.0582887,22.6285714 24.3243243,22.6285714 C25.8618757,22.6285714 27.1640304,21.6114872 27.6217462,20.2034117 C27.7269897,19.8795924 27.7861502,19.5354947 27.7948686,19.1780894 C27.7954913,19.1495731 27.7992278,19.1216904 27.7992278,19.0925403 C27.7992278,17.1401188 26.2436169,15.5571429 24.3243243,15.5571429" id="Fill-238" fill="#DEBA27"></path>
                    <path d="M39.6444694,20.8063143 C39.6444694,21.0687494 39.5998214,21.3184567 39.5361236,21.5602849 C39.4027748,22.0669725 39.1503646,22.5245671 38.7955617,22.884582 C38.5645825,23.1191372 38.290146,23.3064176 37.9924925,23.450666 C37.6174491,23.6324917 37.2031154,23.7427993 36.7608023,23.7427993 C35.170142,23.7427993 33.8765399,22.4257752 33.8765399,20.8063143 C33.8765399,20.8044961 33.8771353,20.8032839 33.8771353,20.8014656 C33.8777306,20.4566029 33.9473815,20.1305288 34.055132,19.8232434 C34.2843252,19.1723074 34.7290196,18.6322851 35.3064673,18.2856041 C35.5856663,18.1183244 35.8892729,17.9904404 36.2172871,17.9268014 C36.3940932,17.8922545 36.5750666,17.8704354 36.7608023,17.8704354 C37.3698014,17.8704354 37.9335571,18.0662011 38.3996825,18.3959117 C38.6693566,18.5862226 38.9021216,18.8250203 39.0938105,19.0953345 C39.3932499,19.5171701 39.5771997,20.0220395 39.6206572,20.5693348 C39.6272055,20.648732 39.6444694,20.7250988 39.6444694,20.8063143 Z M46.089263,22.0039396 C46.089263,21.7112002 46.1481984,21.4330069 46.2494006,21.1772387 C46.5726523,20.3614474 47.3548857,19.7826356 48.2704678,19.7826356 C49.4735833,19.7826356 50.4516726,20.7790405 50.4516726,22.0039396 C50.4516726,23.2282326 49.4735833,24.2246374 48.2704678,24.2246374 C47.1215253,24.2246374 46.1868933,23.3118724 46.1053363,22.162734 C46.1011691,22.1093985 46.089263,22.0584873 46.089263,22.0039396 Z M49.3557125,32.5601333 C49.3557125,34.8535614 47.5227622,36.7196992 45.2701205,36.7196992 C43.0174789,36.7196992 41.1845286,34.8535614 41.1845286,32.5601333 C41.1845286,31.4509966 41.6155309,30.4442883 42.3126354,29.6981969 C42.5382567,29.4563687 42.7912622,29.2430266 43.06808,29.061807 C43.7038678,28.64482 44.4587171,28.3999614 45.2701205,28.3999614 C47.5227622,28.3999614 49.3557125,30.2660992 49.3557125,32.5601333 Z M8.33429795,26.9295976 C8.33429795,27.929639 7.95211086,28.8702839 7.25738759,29.5775859 C6.56206902,30.2854939 5.63815256,30.6746009 4.65589602,30.6746009 C3.67304417,30.6746009 2.74912771,30.2854939 2.05440444,29.5775859 C1.35908587,28.8702839 0.976898781,27.929639 0.976898781,26.9295976 C0.976898781,25.9289502 1.35908587,24.9883053 2.05440444,24.2810033 C2.74912771,23.5730953 3.67304417,23.1839883 4.65589602,23.1839883 C5.63815256,23.1839883 6.56206902,23.5730953 7.25738759,24.2810033 C7.48658079,24.5143463 7.67767433,24.7749632 7.8366213,25.0531565 C7.91877367,25.1974049 7.99497296,25.3446837 8.0574802,25.4980233 C8.11939213,25.651363 8.16761199,25.8107635 8.20928348,25.9719823 C8.28905462,26.281086 8.33429795,26.6010992 8.33429795,26.9295976 Z M13.7694508,4.16138408 C13.7694508,2.41525132 15.1648504,0.994586553 16.8799299,0.994586553 C18.5956047,0.994586553 19.9904089,2.41525132 19.9904089,4.16138408 C19.9904089,5.36203975 19.3230698,6.39662796 18.3527194,6.93361985 C18.2086551,7.01301707 18.0604237,7.08150475 17.9044532,7.13726463 C17.7466969,7.19423668 17.585964,7.24272353 17.4174921,7.27242173 C17.2418765,7.30393818 17.0638797,7.32818161 16.8799299,7.32818161 C15.1648504,7.32818161 13.7694508,5.90751684 13.7694508,4.16138408 Z M28.571164,19.8638511 C28.0419361,21.7015028 26.3738859,23.0488312 24.4004432,23.0488312 C22.7639442,23.0488312 21.3369934,22.1233384 20.5946455,20.7608579 C20.516065,20.6160034 20.4452235,20.4663003 20.3821209,20.3123545 C20.320209,20.1596209 20.267822,20.0020387 20.2225787,19.841426 C20.1130422,19.4535311 20.0511303,19.0450294 20.0511303,18.6219816 C20.0511303,18.3613648 20.0779191,18.1074149 20.1201859,17.8595259 C20.1773353,17.5273909 20.2666314,17.2061655 20.3916459,16.9037288 C20.698229,16.1661226 21.1982868,15.5333691 21.8239545,15.0630467 C21.954922,14.9642547 22.090652,14.8727358 22.2323351,14.789096 C22.3728275,14.7060622 22.5174871,14.6296954 22.6680998,14.563026 C23.1991137,14.3266526 23.7843004,14.1939199 24.4004432,14.1939199 C26.7977444,14.1939199 28.7485655,16.1800625 28.7485655,18.6219816 C28.7485655,18.709864 28.7408265,18.7965343 28.7354687,18.8832045 C28.7164189,19.2214003 28.6616507,19.5498988 28.571164,19.8638511 Z M13.8206472,15.9745995 C13.3961933,16.9994903 12.3996494,17.7213383 11.2399914,17.7213383 C9.69576505,17.7213383 8.4402626,16.4431037 8.4402626,14.8715236 C8.4402626,13.2993374 9.69576505,12.0211028 11.2399914,12.0211028 C12.7836224,12.0211028 14.0391249,13.2993374 14.0391249,14.8715236 C14.0391249,14.9151618 14.0284094,14.9557695 14.0266235,14.9994077 C14.0111455,15.3424522 13.9450664,15.6727688 13.8206472,15.9745995 Z M31.5518661,11.9101891 C31.5518661,10.8792374 32.375771,10.0404149 33.3883882,10.0404149 C34.4010054,10.0404149 35.2249103,10.8792374 35.2249103,11.9101891 C35.2249103,12.5005166 34.9498785,13.020538 34.5295917,13.3635825 C34.2753956,13.5708638 33.9688125,13.7090513 33.6306782,13.7551138 C33.550907,13.7660234 33.4717312,13.7799634 33.3883882,13.7799634 C32.375771,13.7799634 31.5518661,12.9411408 31.5518661,11.9101891 Z M48.3460718,11.6889679 C48.3460718,13.260548 47.0905693,14.5393887 45.5469383,14.5393887 C44.9605609,14.5393887 44.4170456,14.3533204 43.9669935,14.0387619 C43.6961289,13.8496632 43.4633638,13.6108655 43.2722703,13.338733 C42.9448514,12.8726531 42.7472095,12.305357 42.7472095,11.6889679 C42.7472095,10.1173878 44.002712,8.83854705 45.5469383,8.83854705 C47.0905693,8.83854705 48.3460718,10.1173878 48.3460718,11.6889679 Z M45.1195079,22.0724272 C45.1564169,23.8124991 46.5524118,25.2186178 48.2704678,25.2186178 C50.0117408,25.2186178 51.4285714,23.776134 51.4285714,22.0039396 C51.4285714,20.2305329 50.0117408,18.7880491 48.2704678,18.7880491 C46.8447076,18.7880491 45.6499264,19.7620287 45.259405,21.0863259 L40.6136292,20.6602477 C40.5826733,19.799606 40.2802573,19.0092704 39.7879384,18.3753048 L43.2770327,14.7545491 C43.9098441,15.2412359 44.6944587,15.5333691 45.5469383,15.5333691 C47.6287269,15.5333691 49.3229706,13.8090555 49.3229706,11.6889679 C49.3229706,9.56948634 47.6287269,7.84456658 45.5469383,7.84456658 C43.4645544,7.84456658 41.7703107,9.56948634 41.7703107,11.6889679 C41.7703107,12.5829442 42.0745126,13.4047963 42.5793329,14.0587628 L39.0896433,17.6795184 C38.441354,17.1776795 37.6359036,16.8764549 36.7608023,16.8764549 C36.4536239,16.8764549 36.1559704,16.9170627 35.8696278,16.9861565 L34.8855853,14.3260465 C35.6737718,13.8175407 36.2018091,12.928413 36.2018091,11.9101891 C36.2018091,10.331336 34.9397582,9.04643443 33.3883882,9.04643443 C31.8376135,9.04643443 30.5755626,10.331336 30.5755626,11.9101891 C30.5755626,13.4896483 31.8376135,14.7745499 33.3883882,14.7745499 C33.5925785,14.7745499 33.7908157,14.7497004 33.9830999,14.7072744 L34.9552362,17.3352618 C34.0610851,17.8189181 33.3746961,18.6492555 33.0710896,19.6492968 L29.7040332,19.0541207 C29.7147487,18.9110845 29.7254643,18.7680483 29.7254643,18.6219816 C29.7254643,15.6321611 27.3364973,13.1999394 24.4004432,13.1999394 C23.6068989,13.1999394 22.8568121,13.3817651 22.1799481,13.6999601 L18.8468242,7.80698927 C20.1094703,7.09786906 20.9673077,5.72993374 20.9673077,4.16138408 C20.9673077,1.8667438 19.1337622,0 16.8799299,0 C14.6266929,0 12.792552,1.8667438 12.792552,4.16138408 C12.792552,6.45541827 14.6266929,8.32216207 16.8799299,8.32216207 C17.2430672,8.32216207 17.593703,8.26943262 17.9294561,8.17791369 L21.3334215,14.1963442 C20.4964199,14.7993994 19.8386057,15.6406463 19.4540373,16.6231111 L14.9928067,15.2885105 C15.0070941,15.1515352 15.0160237,15.0121355 15.0160237,14.8715236 C15.0160237,12.751436 13.32178,11.0265162 11.2399914,11.0265162 C9.15760753,11.0265162 7.46336382,12.751436 7.46336382,14.8715236 C7.46336382,16.9910051 9.15760753,18.7159249 11.2399914,18.7159249 C12.8425578,18.7159249 14.2117639,17.6922462 14.7588511,16.2552172 L19.176029,17.5764839 C19.1105452,17.9152858 19.0742315,18.2643911 19.0742315,18.6219816 C19.0742315,19.1795804 19.1575745,19.7177845 19.3123543,20.2244721 L8.74625039,24.6701103 C8.53729764,24.278579 8.27298133,23.9088668 7.94794371,23.577944 C7.06807997,22.6827555 5.89889703,22.1894018 4.65589602,22.1894018 C3.4122997,22.1894018 2.24311676,22.6827555 1.36384833,23.577944 C0.484579895,24.4731325 0,25.6634847 0,26.9295976 C0,28.1951045 0.484579895,29.3854567 1.36384833,30.2806452 C2.24311676,31.1758337 3.4122997,31.6691874 4.65589602,31.6691874 C5.89889703,31.6691874 7.06807997,31.1758337 7.94794371,30.2806452 C9.19332595,29.012714 9.58384734,27.1993058 9.12010319,25.5889362 L19.6885883,21.1420858 C20.5815488,22.8645812 22.3573496,24.0434178 24.4004432,24.0434178 C26.8560845,24.0434178 28.9229904,22.339711 29.5355613,20.0341612 L32.9091661,20.6305495 C32.9061895,20.6893398 32.9002365,20.7469179 32.9002365,20.8063143 C32.9002365,22.9736766 34.6319845,24.7367798 36.7608023,24.7367798 C37.4126635,24.7367798 38.0258297,24.5701062 38.5651778,24.278579 L41.7411407,28.8714961 C40.7969838,29.8085045 40.2076299,31.1146191 40.2076299,32.5601333 C40.2076299,35.402069 42.478726,37.7142857 45.2701205,37.7142857 C48.0621104,37.7142857 50.3326112,35.402069 50.3326112,32.5601333 C50.3326112,29.7175916 48.0621104,27.405981 45.2701205,27.405981 C44.2497644,27.405981 43.300845,27.7169029 42.5049196,28.2478339 L39.3616986,23.7027976 C39.9379558,23.1658057 40.355266,22.4554734 40.5290956,21.6511977 L45.1195079,22.0724272 L45.1195079,22.0724272 Z" id="Fill-239" fill="#6464FF"></path>
                    <path d="M16.6795367,0.942857143 C14.8912527,0.942857143 13.4362934,2.4232782 13.4362934,4.24285714 C13.4362934,6.06243609 14.8912527,7.54285714 16.6795367,7.54285714 C16.8713381,7.54285714 17.0569323,7.51759398 17.2400436,7.48475188 C17.4157063,7.45380451 17.5832998,7.4032782 17.7477896,7.34390977 C17.9104173,7.28580451 18.0649757,7.21443609 18.2151891,7.13169925 C19.2269568,6.5721203 19.9227799,5.49401504 19.9227799,4.24285714 C19.9227799,2.4232782 18.4684414,0.942857143 16.6795367,0.942857143" id="Fill-240" fill="#DEBA27"></path>
                    <path d="M8.078286,25.2845387 C8.0192416,25.1397801 7.94726367,25.0007432 7.86966246,24.8645672 C7.71952098,24.6019419 7.53901382,24.3559095 7.32251769,24.1356247 C6.66571904,23.4673321 5.79298659,23.1 4.86514603,23.1 C3.93674314,23.1 3.06401069,23.4673321 2.40777437,24.1356247 C1.75097572,24.8033452 1.38996139,25.6913504 1.38996139,26.6360004 C1.38996139,27.5800781 1.75097572,28.4680834 2.40777437,29.1358039 C3.06401069,29.8040965 3.93674314,30.1714286 4.86514603,30.1714286 C5.79298659,30.1714286 6.66571904,29.8040965 7.32251769,29.1358039 C7.97875401,28.4680834 8.33976834,27.5800781 8.33976834,26.6360004 C8.33976834,26.3258851 8.29703144,26.0237802 8.22167954,25.7319744 C8.18231661,25.5797776 8.13676807,25.4292973 8.078286,25.2845387" id="Fill-241" fill="#DEBA27"></path>
                    <path d="M11.1196911,13.2 C10.3518142,13.2 9.72972973,13.8334037 9.72972973,14.6145645 C9.72972973,15.3951677 10.3518142,16.0285714 11.1196911,16.0285714 C11.6480518,16.0285714 12.1024201,15.7246938 12.3375516,15.2830954 C12.4438815,15.0829264 12.5096525,14.8576666 12.5096525,14.6145645 C12.5096525,14.5320436 12.4992388,14.4523106 12.4860846,14.3736927 C12.3731776,13.7079496 11.8064504,13.2 11.1196911,13.2" id="Fill-242" fill="#DEBA27"></path>
                    <path d="M48.4169884,19.8 C47.5418135,19.8 46.7941023,20.3528624 46.4851166,21.13208 C46.3883807,21.3763815 46.3320463,21.6421028 46.3320463,21.921718 C46.3320463,21.9738202 46.343427,22.022449 46.3474103,22.0733934 C46.425368,23.1710134 47.318752,24.0428571 48.4169884,24.0428571 C49.567007,24.0428571 50.5019305,23.0911233 50.5019305,21.921718 C50.5019305,20.7517338 49.567007,19.8 48.4169884,19.8" id="Fill-243" fill="#DEBA27"></path>
                    <path d="M37.8404565,20.1119625 C37.7023373,19.8320605 37.4776196,19.6062431 37.1991888,19.4707527 C37.0177704,19.3820985 36.8171687,19.3285714 36.6023166,19.3285714 C36.5880662,19.3285714 36.574912,19.3324744 36.5606616,19.333032 C36.2405759,19.3425108 35.9511833,19.4640618 35.7204365,19.6580975 C35.586154,19.7707274 35.4748913,19.9078905 35.389937,20.0640112 C35.2803186,20.2664104 35.2123552,20.4955732 35.2123552,20.7425784 C35.2123552,20.818966 35.222769,20.8925657 35.2342789,20.9656078 C35.3400607,21.6397145 35.9095283,22.1571429 36.6023166,22.1571429 C36.7371472,22.1571429 36.8648527,22.1314945 36.9881734,22.0946946 C37.2885278,22.0060404 37.5461311,21.8209259 37.7253572,21.5700177 C37.7812626,21.4913998 37.8305908,21.4077638 37.8700535,21.3179944 C37.9473344,21.1423587 37.992278,20.9483231 37.992278,20.7425784 C37.992278,20.626603 37.974739,20.5150883 37.9484306,20.4063614 C37.9237665,20.3032103 37.8864962,20.2050773 37.8404565,20.1119625" id="Fill-244" fill="#DEBA27"></path>
                </g>
            </g>
        </g>
    </g>
</svg>