<?xml version="1.0" encoding="UTF-8"?>
<svg width="180px" height="48px" viewBox="0 0 180 48" version="1.1" xmlns="http://www.w3.org/2000/svg" xmlns:xlink="http://www.w3.org/1999/xlink">
    <title>logo_white</title>
    <g id="Page-5" stroke="none" stroke-width="1" fill="none" fill-rule="evenodd">
        <g id="ver5_chapter3" transform="translate(-690.000000, -11430.000000)" fill="#FFFFFF">
            <g id="logo_white" transform="translate(690.000000, 11430.000000)">
                <path d="M4.69021139,31.1146102 C8.86922964,35.0410911 15.9946061,36.240108 21.5866737,36.240108 C30.8165916,36.240108 36.8896973,35.1612925 40.4974828,33.2728408 L40.4974828,33.2728408 L43.5641005,37.5290513 C39.6556662,44.7231531 31.5381488,47.6307692 24.232383,47.6307692 C13.1384425,47.6307692 5.74248217,42.3553943 2.28502103,34.4119069 L2.28502103,34.4119069 Z M42.1209563,19.6639083 C44.5562115,21.6422863 45.939196,24.310099 45.939196,27.2476906 L45.939196,27.2476906 L45.9342111,27.779206 C45.8621265,31.6476149 45.0018959,34.8613884 43.5640103,37.4992257 L43.5640103,37.4992257 L40.4973926,33.2729907 C43.3836211,31.7439443 44.7064758,29.7056154 44.7666055,27.2476306 L44.7666055,27.2476306 L44.767509,27.0207437 C44.7304534,24.1632372 42.8856835,21.9704787 39.9562849,21.9120651 L39.9562849,21.9120651 Z M3.27707186,10.7910628 L4.99076999,12.6798143 C2.55551475,15.1974502 1.1725303,18.7645256 1.1725303,22.6913062 C1.1725303,26.348308 2.55551475,29.0763713 4.6901212,31.084425 L4.6901212,31.084425 L2.28493084,34.3817217 C0.751621987,30.9345479 0,26.9780916 0,22.6913062 L0,22.6913062 L0,22.6613308 L0.00700506881,22.1593257 C0.103813788,18.1461283 1.29048083,14.2073979 3.27707186,10.7910628 L3.27707186,10.7910628 Z M30.8767214,16.0068466 C35.5969075,16.0967728 39.4752769,17.4756423 42.1209863,19.6338729 L42.1209863,19.6338729 L39.956315,21.8823295 L39.8661204,21.8823295 C34.2439879,21.8823295 30.5159429,32.1036494 17.9488232,32.1036494 C11.3345498,32.1036494 6.10326073,27.6373112 6.10326073,20.6230619 C6.10326073,20.1434551 6.16339049,19.6938237 6.25358512,19.2441924 L6.25358512,19.2441924 L7.33592078,19.4240449 C7.30585591,19.6338729 7.30585591,19.8437009 7.30585591,20.0535288 C7.30585591,22.1518085 8.80909988,24.3100391 10.763317,24.3100391 C15.2129192,24.3100391 20.4742731,16.2166745 30.2152941,16.036822 L30.2152941,16.036822 L30.2152941,16.0068466 Z M21.1657052,0 C25.946021,0 29.7642607,1.82850088 33.1014624,3.7169526 C36.438664,5.54545348 38.7235948,7.43390521 40.8882661,7.43390521 C43.2032619,7.43390521 44.4659868,5.09582212 44.7967005,3.14741954 L44.7967005,3.14741954 L45.9692308,3.32727209 C44.91696,10.7012264 40.5876173,14.4781299 32.8308784,14.4781299 C26.3368645,14.4781299 21.2859647,8.99262727 14.0403288,8.99262727 C10.3122837,8.99262727 7.21560114,10.4014722 5.02086494,12.6796044 L5.02086494,12.6796044 L3.30716681,10.7911527 C6.9750821,4.49631363 13.4690961,0 21.1657052,0 Z" id="Combined-Shape"></path>
                <path d="M84.7185603,34.7438327 C89.3483416,34.7438327 93.0461538,32.5464032 93.0461538,27.5576444 C93.0461538,23.9051602 91.0318984,22.1828506 85.9812279,20.341761 C83.0951306,19.2430462 82.4337332,18.6788414 82.4337332,17.5207366 C82.4337332,16.4517169 83.2755116,15.739037 85.0191955,15.739037 C86.7929428,15.739037 88.9875794,16.3923269 91.0619619,17.6098216 L91.9338038,12.8289277 C89.9195483,11.8489929 87.9654199,11.284788 84.9290049,11.284788 C80.4796048,11.284788 76.9922371,13.6603875 76.9922371,18.0849415 C76.9922371,21.8859006 79.0064926,23.3706503 83.6663373,25.1523499 C86.9432604,26.3698446 87.6046577,26.9934395 87.6046577,28.2703242 C87.6046577,29.6362939 86.4622442,30.3192787 84.8087509,30.3192787 C82.4938603,30.3192787 79.8182075,29.4581239 77.4431898,28.1812392 L76.6014114,33.0512181 C78.9764291,34.0608479 81.5919548,34.7438327 84.7185603,34.7438327 M65.1772759,34.8923077 C57.8117149,34.8923077 53.7230769,30.1114138 53.7230769,23.0143104 C53.7230769,15.887512 58.1424135,11.0769231 65.29753,11.0769231 C68.1535639,11.0769231 70.558645,11.7302129 72.3925194,12.7695377 L71.6409315,17.7286016 C69.8972477,16.6298868 67.8228652,15.768732 65.4478476,15.768732 C61.4494001,15.768732 59.4952717,18.7085364 59.4952717,22.9846154 C59.4952717,27.3200844 61.5095272,30.3192787 65.5079746,30.3192787 C66.8007057,30.3192787 67.7026112,30.0817188 68.6345801,29.5769039 L68.6345801,25.4789948 L64.6060692,25.4789948 L63.9446718,21.2920008 L73.6852505,21.2920008 L73.6852505,32.4573182 C71.2501059,34.0311529 68.394072,34.8923077 65.1772759,34.8923077" id="Fill-15"></path>
                <path d="M180,34.9026022 L174.472803,26.8097226 L179.699609,19.1094081 L177.326519,19.1094081 L173.301278,25.1488705 L169.095802,18.8376323 L166.902947,19.2905919 L172.129752,26.9003146 L166.572516,35.1139834 L168.945606,35.1139834 L173.241199,28.5309694 L177.807145,35.3555619 L180,34.9026022 Z M165.491108,26.749328 C165.491108,22.3103231 163.418409,18.7470403 159.062738,18.7470403 C155.157653,18.7470403 152.21382,21.9177581 152.21382,27.0513011 C152.21382,32.5472119 155.187692,35.3857592 159.363129,35.3857592 C161.826336,35.3857592 163.868996,34.4798399 165.43103,33.1209608 L165.1006,31.0977409 C163.448449,32.5170146 161.616063,33.4531313 159.483286,33.4531313 C156.29914,33.4531313 154.496793,31.1279382 154.406675,27.2022877 L165.461069,27.2022877 L165.461069,26.749328 L165.491108,26.749328 Z M159.062738,20.558879 C161.616063,20.558879 162.967823,22.6122963 163.178096,25.4810409 L154.496793,25.4810409 C154.977419,22.4009151 156.599531,20.558879 159.062738,20.558879 L159.062738,20.558879 Z M148.458931,35.3555619 C149.390143,35.3555619 150.201199,35.2347727 150.681825,35.0837861 L150.351395,33.2115528 C149.960887,33.2719474 149.390143,33.3927366 148.879478,33.3927366 C147.167249,33.3927366 146.536428,32.6680011 146.536428,31.0675436 L146.536428,21.0118387 L150.501591,21.0118387 L150.201199,19.1094081 L146.536428,19.1094081 L146.536428,13.1907349 L144.343572,13.5531027 L144.343572,19.0792108 L141.910404,19.0792108 L141.910404,20.9816414 L144.343572,20.9816414 L144.343572,31.4299114 C144.313533,34.3590506 145.965684,35.3555619 148.458931,35.3555619 L148.458931,35.3555619 Z M138.846415,35.0837861 L138.846415,11.0769231 L136.653559,11.4694881 L136.653559,35.0837861 L138.846415,35.0837861 Z M132.117653,35.0837861 L132.117653,23.6993995 C132.117653,20.4380898 130.315306,18.7772376 126.770691,18.7772376 C124.517757,18.7772376 122.715411,19.3509866 120.852986,20.166314 L121.153377,22.1593366 C122.895645,21.3138118 124.75807,20.7400629 126.620495,20.7400629 C128.633116,20.7400629 129.924798,21.6459823 129.924798,23.8201887 L129.924798,24.8770947 C122.74545,25.5716328 119.711499,27.3230769 119.711499,31.0977409 C119.711499,33.9362882 121.694081,35.4461538 124.42764,35.4461538 C126.710613,35.4461538 128.573038,34.3590506 130.044954,32.9699743 L130.405424,35.0837861 L132.117653,35.0837861 Z M129.924798,31.1279382 C128.392803,32.5774092 126.500339,33.5135259 124.78811,33.5135259 C123.105919,33.5135259 121.934394,32.6378038 121.934394,30.916557 C121.934394,28.7423506 123.676662,27.232485 129.924798,26.5983414 L129.924798,31.1279382 Z M110.369335,35.4461538 C104.301434,35.4461538 100.246154,30.7655705 100.246154,23.8201887 C100.246154,16.9050043 104.391551,12.133829 110.54957,12.133829 C113.072855,12.133829 115.145554,12.8887618 116.827744,14.066457 L116.467275,16.3614527 C114.725007,15.0931656 112.772464,14.1872462 110.489492,14.1872462 C105.563077,14.1872462 102.529126,18.1128968 102.529126,23.7899914 C102.529126,29.557678 105.593116,33.4229339 110.459452,33.4229339 C112.862581,33.4229339 115.025398,32.4868173 116.827744,31.0675436 L117.158175,33.2115528 C115.475984,34.4798399 113.012777,35.4461538 110.369335,35.4461538 L110.369335,35.4461538 Z" id="Fill-17"></path>
            </g>
        </g>
    </g>
</svg>