<svg xmlns="http://www.w3.org/2000/svg" xmlns:xlink="http://www.w3.org/1999/xlink" viewBox="0 0 146.94 130.5"><defs><style>.cls-1{fill:#fff;}.cls-2{fill:url(#GS_Yellow_to_Yellow_Lt_Green);}.cls-3{fill:url(#GS_Yellow_Lt_Green_to_Lt_Green);}.cls-4{fill:url(#GS_Jade_Lt_Blue_to_Lt_Blue);}.cls-5{fill:url(#GS_Jade_to_Jade_Lt_Blue);}.cls-6{fill:url(#GS_Lt_Blue_to_Blue);}.cls-7{fill:url(#GS_Red_to_Yellow);}.cls-8{fill:url(#GS_Lt_Green_to_Jade);}</style><linearGradient id="GS_Yellow_to_Yellow_Lt_Green" x1="-140.78" y1="-480.65" x2="-149.56" y2="-471.87" gradientTransform="translate(93.36 321.01) scale(0.44)" gradientUnits="userSpaceOnUse"><stop offset="0" stop-color="#febe10"/><stop offset="1" stop-color="#c6c22e"/></linearGradient><linearGradient id="GS_Yellow_Lt_Green_to_Lt_Green" x1="-150.37" y1="-465.99" x2="-141.54" y2="-457.16" gradientTransform="translate(93.36 321.01) scale(0.44)" gradientUnits="userSpaceOnUse"><stop offset="0" stop-color="#c6c22e"/><stop offset="1" stop-color="#85c441"/></linearGradient><linearGradient id="GS_Jade_Lt_Blue_to_Lt_Blue" x1="-96.19" y1="-470.87" x2="-89.79" y2="-464.46" gradientTransform="translate(93.36 321.01) scale(0.44)" gradientUnits="userSpaceOnUse"><stop offset="0" stop-color="#6dcff6"/><stop offset="1" stop-color="#00bac6"/></linearGradient><linearGradient id="GS_Jade_to_Jade_Lt_Blue" x1="-88.68" y1="-460.16" x2="-95.16" y2="-453.68" gradientTransform="translate(93.36 321.01) scale(0.44)" gradientUnits="userSpaceOnUse"><stop offset="0" stop-color="#00bac6"/><stop offset="1" stop-color="#00a99d"/></linearGradient><linearGradient id="GS_Lt_Blue_to_Blue" x1="-136.88" y1="-467.01" x2="-97.52" y2="-467.01" gradientTransform="translate(93.36 321.01) scale(0.44)" gradientUnits="userSpaceOnUse"><stop offset="0" stop-color="#0072bc"/><stop offset="0.68" stop-color="#4eb4e5"/><stop offset="1" stop-color="#6dcff6"/></linearGradient><linearGradient id="GS_Red_to_Yellow" x1="-141.46" y1="-488.32" x2="-93.4" y2="-488.32" gradientTransform="translate(93.36 321.01) scale(0.44)" gradientUnits="userSpaceOnUse"><stop offset="0" stop-color="#febe10"/><stop offset="1" stop-color="#f26522"/></linearGradient><linearGradient id="GS_Lt_Green_to_Jade" x1="-141.84" y1="-447.72" x2="-96.73" y2="-447.72" gradientTransform="translate(93.36 321.01) scale(0.44)" gradientUnits="userSpaceOnUse"><stop offset="0" stop-color="#85c441"/><stop offset="1" stop-color="#00a99d"/></linearGradient></defs><g id="Layer_2" data-name="Layer 2"><g id="Layer_1-2" data-name="Layer 1"><path class="cls-1" d="M15.38,0h6.68V30.65H15.38Z"/><path class="cls-1" d="M33.78,14.25C34.85,10.7,37,8,44.16,8c10.1,0,10.15,4.37,10.15,8.35,0,1.37-.09,7.36-.05,8.61a11.53,11.53,0,0,0,1.39,5.73H49.4a7.68,7.68,0,0,1-.47-1.24l-.37-1.19a10.52,10.52,0,0,1-7.46,3c-4.81,0-8-2.7-8-6.55,0-5.44,5.41-6.43,8.75-7a30.86,30.86,0,0,0,6.16-1.41v-.6c0-1.45,0-3.12-4.36-3.12-3.09,0-3.74,1.67-4.16,2.78ZM48.05,20a18.63,18.63,0,0,1-2.69.69c-.32,0-1.89.34-2.17.43-1.16.21-3.71.81-3.71,2.86A3.25,3.25,0,0,0,43,27a5.88,5.88,0,0,0,3.71-1.37c1.34-1.07,1.34-2.48,1.34-4.49Z"/><path class="cls-1" d="M63.64,8.47v3h.09A9.05,9.05,0,0,1,71.1,8c4.63,0,6.21,2.57,6.81,3.51A9.58,9.58,0,0,1,85.23,8c7.88,0,7.88,6,7.88,8.48V30.65H86.76V18c0-2.61,0-5.52-3.39-5.52a4.37,4.37,0,0,0-4,2.44A11.12,11.12,0,0,0,78.6,20V30.65H72.26V18.49c0-3.77,0-6-3.3-6a4.58,4.58,0,0,0-4,2.14c-.51,1-.84,2-.84,5.27V30.65H57.75V8.47Z"/><path class="cls-1" d="M78.06,89.09V66.91h5.88V70H84c1.35-2.14,3.15-3.64,7.18-3.64a9.61,9.61,0,0,1,4.17,1.07l-2,5.14a6.47,6.47,0,0,0-3-.94c-6.48,0-6,4.41-6,10.57v6.85Z"/><path class="cls-1" d="M0,58.44H24.6v5.18H6.67v6.81H23.35v5.18H6.67v8.3H25.2v5.18H0Z"/><path class="cls-1" d="M43.85,77.75c0-3.64,0-6.85-3.89-6.85a5,5,0,0,0-4.6,2.61c-.64,1.28-.69,3.72-.69,5.52V89.09H28.32V66.91h5.94v3.26h.09A10.06,10.06,0,0,1,47.69,68c2.55,1.8,2.46,5.09,2.51,7.28V89.09H43.85Z"/><path class="cls-1" d="M74.81,83c-.51,1.37-2.5,6.59-10.47,6.59-2.09,0-7.64-.26-10.2-5.31a14,14,0,0,1-1.43-6.17c0-6,3.43-11.73,11-11.73,9,0,11.54,6.72,11.4,13.28H59.2c.09,2.65,1.62,5.43,5.23,5.43a3.88,3.88,0,0,0,4-3.08Zm-6-6.94c-.14-4.84-3.76-5.18-4.73-5.18-3,0-4.82,2.27-4.77,5.18Z"/><path class="cls-1" d="M105.06,87.14a2.39,2.39,0,0,0,1,1.75,5.86,5.86,0,0,0,2.68.47c5.28,0,5.28-2.27,5.28-4.84V81.27H114a9,9,0,0,1-7.08,3.59c-6.12,0-9.93-4.92-9.93-11.22,0-9.16,6.22-11.47,10.16-11.47a8.53,8.53,0,0,1,7.27,3.59h.09V62.68h5.94V82.59c0,6.17-.93,11.26-11.41,11.26-5.55,0-11.49-1.24-11.21-7.53Zm3.57-7.07c1.66,0,5.56-.86,5.56-6.64,0-2.83-1.12-6.76-5.48-6.76-4.81,0-5.23,5-5.23,6.63C103.48,76.34,104.55,80.07,108.63,80.07Z"/><path class="cls-1" d="M140.11,62.66V72c0,4.34-.2,5.63-.7,6.44a5.64,5.64,0,0,1-4.84,2.45,4.35,4.35,0,0,1-3.5-1.46c-.65-.9-.79-1.67-.79-6.57V62.66h-6.85v14c0,2.54.25,4.12,1.45,5.8,1.4,1.93,4.44,2.91,7.15,2.91a10.69,10.69,0,0,0,8.48-3.86h.08v3c0,2.57,0,4.84-5.29,4.84a6,6,0,0,1-2.69-.47,2.4,2.4,0,0,1-1-1.75l-7.28-.82c-.28,6.29,5.66,7.53,11.21,7.53,9.15,0,11-3.88,11.35-9,.05-.75.06-1.51.06-2.3V62.66Z"/><path class="cls-1" d="M71.15,32.47c8.35,0,12.43,5.92,12.43,11.52,0,6.13-4.64,11.69-12.38,11.69-3.8,0-12.41-1.62-12.41-11.9C58.79,38.52,62.63,32.47,71.15,32.47Zm0,18.42C74,50.89,77,49,77,44c0-4.46-2.64-6.77-5.89-6.77-3.05,0-5.83,2.14-5.83,6.81S68.15,50.89,71.15,50.89Z"/><path class="cls-1" d="M103.11,51.83H103a10.71,10.71,0,0,1-8.48,3.85c-2.7,0-5.74-1-7.14-2.91-1.2-1.67-1.45-3.25-1.45-5.78V33h6.84V43.18c0,4.88.14,5.65.8,6.55a4.33,4.33,0,0,0,3.49,1.46,5.67,5.67,0,0,0,4.85-2.44c.49-.82.69-2.1.69-6.43V33h6.84V55.17h-6.34Z"/><path class="cls-1" d="M112.78,55.17V33h5.88v3.13h.09c1.35-2.14,3.15-3.65,7.18-3.65a9.7,9.7,0,0,1,4.18,1.08l-2,5.14a6.46,6.46,0,0,0-3-.95c-6.47,0-6,4.41-6,10.58v6.85Z"/><path class="cls-1" d="M49.81,33v9.36c0,4.33-.2,5.62-.7,6.44a5.62,5.62,0,0,1-4.84,2.45,4.29,4.29,0,0,1-3.49-1.47c-.66-.9-.81-1.67-.81-6.56V33H33.14V47c0,2.53.25,4.12,1.45,5.79C36,54.72,39,55.71,41.73,55.71a10.72,10.72,0,0,0,8.48-3.86h.08v3c0,2.57,0,4.83-5.29,4.83a5.67,5.67,0,0,1-2.68-.47,2.45,2.45,0,0,1-1-1.75L34,56.62c-.27,6.3,5.66,7.54,11.22,7.54,9.14,0,11-3.88,11.34-9,.05-.75.07-1.51.07-2.3V33Z"/><path class="cls-1" d="M54.69,105.41l.05-.37h0s0,0,0-.05a.34.34,0,0,0-.28-.33l-1.37-.23H53a.33.33,0,0,0-.33.29l-.06.36c-.11.61-.54,1.78-1.45,1.78a6,6,0,0,1-2.51-1.12c-.43-.26-.91-.56-1.44-.84a13.65,13.65,0,0,0-6.92-2.15,12.2,12.2,0,0,0-10.46,6.33A13.82,13.82,0,0,0,28,116a16.91,16.91,0,0,0,1.31,6.76c2.16,5,6.69,7.73,12.75,7.73,5,0,9.26-2.24,11.28-6a12.42,12.42,0,0,0,1.39-6,6.13,6.13,0,0,0-2.35-4.75h0A9.4,9.4,0,0,0,48.68,112a7,7,0,0,0,3.53-1.56A7.88,7.88,0,0,0,54.69,105.41Z"/><path class="cls-2" d="M31.42,110.47l-.94-1A13.08,13.08,0,0,0,28.67,116h.65A7.93,7.93,0,0,1,31.42,110.47Z"/><path class="cls-3" d="M31.25,120.66A6.1,6.1,0,0,1,29.32,116h-.65a16.23,16.23,0,0,0,1.25,6.47Z"/><path class="cls-4" d="M51.88,114.33l-1.2,1.25a2.69,2.69,0,0,1,2.66,3H54A5.39,5.39,0,0,0,51.88,114.33Z"/><path class="cls-5" d="M54,118.53h-.64A3.79,3.79,0,0,1,51,121.86l1.69,2.33A11.75,11.75,0,0,0,54,118.53Z"/><path class="cls-6" d="M32.1,114.12a3.9,3.9,0,0,0-.07.78,6.19,6.19,0,0,0,6.52,6.34c6.93,0,9-5.66,12.08-5.66h0l1.2-1.25a10.06,10.06,0,0,0-6.4-2c-5.48,0-8.4,4.57-10.89,4.57a2.24,2.24,0,0,1-1.92-2.35c0-.11,0-.23,0-.34Z"/><path class="cls-7" d="M36.39,108.44c4,0,6.78,3,10.35,3,4.28,0,6.65-2.09,7.24-6.17l-.64-.11c-.18,1.09-.89,2.39-2.15,2.39s-2.45-1-4.29-2.06a13,13,0,0,0-6.58-2.06,11.52,11.52,0,0,0-9.84,6l.94,1A6.8,6.8,0,0,1,36.39,108.44Z"/><path class="cls-8" d="M40.57,123.5c-3.09,0-7-.67-9.32-2.84l-1.33,1.82c1.91,4.39,6,7.3,12.1,7.3,4,0,8.49-1.6,10.65-5.59L51,121.86C49,122.91,45.65,123.5,40.57,123.5Z"/><path class="cls-1" d="M64.63,123.16c-4,0-6.23-2.64-6.23-6.54s2.4-6.57,6.3-6.57a7.75,7.75,0,0,1,3.86.93l-.41,2.73a6.31,6.31,0,0,0-3.38-1.08c-2.18,0-3.24,1.61-3.24,4s1.1,4.05,3.28,4.05a3.37,3.37,0,0,0,1.7-.4V118h-2.2L64,115.67h5.29v6.15a8.32,8.32,0,0,1-4.61,1.34"/><path class="cls-1" d="M75.24,123.06a10.33,10.33,0,0,1-4.41-1l.46-2.67a8.93,8.93,0,0,0,4,1.18c.89,0,1.52-.39,1.52-1.14s-.37-1-2.14-1.72c-2.53-1-3.63-1.8-3.63-3.89,0-2.43,1.91-3.73,4.32-3.73a8,8,0,0,1,3.81.84l-.48,2.64a6.88,6.88,0,0,0-3.29-1c-1,0-1.41.41-1.41,1s.35,1,1.93,1.56c2.74,1,3.84,2,3.84,4,0,2.74-2,4-4.53,4"/><polygon class="cls-1" points="93.5 110.37 92.14 110.37 92.14 116.6 93.5 116.6 93.5 113.96 95.13 113.96 95.13 112.74 93.5 112.74 93.5 110.37"/><path class="cls-1" d="M90.29,110.65H83.88v1.21h4.73a4.16,4.16,0,0,1-.46,1.22H83.88v1.14h3.33a7.79,7.79,0,0,1-4,1.54l.53,1C86.94,116.36,90,114.6,90.29,110.65Z"/><path class="cls-1" d="M86.46,120.48h7v-3.34H85v1.18h7.11v1.06H85.1v2.77a.69.69,0,0,0,.68.68h7.78v-1.18h-7.1Z"/><rect class="cls-1" x="105" y="110.37" width="1.31" height="6.91"/><polygon class="cls-1" points="104.01 117.28 104.01 110.37 102.7 110.37 102.7 113.04 101.04 113.04 101.04 114.26 102.7 114.26 102.7 117.28 104.01 117.28"/><path class="cls-1" d="M101.48,115.56H97.65v-1.34h2.85v-1.14H97.65v-1.26H101v-1.17H96.29v5.41a.7.7,0,0,0,.68.68h4.51Z"/><polygon class="cls-1" points="97.65 119.04 104.96 119.04 104.96 122.83 106.31 122.83 106.31 117.82 97.65 117.82 97.65 119.04"/><path class="cls-1" d="M112.73,110.51v1.57c0,2.71-2.08,4.31-4.48,4.74l.59,1.07a7,7,0,0,0,4.59-3,7.08,7.08,0,0,0,4.59,3l.6-1.07c-2.4-.43-4.48-2-4.48-4.74v-1.57Z"/><rect class="cls-1" x="107.88" y="120.39" width="11.1" height="1.22"/></g></g></svg>