<svg xmlns="http://www.w3.org/2000/svg" xmlns:xlink="http://www.w3.org/1999/xlink" viewBox="0 0 511.8 130.52"><defs><style>.cls-1{fill:url(#무제_그라디언트_10);}.cls-2{fill:#3cdc87;}.cls-3{fill:#fff;}</style><linearGradient id="무제_그라디언트_10" x1="467.83" y1="76.29" x2="502.05" y2="110.5" gradientUnits="userSpaceOnUse"><stop offset="0.13" stop-color="#001e2d"/><stop offset="0.16" stop-color="#052f35"/><stop offset="0.27" stop-color="#16634e"/><stop offset="0.37" stop-color="#248f62"/><stop offset="0.47" stop-color="#2eb072"/><stop offset="0.56" stop-color="#36c87e"/><stop offset="0.65" stop-color="#3ad785"/><stop offset="0.72" stop-color="#3cdc87"/></linearGradient></defs><g id="Layer_2" data-name="Layer 2"><g id="레이어_1" data-name="레이어 1"><path class="cls-1" d="M487.22,106.17a15.57,15.57,0,0,1-13.14-23.92h0l-10.7,14.3a24.58,24.58,0,0,0,48.42-6h-9A15.58,15.58,0,0,1,487.22,106.17Z"/><path class="cls-2" d="M487.22,66c-9.46,0-16.67,5.56-21,11.62,0,0-15.1,20.54-17,22.68a15.53,15.53,0,0,1-15.92,5.31,15.23,15.23,0,0,1-11.09-10.85A15.49,15.49,0,0,1,446.15,78l-2.51,2.73a.32.32,0,0,0,.22.54l14.08.74a.32.32,0,0,0,.33-.39l-2.78-13a.32.32,0,0,0-.56-.15l-2.59,2.83a24.48,24.48,0,0,0-11.8-5,25.32,25.32,0,0,0-9.4.49,24,24,0,0,0-17.85,18,24.58,24.58,0,0,0,43.21,21.06h0l17.58-23.5a15.57,15.57,0,0,1,28.72,8.34h9A24.57,24.57,0,0,0,487.22,66Z"/><path class="cls-3" d="M39.21,110.34a.42.42,0,0,0,.11-.53l-4-7a.41.41,0,0,0-.61-.11A15.7,15.7,0,0,1,9.73,95.9a.61.61,0,0,1,.57-.82H47.64a1.22,1.22,0,0,0,1.21-1,26.38,26.38,0,0,0,.23-3.22v-.15a24.55,24.55,0,1,0-9.87,19.67ZM9.73,85.44a15.7,15.7,0,0,1,29.62,0,.61.61,0,0,1-.57.81H10.3A.61.61,0,0,1,9.73,85.44Z"/><path class="cls-3" d="M144.31,110.34a.42.42,0,0,0,.11-.53l-4-7a.41.41,0,0,0-.61-.11,15.7,15.7,0,0,1-24.93-6.79.62.62,0,0,1,.59-.81h37.32a1.22,1.22,0,0,0,1.21-1,24.71,24.71,0,0,0,.23-3.24s0-.1,0-.15a24.57,24.57,0,1,0-9.88,19.67Zm-29.48-24.9a15.7,15.7,0,0,1,29.62,0,.6.6,0,0,1-.57.81H115.4A.61.61,0,0,1,114.83,85.44Z"/><path class="cls-3" d="M161.41,113.5h9.42a.41.41,0,0,0,.41-.41V86.53a11,11,0,0,1,10.69-11.11,10.86,10.86,0,0,1,3.53.53.47.47,0,0,0,.54-.21A31.71,31.71,0,0,1,191.88,68a.45.45,0,0,0-.14-.75,18.46,18.46,0,0,0-6.42-1.15,18.23,18.23,0,0,0-13,5.47.6.6,0,0,1-1-.43V68.24a.4.4,0,0,0-.41-.4h-9.42a.4.4,0,0,0-.4.4v44.85A.4.4,0,0,0,161.41,113.5Z"/><path class="cls-3" d="M261.08,130.52a19.85,19.85,0,0,0,4.8-.53,11.19,11.19,0,0,0,3.66-1.65,10.33,10.33,0,0,0,1.7-1.5,12.71,12.71,0,0,0,1.24-1.53,24.73,24.73,0,0,0,2.54-4.85l1.94-4.85,19.12-47.23a.4.4,0,0,0-.37-.55H285.9a.39.39,0,0,0-.37.25l-13.34,33a.61.61,0,0,1-1.13,0L257.73,68.08a.4.4,0,0,0-.37-.25h-9.81a.41.41,0,0,0-.38.55l18.92,46.75a1.2,1.2,0,0,1,0,.93l-.39.93a7.24,7.24,0,0,1-2.7,3.71,7.9,7.9,0,0,1-4.48,1.17H248.15a.4.4,0,0,0-.33.6l4.37,7.65a.78.78,0,0,0,.69.4h8.2Z"/><path class="cls-3" d="M213.94,115.21A24.45,24.45,0,0,0,229.05,110a.6.6,0,0,1,1,.48v4h0a7.33,7.33,0,0,1-7.32,7.33H210.33a.4.4,0,0,0-.35.6l4.37,7.66a.78.78,0,0,0,.69.4h10.37a14.83,14.83,0,0,0,14.84-14.84h0l.08-47.45a.4.4,0,0,0-.41-.4H230.5a.4.4,0,0,0-.4.4L230,70.86a.61.61,0,0,1-1,.47,24.38,24.38,0,0,0-15.17-5.2,24.8,24.8,0,0,0-24.46,23.79A24.54,24.54,0,0,0,213.94,115.21Zm.45-39.94A15.4,15.4,0,1,1,199,90.67,15.4,15.4,0,0,1,214.39,75.27Z"/><path class="cls-3" d="M56.4,113.5h9.42a.4.4,0,0,0,.41-.4V86.51A11,11,0,0,1,77,75.41a10.87,10.87,0,0,1,11,9.92V113.1a.4.4,0,0,0,.41.4h9.42a.4.4,0,0,0,.4-.4V84.5h0v-.08a18.3,18.3,0,0,0-18.3-18.3,17.24,17.24,0,0,0-12.6,5.47.6.6,0,0,1-1-.42V68.24a.41.41,0,0,0-.41-.41H56.4a.4.4,0,0,0-.4.41V113.1A.4.4,0,0,0,56.4,113.5Z"/><path class="cls-3" d="M341.26,89.68H327.45V75.87a1,1,0,0,0-1.92,0V89.68H311.72a1,1,0,1,0,0,1.92h13.81v13.8a1,1,0,0,0,1.92,0V91.6h13.81a1,1,0,0,0,0-1.92Z"/><path class="cls-2" d="M326.49,66.06a24.58,24.58,0,1,0,24.57,24.58A24.57,24.57,0,0,0,326.49,66.06ZM341.26,91.6H327.45v13.8a1,1,0,0,1-1.92,0V91.6H311.72a1,1,0,1,1,0-1.92h13.81V75.87a1,1,0,0,1,1.92,0V89.68h13.81a1,1,0,0,1,0,1.92Z"/><path class="cls-3" d="M383.26,115.12a24.48,24.48,0,0,0,16.59-4.8A.43.43,0,0,0,400,110l-4.18-7.34a.4.4,0,0,0-.54,0,15.72,15.72,0,0,1-25-6.79.61.61,0,0,1,.57-.82h37.4A1.22,1.22,0,0,0,409.5,94c.15-1,.24-3.32.24-3.37a24.58,24.58,0,1,0-26.48,24.5ZM370.33,85.38a15.73,15.73,0,0,1,29.67,0,.61.61,0,0,1-.58.81H370.9A.6.6,0,0,1,370.33,85.38Z"/><path class="cls-2" d="M18.66,18.87a105.2,105.2,0,0,1-18,1.3L.24,17c2.06,0,4.45,0,7-.1V15.18c-3.11-.48-5.05-2.07-5.05-4.36C2.15,8,5,6.27,9.3,6.27S16.43,8,16.43,10.82c0,2.29-1.94,3.88-5,4.36v1.49c2.39-.16,4.71-.35,6.94-.67ZM17.61,5.5H1v-3H7.2V0h4.2V2.51h6.21ZM8.51,25.58H24.8v3.34H4.31V21.57h4.2Zm.79-13c2,0,3.15-.6,3.15-1.71S11.28,9.07,9.3,9.07s-3.18.6-3.18,1.75S7.33,12.53,9.3,12.53ZM27.5,9.7v3.44H23.81V23h-4.2V.1h4.2V9.7Z"/><path class="cls-2" d="M42.48,8.11c-1.81,4.62-5.92,7.77-12.37,9.58l-1.63-3.31c6.68-1.78,9.9-4.93,10.44-8.91H30.07V2.1H43.5a17.85,17.85,0,0,1-.19,2.67h5.25V.13h4.2V17h-4.2v-2.8H42.1V10.82h6.46V8.11ZM53,23.32C53,27,49,29.27,43.09,29.27s-9.9-2.29-9.9-5.95,3.92-5.95,9.9-5.95S53,19.66,53,23.32Zm-4.14,0c0-1.78-2.13-2.7-5.72-2.7s-5.76.92-5.76,2.7S39.46,26,43.09,26,48.81,25.1,48.81,23.32Z"/><path class="cls-2" d="M71.14.6h3.92V28.12H71.14V14.32H68.85c-.38,5.72-2.77,9.16-6.33,9.16-3.88,0-6.33-4-6.33-10.66S58.64,2.19,62.52,2.19c3.47,0,5.82,3.25,6.3,8.72h2.32ZM65.07,12.82c0-4.48-.93-6.68-2.55-6.68S60,8.34,60,12.82s1,6.71,2.54,6.71S65.07,17.34,65.07,12.82ZM81.07.1V29.4h-4V.1Z"/><path class="cls-2" d="M106.13.6h3.92V28.12h-3.92V14.32h-2.29c-.38,5.72-2.76,9.16-6.33,9.16-3.88,0-6.33-4-6.33-10.66S93.63,2.19,97.51,2.19c3.47,0,5.82,3.25,6.3,8.72h2.32Zm-6.07,12.22c0-4.48-.92-6.68-2.55-6.68S95,8.34,95,12.82s1,6.71,2.54,6.71S100.06,17.34,100.06,12.82ZM116.06.1V29.4h-4V.1Z"/><path class="cls-2" d="M124.26,19.12A64.8,64.8,0,0,0,135.62,18l.48,3.43a66.91,66.91,0,0,1-13.52,1.21H120.1V3.24h4.16ZM143.2.1V29.52H139V12.57h-7.89V9.16H139V.1Z"/><path class="cls-2" d="M157.6,8c0,4.77,2.36,9.83,7.26,11.86l-2.29,3.31a13.08,13.08,0,0,1-7-7.86c-1.31,3.82-3.66,7-7.1,8.6l-2.39-3.35C151,18.39,153.34,13,153.34,8V6.39h-6.11V2.93h16.42V6.39H157.6Zm13-7.89v29.3h-4.2V.13Z"/><path class="cls-2" d="M200.49,13.3v3H174v-3Zm-19.35,13h17v2.83H177V22.11h16.2V20.62H176.94V17.78h20.4v7h-16.2Zm12-22.87H177.2V.64h20v6.9H181.4V9.07h16.35V11.9H177.26v-7H193.1Z"/><path class="cls-2" d="M214.51,19a61.72,61.72,0,0,0,10.56-.82l.42,3.4a66.41,66.41,0,0,1-12.79.86h-2.39V2.74h13.27V6.08h-9.07Zm19-18.86V29.52h-4.2V13.62h-7.16V10.24h7.16V.13Z"/><path class="cls-2" d="M247.15,4.45h6.36V7.79h-17V4.45H243V.64h4.2Zm5.31,12c0,4.13-3.15,7-7.38,7s-7.44-2.9-7.44-7,3.18-7,7.44-7S252.46,12.34,252.46,16.42Zm-4,0a3.3,3.3,0,0,0-3.4-3.57,3.34,3.34,0,0,0-3.44,3.6,3.42,3.42,0,1,0,6.84,0Zm15.34-1.37h-4.2V29.43h-4.2V.13h4.2V11.58h4.2Z"/><path class="cls-2" d="M269.61,19A72.07,72.07,0,0,0,281,18l.41,3.47a73.4,73.4,0,0,1-13.52.95h-2.51V2.83h13.68V6.24h-9.48Zm21.88-4.55h-4.26V29.49H283V.13h4.2V10.94h4.26Z"/></g></g></svg>