<?xml version="1.0" encoding="UTF-8"?>
<svg width="111px" height="32px" viewBox="0 0 111 32" version="1.1" xmlns="http://www.w3.org/2000/svg" xmlns:xlink="http://www.w3.org/1999/xlink">
    <title>logo_gs_black</title>
    <defs>
        <linearGradient x1="62.8336886%" y1="21.6449644%" x2="35.7975606%" y2="79.9979654%" id="linearGradient-1">
            <stop stop-color="#FDB913" offset="0%"></stop>
            <stop stop-color="#C4BF30" offset="100%"></stop>
        </linearGradient>
        <linearGradient x1="37.3424757%" y1="22.893485%" x2="57.7378613%" y2="73.7533609%" id="linearGradient-2">
            <stop stop-color="#C4BF30" offset="0%"></stop>
            <stop stop-color="#80C342" offset="100%"></stop>
        </linearGradient>
        <linearGradient x1="28.6839021%" y1="16.8098844%" x2="84.5686678%" y2="83.4651255%" id="linearGradient-3">
            <stop stop-color="#6DCFF6" offset="0%"></stop>
            <stop stop-color="#00BAC6" offset="100%"></stop>
        </linearGradient>
        <linearGradient x1="71.2147472%" y1="22.6018327%" x2="43.2146736%" y2="72.5645876%" id="linearGradient-4">
            <stop stop-color="#00BAC6" offset="0%"></stop>
            <stop stop-color="#00A99D" offset="100%"></stop>
        </linearGradient>
        <linearGradient x1="7.38180286%" y1="50.345475%" x2="93.9846672%" y2="50.345475%" id="linearGradient-5">
            <stop stop-color="#0072BC" offset="0%"></stop>
            <stop stop-color="#6DCFF6" offset="100%"></stop>
        </linearGradient>
        <linearGradient x1="0.306312718%" y1="50.4587079%" x2="100.20269%" y2="50.4587079%" id="linearGradient-6">
            <stop stop-color="#FDB913" offset="0%"></stop>
            <stop stop-color="#F6841C" offset="60%"></stop>
            <stop stop-color="#F26522" offset="100%"></stop>
        </linearGradient>
        <linearGradient x1="6.1297345%" y1="50.1912277%" x2="92.7720821%" y2="50.1912277%" id="linearGradient-7">
            <stop stop-color="#80C342" offset="0%"></stop>
            <stop stop-color="#00A99D" offset="100%"></stop>
        </linearGradient>
    </defs>
    <g id="Symbols" stroke="none" stroke-width="1" fill="none" fill-rule="evenodd">
        <g id="components/GNB/light" transform="translate(-1449.000000, -44.000000)" fill-rule="nonzero">
            <g id="logo_gs_black" transform="translate(1449.000000, 44.000000)">
                <path d="M3.48514851,8.53608372 L2.29302833,7.28712871 C0.805049882,9.68856257 0.0138462994,12.4216117 0,15.2079208 L0.820908384,15.2079208 C0.825150805,12.5891442 1.78393786,10.2100863 3.48514851,8.53608372 Z" id="Path" fill="url(#linearGradient-1)"></path>
                <path d="M3.16831683,20.8966386 C1.73097284,19.5307729 0.794645894,17.6836803 0.794645894,15.2181597 L0.794645894,15.2079208 L0,15.2079208 C0,18.0993785 0.517443838,20.7860588 1.54001142,23.1287129 L3.16831683,20.8966386 Z" id="Path" fill="url(#linearGradient-2)"></path>
                <path d="M28.4314747,13.3069307 L26.9306931,14.8081244 C29.015112,14.8384312 30.2866076,16.394177 30.2407504,18.3762376 L31.049505,18.3762376 C31.049505,16.4143815 30.1031787,14.6323453 28.4314747,13.3069307 Z" id="Path" fill="url(#linearGradient-3)"></path>
                <path d="M31.049505,18.3762376 L30.2281417,18.3762376 C30.1900373,20.0410322 29.2755298,21.4379761 27.2475248,22.4784727 L29.3877263,25.3465347 C30.4334825,23.4674596 31.049505,21.1660047 31.049505,18.3762376 Z" id="Path" fill="url(#linearGradient-4)"></path>
                <path d="M4.21540951,13.002175 C4.15469831,13.3199171 4.12236842,13.6425541 4.11881188,13.9661738 C4.11881188,18.7840855 7.66415041,21.8613861 12.1343599,21.8613861 C20.6411171,21.8613861 23.1670423,14.8177407 26.9754552,14.8177407 L27.035058,14.8177407 L28.5148515,13.2707621 C26.6774413,11.7383581 23.9500997,10.7722772 20.6411171,10.7722772 C13.9203884,10.7806055 10.3318892,16.4792332 7.27570462,16.4792332 C5.9438905,16.4792332 4.92447722,14.9988809 4.92447722,13.5643341 C4.92248096,13.4190922 4.92796914,13.2738437 4.94091937,13.1291813 L4.21540951,13.002175 Z" id="Path" fill="url(#linearGradient-5)"></path>
                <path d="M9.46524225,6.10498817 C14.3734613,6.10498817 17.7796669,9.82178218 22.1605396,9.82178218 C27.4134831,9.82178218 30.3210694,7.26109592 31.049505,2.25677161 L30.2533557,2.12534906 C30.0317472,3.44984195 29.1678842,5.04334038 27.6207282,5.04334038 C26.1618052,5.04334038 24.6146492,3.75991703 22.359577,2.52167019 C20.1086086,1.23208641 17.5149678,0 14.2852283,0 C9.0917908,0 4.71912573,3.06173473 2.21782178,7.32680719 L3.37100703,8.59996315 C4.86070897,7.05574818 6.94341899,6.10498817 9.46524225,6.10498817 Z" id="Path" fill="url(#linearGradient-6)"></path>
                <path d="M14.6317424,24.370514 C10.8341429,24.370514 6.02972846,23.5564851 3.21023639,20.9108911 L1.58415842,23.1230147 C3.9238242,28.4671145 8.91688834,32 16.4013582,32 C21.3472599,32 26.8180998,30.056506 29.4653465,25.2048936 L27.3922509,22.3781782 C24.9541592,23.6439932 20.8510293,24.370514 14.6317424,24.370514 Z" id="Path" fill="url(#linearGradient-7)"></path>
                <path d="M44.0795259,24.0765629 C39.1479889,24.0765629 36.4356436,20.8288744 36.4356436,16.0346675 C36.4356436,11.2404606 39.3719629,7.92266326 44.1699374,7.92266326 C45.824038,7.88993557 47.4584635,8.28701351 48.914487,9.07533493 L48.3966756,12.4364348 C47.2254356,11.692044 45.8548792,11.1084911 44.2582941,11.1084911 C41.5870449,11.1084911 40.2822424,13.0900966 40.2822424,15.9996131 C40.2822424,18.9091296 41.6322507,20.9876503 44.3034999,20.9876503 C45.032008,21.0117795 45.7536394,20.8394607 46.3932387,20.4886404 L46.3932387,17.7152174 L43.6973318,17.7152174 L43.2473291,14.8490034 L49.7425743,14.8490034 L49.7425743,22.4290054 C48.0578528,23.5262809 46.0878653,24.1001291 44.0795259,24.078625" id="Path" fill="#0072BC"></path>
                <path d="M51.6435644,22.9143991 L52.2107981,19.6342147 C53.8252328,20.4870626 55.622512,21.0692954 57.1974688,21.0692954 C58.3090808,21.0692954 59.0840926,20.5957187 59.0840926,19.6772671 C59.0840926,18.8018678 58.6290589,18.3979951 56.4224571,17.5697486 C53.2870879,16.3806817 51.9219868,15.372025 51.9219868,12.8134811 C51.9219868,9.83056334 54.284422,8.23762376 57.2847356,8.23762376 C59.3355039,8.23762376 60.652816,8.62099532 62.0137616,9.26268141 L61.4091278,12.5059638 C60.0024711,11.6982184 58.5230921,11.2512932 57.31798,11.2512932 C56.1128679,11.2512932 55.566412,11.7433209 55.566412,12.4608613 C55.566412,13.2460554 55.9985901,13.629427 57.9537805,14.3695186 C61.3675722,15.5995878 62.7326733,16.7661034 62.7326733,19.2344422 C62.7326733,22.6007315 60.2393379,24.0788646 57.1226688,24.0788646 C55.2317776,24.0925834 53.361053,23.6950013 51.6435644,22.9143991 Z" id="Path" fill="#0072BC"></path>
                <polygon id="Path" fill="#0F1E2D" points="79.6697372 8.23762376 77.9405941 8.23762376 77.9405941 15.8415842 79.6697372 15.8415842 79.6697372 12.6165899 81.7425743 12.6165899 81.7425743 11.1297022 79.6697372 11.1297022"></polygon>
                <path d="M75.7227723,8.55445545 L67.7473643,8.55445545 L67.7473643,10.0632435 L73.6309986,10.0632435 C73.5178443,10.5910779 73.3254037,11.0990003 73.0601361,11.5699618 L67.7473643,11.5699618 L67.7473643,12.9773361 L71.8829925,12.9773361 C70.7371006,13.9418014 69.0682652,14.5875378 66.8514851,14.88557 L67.5119356,16.1584158 C71.5579759,15.6223718 75.3873385,13.445081 75.7227723,8.55445545 Z" id="Path" fill="#0F1E2D"></path>
                <path d="M70.8122233,20.8970833 L79.4508479,20.8970833 L79.4508479,16.7920792 L69.0693069,16.7920792 L69.0693069,18.2390932 L77.7879948,18.2390932 L77.7879948,19.5362745 L69.1514231,19.5362745 L69.1514231,22.9413754 C69.1642944,23.389363 69.5245096,23.7495075 69.9725852,23.7623762 L79.5247525,23.7623762 L79.5247525,22.3256248 L70.8122233,22.3256248 L70.8122233,20.8970833 Z" id="Path" fill="#0F1E2D"></path>
                <rect id="Rectangle" fill="#0F1E2D" x="93.7821782" y="8.23762376" width="1.58415842" height="8.55445545"></rect>
                <polygon id="Path" fill="#0F1E2D" points="92.5148515 16.7920792 92.5148515 8.23762376 90.8381355 8.23762376 90.8381355 11.5403982 88.7128713 11.5403982 88.7128713 13.0518374 90.8381355 13.0518374 90.8381355 16.7920792"></polygon>
                <path d="M89.3465347,14.6932217 L84.6661363,14.6932217 L84.6661363,13.0211029 L88.1421858,13.0211029 L88.1421858,11.5998019 L84.6661363,11.5998019 L84.6661363,10.0384609 L88.8005904,10.0384609 L88.8005904,8.55445545 L83.009901,8.55445545 L83.009901,15.3223564 C83.0229559,15.7825065 83.387739,16.1507879 83.8380187,16.1584158 L89.3465347,16.1584158 L89.3465347,14.6932217 Z" id="Path" fill="#0F1E2D"></path>
                <polygon id="Path" fill="#0F1E2D" points="84.5940594 18.8894753 93.6832983 18.8894753 93.6832983 23.4455446 95.3663366 23.4455446 95.3663366 17.4257426 84.5940594 17.4257426"></polygon>
                <path d="M103.06261,8.55445545 L103.06261,10.5124767 C103.06261,13.8827728 100.513637,15.8699561 97.5841584,16.4094534 L98.3124366,17.7425743 C100.598583,17.3321222 102.623032,15.9939823 103.921815,14.0348319 C105.22127,15.9932851 107.245398,17.3312131 109.531193,17.7425743 L110.257426,16.4094534 C107.329993,15.8699561 104.778974,13.8827728 104.778974,10.5124767 L104.778974,8.55445545 L103.06261,8.55445545 Z" id="Path" fill="#0F1E2D"></path>
                <rect id="Rectangle" fill="#0F1E2D" x="97.2673267" y="20.5940594" width="13.6237624" height="1.58415842"></rect>
            </g>
        </g>
    </g>
</svg>