<svg xmlns="http://www.w3.org/2000/svg" xmlns:xlink="http://www.w3.org/1999/xlink" viewBox="0 0 368.56 45.24"><defs><style>.cls-1{fill:#fff;}.cls-2{fill:url(#GS_Yellow_to_Yellow_Lt_Green);}.cls-3{fill:url(#GS_Yellow_Lt_Green_to_Lt_Green);}.cls-4{fill:url(#GS_Jade_Lt_Blue_to_Lt_Blue);}.cls-5{fill:url(#GS_Jade_to_Jade_Lt_Blue);}.cls-6{fill:url(#GS_Lt_Blue_to_Blue);}.cls-7{fill:url(#GS_Red_to_Yellow);}.cls-8{fill:url(#GS_Lt_Green_to_Jade);}</style><linearGradient id="GS_Yellow_to_Yellow_Lt_Green" x1="119.74" y1="-957.25" x2="105.41" y2="-942.92" gradientTransform="translate(174.01 431.76) scale(0.44)" gradientUnits="userSpaceOnUse"><stop offset="0" stop-color="#febe10"/><stop offset="1" stop-color="#c6c22e"/></linearGradient><linearGradient id="GS_Yellow_Lt_Green_to_Lt_Green" x1="104.1" y1="-933.35" x2="118.5" y2="-918.94" gradientTransform="translate(174.01 431.76) scale(0.44)" gradientUnits="userSpaceOnUse"><stop offset="0" stop-color="#c6c22e"/><stop offset="1" stop-color="#85c441"/></linearGradient><linearGradient id="GS_Jade_Lt_Blue_to_Lt_Blue" x1="192.45" y1="-941.3" x2="202.9" y2="-930.86" gradientTransform="translate(174.01 431.76) scale(0.44)" gradientUnits="userSpaceOnUse"><stop offset="0" stop-color="#6dcff6"/><stop offset="1" stop-color="#00bac6"/></linearGradient><linearGradient id="GS_Jade_to_Jade_Lt_Blue" x1="204.7" y1="-923.83" x2="194.14" y2="-913.27" gradientTransform="translate(174.01 431.76) scale(0.44)" gradientUnits="userSpaceOnUse"><stop offset="0" stop-color="#00bac6"/><stop offset="1" stop-color="#00a99d"/></linearGradient><linearGradient id="GS_Lt_Blue_to_Blue" x1="126.08" y1="-935.01" x2="190.29" y2="-935.01" gradientTransform="translate(174.01 431.76) scale(0.44)" gradientUnits="userSpaceOnUse"><stop offset="0" stop-color="#0072bc"/><stop offset="0.68" stop-color="#4eb4e5"/><stop offset="1" stop-color="#6dcff6"/></linearGradient><linearGradient id="GS_Red_to_Yellow" x1="118.62" y1="-969.77" x2="197.01" y2="-969.77" gradientTransform="translate(174.01 431.76) scale(0.44)" gradientUnits="userSpaceOnUse"><stop offset="0" stop-color="#febe10"/><stop offset="1" stop-color="#f26522"/></linearGradient><linearGradient id="GS_Lt_Green_to_Jade" x1="118" y1="-903.54" x2="191.58" y2="-903.54" gradientTransform="translate(174.01 431.76) scale(0.44)" gradientUnits="userSpaceOnUse"><stop offset="0" stop-color="#85c441"/><stop offset="1" stop-color="#00a99d"/></linearGradient></defs><g id="Layer_2" data-name="Layer 2"><g id="Layer_1-2" data-name="Layer 1"><path class="cls-1" d="M263.7,4.33l.09-.6h0s0,0,0-.07a.56.56,0,0,0-.46-.54l-2.22-.37H261a.55.55,0,0,0-.54.47l-.1.59c-.17,1-.87,2.91-2.35,2.91-1.08,0-2.41-.81-4.1-1.83-.7-.43-1.49-.91-2.34-1.37-3.18-1.82-6.77-3.5-11.3-3.5-6.9,0-13.27,3.86-17,10.31a22.49,22.49,0,0,0-3.1,11.31,27.49,27.49,0,0,0,2.13,11c3.53,8.12,10.91,12.6,20.79,12.6,8.23,0,15.11-3.63,18.4-9.73a20.21,20.21,0,0,0,2.28-9.78A10,10,0,0,0,259.87,18h0a15.46,15.46,0,0,0-6-2.88,11.51,11.51,0,0,0,5.75-2.54C261.81,10.71,263.17,7.94,263.7,4.33Z"/><path class="cls-2" d="M225.75,12.59l-1.54-1.69a21.39,21.39,0,0,0-2.94,10.72h1.06A12.88,12.88,0,0,1,225.75,12.59Z"/><path class="cls-3" d="M225.48,29.21a10,10,0,0,1-3.15-7.57v0h-1.06a26.54,26.54,0,0,0,2,10.55Z"/><path class="cls-4" d="M259.13,18.88l-2,2c2.73.05,4.39,2.15,4.34,4.82h1.05A8.8,8.8,0,0,0,259.13,18.88Z"/><path class="cls-5" d="M262.55,25.73H261.5c-.05,2.21-1.24,4.06-3.85,5.44l2.76,3.8A19.2,19.2,0,0,0,262.55,25.73Z"/><path class="cls-6" d="M226.85,18.53a7.5,7.5,0,0,0-.11,1.27c0,6.31,4.7,10.34,10.64,10.34,11.3,0,14.65-9.23,19.7-9.23h.08l2-2a16.39,16.39,0,0,0-10.45-3.25c-8.94,0-13.71,7.45-17.77,7.45-1.76,0-3.12-1.93-3.12-3.82a5.09,5.09,0,0,1,0-.56Z"/><path class="cls-7" d="M233.86,9.27c6.52,0,11,4.94,16.87,4.94,7,0,10.85-3.4,11.82-10L261.5,4c-.3,1.76-1.44,3.89-3.5,3.89s-4-1.71-7-3.36-6.45-3.36-10.75-3.36c-6.9,0-12.74,4.09-16,9.75l1.54,1.69A11,11,0,0,1,233.86,9.27Z"/><path class="cls-8" d="M240.68,33.84c-5.05,0-11.45-1.1-15.2-4.63l-2.17,3c3.11,7.17,9.76,11.92,19.72,11.92,6.58,0,13.86-2.62,17.38-9.12l-2.76-3.8C254.41,32.87,249,33.84,240.68,33.84Z"/><path class="cls-1" d="M279.91,33.27c-6.54,0-10.15-4.3-10.15-10.66S273.67,11.9,280,11.9a12.8,12.8,0,0,1,6.3,1.52l-.69,4.45a10.23,10.23,0,0,0-5.49-1.76c-3.55,0-5.28,2.63-5.28,6.47s1.78,6.61,5.35,6.61a5.54,5.54,0,0,0,2.77-.66V24.86h-3.6l-.58-3.8h8.62v10a13.5,13.5,0,0,1-7.52,2.18"/><path class="cls-1" d="M297.23,33.12a16.88,16.88,0,0,1-7.2-1.55l.75-4.35a14.67,14.67,0,0,0,6.54,1.91c1.45,0,2.48-.63,2.48-1.85s-.6-1.7-3.5-2.81c-4.12-1.58-5.91-2.93-5.91-6.33,0-4,3.11-6.09,7-6.09a13,13,0,0,1,6.21,1.37l-.77,4.31a11.22,11.22,0,0,0-5.37-1.68c-1.55,0-2.3.65-2.3,1.61s.56,1.55,3.13,2.54c4.48,1.64,6.27,3.19,6.27,6.48,0,4.47-3.28,6.44-7.37,6.44"/><polygon class="cls-1" points="327 12.43 324.79 12.43 324.79 22.58 327 22.58 327 18.28 329.65 18.28 329.65 16.28 327 16.28 327 12.43"/><path class="cls-1" d="M321.76,12.87H311.32v2H319a6.87,6.87,0,0,1-.74,2h-7V18.7h5.42a12.7,12.7,0,0,1-6.59,2.51l.86,1.68C316.31,22.18,321.32,19.31,321.76,12.87Z"/><path class="cls-1" d="M315.52,28.92H327V23.46H313.21v1.93h11.58v1.72H313.31v4.52a1.13,1.13,0,0,0,1.1,1.11H327.1V30.82H315.52Z"/><rect class="cls-1" x="345.76" y="12.43" width="2.14" height="11.26"/><polygon class="cls-1" points="344.15 23.69 344.15 12.43 342 12.43 342 16.77 339.29 16.77 339.29 18.76 342 18.76 342 23.69 344.15 23.69"/><path class="cls-1" d="M340,20.88h-6.24V18.7h4.64V16.84h-4.64V14.79h5.52V12.87h-7.73V21.7a1.13,1.13,0,0,0,1.11,1.11H340Z"/><polygon class="cls-1" points="333.77 26.56 345.69 26.56 345.69 32.74 347.9 32.74 347.9 24.57 333.77 24.57 333.77 26.56"/><path class="cls-1" d="M358.36,12.65V15.2c0,4.43-3.39,7-7.31,7.73l1,1.75a11.38,11.38,0,0,0,7.48-4.86A11.45,11.45,0,0,0,367,24.68l1-1.75c-3.9-.7-7.3-3.3-7.3-7.73V12.65Z"/><rect class="cls-1" x="350.45" y="28.76" width="18.11" height="1.99"/><path class="cls-1" d="M0,13.12H4V31.55H0Z"/><path class="cls-1" d="M10.74,21.69c.66-2.13,2-3.78,6.25-3.78,6.08,0,6.12,2.62,6.12,5,0,.82-.07,4.42,0,5.17a6.82,6.82,0,0,0,.83,3.45H20.15a4.94,4.94,0,0,1-.28-.74l-.23-.72a6.28,6.28,0,0,1-4.48,1.78c-2.9,0-4.8-1.62-4.8-3.94,0-3.28,3.26-3.87,5.27-4.23a18.79,18.79,0,0,0,3.7-.84v-.37c0-.88,0-1.87-2.61-1.87a2.26,2.26,0,0,0-2.51,1.66Zm8.59,3.45a11,11,0,0,1-1.6.42c-.21,0-1.15.2-1.32.25-.69.13-2.23.49-2.23,1.73a2,2,0,0,0,2.12,1.82,3.69,3.69,0,0,0,2.24-.81c.79-.65.79-1.51.79-2.71Z"/><path class="cls-1" d="M28.76,18.22V20h0a5.45,5.45,0,0,1,4.43-2.1A4.35,4.35,0,0,1,37.35,20a5.79,5.79,0,0,1,4.39-2.1c4.76,0,4.76,3.63,4.76,5.09v8.55H42.67V23.93c0-1.56,0-3.31-2-3.31a2.62,2.62,0,0,0-2.4,1.46,6.6,6.6,0,0,0-.47,3.06v6.41H33.94V24.24c0-2.27,0-3.62-2-3.62a2.79,2.79,0,0,0-2.43,1.28,6.15,6.15,0,0,0-.49,3.17v6.48H25.22V18.22Z"/><path class="cls-1" d="M76.29,17.91c5,0,7.47,3.55,7.47,6.93a7,7,0,0,1-7.44,7c-2.28,0-7.48-1-7.48-7.16C68.84,21.54,71.15,17.91,76.29,17.91Zm0,11.07c1.73,0,3.54-1.16,3.54-4.12,0-2.68-1.59-4.07-3.54-4.07s-3.52,1.29-3.52,4.1S74.48,29,76.29,29Z"/><path class="cls-1" d="M95.56,29.55h-.07a6.47,6.47,0,0,1-5.09,2.32,5.54,5.54,0,0,1-4.3-1.75,5.29,5.29,0,0,1-.87-3.48V18.22h4.11v6.13c0,2.93.1,3.4.49,3.94a2.6,2.6,0,0,0,2.08.88,3.37,3.37,0,0,0,2.93-1.48c.3-.48.42-1.26.42-3.86V18.22h4.12V31.55H95.56Z"/><path class="cls-1" d="M101.42,31.55V18.22H105V20.1H105a4.47,4.47,0,0,1,4.33-2.19,5.9,5.9,0,0,1,2.51.64l-1.2,3.1a3.75,3.75,0,0,0-1.77-.57c-3.91,0-3.64,2.65-3.64,6.36v4.11Z"/><path class="cls-1" d="M164.22,31.55V18.22h3.55V20.1h0a4.45,4.45,0,0,1,4.32-2.19,5.8,5.8,0,0,1,2.52.64l-1.21,3.1a3.8,3.8,0,0,0-1.79-.57c-3.88,0-3.61,2.65-3.61,6.36v4.11Z"/><path class="cls-1" d="M117.12,13.12h14.82v3.11h-10.8v4.1h10v3.11h-10v5H132.3v3.11H117.12Z"/><path class="cls-1" d="M143.55,24.74c0-2.19,0-4.12-2.35-4.12a3,3,0,0,0-2.74,1.56A8.61,8.61,0,0,0,138,25.5v6.05h-3.81V18.22h3.56v2h.06a5.77,5.77,0,0,1,4.71-2.26,5.91,5.91,0,0,1,3.32,1c1.52,1.08,1.47,3.07,1.5,4.38v8.29h-3.82Z"/><path class="cls-1" d="M162.22,27.9c-.31.83-1.49,4-6.3,4-1.25,0-4.58-.15-6.13-3.2a8.5,8.5,0,0,1-.86-3.7c0-3.62,2.07-7.06,6.63-7.06,5.43,0,6.95,4,6.87,8h-9.59A3.1,3.1,0,0,0,156,29.17a2.34,2.34,0,0,0,2.43-1.86Zm-3.6-4.17c-.07-2.92-2.24-3.11-2.83-3.11a2.82,2.82,0,0,0-2.87,3.11Z"/><path class="cls-1" d="M179.71,32.64a1.47,1.47,0,0,0,.6,1,3.52,3.52,0,0,0,1.62.28c3.18,0,3.18-1.36,3.18-2.91V29.11h-.06a5.33,5.33,0,0,1-4.25,2.16c-3.68,0-6-3-6-6.74,0-5.52,3.74-6.9,6.11-6.9a5.12,5.12,0,0,1,4.37,2.16h.07V17.93h3.56v12c0,3.72-.55,6.77-6.85,6.77-3.34,0-6.92-.73-6.76-4.52Zm2.15-4.25c1,0,3.35-.52,3.35-4,0-1.7-.68-4.07-3.29-4.07-2.91,0-3.15,3-3.15,4C178.77,26.15,179.4,28.39,181.86,28.39Z"/><path class="cls-1" d="M200.85,17.91v5.63c0,2.61-.12,3.39-.43,3.88a3.38,3.38,0,0,1-2.91,1.46,2.57,2.57,0,0,1-2.1-.87c-.39-.54-.49-1-.49-4V17.91h-4.1v8.44a5.29,5.29,0,0,0,.88,3.49A5.42,5.42,0,0,0,196,31.6a6.45,6.45,0,0,0,5.12-2.33h0v1.79c0,1.55,0,2.91-3.19,2.91a3.45,3.45,0,0,1-1.61-.28,1.42,1.42,0,0,1-.61-1l-4.38-.49c-.18,3.79,3.39,4.52,6.74,4.52,5.5,0,6.64-2.32,6.83-5.38,0-.45,0-.91,0-1.39v-12Z"/><path class="cls-1" d="M63.4,18.19v5.64c0,2.6-.12,3.38-.42,3.87a3.38,3.38,0,0,1-2.91,1.47A2.6,2.6,0,0,1,58,28.3c-.4-.55-.49-1-.49-4V18.19H53.37v8.45a5.36,5.36,0,0,0,.87,3.49,5.54,5.54,0,0,0,4.3,1.75,6.43,6.43,0,0,0,5.1-2.32h.06v1.78c0,1.56,0,2.92-3.19,2.92A3.48,3.48,0,0,1,58.89,34a1.56,1.56,0,0,1-.62-1l-4.36-.5c-.16,3.79,3.4,4.53,6.74,4.53,5.49,0,6.63-2.33,6.82-5.39,0-.44,0-.9,0-1.38v-12Z"/></g></g></svg>