<svg xmlns="http://www.w3.org/2000/svg" xmlns:xlink="http://www.w3.org/1999/xlink" viewBox="0 0 204.95 84.11"><defs><style>.cls-1{fill:#fff;}.cls-2{fill:url(#GS_Yellow_to_Yellow_Lt_Green);}.cls-3{fill:url(#GS_Yellow_Lt_Green_to_Lt_Green);}.cls-4{fill:url(#GS_Jade_Lt_Blue_to_Lt_Blue);}.cls-5{fill:url(#GS_Jade_to_Jade_Lt_Blue);}.cls-6{fill:url(#GS_Lt_Blue_to_Blue);}.cls-7{fill:url(#GS_Red_to_Yellow);}.cls-8{fill:url(#GS_Lt_Green_to_Jade);}</style><linearGradient id="GS_Yellow_to_Yellow_Lt_Green" x1="-214.5" y1="-527.21" x2="-228.83" y2="-512.88" gradientTransform="translate(128.32 282.57) scale(0.44)" gradientUnits="userSpaceOnUse"><stop offset="0" stop-color="#febe10"/><stop offset="1" stop-color="#c6c22e"/></linearGradient><linearGradient id="GS_Yellow_Lt_Green_to_Lt_Green" x1="-230.14" y1="-503.3" x2="-215.74" y2="-488.9" gradientTransform="translate(128.32 282.57) scale(0.44)" gradientUnits="userSpaceOnUse"><stop offset="0" stop-color="#c6c22e"/><stop offset="1" stop-color="#85c441"/></linearGradient><linearGradient id="GS_Jade_Lt_Blue_to_Lt_Blue" x1="-141.79" y1="-511.26" x2="-131.34" y2="-500.81" gradientTransform="translate(128.32 282.57) scale(0.44)" gradientUnits="userSpaceOnUse"><stop offset="0" stop-color="#6dcff6"/><stop offset="1" stop-color="#00bac6"/></linearGradient><linearGradient id="GS_Jade_to_Jade_Lt_Blue" x1="-129.54" y1="-493.79" x2="-140.1" y2="-483.23" gradientTransform="translate(128.32 282.57) scale(0.44)" gradientUnits="userSpaceOnUse"><stop offset="0" stop-color="#00bac6"/><stop offset="1" stop-color="#00a99d"/></linearGradient><linearGradient id="GS_Lt_Blue_to_Blue" x1="-208.16" y1="-504.96" x2="-143.95" y2="-504.96" gradientTransform="translate(128.32 282.57) scale(0.44)" gradientUnits="userSpaceOnUse"><stop offset="0" stop-color="#0072bc"/><stop offset="0.68" stop-color="#4eb4e5"/><stop offset="1" stop-color="#6dcff6"/></linearGradient><linearGradient id="GS_Red_to_Yellow" x1="-215.62" y1="-539.72" x2="-137.24" y2="-539.72" gradientTransform="translate(128.32 282.57) scale(0.44)" gradientUnits="userSpaceOnUse"><stop offset="0" stop-color="#febe10"/><stop offset="1" stop-color="#f26522"/></linearGradient><linearGradient id="GS_Lt_Green_to_Jade" x1="-216.24" y1="-473.49" x2="-142.66" y2="-473.49" gradientTransform="translate(128.32 282.57) scale(0.44)" gradientUnits="userSpaceOnUse"><stop offset="0" stop-color="#85c441"/><stop offset="1" stop-color="#00a99d"/></linearGradient></defs><g id="Layer_2" data-name="Layer 2"><g id="Layer_1-2" data-name="Layer 1"><path class="cls-1" d="M71.84,43.19l.09-.6h0s0-.05,0-.07a.57.57,0,0,0-.46-.55l-2.22-.37h-.13a.54.54,0,0,0-.54.46l-.1.6c-.17,1-.88,2.91-2.36,2.91-1.07,0-2.4-.81-4.09-1.84-.7-.42-1.49-.9-2.34-1.36-3.19-1.82-6.77-3.5-11.3-3.5-6.9,0-13.28,3.85-17,10.31a22.46,22.46,0,0,0-3.1,11.31,27.47,27.47,0,0,0,2.13,11c3.53,8.13,10.91,12.61,20.79,12.61,8.23,0,15.1-3.63,18.4-9.74a20.2,20.2,0,0,0,2.28-9.77A10,10,0,0,0,68,56.85h0A15.46,15.46,0,0,0,62,54a11.63,11.63,0,0,0,5.75-2.54C70,49.58,71.31,46.81,71.84,43.19Z"/><path class="cls-2" d="M33.89,51.45l-1.54-1.68a21.29,21.29,0,0,0-3,10.72h1.07A12.92,12.92,0,0,1,33.89,51.45Z"/><path class="cls-3" d="M33.62,68.07a10,10,0,0,1-3.16-7.56v0H29.4A26.37,26.37,0,0,0,31.45,71Z"/><path class="cls-4" d="M67.26,57.75l-2,2c2.73,0,4.39,2.15,4.34,4.82h1A8.78,8.78,0,0,0,67.26,57.75Z"/><path class="cls-5" d="M70.69,64.6h-1c0,2.2-1.24,4.05-3.85,5.43l2.75,3.8A19,19,0,0,0,70.69,64.6Z"/><path class="cls-6" d="M35,57.4a7.4,7.4,0,0,0-.12,1.27C34.87,65,39.57,69,45.52,69c11.3,0,14.65-9.23,19.7-9.23h.08l2-2a16.36,16.36,0,0,0-10.44-3.26C47.88,54.49,43.11,62,39.05,62c-1.76,0-3.12-1.94-3.12-3.82a5.44,5.44,0,0,1,0-.57Z"/><path class="cls-7" d="M42,48.14c6.52,0,11,4.94,16.87,4.94,7,0,10.85-3.4,11.82-10.06l-1-.17c-.3,1.76-1.44,3.88-3.51,3.88s-4-1.71-7-3.35S52.7,40,48.4,40c-6.9,0-12.74,4.08-16,9.75l1.54,1.68A11,11,0,0,1,42,48.14Z"/><path class="cls-8" d="M48.82,72.71c-5.06,0-11.45-1.1-15.2-4.64l-2.17,3C34.56,78.21,41.21,83,51.17,83c6.58,0,13.86-2.62,17.37-9.12L65.79,70C62.55,71.74,57.09,72.71,48.82,72.71Z"/><path class="cls-1" d="M88.05,72.14c-6.54,0-10.16-4.3-10.16-10.66s3.92-10.72,10.28-10.72a12.69,12.69,0,0,1,6.3,1.53l-.69,4.45A10.15,10.15,0,0,0,88.29,55C84.73,55,83,57.6,83,61.45s1.78,6.6,5.34,6.6a5.51,5.51,0,0,0,2.77-.65V63.73H87.53l-.59-3.8h8.63V70a13.5,13.5,0,0,1-7.52,2.18"/><path class="cls-1" d="M105.37,72a17,17,0,0,1-7.2-1.55l.74-4.36A14.63,14.63,0,0,0,105.45,68c1.46,0,2.49-.64,2.49-1.86s-.61-1.7-3.5-2.8c-4.12-1.59-5.91-2.93-5.91-6.34,0-4,3.11-6.09,7-6.09a13,13,0,0,1,6.21,1.38l-.77,4.3a11.22,11.22,0,0,0-5.38-1.68c-1.55,0-2.3.66-2.3,1.61s.57,1.56,3.14,2.54c4.48,1.65,6.27,3.2,6.27,6.48,0,4.48-3.28,6.45-7.37,6.45"/><polygon class="cls-1" points="135.14 51.29 132.93 51.29 132.93 61.45 135.14 61.45 135.14 57.14 137.79 57.14 137.79 55.15 135.14 55.15 135.14 51.29"/><path class="cls-1" d="M129.9,51.73H119.46v2h7.7a6.7,6.7,0,0,1-.74,2h-7v1.86h5.42a12.7,12.7,0,0,1-6.59,2.52l.86,1.67C124.44,61.05,129.46,58.18,129.9,51.73Z"/><path class="cls-1" d="M123.66,67.78h11.48V62.33h-13.8v1.93h11.59V66H121.44V70.5a1.13,1.13,0,0,0,1.11,1.11h12.69V69.68H123.66Z"/><rect class="cls-1" x="153.9" y="51.29" width="2.14" height="11.26"/><polygon class="cls-1" points="152.29 62.55 152.29 51.29 150.14 51.29 150.14 55.64 147.43 55.64 147.43 57.63 150.14 57.63 150.14 62.55 152.29 62.55"/><path class="cls-1" d="M148.15,59.74h-6.24V57.56h4.64V55.7h-4.64v-2h5.52V51.73H139.7v8.84a1.12,1.12,0,0,0,1.1,1.1h7.35Z"/><polygon class="cls-1" points="141.91 65.42 153.82 65.42 153.82 71.61 156.04 71.61 156.04 63.44 141.91 63.44 141.91 65.42"/><path class="cls-1" d="M166.5,51.51v2.56c0,4.42-3.4,7-7.31,7.73l1,1.75a11.4,11.4,0,0,0,7.48-4.87,11.46,11.46,0,0,0,7.49,4.87l1-1.75c-3.9-.71-7.3-3.31-7.3-7.73V51.51Z"/><rect class="cls-1" x="158.59" y="67.63" width="18.11" height="1.99"/><path class="cls-1" d="M0,0H4V18.43H0Z"/><path class="cls-1" d="M10.74,8.57c.66-2.13,2-3.78,6.25-3.78,6.08,0,6.12,2.62,6.12,5,0,.82-.07,4.42,0,5.17a6.82,6.82,0,0,0,.83,3.45H20.15a4.94,4.94,0,0,1-.28-.74L19.64,17a6.28,6.28,0,0,1-4.48,1.78c-2.9,0-4.8-1.62-4.8-3.94,0-3.28,3.26-3.87,5.27-4.23a18.79,18.79,0,0,0,3.7-.84V9.37c0-.88,0-1.87-2.61-1.87a2.26,2.26,0,0,0-2.51,1.66ZM19.33,12a11,11,0,0,1-1.6.42c-.21,0-1.15.2-1.32.25-.69.13-2.23.49-2.23,1.73a2,2,0,0,0,2.12,1.82,3.69,3.69,0,0,0,2.24-.81c.79-.65.79-1.51.79-2.71Z"/><path class="cls-1" d="M28.76,5.1V6.89h0a5.45,5.45,0,0,1,4.43-2.1,4.35,4.35,0,0,1,4.11,2.1,5.79,5.79,0,0,1,4.39-2.1c4.76,0,4.76,3.63,4.76,5.09v8.55H42.67V10.81c0-1.56,0-3.31-2-3.31A2.62,2.62,0,0,0,38.24,9,6.6,6.6,0,0,0,37.77,12v6.41H33.94V11.12c0-2.27,0-3.62-2-3.62a2.79,2.79,0,0,0-2.43,1.28A6.15,6.15,0,0,0,29.05,12v6.48H25.22V5.1Z"/><path class="cls-1" d="M76.29,4.79c5,0,7.47,3.55,7.47,6.93a7,7,0,0,1-7.44,7c-2.28,0-7.48-1-7.48-7.17C68.84,8.42,71.15,4.79,76.29,4.79Zm0,11.07c1.73,0,3.54-1.16,3.54-4.12,0-2.68-1.59-4.07-3.54-4.07S72.77,9,72.77,11.77,74.48,15.86,76.29,15.86Z"/><path class="cls-1" d="M95.56,16.43h-.07a6.47,6.47,0,0,1-5.09,2.32A5.54,5.54,0,0,1,86.1,17a5.29,5.29,0,0,1-.87-3.48V5.1h4.11v6.13c0,2.93.1,3.4.49,3.94a2.6,2.6,0,0,0,2.08.87,3.37,3.37,0,0,0,2.93-1.47c.3-.48.42-1.26.42-3.86V5.1h4.12V18.43H95.56Z"/><path class="cls-1" d="M101.42,18.43V5.1H105V7H105a4.47,4.47,0,0,1,4.33-2.19,5.9,5.9,0,0,1,2.51.64l-1.2,3.1A3.75,3.75,0,0,0,108.88,8c-3.91,0-3.64,2.66-3.64,6.37v4.11Z"/><path class="cls-1" d="M164.22,18.43V5.1h3.55V7h0a4.45,4.45,0,0,1,4.32-2.19,5.8,5.8,0,0,1,2.52.64l-1.21,3.1A3.79,3.79,0,0,0,171.66,8c-3.88,0-3.61,2.66-3.61,6.37v4.11Z"/><path class="cls-1" d="M117.12,0h14.82V3.11h-10.8v4.1h10v3.11h-10v5H132.3v3.11H117.12Z"/><path class="cls-1" d="M143.55,11.62c0-2.19,0-4.12-2.35-4.12a3,3,0,0,0-2.74,1.56,8.61,8.61,0,0,0-.43,3.32v6h-3.81V5.1h3.56v2h.06a5.77,5.77,0,0,1,4.71-2.26,5.91,5.91,0,0,1,3.32,1c1.52,1.08,1.47,3.07,1.5,4.38v8.29h-3.82Z"/><path class="cls-1" d="M162.22,14.78c-.31.83-1.49,4-6.3,4-1.25,0-4.58-.15-6.13-3.2a8.53,8.53,0,0,1-.86-3.7c0-3.62,2.07-7.06,6.63-7.06,5.43,0,6.95,4,6.87,8h-9.59A3.09,3.09,0,0,0,156,16a2.34,2.34,0,0,0,2.43-1.85Zm-3.6-4.17c-.07-2.92-2.24-3.11-2.83-3.11a2.82,2.82,0,0,0-2.87,3.11Z"/><path class="cls-1" d="M179.71,19.52a1.47,1.47,0,0,0,.6,1.05,3.52,3.52,0,0,0,1.62.28c3.18,0,3.18-1.36,3.18-2.91V16h-.06a5.33,5.33,0,0,1-4.25,2.16c-3.68,0-6-3-6-6.74,0-5.52,3.74-6.9,6.11-6.9a5.12,5.12,0,0,1,4.37,2.16h.07V4.81h3.56v12c0,3.72-.55,6.77-6.85,6.77-3.34,0-6.92-.73-6.76-4.52Zm2.15-4.25c1,0,3.35-.52,3.35-4,0-1.7-.68-4.07-3.29-4.07-2.91,0-3.15,3-3.15,4C178.77,13,179.4,15.27,181.86,15.27Z"/><path class="cls-1" d="M200.85,4.79v5.63c0,2.61-.12,3.39-.43,3.88a3.38,3.38,0,0,1-2.91,1.46,2.57,2.57,0,0,1-2.1-.87c-.39-.54-.49-1-.49-4V4.79h-4.1v8.44a5.29,5.29,0,0,0,.88,3.49A5.42,5.42,0,0,0,196,18.48a6.45,6.45,0,0,0,5.12-2.33h0v1.79c0,1.55,0,2.91-3.19,2.91a3.45,3.45,0,0,1-1.61-.28,1.42,1.42,0,0,1-.61-1.05L191.35,19c-.18,3.79,3.39,4.52,6.74,4.52,5.5,0,6.64-2.32,6.83-5.38,0-.45,0-.91,0-1.39v-12Z"/><path class="cls-1" d="M63.4,5.07v5.64c0,2.6-.12,3.38-.42,3.87A3.37,3.37,0,0,1,60.07,16a2.59,2.59,0,0,1-2.1-.86c-.4-.55-.49-1-.49-4V5.07H53.37v8.45A5.36,5.36,0,0,0,54.24,17a5.54,5.54,0,0,0,4.3,1.75,6.43,6.43,0,0,0,5.1-2.32h.06v1.78c0,1.56,0,2.92-3.19,2.92a3.48,3.48,0,0,1-1.62-.28,1.56,1.56,0,0,1-.62-1.05l-4.36-.5c-.16,3.79,3.4,4.53,6.74,4.53,5.49,0,6.63-2.33,6.82-5.39,0-.44,0-.9,0-1.38v-12Z"/></g></g></svg>