<?xml version="1.0" encoding="UTF-8"?>
<svg width="480px" height="56px" viewBox="0 0 480 56" version="1.1" xmlns="http://www.w3.org/2000/svg" xmlns:xlink="http://www.w3.org/1999/xlink">
    <title>type_energy</title>
    <g id="Page-5" stroke="none" stroke-width="1" fill="none" fill-rule="evenodd">
        <g id="ver5_chapter3" transform="translate(-540.000000, -11325.000000)" fill="#FFFFFF">
            <g id="type_energy" transform="translate(540.000000, 11325.000000)">
                <path d="M147.767467,11.7991305 L147.767467,24.8776847 C147.767467,30.9904872 147.484444,32.6963856 146.773333,33.8336512 C145.351111,36.1081824 142.647467,37.245448 139.945244,37.245448 C138.096356,37.245448 136.106667,36.6768152 134.967467,35.2552332 C134.114133,33.9758094 133.829689,32.8385438 133.829689,26.0149503 L133.829689,11.6569723 L124.3008,11.6569723 L124.3008,31.2748036 C124.3008,34.8287586 124.728889,37.1032898 126.291911,39.377821 C128.284444,42.0788267 132.551111,43.5004087 136.247467,43.5004087 C140.9408,43.5004087 145.491911,41.5101939 148.195556,38.0983972 L148.336356,38.0983972 L148.336356,42.2209849 C148.336356,45.9170981 148.336356,49.0445784 140.9408,49.0445784 C138.666667,49.0445784 137.385244,48.6181038 137.1008,48.3337874 C135.822222,47.4808383 135.822222,46.2014145 135.678578,45.9170981 L125.44,44.7798325 C125.011911,53.5936408 133.403022,55.2995392 141.225244,55.2995392 C154.025244,55.2995392 156.728889,49.8975276 157.155556,42.7896177 C157.296356,41.7945103 157.296356,40.6572447 157.296356,39.5199792 L157.296356,11.5148141 L147.767467,11.5148141 L147.767467,11.7991305 Z M470.328889,5.54416974 L470.328889,18.622724 C470.328889,24.7355265 470.044444,26.5835831 469.333333,27.5786905 C467.911111,29.8532217 465.207467,30.9904872 462.506667,30.9904872 C460.8,30.9904872 458.666667,30.4218545 457.669689,29.0002725 C456.817778,27.7208487 456.533333,26.7257413 456.533333,19.7599896 L456.533333,5.40201154 L447.003022,5.40201154 L447.003022,25.1620011 C447.003022,28.7159561 447.429689,30.9904872 448.995556,33.2650184 C450.985244,35.9660242 455.251911,37.3876062 458.951111,37.3876062 C463.644444,37.3876062 468.195556,35.3973914 470.896356,31.9855946 L471.04,31.9855946 L471.04,36.1081824 C471.04,39.6621373 471.04,42.9317759 463.644444,42.9317759 C461.367467,42.9317759 460.088889,42.5053013 459.803022,42.2209849 C458.523022,41.3680357 458.523022,40.0886119 458.3808,39.8042955 L448.1408,38.66703 C447.714133,47.4808383 456.106667,49.1867366 463.928889,49.1867366 C476.728889,49.1867366 479.429689,43.7847251 479.856356,36.6768152 C480,35.6817078 480,34.5444422 480,33.4071766 L480,5.40201154 L470.328889,5.40201154 L470.328889,5.54416974 Z M410.736356,38.8091882 C410.311111,47.6229965 418.7008,49.3288948 426.523022,49.3288948 C441.173333,49.3288948 442.451911,42.2209849 442.451911,33.5493348 L442.451911,5.68632794 L434.203022,5.68632794 L434.203022,9.95107389 L434.062222,9.95107389 C433.066667,8.5294919 430.078578,4.97553694 423.822222,4.97553694 C418.274133,4.97553694 409.6,8.24517551 409.6,21.0394134 C409.6,29.8532217 415.003022,36.6768152 423.536356,36.6768152 C427.518578,36.6768152 431.217778,34.6866004 433.491911,31.7012782 L433.634133,31.7012782 L433.634133,36.2503406 C433.634133,39.8042955 433.634133,43.0739341 426.24,43.0739341 C423.963022,43.0739341 422.684444,42.6474595 422.4,42.3631431 C421.118578,41.5101939 421.118578,40.2307701 420.977778,39.9464537 L410.736356,38.8091882 Z M426.096356,29.9953799 C420.407467,29.9953799 418.844444,24.7355265 418.844444,20.4707806 C418.844444,18.0540912 419.411911,11.2304977 426.24,11.2304977 C432.355556,11.2304977 433.918578,16.7746674 433.918578,20.755097 C433.777778,28.8581143 428.373333,29.9953799 426.096356,29.9953799 L426.096356,29.9953799 Z M369.491911,32.980702 C369.066667,34.402284 367.928889,37.245448 363.803022,37.245448 C358.684444,37.245448 356.551111,33.2650184 356.407467,29.5689053 L378.736356,29.5689053 C378.878578,20.3286224 375.466667,10.9461813 362.666667,10.9461813 C352,10.9461813 347.163022,18.9070404 347.163022,27.4365323 C347.163022,29.9953799 347.733333,32.980702 349.155556,36.1081824 C352.851911,43.2160923 360.533333,43.5004087 363.518578,43.5004087 C374.755556,43.5004087 377.456356,36.1081824 378.167467,34.2601258 L369.491911,32.980702 Z M356.691911,24.5933683 C356.691911,20.4707806 359.251911,17.3433002 363.377778,17.3433002 C364.8,17.3433002 369.777778,17.7697748 370.062222,24.5933683 L356.691911,24.5933683 Z M334.789689,42.9317759 L343.751111,42.9317759 L343.751111,23.5982609 C343.607467,20.6129388 343.751111,15.9217182 340.195556,13.3628706 C337.351111,11.3726559 333.936356,11.0883395 332.514133,11.0883395 C329.1008,11.0883395 324.834133,12.2256051 321.563022,16.3481928 L321.422222,16.3481928 L321.422222,11.7991305 L313.173333,11.7991305 L313.173333,42.9317759 L322.133333,42.9317759 L322.133333,28.8581143 C322.133333,26.2992667 322.274133,22.8874699 323.128889,21.1815716 C324.266667,18.9070404 326.825244,17.4854584 329.528889,17.4854584 C334.933333,17.4854584 334.933333,22.0345207 334.933333,27.0100577 L334.933333,42.9317759 L334.789689,42.9317759 Z M273.207467,42.9317759 L308.622222,42.9317759 L308.622222,35.6817078 L282.595556,35.6817078 L282.595556,24.0247355 L306.062222,24.0247355 L306.062222,16.7746674 L282.595556,16.7746674 L282.595556,7.25006812 L307.767467,7.25006812 L307.767467,0 L273.207467,0 L273.207467,42.9317759 Z M391.963022,42.9317759 L391.963022,33.4071766 C391.963022,24.7355265 391.395556,18.622724 400.355556,18.622724 C402.062222,18.622724 403.767467,19.4756732 404.622222,19.9021478 L407.466667,12.6520797 C405.9008,11.7991305 403.625244,11.0883395 401.634133,11.0883395 C395.945244,11.0883395 393.385244,13.2207124 391.536356,16.2060346 L391.395556,16.2060346 L391.395556,11.7991305 L383.145244,11.7991305 L383.145244,42.9317759 L391.963022,42.9317759 Z M245.474133,42.9317759 L245.474133,33.4071766 C245.474133,24.7355265 244.906667,18.622724 254.007467,18.622724 C255.714133,18.622724 257.422222,19.4756732 258.133333,19.9021478 L260.834133,12.6520797 C259.269689,11.7991305 256.995556,11.0883395 255.003022,11.0883395 C249.314133,11.0883395 246.896356,13.2207124 244.906667,16.2060346 L244.763022,16.2060346 L244.763022,11.7991305 L236.514133,11.7991305 L236.514133,42.9317759 L245.474133,42.9317759 Z M222.862222,42.9317759 L231.822222,42.9317759 L231.822222,11.7991305 L222.151111,11.7991305 L222.151111,24.8776847 C222.151111,30.9904872 221.866667,32.6963856 221.155556,33.8336512 C219.733333,36.1081824 217.029689,37.245448 214.328889,37.245448 C212.622222,37.245448 210.629689,36.6768152 209.491911,35.2552332 C208.64,33.9758094 208.355556,32.8385438 208.355556,26.0149503 L208.355556,11.6569723 L198.684444,11.6569723 L198.684444,31.2748036 C198.684444,34.8287586 198.967467,36.9611316 200.674133,39.377821 C202.666667,42.0788267 206.933333,43.5004087 210.629689,43.5004087 C215.323022,43.5004087 219.874133,41.5101939 222.577778,38.0983972 L222.718578,38.0983972 L222.718578,42.9317759 L222.862222,42.9317759 Z M177.918578,11.0883395 C165.973333,11.0883395 160.567467,19.4756732 160.567467,26.8678995 C160.567467,41.2258775 172.656356,43.6425669 178.062222,43.6425669 C188.869689,43.6425669 195.411911,35.823866 195.411911,27.2943741 C195.269689,19.333515 189.5808,11.0883395 177.918578,11.0883395 L177.918578,11.0883395 Z M177.918578,36.9611316 C173.651911,36.9611316 169.669689,33.9758094 169.669689,27.4365323 C169.669689,20.8972552 173.511111,17.911933 177.918578,17.911933 C182.469689,17.911933 186.167467,21.1815716 186.167467,27.4365323 C186.167467,34.2601258 181.9008,36.9611316 177.918578,36.9611316 L177.918578,36.9611316 Z M58.7363556,11.7991305 L58.7363556,42.9317759 L67.6963556,42.9317759 L67.6963556,27.8630069 C67.6963556,23.3139445 68.1230222,21.8923626 68.8341333,20.4707806 C69.6888889,18.622724 72.1066667,17.4854584 74.5230222,17.4854584 C79.2177778,17.4854584 79.0741333,20.6129388 79.0741333,25.8727921 L79.0741333,42.9317759 L88.0341333,42.9317759 L88.0341333,28.0051651 C88.0341333,24.1668937 88.3185778,22.6031535 89.1733333,20.8972552 C90.0252444,18.9070404 92.4444444,17.4854584 94.8622222,17.4854584 C99.5555556,17.4854584 99.5555556,21.6080462 99.5555556,25.1620011 L99.5555556,42.9317759 L108.514133,42.9317759 L108.514133,23.0296281 C108.514133,19.6178314 108.514133,11.2304977 97.4222222,11.2304977 C91.8741333,11.2304977 88.6030222,14.5001362 87.1808,16.0638764 C86.3288889,14.7844526 84.1955556,11.2304977 77.6519111,11.2304977 C75.2341333,11.2304977 71.2519111,11.5148141 67.2696889,16.0638764 L67.1288889,16.0638764 L67.1288889,11.9412887 L58.7363556,11.9412887 L58.7363556,11.7991305 Z M33.1363556,21.3237298 C33.7052444,19.7599896 34.5585778,17.4854584 38.9674667,17.4854584 C45.0844444,17.4854584 45.0844444,19.7599896 45.0844444,21.8923626 L45.0844444,22.7453117 C43.3777778,23.4561027 41.5288889,23.8825773 36.4074667,24.7355265 C31.7141333,25.5884757 24.1777778,27.0100577 24.1777778,34.5444422 C24.1777778,39.9464537 28.5852444,43.7847251 35.4119111,43.7847251 C40.8177778,43.7847251 44.0888889,41.2258775 45.9363556,39.6621373 L46.5066667,41.3680357 C46.7896889,42.2209849 46.9333333,42.6474595 47.2177778,43.0739341 L56.0341333,43.0739341 C54.7555556,40.5150865 54.3288889,39.0935046 54.0444444,34.9709168 C54.0444444,33.2650184 54.1852444,24.8776847 54.1852444,22.8874699 C54.1852444,17.3433002 54.0444444,11.2304977 39.9630222,11.2304977 C29.8666667,11.2304977 26.8785778,15.068769 25.3141333,20.044306 L33.1363556,21.3237298 Z M45.0844444,29.5689053 C45.0844444,32.4120692 45.0844444,34.402284 43.2341333,35.823866 C41.8119111,36.8189734 40.1066667,37.6719226 37.9733333,37.6719226 C34.5585778,37.6719226 32.9941333,35.113075 32.9941333,33.4071766 C32.9941333,30.5640127 36.5511111,29.7110635 38.2563556,29.4267471 C38.6844444,29.2845889 40.8177778,28.8581143 41.3852444,28.8581143 C43.3777778,28.4316397 44.2296889,28.1473233 45.0844444,27.8630069 L45.0844444,29.5689053 Z M0,42.9317759 L9.38666667,42.9317759 L9.38666667,0 L0,0 L0,42.9317759 Z" id="Fill-1"></path>
            </g>
        </g>
    </g>
</svg>