<?xml version="1.0" encoding="UTF-8"?>
<svg width="31px" height="53px" viewBox="0 0 31 53" version="1.1" xmlns="http://www.w3.org/2000/svg" xmlns:xlink="http://www.w3.org/1999/xlink">
    <title>illust/c1/s2_cup4</title>
    <defs>
        <polygon id="path-1" points="0 0 31 0 31 6.65997149 0 6.65997149"></polygon>
    </defs>
    <g id="Page-5" stroke="none" stroke-width="1" fill="none" fill-rule="evenodd">
        <g id="ver5_chapter1" transform="translate(-1088.000000, -5300.000000)">
            <g id="Group-101" transform="translate(943.000000, 5099.000000)">
                <g id="Group-95" transform="translate(1.000000, 201.000000)">
                    <g id="illust/c1/s2_cup1" transform="translate(144.000000, 0.000000)">
                        <path d="M30.4832041,5.91231402 L30.332607,7.31930332 L30.0106829,10.3220318 L26.0385583,47.400421 L25.7858356,49.7606526 C25.55994,51.5630168 20.6922607,53 15.4985926,53 C10.8583331,53 6.35251357,51.8538673 5.41702328,50.3237714 C5.30036645,50.1334058 5.23004717,49.9374856 5.20830103,49.7371219 L5.20789456,49.7334863 L4.96319973,47.449098 L0.988534601,10.3149625 L0.667118591,7.31071919 L0.525565477,5.98815733 C0.560420264,6.1925606 0.671183289,6.39201537 0.850639715,6.58642065 C2.30722431,8.16115393 8.31200296,9.34101726 15.4985926,9.34101726 C18.4956978,9.34101726 21.2866212,9.13560409 23.6281922,8.78193796 C26.9023066,8.28819904 29.2970236,7.50461952 30.146139,6.58642065 C30.3482561,6.36787882 30.4624741,6.14337859 30.4801556,5.91231402 L30.4832041,5.91231402 Z" id="Fill-1" fill="#F2F2F2"></path>
                        <path d="M30.449965,6.25038733 L30.335747,7.31916193 L30.0141278,10.3219914 L26.0421047,47.4006835 L26.0233055,47.5775166 C24.446609,49.0208622 20.0924027,50.057724 15.5017326,50.057724 C10.9614647,50.057724 6.54019085,49.0432819 4.98544379,47.6260927 L4.96674618,47.4491586 L0.991979433,10.3151241 L0.670360188,7.31067879 L0.55888584,6.27068627 C0.611422064,6.43267384 0.7106007,6.59132875 0.853779694,6.74644902 C2.31036429,8.32077834 8.31524455,9.50104563 15.5017326,9.50104563 C18.4991426,9.50104563 21.2899644,9.29532949 23.6317387,8.94156237 C26.9057514,8.44822741 29.3004684,7.66444591 30.1496855,6.74644902 C30.299368,6.58446145 30.4006806,6.41924221 30.449965,6.25038733" id="Fill-3" fill="#B3B3B3"></path>
                        <path d="M30.4832041,5.91231402 L30.332607,7.31930332 L30.0106829,10.3220318 L26.0385583,47.400421 C24.4783238,48.8525527 20.1070458,49.8977967 15.4980845,49.8977967 C10.9397287,49.8977967 6.50117991,48.8756793 4.96319973,47.449098 L0.988534601,10.3149625 L0.667118591,7.31071919 L0.525565477,5.98815733 C0.560420264,6.1925606 0.671183289,6.39201537 0.850639715,6.58642065 C2.30722431,8.16115393 8.31200296,9.34101726 15.4985926,9.34101726 C18.4956978,9.34101726 21.2866212,9.13560409 23.6281922,8.78193796 C26.9023066,8.28819904 29.2970236,7.50461952 30.146139,6.58642065 C30.3482561,6.36787882 30.4624741,6.14337859 30.4801556,5.91231402 L30.4832041,5.91231402 Z" id="Fill-5" fill="#009999"></path>
                        <path d="M30.3328712,7.31951539 L30.0109472,10.3216379 L30.0109472,10.3220419 C28.7985493,11.1805558 26.5504663,11.9033395 23.6735746,12.381223 C21.3020264,12.7748811 18.5027704,13.00231 15.504649,13.00231 C11.8672522,13.00231 8.52220882,12.667529 5.87883397,12.1067328 C4.73838127,11.8647614 3.72871024,11.5810812 2.88213523,11.2642763 C2.10567625,10.9733248 1.46599437,10.6549041 0.988697189,10.3151745 L0.667077944,7.31072929 L0.667077944,7.30951741 C1.11947885,7.78315937 1.92337454,8.22276778 3.00478749,8.60885162 C3.81874331,8.90000509 4.78990132,9.1611646 5.88726822,9.38475592 L5.88757307,9.38475592 C8.51225031,9.91990064 11.858818,10.2406441 15.504649,10.2406441 C18.6004248,10.2406441 21.4808731,10.0097815 23.8865648,9.61178089 C27.0620086,9.08693713 29.4101848,8.27316167 30.3328712,7.31951539" id="Fill-7" fill="#000000"></path>
                        <g id="Group-11" transform="translate(0.000000, 5.773685)">
                            <mask id="mask-2" fill="white">
                                <use xlink:href="#path-1"></use>
                            </mask>
                            <g id="Clip-10"></g>
                            <path d="M31.0000305,2.51686672 C31.0000305,4.00424386 28.0692815,5.30731469 23.668636,6.03888449 C21.2968846,6.43244157 18.4975269,6.65997149 15.4993039,6.65997149 C11.8620087,6.65997149 8.51767668,6.3256954 5.87338727,5.76449532 C4.7336459,5.52302881 3.72367002,5.23894462 2.87729823,4.92203877 C1.0653574,4.24429651 0,3.41375675 0,2.51686672 C0,2.4924272 0.000609704729,2.46798768 0.00274367128,2.44354816 L0.00274367128,2.43940758 L0.0189008466,2.31236246 L0.020323491,2.30398031 L0.242256012,0.0439305442 L0.242256012,0.0719047068 C0.242256012,0.281256473 30.7563518,0.0237325928 30.7542179,0 L30.7556405,0.0173702382 L30.9874299,2.34801185 L30.9908849,2.37517809 C30.9965755,2.42264328 31.0000305,2.47010846 31.0000305,2.51686672" id="Fill-9" fill="#333333" mask="url(#mask-2)"></path>
                        </g>
                        <path d="M30.7576932,5.8455497 C30.7576932,6.12478637 30.6397153,6.39553991 30.4150391,6.65659843 C30.4016256,6.6726558 30.3876024,6.68800625 30.3728679,6.70335669 C30.3588447,6.71870713 30.3441101,6.73405758 30.329274,6.74940802 C30.3146411,6.76475846 30.2990936,6.78010891 30.2836478,6.79545935 C30.2683035,6.81091078 30.2520447,6.82616023 30.2358875,6.84151068 C30.2035732,6.87231255 30.1692265,6.90301344 30.1333555,6.93230047 C30.115166,6.94765091 30.0975862,6.96229443 30.0785837,6.97764487 C30.0588699,6.99440917 30.0385465,7.01046654 30.018223,7.02581698 C29.9999318,7.03904664 29.9816407,7.05308422 29.9634512,7.0670208 C29.9037001,7.1123652 29.840494,7.15629575 29.7744427,7.19962035 C29.7302391,7.22890738 29.6845112,7.25748749 29.6381737,7.2868755 C29.5912264,7.31616253 29.5427549,7.34484362 29.493572,7.3727168 C29.4436779,7.4012969 29.3930724,7.42927106 29.3405362,7.45785116 C29.288508,7.48653225 29.2351589,7.51440543 29.180387,7.54157167 C28.9886349,7.63932976 28.7807256,7.7335532 28.5573704,7.82565586 C28.5250561,7.8389865 28.493453,7.85221616 28.460529,7.86544582 C28.428113,7.87877647 28.3959003,7.8912992 28.3621633,7.90452886 C28.3291376,7.91715258 28.296112,7.93038223 28.262375,7.94300595 C28.084646,8.01137602 27.8985845,8.07772629 27.7048,8.14185479 C27.6415939,8.16356758 27.5769652,8.18447246 27.5116252,8.20467041 C27.4737219,8.21729413 27.4358186,8.22910994 27.3972039,8.24102673 C27.3593006,8.25284253 27.3205844,8.26475932 27.2812584,8.27657512 C27.2574799,8.28425034 27.2334982,8.29192556 27.2089068,8.29889386 C27.1548463,8.31495123 27.1000745,8.33171553 27.0445914,8.34706597 C26.9251909,8.38200843 26.8023354,8.41624395 26.6773459,8.44967156 C26.5107949,8.49501596 26.3401792,8.5390475 26.1653972,8.58156419 C26.0853226,8.60186313 26.0031141,8.62135415 25.9209056,8.64023924 C25.9034274,8.64437982 25.8858475,8.64862139 25.8675564,8.65276197 C25.743888,8.68214998 25.6188985,8.71002316 25.4910637,8.73729039 C25.3527624,8.76799128 25.212327,8.79727831 25.0690464,8.82585841 C25.0395774,8.83222076 25.0100067,8.83848213 24.980436,8.84403656 C24.9622465,8.84757121 24.9439554,8.85100486 24.9250545,8.8545395 C24.5885991,8.92149571 24.2402545,8.98431134 23.8813416,9.04359232 C23.7922231,9.05833683 23.703003,9.07298034 23.6124618,9.08691693 C23.3216327,9.13296826 23.0238935,9.17629286 22.7204638,9.21749668 C22.4817644,9.24961143 22.2386955,9.28031231 21.9921715,9.30959934 L19.9498639,9.50713531 C18.5424622,9.61458841 17.0478726,9.67255653 15.5000356,9.67255653 C12.8796263,9.67255653 10.4131674,9.50642838 8.25847088,9.21466897 C8.07088506,9.18881559 7.88624614,9.16306321 7.7043509,9.13579597 C7.52174433,9.10862973 7.34127173,9.07994864 7.1635428,9.05136854 C6.98581388,9.02208151 6.81103185,8.99198656 6.63889188,8.96128567 C6.38119002,8.91452741 6.12836579,8.8663553 5.88255317,8.81616339 C5.60798281,8.76031606 5.34174507,8.70164101 5.08333189,8.64165309 C4.95407448,8.61165913 4.82766237,8.58025132 4.7026729,8.54944944 C4.39080893,8.47128337 4.09164714,8.38897672 3.80793121,8.30454928 C3.63721389,8.25354946 3.47147582,8.20123676 3.31203803,8.14811615 C3.20523808,8.11256776 3.10138505,8.07631243 2.99956436,8.03995612 C2.96369339,8.02743339 2.92863537,8.01420373 2.89276441,8.00158001 C2.82325807,7.97572664 2.75446306,7.94997425 2.68627774,7.92412087 C2.68627774,7.92412087 2.68627774,7.92341394 2.68556642,7.92341394 C2.14272598,7.71335525 1.67996009,7.48925898 1.30702403,7.25334691 C1.23741607,7.20941636 1.17075502,7.16477889 1.10754896,7.1193335 C0.960102037,7.01390019 0.829320373,6.90715402 0.718455729,6.79758013 C0.670695526,6.75082188 0.626390315,6.70406362 0.585743333,6.65659843 C0.529447263,6.59095509 0.47965471,6.52531175 0.436772144,6.45906247 C0.308937386,6.25950671 0.242276336,6.05490146 0.242276336,5.8455497 C0.242276336,5.83646062 0.242276336,5.82666461 0.242987658,5.81696959 L0.242987658,5.81626267 C0.268290404,4.98844963 1.34076102,4.22345222 3.14497893,3.60014344 C3.34435238,3.53177338 3.55297302,3.46400925 3.76931658,3.39917383 C4.26510814,3.24980998 4.80449359,3.11024213 5.38391632,2.98178316 C6.02583378,2.83868068 6.71764541,2.70951478 7.45010403,2.59509338 C7.72609703,2.55176878 8.00849194,2.51066595 8.29566287,2.47228984 C10.4412138,2.18396408 12.8944624,2.01995672 15.5000356,2.01995672 C17.0310041,2.01995672 18.5087252,2.07651098 19.902815,2.1818433 C20.9359597,2.25940343 21.9226652,2.36402882 22.8504325,2.49248779 C23.0877093,2.52530946 23.3209214,2.559444 23.5498655,2.59509338 C24.9425327,2.81212037 26.1850093,3.08438876 27.2299416,3.39917383 C27.4469965,3.46400925 27.6549058,3.53106645 27.8543809,3.60014344 C29.6284184,4.21234335 30.6953001,4.96188932 30.7549495,5.77364499 C30.7549495,5.77919943 30.7555592,5.78556178 30.7555592,5.79111622 C30.7569819,5.80929437 30.7576932,5.82737154 30.7576932,5.8455497" id="Fill-12" fill="#4D4D4D"></path>
                        <path d="M28.4551229,5.69825614 C28.4551229,5.81035477 28.4275846,5.92103954 28.3743371,6.03101738 C28.2600174,6.26107205 28.0300571,6.48314853 27.6981745,6.69361118 C27.1398882,7.04808522 26.2933132,7.3707475 25.2232814,7.64786339 C24.2245851,7.90528628 23.0315961,8.12382811 21.6958347,8.28874439 C19.8550345,8.51809212 17.7441351,8.64756099 15.5000152,8.64756099 C12.7529906,8.64756099 10.2059491,8.45295373 8.1096826,8.12089941 C7.24999893,7.9849672 6.46673159,7.82651427 5.77674907,7.64786339 C5.56345404,7.59282397 5.35899972,7.53566377 5.16460553,7.47708971 C4.38062686,7.24127863 3.74876953,6.97729141 3.30185596,6.69361118 C2.96844909,6.48314853 2.73848879,6.26107205 2.6255918,6.03031046 C2.57254749,5.92103954 2.54419622,5.81035477 2.54419622,5.69825614 C2.54419622,5.6808859 2.54480592,5.66280873 2.54633018,5.64614542 C2.54988679,5.59918518 2.5586259,5.55212396 2.57183617,5.50506273 L2.5784413,5.48415785 C2.80545469,4.76066723 4.17678225,4.10968726 6.2834137,3.6242295 C7.16342086,3.42174504 8.17217734,3.24804266 9.27940113,3.10988867 C11.1260951,2.87912708 13.2457336,2.74824435 15.5000152,2.74824435 C17.8962564,2.74824435 20.1410876,2.89649731 22.0664336,3.15472812 C25.6535297,3.63584332 28.1326908,4.49890178 28.425349,5.49859939 C28.4355108,5.53192601 28.4428272,5.56585856 28.4479081,5.59989211 C28.452989,5.63241081 28.4551229,5.66492952 28.4551229,5.69825614" id="Fill-14" fill="#333333"></path>
                        <path d="M28.4260502,5.49863978 L28.4253389,5.49863978 L20.5651271,5.50076057 L8.72059658,5.50348729 L5.73720972,5.50429521 L2.571826,5.50490115 L2.5782279,5.48399627 L3.14494845,3.60013334 L3.44756523,2.59508329 L27.5517336,2.59508329 C27.5523433,2.59649714 27.5523433,2.59720407 27.5530546,2.59861793 L27.8543504,3.60013334 L28.4260502,5.49863978 Z" id="Fill-16" fill="#333333"></path>
                        <path d="M27.5706345,2.74863821 C27.5706345,2.85336459 27.5446204,2.95667711 27.4948278,3.05847478 C27.4378204,3.17441102 27.3486003,3.28812549 27.2299111,3.39911323 C26.7615563,3.8382167 25.8296226,4.23601535 24.5590996,4.56473701 C23.4445593,4.85296177 22.068659,5.08756098 20.5151313,5.24944756 C18.9876177,5.40790049 17.2894885,5.49656949 15.5000051,5.49656949 C11.8914676,5.49656949 8.65241127,5.13644002 6.44080898,4.56473701 C5.16967624,4.23601535 4.23774256,3.8382167 3.76928609,3.39911323 C3.65049529,3.28812549 3.5620881,3.1737041 3.50457262,3.05786885 C3.45467845,2.95667711 3.42866438,2.85336459 3.42866438,2.74863821 C3.42866438,2.73258084 3.4293757,2.71581654 3.43069673,2.69975917 C3.43364364,2.66481671 3.43913098,2.62997525 3.44756523,2.59503279 C3.79590986,1.14815254 9.05908432,1.75126109e-12 15.5000051,1.75126109e-12 C17.3322694,1.75126109e-12 19.0691149,0.0928095865 20.6247766,0.258937736 C24.5380648,0.677742258 27.3030757,1.55998877 27.551632,2.59503279 C27.5523433,2.59644665 27.5523433,2.59715358 27.5530546,2.59856743 C27.5573226,2.61815944 27.5607776,2.63694354 27.5636229,2.65643456 C27.5685005,2.68723644 27.5706345,2.7172304 27.5706345,2.74863821" id="Fill-18" fill="#4D4D4D"></path>
                        <path d="M24.4906602,2.59508329 C24.4906602,2.67294639 24.4716577,2.75030454 24.4341609,2.82604686 C24.4292833,2.83665078 24.4235927,2.84715372 24.4179021,2.85765665 C24.3345758,3.00580863 24.1812351,3.14971903 23.9650947,3.28666114 C23.5773225,3.53236922 22.9895672,3.75626351 22.2463371,3.948649 C21.5534077,4.12770383 20.7247173,4.27928946 19.7971532,4.39381184 C18.5192121,4.55317368 17.0534819,4.64295357 15.4951783,4.64295357 C12.8057707,4.64295357 10.3918481,4.37482577 8.74381617,3.948649 C7.9999764,3.75626351 7.41222104,3.53236922 7.02505854,3.28666114 C6.80962953,3.14971903 6.65628879,3.00580863 6.57225116,2.85765665 C6.56656058,2.84644679 6.56097162,2.83584287 6.55528104,2.82533993 C6.51859714,2.75030454 6.49949306,2.67294639 6.49949306,2.59508329 C6.49949306,2.58316649 6.49949306,2.57054277 6.5009157,2.55862598 C6.58495334,1.44369907 10.5797387,0.546405079 15.4951783,0.546405079 C17.1593673,0.546405079 18.7177726,0.64961661 20.0550583,0.828671449 C22.6293333,1.17415741 24.3819295,1.80312161 24.4857826,2.52630926 C24.4892376,2.54943592 24.4906602,2.57195663 24.4906602,2.59508329" id="Fill-20" fill="#333333"></path>
                        <path d="M24.4179224,2.85766675 C24.3345961,3.00581872 24.1812554,3.14972913 23.9651151,3.28667124 C23.5773428,3.53237932 22.9894859,3.75627361 22.2463574,3.94865909 C21.553428,4.12771393 20.7247377,4.27929956 19.7971735,4.39372095 C18.5192324,4.55318378 17.0534006,4.64296367 15.495097,4.64296367 C12.805791,4.64296367 10.3918684,4.37473488 8.74383649,3.94865909 C7.99999672,3.75627361 7.41213975,3.53237932 7.02507886,3.28667124 C6.80964986,3.14972913 6.65630912,3.00581872 6.57227148,2.85766675 C6.81666146,1.7835397 10.7188733,0.930479223 15.495097,0.930479223 C20.2719303,0.930479223 24.1735325,1.78424663 24.4179224,2.85766675" id="Fill-22" fill="#4D4D4D"></path>
                        <path d="M21.8542563,4.31329271 L24.2911445,3.71371652 C24.597013,3.63847916 24.999723,3.67018994 25.1905606,3.78461133 C25.3812966,3.89893174 25.2880117,4.05263815 24.9821432,4.12787552 L22.545255,4.7274517 C22.2392848,4.80268907 21.8366765,4.77097829 21.6458389,4.65665788 C21.4550013,4.54233748 21.5482862,4.38853008 21.8542563,4.31329271" id="Fill-24" fill="#1A1A1A"></path>
                    </g>
                </g>
            </g>
        </g>
    </g>
</svg>