<?xml version="1.0" encoding="UTF-8"?>
<svg width="31px" height="53px" viewBox="0 0 31 53" version="1.1" xmlns="http://www.w3.org/2000/svg" xmlns:xlink="http://www.w3.org/1999/xlink">
    <title>illust/c1/s2_cup1</title>
    <defs>
        <polygon id="path-1" points="0 0 29.9575272 0 29.9575272 47.0879069 0 47.0879069"></polygon>
        <polygon id="path-3" points="0 0 31 0 31 6.6599956 0 6.6599956"></polygon>
    </defs>
    <g id="Page-5" stroke="none" stroke-width="1" fill="none" fill-rule="evenodd">
        <g id="ver5_chapter1" transform="translate(-944.000000, -5300.000000)">
            <g id="Group-101" transform="translate(943.000000, 5099.000000)">
                <g id="illust/c1/s2_cup1" transform="translate(1.000000, 201.000000)">
                    <g id="Group-3" transform="translate(0.520657, 5.912093)">
                        <mask id="mask-2" fill="white">
                            <use xlink:href="#path-1"></use>
                        </mask>
                        <g id="Clip-2"></g>
                        <path d="M29.9575272,0 L29.9211482,0.3384179 L29.8069302,1.40719637 L29.4852094,4.40993568 L25.5132893,41.4887621 L25.49449,41.6655958 L25.2601603,43.8490022 C25.034468,45.650969 20.1666886,47.0879574 14.9729206,47.0879574 C10.3328659,47.0879574 5.82694619,45.9419215 4.8914562,44.4117192 C4.77459617,44.2214538 4.70437853,44.025331 4.68293725,43.8250676 L4.68232755,43.8219369 L4.45663526,41.714172 L4.43793765,41.5373383 L0.463172207,4.40306835 L0.141553068,1.39861221 L0.0300787568,0.358615925 L0,0.0762475424 C0.0348547756,0.28024759 0.145821,0.480107042 0.324870897,0.674513028 C1.78155663,2.24894904 7.78643493,3.42911961 14.9729206,3.42911961 C17.9702281,3.42911961 20.7612522,3.22340273 23.102924,2.86973532 C26.3769357,2.37629758 28.7716519,1.59261423 29.6208687,0.674513028 C29.8229857,0.456071393 29.9372037,0.23126738 29.9548851,0 L29.9575272,0 Z" id="Fill-1" fill="#E6E6E6" mask="url(#mask-2)"></path>
                    </g>
                    <path d="M30.4417647,6.25046046 L30.3275467,7.31923892 L30.005826,10.3220792 L26.0339058,47.4009056 L26.0151066,47.5777393 C24.4384107,49.0210902 20.0842058,50.0578548 15.4935371,50.0578548 C10.9532707,50.0578548 6.53209996,49.043409 4.97735341,47.6262146 L4.95855419,47.4493809 L0.983890361,10.3151109 L0.662169604,7.31075575 L0.550695293,6.27065848 C0.6032315,6.43264664 0.702410103,6.59140311 0.84558905,6.74652394 C2.30217317,8.32085896 8.30705146,9.50102953 15.4935371,9.50102953 C18.4909462,9.50102953 21.2818687,9.29531265 23.6235406,8.94154425 C26.8975523,8.4482075 29.2922684,7.66442316 30.1414852,6.74652394 C30.2911677,6.58453578 30.3924802,6.41931594 30.4417647,6.25046046" id="Fill-4" fill="#B3B3B3"></path>
                    <path d="M30.4783876,5.91233543 L30.3277906,7.31932981 L30.0058666,10.3220691 L26.0337432,47.4005926 C24.4735093,48.8527295 20.1022327,49.8979773 15.4932729,49.8979773 C10.9349186,49.8979773 6.49637127,48.8758563 4.9583916,47.4492698 L0.98382939,10.3149998 L0.662311868,7.31074565 L0.5207588,5.98817901 C0.555715193,6.19258302 0.666376565,6.39203851 0.845832932,6.5864445 C2.30241705,8.16118347 8.30719373,9.34105107 15.493781,9.34105107 C18.4908852,9.34105107 21.2818077,9.13563717 23.6234796,8.78196976 C26.8974913,8.28822905 29.2922075,7.50464669 30.1413226,6.5864445 C30.3434397,6.36790187 30.4576577,6.14340083 30.4753391,5.91233543 L30.4783876,5.91233543 Z" id="Fill-6" fill="#E6E6E6"></path>
                    <path d="M30.3278414,7.31954189 L30.0059174,10.3216753 L30.0059174,10.3220792 C28.7936216,11.1805963 26.5455394,11.9033826 23.6685469,12.3812678 C21.2969995,12.7749273 18.4977444,13.0023571 15.499624,13.0023571 C11.86233,13.0023571 8.51728775,12.6675748 5.87381214,12.1067767 C4.73335982,11.8648043 3.72368912,11.5812241 2.877216,11.2643171 C2.10065566,10.9733645 1.46097399,10.6549427 0.983676964,10.3152119 L0.662159442,7.31075575 L0.662159442,7.30954387 C1.11445859,7.78318755 1.91835401,8.22279755 2.99986823,8.60888279 C3.81372215,8.90003731 4.78487985,9.16119777 5.88224639,9.3847899 L5.88255124,9.3847899 C8.50722762,9.91993656 11.8537942,10.2406812 15.499624,10.2406812 C18.5953988,10.2406812 21.4758462,10.0098178 23.8816386,9.61181569 C27.0570815,9.08697003 29.4051552,8.27319162 30.3278414,7.31954189" id="Fill-8" fill="#000000"></path>
                    <g id="Group-12" transform="translate(0.000000, 5.773706)">
                        <mask id="mask-4" fill="white">
                            <use xlink:href="#path-3"></use>
                        </mask>
                        <g id="Clip-11"></g>
                        <path d="M31.0000203,2.51687583 C31.0000203,4.00425835 28.0692723,5.3073339 23.6686282,6.03890635 C21.2968776,6.43246486 18.4974192,6.6599956 15.4992988,6.6599956 C11.8621065,6.6599956 8.51757227,6.3257183 5.87338535,5.76451619 C4.73354273,5.5230488 3.7236688,5.23896359 2.87739891,4.92205659 C1.06535705,4.24431187 0,3.41376911 0,2.51687583 C0,2.49243622 0.000711321951,2.46799661 0.00274367038,2.443557 L0.00274367038,2.43941641 L0.0190024578,2.31237083 L0.0203234843,2.30398865 L0.242255933,0.0439307032 L0.242255933,0.0719049672 C0.242255933,0.281257491 30.7563417,0.0237326788 30.7542078,0 L30.7556304,0.0173703011 L30.9873181,2.34802035 L30.9908748,2.37518669 C30.9964637,2.42265205 31.0000203,2.4701174 31.0000203,2.51687583" id="Fill-10" fill="#333333" mask="url(#mask-4)"></path>
                    </g>
                    <path d="M30.7577339,5.84557086 C30.7577339,6.12470756 30.6397561,6.39556307 30.4149783,6.65662253 C30.4016665,6.67267996 30.3875416,6.68803046 30.3728071,6.70338096 C30.3587839,6.71873146 30.3440494,6.73408196 30.3293149,6.74943245 C30.3145803,6.76478295 30.2991345,6.78013345 30.283587,6.79548395 C30.2682428,6.81083445 30.2520856,6.82618495 30.2359284,6.84153545 C30.2036141,6.87233743 30.1691658,6.90303843 30.1333965,6.93232557 C30.1151053,6.94767606 30.0975255,6.96231963 30.0785231,6.97767013 C30.0589109,6.99443449 30.0385874,7.01049192 30.0181623,7.02584242 C29.9998712,7.03907213 29.9816817,7.05310975 29.9633905,7.06704639 C29.9037411,7.11239095 29.8405351,7.15632166 29.7744837,7.19964642 C29.7302802,7.22893356 29.6845523,7.25751376 29.6382148,7.28690189 C29.5911659,7.31618902 29.5426944,7.34487022 29.4936132,7.37274349 C29.443719,7.40132369 29.3931136,7.42929796 29.3404757,7.45787816 C29.2885492,7.48655936 29.2350985,7.51443263 29.1803267,7.54159897 C28.9885746,7.63935741 28.7806654,7.7335812 28.5574119,7.82568419 C28.5250975,7.83901489 28.4934945,7.85224459 28.4604689,7.8654743 C28.4281545,7.87880499 28.3958402,7.89132777 28.3621032,7.90455747 C28.3291791,7.91718124 28.2961535,7.93041095 28.2624165,7.94303471 C28.0846876,8.01140502 27.8986261,8.07775553 27.7048417,8.14188426 C27.6415341,8.16359714 27.5769054,8.18450209 27.511667,8.20470012 C27.4737637,8.21732388 27.4358604,8.22913973 27.3971442,8.24105656 C27.3592409,8.25287241 27.3206262,8.26478924 27.2813003,8.27660509 C27.2574202,8.28428033 27.2335401,8.29195558 27.2089487,8.2989239 C27.1548882,8.31498133 27.1000148,8.33174569 27.0445317,8.34709619 C26.9252329,8.38203877 26.8022758,8.41627442 26.6772863,8.44970216 C26.510837,8.49504672 26.3402214,8.53907841 26.1653378,8.58159526 C26.0852632,8.60179328 26.0030548,8.62138536 25.9208463,8.64027052 C25.9033681,8.64441111 25.8857882,8.6486527 25.8674971,8.65279329 C25.7439303,8.68218142 25.6189409,8.71005469 25.4911062,8.73732202 C25.3527033,8.76792203 25.212268,8.79731016 25.0689874,8.82589036 C25.0395184,8.83225274 25.0100493,8.83851413 24.9804786,8.84406858 C24.9621875,8.84760324 24.943998,8.8510369 24.9250971,8.85457156 C24.5886419,8.92152801 24.2402973,8.98434386 23.8813846,9.04362507 C23.7921645,9.05836962 23.703046,9.07301319 23.6124033,9.08694983 C23.3216758,9.13300132 23.0239368,9.17632609 22.7205072,9.21753006 C22.4817062,9.24964491 22.238739,9.28034591 21.9921135,9.30963305 L19.9499082,9.50716973 C18.5424053,9.61462322 17.0479179,9.67259155 15.4999797,9.67259155 C12.8796728,9.67259155 10.4131132,9.5064628 8.25841736,9.21470233 C8.07093322,9.18884886 7.88619275,9.16309638 7.70429756,9.13582905 C7.52169106,9.1086627 7.34121852,9.07998151 7.16348965,9.0514013 C6.98586239,9.02201318 6.81097881,8.99201911 6.63894052,8.96131812 C6.38123874,8.91455969 6.12831297,8.8663874 5.88260205,8.81619531 C5.60793016,8.76034777 5.34179413,8.70167251 5.08327941,8.64168438 C4.95412367,8.61169031 4.8277116,8.58028238 4.70262055,8.5494804 C4.3908583,8.47131404 4.09159499,8.38900709 3.80798077,8.30457935 C3.6372635,8.25357934 3.47142387,8.20126645 3.31208775,8.14814565 C3.20528784,8.11259713 3.10133322,8.07624068 2.99951256,8.03998523 C2.96374323,8.02736146 2.9285836,8.01423275 2.89281427,8.00160898 C2.82330796,7.97575551 2.75441134,7.94990204 2.68632767,7.92414956 C2.68632767,7.92414956 2.68632767,7.92344263 2.68561635,7.92344263 C2.14267447,7.71338317 1.67990873,7.48928609 1.30697279,7.25337317 C1.23746647,7.20934147 1.17070383,7.16480483 1.10749779,7.11935927 C0.960050914,7.01392559 0.829370909,6.90717903 0.718404685,6.79760474 C0.670644497,6.75084632 0.626440919,6.70408789 0.585692333,6.65662253 C0.529497898,6.59097895 0.479705362,6.52533537 0.43682281,6.45908585 C0.308988094,6.25942838 0.242327065,6.05492338 0.242327065,5.84557086 C0.242327065,5.83648175 0.242327065,5.82668571 0.24293677,5.81699065 L0.24293677,5.81618273 C0.268239508,4.98846769 1.34070977,4.22346751 3.14492709,3.60015648 C3.34430048,3.53178616 3.55302266,3.46402179 3.76926453,3.39918613 C4.26515755,3.24982174 4.80454282,3.11025339 5.38386374,2.98179396 C6.025781,2.83869095 6.7175924,2.70952459 7.45005078,2.59510278 C7.72614531,2.55177802 8.00843851,2.51067504 8.29571096,2.47229879 C10.4412612,2.18397199 12.8944074,2.01996403 15.4999797,2.01996403 C17.0310494,2.01996403 18.5086683,2.0765185 19.9027577,2.1818512 C20.935902,2.25941161 21.9226072,2.36403738 22.8503742,2.49249682 C23.0877525,2.5253186 23.3209645,2.55945327 23.5499086,2.59510278 C24.9425753,2.81213055 26.1849499,3.08439992 27.2299835,3.39918613 C27.4470383,3.46402179 27.6549476,3.53107923 27.8544226,3.60015648 C29.6283579,4.2123586 30.6952392,4.96190729 30.7548886,5.77366589 C30.7548886,5.77922035 30.7555999,5.78558273 30.7555999,5.79113718 C30.7570226,5.80931541 30.7577339,5.82739264 30.7577339,5.84557086" id="Fill-13" fill="#4D4D4D"></path>
                    <path d="M28.4551136,5.69827677 C28.4551136,5.8103758 28.4274737,5.92106098 28.3743278,6.03103922 C28.2601098,6.26109472 28.0300479,6.483172 27.6981654,6.69363541 C27.1398793,7.04811074 26.2933046,7.37077418 25.2232731,7.64789108 C24.2245771,7.9053149 23.0315886,8.12385753 21.6958276,8.2887744 C19.855028,8.51812296 17.7441293,8.6475923 15.5000102,8.6475923 C12.7529864,8.6475923 10.2060474,8.45298433 8.10967994,8.12092881 C7.24999656,7.98499611 6.46683109,7.82654261 5.77674718,7.64789108 C5.56345221,7.59285146 5.35889634,7.53569105 5.16460383,7.47711678 C4.38062543,7.24130485 3.74886992,6.97731667 3.30185488,6.69363541 C2.96844812,6.483172 2.73848789,6.26109472 2.62569256,6.03033229 C2.57254664,5.92106098 2.54419538,5.8103758 2.54419538,5.69827677 C2.54419538,5.68090646 2.54480509,5.66282923 2.54632935,5.64616586 C2.54998758,5.59920546 2.55872667,5.55214406 2.57183532,5.50508266 L2.57833884,5.48407672 C2.80545377,4.76068447 4.1768825,4.10970214 6.28341164,3.62424262 C7.16341851,3.42175743 8.17227628,3.24805442 9.27939808,3.10989993 C11.1260915,2.8791375 13.2457293,2.7482543 15.5000102,2.7482543 C17.8962506,2.7482543 20.141081,2.8965078 22.0663247,3.15473954 C25.6534197,3.63585649 28.1326815,4.49891807 28.4253397,5.49861929 C28.4355015,5.53194603 28.4427163,5.56587872 28.4478988,5.59991239 C28.4529797,5.63243121 28.4551136,5.66495003 28.4551136,5.69827677" id="Fill-15" fill="#333333"></path>
                    <path d="M28.4260409,5.49865969 L28.4253296,5.49865969 L20.5651204,5.50078048 L8.72059372,5.50350722 L5.73720784,5.50421415 L2.57182516,5.50492108 L2.57812544,5.48401612 L3.14494742,3.60014638 L3.44766572,2.59509268 L27.5517246,2.59509268 C27.5523343,2.59650654 27.5523343,2.59721347 27.5530456,2.59862733 L27.8544429,3.60014638 L28.4260409,5.49865969 Z" id="Fill-17" fill="#333333"></path>
                    <path d="M27.5706254,2.74864816 C27.5706254,2.85337492 27.5446114,2.95668781 27.4947172,3.05848586 C27.4379131,3.17442252 27.348693,3.2881374 27.2300038,3.39912554 C26.7615475,3.83823059 25.8296141,4.23603068 24.5590915,4.56475353 C23.4445516,4.85297934 22.0686517,5.0875794 20.5152262,5.24946656 C18.9877131,5.40792006 17.2894828,5.49658939 15.5,5.49658939 C11.8915654,5.49658939 8.65251005,5.13645862 6.44080687,4.56475353 C5.16967454,4.23603068 4.23774117,3.83823059 3.76928486,3.39912554 C3.65059571,3.2881374 3.56208693,3.17371559 3.50446986,3.05787992 C3.45467732,2.95668781 3.42866326,2.85337492 3.42866326,2.74864816 C3.42866326,2.73259073 3.42937458,2.71582637 3.43079722,2.69976894 C3.4335409,2.66482636 3.43923147,2.62998477 3.44766572,2.59504219 C3.79601024,1.1481567 9.05908135,0 15.5,0 C17.3323653,0 19.0691087,0.0928099225 20.6247698,0.258938674 C24.5380567,0.677744711 27.3030667,1.55999442 27.551623,2.59504219 C27.5523343,2.59645605 27.5523343,2.59716298 27.5530456,2.59857684 C27.5573135,2.61816892 27.5607685,2.63695309 27.5636138,2.65644418 C27.5684915,2.68724617 27.5706254,2.71724023 27.5706254,2.74864816" id="Fill-19" fill="#4D4D4D"></path>
                    <path d="M24.490703,2.59509268 C24.490703,2.67295606 24.4715989,2.75021351 24.4342037,2.82605709 C24.4292244,2.83656006 24.4235339,2.84716403 24.4179449,2.857667 C24.334517,3.00581951 24.1812779,3.14973043 23.9651377,3.28657205 C23.577264,3.53238201 22.9895088,3.75627711 22.2463806,3.94866329 C21.5533498,4.12771878 20.7247613,4.27930495 19.7971975,4.39382775 C18.5192568,4.55319016 17.0535271,4.64297038 15.4951224,4.64297038 C12.8057157,4.64297038 10.3918955,4.37484161 8.74386411,3.94866329 C7.99992297,3.75627711 7.4121678,3.53238201 7.02510704,3.28657205 C6.80957649,3.14973043 6.65633742,3.00581951 6.57219819,2.857667 C6.56660924,2.8464571 6.56091866,2.83585313 6.5553297,2.82535016 C6.5185442,2.75021351 6.49954174,2.67295606 6.49954174,2.59509268 C6.49954174,2.58317585 6.49954174,2.57055208 6.50086276,2.55863525 C6.58490037,1.44370429 10.5797861,0.546407057 15.4951224,0.546407057 C17.1594125,0.546407057 18.7178173,0.649618962 20.0551025,0.828674449 C22.6292751,1.17416166 24.3818707,1.80312814 24.4857237,2.52631841 C24.4892803,2.54944515 24.490703,2.57196594 24.490703,2.59509268" id="Fill-21" fill="#333333"></path>
                    <path d="M24.4179144,2.8576771 C24.3345881,3.00582961 24.1812475,3.14974053 23.9651072,3.28658215 C23.5773351,3.53239211 22.9894783,3.75628721 22.2463501,3.94867339 C21.5534209,4.12772888 20.7247309,4.27931505 19.797167,4.39373686 C18.519328,4.55320026 17.0534967,4.64298048 15.4950919,4.64298048 C12.8057868,4.64298048 10.391865,4.37475072 8.74383363,3.94867339 C7.9999941,3.75628721 7.41213732,3.53239211 7.02507656,3.28658215 C6.80964762,3.14974053 6.65630693,3.00582961 6.57226933,2.8576771 C6.81665923,1.78354616 10.7189714,0.930482592 15.4950919,0.930482592 C20.2719236,0.930482592 24.1735245,1.78425309 24.4179144,2.8576771" id="Fill-23" fill="#4D4D4D"></path>
                    <path d="M21.8542593,4.31330833 L24.2911467,3.71372997 C24.5971168,3.63849233 24.999725,3.67020323 25.1905625,3.78462504 C25.3812984,3.89894585 25.2880136,4.05265282 24.9821452,4.12789046 L22.5451562,4.72746882 C22.2392877,4.80270646 21.8366795,4.77099556 21.645842,4.65667474 C21.4551061,4.54225293 21.5483909,4.38854597 21.8542593,4.31330833" id="Fill-25" fill="#1A1A1A"></path>
                </g>
            </g>
        </g>
    </g>
</svg>