<?xml version="1.0" encoding="UTF-8"?>
<svg width="31px" height="53px" viewBox="0 0 31 53" version="1.1" xmlns="http://www.w3.org/2000/svg" xmlns:xlink="http://www.w3.org/1999/xlink">
    <title>illust/c1/s2_cup3</title>
    <defs>
        <path d="M30.4754715,5.91234657 C30.4578917,6.14341123 30.3435722,6.36791154 30.1414553,6.58635247 L30.1414553,6.58635247 C29.2923407,7.50465268 26.8976261,8.28813151 23.6236165,8.78197161 L23.6236165,8.78197161 C21.2820478,9.13553688 18.4911272,9.34105111 15.4940249,9.34105111 L15.4940249,9.34105111 C8.30744232,9.34105111 2.30256797,8.16108635 0.846086421,6.58635247 L0.846086421,6.58635247 C0.666528554,6.39194711 0.555867255,6.19259326 0.521012502,5.98808892 L0.521012502,5.98808892 L0.662565478,7.31065128 L0.983981171,10.3149967 L4.95854077,47.4491464 C6.49651944,48.8757282 10.9350639,49.897846 15.4935168,49.897846 L15.4935168,49.897846 C20.1023719,49.897846 24.4737473,48.8525006 26.0339802,47.4004693 L26.0339802,47.4004693 L30.006101,10.321965 L30.3280248,7.31923541 L30.4786217,5.91234657 L30.4754715,5.91234657 Z" id="path-1"></path>
        <polygon id="path-3" points="2.88813893e-15 0 24.1418447 0 24.1418447 5.49656149 2.88813893e-15 5.49656149"></polygon>
    </defs>
    <g id="Page-5" stroke="none" stroke-width="1" fill="none" fill-rule="evenodd">
        <g id="ver5_chapter1" transform="translate(-1040.000000, -5300.000000)">
            <g id="Group-101" transform="translate(943.000000, 5099.000000)">
                <g id="Group-95" transform="translate(1.000000, 201.000000)">
                    <g id="illust/cup2/emerard" transform="translate(96.000000, 0.000000)">
                        <g id="Group-9" transform="translate(0.521002, 5.912296)">
                            <path d="M5.46355871,43.4572218 L2.22582654,6.62159791 C2.20194646,6.35003635 2.47448421,6.14745082 2.72903568,6.24914754 C3.47602486,6.54757239 4.27270492,6.77793011 5.11165781,6.95011771 C5.36570119,7.00222844 5.55186419,7.21864958 5.56050166,7.47627454 L6.78488917,43.8635037 C6.7938315,44.1290059 6.54161722,44.3289657 6.28361076,44.2592827 C6.18402575,44.2324194 6.08809897,44.1995978 5.99572879,44.1605147 C5.70530639,44.0376101 5.5039008,43.7683713 5.46355871,43.4572218" id="Fill-1" fill="#FFFFFF"></path>
                            <path d="M29.9576092,0 L29.8070123,1.40698983 L29.4850885,4.40971941 L25.5129677,41.4881227 L25.2602453,43.8483552 C25.0343499,45.6507201 20.1665738,47.0877039 14.9730124,47.0877039 C10.3327575,47.0877039 5.82694237,45.9415707 4.891453,44.4114743 C4.77469466,44.2211086 4.70437545,44.0251884 4.68262933,43.8248246 L4.68222286,43.821189 L4.43752827,41.5367998 L0.462968669,4.40265012 L0.141552975,1.3984057 L0,0.0758433362 C0.0348547527,0.280246682 0.145516052,0.479701528 0.325073918,0.674106883 C1.78165708,2.24884076 7.78642982,3.42870454 14.9730124,3.42870454 C17.9701147,3.42870454 20.7610353,3.2232913 23.102604,2.86962503 C26.3767152,2.37588592 28.7713282,1.5923061 29.6205444,0.674106883 C29.8226613,0.455564966 29.9368792,0.231064652 29.9545607,0 L29.9576092,0 Z" id="Fill-3" fill="#F2F2F2"></path>
                            <path d="M29.9207932,0.338123934 L29.8065753,1.40689894 L29.4849564,4.40972951 L25.5129372,41.4884358 L25.494138,41.6652689 C23.9174431,43.1086151 19.5632411,44.1453763 14.9724738,44.1453763 C10.432312,44.1453763 6.01104253,43.1309338 4.456297,41.713744 L4.4375994,41.5369109 L0.462836567,4.40276121 L0.141217638,1.39841579 L0.0297433998,0.358321893 C0.0822795723,0.520309524 0.181458111,0.679065482 0.324636964,0.834185808 C1.78122013,2.40851573 7.78609448,3.58868247 14.9724738,3.58868247 C17.9699826,3.58868247 20.7608016,3.38296626 23.1025735,3.02919901 C26.3765831,2.53586386 28.7712977,1.75208206 29.6205139,0.834185808 C29.7701963,0.672198176 29.8715088,0.506978871 29.9207932,0.338123934" id="Fill-5" fill="#B3B3B3"></path>
                            <path d="M29.9576092,0 L29.8070123,1.40698983 L29.4850885,4.40971941 L25.5129677,41.4881227 C23.9527348,42.940255 19.5814611,43.9854994 14.9725043,43.9854994 C10.414153,43.9854994 5.97550694,42.9633817 4.43752827,41.5367998 L0.462968669,4.40265012 L0.141552975,1.3984057 L0,0.0758433362 C0.0348547527,0.280246682 0.145516052,0.479701528 0.325073918,0.674106883 C1.78165708,2.24884076 7.78642982,3.42870454 14.9730124,3.42870454 C17.9701147,3.42870454 20.7610353,3.2232913 23.102604,2.86962503 C26.3767152,2.37588592 28.7713282,1.5923061 29.6205444,0.674106883 C29.8226613,0.455564966 29.9368792,0.231064652 29.9545607,0 L29.9576092,0 Z" id="Fill-7" fill="#E6E6E6"></path>
                        </g>
                        <mask id="mask-2" fill="white">
                            <use xlink:href="#path-1"></use>
                        </mask>
                        <g id="Clip-11"></g>
                        <path d="M18.7873824,5.4479248 L17.7151161,54.7351865 L13.426254,54.7351865 L12.3540893,5.4479248 L18.7873824,5.4479248 Z M8.84370759,5.63347335 L10.648635,52.149777 L7.97711479,52.3189349 L5.10002262,5.80263126 L8.84370759,5.63347335 Z M22.2251178,5.63347335 L25.9688028,5.80263126 L23.091609,52.3189349 L20.4201904,52.149777 L22.2251178,5.63347335 Z M2.11660821,5.8191128 L6.26269791,49.5644585 L3.60022159,49.9026733 L-1.08189965,6.15722663 L2.11660821,5.8191128 Z M28.879571,5.8191128 L32.0781805,6.15722663 L27.3959576,49.9026733 L24.7334813,49.5644585 L28.879571,5.8191128 Z" id="Combined-Shape" fill="#3E9EFF" mask="url(#mask-2)"></path>
                        <g id="Group-45">
                            <path d="M30.3280756,7.31949799 L30.0061518,10.3216216 L30.0061518,10.3220256 C28.7937551,11.1805398 26.5456744,11.9033238 23.6687854,12.3812075 C21.2972396,12.7748657 18.4979863,13.0022948 15.4998679,13.0022948 C11.8624747,13.0022948 8.51743459,12.6675136 5.87406233,12.1067173 C4.73361076,11.8647457 3.72394072,11.5811664 2.87736654,11.2642604 C2.10090833,10.9734098 1.46122708,10.654888 0.983930363,10.3151583 L0.662311434,7.31071187 L0.662311434,7.3095 C1.1147119,7.78314214 1.91860679,8.22275071 3.0001203,8.6088347 C3.8139737,8.89998828 4.78513076,9.16114789 5.88249657,9.3847393 L5.88280143,9.3847393 C8.50747609,9.91988422 11.8540404,10.2406278 15.4998679,10.2406278 C18.5956406,10.2406278 21.4760862,10.0097651 23.8817754,9.61176436 C27.0572161,9.08692039 29.40539,8.27314462 30.3280756,7.31949799" id="Fill-26" fill="#000000"></path>
                            <path d="M31,8.29053506 C31,9.77791277 28.0691522,11.0809841 23.6685111,11.8125542 C21.2968636,12.2061114 18.4974071,12.4336414 15.4991871,12.4336414 C11.8619971,12.4336414 8.51756669,12.0993652 5.87327988,11.5381649 C4.73353963,11.2966983 3.72356474,11.012614 2.8772954,10.695708 C1.06535635,10.0179655 0,9.18742544 0,8.29053506 C0,8.26609553 0.00060970413,8.241656 0.00274366858,8.21721647 L0.00274366858,8.21307589 L0.018900828,8.08603073 L0.020323471,8.07764858 L0.242154157,5.81759795 L0.242154157,5.84557212 C0.242154157,6.05492397 30.7563216,5.79739999 30.7541876,5.77366739 L30.7556103,5.79103763 L30.9872978,8.12168013 L30.9907528,8.14884638 C30.9964434,8.19631159 31,8.24377679 31,8.29053506" id="Fill-28" fill="#333333"></path>
                            <path d="M30.7576629,5.84553173 C30.7576629,6.12476851 30.6396852,6.39552215 30.4149076,6.65658077 C30.4015957,6.67263815 30.3874709,6.6879886 30.3727364,6.70333905 C30.3587132,6.7186895 30.3439787,6.73403994 30.3292442,6.74939039 C30.3145096,6.76474084 30.2989622,6.78009129 30.283618,6.79544174 C30.2681721,6.81079219 30.2519134,6.82614264 30.2357562,6.84149309 C30.2035435,6.87229497 30.1690952,6.90299587 30.1332243,6.93228291 C30.1150348,6.94763336 30.097455,6.96227688 30.0784525,6.97762733 C30.0588404,6.99439164 30.0385169,7.01044901 30.0181934,7.02579946 C29.9998007,7.03902913 29.9816112,7.05306671 29.9633201,7.0670033 C29.9036707,7.11234772 29.8404647,7.15627828 29.7744134,7.1996029 C29.7302099,7.22888994 29.684482,7.25747005 29.6381445,7.28685808 C29.5911973,7.31614512 29.5426242,7.34482623 29.493543,7.37269941 C29.4435473,7.40127952 29.3930435,7.42925369 29.3404057,7.45783381 C29.2883776,7.48651491 29.2350285,7.51438809 29.1802567,7.54155435 C28.9885048,7.63931247 28.7805957,7.73353595 28.5573423,7.82563864 C28.5249264,7.83896929 28.493425,7.85219896 28.4603994,7.86542862 C28.4280851,7.87875927 28.3957708,7.89128201 28.3621354,7.90451167 C28.3291098,7.9171354 28.2959825,7.93036506 28.2623472,7.94298878 C28.0846184,8.01135887 27.8984554,8.07770917 27.7046711,8.14183769 C27.6414651,8.1635505 27.5768365,8.18445538 27.5115981,8.20465334 C27.4736949,8.21727707 27.4357916,8.22909287 27.3970754,8.24100967 C27.3591721,8.25282548 27.3205575,8.26474227 27.2812316,8.27655808 C27.2573515,8.2842333 27.2333698,8.29190853 27.20888,8.29887682 C27.1548196,8.3149342 27.1000479,8.33169851 27.0445648,8.34704895 C26.9251644,8.38199142 26.8022074,8.41622696 26.677218,8.44965459 C26.5107688,8.494999 26.3400517,8.53903056 26.1652698,8.58154726 C26.0851953,8.60174522 26.0029869,8.62133724 25.9207785,8.64022233 C25.9033003,8.64436291 25.8857205,8.64860448 25.8674293,8.65274506 C25.7438626,8.6821331 25.6188733,8.71000628 25.4910387,8.73727352 C25.3527374,8.76787343 25.2122006,8.79726146 25.0689202,8.82584157 C25.0394511,8.83220393 25.0098805,8.8384653 24.9804115,8.84401974 C24.9622219,8.84755438 24.9439308,8.85098803 24.92503,8.85452268 C24.5885749,8.92147891 24.240129,8.98429456 23.8813181,9.04357557 C23.7920981,9.05832008 23.7028781,9.0729636 23.612337,9.08690019 C23.3215081,9.13295154 23.0238709,9.17627616 22.7203399,9.21748 C22.4816407,9.24959475 22.238572,9.28029565 21.9920483,9.30958269 L19.9498443,9.50711873 C18.5423423,9.61457187 17.0478559,9.67254002 15.4999187,9.67254002 C12.879512,9.67254002 10.4130555,9.5064118 8.25846276,9.21465229 C8.07087712,9.1887989 7.88623839,9.1630465 7.70424171,9.13577926 C7.52173694,9.108613 7.34126451,9.0799319 7.16343414,9.05135179 C6.98580701,9.02196376 6.81092354,8.99196979 6.63878374,8.96126889 C6.38108213,8.91451061 6.12825815,8.86633848 5.88244577,8.81614655 C5.60787567,8.7602992 5.34173982,8.70162413 5.08332689,8.64163619 C4.95396799,8.61164222 4.827556,8.58023439 4.70266828,8.5494325 C4.390703,8.4712664 4.0915415,8.38895972 3.80782585,8.30453225 C3.63710869,8.2535324 3.47137079,8.20121969 3.31203477,8.14809906 C3.20523493,8.11255065 3.10128038,8.07619432 2.99945979,8.03993899 C2.96358886,8.02731526 2.92863249,8.01418659 2.89276157,8.00156286 C2.8232553,7.97570948 2.75435873,7.94995708 2.6862751,7.92410369 C2.6862751,7.92410369 2.6862751,7.92339676 2.68556378,7.92339676 C2.14262225,7.71333799 1.67985682,7.48924163 1.30692113,7.25332947 C1.23731324,7.20939891 1.17065225,7.16476142 1.10744626,7.11931601 C0.959999476,7.01388267 0.829319557,6.90713645 0.718455023,6.79756253 C0.670593249,6.75080425 0.626389699,6.70404598 0.58564114,6.65658077 C0.529446743,6.5909374 0.479552621,6.52529404 0.436771715,6.45904473 C0.308937082,6.25938791 0.24217448,6.05488357 0.24217448,5.84553173 C0.24217448,5.83644264 0.24217448,5.82664663 0.242885802,5.81695161 L0.242885802,5.8161437 C0.268188523,4.98843133 1.34065809,4.22343363 3.14487422,3.60012462 C3.34424747,3.53175453 3.5528679,3.46399037 3.76921125,3.39915493 C4.26500233,3.24979102 4.80448886,3.11022312 5.38380941,2.9817641 C6.02572624,2.83866156 6.71753719,2.70949561 7.4500967,2.59507418 C7.72608944,2.55174955 8.00838245,2.51064671 8.29555309,2.47227058 C10.4412035,2.18394472 12.8943481,2.01993729 15.4999187,2.01993729 C17.0309874,2.01993729 18.5086054,2.07649158 19.9026938,2.18182393 C20.9358375,2.2593841 21.9226436,2.36400952 22.8504101,2.49246854 C23.0876866,2.52529023 23.3207968,2.55942478 23.5497407,2.59507418 C24.9425082,2.81210125 26.184882,3.08436973 27.2299148,3.39915493 C27.4469695,3.46399037 27.6548786,3.5310476 27.8543535,3.60012462 C29.6283893,4.21232476 30.6951683,4.96187102 30.7548176,5.77362699 C30.7548176,5.77918143 30.755529,5.78554379 30.755529,5.79109823 C30.7569516,5.80927639 30.7576629,5.82735356 30.7576629,5.84553173" id="Fill-30" fill="#4D4D4D"></path>
                            <path d="M28.455095,5.69823811 C28.455095,5.81033678 28.427455,5.9210216 28.3743092,6.03099948 C28.2599896,6.26105424 28.029928,6.4831308 27.6980457,6.69359353 C27.1397599,7.04806771 26.2932874,7.37073011 25.223155,7.64784611 C24.2244596,7.90526909 23.0314719,8.12381101 21.6958134,8.28872735 C19.8549134,8.51807517 17.7441177,8.64754409 15.5,8.64754409 C12.7528764,8.64754409 10.205939,8.45293675 8.10957301,8.12088231 C7.24989019,7.98495004 6.46672523,7.82649705 5.77664178,7.64784611 C5.56344857,7.59280667 5.35889283,7.53564644 5.16449883,7.47707236 C4.38052094,7.24126119 3.74876584,6.97727387 3.30185271,6.69359353 C2.96844617,6.4831308 2.7384861,6.26105424 2.62558922,6.03029256 C2.57244334,5.9210216 2.5440921,5.81033678 2.5440921,5.69823811 C2.5440921,5.68086786 2.54480342,5.66279069 2.54622606,5.64612737 C2.54988429,5.59916712 2.55862338,5.55210588 2.57173202,5.50504463 L2.57833715,5.48403875 C2.80545193,4.76064885 4.17677814,4.10966863 6.28330591,3.62421068 C7.1633122,3.42172614 8.1721693,3.2480237 9.27929038,3.10986966 C11.1259826,2.87910797 13.245619,2.7482252 15.5,2.7482252 C17.8961372,2.7482252 20.1410678,2.89647822 22.0663102,3.15470913 C25.6534029,3.63582451 28.1325615,4.4988833 28.4252195,5.49858128 C28.4354828,5.53190792 28.4426976,5.56584049 28.4477785,5.59987405 C28.452961,5.63239276 28.455095,5.66491148 28.455095,5.69823811" id="Fill-32" fill="#333333"></path>
                            <path d="M28.4259206,5.49862168 L28.4252093,5.49862168 L20.5650053,5.50074247 L8.72048639,5.50346919 L5.73710246,5.50417612 L2.57172186,5.50488305 L2.57812375,5.48397816 L3.14484374,3.60011452 L3.44756184,2.59506408 L27.5516049,2.59506408 C27.5522146,2.59647793 27.5522146,2.59718486 27.5530275,2.59859872 L27.854323,3.60011452 L28.4259206,5.49862168 Z" id="Fill-34" fill="#333333"></path>
                            <g id="Group-38" transform="translate(3.428661, 0.000000)">
                                <mask id="mask-4" fill="white">
                                    <use xlink:href="#path-3"></use>
                                </mask>
                                <g id="Clip-37"></g>
                                <path d="M24.1418447,2.74862916 C24.1418447,2.85335558 24.1159323,2.95666814 24.0660382,3.05846585 C24.0091325,3.17440214 23.9199124,3.28811665 23.8012233,3.39910443 C23.3327673,3.83820806 22.4008346,4.23600686 21.1303128,4.56472865 C20.0157736,4.85295352 18.6399763,5.08755282 17.0864501,5.24943946 C15.5589381,5.40789245 13.8607088,5.49656149 12.0712272,5.49656149 C8.46279494,5.49656149 5.22374175,5.13643188 3.01214163,4.56472865 C1.74101014,4.23600686 0.80907738,3.83820806 0.340519756,3.39910443 C0.221830686,3.28811665 0.13332197,3.17369521 0.0758065468,3.05775892 C0.0259124255,2.95666814 2.88813893e-15,2.85335558 2.88813893e-15,2.74862916 C2.88813893e-15,2.73257178 0.000711321485,2.71580748 0.0020323471,2.6997501 C0.00487763304,2.66480763 0.0104665876,2.62996615 0.018900828,2.59502368 C0.367245121,1.14814288 5.63031278,-1.00989795e-05 12.0712272,-1.00989795e-05 C13.9035914,-1.00989795e-05 15.6404352,0.0927995229 17.1959937,0.258927736 C21.109278,0.677732417 23.8742862,1.55997927 24.1228423,2.59502368 C24.1235536,2.59643754 24.1235536,2.59714447 24.1243665,2.59855832 C24.1285328,2.61815034 24.1319878,2.63693445 24.1349347,2.65642548 C24.1397108,2.68722736 24.1418447,2.71722133 24.1418447,2.74862916" id="Fill-36" fill="#4D4D4D" mask="url(#mask-4)"></path>
                            </g>
                            <path d="M24.4906361,2.59507418 C24.4906361,2.67293731 24.4715321,2.7501945 24.4340353,2.82603784 C24.4291576,2.83654078 24.4234671,2.8471447 24.4177765,2.85764764 C24.3344503,3.00579967 24.1812113,3.14971013 23.9649695,3.2865513 C23.5771977,3.53236046 22.9895446,3.75625484 22.2463152,3.9486404 C21.5532849,4.12769531 20.7245953,4.27928099 19.7971337,4.39380342 C18.5191939,4.55316532 17.0534652,4.64294524 15.4950614,4.64294524 C12.8056565,4.64294524 10.3918378,4.37481734 8.74370595,3.9486404 C7.99986691,3.75625484 7.41211213,3.53236046 7.02495001,3.2865513 C6.80952122,3.14971013 6.65628225,3.00579967 6.57214308,2.85764764 C6.56645251,2.84643778 6.56086355,2.83583385 6.5552746,2.82533091 C6.51848911,2.7501945 6.49938505,2.67293731 6.49938505,2.59507418 C6.49938505,2.58315738 6.49938505,2.57053365 6.50090931,2.55861686 C6.58494686,1.44368952 10.5796267,0.546395188 15.4950614,0.546395188 C17.1593504,0.546395188 18.7176526,0.649606759 20.0550386,0.828661666 C22.6292094,1.17414776 24.3818039,1.8031122 24.4856569,2.52630012 C24.4891119,2.54942679 24.4906361,2.57194751 24.4906361,2.59507418" id="Fill-39" fill="#333333"></path>
                            <path d="M24.4177968,2.85764764 C24.3344706,3.00579967 24.1812316,3.14971013 23.9649899,3.2865513 C23.577218,3.53236046 22.9894633,3.75625484 22.2463355,3.9486404 C21.5533052,4.12769531 20.7246157,4.27928099 19.7970524,4.39370243 C18.5192142,4.55316532 17.0533839,4.64294524 15.4949801,4.64294524 C12.8056768,4.64294524 10.3918582,4.37471635 8.74372628,3.9486404 C7.99988724,3.75625484 7.41203084,3.53236046 7.02497033,3.2865513 C6.80954154,3.14971013 6.65630257,3.00579967 6.5721634,2.85764764 C6.81655314,1.78352018 10.7188628,0.93045938 15.4949801,0.93045938 C20.2718087,0.93045938 24.1734071,1.78422711 24.4177968,2.85764764" id="Fill-41" fill="#4D4D4D"></path>
                            <path d="M21.8541332,4.31327416 L24.291019,3.71369774 C24.5969888,3.63846034 24.9995968,3.67017114 25.1904342,3.78459258 C25.3812716,3.89891303 25.2879869,4.05261949 24.982017,4.12785689 L22.5451312,4.72743331 C22.239263,4.8026707 21.8365534,4.77095991 21.645716,4.65663946 C21.4549802,4.54221802 21.548265,4.38851155 21.8541332,4.31327416" id="Fill-43" fill="#1A1A1A"></path>
                        </g>
                    </g>
                </g>
            </g>
        </g>
    </g>
</svg>