<?xml version="1.0" encoding="UTF-8"?>
<svg width="414px" height="163px" viewBox="0 0 414 163" version="1.1" xmlns="http://www.w3.org/2000/svg" xmlns:xlink="http://www.w3.org/1999/xlink">
    <title>illust/c1/s2_top_calendar</title>
    <defs>
        <polygon id="path-1" points="0 0 168 0 168 101 0 101"></polygon>
        <polygon id="path-3" points="0 0 168 0 168 101 0 101"></polygon>
        <polygon id="path-5" points="0 0 14 0 14 16 0 16"></polygon>
        <polygon id="path-7" points="0 0 14 0 14 16 0 16"></polygon>
        <polygon id="path-9" points="0 0 14 0 14 16 0 16"></polygon>
        <polygon id="path-11" points="0 0 14 0 14 16 0 16"></polygon>
        <polygon id="path-13" points="0 0 14 0 14 16 0 16"></polygon>
        <polygon id="path-15" points="0 0 14 0 14 16 0 16"></polygon>
        <polygon id="path-17" points="0 0 9.46666667 0 9.46666667 17.5899278 0 17.5899278"></polygon>
        <polygon id="path-19" points="0 0 14.9965139 0 14.9965139 3.241843 0 3.241843"></polygon>
    </defs>
    <g id="Page-5" stroke="none" stroke-width="1" fill="none" fill-rule="evenodd">
        <g id="ver5_chapter1" transform="translate(-943.000000, -5099.000000)">
            <g id="illust/c1/s2_top_calendar" transform="translate(943.000000, 5099.000000)">
                <g id="Group-99">
                    <g id="Group-117" transform="translate(0.000000, 50.000000)">
                        <g id="Group-3" transform="translate(0.000000, 9.000000)">
                            <mask id="mask-2" fill="white">
                                <use xlink:href="#path-1"></use>
                            </mask>
                            <g id="Clip-2"></g>
                            <path d="M6.92852866,101.000193 L147.988157,101.000193 C151.416115,101.000193 154.328396,98.4895995 154.838296,95.0956136 L167.92161,7.96672832 C168.551282,3.77302341 165.307412,0 161.071471,0 L20.0118425,0 C16.5838849,0 13.6716036,2.5105933 13.1617041,5.9045792 L0.0783901895,93.0334645 C-0.55128184,97.2271694 2.6925882,101.000193 6.92852866,101.000193" id="Fill-1" fill="#4F526C" mask="url(#mask-2)"></path>
                        </g>
                        <g id="Group-6" transform="translate(13.000000, 9.000000)">
                            <mask id="mask-4" fill="white">
                                <use xlink:href="#path-3"></use>
                            </mask>
                            <g id="Clip-5"></g>
                            <path d="M161.071771,101.000193 L20.0122171,101.000193 C16.5838761,101.000193 13.6715964,98.4895995 13.1616971,95.0956136 L0.0783901479,7.96672832 C-0.551281548,3.77302341 2.69258677,0 6.92852499,0 L147.988079,0 C151.41642,0 154.3287,2.5105933 154.838214,5.9045792 L167.921521,93.0334645 C168.551578,97.2271694 165.307709,101.000193 161.071771,101.000193" id="Fill-4" fill="#FFFFFF" mask="url(#mask-4)"></path>
                        </g>
                        <path d="M15.2793783,31 L169,31 L166.491387,13.967062 C165.986304,10.5369366 163.098975,8 159.700836,8 L19.8682587,8 C15.6691659,8 12.4535137,11.8128092 13.0777083,16.0515588 L15.2793783,31 Z" id="Fill-7" fill="#CC4E5E"></path>
                        <path d="M38.8500124,14.7448165 C39.3199709,16.0603155 38.6487148,17.4652686 37.3509795,17.8824697 C36.052848,18.2996709 34.6199898,17.5708844 34.1500313,16.2550094 C33.6800728,14.9395103 34.3509326,13.5345573 35.6490641,13.1173562 C36.9467994,12.7005309 38.3800539,13.4293174 38.8500124,14.7448165" id="Fill-9" fill="#2F3452"></path>
                        <g id="Group-13" transform="translate(28.000000, 0.000000)">
                            <mask id="mask-6" fill="white">
                                <use xlink:href="#path-5"></use>
                            </mask>
                            <g id="Clip-12"></g>
                            <path d="M7,-0.000115147401 C3.14018692,-0.000115147401 0,3.58864551 0,7.99994243 C0,8.45247171 0.0348144505,8.8957892 0.0983221293,9.32797578 L1.93468875,9.32797578 C1.85549544,8.89962745 1.81111658,8.45630996 1.81111658,7.99994243 C1.81111658,4.59042789 4.13871126,1.81652701 7,1.81652701 C9.86128874,1.81652701 12.1888834,4.59042789 12.1888834,7.99994243 C12.1888834,8.45630996 12.1445046,8.89962745 12.0653113,9.32797578 C11.7030114,11.2916228 10.5545171,12.9048379 9.03568891,13.6813152 C8.41017653,14.0014249 7.72306936,14.1833578 7,14.1833578 C6.32704815,14.1833578 5.68546756,14.0252221 5.09515221,13.7457977 C4.77837897,14.2712537 4.65518938,14.9233718 4.77914412,15.5789443 C5.47772859,15.8476216 6.22298737,16 7,16 C7.90020222,16 8.75908619,15.8011788 9.55025414,15.4457572 C11.8028639,14.4339954 13.4904083,12.1264414 13.9016779,9.32797578 C13.9651855,8.8957892 14,8.45247171 14,7.99994243 C14,3.58864551 10.8598131,-0.000115147401 7,-0.000115147401" id="Fill-11" fill="#345BA8" mask="url(#mask-6)"></path>
                        </g>
                        <path d="M60.8500124,14.7448165 C61.3199709,16.0603155 60.6487148,17.4652686 59.3509795,17.8824697 C58.052848,18.2996709 56.6199898,17.5708844 56.1500313,16.2550094 C55.6800728,14.9395103 56.3509326,13.5345573 57.6490641,13.1173562 C58.9467994,12.7005309 60.3800539,13.4293174 60.8500124,14.7448165" id="Fill-14" fill="#2F3452"></path>
                        <g id="Group-18" transform="translate(52.000000, 0.000000)">
                            <mask id="mask-8" fill="white">
                                <use xlink:href="#path-7"></use>
                            </mask>
                            <g id="Clip-17"></g>
                            <path d="M7,-0.000115147401 C3.14018692,-0.000115147401 0,3.58864551 0,7.99994243 C0,8.45247171 0.0348144505,8.8957892 0.0983221293,9.32797578 L1.93468875,9.32797578 C1.85549544,8.89962745 1.81111658,8.45630996 1.81111658,7.99994243 C1.81111658,4.59042789 4.13871126,1.81652701 7,1.81652701 C9.86128874,1.81652701 12.1888834,4.59042789 12.1888834,7.99994243 C12.1888834,8.45630996 12.1445046,8.89962745 12.0653113,9.32797578 C11.7030114,11.2916228 10.5545171,12.9048379 9.03568891,13.6813152 C8.41017653,14.0014249 7.72306936,14.1833578 7,14.1833578 C6.32704815,14.1833578 5.68546756,14.0252221 5.09515221,13.7457977 C4.77837897,14.2712537 4.65518938,14.9233718 4.77914412,15.5789443 C5.47772859,15.8476216 6.22298737,16 7,16 C7.90020222,16 8.75908619,15.8011788 9.55025414,15.4457572 C11.8028639,14.4339954 13.4904083,12.1264414 13.9016779,9.32797578 C13.9651855,8.8957892 14,8.45247171 14,7.99994243 C14,3.58864551 10.8598131,-0.000115147401 7,-0.000115147401" id="Fill-16" fill="#345BA8" mask="url(#mask-8)"></path>
                        </g>
                        <path d="M83.8500124,14.7448165 C84.3199709,16.0603155 83.6487148,17.4652686 82.3509795,17.8824697 C81.052848,18.2996709 79.6199898,17.5708844 79.1500313,16.2550094 C78.6800728,14.9395103 79.3509326,13.5345573 80.6490641,13.1173562 C81.9467994,12.7005309 83.3800539,13.4293174 83.8500124,14.7448165" id="Fill-19" fill="#2F3452"></path>
                        <g id="Group-23" transform="translate(74.000000, 0.000000)">
                            <mask id="mask-10" fill="white">
                                <use xlink:href="#path-9"></use>
                            </mask>
                            <g id="Clip-22"></g>
                            <path d="M7,-0.000115147401 C3.14018692,-0.000115147401 0,3.58864551 0,7.99994243 C0,8.45247171 0.0348144505,8.8957892 0.0983221293,9.32797578 L1.93468875,9.32797578 C1.85549544,8.89962745 1.81111658,8.45630996 1.81111658,7.99994243 C1.81111658,4.59042789 4.13871126,1.81652701 7,1.81652701 C9.86128874,1.81652701 12.1888834,4.59042789 12.1888834,7.99994243 C12.1888834,8.45630996 12.1445046,8.89962745 12.0653113,9.32797578 C11.7030114,11.2916228 10.5545171,12.9048379 9.03568891,13.6813152 C8.41017653,14.0014249 7.72306936,14.1833578 7,14.1833578 C6.32704815,14.1833578 5.68546756,14.0252221 5.09515221,13.7457977 C4.77837897,14.2712537 4.65518938,14.9233718 4.77914412,15.5789443 C5.47772859,15.8476216 6.22298737,16 7,16 C7.90020222,16 8.75908619,15.8011788 9.55025414,15.4457572 C11.8028639,14.4339954 13.4904083,12.1264414 13.9016779,9.32797578 C13.9651855,8.8957892 14,8.45247171 14,7.99994243 C14,3.58864551 10.8598131,-0.000115147401 7,-0.000115147401" id="Fill-21" fill="#345BA8" mask="url(#mask-10)"></path>
                        </g>
                        <path d="M106.850017,14.7448165 C107.319961,16.0603155 106.648726,17.4652686 105.351032,17.8824697 C104.052941,18.2996709 102.619732,17.5708844 102.150185,16.2550094 C101.679845,14.9395103 102.351079,13.5345573 103.64917,13.1173562 C104.946864,12.7005309 106.379677,13.4293174 106.850017,14.7448165" id="Fill-24" fill="#2F3452"></path>
                        <g id="Group-28" transform="translate(97.000000, 0.000000)">
                            <mask id="mask-12" fill="white">
                                <use xlink:href="#path-11"></use>
                            </mask>
                            <g id="Clip-27"></g>
                            <path d="M7,-0.000115147401 C3.14018692,-0.000115147401 0,3.58864551 0,7.99994243 C0,8.45247171 0.0348144505,8.8957892 0.0983221293,9.32797578 L1.93468875,9.32797578 C1.85587801,8.89962745 1.81111658,8.45630996 1.81111658,7.99994243 C1.81111658,4.59042789 4.13871126,1.81652701 7,1.81652701 C9.86128874,1.81652701 12.1888834,4.59042789 12.1888834,7.99994243 C12.1888834,8.45630996 12.1445046,8.89962745 12.0653113,9.32797578 C11.7030114,11.2916228 10.5545171,12.9048379 9.03568891,13.6813152 C8.41017653,14.0014249 7.72345193,14.1833578 7,14.1833578 C6.32704815,14.1833578 5.68546756,14.0252221 5.09553479,13.7457977 C4.77876155,14.2712537 4.65518938,14.9233718 4.77914412,15.5789443 C5.47772859,15.8476216 6.22336995,16 7,16 C7.90020222,16 8.75946877,15.8011788 9.55025414,15.4457572 C11.8032464,14.4339954 13.4907908,12.1264414 13.9016779,9.32797578 C13.9651855,8.8957892 14,8.45247171 14,7.99994243 C14,3.58864551 10.8598131,-0.000115147401 7,-0.000115147401" id="Fill-26" fill="#345BA8" mask="url(#mask-12)"></path>
                        </g>
                        <path d="M128.850017,14.7448165 C129.319961,16.0603155 128.648726,17.4652686 127.351032,17.8824697 C126.052941,18.2996709 124.619732,17.5708844 124.150185,16.2550094 C123.679845,14.9395103 124.351079,13.5345573 125.64917,13.1173562 C126.946864,12.7005309 128.379677,13.4293174 128.850017,14.7448165" id="Fill-29" fill="#2F3452"></path>
                        <g id="Group-33" transform="translate(120.000000, 0.000000)">
                            <mask id="mask-14" fill="white">
                                <use xlink:href="#path-13"></use>
                            </mask>
                            <g id="Clip-32"></g>
                            <path d="M7,-0.000115147401 C3.14018692,-0.000115147401 0,3.58864551 0,7.99994243 C0,8.45247171 0.0348144505,8.8957892 0.0983221293,9.32797578 L1.93468875,9.32797578 C1.85587801,8.89962745 1.81111658,8.45630996 1.81111658,7.99994243 C1.81111658,4.59042789 4.13871126,1.81652701 7,1.81652701 C9.86128874,1.81652701 12.1888834,4.59042789 12.1888834,7.99994243 C12.1888834,8.45630996 12.1445046,8.89962745 12.0653113,9.32797578 C11.7030114,11.2916228 10.5545171,12.9048379 9.03568891,13.6813152 C8.41017653,14.0014249 7.72345193,14.1833578 7,14.1833578 C6.32704815,14.1833578 5.68546756,14.0252221 5.09515221,13.7457977 C4.77876155,14.2712537 4.65518938,14.9233718 4.77914412,15.5789443 C5.47772859,15.8476216 6.22336995,16 7,16 C7.90020222,16 8.75946877,15.8011788 9.55025414,15.4457572 C11.8032464,14.4339954 13.4907908,12.1264414 13.9016779,9.32797578 C13.9651855,8.8957892 14,8.45247171 14,7.99994243 C14,3.58864551 10.8598131,-0.000115147401 7,-0.000115147401" id="Fill-31" fill="#345BA8" mask="url(#mask-14)"></path>
                        </g>
                        <path d="M151.850017,14.7448165 C152.319961,16.0603155 151.648726,17.4652686 150.351032,17.8824697 C149.052941,18.2996709 147.619732,17.5708844 147.150185,16.2550094 C146.679845,14.9395103 147.351079,13.5345573 148.64917,13.1173562 C149.946864,12.7005309 151.379677,13.4293174 151.850017,14.7448165" id="Fill-34" fill="#2F3452"></path>
                        <g id="Group-38" transform="translate(142.000000, 0.000000)">
                            <mask id="mask-16" fill="white">
                                <use xlink:href="#path-15"></use>
                            </mask>
                            <g id="Clip-37"></g>
                            <path d="M7,-0.000115147401 C3.14018692,-0.000115147401 0,3.58864551 0,7.99994243 C0,8.45247171 0.0348144505,8.8957892 0.0983221293,9.32797578 L1.93468875,9.32797578 C1.85587801,8.89962745 1.81111658,8.45630996 1.81111658,7.99994243 C1.81111658,4.59042789 4.13871126,1.81652701 7,1.81652701 C9.86128874,1.81652701 12.1888834,4.59042789 12.1888834,7.99994243 C12.1888834,8.45630996 12.1445046,8.89962745 12.0653113,9.32797578 C11.7030114,11.2916228 10.5545171,12.9048379 9.03568891,13.6813152 C8.41017653,14.0014249 7.72345193,14.1833578 7,14.1833578 C6.32704815,14.1833578 5.68546756,14.0252221 5.09515221,13.7457977 C4.77876155,14.2712537 4.65518938,14.9233718 4.77914412,15.5789443 C5.47772859,15.8476216 6.22336995,16 7,16 C7.90020222,16 8.75946877,15.8011788 9.55025414,15.4457572 C11.8032464,14.4339954 13.4907908,12.1264414 13.9016779,9.32797578 C13.9651855,8.8957892 14,8.45247171 14,7.99994243 C14,3.58864551 10.8598131,-0.000115147401 7,-0.000115147401" id="Fill-36" fill="#345BA8" mask="url(#mask-16)"></path>
                        </g>
                        <polygon id="Fill-39" fill="#E6A7AE" points="108.321957 23 78 23 78.6780429 28 109 28"></polygon>
                        <polygon id="Stroke-41" stroke="#A0D6F3" stroke-width="0.75" stroke-linecap="round" points="177 106 166.318503 35 21 35 31.681497 106"></polygon>
                        <line x1="53" y1="106" x2="42" y2="35" id="Stroke-43" stroke="#A0D6F3" stroke-width="0.75" stroke-linecap="round"></line>
                        <line x1="73" y1="106" x2="62" y2="35" id="Stroke-45" stroke="#A0D6F3" stroke-width="0.75" stroke-linecap="round"></line>
                        <line x1="95" y1="106" x2="84" y2="35" id="Stroke-47" stroke="#A0D6F3" stroke-width="0.75" stroke-linecap="round"></line>
                        <line x1="114" y1="106" x2="103" y2="35" id="Stroke-49" stroke="#A0D6F3" stroke-width="0.75" stroke-linecap="round"></line>
                        <line x1="136" y1="106" x2="125" y2="35" id="Stroke-51" stroke="#A0D6F3" stroke-width="0.75" stroke-linecap="round"></line>
                        <line x1="156" y1="106" x2="145" y2="35" id="Stroke-53" stroke="#A0D6F3" stroke-width="0.75" stroke-linecap="round"></line>
                        <line x1="24" y1="53.00125" x2="170" y2="52.99875" id="Stroke-55" stroke="#A0D6F3" stroke-width="0.75" stroke-linecap="round"></line>
                        <line x1="27" y1="70.00075" x2="173" y2="69.99925" id="Stroke-57" stroke="#A0D6F3" stroke-width="0.75" stroke-linecap="round"></line>
                        <line x1="29" y1="86.9998" x2="175" y2="87.0002" id="Stroke-59" stroke="#A0D6F3" stroke-width="0.75" stroke-linecap="round"></line>
                        <polygon id="Fill-61" fill="#B6B8C2" points="49 42 44.6816866 42 44 38 48.3183134 38"></polygon>
                        <polygon id="Fill-63" fill="#B6B8C2" points="70 42 65.6816866 42 65 38 69.3187267 38"></polygon>
                        <polygon id="Fill-65" fill="#B6B8C2" points="90 42 85.6816866 42 85 38 89.3187267 38"></polygon>
                        <g id="Group-96" transform="translate(107.000000, 30.000000)">
                            <polygon id="Fill-67" fill="#345BA8" points="9.75 15 1.32928896 15 0 7.5 8.42151716 7.5"></polygon>
                            <polygon id="Fill-115" fill="#77C4EE" points="0 7.74246103 5.5647482 12.8571429 13 0 5.22006266 9.80745272"></polygon>
                        </g>
                        <polygon id="Fill-69" fill="#B6B8C2" points="132 42 127.681743 42 127 38 131.31867 38"></polygon>
                        <polygon id="Fill-71" fill="#B6B8C2" points="154 42 149.6821 42 149 38 153.318727 38"></polygon>
                        <polygon id="Fill-73" fill="#B6B8C2" points="52 59 47.6816866 59 47 55 51.3187267 55"></polygon>
                        <polygon id="Fill-75" fill="#B6B8C2" points="72 59 67.6816866 59 67 55 71.3183134 55"></polygon>
                        <polygon id="Fill-77" fill="#B6B8C2" points="94 59 89.6816866 59 89 55 93.3187267 55"></polygon>
                        <polygon id="Fill-79" fill="#B6B8C2" points="114 59 109.681687 59 109 55 113.318727 55"></polygon>
                        <polygon id="Fill-81" fill="#B6B8C2" points="136 59 131.681687 59 131 55 135.318313 55"></polygon>
                        <polygon id="Fill-83" fill="#B6B8C2" points="156 59 151.681743 59 151 55 155.31867 55"></polygon>
                        <polygon id="Fill-85" fill="#B6B8C2" points="55 76 50.6816866 76 50 72 54.3187267 72"></polygon>
                        <polygon id="Fill-87" fill="#B6B8C2" points="75 76 70.6816866 76 70 72 74.3187267 72"></polygon>
                        <polygon id="Fill-89" fill="#B6B8C2" points="97 76 92.6813296 76 92 72 96.3186704 72"></polygon>
                        <polygon id="Fill-91" fill="#B6B8C2" points="117 76 112.681743 76 112 72 116.31867 72"></polygon>
                        <polygon id="Fill-93" fill="#B6B8C2" points="139 76 134.6821 76 134 72 138.318727 72"></polygon>
                        <polygon id="Fill-95" fill="#B6B8C2" points="158 76 153.681687 76 153 72 157.318727 72"></polygon>
                        <polygon id="Fill-97" fill="#B6B8C2" points="57 95 52.6816866 95 52 91 56.3183134 91"></polygon>
                        <polygon id="Fill-99" fill="#B6B8C2" points="79 95 74.6816866 95 74 91 78.3187267 91"></polygon>
                        <polygon id="Fill-101" fill="#B6B8C2" points="99 95 94.6813296 95 94 91 98.3186704 91"></polygon>
                        <polygon id="Fill-103" fill="#B6B8C2" points="121 95 116.681687 95 116 91 120.318727 91"></polygon>
                        <polygon id="Fill-105" fill="#B6B8C2" points="140 95 135.681743 95 135 91 139.31867 91"></polygon>
                        <polygon id="Fill-107" fill="#B6B8C2" points="162 95 157.681687 95 157 91 161.318727 91"></polygon>
                        <polygon id="Fill-109" fill="#B6B8C2" points="31 59 26.6813296 59 26 55 30.3186704 55"></polygon>
                        <polygon id="Fill-111" fill="#B6B8C2" points="34 76 29.6816866 76 29 72 33.3183134 72"></polygon>
                        <polygon id="Fill-113" fill="#B6B8C2" points="36 95 31.6816866 95 31 91 35.3187267 91"></polygon>
                    </g>
                    <g id="Group-97" transform="translate(11.000000, 0.000000)">
                        <g id="Group-118">
                            <path d="M113.332786,72.315823 C113.274462,71.0371715 112.88745,71.1427873 111.54454,70.8457291 C105.625052,69.5355895 92.1192646,66.0490637 86.1997763,64.7389242 C83.4575246,60.7097778 73.1792842,52.0988057 72.1659522,51.0657164 C70.2258845,49.0874418 63.1048455,43.1334848 60.6340697,41.8468519 C59.1888695,41.0774743 56.6388437,40.1050649 56.0716271,40.3478939 C54.2175991,39.7811107 52.5879645,40.0184731 52.2145321,39.8901159 C50.2261575,39.2062369 47.0482532,38.161121 47.2124299,39.0244158 C39.2270979,45.7945451 35.0395347,49.8614114 34.487901,49.6760917 C33.7963554,49.4439774 31.2727091,48.1996564 28.9040011,46.4016722 C28.8652665,46.2252085 29.2799936,42.3501125 28.5303461,41.1885568 C27.8155374,40.7353707 24.3768426,43.6931613 23.5844535,44.0068382 C22.2746017,44.5258428 17.4285508,47.9825207 17.025177,48.2886536 C15.8363151,49.1907617 14.6446706,51.1579936 14.6057134,52.4856265 C14.0037693,53.5028624 13.4082809,64.8334974 13.2557914,65.8770826 C12.4725294,71.2346272 12.7056046,85.7398604 11.9047563,89.221685 C11.6352839,90.7138642 11.2518339,92.8939679 10.8947635,93.6273749 C8.16230671,99.2416338 7.1,112.727444 7.1,112.727444 C7.83862818,113.102895 14.6927549,116.396229 14.6927549,116.070962 C14.6927549,114.542922 15.0055254,110.031288 15.2365971,107.631643 C15.2450564,107.542428 18.6416775,109.145252 18.5727789,109.086649 C20.2035266,109.757518 25.5492312,111.999285 27.1042906,112.284864 C30.1416151,112.84301 30.6146666,113.311284 33.704973,113.363108 C34.507157,113.376774 35.8140035,113.522625 36.6159649,113.497369 C38.8123709,113.494635 46.6334148,112.985689 49.0951749,111.655105 C52.0190784,110.292157 54.8006212,108.938831 57.2675013,106.881071 C58.8714241,105.542942 57.3230431,100.23416 57.7956494,97.6745613 C57.8426206,97.5468601 58.8714241,89.4079887 59.7272578,86.8200723 C60.5628337,84.2928358 60.7417028,79.1741842 60.8147197,77.876618 C61.0279825,74.0855992 61.5357615,70.1912606 62.8076579,67.2897767 C65.8578939,68.732756 67.1334634,70.180874 69.9551878,71.8992636 C72.069895,73.1869898 74.4253575,75.679021 76.7631224,76.450476 C77.9060148,76.9956112 82.5172095,77.6071117 83.6624394,78.1482016 C84.4955666,78.5418011 110.453071,81.5532742 111.04522,81.5353436 C111.376134,81.6981407 112.170749,81.2620106 113.138445,80.0314657 C114.011754,78.9214059 113.387771,73.525376 113.332786,72.315823" id="Fill-1" fill="#16273A"></path>
                            <path d="M59.2074836,112.661276 C59.2055384,112.625959 59.2037877,112.593553 59.202037,112.566581 C59.2037877,112.5953 59.2049548,112.624407 59.2067055,112.652544 C59.2067055,112.655455 59.207289,112.658171 59.2074836,112.661276" id="Fill-3" fill="#EFCDA5"></path>
                            <path d="M57.7934556,110.017092 C56.9151841,108.137636 56.7955829,106.590897 56.5865615,106.719737 C45.5989674,113.495109 39.5688727,112.276246 37.7487144,112.414548 C28.2688123,113.134885 18.3441646,107.925616 17.5952552,107.574965 C15.0473927,106.382068 14.9535967,106.386359 15.0393146,109.283992 C15.0470561,109.548383 14.8360151,149.841712 14.2008727,159.970992 C14.0610763,162.202419 30.7585572,162.975129 34.3819321,163 C35.7009102,163.008907 36.096065,141.391971 36.7646419,141.405724 C37.2687393,141.416177 44.9413857,162.797437 45.3880386,162.774552 C54.4679615,162.311125 65.8952523,160.91281 66.0526635,160.18004 C67.2429526,154.637064 63.0679091,143.116731 63.329214,141.352692 C63.8581067,140.764386 62.0217922,134.422514 61.8749274,133.618668 C60.3649915,125.348159 57.922369,110.293366 57.7934556,110.017092 Z" id="Fill-5" fill="#1C2938"></path>
                            <path d="M10.119466,122.278735 C10.2620101,122.098745 13.8292515,115.957658 12.8452477,115.503205 C12.0931455,115.15602 10.7435781,114.232186 9.99147595,113.884682 C9.38812481,113.606167 8.59599903,113.758646 8.11057853,114.298829 C6.71478057,115.851988 4.84993541,117.171523 3.19291358,118.399357 C2.3015848,119.060244 1.09081595,120.093692 0.794919191,121.174805 C0.631507131,121.771607 0.480615838,122.78661 0.333149029,124.037902 C0.203553741,125.13778 -0.37860841,125.897193 0.390081063,126.847151 C1.09498954,127.717991 2.38334434,128.144187 3.13287811,128.944225 C3.56971375,129.410407 4.3219229,130.291163 4.95673648,130.150413 C5.54071789,130.020752 5.64912419,129.87595 6.33466293,129.54316 C7.47662107,128.989009 8.74507107,129.060984 9.53837402,128.073065 C10.2386808,127.20052 11.621958,125.760921 9.54811239,126.07345 C9.55795778,126.006381 8.45741448,126.543152 8.46715285,126.474589 C8.64811539,125.184484 9.30540214,123.308026 10.119466,122.278735" id="Fill-7" fill="#F0EDE6"></path>
                            <path d="M141.96098,82.1553367 C141.448941,81.034544 139.011723,79.0468762 137.696395,78.3245169 C138.040927,78.0598456 139.988754,77.8977729 140.039302,77.4713581 C140.123657,76.7609595 140.464469,76.7507545 139.658555,76.6417916 L133.506975,75.1987189 C132.392852,75.0483874 131.837158,75.2365761 130.719097,75.1190541 C129.773685,75.019967 128.278487,74.4081068 127.334169,74.4370758 C126.42891,74.4648378 125.524855,74.2909141 124.630975,74.1683445 C123.576152,74.0236093 122.520892,73.8787644 121.46607,73.7340291 C119.260254,73.431391 114.365467,72.7915494 114.13866,72.8281995 C113.450361,72.5536525 112.573221,72.7258205 112.106149,73.4686995 C111.10275,75.0662735 111.117411,77.4021179 111.397938,79.2463672 C111.536561,80.154172 112.331644,79.9937452 113.103969,79.8379272 C113.911197,79.6753058 115.755631,79.9810164 116.457606,80.4037003 C117.003125,80.732235 118.916706,81.9178787 119.45019,82.0040176 C121.943426,82.4080472 126.098163,85.7941272 128.358794,85.595953 C129.14403,85.5272614 129.136918,83.4064898 128.555623,83.0937564 C124.29432,80.8000488 123.715541,79.9092523 123.818605,79.863275 C124.750232,79.7819643 128.977289,78.390136 129.732547,78.3245169 C129.732547,78.65777 131.789237,79.8670059 132.168233,80.8251772 C132.877429,82.6188405 133.828312,84.0916504 135.162786,84.0751907 C135.888175,84.066083 134.90436,81.8540153 134.379739,80.2567705 C134.330832,80.1083044 137.679874,82.7391057 137.624075,82.5960165 C139.540939,83.768712 140.403965,82.8934973 140.975524,82.8934973 C141.4787,82.8934973 142.17247,82.6192795 141.96098,82.1553367" id="Fill-9" fill="#F0EDE6"></path>
                            <path d="M47.3295555,37.8917393 C47.2844589,37.527643 46.0241739,35.9280751 45.7966011,35.8708447 C45.7886817,35.8691364 44.4475528,30.4652427 44.4395234,30.4634276 C44.3094033,28.8396222 44.3548298,33.5239719 43.9234424,31.9066796 C43.650113,30.882512 42.4623126,30.4023533 41.4874561,30.5936907 C40.5657256,30.2097347 39.4028933,30.2254303 38.345653,30.1701218 C37.9957694,30.1517569 37.656995,30.2543658 37.3606773,30.435453 C35.1021076,29.3605681 32.7061583,28.5574208 30.3264878,27.7735995 C29.648169,27.5502301 28.9071549,27.8054178 28.4171418,28.2883526 C27.8773025,28.1113228 27.3376832,27.9367488 26.7982839,27.7654847 C26.5511325,27.489583 26.2243472,27.2784926 25.8079186,27.1673418 C25.7393938,27.1489768 25.6709789,27.1342421 25.6024541,27.1222835 C25.5543877,27.0958038 25.5063213,27.0709256 25.458365,27.0488236 C25.2167132,26.8534288 24.9659321,26.6665759 24.7030519,26.4921086 C24.0681798,26.0713158 23.6212835,25.5203666 23.0520764,25.9606989 C22.4229239,26.4471572 22.435133,27.0588603 22.5339055,27.8021079 C22.5065176,28.0378629 22.6221189,30.0798986 22.6954833,30.2595977 C23.3884311,32.2007328 24.5641324,34.5740854 26.1303043,35.6303917 C27.4497648,36.5202388 28.7174192,36.6367282 30.2795214,36.56156 C30.1648,37.5220908 31.4859104,37.8699576 31.3910975,38.6925376 C31.3221327,39.2886519 29.6560884,39.6734621 29.0889711,39.9334547 C28.1605312,40.3589455 28.8949458,39.4712339 28.8321405,40.4663592 C28.7105997,42.3907309 28.3074801,42.7853643 28.8687678,43.9759912 C29.886081,46.1339825 28.9092447,46.7027628 31.1175482,47.4813523 C33.4301237,48.296565 34.2141446,48.2022843 36.6010746,47.6519757 C39.0287015,47.0921643 38.6000638,46.4887895 40.8169466,45.3915891 C43.15856,44.2328873 43.4545477,42.8490011 45.0446978,40.9236684 C45.5410904,40.3222155 47.428878,38.6955273 47.3295555,37.8917393" id="Fill-11" fill="#F0EDE6"></path>
                            <path d="M53.1051074,16.1080553 C53.5681649,14.5098998 52.7863696,10.817917 52.6373092,10.3615107 C52.0072203,8.43083877 51.6224417,8.56093431 50.6274195,5.94040619 C50.4811154,5.63824153 48.1405806,2.9318481 46.3248442,2.36599456 C45.6619004,1.9632964 43.067125,1.01358767 41.7619646,0.733763785 C39.0546222,-0.399297285 37.7503438,0.412304814 34.5942767,0.00678584523 C33.9868997,-0.071181213 29.1220405,0.533148113 28.3628468,1.282354 C26.8208656,2.80412204 25.0998355,4.96925935 22.4937042,8.99590248 C22.4941452,8.99624098 22.4830098,11.6957516 22.4833333,11.6963158 C22.8292004,12.7929321 22.2874232,14.060602 23.5732895,13.404257 C25.8384121,12.2479525 27.7735511,12.0576045 29.4893994,10.205351 C30.2725177,10.3645572 32.5616751,11.2210665 33.4535017,11.0672762 C33.6579084,11.1695022 33.8710251,11.2592038 34.0919696,11.3346886 C34.3013378,11.8654513 34.6473078,12.3842538 35.1647193,12.8651447 C36.5365821,14.1406 36.0551126,14.2509499 37.8666594,14.9735274 C38.3160456,16.7568405 40.2269292,21.5138465 41.87817,22.4497897 C42.860844,23.5887181 47.3770871,21.9810847 48.7605263,22.3889732 C48.058002,23.4180029 46.326057,23.9768609 45.8679609,25.3690976 C45.2569456,27.2251874 46.1259501,28.1744448 45.7058908,30.1444952 C45.3903503,31.624741 49.3787079,27.8615611 49.4250137,27.8129304 C49.9547734,27.7750188 49.3803617,24.2272356 49.7304111,23.5809327 C51.3851799,20.5267904 52.0389728,19.7880779 53.1051074,16.1080553" id="Fill-13" fill="#89776F"></path>
                            <path d="M43.5443419,36.3525174 C45.4309427,35.6389671 44.9236494,30.2166854 45.0571593,28.830084 C45.1747541,27.6078869 45.1764119,27.0112367 45.1696701,26.9785091 C45.9215474,26.7877255 47.4889623,25.147731 48.4886286,23.0131003 C48.7447068,22.4662531 47.1796128,20.8895248 46.5224524,20.7418673 C45.2941172,20.4659261 46.394137,20.4923053 44.4947157,21.4055051 C44.3124659,21.2721865 40.8373406,20.2901382 40.6843789,20.1730191 C39.5000313,20.2552214 37.268272,15.4329831 37.1713447,15.3379744 C35.2194258,13.4246658 34.2179911,12.2753671 31.7407638,11.0938881 C29.8819039,10.2073957 28.5145327,10.6422684 26.4866855,10.8031702 C25.2519401,11.6386556 23.835387,11.1005649 23.5565414,11.2333363 C22.9116489,11.5406916 23.1130189,14.1522265 22.5368707,16.5085077 C22.4305491,18.3622717 22.4859203,23.7707618 22.6733646,25.3796705 C22.7082894,26.5305015 23.0289121,28.0794278 23.2092831,28.9178685 L43.5443419,36.3525174 Z" id="Fill-15" fill="#F0EDE6"></path>
                            <path d="M45.2632683,24.6258989 C45.1706223,24.6258989 45.0829841,24.5899187 45.0465805,24.5307816 C44.9235982,24.3307118 44.9432446,24.0957199 45.1008006,23.8859391 C45.2580678,23.6763451 45.531287,23.5208458 45.8502514,23.4594678 C45.9735226,23.4359375 46.1036316,23.4810684 46.1402277,23.5608722 C46.1770165,23.6406761 46.1067134,23.7245884 45.9834421,23.7483055 C45.7894825,23.7855929 45.6206587,23.8837604 45.5202118,24.0174723 C45.4198613,24.1513087 45.4051266,24.2979063 45.4799561,24.4195418 C45.5274348,24.4968557 45.4690735,24.5844407 45.3493656,24.6152542 C45.3210517,24.6224751 45.2919674,24.6258989 45.2632683,24.6258989" id="Fill-23" fill="#612411"></path>
                            <path d="M48.2386536,29.3165463 C48.1631818,29.3165463 48.0879398,29.2953621 48.0330304,29.2537079 C47.7085133,29.0075118 47.4700363,28.7075223 47.3432162,28.3863486 C47.3027808,28.2839189 47.3900845,28.178395 47.538271,28.1505462 C47.6862279,28.1230941 47.8394689,28.1829174 47.8796745,28.2852677 C47.98352,28.5481255 48.1788046,28.7936869 48.4442768,28.9951346 C48.5475479,29.0736031 48.5393919,29.1950747 48.4257822,29.2664819 C48.3725959,29.3000433 48.3056247,29.3165463 48.2386536,29.3165463" id="Fill-29" fill="#612411"></path>
                            <g id="Group-73" transform="translate(0.000000, 112.575538)">
                                <mask id="mask-18" fill="white">
                                    <use xlink:href="#path-17"></use>
                                </mask>
                                <g id="Clip-72"></g>
                            </g>
                        </g>
                        <g id="Group" transform="translate(122.173605, 98.148845)">
                            <g id="illust/cup3/emerard" transform="translate(7.498257, 12.899280) scale(-1, 1) rotate(15.000000) translate(-7.498257, -12.899280) ">
                                <path d="M14.7465095,2.87790929 L14.6736569,3.56278285 L14.5179234,5.02440685 L12.5963742,23.07288 L12.4741175,24.2217588 C12.3648386,25.0990871 10.0100573,25.7985607 7.49757612,25.7985607 C5.2528111,25.7985607 3.07308252,25.2406631 2.62053113,24.4958655 C2.56409739,24.4032021 2.53007984,24.307835 2.51955996,24.2103049 L2.51936333,24.2085352 L2.40099012,23.0965743 L0.478212029,5.02096577 L0.322724298,3.55860439 L0.254246774,2.91482718 C0.271108074,3.0143236 0.32469063,3.11141126 0.411504204,3.206041 C1.1161394,3.97256651 4.02100219,4.54688303 7.49757612,4.54688303 C8.94745128,4.54688303 10.2975842,4.44689503 11.4303391,4.27474264 C13.0142199,4.03440766 14.1726846,3.65298835 14.5834514,3.206041 C14.6812273,3.09966242 14.7364812,2.9903835 14.7450348,2.87790929 L14.7465095,2.87790929 Z" id="Fill-1" fill="#F2F2F2"></path>
                                <path d="M14.7304298,3.04247164 L14.6751759,3.56271403 L14.5195898,5.02438718 L12.5980899,23.0730078 L12.5889956,23.159084 C11.8262552,23.8616545 9.71987087,24.3663629 7.49909511,24.3663629 C5.30270187,24.3663629 3.163873,23.8725677 2.41175088,23.1827291 L2.40270575,23.0966038 L0.479878496,5.02104442 L0.324292448,3.55858473 L0.270365783,3.05235246 C0.295780629,3.13120239 0.343759138,3.20843009 0.413023196,3.28393726 C1.1176584,4.05026613 4.02257034,4.62477929 7.49909511,4.62477929 C8.94911775,4.62477929 10.2992015,4.52464382 11.4320548,4.35244226 C13.0158863,4.11230392 14.174351,3.73078629 14.585167,3.28393726 C14.6575772,3.20508733 14.706588,3.12466434 14.7304298,3.04247164" id="Fill-3" fill="#B3B3B3"></path>
                                <path d="M14.7465095,2.87790929 L14.6736569,3.56278285 L14.5179234,5.02440685 L12.5963742,23.07288 C11.8415976,23.7797273 9.72695458,24.2885158 7.49733032,24.2885158 C5.2921869,24.2885158 3.14500113,23.7909845 2.40099012,23.0965743 L0.478212029,5.02096577 L0.322724298,3.55860439 L0.254246774,2.91482718 C0.271108074,3.0143236 0.32469063,3.11141126 0.411504204,3.206041 C1.1161394,3.97256651 4.02100219,4.54688303 7.49757612,4.54688303 C8.94745128,4.54688303 10.2975842,4.44689503 11.4303391,4.27474264 C13.0142199,4.03440766 14.1726846,3.65298835 14.5834514,3.206041 C14.6812273,3.09966242 14.7364812,2.9903835 14.7450348,2.87790929 L14.7465095,2.87790929 Z" id="Fill-5" fill="#009999"></path>
                                <path d="M14.6737847,3.56288608 L14.5180512,5.02421513 L14.5180512,5.02441176 C13.9315434,5.44230655 12.8440141,5.79413256 11.4522932,6.02674968 C10.3050366,6.21836877 8.9508727,6.32907328 7.50050595,6.32907328 C5.74088428,6.32907328 4.12269107,6.16611349 2.84393598,5.8931374 C2.29223228,5.77535409 1.80379532,5.6372684 1.39425745,5.48305879 C1.01863881,5.3414337 0.709187259,5.18643755 0.478290682,5.021069 L0.322704635,3.55860931 L0.322704635,3.55801941 C0.541557426,3.78857188 0.930448808,4.002558 1.45359153,4.19049021 C1.84734959,4.33221362 2.31715554,4.459337 2.84801612,4.5681735 L2.8481636,4.5681735 C4.11787356,4.82866338 5.73680414,4.98479017 7.50050595,4.98479017 C8.99811383,4.98479017 10.3915553,4.87241427 11.5553291,4.67868138 C13.0914771,4.42320565 14.2274273,4.02708799 14.6737847,3.56288608" id="Fill-7" fill="#000000"></path>
                                <g id="Group-11" transform="translate(0.000000, 2.810430)">
                                    <mask id="mask-20" fill="white">
                                        <use xlink:href="#path-19"></use>
                                    </mask>
                                    <g id="Clip-10"></g>
                                    <path d="M14.9965287,1.22512337 C14.9965287,1.94912695 13.5787539,2.58341661 11.4499042,2.9395194 C10.3025492,3.13108933 8.94833613,3.241843 7.49792022,3.241843 C5.73834772,3.241843 4.12049861,3.07912899 2.8413011,2.80595627 C2.2899415,2.68841876 1.80135707,2.55013643 1.39191752,2.39587766 C0.515375711,2.06597625 0,1.66169832 0,1.22512337 C0,1.21322706 0.000294949853,1.20133075 0.00132727434,1.18943444 L0.00132727434,1.18741895 L0.00914344546,1.1255778 L0.00983166178,1.12149766 L0.117193408,0.0213838644 L0.117193408,0.0350007159 C0.117193408,0.13690589 14.878647,0.0115522026 14.8776147,0 L14.8783029,0.00845522913 L14.990433,1.14293068 L14.9921044,1.15615427 C14.9948573,1.17925867 14.9965287,1.20236308 14.9965287,1.22512337" id="Fill-9" fill="#333333" mask="url(#mask-20)"></path>
                                </g>
                                <path d="M14.8792959,2.84541073 C14.8792959,2.98133346 14.8222231,3.11312688 14.7135341,3.24020111 C14.7070452,3.24801728 14.7002614,3.25548934 14.6931334,3.26296141 C14.6863496,3.27043347 14.6792216,3.27790553 14.6720445,3.2853776 C14.6649657,3.29284966 14.6574445,3.30032172 14.6499724,3.30779378 C14.6425495,3.31531501 14.6346842,3.32273791 14.626868,3.33020997 C14.6112357,3.34520326 14.5946202,3.36014738 14.5772673,3.37440329 C14.5684679,3.38187536 14.5599636,3.38900331 14.550771,3.39647537 C14.5412342,3.40463565 14.5314026,3.41245182 14.5215709,3.41992389 C14.5127224,3.42636363 14.5038739,3.43319663 14.4950746,3.43998048 C14.4661695,3.46205256 14.435593,3.48343642 14.4036401,3.50452534 C14.3822563,3.51878125 14.360135,3.53269305 14.3377188,3.54699812 C14.3150077,3.56125403 14.2915592,3.57521498 14.2677666,3.58878268 C14.2436298,3.60269448 14.219149,3.61631133 14.1937342,3.63022313 C14.1685651,3.64418409 14.142757,3.65775179 14.1162607,3.67097537 C14.0234989,3.71856061 13.922921,3.76442532 13.8148711,3.80925769 C13.7992387,3.81574659 13.7839505,3.82218633 13.7680232,3.82862607 C13.7523417,3.83511496 13.7367585,3.84121059 13.720438,3.84765033 C13.7044615,3.85379512 13.6884851,3.86023486 13.6721645,3.86637965 C13.5861866,3.89965982 13.4961777,3.93195683 13.4024329,3.96317236 C13.3718564,3.9737414 13.3405917,3.98391717 13.3089829,3.99374883 C13.2906469,3.99989362 13.2723108,4.00564514 13.2536307,4.01144582 C13.2352946,4.01719734 13.2165653,4.02299802 13.197541,4.02874954 C13.186038,4.03248557 13.1744366,4.03622161 13.1625403,4.03961353 C13.1363881,4.0474297 13.1098918,4.05558998 13.0830513,4.06306204 C13.0252903,4.08007082 12.9658579,4.09673548 12.9053932,4.11300688 C12.8248227,4.13507897 12.7422859,4.15651199 12.6577336,4.17720764 C12.6189969,4.18708846 12.5792278,4.19657601 12.5394587,4.20576861 C12.5310035,4.2077841 12.5224991,4.20984875 12.5136506,4.21186424 C12.453825,4.22616931 12.3933602,4.239737 12.3315191,4.25300975 C12.2646146,4.26795387 12.1966779,4.28220978 12.1273646,4.29612159 C12.1131087,4.29921856 12.0988037,4.30226637 12.0844986,4.30497008 C12.0756993,4.30669062 12.0668508,4.308362 12.0577073,4.31008254 C11.8949442,4.3426745 11.7264295,4.37325097 11.5528023,4.4021069 C11.5096905,4.40928401 11.4665295,4.41641197 11.4227294,4.42319581 C11.2820384,4.445612 11.1380045,4.46670092 10.9912178,4.48675751 C10.8757449,4.50238985 10.7581583,4.51733398 10.6389002,4.53158988 L9.65091651,4.62774354 C8.97007393,4.68004798 8.24705352,4.70826485 7.49827416,4.70826485 C6.23062885,4.70826485 5.03745838,4.62739943 3.9951056,4.48538107 C3.90435936,4.47279655 3.81503871,4.46026118 3.72704534,4.44698844 C3.63870786,4.43376485 3.5514027,4.41980389 3.46542482,4.40589209 C3.37944694,4.39163618 3.29489464,4.376987 3.21162047,4.36204288 C3.086955,4.33928258 2.96464913,4.31583407 2.84573518,4.29140239 C2.71290943,4.26421784 2.58411466,4.23565687 2.45910508,4.20645683 C2.39657571,4.19185681 2.33542277,4.17656858 2.27495805,4.16157529 C2.1240912,4.12352676 1.97936914,4.08346274 1.84211914,4.04236639 C1.75953318,4.01754145 1.67935598,3.99207744 1.60222659,3.96622017 C1.55056121,3.94891645 1.50032142,3.93126862 1.45106479,3.91357163 C1.43371191,3.90747599 1.41675229,3.90103626 1.39939941,3.89489147 C1.36577513,3.88230694 1.33249495,3.86977157 1.29950973,3.85718704 C1.29950973,3.85718704 1.29950973,3.85684294 1.29916562,3.85684294 C1.03656193,3.75459365 0.812694994,3.64551137 0.632284001,3.53067756 C0.598610559,3.50929369 0.566362709,3.48756572 0.53578624,3.46544448 C0.464457534,3.41412321 0.401190791,3.36216287 0.347559076,3.30882611 C0.32445467,3.28606581 0.303021648,3.26330551 0.283358324,3.24020111 C0.256124621,3.20824821 0.23203705,3.17629531 0.211292243,3.14404746 C0.149451091,3.04691064 0.11720324,2.94731591 0.11720324,2.84541073 C0.11720324,2.84098648 0.11720324,2.83621813 0.117547348,2.83149893 L0.117547348,2.83115482 C0.129787767,2.42820416 0.648604559,2.05582997 1.52141033,1.75242489 C1.61785894,1.71914472 1.71878094,1.68615949 1.82343898,1.65459986 C2.06328237,1.58189472 2.32421468,1.51395793 2.60451535,1.45142857 C2.91504839,1.38177124 3.24971816,1.31889776 3.60405125,1.2632014 C3.73756522,1.24211249 3.87417616,1.22210505 4.01309754,1.2034249 C5.05102607,1.06307793 6.23780597,0.983244831 7.49827416,0.983244831 C8.23889325,0.983244831 8.95375337,1.01077348 9.62815621,1.0620456 C10.1279487,1.09979918 10.6052759,1.15072719 11.0540913,1.21325656 C11.1688759,1.22923301 11.2816943,1.24584852 11.3924479,1.2632014 C12.0661625,1.36884261 12.6672212,1.50137341 13.1727161,1.65459986 C13.2777182,1.68615949 13.3782961,1.71880061 13.4747939,1.75242489 C14.3329996,2.05042256 14.8491127,2.41527553 14.8779687,2.81041002 C14.8779687,2.81311372 14.8782636,2.8162107 14.8782636,2.8189144 C14.8789518,2.8277629 14.8792959,2.83656224 14.8792959,2.84541073" id="Fill-12" fill="#4D4D4D"></path>
                                <path d="M13.765408,2.77371334 C13.765408,2.82827906 13.7520861,2.88215657 13.7263271,2.93568997 C13.671024,3.04767259 13.5597788,3.15577171 13.3992277,3.25821763 C13.129152,3.43076329 12.7196141,3.58782409 12.2019771,3.72271449 C11.7188493,3.84801902 11.1417307,3.9543976 10.4955447,4.03467312 C9.60504198,4.14631164 8.58387643,4.20933259 7.49826433,4.20933259 C6.16936777,4.20933259 4.93721475,4.11460453 3.923128,3.95297201 C3.50724871,3.88680493 3.12833646,3.80967554 2.79455154,3.72271449 C2.69136825,3.69592321 2.59246174,3.66809961 2.49842189,3.63958779 C2.11916554,3.52480314 1.81349917,3.39630332 1.59730093,3.25821763 C1.43601252,3.15577171 1.32476727,3.04767259 1.27015239,2.93534586 C1.24449175,2.88215657 1.23077658,2.82827906 1.23077658,2.77371334 C1.23077658,2.76525811 1.23107153,2.75645877 1.2318089,2.74834765 C1.23352945,2.72548904 1.23775706,2.70258126 1.24414764,2.67967349 L1.24734293,2.66949772 C1.35716259,2.3173276 2.02055397,2.00045314 3.03965487,1.76414915 C3.46536583,1.66558674 3.95336036,1.58103445 4.48898929,1.51378588 C5.38234324,1.40145914 6.40773641,1.33774998 7.49826433,1.33774998 C8.65746641,1.33774998 9.74342262,1.40991437 10.6748251,1.53561217 C12.4101134,1.76980235 13.6094287,2.18990926 13.7510046,2.67652736 C13.7559204,2.6927496 13.7594598,2.70926679 13.7619177,2.72583314 C13.7643757,2.74166212 13.765408,2.7574911 13.765408,2.77371334" id="Fill-14" fill="#333333"></path>
                                <path d="M13.7513438,2.67654702 L13.7509997,2.67654702 L9.94855532,2.67757935 L4.21866284,2.67890662 L2.77542405,2.67929989 L1.24414272,2.67959484 L1.2472397,2.66941907 L1.52139559,1.75241997 L1.66778903,1.26319648 L13.3283857,1.26319648 C13.3286806,1.2638847 13.3286806,1.26422881 13.3290248,1.26491703 L13.4747791,1.75241997 L13.7513438,2.67654702 Z" id="Fill-16" fill="#333333"></path>
                                <path d="M13.3375291,1.33794169 C13.3375291,1.38891886 13.3249446,1.43920781 13.300857,1.48875939 C13.2732792,1.54519312 13.2301182,1.60054538 13.1727013,1.65457036 C12.9461307,1.86831069 12.4952998,2.06194527 11.8806735,2.22195556 C11.3415052,2.36225338 10.6759017,2.47644813 9.92436944,2.5552489 C9.18542174,2.63237828 8.36393724,2.67553928 7.49825942,2.67553928 C5.75259871,2.67553928 4.18567761,2.50024075 3.11579618,2.22195556 C2.50087489,2.06194527 2.05004404,1.86831069 1.82342424,1.65457036 C1.76595817,1.60054538 1.72319044,1.54484902 1.69536684,1.48846444 C1.67123011,1.43920781 1.65864558,1.38891886 1.65864558,1.33794169 C1.65864558,1.33012552 1.65898969,1.32196524 1.65962875,1.31414907 C1.66105434,1.2971403 1.66370889,1.28018068 1.66778903,1.26317191 C1.83630371,0.558880814 4.38240916,8.52453122e-13 7.49825942,8.52453122e-13 C8.38463288,8.52453122e-13 9.2248467,0.0451764859 9.97741125,0.126041904 C11.8704977,0.329901411 13.2080953,0.759348398 13.3283365,1.26317191 C13.3286806,1.26386012 13.3286806,1.26420423 13.3290248,1.26489245 C13.3310894,1.27442916 13.3327608,1.2835726 13.3341372,1.29306016 C13.3364968,1.30805344 13.3375291,1.32265346 13.3375291,1.33794169" id="Fill-18" fill="#4D4D4D"></path>
                                <path d="M11.8475654,1.26319648 C11.8475654,1.30109754 11.8383728,1.33875281 11.8202334,1.37562154 C11.8178738,1.38078316 11.8151209,1.38589562 11.812368,1.39100809 C11.7720582,1.46312333 11.6978783,1.53317392 11.5933186,1.59983258 C11.4057305,1.71943475 11.1213988,1.82841872 10.761855,1.9220653 C10.4266445,2.00922298 10.0257584,2.0830096 9.5770414,2.13875512 C8.95882651,2.21632694 8.24976706,2.26002867 7.4959244,2.26002867 C6.19490059,2.26002867 5.02714497,2.12951336 4.22989551,1.9220653 C3.87005669,1.82841872 3.58572503,1.71943475 3.39843187,1.59983258 C3.29421626,1.53317392 3.22003637,1.46312333 3.17938245,1.39100809 C3.17662958,1.38555152 3.17392588,1.38038989 3.17117301,1.37527743 C3.15342686,1.33875281 3.1441851,1.30109754 3.1441851,1.26319648 C3.1441851,1.2573958 3.1441851,1.25125102 3.14487332,1.24545034 C3.18552724,0.702742605 5.11803868,0.26597103 7.4959244,0.26597103 C8.30099002,0.26597103 9.05488185,0.316210822 9.70180519,0.403368504 C10.9471326,0.571539078 11.794966,0.877697026 11.8452058,1.22971968 C11.8468772,1.24097693 11.8475654,1.25193923 11.8475654,1.26319648" id="Fill-20" fill="#333333"></path>
                                <path d="M11.8123779,1.391013 C11.772068,1.46312824 11.6978882,1.53317883 11.5933284,1.5998375 C11.4057403,1.71943967 11.1213595,1.82842364 10.7618648,1.92207021 C10.4266543,2.0092279 10.0257683,2.08301452 9.57705124,2.13871088 C8.95883634,2.21633185 8.24972774,2.26003359 7.49588507,2.26003359 C6.19491042,2.26003359 5.0271548,2.12946912 4.22990534,1.92207021 C3.87006652,1.82842364 3.5856857,1.71943967 3.39844171,1.5998375 C3.29422609,1.53317883 3.2200462,1.46312824 3.17939228,1.391013 C3.29761801,0.86816523 5.18534623,0.452924995 7.49588507,0.452924995 C9.80671885,0.452924995 11.6941521,0.868509338 11.8123779,1.391013" id="Fill-22" fill="#4D4D4D"></path>
                                <path d="M10.5721825,2.0995612 L11.751048,1.80770832 C11.8990145,1.77108538 12.0938288,1.78652109 12.1861481,1.84221746 C12.2784183,1.89786466 12.233291,1.97268361 12.0853245,2.00930655 L10.906459,2.30115943 C10.7584434,2.33778237 10.5636782,2.32234666 10.4713589,2.26669946 C10.3790396,2.21105225 10.4241669,2.13618415 10.5721825,2.0995612" id="Fill-24" fill="#1A1A1A"></path>
                            </g>
                        </g>
                    </g>
                </g>
                <text id="1인-1일-플라스틱-소비량-145kg" font-family="NotoSansCJKkr-Regular, Noto Sans CJK KR" font-size="12" font-weight="normal" fill="#FFFFFF">
                    <tspan x="209" y="67">1인 1일 플라스틱 소비량</tspan>
                    <tspan x="209" y="85" font-family="NotoSansCJKkr-Black, Noto Sans CJK KR" font-size="4" font-weight="700"></tspan>
                    <tspan x="209" y="91" font-family="NotoSansCJKkr-Black, Noto Sans CJK KR" font-size="24" font-weight="700">145kg / 365</tspan>
                    <tspan x="209" y="127" font-family="NotoSansCJKkr-Black, Noto Sans CJK KR" font-size="24" font-weight="700">= 약 400g</tspan>
                </text>
            </g>
        </g>
    </g>
</svg>