<?xml version="1.0" encoding="UTF-8"?>
<svg width="208px" height="208px" viewBox="0 0 208 208" version="1.1" xmlns="http://www.w3.org/2000/svg" xmlns:xlink="http://www.w3.org/1999/xlink">
    <title>flake_green</title>
    <g id="Page-4" stroke="none" stroke-width="1" fill="none" fill-rule="evenodd">
        <g id="1.0MAIN-ver4" transform="translate(-307.000000, -22998.000000)" fill="#009999">
            <g id="Group-33" transform="translate(165.000000, 22091.000000)">
                <g id="Mask" transform="translate(142.000000, 907.000000)">
                    <circle id="Oval" cx="41.6" cy="72.8" r="10.4"></circle>
                    <circle id="Oval" cx="10.4" cy="72.8" r="10.4"></circle>
                    <circle id="Oval" cx="104" cy="41.6" r="10.4"></circle>
                    <circle id="Oval" cx="104" cy="10.4" r="10.4"></circle>
                    <circle id="Oval" cx="104" cy="72.8" r="10.4"></circle>
                    <circle id="Oval" cx="41.6" cy="41.6" r="10.4"></circle>
                    <circle id="Oval" cx="135.2" cy="41.6" r="10.4"></circle>
                    <circle id="Oval" cx="135.2" cy="10.4" r="10.4"></circle>
                    <circle id="Oval" cx="166.4" cy="72.8" r="10.4"></circle>
                    <circle id="Oval" cx="197.6" cy="72.8" r="10.4"></circle>
                    <circle id="Oval" cx="72.8" cy="72.8" r="10.4"></circle>
                    <circle id="Oval" cx="166.4" cy="41.6" r="10.4"></circle>
                    <circle id="Oval" cx="166.4" cy="104" r="10.4"></circle>
                    <circle id="Oval" cx="197.6" cy="104" r="10.4"></circle>
                    <circle id="Oval" cx="41.6" cy="135.2" r="10.4"></circle>
                    <circle id="Oval" cx="10.4" cy="135.2" r="10.4"></circle>
                    <circle id="Oval" cx="41.6" cy="166.4" r="10.4"></circle>
                    <circle id="Oval" cx="72.8" cy="135.2" r="10.4"></circle>
                    <circle id="Oval" cx="72.8" cy="166.4" r="10.4"></circle>
                    <circle id="Oval" cx="72.8" cy="197.6" r="10.4"></circle>
                    <circle id="Oval" cx="135.2" cy="135.2" r="10.4"></circle>
                    <circle id="Oval" cx="135.2" cy="166.4" r="10.4"></circle>
                    <circle id="Oval" cx="135.2" cy="197.6" r="10.4"></circle>
                    <circle id="Oval" cx="104" cy="135.2" r="10.4"></circle>
                    <circle id="Oval" cx="104" cy="166.4" r="10.4"></circle>
                    <circle id="Oval" cx="104" cy="197.6" r="10.4"></circle>
                    <circle id="Oval" cx="166.4" cy="135.2" r="10.4"></circle>
                    <circle id="Oval" cx="197.6" cy="135.2" r="10.4"></circle>
                    <circle id="Oval" cx="166.4" cy="166.4" r="10.4"></circle>
                    <circle id="Oval" cx="41.6" cy="104" r="10.4"></circle>
                    <circle id="Oval" cx="10.4" cy="104" r="10.4"></circle>
                    <circle id="Oval" cx="72.8" cy="41.6" r="10.4"></circle>
                    <circle id="Oval" cx="72.8" cy="10.4" r="10.4"></circle>
                    <circle id="Oval" cx="104" cy="104" r="10.4"></circle>
                    <circle id="Oval" cx="72.8" cy="104" r="10.4"></circle>
                    <circle id="Oval" cx="135.2" cy="72.8" r="10.4"></circle>
                    <circle id="Oval" cx="135.2" cy="104" r="10.4"></circle>
                </g>
            </g>
        </g>
    </g>
</svg>