<?xml version="1.0" encoding="UTF-8"?>
<svg width="103px" height="98px" viewBox="0 0 103 98" version="1.1" xmlns="http://www.w3.org/2000/svg" xmlns:xlink="http://www.w3.org/1999/xlink">
    <title>illust_reproduct_bottle</title>
    <defs>
        <linearGradient x1="44.9282708%" y1="21.581055%" x2="55.1454363%" y2="30.6188187%" id="linearGradient-1">
            <stop stop-color="#E1F1F9" offset="0%"></stop>
            <stop stop-color="#98C1D7" offset="100%"></stop>
        </linearGradient>
        <linearGradient x1="44.0088757%" y1="17.9361307%" x2="55.0638222%" y2="32.6734069%" id="linearGradient-2">
            <stop stop-color="#E1F4F4" offset="0%"></stop>
            <stop stop-color="#BFE5E5" offset="100%"></stop>
        </linearGradient>
        <linearGradient x1="44.7070602%" y1="18.0962755%" x2="54.9744635%" y2="25.0754971%" id="linearGradient-3">
            <stop stop-color="#FFF5E5" offset="0%"></stop>
            <stop stop-color="#FDE7C6" offset="100%"></stop>
        </linearGradient>
    </defs>
    <g id="element" stroke="none" stroke-width="1" fill="none" fill-rule="evenodd" opacity="0.55">
        <g id="Artboard" transform="translate(-134.000000, -454.000000)">
            <g id="illust_reproduct_bottle" transform="translate(134.000000, 454.000000)">
                <g id="illust/empty-bottle/blue-copy" fill="url(#linearGradient-1)">
                    <path d="M18.4862639,0 C18.9476743,0 19.321704,0.124070163 19.321704,0.277125612 L19.321704,2.50295747 L18.188,2.502 L18.1889143,2.96891829 C18.1889143,2.96891829 24.5675738,6.74245255 26.0701143,11.7311519 L26.1485007,12.0095358 C27.4912455,17.1358094 27.1076221,21.4231113 25.956752,23.9395365 C24.8060079,26.4559617 23.2716405,27.6676464 23.4633891,30.9297426 C23.6551378,34.1918388 26.2445011,36.8014422 26.2445011,41.8344151 L26.2445011,41.8344151 L26.2445011,75.5738832 C26.2445011,78.088592 22.5932821,78.0069862 15.9776234,77.997726 L11.0223966,77.997726 C4.40663365,78.0069862 0.755531645,78.088592 0.755531645,75.5738832 L0.755531645,75.5738832 L0.755531645,41.8344151 C0.755531645,36.8014422 3.34489487,34.1918388 3.53651757,30.9297426 C3.72839225,27.6676464 2.19402477,26.4559617 1.04315468,23.9395365 C-0.107589429,21.4231113 -0.491212794,17.1358094 0.85140599,12.0095358 C2.19402477,6.88350716 8.81099238,2.96891829 8.81099238,2.96891829 L8.81099238,2.96891829 L8.81,2.502 L7.9532829,2.50295747 L7.9532829,0.277125612 C7.9532829,0.124070163 8.32731252,0 8.78872298,0 L18.4862639,0 Z" id="Combined-Shape"></path>
                </g>
                <g id="illust/empty-bottle/blue-copy" transform="translate(19.000000, 0.000000)" fill="url(#linearGradient-1)">
                    <path d="M18.4862639,0 C18.9476743,0 19.321704,0.124070163 19.321704,0.277125612 L19.321704,2.50295747 L18.188,2.502 L18.1889143,2.96891829 C18.1889143,2.96891829 24.5675738,6.74245255 26.0701143,11.7311519 L26.1485007,12.0095358 C27.4912455,17.1358094 27.1076221,21.4231113 25.956752,23.9395365 C24.8060079,26.4559617 23.2716405,27.6676464 23.4633891,30.9297426 C23.6551378,34.1918388 26.2445011,36.8014422 26.2445011,41.8344151 L26.2445011,41.8344151 L26.2445011,75.5738832 C26.2445011,78.088592 22.5932821,78.0069862 15.9776234,77.997726 L11.0223966,77.997726 C4.40663365,78.0069862 0.755531645,78.088592 0.755531645,75.5738832 L0.755531645,75.5738832 L0.755531645,41.8344151 C0.755531645,36.8014422 3.34489487,34.1918388 3.53651757,30.9297426 C3.72839225,27.6676464 2.19402477,26.4559617 1.04315468,23.9395365 C-0.107589429,21.4231113 -0.491212794,17.1358094 0.85140599,12.0095358 C2.19402477,6.88350716 8.81099238,2.96891829 8.81099238,2.96891829 L8.81099238,2.96891829 L8.81,2.502 L7.9532829,2.50295747 L7.9532829,0.277125612 C7.9532829,0.124070163 8.32731252,0 8.78872298,0 L18.4862639,0 Z" id="Combined-Shape"></path>
                </g>
                <g id="illust/empty-bottle/blue-copy" transform="translate(38.000000, 0.000000)" fill="url(#linearGradient-1)">
                    <path d="M18.4862639,0 C18.9476743,0 19.321704,0.124070163 19.321704,0.277125612 L19.321704,2.50295747 L18.188,2.502 L18.1889143,2.96891829 C18.1889143,2.96891829 24.5675738,6.74245255 26.0701143,11.7311519 L26.1485007,12.0095358 C27.4912455,17.1358094 27.1076221,21.4231113 25.956752,23.9395365 C24.8060079,26.4559617 23.2716405,27.6676464 23.4633891,30.9297426 C23.6551378,34.1918388 26.2445011,36.8014422 26.2445011,41.8344151 L26.2445011,41.8344151 L26.2445011,75.5738832 C26.2445011,78.088592 22.5932821,78.0069862 15.9776234,77.997726 L11.0223966,77.997726 C4.40663365,78.0069862 0.755531645,78.088592 0.755531645,75.5738832 L0.755531645,75.5738832 L0.755531645,41.8344151 C0.755531645,36.8014422 3.34489487,34.1918388 3.53651757,30.9297426 C3.72839225,27.6676464 2.19402477,26.4559617 1.04315468,23.9395365 C-0.107589429,21.4231113 -0.491212794,17.1358094 0.85140599,12.0095358 C2.19402477,6.88350716 8.81099238,2.96891829 8.81099238,2.96891829 L8.81099238,2.96891829 L8.81,2.502 L7.9532829,2.50295747 L7.9532829,0.277125612 C7.9532829,0.124070163 8.32731252,0 8.78872298,0 L18.4862639,0 Z" id="Combined-Shape"></path>
                </g>
                <g id="illust/empty-bottle/emerald-copy" transform="translate(20.000000, 7.000000)" fill="url(#linearGradient-2)">
                    <path d="M18.4862639,0 C18.9476743,0 19.321704,0.124070163 19.321704,0.277125612 L19.321704,2.50295747 L18.188,2.502 L18.1889143,2.96891829 C18.1889143,2.96891829 24.5675738,6.74245255 26.0701143,11.7311519 L26.1485007,12.0095358 C27.4912455,17.1358094 27.1076221,21.4231113 25.956752,23.9395365 C24.8060079,26.4559617 23.2716405,27.6676464 23.4633891,30.9297426 C23.6551378,34.1918388 26.2445011,36.8014422 26.2445011,41.8344151 L26.2445011,41.8344151 L26.2445011,75.5738832 C26.2445011,78.088592 22.5932821,78.0069862 15.9776234,77.997726 L11.0223966,77.997726 C4.40663365,78.0069862 0.755531645,78.088592 0.755531645,75.5738832 L0.755531645,75.5738832 L0.755531645,41.8344151 C0.755531645,36.8014422 3.34489487,34.1918388 3.53651757,30.9297426 C3.72839225,27.6676464 2.19402477,26.4559617 1.04315468,23.9395365 C-0.107589429,21.4231113 -0.491212794,17.1358094 0.85140599,12.0095358 C2.19402477,6.88350716 8.81099238,2.96891829 8.81099238,2.96891829 L8.81099238,2.96891829 L8.81,2.502 L7.9532829,2.50295747 L7.9532829,0.277125612 C7.9532829,0.124070163 8.32731252,0 8.78872298,0 L18.4862639,0 Z" id="Combined-Shape"></path>
                </g>
                <g id="illust/empty-bottle/emerald-copy" transform="translate(38.000000, 7.000000)" fill="url(#linearGradient-2)">
                    <path d="M18.4862639,0 C18.9476743,0 19.321704,0.124070163 19.321704,0.277125612 L19.321704,2.50295747 L18.188,2.502 L18.1889143,2.96891829 C18.1889143,2.96891829 24.5675738,6.74245255 26.0701143,11.7311519 L26.1485007,12.0095358 C27.4912455,17.1358094 27.1076221,21.4231113 25.956752,23.9395365 C24.8060079,26.4559617 23.2716405,27.6676464 23.4633891,30.9297426 C23.6551378,34.1918388 26.2445011,36.8014422 26.2445011,41.8344151 L26.2445011,41.8344151 L26.2445011,75.5738832 C26.2445011,78.088592 22.5932821,78.0069862 15.9776234,77.997726 L11.0223966,77.997726 C4.40663365,78.0069862 0.755531645,78.088592 0.755531645,75.5738832 L0.755531645,75.5738832 L0.755531645,41.8344151 C0.755531645,36.8014422 3.34489487,34.1918388 3.53651757,30.9297426 C3.72839225,27.6676464 2.19402477,26.4559617 1.04315468,23.9395365 C-0.107589429,21.4231113 -0.491212794,17.1358094 0.85140599,12.0095358 C2.19402477,6.88350716 8.81099238,2.96891829 8.81099238,2.96891829 L8.81099238,2.96891829 L8.81,2.502 L7.9532829,2.50295747 L7.9532829,0.277125612 C7.9532829,0.124070163 8.32731252,0 8.78872298,0 L18.4862639,0 Z" id="Combined-Shape"></path>
                </g>
                <g id="illust/empty-bottle/emerald-copy" transform="translate(57.000000, 7.000000)" fill="url(#linearGradient-2)">
                    <path d="M18.4862639,0 C18.9476743,0 19.321704,0.124070163 19.321704,0.277125612 L19.321704,2.50295747 L18.188,2.502 L18.1889143,2.96891829 C18.1889143,2.96891829 24.5675738,6.74245255 26.0701143,11.7311519 L26.1485007,12.0095358 C27.4912455,17.1358094 27.1076221,21.4231113 25.956752,23.9395365 C24.8060079,26.4559617 23.2716405,27.6676464 23.4633891,30.9297426 C23.6551378,34.1918388 26.2445011,36.8014422 26.2445011,41.8344151 L26.2445011,41.8344151 L26.2445011,75.5738832 C26.2445011,78.088592 22.5932821,78.0069862 15.9776234,77.997726 L11.0223966,77.997726 C4.40663365,78.0069862 0.755531645,78.088592 0.755531645,75.5738832 L0.755531645,75.5738832 L0.755531645,41.8344151 C0.755531645,36.8014422 3.34489487,34.1918388 3.53651757,30.9297426 C3.72839225,27.6676464 2.19402477,26.4559617 1.04315468,23.9395365 C-0.107589429,21.4231113 -0.491212794,17.1358094 0.85140599,12.0095358 C2.19402477,6.88350716 8.81099238,2.96891829 8.81099238,2.96891829 L8.81099238,2.96891829 L8.81,2.502 L7.9532829,2.50295747 L7.9532829,0.277125612 C7.9532829,0.124070163 8.32731252,0 8.78872298,0 L18.4862639,0 Z" id="Combined-Shape"></path>
                </g>
                <g id="illust/empty-bottle/orange-copy" transform="translate(39.000000, 20.000000)" fill="url(#linearGradient-3)">
                    <path d="M18.4862639,0 C18.9476743,0 19.321704,0.124070163 19.321704,0.277125612 L19.321704,2.50295747 L18.188,2.502 L18.1889143,2.96891829 C18.1889143,2.96891829 24.5675738,6.74245255 26.0701143,11.7311519 L26.1485007,12.0095358 C27.4912455,17.1358094 27.1076221,21.4231113 25.956752,23.9395365 C24.8060079,26.4559617 23.2716405,27.6676464 23.4633891,30.9297426 C23.6551378,34.1918388 26.2445011,36.8014422 26.2445011,41.8344151 L26.2445011,41.8344151 L26.2445011,75.5738832 C26.2445011,78.088592 22.5932821,78.0069862 15.9776234,77.997726 L11.0223966,77.997726 C4.40663365,78.0069862 0.755531645,78.088592 0.755531645,75.5738832 L0.755531645,75.5738832 L0.755531645,41.8344151 C0.755531645,36.8014422 3.34489487,34.1918388 3.53651757,30.9297426 C3.72839225,27.6676464 2.19402477,26.4559617 1.04315468,23.9395365 C-0.107589429,21.4231113 -0.491212794,17.1358094 0.85140599,12.0095358 C2.19402477,6.88350716 8.81099238,2.96891829 8.81099238,2.96891829 L8.81099238,2.96891829 L8.81,2.502 L7.9532829,2.50295747 L7.9532829,0.277125612 C7.9532829,0.124070163 8.32731252,0 8.78872298,0 L18.4862639,0 Z" id="Combined-Shape"></path>
                </g>
                <g id="illust/empty-bottle/orange-copy" transform="translate(57.000000, 20.000000)" fill="url(#linearGradient-3)">
                    <path d="M18.4862639,0 C18.9476743,0 19.321704,0.124070163 19.321704,0.277125612 L19.321704,2.50295747 L18.188,2.502 L18.1889143,2.96891829 C18.1889143,2.96891829 24.5675738,6.74245255 26.0701143,11.7311519 L26.1485007,12.0095358 C27.4912455,17.1358094 27.1076221,21.4231113 25.956752,23.9395365 C24.8060079,26.4559617 23.2716405,27.6676464 23.4633891,30.9297426 C23.6551378,34.1918388 26.2445011,36.8014422 26.2445011,41.8344151 L26.2445011,41.8344151 L26.2445011,75.5738832 C26.2445011,78.088592 22.5932821,78.0069862 15.9776234,77.997726 L11.0223966,77.997726 C4.40663365,78.0069862 0.755531645,78.088592 0.755531645,75.5738832 L0.755531645,75.5738832 L0.755531645,41.8344151 C0.755531645,36.8014422 3.34489487,34.1918388 3.53651757,30.9297426 C3.72839225,27.6676464 2.19402477,26.4559617 1.04315468,23.9395365 C-0.107589429,21.4231113 -0.491212794,17.1358094 0.85140599,12.0095358 C2.19402477,6.88350716 8.81099238,2.96891829 8.81099238,2.96891829 L8.81099238,2.96891829 L8.81,2.502 L7.9532829,2.50295747 L7.9532829,0.277125612 C7.9532829,0.124070163 8.32731252,0 8.78872298,0 L18.4862639,0 Z" id="Combined-Shape"></path>
                </g>
                <g id="illust/empty-bottle/orange-copy" transform="translate(76.000000, 20.000000)" fill="url(#linearGradient-3)">
                    <path d="M18.4862639,0 C18.9476743,0 19.321704,0.124070163 19.321704,0.277125612 L19.321704,2.50295747 L18.188,2.502 L18.1889143,2.96891829 C18.1889143,2.96891829 24.5675738,6.74245255 26.0701143,11.7311519 L26.1485007,12.0095358 C27.4912455,17.1358094 27.1076221,21.4231113 25.956752,23.9395365 C24.8060079,26.4559617 23.2716405,27.6676464 23.4633891,30.9297426 C23.6551378,34.1918388 26.2445011,36.8014422 26.2445011,41.8344151 L26.2445011,41.8344151 L26.2445011,75.5738832 C26.2445011,78.088592 22.5932821,78.0069862 15.9776234,77.997726 L11.0223966,77.997726 C4.40663365,78.0069862 0.755531645,78.088592 0.755531645,75.5738832 L0.755531645,75.5738832 L0.755531645,41.8344151 C0.755531645,36.8014422 3.34489487,34.1918388 3.53651757,30.9297426 C3.72839225,27.6676464 2.19402477,26.4559617 1.04315468,23.9395365 C-0.107589429,21.4231113 -0.491212794,17.1358094 0.85140599,12.0095358 C2.19402477,6.88350716 8.81099238,2.96891829 8.81099238,2.96891829 L8.81099238,2.96891829 L8.81,2.502 L7.9532829,2.50295747 L7.9532829,0.277125612 C7.9532829,0.124070163 8.32731252,0 8.78872298,0 L18.4862639,0 Z" id="Combined-Shape"></path>
                </g>
            </g>
        </g>
    </g>
</svg>