<?xml version="1.0" encoding="UTF-8"?>
<svg width="75px" height="57px" viewBox="0 0 75 57" version="1.1" xmlns="http://www.w3.org/2000/svg" xmlns:xlink="http://www.w3.org/1999/xlink">
    <title>illust_reproduct_top</title>
    <g id="element" stroke="none" stroke-width="1" fill="none" fill-rule="evenodd" opacity="0.8">
        <g id="Artboard" transform="translate(-321.000000, -481.000000)">
            <g id="illust_reproduct_top" transform="translate(321.142788, 481.221724)">
                <g id="illust/bottle-top/blue">
                    <path d="M11.6486639,19.12051 C14.4396976,18.3868631 15.8426725,14.5133333 14.7831478,10.4658802 C13.7236232,6.41842716 10.6049897,3.7318286 7.81395597,4.46547552 C5.02292261,5.19744499 3.61994704,9.07432969 4.67947205,13.1201053 C5.7373215,17.1675587 8.85763017,19.8541569 11.6486639,19.12051" id="Fill-55" fill="#003C5D" transform="translate(9.731310, 11.792993) rotate(105.000000) translate(-9.731310, -11.792993) "></path>
                    <path d="M11.6704145,14.4784966 C14.4614482,13.7448497 15.8644234,9.86964242 14.8048988,5.82218937 C13.747049,1.7764134 10.6267407,-0.911862241 7.83570658,-0.176537872 C5.04467321,0.555431602 3.6433732,4.43063849 4.70122265,8.4780919 C5.7607473,12.525545 8.87938077,15.2121435 11.6704145,14.4784966" id="Fill-57" fill="#057EC2" transform="translate(9.753401, 7.150757) rotate(105.000000) translate(-9.753401, -7.150757) "></path>
                    <path d="M8.36731869,18.1928218 L12.8570968,17.0126073 C15.8250584,11.4981958 14.9851792,6.54822841 9.02238892,2.35757281 L4.53261076,3.53778739 C11.6035556,3.78955634 13.9314248,14.5683339 8.36731869,18.1928218" id="Fill-56" fill="#003C5D" transform="translate(9.526904, 10.275197) rotate(105.000000) translate(-9.526904, -10.275197) "></path>
                </g>
                <g id="illust/bottle-top/blue-copy-2" transform="translate(7.179487, 18.666667)">
                    <path d="M11.6587626,19.1268293 C14.4497994,18.3931938 15.852019,14.5168453 14.791559,10.4659016 C13.7310991,6.41495795 10.611705,3.72552082 7.82066819,4.4591563 C5.0296314,5.19111297 3.62741183,9.07081908 4.68787179,13.120084 C5.74665646,17.1710277 8.86772582,19.8604648 11.6587626,19.1268293" id="Fill-55" fill="#005555" transform="translate(9.739715, 11.792993) rotate(105.000000) translate(-9.739715, -11.792993) "></path>
                    <path d="M11.6805323,14.4848159 C14.4715691,13.7511804 15.8737887,9.87315307 14.8133287,5.82220938 C13.7545441,1.7729445 10.6334747,-0.91817143 7.84243791,-0.18285716 C5.05140111,0.549099511 3.65085684,4.42712683 4.7096415,8.47807052 C5.77010146,12.5290142 8.88949553,15.2184513 11.6805323,14.4848159" id="Fill-57" fill="#008989" transform="translate(9.761826, 7.150757) rotate(105.000000) translate(-9.761826, -7.150757) "></path>
                    <path d="M8.3781556,18.1985709 L12.8679387,17.0183747 C15.8348812,11.5001601 14.9938845,6.54602215 9.02984427,2.35070169 L4.54006118,3.53089788 C11.6114695,3.78439664 13.941801,14.5723635 8.3781556,18.1985709" id="Fill-56" fill="#005555" transform="translate(9.535469, 10.274636) rotate(105.000000) translate(-9.535469, -10.274636) "></path>
                </g>
                <g id="illust/bottle-top/blue-copy-6" transform="translate(19.384615, 37.333333)">
                    <path d="M11.6587626,19.1268293 C14.4497994,18.3931938 15.852019,14.5168453 14.791559,10.4659016 C13.7310991,6.41495795 10.611705,3.72552082 7.82066819,4.4591563 C5.0296314,5.19111297 3.62741183,9.07081908 4.68787179,13.120084 C5.74665646,17.1710277 8.86772582,19.8604648 11.6587626,19.1268293" id="Fill-55" fill="#943E10" transform="translate(9.739715, 11.792993) rotate(105.000000) translate(-9.739715, -11.792993) "></path>
                    <path d="M11.6805323,14.4848159 C14.4715691,13.7511804 15.8737887,9.87315307 14.8133287,5.82220938 C13.7545441,1.7729445 10.6334747,-0.91817143 7.84243791,-0.18285716 C5.05140111,0.549099511 3.65085684,4.42712683 4.7096415,8.47807052 C5.77010146,12.5290142 8.88949553,15.2184513 11.6805323,14.4848159" id="Fill-57" fill="#F36A21" transform="translate(9.761826, 7.150757) rotate(105.000000) translate(-9.761826, -7.150757) "></path>
                    <path d="M8.3781556,18.1985709 L12.8679387,17.0183747 C15.8348812,11.5001601 14.9938845,6.54602215 9.02984427,2.35070169 L4.54006118,3.53089788 C11.6114695,3.78439664 13.941801,14.5723635 8.3781556,18.1985709" id="Fill-56" fill="#943E10" transform="translate(9.535469, 10.274636) rotate(105.000000) translate(-9.535469, -10.274636) "></path>
                </g>
                <g id="illust/bottle-top/blue" transform="translate(17.779828, 0.000000)">
                    <path d="M11.6486639,19.12051 C14.4396976,18.3868631 15.8426725,14.5133333 14.7831478,10.4658802 C13.7236232,6.41842716 10.6049897,3.7318286 7.81395597,4.46547552 C5.02292261,5.19744499 3.61994704,9.07432969 4.67947205,13.1201053 C5.7373215,17.1675587 8.85763017,19.8541569 11.6486639,19.12051" id="Fill-55" fill="#003C5D" transform="translate(9.731310, 11.792993) rotate(105.000000) translate(-9.731310, -11.792993) "></path>
                    <path d="M11.6704145,14.4784966 C14.4614482,13.7448497 15.8644234,9.86964242 14.8048988,5.82218937 C13.747049,1.7764134 10.6267407,-0.911862241 7.83570658,-0.176537872 C5.04467321,0.555431602 3.6433732,4.43063849 4.70122265,8.4780919 C5.7607473,12.525545 8.87938077,15.2121435 11.6704145,14.4784966" id="Fill-57" fill="#057EC2" transform="translate(9.753401, 7.150757) rotate(105.000000) translate(-9.753401, -7.150757) "></path>
                    <path d="M8.36731869,18.1928218 L12.8570968,17.0126073 C15.8250584,11.4981958 14.9851792,6.54822841 9.02238892,2.35757281 L4.53261076,3.53778739 C11.6035556,3.78955634 13.9314248,14.5683339 8.36731869,18.1928218" id="Fill-56" fill="#003C5D" transform="translate(9.526904, 10.275197) rotate(105.000000) translate(-9.526904, -10.275197) "></path>
                </g>
                <g id="illust/bottle-top/blue-copy-2" transform="translate(24.975913, 18.666667)">
                    <path d="M11.6587626,19.1268293 C14.4497994,18.3931938 15.852019,14.5168453 14.791559,10.4659016 C13.7310991,6.41495795 10.611705,3.72552082 7.82066819,4.4591563 C5.0296314,5.19111297 3.62741183,9.07081908 4.68787179,13.120084 C5.74665646,17.1710277 8.86772582,19.8604648 11.6587626,19.1268293" id="Fill-55" fill="#005555" transform="translate(9.739715, 11.792993) rotate(105.000000) translate(-9.739715, -11.792993) "></path>
                    <path d="M11.6805323,14.4848159 C14.4715691,13.7511804 15.8737887,9.87315307 14.8133287,5.82220938 C13.7545441,1.7729445 10.6334747,-0.91817143 7.84243791,-0.18285716 C5.05140111,0.549099511 3.65085684,4.42712683 4.7096415,8.47807052 C5.77010146,12.5290142 8.88949553,15.2184513 11.6805323,14.4848159" id="Fill-57" fill="#008989" transform="translate(9.761826, 7.150757) rotate(105.000000) translate(-9.761826, -7.150757) "></path>
                    <path d="M8.3781556,18.1985709 L12.8679387,17.0183747 C15.8348812,11.5001601 14.9938845,6.54602215 9.02984427,2.35070169 L4.54006118,3.53089788 C11.6114695,3.78439664 13.941801,14.5723635 8.3781556,18.1985709" id="Fill-56" fill="#005555" transform="translate(9.535469, 10.274636) rotate(105.000000) translate(-9.535469, -10.274636) "></path>
                </g>
                <g id="illust/bottle-top/blue-copy-6" transform="translate(37.181041, 37.333333)">
                    <path d="M11.6587626,19.1268293 C14.4497994,18.3931938 15.852019,14.5168453 14.791559,10.4659016 C13.7310991,6.41495795 10.611705,3.72552082 7.82066819,4.4591563 C5.0296314,5.19111297 3.62741183,9.07081908 4.68787179,13.120084 C5.74665646,17.1710277 8.86772582,19.8604648 11.6587626,19.1268293" id="Fill-55" fill="#943E10" transform="translate(9.739715, 11.792993) rotate(105.000000) translate(-9.739715, -11.792993) "></path>
                    <path d="M11.6805323,14.4848159 C14.4715691,13.7511804 15.8737887,9.87315307 14.8133287,5.82220938 C13.7545441,1.7729445 10.6334747,-0.91817143 7.84243791,-0.18285716 C5.05140111,0.549099511 3.65085684,4.42712683 4.7096415,8.47807052 C5.77010146,12.5290142 8.88949553,15.2184513 11.6805323,14.4848159" id="Fill-57" fill="#F36A21" transform="translate(9.761826, 7.150757) rotate(105.000000) translate(-9.761826, -7.150757) "></path>
                    <path d="M8.3781556,18.1985709 L12.8679387,17.0183747 C15.8348812,11.5001601 14.9938845,6.54602215 9.02984427,2.35070169 L4.54006118,3.53089788 C11.6114695,3.78439664 13.941801,14.5723635 8.3781556,18.1985709" id="Fill-56" fill="#943E10" transform="translate(9.535469, 10.274636) rotate(105.000000) translate(-9.535469, -10.274636) "></path>
                </g>
                <g id="illust/bottle-top/blue" transform="translate(35.559656, 0.000000)">
                    <path d="M11.6486639,19.12051 C14.4396976,18.3868631 15.8426725,14.5133333 14.7831478,10.4658802 C13.7236232,6.41842716 10.6049897,3.7318286 7.81395597,4.46547552 C5.02292261,5.19744499 3.61994704,9.07432969 4.67947205,13.1201053 C5.7373215,17.1675587 8.85763017,19.8541569 11.6486639,19.12051" id="Fill-55" fill="#003C5D" transform="translate(9.731310, 11.792993) rotate(105.000000) translate(-9.731310, -11.792993) "></path>
                    <path d="M11.6704145,14.4784966 C14.4614482,13.7448497 15.8644234,9.86964242 14.8048988,5.82218937 C13.747049,1.7764134 10.6267407,-0.911862241 7.83570658,-0.176537872 C5.04467321,0.555431602 3.6433732,4.43063849 4.70122265,8.4780919 C5.7607473,12.525545 8.87938077,15.2121435 11.6704145,14.4784966" id="Fill-57" fill="#057EC2" transform="translate(9.753401, 7.150757) rotate(105.000000) translate(-9.753401, -7.150757) "></path>
                    <path d="M8.36731869,18.1928218 L12.8570968,17.0126073 C15.8250584,11.4981958 14.9851792,6.54822841 9.02238892,2.35757281 L4.53261076,3.53778739 C11.6035556,3.78955634 13.9314248,14.5683339 8.36731869,18.1928218" id="Fill-56" fill="#003C5D" transform="translate(9.526904, 10.275197) rotate(105.000000) translate(-9.526904, -10.275197) "></path>
                </g>
                <g id="illust/bottle-top/blue-copy-2" transform="translate(42.772339, 18.666667)">
                    <path d="M11.6587626,19.1268293 C14.4497994,18.3931938 15.852019,14.5168453 14.791559,10.4659016 C13.7310991,6.41495795 10.611705,3.72552082 7.82066819,4.4591563 C5.0296314,5.19111297 3.62741183,9.07081908 4.68787179,13.120084 C5.74665646,17.1710277 8.86772582,19.8604648 11.6587626,19.1268293" id="Fill-55" fill="#005555" transform="translate(9.739715, 11.792993) rotate(105.000000) translate(-9.739715, -11.792993) "></path>
                    <path d="M11.6805323,14.4848159 C14.4715691,13.7511804 15.8737887,9.87315307 14.8133287,5.82220938 C13.7545441,1.7729445 10.6334747,-0.91817143 7.84243791,-0.18285716 C5.05140111,0.549099511 3.65085684,4.42712683 4.7096415,8.47807052 C5.77010146,12.5290142 8.88949553,15.2184513 11.6805323,14.4848159" id="Fill-57" fill="#008989" transform="translate(9.761826, 7.150757) rotate(105.000000) translate(-9.761826, -7.150757) "></path>
                    <path d="M8.3781556,18.1985709 L12.8679387,17.0183747 C15.8348812,11.5001601 14.9938845,6.54602215 9.02984427,2.35070169 L4.54006118,3.53089788 C11.6114695,3.78439664 13.941801,14.5723635 8.3781556,18.1985709" id="Fill-56" fill="#005555" transform="translate(9.535469, 10.274636) rotate(105.000000) translate(-9.535469, -10.274636) "></path>
                </g>
                <g id="illust/bottle-top/blue-copy-6" transform="translate(54.977467, 37.333333)">
                    <path d="M11.6587626,19.1268293 C14.4497994,18.3931938 15.852019,14.5168453 14.791559,10.4659016 C13.7310991,6.41495795 10.611705,3.72552082 7.82066819,4.4591563 C5.0296314,5.19111297 3.62741183,9.07081908 4.68787179,13.120084 C5.74665646,17.1710277 8.86772582,19.8604648 11.6587626,19.1268293" id="Fill-55" fill="#943E10" transform="translate(9.739715, 11.792993) rotate(105.000000) translate(-9.739715, -11.792993) "></path>
                    <path d="M11.6805323,14.4848159 C14.4715691,13.7511804 15.8737887,9.87315307 14.8133287,5.82220938 C13.7545441,1.7729445 10.6334747,-0.91817143 7.84243791,-0.18285716 C5.05140111,0.549099511 3.65085684,4.42712683 4.7096415,8.47807052 C5.77010146,12.5290142 8.88949553,15.2184513 11.6805323,14.4848159" id="Fill-57" fill="#F36A21" transform="translate(9.761826, 7.150757) rotate(105.000000) translate(-9.761826, -7.150757) "></path>
                    <path d="M8.3781556,18.1985709 L12.8679387,17.0183747 C15.8348812,11.5001601 14.9938845,6.54602215 9.02984427,2.35070169 L4.54006118,3.53089788 C11.6114695,3.78439664 13.941801,14.5723635 8.3781556,18.1985709" id="Fill-56" fill="#943E10" transform="translate(9.535469, 10.274636) rotate(105.000000) translate(-9.535469, -10.274636) "></path>
                </g>
            </g>
        </g>
    </g>
</svg>