<?xml version="1.0" encoding="UTF-8"?>
<svg width="440px" height="440px" viewBox="0 0 440 440" version="1.1" xmlns="http://www.w3.org/2000/svg" xmlns:xlink="http://www.w3.org/1999/xlink">
    <title>illust_earth_green</title>
    <defs>
        <path d="M0,220 C0,341.502333 98.4976667,440 220,440 L220,440 C341.502333,440 440,341.502333 440,220 L440,220 C440,98.4976667 341.502333,0 220,0 L220,0 C98.4976667,0 0,98.4976667 0,220" id="path-1"></path>
        <path d="M0,220 C0,341.502333 98.4976667,440 220,440 L220,440 C341.502333,440 440,341.502333 440,220 L440,220 C440,98.4976667 341.502333,0 220,0 L220,0 C98.4976667,0 0,98.4976667 0,220" id="path-3"></path>
        <path d="M0,220 C0,341.502333 98.4976667,440 220,440 L220,440 C341.502333,440 440,341.502333 440,220 L440,220 C440,98.4976667 341.502333,0 220,0 L220,0 C98.4976667,0 0,98.4976667 0,220" id="path-5"></path>
        <path d="M0,220 C0,341.502333 98.4976667,440 220,440 L220,440 C341.502333,440 440,341.502333 440,220 L440,220 C440,98.4976667 341.502333,0 220,0 L220,0 C98.4976667,0 0,98.4976667 0,220" id="path-7"></path>
        <path d="M0,220 C0,341.502333 98.4976667,440 220,440 L220,440 C341.502333,440 440,341.502333 440,220 L440,220 C440,98.4976667 341.502333,0 220,0 L220,0 C98.4976667,0 0,98.4976667 0,220" id="path-9"></path>
        <path d="M0,220 C0,341.502333 98.4976667,440 220,440 L220,440 C341.502333,440 440,341.502333 440,220 L440,220 C440,98.4976667 341.502333,0 220,0 L220,0 C98.4976667,0 0,98.4976667 0,220" id="path-11"></path>
        <path d="M0,220 C0,341.502333 98.4976667,440 220,440 L220,440 C341.502333,440 440,341.502333 440,220 L440,220 C440,98.4976667 341.502333,0 220,0 L220,0 C98.4976667,0 0,98.4976667 0,220" id="path-13"></path>
        <path d="M0,220 C0,341.502333 98.4976667,440 220,440 L220,440 C341.502333,440 440,341.502333 440,220 L440,220 C440,98.4976667 341.502333,0 220,0 L220,0 C98.4976667,0 0,98.4976667 0,220" id="path-15"></path>
        <path d="M0,220 C0,341.502333 98.4976667,440 220,440 L220,440 C341.502333,440 440,341.502333 440,220 L440,220 C440,98.4976667 341.502333,0 220,0 L220,0 C98.4976667,0 0,98.4976667 0,220" id="path-17"></path>
        <path d="M0,220 C0,341.502333 98.4976667,440 220,440 L220,440 C341.502333,440 440,341.502333 440,220 L440,220 C440,98.4976667 341.502333,0 220,0 L220,0 C98.4976667,0 0,98.4976667 0,220" id="path-19"></path>
        <path d="M0,220 C0,341.502333 98.4976667,440 220,440 L220,440 C341.502333,440 440,341.502333 440,220 L440,220 C440,98.4976667 341.502333,0 220,0 L220,0 C98.4976667,0 0,98.4976667 0,220" id="path-21"></path>
        <path d="M0,220 C0,341.502333 98.4976667,440 220,440 L220,440 C341.502333,440 440,341.502333 440,220 L440,220 C440,98.4976667 341.502333,0 220,0 L220,0 C98.4976667,0 0,98.4976667 0,220" id="path-23"></path>
        <path d="M0,220 C0,341.502333 98.4976667,440 220,440 L220,440 C341.502333,440 440,341.502333 440,220 L440,220 C440,98.4976667 341.502333,0 220,0 L220,0 C98.4976667,0 0,98.4976667 0,220" id="path-25"></path>
        <path d="M0,220 C0,341.502333 98.4976667,440 220,440 L220,440 C341.502333,440 440,341.502333 440,220 L440,220 C440,98.4976667 341.502333,0 220,0 L220,0 C98.4976667,0 0,98.4976667 0,220" id="path-27"></path>
        <path d="M0,220 C0,341.502333 98.4976667,440 220,440 L220,440 C341.502333,440 440,341.502333 440,220 L440,220 C440,98.4976667 341.502333,0 220,0 L220,0 C98.4976667,0 0,98.4976667 0,220" id="path-29"></path>
        <path d="M0,220 C0,341.502333 98.4976667,440 220,440 L220,440 C341.502333,440 440,341.502333 440,220 L440,220 C440,98.4976667 341.502333,0 220,0 L220,0 C98.4976667,0 0,98.4976667 0,220" id="path-31"></path>
        <path d="M0,220 C0,341.502333 98.4976667,440 220,440 L220,440 C341.502333,440 440,341.502333 440,220 L440,220 C440,98.4976667 341.502333,0 220,0 L220,0 C98.4976667,0 0,98.4976667 0,220" id="path-33"></path>
        <path d="M0,220 C0,341.502333 98.4976667,440 220,440 L220,440 C341.502333,440 440,341.502333 440,220 L440,220 C440,98.4976667 341.502333,0 220,0 L220,0 C98.4976667,0 0,98.4976667 0,220" id="path-35"></path>
        <path d="M0,220 C0,341.502333 98.4976667,440 220,440 L220,440 C341.502333,440 440,341.502333 440,220 L440,220 C440,98.4976667 341.502333,0 220,0 L220,0 C98.4976667,0 0,98.4976667 0,220" id="path-37"></path>
        <path d="M0,220 C0,341.502333 98.4976667,440 220,440 L220,440 C341.502333,440 440,341.502333 440,220 L440,220 C440,98.4976667 341.502333,0 220,0 L220,0 C98.4976667,0 0,98.4976667 0,220" id="path-39"></path>
        <path d="M0,220 C0,341.502333 98.4976667,440 220,440 L220,440 C341.502333,440 440,341.502333 440,220 L440,220 C440,98.4976667 341.502333,0 220,0 L220,0 C98.4976667,0 0,98.4976667 0,220" id="path-41"></path>
        <path d="M0,220 C0,341.502333 98.4976667,440 220,440 L220,440 C341.502333,440 440,341.502333 440,220 L440,220 C440,98.4976667 341.502333,0 220,0 L220,0 C98.4976667,0 0,98.4976667 0,220" id="path-43"></path>
        <path d="M0,220 C0,341.502333 98.4976667,440 220,440 L220,440 C341.502333,440 440,341.502333 440,220 L440,220 C440,98.4976667 341.502333,0 220,0 L220,0 C98.4976667,0 0,98.4976667 0,220" id="path-45"></path>
        <path d="M0,220 C0,341.502333 98.4976667,440 220,440 L220,440 C341.502333,440 440,341.502333 440,220 L440,220 C440,98.4976667 341.502333,0 220,0 L220,0 C98.4976667,0 0,98.4976667 0,220" id="path-47"></path>
        <path d="M0,220 C0,341.502333 98.4976667,440 220,440 L220,440 C341.502333,440 440,341.502333 440,220 L440,220 C440,98.4976667 341.502333,0 220,0 L220,0 C98.4976667,0 0,98.4976667 0,220" id="path-49"></path>
        <path d="M0,220 C0,341.502333 98.4976667,440 220,440 L220,440 C341.502333,440 440,341.502333 440,220 L440,220 C440,98.4976667 341.502333,0 220,0 L220,0 C98.4976667,0 0,98.4976667 0,220" id="path-51"></path>
        <path d="M0,220 C0,341.502333 98.4976667,440 220,440 L220,440 C341.502333,440 440,341.502333 440,220 L440,220 C440,98.4976667 341.502333,0 220,0 L220,0 C98.4976667,0 0,98.4976667 0,220" id="path-53"></path>
        <path d="M0,220 C0,341.502333 98.4976667,440 220,440 L220,440 C341.502333,440 440,341.502333 440,220 L440,220 C440,98.4976667 341.502333,0 220,0 L220,0 C98.4976667,0 0,98.4976667 0,220" id="path-55"></path>
        <path d="M0,220 C0,341.502333 98.4976667,440 220,440 L220,440 C341.502333,440 440,341.502333 440,220 L440,220 C440,98.4976667 341.502333,0 220,0 L220,0 C98.4976667,0 0,98.4976667 0,220" id="path-57"></path>
        <path d="M0,220 C0,341.502333 98.4976667,440 220,440 L220,440 C341.502333,440 440,341.502333 440,220 L440,220 C440,98.4976667 341.502333,0 220,0 L220,0 C98.4976667,0 0,98.4976667 0,220" id="path-59"></path>
        <path d="M0,220 C0,341.502333 98.4976667,440 220,440 L220,440 C341.502333,440 440,341.502333 440,220 L440,220 C440,98.4976667 341.502333,0 220,0 L220,0 C98.4976667,0 0,98.4976667 0,220" id="path-61"></path>
        <path d="M0,220 C0,341.502333 98.4976667,440 220,440 L220,440 C341.502333,440 440,341.502333 440,220 L440,220 C440,98.4976667 341.502333,0 220,0 L220,0 C98.4976667,0 0,98.4976667 0,220" id="path-63"></path>
        <path d="M0,220 C0,341.502333 98.4976667,440 220,440 L220,440 C341.502333,440 440,341.502333 440,220 L440,220 C440,98.4976667 341.502333,0 220,0 L220,0 C98.4976667,0 0,98.4976667 0,220" id="path-65"></path>
        <path d="M0,220 C0,341.502333 98.4976667,440 220,440 L220,440 C341.502333,440 440,341.502333 440,220 L440,220 C440,98.4976667 341.502333,0 220,0 L220,0 C98.4976667,0 0,98.4976667 0,220" id="path-67"></path>
        <path d="M0,220 C0,341.502333 98.4976667,440 220,440 L220,440 C341.502333,440 440,341.502333 440,220 L440,220 C440,98.4976667 341.502333,0 220,0 L220,0 C98.4976667,0 0,98.4976667 0,220" id="path-69"></path>
        <path d="M0,220 C0,341.502333 98.4976667,440 220,440 L220,440 C341.502333,440 440,341.502333 440,220 L440,220 C440,98.4976667 341.502333,0 220,0 L220,0 C98.4976667,0 0,98.4976667 0,220" id="path-71"></path>
        <path d="M0,220 C0,341.502333 98.4976667,440 220,440 L220,440 C341.502333,440 440,341.502333 440,220 L440,220 C440,98.4976667 341.502333,0 220,0 L220,0 C98.4976667,0 0,98.4976667 0,220" id="path-73"></path>
        <path d="M0,220 C0,341.502333 98.4976667,440 220,440 L220,440 C341.502333,440 440,341.502333 440,220 L440,220 C440,98.4976667 341.502333,0 220,0 L220,0 C98.4976667,0 0,98.4976667 0,220" id="path-75"></path>
        <path d="M0,220 C0,341.502333 98.4976667,440 220,440 L220,440 C341.502333,440 440,341.502333 440,220 L440,220 C440,98.4976667 341.502333,0 220,0 L220,0 C98.4976667,0 0,98.4976667 0,220" id="path-77"></path>
        <path d="M0,220 C0,341.502333 98.4976667,440 220,440 L220,440 C341.502333,440 440,341.502333 440,220 L440,220 C440,98.4976667 341.502333,0 220,0 L220,0 C98.4976667,0 0,98.4976667 0,220" id="path-79"></path>
        <path d="M0,220 C0,341.502333 98.4976667,440 220,440 L220,440 C341.502333,440 440,341.502333 440,220 L440,220 C440,98.4976667 341.502333,0 220,0 L220,0 C98.4976667,0 0,98.4976667 0,220" id="path-81"></path>
        <path d="M0,220 C0,341.502333 98.4976667,440 220,440 L220,440 C341.502333,440 440,341.502333 440,220 L440,220 C440,98.4976667 341.502333,0 220,0 L220,0 C98.4976667,0 0,98.4976667 0,220" id="path-83"></path>
        <path d="M0,220 C0,341.502333 98.4976667,440 220,440 L220,440 C341.502333,440 440,341.502333 440,220 L440,220 C440,98.4976667 341.502333,0 220,0 L220,0 C98.4976667,0 0,98.4976667 0,220" id="path-85"></path>
        <path d="M0,220 C0,341.502333 98.4976667,440 220,440 L220,440 C341.502333,440 440,341.502333 440,220 L440,220 C440,98.4976667 341.502333,0 220,0 L220,0 C98.4976667,0 0,98.4976667 0,220" id="path-87"></path>
        <path d="M0,220 C0,341.502333 98.4976667,440 220,440 L220,440 C341.502333,440 440,341.502333 440,220 L440,220 C440,98.4976667 341.502333,0 220,0 L220,0 C98.4976667,0 0,98.4976667 0,220" id="path-89"></path>
        <path d="M0,220 C0,341.502333 98.4976667,440 220,440 L220,440 C341.502333,440 440,341.502333 440,220 L440,220 C440,98.4976667 341.502333,0 220,0 L220,0 C98.4976667,0 0,98.4976667 0,220" id="path-91"></path>
        <path d="M0,220 C0,341.502333 98.4976667,440 220,440 L220,440 C341.502333,440 440,341.502333 440,220 L440,220 C440,98.4976667 341.502333,0 220,0 L220,0 C98.4976667,0 0,98.4976667 0,220" id="path-93"></path>
        <path d="M0,220 C0,341.502333 98.4976667,440 220,440 L220,440 C341.502333,440 440,341.502333 440,220 L440,220 C440,98.4976667 341.502333,0 220,0 L220,0 C98.4976667,0 0,98.4976667 0,220" id="path-95"></path>
        <path d="M0,220 C0,341.502333 98.4976667,440 220,440 L220,440 C341.502333,440 440,341.502333 440,220 L440,220 C440,98.4976667 341.502333,0 220,0 L220,0 C98.4976667,0 0,98.4976667 0,220" id="path-97"></path>
        <path d="M0,220 C0,341.502333 98.4976667,440 220,440 L220,440 C341.502333,440 440,341.502333 440,220 L440,220 C440,98.4976667 341.502333,0 220,0 L220,0 C98.4976667,0 0,98.4976667 0,220" id="path-99"></path>
    </defs>
    <g id="Page-1" stroke="none" stroke-width="1" fill="none" fill-rule="evenodd">
        <g id="illust_earth_green">
            <path d="M440,220 C440,341.502333 341.502333,440 220,440 C98.4976667,440 0,341.502333 0,220 C0,98.4976667 98.4976667,0 220,0 C341.502333,0 440,98.4976667 440,220" id="Fill-67" fill="#2CDC87"></path>
            <g>
                <g id="Group-71">
                    <mask id="mask-2" fill="white">
                        <use xlink:href="#path-1"></use>
                    </mask>
                    <g id="Clip-70"></g>
                    <line x1="-66.1837" y1="22.6965444" x2="209.879633" y2="22.6965444" id="Stroke-69" stroke="#9EEDC3" stroke-width="5.684" stroke-linecap="round" mask="url(#mask-2)"></line>
                </g>
                <g id="Group-74">
                    <mask id="mask-4" fill="white">
                        <use xlink:href="#path-3"></use>
                    </mask>
                    <g id="Clip-73"></g>
                    <line x1="-74.9837" y1="49.9169" x2="177.5213" y2="49.9169" id="Stroke-72" stroke="#9EEDC3" stroke-width="5.684" stroke-linecap="round" mask="url(#mask-4)"></line>
                </g>
                <g id="Group-77">
                    <mask id="mask-6" fill="white">
                        <use xlink:href="#path-5"></use>
                    </mask>
                    <g id="Clip-76"></g>
                    <line x1="296.564644" y1="22.6965444" x2="506.887089" y2="22.6965444" id="Stroke-75" stroke="#9EEDC3" stroke-width="5.684" stroke-linecap="round" mask="url(#mask-6)"></line>
                </g>
                <g id="Group-80">
                    <mask id="mask-8" fill="white">
                        <use xlink:href="#path-7"></use>
                    </mask>
                    <g id="Clip-79"></g>
                    <line x1="301.329478" y1="49.9169" x2="493.237922" y2="49.9169" id="Stroke-78" stroke="#9EEDC3" stroke-width="5.684" stroke-linecap="round" mask="url(#mask-8)"></line>
                </g>
                <g id="Group-83">
                    <mask id="mask-10" fill="white">
                        <use xlink:href="#path-9"></use>
                    </mask>
                    <g id="Clip-82"></g>
                    <line x1="358.703156" y1="77.1371333" x2="515.6866" y2="77.1371333" id="Stroke-81" stroke="#9EEDC3" stroke-width="5.684" stroke-linecap="round" mask="url(#mask-10)"></line>
                </g>
                <g id="Group-86">
                    <mask id="mask-12" fill="white">
                        <use xlink:href="#path-11"></use>
                    </mask>
                    <g id="Clip-85"></g>
                    <line x1="76.9171333" y1="77.1371333" x2="242.926689" y2="77.1371333" id="Stroke-84" stroke="#9EEDC3" stroke-width="5.684" stroke-linecap="round" mask="url(#mask-12)"></line>
                </g>
                <g id="Group-89">
                    <mask id="mask-14" fill="white">
                        <use xlink:href="#path-13"></use>
                    </mask>
                    <g id="Clip-88"></g>
                    <line x1="57.9971333" y1="158.797956" x2="228.187911" y2="158.797956" id="Stroke-87" stroke="#9EEDC3" stroke-width="5.684" stroke-linecap="round" mask="url(#mask-14)"></line>
                </g>
                <g id="Group-92">
                    <mask id="mask-16" fill="white">
                        <use xlink:href="#path-15"></use>
                    </mask>
                    <g id="Clip-91"></g>
                    <line x1="99.0592778" y1="186.018189" x2="235.664611" y2="186.018189" id="Stroke-90" stroke="#9EEDC3" stroke-width="5.684" stroke-linecap="round" mask="url(#mask-16)"></line>
                </g>
                <g id="Group-95">
                    <mask id="mask-18" fill="white">
                        <use xlink:href="#path-17"></use>
                    </mask>
                    <g id="Clip-94"></g>
                    <line x1="401.788811" y1="186.018189" x2="493.686478" y2="186.018189" id="Stroke-93" stroke="#9EEDC3" stroke-width="5.684" stroke-linecap="round" mask="url(#mask-18)"></line>
                </g>
                <g id="Group-98">
                    <mask id="mask-20" fill="white">
                        <use xlink:href="#path-19"></use>
                    </mask>
                    <g id="Clip-97"></g>
                    <line x1="370.713444" y1="213.238544" x2="484.887333" y2="213.238544" id="Stroke-96" stroke="#9EEDC3" stroke-width="5.684" stroke-linecap="round" mask="url(#mask-20)"></line>
                </g>
                <g id="Group-101">
                    <mask id="mask-22" fill="white">
                        <use xlink:href="#path-21"></use>
                    </mask>
                    <g id="Clip-100"></g>
                    <line x1="374.763156" y1="240.458778" x2="505.2366" y2="240.458778" id="Stroke-99" stroke="#9EEDC3" stroke-width="5.684" stroke-linecap="round" mask="url(#mask-22)"></line>
                </g>
                <g id="Group-104">
                    <mask id="mask-24" fill="white">
                        <use xlink:href="#path-23"></use>
                    </mask>
                    <g id="Clip-103"></g>
                    <line x1="359.668344" y1="267.679011" x2="490.141789" y2="267.679011" id="Stroke-102" stroke="#9EEDC3" stroke-width="5.684" stroke-linecap="round" mask="url(#mask-24)"></line>
                </g>
                <g id="Group-107">
                    <mask id="mask-26" fill="white">
                        <use xlink:href="#path-25"></use>
                    </mask>
                    <g id="Clip-106"></g>
                    <line x1="374.763156" y1="294.899244" x2="505.2366" y2="294.899244" id="Stroke-105" stroke="#9EEDC3" stroke-width="5.684" stroke-linecap="round" mask="url(#mask-26)"></line>
                </g>
                <g id="Group-110">
                    <mask id="mask-28" fill="white">
                        <use xlink:href="#path-27"></use>
                    </mask>
                    <g id="Clip-109"></g>
                    <line x1="188.443689" y1="213.238544" x2="218.065467" y2="213.238544" id="Stroke-108" stroke="#9EEDC3" stroke-width="5.684" stroke-linecap="round" mask="url(#mask-28)"></line>
                </g>
                <g id="Group-113">
                    <mask id="mask-30" fill="white">
                        <use xlink:href="#path-29"></use>
                    </mask>
                    <g id="Clip-112"></g>
                    <line x1="159.0314" y1="267.679011" x2="188.7974" y2="267.679011" id="Stroke-111" stroke="#9EEDC3" stroke-width="5.684" stroke-linecap="round" mask="url(#mask-30)"></line>
                </g>
                <g id="Group-116">
                    <mask id="mask-32" fill="white">
                        <use xlink:href="#path-31"></use>
                    </mask>
                    <g id="Clip-115"></g>
                    <line x1="138.291756" y1="226.8486" x2="188.735311" y2="226.8486" id="Stroke-114" stroke="#9EEDC3" stroke-width="5.684" stroke-linecap="round" mask="url(#mask-32)"></line>
                </g>
                <g id="Group-119">
                    <mask id="mask-34" fill="white">
                        <use xlink:href="#path-33"></use>
                    </mask>
                    <g id="Clip-118"></g>
                    <line x1="108.378233" y1="213.238544" x2="173.915011" y2="213.238544" id="Stroke-117" stroke="#9EEDC3" stroke-width="5.684" stroke-linecap="round" mask="url(#mask-34)"></line>
                </g>
                <g id="Group-122">
                    <mask id="mask-36" fill="white">
                        <use xlink:href="#path-35"></use>
                    </mask>
                    <g id="Clip-121"></g>
                    <line x1="95.0584556" y1="294.899244" x2="121.236011" y2="294.899244" id="Stroke-120" stroke="#9EEDC3" stroke-width="5.684" stroke-linecap="round" mask="url(#mask-36)"></line>
                </g>
                <g id="Group-125">
                    <mask id="mask-38" fill="white">
                        <use xlink:href="#path-37"></use>
                    </mask>
                    <g id="Clip-124"></g>
                    <line x1="83.9243778" y1="322.1196" x2="149.182489" y2="322.1196" id="Stroke-123" stroke="#9EEDC3" stroke-width="5.684" stroke-linecap="round" mask="url(#mask-38)"></line>
                </g>
                <g id="Group-128">
                    <mask id="mask-40" fill="white">
                        <use xlink:href="#path-39"></use>
                    </mask>
                    <g id="Clip-127"></g>
                    <line x1="165.141533" y1="322.1196" x2="191.514644" y2="322.1196" id="Stroke-126" stroke="#9EEDC3" stroke-width="5.684" stroke-linecap="round" mask="url(#mask-40)"></line>
                </g>
                <g id="Group-131">
                    <mask id="mask-42" fill="white">
                        <use xlink:href="#path-41"></use>
                    </mask>
                    <g id="Clip-130"></g>
                    <line x1="145.621911" y1="349.339833" x2="233.246689" y2="349.339833" id="Stroke-129" stroke="#9EEDC3" stroke-width="5.684" stroke-linecap="round" mask="url(#mask-42)"></line>
                </g>
                <g id="Group-134">
                    <mask id="mask-44" fill="white">
                        <use xlink:href="#path-43"></use>
                    </mask>
                    <g id="Clip-133"></g>
                    <line x1="142.306144" y1="376.560067" x2="290.312367" y2="376.560067" id="Stroke-132" stroke="#9EEDC3" stroke-width="5.684" stroke-linecap="round" mask="url(#mask-44)"></line>
                </g>
                <g id="Group-137">
                    <mask id="mask-46" fill="white">
                        <use xlink:href="#path-45"></use>
                    </mask>
                    <g id="Clip-136"></g>
                    <line x1="158.123778" y1="403.780422" x2="284.306" y2="403.780422" id="Stroke-135" stroke="#9EEDC3" stroke-width="5.684" stroke-linecap="round" mask="url(#mask-46)"></line>
                </g>
                <g id="Group-140">
                    <mask id="mask-48" fill="white">
                        <use xlink:href="#path-47"></use>
                    </mask>
                    <g id="Clip-139"></g>
                    <line x1="209.265589" y1="417.390478" x2="360.799144" y2="417.390478" id="Stroke-138" stroke="#9EEDC3" stroke-width="5.684" stroke-linecap="round" mask="url(#mask-48)"></line>
                </g>
                <g id="Group-143">
                    <mask id="mask-50" fill="white">
                        <use xlink:href="#path-49"></use>
                    </mask>
                    <g id="Clip-142"></g>
                    <line x1="238.814644" y1="431.000656" x2="390.3482" y2="431.000656" id="Stroke-141" stroke="#9EEDC3" stroke-width="5.684" stroke-linecap="round" mask="url(#mask-50)"></line>
                </g>
                <g id="Group-146">
                    <mask id="mask-52" fill="white">
                        <use xlink:href="#path-51"></use>
                    </mask>
                    <g id="Clip-145"></g>
                    <line x1="62.6082111" y1="104.357367" x2="287.438433" y2="104.357367" id="Stroke-144" stroke="#9EEDC3" stroke-width="5.684" stroke-linecap="round" mask="url(#mask-52)"></line>
                </g>
                <g id="Group-149">
                    <mask id="mask-54" fill="white">
                        <use xlink:href="#path-53"></use>
                    </mask>
                    <g id="Clip-148"></g>
                    <line x1="38.5650222" y1="131.577722" x2="259.646689" y2="131.577722" id="Stroke-147" stroke="#9EEDC3" stroke-width="5.684" stroke-linecap="round" mask="url(#mask-54)"></line>
                </g>
                <g id="Group-152">
                    <mask id="mask-56" fill="white">
                        <use xlink:href="#path-55"></use>
                    </mask>
                    <g id="Clip-151"></g>
                    <line x1="-79.3837" y1="36.3067222" x2="196.679633" y2="36.3067222" id="Stroke-150" stroke="#9EEDC3" stroke-width="5.684" stroke-linecap="round" mask="url(#mask-56)"></line>
                </g>
                <g id="Group-155">
                    <mask id="mask-58" fill="white">
                        <use xlink:href="#path-57"></use>
                    </mask>
                    <g id="Clip-154"></g>
                    <line x1="-46.0490556" y1="9.08648889" x2="230.014278" y2="9.08648889" id="Stroke-153" stroke="#9EEDC3" stroke-width="5.684" stroke-linecap="round" mask="url(#mask-58)"></line>
                </g>
                <g id="Group-158">
                    <mask id="mask-60" fill="white">
                        <use xlink:href="#path-59"></use>
                    </mask>
                    <g id="Clip-157"></g>
                    <line x1="-83.7837" y1="63.5270778" x2="168.7213" y2="63.5270778" id="Stroke-156" stroke="#9EEDC3" stroke-width="5.684" stroke-linecap="round" mask="url(#mask-60)"></line>
                </g>
                <g id="Group-161">
                    <mask id="mask-62" fill="white">
                        <use xlink:href="#path-61"></use>
                    </mask>
                    <g id="Clip-160"></g>
                    <line x1="284.202478" y1="36.3067222" x2="515.686478" y2="36.3067222" id="Stroke-159" stroke="#9EEDC3" stroke-width="5.684" stroke-linecap="round" mask="url(#mask-62)"></line>
                </g>
                <g id="Group-164">
                    <mask id="mask-64" fill="white">
                        <use xlink:href="#path-63"></use>
                    </mask>
                    <g id="Clip-163"></g>
                    <line x1="337.750844" y1="63.5270778" x2="529.659289" y2="63.5270778" id="Stroke-162" stroke="#9EEDC3" stroke-width="5.684" stroke-linecap="round" mask="url(#mask-64)"></line>
                </g>
                <g id="Group-167">
                    <mask id="mask-66" fill="white">
                        <use xlink:href="#path-65"></use>
                    </mask>
                    <g id="Clip-166"></g>
                    <line x1="376.303156" y1="90.7473111" x2="533.2866" y2="90.7473111" id="Stroke-165" stroke="#9EEDC3" stroke-width="5.684" stroke-linecap="round" mask="url(#mask-66)"></line>
                </g>
                <g id="Group-170">
                    <mask id="mask-68" fill="white">
                        <use xlink:href="#path-67"></use>
                    </mask>
                    <g id="Clip-169"></g>
                    <line x1="89.2371333" y1="90.7473111" x2="255.246689" y2="90.7473111" id="Stroke-168" stroke="#9EEDC3" stroke-width="5.684" stroke-linecap="round" mask="url(#mask-68)"></line>
                </g>
                <g id="Group-173">
                    <mask id="mask-70" fill="white">
                        <use xlink:href="#path-69"></use>
                    </mask>
                    <g id="Clip-172"></g>
                    <line x1="79.9971333" y1="172.408133" x2="242.406022" y2="172.408133" id="Stroke-171" stroke="#9EEDC3" stroke-width="5.684" stroke-linecap="round" mask="url(#mask-70)"></line>
                </g>
                <g id="Group-176">
                    <mask id="mask-72" fill="white">
                        <use xlink:href="#path-71"></use>
                    </mask>
                    <g id="Clip-175"></g>
                    <line x1="90.8747889" y1="199.628367" x2="220.000122" y2="199.628367" id="Stroke-174" stroke="#9EEDC3" stroke-width="5.684" stroke-linecap="round" mask="url(#mask-72)"></line>
                </g>
                <g id="Group-179">
                    <mask id="mask-74" fill="white">
                        <use xlink:href="#path-73"></use>
                    </mask>
                    <g id="Clip-178"></g>
                    <line x1="392.988811" y1="199.628367" x2="484.886478" y2="199.628367" id="Stroke-177" stroke="#9EEDC3" stroke-width="5.684" stroke-linecap="round" mask="url(#mask-74)"></line>
                </g>
                <g id="Group-182">
                    <mask id="mask-76" fill="white">
                        <use xlink:href="#path-75"></use>
                    </mask>
                    <g id="Clip-181"></g>
                    <line x1="358.814133" y1="226.8486" x2="472.988022" y2="226.8486" id="Stroke-180" stroke="#9EEDC3" stroke-width="5.684" stroke-linecap="round" mask="url(#mask-76)"></line>
                </g>
                <g id="Group-185">
                    <mask id="mask-78" fill="white">
                        <use xlink:href="#path-77"></use>
                    </mask>
                    <g id="Clip-184"></g>
                    <line x1="390.906511" y1="254.068833" x2="521.379956" y2="254.068833" id="Stroke-183" stroke="#9EEDC3" stroke-width="5.684" stroke-linecap="round" mask="url(#mask-78)"></line>
                </g>
                <g id="Group-188">
                    <mask id="mask-80" fill="white">
                        <use xlink:href="#path-79"></use>
                    </mask>
                    <g id="Clip-187"></g>
                    <line x1="340.498644" y1="281.289189" x2="470.972089" y2="281.289189" id="Stroke-186" stroke="#9EEDC3" stroke-width="5.684" stroke-linecap="round" mask="url(#mask-80)"></line>
                </g>
                <g id="Group-191">
                    <mask id="mask-82" fill="white">
                        <use xlink:href="#path-81"></use>
                    </mask>
                    <g id="Clip-190"></g>
                    <line x1="399.097233" y1="308.509422" x2="529.570678" y2="308.509422" id="Stroke-189" stroke="#9EEDC3" stroke-width="5.684" stroke-linecap="round" mask="url(#mask-82)"></line>
                </g>
                <g id="Group-194">
                    <mask id="mask-84" fill="white">
                        <use xlink:href="#path-83"></use>
                    </mask>
                    <g id="Clip-193"></g>
                    <line x1="156.154167" y1="240.458778" x2="204.172833" y2="240.458778" id="Stroke-192" stroke="#9EEDC3" stroke-width="5.684" stroke-linecap="round" mask="url(#mask-84)"></line>
                </g>
                <g id="Group-197">
                    <mask id="mask-86" fill="white">
                        <use xlink:href="#path-85"></use>
                    </mask>
                    <g id="Clip-196"></g>
                    <line x1="114.945356" y1="281.289189" x2="170.401244" y2="281.289189" id="Stroke-195" stroke="#9EEDC3" stroke-width="5.684" stroke-linecap="round" mask="url(#mask-86)"></line>
                </g>
                <g id="Group-200">
                    <mask id="mask-88" fill="white">
                        <use xlink:href="#path-87"></use>
                    </mask>
                    <g id="Clip-199"></g>
                    <line x1="130.932267" y1="254.068833" x2="181.375822" y2="254.068833" id="Stroke-198" stroke="#9EEDC3" stroke-width="5.684" stroke-linecap="round" mask="url(#mask-88)"></line>
                </g>
                <g id="Group-203">
                    <mask id="mask-90" fill="white">
                        <use xlink:href="#path-89"></use>
                    </mask>
                    <g id="Clip-202"></g>
                    <line x1="118.421478" y1="308.509422" x2="168.159811" y2="308.509422" id="Stroke-201" stroke="#9EEDC3" stroke-width="5.684" stroke-linecap="round" mask="url(#mask-90)"></line>
                </g>
                <g id="Group-206">
                    <mask id="mask-92" fill="white">
                        <use xlink:href="#path-91"></use>
                    </mask>
                    <g id="Clip-205"></g>
                    <line x1="128.967178" y1="335.729656" x2="183.3414" y2="335.729656" id="Stroke-204" stroke="#9EEDC3" stroke-width="5.684" stroke-linecap="round" mask="url(#mask-92)"></line>
                </g>
                <g id="Group-209">
                    <mask id="mask-94" fill="white">
                        <use xlink:href="#path-93"></use>
                    </mask>
                    <g id="Clip-208"></g>
                    <line x1="177.402256" y1="362.950011" x2="265.027033" y2="362.950011" id="Stroke-207" stroke="#9EEDC3" stroke-width="5.684" stroke-linecap="round" mask="url(#mask-94)"></line>
                </g>
                <g id="Group-212">
                    <mask id="mask-96" fill="white">
                        <use xlink:href="#path-95"></use>
                    </mask>
                    <g id="Clip-211"></g>
                    <line x1="124.964644" y1="390.170244" x2="307.564644" y2="390.170244" id="Stroke-210" stroke="#9EEDC3" stroke-width="5.684" stroke-linecap="round" mask="url(#mask-96)"></line>
                </g>
                <g id="Group-215">
                    <mask id="mask-98" fill="white">
                        <use xlink:href="#path-97"></use>
                    </mask>
                    <g id="Clip-214"></g>
                    <line x1="54.2482111" y1="117.967544" x2="279.078433" y2="117.967544" id="Stroke-213" stroke="#9EEDC3" stroke-width="5.684" stroke-linecap="round" mask="url(#mask-98)"></line>
                </g>
                <g id="Group-218">
                    <mask id="mask-100" fill="white">
                        <use xlink:href="#path-99"></use>
                    </mask>
                    <g id="Clip-217"></g>
                    <line x1="38.5650222" y1="145.187778" x2="248.165133" y2="145.187778" id="Stroke-216" stroke="#9EEDC3" stroke-width="5.684" stroke-linecap="round" mask="url(#mask-100)"></line>
                </g>
            </g>
        </g>
    </g>
</svg>