<?xml version="1.0" encoding="UTF-8"?>
<svg width="140px" height="108px" viewBox="0 0 140 108" version="1.1" xmlns="http://www.w3.org/2000/svg" xmlns:xlink="http://www.w3.org/1999/xlink">
    <title>illust_result_tr</title>
    <defs>
        <radialGradient cx="50%" cy="50%" fx="50%" fy="50%" r="62.3287671%" gradientTransform="translate(0.500000,0.500000),scale(1.000000,0.802198),rotate(90.000000),translate(-0.500000,-0.500000)" id="radialGradient-1">
            <stop stop-color="#FA4D56" offset="0%"></stop>
            <stop stop-color="#CE1A25" offset="100%"></stop>
        </radialGradient>
    </defs>
    <g id="plastic-literacy" stroke="none" stroke-width="1" fill="none" fill-rule="evenodd">
        <g id="Artboard" transform="translate(-661.000000, -681.000000)">
            <g id="illust_result_tr" transform="translate(661.000000, 681.000000)">
                <rect id="Rectangle-Copy-2" x="0" y="0" width="140" height="108"></rect>
                <g id="Group" transform="translate(34.000000, 8.000000)">
                    <path d="M66.0646702,41.4567387 C64.865604,39.9400287 63.4058713,38.6255468 62.0504052,37.3110648 C58.5574734,34.2776449 54.5953417,32.103694 51.2588098,28.9186031 C43.4909465,21.5372813 41.7705472,9.35304471 46.7232118,0 C41.7705472,1.16281096 37.4434824,3.79177488 33.7420173,6.67352379 C20.2394898,17.1893795 14.9218921,35.7437979 21.282156,51.6692524 C21.4906893,52.1748224 21.6992225,52.6803923 21.6992225,53.3376333 C21.6992225,54.4498873 20.9172228,55.4610273 19.8745566,55.8654832 C18.6754905,56.3710532 17.424291,56.0677112 16.4337581,55.2587993 C16.1209582,55.0060143 15.912425,54.7532293 15.7038917,54.3993303 C9.81282759,47.1696795 8.87442799,36.8054948 12.8365596,28.5141471 C4.13029669,35.3898989 -0.613834616,47.0180085 0.0638984276,57.9888772 C0.376698294,60.5167271 0.68949816,63.044577 1.57576445,65.5724269 C2.3056308,68.6058468 3.7132302,71.6392667 5.27722953,74.3187877 C10.9076271,83.0651484 20.6565563,89.3342162 31.1353518,90.5981412 C42.2918804,91.9631801 54.2304086,89.9914572 62.7802716,82.5090214 C72.3206675,74.1165597 75.6571994,60.6683981 70.7566682,49.1414025 L70.0789351,47.8269205 C68.9841356,45.5012986 66.0646702,41.4567387 66.0646702,41.4567387" id="Shape" fill="url(#radialGradient-1)"></path>
                    <path d="M49.0878945,71.3767347 C47.6117419,72.5612493 45.186634,73.8444736 43.2887235,74.3380214 C37.384113,76.3122125 31.4795026,73.5483449 28,70.2909295 C34.2736486,68.9089957 38.0167499,64.5657752 39.1238643,60.1731999 C40.0200998,56.2248177 38.3330683,52.9674023 37.6477117,49.1670844 C37.0150749,45.5148308 37.1205144,42.4054797 38.5439472,39 C39.5456222,40.8754816 40.6000169,42.7509632 41.8652906,44.2316065 C45.9247103,49.1670844 52.3037984,51.3386946 53.6745115,58.0509445 C53.8853905,58.7419114 53.9908299,59.4328783 53.9908299,60.1731999 C54.1489891,64.2202918 52.2510786,68.6622218 49.0878945,71.3767347 L49.0878945,71.3767347 Z" id="Path" fill="#FA4D56"></path>
                </g>
            </g>
        </g>
    </g>
</svg>