<?xml version="1.0" encoding="UTF-8"?>
<svg width="140px" height="108px" viewBox="0 0 140 108" version="1.1" xmlns="http://www.w3.org/2000/svg" xmlns:xlink="http://www.w3.org/1999/xlink">
    <title>illust_result_mr</title>
    <g id="plastic-literacy" stroke="none" stroke-width="1" fill="none" fill-rule="evenodd">
        <g id="Artboard" transform="translate(-97.000000, -681.000000)">
            <g id="illust_result_mr" transform="translate(97.000000, 681.000000)">
                <rect id="Rectangle" x="0" y="0" width="140" height="108"></rect>
                <g id="Group" transform="translate(30.000000, 14.000000)" fill="#009999">
                    <g id="Mask" transform="translate(40.000000, 40.000000) scale(1, -1) translate(-40.000000, -40.000000) ">
                        <circle id="Oval" cx="16" cy="28" r="4"></circle>
                        <circle id="Oval" cx="4" cy="28" r="4"></circle>
                        <circle id="Oval" cx="40" cy="16" r="4"></circle>
                        <circle id="Oval" cx="40" cy="4" r="4"></circle>
                        <circle id="Oval" cx="40" cy="28" r="4"></circle>
                        <circle id="Oval" cx="16" cy="16" r="4"></circle>
                        <circle id="Oval" cx="52" cy="16" r="4"></circle>
                        <circle id="Oval" cx="52" cy="4" r="4"></circle>
                        <circle id="Oval" cx="64" cy="28" r="4"></circle>
                        <circle id="Oval" cx="76" cy="28" r="4"></circle>
                        <circle id="Oval" cx="28" cy="28" r="4"></circle>
                        <circle id="Oval" cx="64" cy="16" r="4"></circle>
                        <circle id="Oval" cx="64" cy="40" r="4"></circle>
                        <circle id="Oval" cx="76" cy="40" r="4"></circle>
                        <circle id="Oval" cx="16" cy="52" r="4"></circle>
                        <circle id="Oval" cx="4" cy="52" r="4"></circle>
                        <circle id="Oval" cx="16" cy="64" r="4"></circle>
                        <circle id="Oval" cx="28" cy="52" r="4"></circle>
                        <circle id="Oval" cx="28" cy="64" r="4"></circle>
                        <circle id="Oval" cx="28" cy="76" r="4"></circle>
                        <circle id="Oval" cx="52" cy="52" r="4"></circle>
                        <circle id="Oval" cx="52" cy="64" r="4"></circle>
                        <circle id="Oval" cx="52" cy="76" r="4"></circle>
                        <circle id="Oval" cx="40" cy="52" r="4"></circle>
                        <circle id="Oval" cx="40" cy="64" r="4"></circle>
                        <circle id="Oval" cx="40" cy="76" r="4"></circle>
                        <circle id="Oval" cx="64" cy="52" r="4"></circle>
                        <circle id="Oval" cx="76" cy="52" r="4"></circle>
                        <circle id="Oval" cx="64" cy="64" r="4"></circle>
                        <circle id="Oval" cx="16" cy="40" r="4"></circle>
                        <circle id="Oval" cx="4" cy="40" r="4"></circle>
                        <circle id="Oval" cx="28" cy="16" r="4"></circle>
                        <circle id="Oval" cx="28" cy="4" r="4"></circle>
                        <circle id="Oval" cx="40" cy="40" r="4"></circle>
                        <circle id="Oval" cx="28" cy="40" r="4"></circle>
                        <circle id="Oval" cx="52" cy="28" r="4"></circle>
                        <circle id="Oval" cx="52" cy="40" r="4"></circle>
                    </g>
                </g>
            </g>
        </g>
    </g>
</svg>