<?xml version="1.0" encoding="UTF-8"?>
<svg width="108px" height="108px" viewBox="0 0 108 108" version="1.1" xmlns="http://www.w3.org/2000/svg" xmlns:xlink="http://www.w3.org/1999/xlink">
    <title>illust_reproduct_package</title>
    <defs>
        <linearGradient x1="7.27152259%" y1="3.52909036%" x2="92.5102694%" y2="68.932043%" id="linearGradient-1">
            <stop stop-color="#0CB5E3" offset="0%"></stop>
            <stop stop-color="#057EC2" offset="100%"></stop>
        </linearGradient>
        <linearGradient x1="5.66605189%" y1="3.52909036%" x2="93.0154053%" y2="71.0351405%" id="linearGradient-2">
            <stop stop-color="#00C9C9" offset="0%"></stop>
            <stop stop-color="#009999" offset="100%"></stop>
        </linearGradient>
        <linearGradient x1="0%" y1="3.52909036%" x2="89.7699144%" y2="72.5850997%" id="linearGradient-3">
            <stop stop-color="#FDCD38" offset="0%"></stop>
            <stop stop-color="#F99E1A" offset="100%"></stop>
        </linearGradient>
    </defs>
    <g id="element" stroke="none" stroke-width="1" fill="none" fill-rule="evenodd">
        <g id="Artboard" transform="translate(-522.000000, -452.000000)">
            <g id="illust_reproduct_package" transform="translate(522.000000, 452.000000)">
                <g opacity="0.8" transform="translate(2.000000, 15.000000)" id="Group">
                    <g transform="translate(0.000000, -0.000000)" id="illust/package/blue">
                        <rect id="Rectangle" fill="#DAECF6" x="7.52476825" y="9.40596032" width="17.8713246" height="13.1683444"></rect>
                        <path d="M0,0 L8.23679945,30.7339753 L31.8796213,30.7339753 L23.6437625,0 L0,0 Z M14.7231497,19.6998433 C12.1901246,19.6998433 10.3719524,18.1168202 9.74551549,15.7775578 L9.74551549,15.7775578 C9.11907853,13.4401767 10.1932392,11.8214109 12.6585414,11.8214109 L12.6585414,11.8214109 C13.5031966,11.8054208 14.3958223,11.9991836 15.2461211,12.3838874 L15.2461211,12.3838874 L15.4191908,14.0233462 C14.7212685,13.6602762 13.9396332,13.3762162 13.1194335,13.3762162 L13.1194335,13.3762162 C11.7480444,13.3762162 11.3360634,14.3422083 11.7170048,15.7615677 L11.7170048,15.7615677 C12.0979462,17.1799865 13.0620571,18.193949 14.4334461,18.193949 L14.4334461,18.193949 C14.8115657,18.2052362 15.1595862,18.1215231 15.4427057,17.9493941 L15.4427057,17.9493941 L15.0796356,16.5977576 L13.6960188,16.5977576 L13.0893344,15.2000319 L16.4265691,15.2000319 L17.4160761,18.8965743 C16.7087479,19.4214269 15.7963698,19.7007839 14.7861696,19.7007839 L14.7861696,19.7007839 C14.7654765,19.7007839 14.7447834,19.7007839 14.7231497,19.6998433 L14.7231497,19.6998433 Z M21.7390555,17.5844428 C21.6252434,17.1639964 21.3383616,16.969293 20.08925,16.5714209 L20.08925,16.5714209 C18.3115235,15.9995385 17.4743931,15.5141909 17.1442439,14.2838913 L17.1442439,14.2838913 C16.7614213,12.8494824 17.7782056,12.0828966 19.3320702,12.0828966 L19.3320702,12.0828966 C20.3940032,12.0828966 21.1257869,12.268194 21.9130658,12.5767095 L21.9130658,12.5767095 L22.0174719,14.1362178 C21.1850444,13.7477516 20.3610823,13.5323551 19.7374671,13.5323551 L19.7374671,13.5323551 C19.1147926,13.5323551 18.8946931,13.7684447 18.9868715,14.1136435 L18.9868715,14.1136435 C19.0875153,14.4917631 19.3612287,14.6761199 20.4692508,15.0316652 L20.4692508,15.0316652 C22.3946509,15.6233001 23.2524745,16.1848359 23.5694554,17.3718681 L23.5694554,17.3718681 C24.0030701,18.9906339 22.9025728,19.7017245 21.2894506,19.7017245 L21.2894506,19.7017245 C20.3112307,19.7083087 19.2925652,19.5173677 18.3021176,19.1411292 L18.3021176,19.1411292 L18.1732559,17.5646903 C19.1194955,17.9738496 20.1249927,18.2541472 20.9404895,18.2541472 L20.9404895,18.2541472 C21.5161342,18.2541472 21.8556894,18.026523 21.7390555,17.5844428 L21.7390555,17.5844428 Z" id="Clip-2" fill="url(#linearGradient-1)"></path>
                    </g>
                    <g transform="translate(18.659163, -0.000000)" id="illust/package/blue">
                        <rect id="Rectangle" fill="#DAECF6" x="7.52476825" y="9.40596032" width="17.8713246" height="13.1683444"></rect>
                        <path d="M0,0 L8.23679945,30.7339753 L31.8796213,30.7339753 L23.6437625,0 L0,0 Z M14.7231497,19.6998433 C12.1901246,19.6998433 10.3719524,18.1168202 9.74551549,15.7775578 L9.74551549,15.7775578 C9.11907853,13.4401767 10.1932392,11.8214109 12.6585414,11.8214109 L12.6585414,11.8214109 C13.5031966,11.8054208 14.3958223,11.9991836 15.2461211,12.3838874 L15.2461211,12.3838874 L15.4191908,14.0233462 C14.7212685,13.6602762 13.9396332,13.3762162 13.1194335,13.3762162 L13.1194335,13.3762162 C11.7480444,13.3762162 11.3360634,14.3422083 11.7170048,15.7615677 L11.7170048,15.7615677 C12.0979462,17.1799865 13.0620571,18.193949 14.4334461,18.193949 L14.4334461,18.193949 C14.8115657,18.2052362 15.1595862,18.1215231 15.4427057,17.9493941 L15.4427057,17.9493941 L15.0796356,16.5977576 L13.6960188,16.5977576 L13.0893344,15.2000319 L16.4265691,15.2000319 L17.4160761,18.8965743 C16.7087479,19.4214269 15.7963698,19.7007839 14.7861696,19.7007839 L14.7861696,19.7007839 C14.7654765,19.7007839 14.7447834,19.7007839 14.7231497,19.6998433 L14.7231497,19.6998433 Z M21.7390555,17.5844428 C21.6252434,17.1639964 21.3383616,16.969293 20.08925,16.5714209 L20.08925,16.5714209 C18.3115235,15.9995385 17.4743931,15.5141909 17.1442439,14.2838913 L17.1442439,14.2838913 C16.7614213,12.8494824 17.7782056,12.0828966 19.3320702,12.0828966 L19.3320702,12.0828966 C20.3940032,12.0828966 21.1257869,12.268194 21.9130658,12.5767095 L21.9130658,12.5767095 L22.0174719,14.1362178 C21.1850444,13.7477516 20.3610823,13.5323551 19.7374671,13.5323551 L19.7374671,13.5323551 C19.1147926,13.5323551 18.8946931,13.7684447 18.9868715,14.1136435 L18.9868715,14.1136435 C19.0875153,14.4917631 19.3612287,14.6761199 20.4692508,15.0316652 L20.4692508,15.0316652 C22.3946509,15.6233001 23.2524745,16.1848359 23.5694554,17.3718681 L23.5694554,17.3718681 C24.0030701,18.9906339 22.9025728,19.7017245 21.2894506,19.7017245 L21.2894506,19.7017245 C20.3112307,19.7083087 19.2925652,19.5173677 18.3021176,19.1411292 L18.3021176,19.1411292 L18.1732559,17.5646903 C19.1194955,17.9738496 20.1249927,18.2541472 20.9404895,18.2541472 L20.9404895,18.2541472 C21.5161342,18.2541472 21.8556894,18.026523 21.7390555,17.5844428 L21.7390555,17.5844428 Z" id="Clip-2" fill="url(#linearGradient-1)"></path>
                    </g>
                    <g transform="translate(37.318326, -0.000000)" id="illust/package/blue">
                        <rect id="Rectangle" fill="#DAECF6" x="7.52476825" y="9.40596032" width="17.8713246" height="13.1683444"></rect>
                        <path d="M0,0 L8.23679945,30.7339753 L31.8796213,30.7339753 L23.6437625,0 L0,0 Z M14.7231497,19.6998433 C12.1901246,19.6998433 10.3719524,18.1168202 9.74551549,15.7775578 L9.74551549,15.7775578 C9.11907853,13.4401767 10.1932392,11.8214109 12.6585414,11.8214109 L12.6585414,11.8214109 C13.5031966,11.8054208 14.3958223,11.9991836 15.2461211,12.3838874 L15.2461211,12.3838874 L15.4191908,14.0233462 C14.7212685,13.6602762 13.9396332,13.3762162 13.1194335,13.3762162 L13.1194335,13.3762162 C11.7480444,13.3762162 11.3360634,14.3422083 11.7170048,15.7615677 L11.7170048,15.7615677 C12.0979462,17.1799865 13.0620571,18.193949 14.4334461,18.193949 L14.4334461,18.193949 C14.8115657,18.2052362 15.1595862,18.1215231 15.4427057,17.9493941 L15.4427057,17.9493941 L15.0796356,16.5977576 L13.6960188,16.5977576 L13.0893344,15.2000319 L16.4265691,15.2000319 L17.4160761,18.8965743 C16.7087479,19.4214269 15.7963698,19.7007839 14.7861696,19.7007839 L14.7861696,19.7007839 C14.7654765,19.7007839 14.7447834,19.7007839 14.7231497,19.6998433 L14.7231497,19.6998433 Z M21.7390555,17.5844428 C21.6252434,17.1639964 21.3383616,16.969293 20.08925,16.5714209 L20.08925,16.5714209 C18.3115235,15.9995385 17.4743931,15.5141909 17.1442439,14.2838913 L17.1442439,14.2838913 C16.7614213,12.8494824 17.7782056,12.0828966 19.3320702,12.0828966 L19.3320702,12.0828966 C20.3940032,12.0828966 21.1257869,12.268194 21.9130658,12.5767095 L21.9130658,12.5767095 L22.0174719,14.1362178 C21.1850444,13.7477516 20.3610823,13.5323551 19.7374671,13.5323551 L19.7374671,13.5323551 C19.1147926,13.5323551 18.8946931,13.7684447 18.9868715,14.1136435 L18.9868715,14.1136435 C19.0875153,14.4917631 19.3612287,14.6761199 20.4692508,15.0316652 L20.4692508,15.0316652 C22.3946509,15.6233001 23.2524745,16.1848359 23.5694554,17.3718681 L23.5694554,17.3718681 C24.0030701,18.9906339 22.9025728,19.7017245 21.2894506,19.7017245 L21.2894506,19.7017245 C20.3112307,19.7083087 19.2925652,19.5173677 18.3021176,19.1411292 L18.3021176,19.1411292 L18.1732559,17.5646903 C19.1194955,17.9738496 20.1249927,18.2541472 20.9404895,18.2541472 L20.9404895,18.2541472 C21.5161342,18.2541472 21.8556894,18.026523 21.7390555,17.5844428 L21.7390555,17.5844428 Z" id="Clip-2" fill="url(#linearGradient-1)"></path>
                    </g>
                    <g transform="translate(15.990133, 22.252087)" id="illust/package/blue-copy-3">
                        <rect id="Rectangle" fill="#D9F0F0" x="7.52476825" y="9.40596032" width="17.8713246" height="13.1683444"></rect>
                        <path d="M0,0 L8.23679945,30.7339753 L31.8796213,30.7339753 L23.6437625,0 L0,0 Z M14.7231497,19.6998433 C12.1901246,19.6998433 10.3719524,18.1168202 9.74551549,15.7775578 L9.74551549,15.7775578 C9.11907853,13.4401767 10.1932392,11.8214109 12.6585414,11.8214109 L12.6585414,11.8214109 C13.5031966,11.8054208 14.3958223,11.9991836 15.2461211,12.3838874 L15.2461211,12.3838874 L15.4191908,14.0233462 C14.7212685,13.6602762 13.9396332,13.3762162 13.1194335,13.3762162 L13.1194335,13.3762162 C11.7480444,13.3762162 11.3360634,14.3422083 11.7170048,15.7615677 L11.7170048,15.7615677 C12.0979462,17.1799865 13.0620571,18.193949 14.4334461,18.193949 L14.4334461,18.193949 C14.8115657,18.2052362 15.1595862,18.1215231 15.4427057,17.9493941 L15.4427057,17.9493941 L15.0796356,16.5977576 L13.6960188,16.5977576 L13.0893344,15.2000319 L16.4265691,15.2000319 L17.4160761,18.8965743 C16.7087479,19.4214269 15.7963698,19.7007839 14.7861696,19.7007839 L14.7861696,19.7007839 C14.7654765,19.7007839 14.7447834,19.7007839 14.7231497,19.6998433 L14.7231497,19.6998433 Z M21.7390555,17.5844428 C21.6252434,17.1639964 21.3383616,16.969293 20.08925,16.5714209 L20.08925,16.5714209 C18.3115235,15.9995385 17.4743931,15.5141909 17.1442439,14.2838913 L17.1442439,14.2838913 C16.7614213,12.8494824 17.7782056,12.0828966 19.3320702,12.0828966 L19.3320702,12.0828966 C20.3940032,12.0828966 21.1257869,12.268194 21.9130658,12.5767095 L21.9130658,12.5767095 L22.0174719,14.1362178 C21.1850444,13.7477516 20.3610823,13.5323551 19.7374671,13.5323551 L19.7374671,13.5323551 C19.1147926,13.5323551 18.8946931,13.7684447 18.9868715,14.1136435 L18.9868715,14.1136435 C19.0875153,14.4917631 19.3612287,14.6761199 20.4692508,15.0316652 L20.4692508,15.0316652 C22.3946509,15.6233001 23.2524745,16.1848359 23.5694554,17.3718681 L23.5694554,17.3718681 C24.0030701,18.9906339 22.9025728,19.7017245 21.2894506,19.7017245 L21.2894506,19.7017245 C20.3112307,19.7083087 19.2925652,19.5173677 18.3021176,19.1411292 L18.3021176,19.1411292 L18.1732559,17.5646903 C19.1194955,17.9738496 20.1249927,18.2541472 20.9404895,18.2541472 L20.9404895,18.2541472 C21.5161342,18.2541472 21.8556894,18.026523 21.7390555,17.5844428 L21.7390555,17.5844428 Z" id="Clip-2-Copy" fill="url(#linearGradient-2)"></path>
                    </g>
                    <g transform="translate(34.649295, 22.252087)" id="illust/package/blue-copy-3">
                        <rect id="Rectangle" fill="#D9F0F0" x="7.52476825" y="9.40596032" width="17.8713246" height="13.1683444"></rect>
                        <path d="M0,0 L8.23679945,30.7339753 L31.8796213,30.7339753 L23.6437625,0 L0,0 Z M14.7231497,19.6998433 C12.1901246,19.6998433 10.3719524,18.1168202 9.74551549,15.7775578 L9.74551549,15.7775578 C9.11907853,13.4401767 10.1932392,11.8214109 12.6585414,11.8214109 L12.6585414,11.8214109 C13.5031966,11.8054208 14.3958223,11.9991836 15.2461211,12.3838874 L15.2461211,12.3838874 L15.4191908,14.0233462 C14.7212685,13.6602762 13.9396332,13.3762162 13.1194335,13.3762162 L13.1194335,13.3762162 C11.7480444,13.3762162 11.3360634,14.3422083 11.7170048,15.7615677 L11.7170048,15.7615677 C12.0979462,17.1799865 13.0620571,18.193949 14.4334461,18.193949 L14.4334461,18.193949 C14.8115657,18.2052362 15.1595862,18.1215231 15.4427057,17.9493941 L15.4427057,17.9493941 L15.0796356,16.5977576 L13.6960188,16.5977576 L13.0893344,15.2000319 L16.4265691,15.2000319 L17.4160761,18.8965743 C16.7087479,19.4214269 15.7963698,19.7007839 14.7861696,19.7007839 L14.7861696,19.7007839 C14.7654765,19.7007839 14.7447834,19.7007839 14.7231497,19.6998433 L14.7231497,19.6998433 Z M21.7390555,17.5844428 C21.6252434,17.1639964 21.3383616,16.969293 20.08925,16.5714209 L20.08925,16.5714209 C18.3115235,15.9995385 17.4743931,15.5141909 17.1442439,14.2838913 L17.1442439,14.2838913 C16.7614213,12.8494824 17.7782056,12.0828966 19.3320702,12.0828966 L19.3320702,12.0828966 C20.3940032,12.0828966 21.1257869,12.268194 21.9130658,12.5767095 L21.9130658,12.5767095 L22.0174719,14.1362178 C21.1850444,13.7477516 20.3610823,13.5323551 19.7374671,13.5323551 L19.7374671,13.5323551 C19.1147926,13.5323551 18.8946931,13.7684447 18.9868715,14.1136435 L18.9868715,14.1136435 C19.0875153,14.4917631 19.3612287,14.6761199 20.4692508,15.0316652 L20.4692508,15.0316652 C22.3946509,15.6233001 23.2524745,16.1848359 23.5694554,17.3718681 L23.5694554,17.3718681 C24.0030701,18.9906339 22.9025728,19.7017245 21.2894506,19.7017245 L21.2894506,19.7017245 C20.3112307,19.7083087 19.2925652,19.5173677 18.3021176,19.1411292 L18.3021176,19.1411292 L18.1732559,17.5646903 C19.1194955,17.9738496 20.1249927,18.2541472 20.9404895,18.2541472 L20.9404895,18.2541472 C21.5161342,18.2541472 21.8556894,18.026523 21.7390555,17.5844428 L21.7390555,17.5844428 Z" id="Clip-2-Copy" fill="url(#linearGradient-2)"></path>
                    </g>
                    <g transform="translate(53.308458, 22.252087)" id="illust/package/blue-copy-3">
                        <rect id="Rectangle" fill="#D9F0F0" x="7.52476825" y="9.40596032" width="17.8713246" height="13.1683444"></rect>
                        <path d="M0,0 L8.23679945,30.7339753 L31.8796213,30.7339753 L23.6437625,0 L0,0 Z M14.7231497,19.6998433 C12.1901246,19.6998433 10.3719524,18.1168202 9.74551549,15.7775578 L9.74551549,15.7775578 C9.11907853,13.4401767 10.1932392,11.8214109 12.6585414,11.8214109 L12.6585414,11.8214109 C13.5031966,11.8054208 14.3958223,11.9991836 15.2461211,12.3838874 L15.2461211,12.3838874 L15.4191908,14.0233462 C14.7212685,13.6602762 13.9396332,13.3762162 13.1194335,13.3762162 L13.1194335,13.3762162 C11.7480444,13.3762162 11.3360634,14.3422083 11.7170048,15.7615677 L11.7170048,15.7615677 C12.0979462,17.1799865 13.0620571,18.193949 14.4334461,18.193949 L14.4334461,18.193949 C14.8115657,18.2052362 15.1595862,18.1215231 15.4427057,17.9493941 L15.4427057,17.9493941 L15.0796356,16.5977576 L13.6960188,16.5977576 L13.0893344,15.2000319 L16.4265691,15.2000319 L17.4160761,18.8965743 C16.7087479,19.4214269 15.7963698,19.7007839 14.7861696,19.7007839 L14.7861696,19.7007839 C14.7654765,19.7007839 14.7447834,19.7007839 14.7231497,19.6998433 L14.7231497,19.6998433 Z M21.7390555,17.5844428 C21.6252434,17.1639964 21.3383616,16.969293 20.08925,16.5714209 L20.08925,16.5714209 C18.3115235,15.9995385 17.4743931,15.5141909 17.1442439,14.2838913 L17.1442439,14.2838913 C16.7614213,12.8494824 17.7782056,12.0828966 19.3320702,12.0828966 L19.3320702,12.0828966 C20.3940032,12.0828966 21.1257869,12.268194 21.9130658,12.5767095 L21.9130658,12.5767095 L22.0174719,14.1362178 C21.1850444,13.7477516 20.3610823,13.5323551 19.7374671,13.5323551 L19.7374671,13.5323551 C19.1147926,13.5323551 18.8946931,13.7684447 18.9868715,14.1136435 L18.9868715,14.1136435 C19.0875153,14.4917631 19.3612287,14.6761199 20.4692508,15.0316652 L20.4692508,15.0316652 C22.3946509,15.6233001 23.2524745,16.1848359 23.5694554,17.3718681 L23.5694554,17.3718681 C24.0030701,18.9906339 22.9025728,19.7017245 21.2894506,19.7017245 L21.2894506,19.7017245 C20.3112307,19.7083087 19.2925652,19.5173677 18.3021176,19.1411292 L18.3021176,19.1411292 L18.1732559,17.5646903 C19.1194955,17.9738496 20.1249927,18.2541472 20.9404895,18.2541472 L20.9404895,18.2541472 C21.5161342,18.2541472 21.8556894,18.026523 21.7390555,17.5844428 L21.7390555,17.5844428 Z" id="Clip-2-Copy" fill="url(#linearGradient-2)"></path>
                    </g>
                    <g transform="translate(34.802053, 47.487071)" id="illust/package/blue-copy-6">
                        <rect id="Rectangle" fill="#FEF1DD" x="7.52476825" y="9.40596032" width="17.8713246" height="13.1683444"></rect>
                        <path d="M0,0 L8.23679945,30.7339753 L31.8796213,30.7339753 L23.6437625,0 L0,0 Z M14.7231497,19.6998433 C12.1901246,19.6998433 10.3719524,18.1168202 9.74551549,15.7775578 L9.74551549,15.7775578 C9.11907853,13.4401767 10.1932392,11.8214109 12.6585414,11.8214109 L12.6585414,11.8214109 C13.5031966,11.8054208 14.3958223,11.9991836 15.2461211,12.3838874 L15.2461211,12.3838874 L15.4191908,14.0233462 C14.7212685,13.6602762 13.9396332,13.3762162 13.1194335,13.3762162 L13.1194335,13.3762162 C11.7480444,13.3762162 11.3360634,14.3422083 11.7170048,15.7615677 L11.7170048,15.7615677 C12.0979462,17.1799865 13.0620571,18.193949 14.4334461,18.193949 L14.4334461,18.193949 C14.8115657,18.2052362 15.1595862,18.1215231 15.4427057,17.9493941 L15.4427057,17.9493941 L15.0796356,16.5977576 L13.6960188,16.5977576 L13.0893344,15.2000319 L16.4265691,15.2000319 L17.4160761,18.8965743 C16.7087479,19.4214269 15.7963698,19.7007839 14.7861696,19.7007839 L14.7861696,19.7007839 C14.7654765,19.7007839 14.7447834,19.7007839 14.7231497,19.6998433 L14.7231497,19.6998433 Z M21.7390555,17.5844428 C21.6252434,17.1639964 21.3383616,16.969293 20.08925,16.5714209 L20.08925,16.5714209 C18.3115235,15.9995385 17.4743931,15.5141909 17.1442439,14.2838913 L17.1442439,14.2838913 C16.7614213,12.8494824 17.7782056,12.0828966 19.3320702,12.0828966 L19.3320702,12.0828966 C20.3940032,12.0828966 21.1257869,12.268194 21.9130658,12.5767095 L21.9130658,12.5767095 L22.0174719,14.1362178 C21.1850444,13.7477516 20.3610823,13.5323551 19.7374671,13.5323551 L19.7374671,13.5323551 C19.1147926,13.5323551 18.8946931,13.7684447 18.9868715,14.1136435 L18.9868715,14.1136435 C19.0875153,14.4917631 19.3612287,14.6761199 20.4692508,15.0316652 L20.4692508,15.0316652 C22.3946509,15.6233001 23.2524745,16.1848359 23.5694554,17.3718681 L23.5694554,17.3718681 C24.0030701,18.9906339 22.9025728,19.7017245 21.2894506,19.7017245 L21.2894506,19.7017245 C20.3112307,19.7083087 19.2925652,19.5173677 18.3021176,19.1411292 L18.3021176,19.1411292 L18.1732559,17.5646903 C19.1194955,17.9738496 20.1249927,18.2541472 20.9404895,18.2541472 L20.9404895,18.2541472 C21.5161342,18.2541472 21.8556894,18.026523 21.7390555,17.5844428 L21.7390555,17.5844428 Z" id="Clip-2-Copy-2" fill="url(#linearGradient-3)"></path>
                    </g>
                    <g transform="translate(53.461216, 47.487071)" id="illust/package/blue-copy-6">
                        <rect id="Rectangle" fill="#FEF1DD" x="7.52476825" y="9.40596032" width="17.8713246" height="13.1683444"></rect>
                        <path d="M0,0 L8.23679945,30.7339753 L31.8796213,30.7339753 L23.6437625,0 L0,0 Z M14.7231497,19.6998433 C12.1901246,19.6998433 10.3719524,18.1168202 9.74551549,15.7775578 L9.74551549,15.7775578 C9.11907853,13.4401767 10.1932392,11.8214109 12.6585414,11.8214109 L12.6585414,11.8214109 C13.5031966,11.8054208 14.3958223,11.9991836 15.2461211,12.3838874 L15.2461211,12.3838874 L15.4191908,14.0233462 C14.7212685,13.6602762 13.9396332,13.3762162 13.1194335,13.3762162 L13.1194335,13.3762162 C11.7480444,13.3762162 11.3360634,14.3422083 11.7170048,15.7615677 L11.7170048,15.7615677 C12.0979462,17.1799865 13.0620571,18.193949 14.4334461,18.193949 L14.4334461,18.193949 C14.8115657,18.2052362 15.1595862,18.1215231 15.4427057,17.9493941 L15.4427057,17.9493941 L15.0796356,16.5977576 L13.6960188,16.5977576 L13.0893344,15.2000319 L16.4265691,15.2000319 L17.4160761,18.8965743 C16.7087479,19.4214269 15.7963698,19.7007839 14.7861696,19.7007839 L14.7861696,19.7007839 C14.7654765,19.7007839 14.7447834,19.7007839 14.7231497,19.6998433 L14.7231497,19.6998433 Z M21.7390555,17.5844428 C21.6252434,17.1639964 21.3383616,16.969293 20.08925,16.5714209 L20.08925,16.5714209 C18.3115235,15.9995385 17.4743931,15.5141909 17.1442439,14.2838913 L17.1442439,14.2838913 C16.7614213,12.8494824 17.7782056,12.0828966 19.3320702,12.0828966 L19.3320702,12.0828966 C20.3940032,12.0828966 21.1257869,12.268194 21.9130658,12.5767095 L21.9130658,12.5767095 L22.0174719,14.1362178 C21.1850444,13.7477516 20.3610823,13.5323551 19.7374671,13.5323551 L19.7374671,13.5323551 C19.1147926,13.5323551 18.8946931,13.7684447 18.9868715,14.1136435 L18.9868715,14.1136435 C19.0875153,14.4917631 19.3612287,14.6761199 20.4692508,15.0316652 L20.4692508,15.0316652 C22.3946509,15.6233001 23.2524745,16.1848359 23.5694554,17.3718681 L23.5694554,17.3718681 C24.0030701,18.9906339 22.9025728,19.7017245 21.2894506,19.7017245 L21.2894506,19.7017245 C20.3112307,19.7083087 19.2925652,19.5173677 18.3021176,19.1411292 L18.3021176,19.1411292 L18.1732559,17.5646903 C19.1194955,17.9738496 20.1249927,18.2541472 20.9404895,18.2541472 L20.9404895,18.2541472 C21.5161342,18.2541472 21.8556894,18.026523 21.7390555,17.5844428 L21.7390555,17.5844428 Z" id="Clip-2-Copy-2" fill="url(#linearGradient-3)"></path>
                    </g>
                    <g transform="translate(72.120379, 47.487071)" id="illust/package/blue-copy-6">
                        <rect id="Rectangle" fill="#FEF1DD" x="7.52476825" y="9.40596032" width="17.8713246" height="13.1683444"></rect>
                        <path d="M0,0 L8.23679945,30.7339753 L31.8796213,30.7339753 L23.6437625,0 L0,0 Z M14.7231497,19.6998433 C12.1901246,19.6998433 10.3719524,18.1168202 9.74551549,15.7775578 L9.74551549,15.7775578 C9.11907853,13.4401767 10.1932392,11.8214109 12.6585414,11.8214109 L12.6585414,11.8214109 C13.5031966,11.8054208 14.3958223,11.9991836 15.2461211,12.3838874 L15.2461211,12.3838874 L15.4191908,14.0233462 C14.7212685,13.6602762 13.9396332,13.3762162 13.1194335,13.3762162 L13.1194335,13.3762162 C11.7480444,13.3762162 11.3360634,14.3422083 11.7170048,15.7615677 L11.7170048,15.7615677 C12.0979462,17.1799865 13.0620571,18.193949 14.4334461,18.193949 L14.4334461,18.193949 C14.8115657,18.2052362 15.1595862,18.1215231 15.4427057,17.9493941 L15.4427057,17.9493941 L15.0796356,16.5977576 L13.6960188,16.5977576 L13.0893344,15.2000319 L16.4265691,15.2000319 L17.4160761,18.8965743 C16.7087479,19.4214269 15.7963698,19.7007839 14.7861696,19.7007839 L14.7861696,19.7007839 C14.7654765,19.7007839 14.7447834,19.7007839 14.7231497,19.6998433 L14.7231497,19.6998433 Z M21.7390555,17.5844428 C21.6252434,17.1639964 21.3383616,16.969293 20.08925,16.5714209 L20.08925,16.5714209 C18.3115235,15.9995385 17.4743931,15.5141909 17.1442439,14.2838913 L17.1442439,14.2838913 C16.7614213,12.8494824 17.7782056,12.0828966 19.3320702,12.0828966 L19.3320702,12.0828966 C20.3940032,12.0828966 21.1257869,12.268194 21.9130658,12.5767095 L21.9130658,12.5767095 L22.0174719,14.1362178 C21.1850444,13.7477516 20.3610823,13.5323551 19.7374671,13.5323551 L19.7374671,13.5323551 C19.1147926,13.5323551 18.8946931,13.7684447 18.9868715,14.1136435 L18.9868715,14.1136435 C19.0875153,14.4917631 19.3612287,14.6761199 20.4692508,15.0316652 L20.4692508,15.0316652 C22.3946509,15.6233001 23.2524745,16.1848359 23.5694554,17.3718681 L23.5694554,17.3718681 C24.0030701,18.9906339 22.9025728,19.7017245 21.2894506,19.7017245 L21.2894506,19.7017245 C20.3112307,19.7083087 19.2925652,19.5173677 18.3021176,19.1411292 L18.3021176,19.1411292 L18.1732559,17.5646903 C19.1194955,17.9738496 20.1249927,18.2541472 20.9404895,18.2541472 L20.9404895,18.2541472 C21.5161342,18.2541472 21.8556894,18.026523 21.7390555,17.5844428 L21.7390555,17.5844428 Z" id="Clip-2-Copy-2" fill="url(#linearGradient-3)"></path>
                    </g>
                </g>
                <rect id="Rectangle-Copy-2" x="0" y="0" width="108" height="108"></rect>
            </g>
        </g>
    </g>
</svg>