<?xml version="1.0" encoding="UTF-8"?>
<svg width="80px" height="80px" viewBox="0 0 80 80" version="1.1" xmlns="http://www.w3.org/2000/svg" xmlns:xlink="http://www.w3.org/1999/xlink">
    <title>illust_synthesis</title>
    <g id="Page-1" stroke="none" stroke-width="1" fill="none" fill-rule="evenodd">
        <g id="illust_synthesis" transform="translate(0.683889, 0.631000)">
            <polygon id="Fill-31" fill="#FFFFFF" points="0 9.26322222 9.26322222 9.26322222 9.26322222 0 0 0"></polygon>
            <polygon id="Fill-32" fill="#FFFFFF" points="13.8954444 9.26322222 23.1586667 9.26322222 23.1586667 0 13.8954444 0"></polygon>
            <polygon id="Fill-33" fill="#C5F5DB" points="27.7896667 9.26322222 37.0528889 9.26322222 37.0528889 0 27.7896667 0"></polygon>
            <polygon id="Fill-34" fill="#C5F5DB" points="41.6838889 9.26322222 50.9471111 9.26322222 50.9471111 0 41.6838889 0"></polygon>
            <polygon id="Fill-35" fill="#8AEAB7" points="55.5793333 9.26322222 64.8425556 9.26322222 64.8425556 0 55.5793333 0"></polygon>
            <polygon id="Fill-36" fill="#8AEAB7" points="69.4735556 9.26322222 78.7367778 9.26322222 78.7367778 0 69.4735556 0"></polygon>
            <polygon id="Fill-37" fill="#FFFFFF" points="13.8954444 23.1586667 23.1586667 23.1586667 23.1586667 13.8954444 13.8954444 13.8954444"></polygon>
            <polygon id="Fill-38" fill="#C5F5DB" points="27.7896667 23.1586667 37.0528889 23.1586667 37.0528889 13.8954444 27.7896667 13.8954444"></polygon>
            <polygon id="Fill-39" fill="#C5F5DB" points="41.6838889 23.1586667 50.9471111 23.1586667 50.9471111 13.8954444 41.6838889 13.8954444"></polygon>
            <polygon id="Fill-40" fill="#8AEAB7" points="55.5793333 23.1586667 64.8425556 23.1586667 64.8425556 13.8954444 55.5793333 13.8954444"></polygon>
            <polygon id="Fill-41" fill="#8AEAB7" points="69.4735556 23.1586667 78.7367778 23.1586667 78.7367778 13.8954444 69.4735556 13.8954444"></polygon>
            <polygon id="Fill-42" fill="#FFFFFF" points="13.8954444 37.0528889 23.1586667 37.0528889 23.1586667 27.7896667 13.8954444 27.7896667"></polygon>
            <polygon id="Fill-43" fill="#C5F5DB" points="27.7896667 37.0528889 37.0528889 37.0528889 37.0528889 27.7896667 27.7896667 27.7896667"></polygon>
            <polygon id="Fill-44" fill="#C5F5DB" points="41.6838889 37.0528889 50.9471111 37.0528889 50.9471111 27.7896667 41.6838889 27.7896667"></polygon>
            <polygon id="Fill-45" fill="#8AEAB7" points="55.5793333 37.0528889 64.8425556 37.0528889 64.8425556 27.7896667 55.5793333 27.7896667"></polygon>
            <polygon id="Fill-46" fill="#8AEAB7" points="69.4735556 37.0528889 78.7367778 37.0528889 78.7367778 27.7896667 69.4735556 27.7896667"></polygon>
            <polygon id="Fill-47" fill="#FFFFFF" points="13.8954444 50.9483333 23.1586667 50.9483333 23.1586667 41.6851111 13.8954444 41.6851111"></polygon>
            <polygon id="Fill-48" fill="#C5F5DB" points="27.7896667 50.9483333 37.0528889 50.9483333 37.0528889 41.6851111 27.7896667 41.6851111"></polygon>
            <polygon id="Fill-49" fill="#C5F5DB" points="41.6838889 50.9483333 50.9471111 50.9483333 50.9471111 41.6851111 41.6838889 41.6851111"></polygon>
            <polygon id="Fill-50" fill="#8AEAB7" points="55.5793333 50.9483333 64.8425556 50.9483333 64.8425556 41.6851111 55.5793333 41.6851111"></polygon>
            <polygon id="Fill-51" fill="#8AEAB7" points="69.4735556 50.9483333 78.7367778 50.9483333 78.7367778 41.6851111 69.4735556 41.6851111"></polygon>
            <polygon id="Fill-52" fill="#FFFFFF" points="13.8954444 64.8425556 23.1586667 64.8425556 23.1586667 55.5793333 13.8954444 55.5793333"></polygon>
            <polygon id="Fill-53" fill="#C5F5DB" points="27.7896667 64.8425556 37.0528889 64.8425556 37.0528889 55.5793333 27.7896667 55.5793333"></polygon>
            <polygon id="Fill-54" fill="#C5F5DB" points="41.6838889 64.8425556 50.9471111 64.8425556 50.9471111 55.5793333 41.6838889 55.5793333"></polygon>
            <polygon id="Fill-55" fill="#8AEAB7" points="55.5793333 64.8425556 64.8425556 64.8425556 64.8425556 55.5793333 55.5793333 55.5793333"></polygon>
            <polygon id="Fill-56" fill="#8AEAB7" points="69.4735556 64.8425556 78.7367778 64.8425556 78.7367778 55.5793333 69.4735556 55.5793333"></polygon>
            <polygon id="Fill-57" fill="#FFFFFF" points="13.8954444 78.738 23.1586667 78.738 23.1586667 69.4747778 13.8954444 69.4747778"></polygon>
            <polygon id="Fill-58" fill="#C5F5DB" points="27.7896667 78.738 37.0528889 78.738 37.0528889 69.4747778 27.7896667 69.4747778"></polygon>
            <polygon id="Fill-59" fill="#C5F5DB" points="41.6838889 78.738 50.9471111 78.738 50.9471111 69.4747778 41.6838889 69.4747778"></polygon>
            <polygon id="Fill-60" fill="#8AEAB7" points="55.5793333 78.738 64.8425556 78.738 64.8425556 69.4747778 55.5793333 69.4747778"></polygon>
            <polygon id="Fill-61" fill="#8AEAB7" points="69.4735556 78.738 78.7367778 78.738 78.7367778 69.4747778 69.4735556 69.4747778"></polygon>
            <polygon id="Fill-62" fill="#FFFFFF" points="0 23.1586667 9.26322222 23.1586667 9.26322222 13.8954444 0 13.8954444"></polygon>
            <polygon id="Fill-63" fill="#FFFFFF" points="0 37.0528889 9.26322222 37.0528889 9.26322222 27.7896667 0 27.7896667"></polygon>
            <polygon id="Fill-64" fill="#FFFFFF" points="0 50.9483333 9.26322222 50.9483333 9.26322222 41.6851111 0 41.6851111"></polygon>
            <polygon id="Fill-65" fill="#FFFFFF" points="0 64.8425556 9.26322222 64.8425556 9.26322222 55.5793333 0 55.5793333"></polygon>
            <polygon id="Fill-66" fill="#FFFFFF" points="0 78.738 9.26322222 78.738 9.26322222 69.4747778 0 69.4747778"></polygon>
        </g>
    </g>
</svg>