<?xml version="1.0" encoding="UTF-8"?>
<svg width="140px" height="108px" viewBox="0 0 140 108" version="1.1" xmlns="http://www.w3.org/2000/svg" xmlns:xlink="http://www.w3.org/1999/xlink">
    <title>illust_result_cr</title>
    <g id="plastic-literacy" stroke="none" stroke-width="1" fill="none" fill-rule="evenodd">
        <g id="Artboard" transform="translate(-376.000000, -681.000000)">
            <g id="illust_result_cr" transform="translate(376.000000, 681.000000)">
                <rect id="Rectangle-Copy" x="0" y="0" width="140" height="108"></rect>
                <g id="Group-7" transform="translate(15.000000, 14.000000)">
                    <path d="M96.7117508,27.6995268 C97.1033123,27.8864353 97.5362776,28 98,28 C99.6573344,28 101,26.6573344 101,25 C101,23.3426656 99.6573344,22 98,22 C96.3426656,22 95,23.3426656 95,25 C95,25.4826498 95.1242114,25.9333596 95.3276814,26.3379338 C95.6257886,26.9317823 96.1108044,27.4120662 96.7117508,27.6995268" id="Fill-237" fill="#3DDB87"></path>
                    <path d="M52.5,33 C51.530914,33 50.6075269,33.1895331 49.7567204,33.5242405 C49.4112903,33.6613496 49.0793011,33.8213102 48.7607527,34.0054664 C48.4395161,34.1896227 48.1344086,34.3966305 47.8454301,34.6251456 C46.9327957,35.3496729 46.1962366,36.2825522 45.7002688,37.3511963 C45.3938172,38.0112017 45.1827957,38.7209427 45.0793011,39.4683215 C45.0336022,39.8057174 45,40.14849 45,40.4993279 C45,41.1257281 45.0860215,41.730621 45.2298387,42.3113182 C45.3198925,42.6729098 45.4301075,43.0264361 45.5698925,43.3638319 C45.7123656,43.7079487 45.8830645,44.0345909 46.0725806,44.3491352 C47.3830645,46.5334707 49.7674731,48 52.5,48 C55.8185484,48 58.6290323,45.8425486 59.6169355,42.8557218 C59.844086,42.1688323 59.9717742,41.4389282 59.9905914,40.6807958 C59.9919355,40.6203065 60,40.5611614 60,40.4993279 C60,36.3578278 56.6424731,33 52.5,33" id="Fill-238" fill="#3DDB87"></path>
                    <path d="M85.5659799,44.1346061 C85.5659799,44.6912866 85.4696145,45.2209687 85.3321333,45.7339376 C85.0443223,46.8087295 84.499537,47.7793848 83.7337539,48.5430527 C83.235224,49.040594 82.6428985,49.4378556 82.000463,49.743837 C81.1909943,50.1295279 80.2967242,50.3635136 79.3420651,50.3635136 C75.9088899,50.3635136 73.1168654,47.5698261 73.1168654,44.1346061 C73.1168654,44.1307492 73.1181502,44.1281779 73.1181502,44.124321 C73.1194351,43.392794 73.269765,42.7011217 73.5023267,42.0493041 C73.997002,40.6685308 74.9568006,39.523029 76.2031254,38.787645 C76.8057298,38.4328094 77.461014,38.1615402 78.1689779,38.0265484 C78.5505846,37.9532671 78.9411853,37.9069842 79.3420651,37.9069842 C80.656488,37.9069842 81.8732608,38.3222447 82.8793147,39.0216308 C83.4613613,39.4253206 83.9637458,39.9318613 84.3774742,40.505255 C85.0237643,41.4000579 85.4207894,42.4709928 85.514585,43.6319223 C85.5287186,43.8003407 85.5659799,43.9623309 85.5659799,44.1346061 Z M99.4759926,46.6750233 C99.4759926,46.054061 99.6031948,45.463954 99.8216229,44.9214155 C100.519308,43.1909491 102.207628,41.9631665 104.18376,41.9631665 C106.780484,41.9631665 108.891527,44.0767525 108.891527,46.6750233 C108.891527,49.2720085 106.780484,51.3855944 104.18376,51.3855944 C101.703959,51.3855944 99.6867114,49.4494263 99.5106841,47.01186 C99.50169,46.898724 99.4759926,46.7907306 99.4759926,46.6750233 Z M106.526079,69.0669495 C106.526079,73.931797 102.569962,77.8902709 97.7080102,77.8902709 C92.8460586,77.8902709 88.889941,73.931797 88.889941,69.0669495 C88.889941,66.7142352 89.8201875,64.5787934 91.3247714,62.9961752 C91.8117375,62.4832064 92.3578076,62.0306624 92.9552726,61.6462572 C94.3275148,60.7617395 95.9567311,60.2423424 97.7080102,60.2423424 C102.569962,60.2423424 106.526079,64.2008164 106.526079,69.0669495 Z M17.9881931,57.1233889 C17.9881931,59.2446887 17.1633059,61.2399961 15.6638616,62.7403336 C14.1631323,64.2419567 12.1690126,65.0673352 10.0489756,65.0673352 C7.92765366,65.0673352 5.93353397,64.2419567 4.43408959,62.7403336 C2.93336034,61.2399961 2.1084732,59.2446887 2.1084732,57.1233889 C2.1084732,55.0008035 2.93336034,53.0054961 4.43408959,51.5051586 C5.93353397,50.0035355 7.92765366,49.178157 10.0489756,49.178157 C12.1690126,49.178157 14.1631323,50.0035355 15.6638616,51.5051586 C16.1585369,52.0001286 16.5709804,52.5529521 16.914041,53.1430592 C17.0913532,53.4490406 17.2558166,53.7614502 17.3907281,54.0867162 C17.5243547,54.4119821 17.6284292,54.7501045 17.7183702,55.0920837 C17.8905429,55.7477582 17.9881931,56.4265741 17.9881931,57.1233889 Z M29.7190647,8.82717835 C29.7190647,5.12326037 32.7308022,2.10972905 36.4325153,2.10972905 C40.1355134,2.10972905 43.145966,5.12326037 43.145966,8.82717835 C43.145966,11.3740237 41.7056257,13.5686048 39.611286,14.7076785 C39.3003473,14.8760968 38.9804144,15.0213737 38.6437782,15.1396522 C38.3032874,15.260502 37.9563723,15.3633529 37.5927538,15.4263491 C37.2137169,15.4932022 36.8295405,15.5446276 36.4325153,15.5446276 C32.7308022,15.5446276 29.7190647,12.5310963 29.7190647,8.82717835 Z M61.6660956,42.1354418 C60.5238454,46.0334908 56.923637,48.8914602 52.6642898,48.8914602 C49.1321797,48.8914602 46.052344,46.9282936 44.45011,44.0381834 C44.280507,43.7309163 44.1276074,43.4133642 43.991411,43.0868126 C43.8577845,42.7628323 43.7447158,42.4285668 43.6470656,42.0878732 C43.4106494,41.265066 43.2770228,40.3985472 43.2770228,39.5011731 C43.2770228,38.9483496 43.334842,38.409668 43.4260678,37.8838428 C43.5494154,37.1793141 43.7421461,36.4979269 44.011969,35.8563944 C44.6736775,34.2917751 45.7529691,32.9495709 47.1033684,31.9519172 C47.3860401,31.7423585 47.6789906,31.5482274 47.9847899,31.3708096 C48.2880194,31.1946775 48.6002431,31.0326873 48.9253154,30.8912673 C50.0714203,30.3898692 51.3344484,30.1083149 52.6642898,30.1083149 C57.8384651,30.1083149 62.0489872,34.3213448 62.0489872,39.5011731 C62.0489872,39.6875904 62.0322838,39.8714364 62.02072,40.0552824 C61.9796041,40.7726674 61.861396,41.4694822 61.6660956,42.1354418 Z M29.8295636,33.8855141 C28.9134506,36.059525 26.7625767,37.5907177 24.2596481,37.5907177 C20.9266929,37.5907177 18.2169001,34.8793109 18.2169001,31.5456562 C18.2169001,28.2107158 20.9266929,25.499309 24.2596481,25.499309 C27.5913184,25.499309 30.3011112,28.2107158 30.3011112,31.5456562 C30.3011112,31.638222 30.2779836,31.7243596 30.274129,31.8169254 C30.2407223,32.5445955 30.0981016,33.2452673 29.8295636,33.8855141 Z M68.0994444,25.2640375 C68.0994444,23.0771703 69.8777058,21.2978498 72.0632712,21.2978498 C74.2488367,21.2978498 76.027098,23.0771703 76.027098,25.2640375 C76.027098,26.5162472 75.4334877,27.6193231 74.5263688,28.3469932 C73.9777289,28.7866808 73.3160204,29.0798059 72.5862137,29.1775142 C72.414041,29.2006557 72.2431531,29.2302253 72.0632712,29.2302253 C69.8777058,29.2302253 68.0994444,27.4509048 68.0994444,25.2640375 Z M104.346938,24.7947803 C104.346938,28.1284351 101.637146,30.8411275 98.3054752,30.8411275 C97.0398773,30.8411275 95.8667901,30.4464372 94.8954277,29.779192 C94.3108114,29.3780735 93.8084269,28.8715328 93.3959833,28.2942821 C92.6893043,27.3056279 92.2627272,26.1022724 92.2627272,24.7947803 C92.2627272,21.4611256 94.97252,18.7484331 98.3054752,18.7484331 C101.637146,18.7484331 104.346938,21.4611256 104.346938,24.7947803 Z M97.3829378,46.8203002 C97.4625998,50.5113618 100.475622,53.4940379 104.18376,53.4940379 C107.942007,53.4940379 111,50.4342236 111,46.6750233 C111,42.9132517 107.942007,39.8534375 104.18376,39.8534375 C101.106494,39.8534375 98.5277578,41.9194549 97.6848825,44.7285701 L87.6577497,43.8247678 C87.5909365,41.9991643 86.938222,40.3226947 85.8756338,38.9779192 L93.4062623,31.2975284 C94.7720801,32.3298943 96.46554,32.9495709 98.3054752,32.9495709 C102.798669,32.9495709 106.455412,29.2919358 106.455412,24.7947803 C106.455412,20.2989104 102.798669,16.6399897 98.3054752,16.6399897 C93.8109966,16.6399897 90.154254,20.2989104 90.154254,24.7947803 C90.154254,26.6910938 90.810823,28.4344165 91.9003936,29.821618 L84.3684801,37.5020088 C82.9692557,36.437502 81.2308253,35.7985408 79.3420651,35.7985408 C78.6790717,35.7985408 78.0366362,35.8846784 77.4186133,36.031241 L75.2947216,30.3885836 C76.9958907,29.3099348 78.1355712,27.4239064 78.1355712,25.2640375 C78.1355712,21.9149552 75.4116449,19.1894064 72.0632712,19.1894064 C68.7161824,19.1894064 65.992256,21.9149552 65.992256,25.2640375 C65.992256,28.6144056 68.7161824,31.3399544 72.0632712,31.3399544 C72.5039819,31.3399544 72.931844,31.2872433 73.3468573,31.1972487 L75.4450515,36.7717674 C73.5151754,37.7977051 72.0337192,39.5590268 71.378435,41.6803266 L64.111205,40.4178318 C64.1343327,40.1144216 64.1574604,39.8110115 64.1574604,39.5011731 C64.1574604,33.1591296 59.0012733,27.9998714 52.6642898,27.9998714 C50.9515569,27.9998714 49.3326195,28.3855623 47.8717213,29.0605213 L40.6777289,16.5602803 C43.4029402,15.0560859 45.2544392,12.1544049 45.2544392,8.82717835 C45.2544392,3.95975959 41.2970367,0 36.4325153,0 C31.5692789,0 27.6105915,3.95975959 27.6105915,8.82717835 C27.6105915,13.6933115 31.5692789,17.6530711 36.4325153,17.6530711 C37.2162866,17.6530711 37.9730756,17.5412207 38.6977428,17.3470896 L46.0446348,30.1134574 C44.2381063,31.3926654 42.8183239,33.1771285 41.9882973,35.2611449 L32.3594745,32.4301739 C32.3903114,32.1396201 32.4095844,31.8439238 32.4095844,31.5456562 C32.4095844,27.0485006 28.7528418,23.3895799 24.2596481,23.3895799 C19.7651696,23.3895799 16.1084269,27.0485006 16.1084269,31.5456562 C16.1084269,36.0415261 19.7651696,39.7004468 24.2596481,39.7004468 C27.7185207,39.7004468 30.6737238,37.5290072 31.8545202,34.4807637 L41.3882625,37.2834506 C41.2469267,38.0021213 41.1685496,38.7426478 41.1685496,39.5011731 C41.1685496,40.6839585 41.3484315,41.8256034 41.682498,42.9003953 L18.8773238,52.3305371 C18.4263341,51.5000161 17.8558514,50.715778 17.1543118,50.0138206 C15.2552726,48.1149359 12.7317861,47.068428 10.0489756,47.068428 C7.36488019,47.068428 4.84139368,48.1149359 2.94363931,50.0138206 C1.04588494,51.9127053 0,54.4376949 0,57.1233889 C0,59.8077974 1.04588494,62.3327869 2.94363931,64.2316716 C4.84139368,66.1305564 7.36488019,67.1770642 10.0489756,67.1770642 C12.7317861,67.1770642 15.2552726,66.1305564 17.1543118,64.2316716 C19.8422618,61.5421207 20.6851372,57.6954971 19.6842227,54.2795616 L42.4945364,44.8468486 C44.4218428,48.5006267 48.2546128,51.0011892 52.6642898,51.0011892 C57.9643825,51.0011892 62.4254543,47.3872658 63.7475865,42.4967056 L71.0289501,43.7617716 C71.0225258,43.8864783 71.009677,44.0086138 71.009677,44.1346061 C71.009677,48.7320413 74.7473666,52.4719571 79.3420651,52.4719571 C80.7489987,52.4719571 82.0724158,52.1184071 83.2365089,51.5000161 L90.0912953,61.2425674 C88.05349,63.230161 86.7814678,66.0007071 86.7814678,69.0669495 C86.7814678,75.0952978 91.6832504,80 97.7080102,80 C103.734055,80 108.634553,75.0952978 108.634553,69.0669495 C108.634553,63.0373156 103.734055,58.133899 97.7080102,58.133899 C95.5057414,58.133899 93.4576571,58.7934304 91.7397847,59.9196477 L84.9556662,50.2786617 C86.1994212,49.139588 87.1001158,47.6328223 87.4752981,45.926783 L97.3829378,46.8203002 L97.3829378,46.8203002 Z" id="Fill-239" fill="#122C43"></path>
                    <path d="M36,2 C32.1402871,2 29,5.14028708 29,9 C29,12.8597129 32.1402871,16 36,16 C36.4139713,16 36.8145455,15.9464115 37.2097608,15.8767464 C37.5888995,15.8111005 37.950622,15.7039234 38.3056459,15.5779904 C38.6566507,15.4547368 38.9902392,15.3033493 39.3144498,15.1278469 C41.4981818,13.9408612 43,11.6539713 43,9 C43,5.14028708 39.8610526,2 36,2" id="Fill-240" fill="#3DDB87"></path>
                    <path d="M17.435634,53.6338701 C17.3081965,53.3268064 17.1528441,53.0318796 16.9853548,52.7430213 C16.6612995,52.1859374 16.2717048,51.6640505 15.804434,51.1967797 C14.3868436,49.7791893 12.5031961,49 10.5006068,49 C8.49680395,49 6.6131564,49.7791893 5.19677967,51.1967797 C3.77918925,52.6131564 3,54.4968039 3,56.5006068 C3,58.5031961 3.77918925,60.3868436 5.19677967,61.8032203 C6.6131564,63.2208107 8.49680395,64 10.5006068,64 C12.5031961,64 14.3868436,63.2208107 15.804434,61.8032203 C17.2208107,60.3868436 18,58.5031961 18,56.5006068 C18,55.8427866 17.9077595,55.2019581 17.745125,54.582976 C17.6601667,54.2601343 17.5618578,53.9409337 17.435634,53.6338701" id="Fill-241" fill="#3DDB87"></path>
                    <path d="M24,28 C22.3426656,28 21,29.3435837 21,31.0005914 C21,32.6564163 22.3426656,34 24,34 C25.1403785,34 26.1210568,33.355411 26.6285489,32.4186872 C26.8580442,31.9940863 27,31.5162626 27,31.0005914 C27,30.825547 26.9775237,30.6564163 26.9491325,30.4896511 C26.7054416,29.077469 25.4822555,28 24,28" id="Fill-242" fill="#3DDB87"></path>
                    <path d="M104.5,42 C102.611081,42 100.997271,43.1727384 100.330377,44.8256242 C100.121588,45.3438395 100,45.9074908 100,46.500614 C100,46.6111339 100.024563,46.7142857 100.03316,46.8223496 C100.201419,49.1506345 102.12964,51 104.5,51 C106.982123,51 109,48.9811707 109,46.500614 C109,44.0188293 106.982123,42 104.5,42" id="Fill-243" fill="#3DDB87"></path>
                    <path d="M81.6723186,42.6617386 C81.3742114,42.0680071 80.8891956,41.5890006 80.2882492,41.3015967 C79.8966877,41.1135423 79.4637224,41 79,41 C78.9692429,41 78.9408517,41.0082791 78.9100946,41.0094619 C78.2192429,41.0295683 77.5946372,41.2874039 77.0966088,41.6989947 C76.8067823,41.9379066 76.5666404,42.2288587 76.3832808,42.5600237 C76.1466877,42.9893554 76,43.4754583 76,43.9994086 C76,44.1614429 76.0224763,44.3175636 76.0473186,44.4725015 C76.2756309,45.9024246 77.5047319,47 79,47 C79.2910095,47 79.5666404,46.9455943 79.8328076,46.867534 C80.4810726,46.6794796 81.0370662,46.2868125 81.4238959,45.7545831 C81.5445584,45.5878179 81.6510252,45.410408 81.7361987,45.2199882 C81.9029968,44.8474276 82,44.4358368 82,43.9994086 C82,43.7534004 81.9621451,43.5168539 81.9053628,43.2862212 C81.8521293,43.0674157 81.7716877,42.8592549 81.6723186,42.6617386" id="Fill-244" fill="#3DDB87"></path>
                </g>
            </g>
        </g>
    </g>
</svg>