<?xml version="1.0" encoding="UTF-8"?>
<svg width="95px" height="72px" viewBox="0 0 95 72" version="1.1" xmlns="http://www.w3.org/2000/svg" xmlns:xlink="http://www.w3.org/1999/xlink">
    <title>illust_reproduct_package</title>
    <defs>
        <linearGradient x1="7.27152259%" y1="3.52909036%" x2="92.5102694%" y2="68.932043%" id="linearGradient-1">
            <stop stop-color="#0CB5E3" offset="0%"></stop>
            <stop stop-color="#057EC2" offset="100%"></stop>
        </linearGradient>
        <linearGradient x1="5.66605189%" y1="3.52909036%" x2="93.0154053%" y2="71.0351405%" id="linearGradient-2">
            <stop stop-color="#00C9C9" offset="0%"></stop>
            <stop stop-color="#009999" offset="100%"></stop>
        </linearGradient>
        <linearGradient x1="0%" y1="3.52909036%" x2="89.7699144%" y2="72.5850997%" id="linearGradient-3">
            <stop stop-color="#FDCD38" offset="0%"></stop>
            <stop stop-color="#F99E1A" offset="100%"></stop>
        </linearGradient>
    </defs>
    <g id="element" stroke="none" stroke-width="1" fill="none" fill-rule="evenodd" opacity="0.8">
        <g id="Artboard" transform="translate(-457.000000, -473.000000)">
            <g id="illust_reproduct_package" transform="translate(457.408747, 473.337500)">
                <g id="illust/package/blue" transform="translate(0.000000, -0.000000)">
                    <rect id="Rectangle" fill="#DAECF6" x="6.83011249" y="8.53764061" width="16.2215172" height="11.9526969"></rect>
                    <path d="M0,0 L7.47641188,27.8967407 L28.9366253,27.8967407 L21.4610672,0 L0,0 Z M13.3639688,17.8812345 C11.0647822,17.8812345 9.4144563,16.4443496 8.84584944,14.3210384 L8.84584944,14.3210384 C8.27724257,12.1994347 9.25224113,10.7301067 11.4899567,10.7301067 L11.4899567,10.7301067 C12.2566369,10.7155927 13.066859,10.8914681 13.8386617,11.2406576 L13.8386617,11.2406576 L13.9957543,12.7287684 C13.3622613,12.3992155 12.6527834,12.1413787 11.9083011,12.1413787 L11.9083011,12.1413787 C10.6635131,12.1413787 10.2895645,13.0181944 10.6353389,14.3065244 L10.6353389,14.3065244 C10.9811134,15.5940006 11.8562215,16.5143582 13.1010095,16.5143582 L13.1010095,16.5143582 C13.4442227,16.5246034 13.7601154,16.4486184 14.0170984,16.2923796 L14.0170984,16.2923796 L13.6875454,15.0655206 L12.4316585,15.0655206 L11.8809807,13.7968272 L14.9101356,13.7968272 L15.8082954,17.15212 C15.1662648,17.6285203 14.3381136,17.8820883 13.421171,17.8820883 L13.421171,17.8820883 C13.4023882,17.8820883 13.3836054,17.8820883 13.3639688,17.8812345 L13.3639688,17.8812345 Z M19.732195,15.9611191 C19.6288895,15.5794866 19.3684915,15.4027574 18.2346928,15.0416152 L18.2346928,15.0416152 C16.6210787,14.5225267 15.8612287,14.0819844 15.5615575,12.965261 L15.5615575,12.965261 C15.2140756,11.6632708 16.1369945,10.9674531 17.5474127,10.9674531 L17.5474127,10.9674531 C18.5113124,10.9674531 19.1755408,11.1356446 19.8901413,11.4156793 L19.8901413,11.4156793 L19.9849091,12.8312201 C19.2293279,12.4786155 18.4814306,12.2831035 17.9153851,12.2831035 L17.9153851,12.2831035 C17.3501933,12.2831035 17.1504125,12.4973983 17.2340813,12.8107297 L17.2340813,12.8107297 C17.3254341,13.1539429 17.5738794,13.3212806 18.5796135,13.6440035 L18.5796135,13.6440035 C20.3272685,14.1810211 21.1059014,14.6907182 21.3936198,15.7681684 L21.3936198,15.7681684 C21.7872051,17.2374964 20.7883011,17.882942 19.3240958,17.882942 L19.3240958,17.882942 C18.4361811,17.8889184 17.5115547,17.7156043 16.6125411,17.3740986 L16.6125411,17.3740986 L16.4955754,15.9431901 C17.3544621,16.3145774 18.2671359,16.5689991 19.0073493,16.5689991 L19.0073493,16.5689991 C19.5298529,16.5689991 19.8380617,16.3623882 19.732195,15.9611191 L19.732195,15.9611191 Z" id="Clip-2" fill="url(#linearGradient-1)"></path>
                </g>
                <g id="illust/package/blue" transform="translate(16.936625, -0.000000)">
                    <rect id="Rectangle" fill="#DAECF6" x="6.83011249" y="8.53764061" width="16.2215172" height="11.9526969"></rect>
                    <path d="M0,0 L7.47641188,27.8967407 L28.9366253,27.8967407 L21.4610672,0 L0,0 Z M13.3639688,17.8812345 C11.0647822,17.8812345 9.4144563,16.4443496 8.84584944,14.3210384 L8.84584944,14.3210384 C8.27724257,12.1994347 9.25224113,10.7301067 11.4899567,10.7301067 L11.4899567,10.7301067 C12.2566369,10.7155927 13.066859,10.8914681 13.8386617,11.2406576 L13.8386617,11.2406576 L13.9957543,12.7287684 C13.3622613,12.3992155 12.6527834,12.1413787 11.9083011,12.1413787 L11.9083011,12.1413787 C10.6635131,12.1413787 10.2895645,13.0181944 10.6353389,14.3065244 L10.6353389,14.3065244 C10.9811134,15.5940006 11.8562215,16.5143582 13.1010095,16.5143582 L13.1010095,16.5143582 C13.4442227,16.5246034 13.7601154,16.4486184 14.0170984,16.2923796 L14.0170984,16.2923796 L13.6875454,15.0655206 L12.4316585,15.0655206 L11.8809807,13.7968272 L14.9101356,13.7968272 L15.8082954,17.15212 C15.1662648,17.6285203 14.3381136,17.8820883 13.421171,17.8820883 L13.421171,17.8820883 C13.4023882,17.8820883 13.3836054,17.8820883 13.3639688,17.8812345 L13.3639688,17.8812345 Z M19.732195,15.9611191 C19.6288895,15.5794866 19.3684915,15.4027574 18.2346928,15.0416152 L18.2346928,15.0416152 C16.6210787,14.5225267 15.8612287,14.0819844 15.5615575,12.965261 L15.5615575,12.965261 C15.2140756,11.6632708 16.1369945,10.9674531 17.5474127,10.9674531 L17.5474127,10.9674531 C18.5113124,10.9674531 19.1755408,11.1356446 19.8901413,11.4156793 L19.8901413,11.4156793 L19.9849091,12.8312201 C19.2293279,12.4786155 18.4814306,12.2831035 17.9153851,12.2831035 L17.9153851,12.2831035 C17.3501933,12.2831035 17.1504125,12.4973983 17.2340813,12.8107297 L17.2340813,12.8107297 C17.3254341,13.1539429 17.5738794,13.3212806 18.5796135,13.6440035 L18.5796135,13.6440035 C20.3272685,14.1810211 21.1059014,14.6907182 21.3936198,15.7681684 L21.3936198,15.7681684 C21.7872051,17.2374964 20.7883011,17.882942 19.3240958,17.882942 L19.3240958,17.882942 C18.4361811,17.8889184 17.5115547,17.7156043 16.6125411,17.3740986 L16.6125411,17.3740986 L16.4955754,15.9431901 C17.3544621,16.3145774 18.2671359,16.5689991 19.0073493,16.5689991 L19.0073493,16.5689991 C19.5298529,16.5689991 19.8380617,16.3623882 19.732195,15.9611191 L19.732195,15.9611191 Z" id="Clip-2" fill="url(#linearGradient-1)"></path>
                </g>
                <g id="illust/package/blue" transform="translate(33.873251, -0.000000)">
                    <rect id="Rectangle" fill="#DAECF6" x="6.83011249" y="8.53764061" width="16.2215172" height="11.9526969"></rect>
                    <path d="M0,0 L7.47641188,27.8967407 L28.9366253,27.8967407 L21.4610672,0 L0,0 Z M13.3639688,17.8812345 C11.0647822,17.8812345 9.4144563,16.4443496 8.84584944,14.3210384 L8.84584944,14.3210384 C8.27724257,12.1994347 9.25224113,10.7301067 11.4899567,10.7301067 L11.4899567,10.7301067 C12.2566369,10.7155927 13.066859,10.8914681 13.8386617,11.2406576 L13.8386617,11.2406576 L13.9957543,12.7287684 C13.3622613,12.3992155 12.6527834,12.1413787 11.9083011,12.1413787 L11.9083011,12.1413787 C10.6635131,12.1413787 10.2895645,13.0181944 10.6353389,14.3065244 L10.6353389,14.3065244 C10.9811134,15.5940006 11.8562215,16.5143582 13.1010095,16.5143582 L13.1010095,16.5143582 C13.4442227,16.5246034 13.7601154,16.4486184 14.0170984,16.2923796 L14.0170984,16.2923796 L13.6875454,15.0655206 L12.4316585,15.0655206 L11.8809807,13.7968272 L14.9101356,13.7968272 L15.8082954,17.15212 C15.1662648,17.6285203 14.3381136,17.8820883 13.421171,17.8820883 L13.421171,17.8820883 C13.4023882,17.8820883 13.3836054,17.8820883 13.3639688,17.8812345 L13.3639688,17.8812345 Z M19.732195,15.9611191 C19.6288895,15.5794866 19.3684915,15.4027574 18.2346928,15.0416152 L18.2346928,15.0416152 C16.6210787,14.5225267 15.8612287,14.0819844 15.5615575,12.965261 L15.5615575,12.965261 C15.2140756,11.6632708 16.1369945,10.9674531 17.5474127,10.9674531 L17.5474127,10.9674531 C18.5113124,10.9674531 19.1755408,11.1356446 19.8901413,11.4156793 L19.8901413,11.4156793 L19.9849091,12.8312201 C19.2293279,12.4786155 18.4814306,12.2831035 17.9153851,12.2831035 L17.9153851,12.2831035 C17.3501933,12.2831035 17.1504125,12.4973983 17.2340813,12.8107297 L17.2340813,12.8107297 C17.3254341,13.1539429 17.5738794,13.3212806 18.5796135,13.6440035 L18.5796135,13.6440035 C20.3272685,14.1810211 21.1059014,14.6907182 21.3936198,15.7681684 L21.3936198,15.7681684 C21.7872051,17.2374964 20.7883011,17.882942 19.3240958,17.882942 L19.3240958,17.882942 C18.4361811,17.8889184 17.5115547,17.7156043 16.6125411,17.3740986 L16.6125411,17.3740986 L16.4955754,15.9431901 C17.3544621,16.3145774 18.2671359,16.5689991 19.0073493,16.5689991 L19.0073493,16.5689991 C19.5298529,16.5689991 19.8380617,16.3623882 19.732195,15.9611191 L19.732195,15.9611191 Z" id="Clip-2" fill="url(#linearGradient-1)"></path>
                </g>
                <g id="illust/package/blue-copy-3" transform="translate(14.513989, 20.197866)">
                    <rect id="Rectangle" fill="#D9F0F0" x="6.83011249" y="8.53764061" width="16.2215172" height="11.9526969"></rect>
                    <path d="M0,0 L7.47641188,27.8967407 L28.9366253,27.8967407 L21.4610672,0 L0,0 Z M13.3639688,17.8812345 C11.0647822,17.8812345 9.4144563,16.4443496 8.84584944,14.3210384 L8.84584944,14.3210384 C8.27724257,12.1994347 9.25224113,10.7301067 11.4899567,10.7301067 L11.4899567,10.7301067 C12.2566369,10.7155927 13.066859,10.8914681 13.8386617,11.2406576 L13.8386617,11.2406576 L13.9957543,12.7287684 C13.3622613,12.3992155 12.6527834,12.1413787 11.9083011,12.1413787 L11.9083011,12.1413787 C10.6635131,12.1413787 10.2895645,13.0181944 10.6353389,14.3065244 L10.6353389,14.3065244 C10.9811134,15.5940006 11.8562215,16.5143582 13.1010095,16.5143582 L13.1010095,16.5143582 C13.4442227,16.5246034 13.7601154,16.4486184 14.0170984,16.2923796 L14.0170984,16.2923796 L13.6875454,15.0655206 L12.4316585,15.0655206 L11.8809807,13.7968272 L14.9101356,13.7968272 L15.8082954,17.15212 C15.1662648,17.6285203 14.3381136,17.8820883 13.421171,17.8820883 L13.421171,17.8820883 C13.4023882,17.8820883 13.3836054,17.8820883 13.3639688,17.8812345 L13.3639688,17.8812345 Z M19.732195,15.9611191 C19.6288895,15.5794866 19.3684915,15.4027574 18.2346928,15.0416152 L18.2346928,15.0416152 C16.6210787,14.5225267 15.8612287,14.0819844 15.5615575,12.965261 L15.5615575,12.965261 C15.2140756,11.6632708 16.1369945,10.9674531 17.5474127,10.9674531 L17.5474127,10.9674531 C18.5113124,10.9674531 19.1755408,11.1356446 19.8901413,11.4156793 L19.8901413,11.4156793 L19.9849091,12.8312201 C19.2293279,12.4786155 18.4814306,12.2831035 17.9153851,12.2831035 L17.9153851,12.2831035 C17.3501933,12.2831035 17.1504125,12.4973983 17.2340813,12.8107297 L17.2340813,12.8107297 C17.3254341,13.1539429 17.5738794,13.3212806 18.5796135,13.6440035 L18.5796135,13.6440035 C20.3272685,14.1810211 21.1059014,14.6907182 21.3936198,15.7681684 L21.3936198,15.7681684 C21.7872051,17.2374964 20.7883011,17.882942 19.3240958,17.882942 L19.3240958,17.882942 C18.4361811,17.8889184 17.5115547,17.7156043 16.6125411,17.3740986 L16.6125411,17.3740986 L16.4955754,15.9431901 C17.3544621,16.3145774 18.2671359,16.5689991 19.0073493,16.5689991 L19.0073493,16.5689991 C19.5298529,16.5689991 19.8380617,16.3623882 19.732195,15.9611191 L19.732195,15.9611191 Z" id="Clip-2-Copy" fill="url(#linearGradient-2)"></path>
                </g>
                <g id="illust/package/blue-copy-3" transform="translate(31.450614, 20.197866)">
                    <rect id="Rectangle" fill="#D9F0F0" x="6.83011249" y="8.53764061" width="16.2215172" height="11.9526969"></rect>
                    <path d="M0,0 L7.47641188,27.8967407 L28.9366253,27.8967407 L21.4610672,0 L0,0 Z M13.3639688,17.8812345 C11.0647822,17.8812345 9.4144563,16.4443496 8.84584944,14.3210384 L8.84584944,14.3210384 C8.27724257,12.1994347 9.25224113,10.7301067 11.4899567,10.7301067 L11.4899567,10.7301067 C12.2566369,10.7155927 13.066859,10.8914681 13.8386617,11.2406576 L13.8386617,11.2406576 L13.9957543,12.7287684 C13.3622613,12.3992155 12.6527834,12.1413787 11.9083011,12.1413787 L11.9083011,12.1413787 C10.6635131,12.1413787 10.2895645,13.0181944 10.6353389,14.3065244 L10.6353389,14.3065244 C10.9811134,15.5940006 11.8562215,16.5143582 13.1010095,16.5143582 L13.1010095,16.5143582 C13.4442227,16.5246034 13.7601154,16.4486184 14.0170984,16.2923796 L14.0170984,16.2923796 L13.6875454,15.0655206 L12.4316585,15.0655206 L11.8809807,13.7968272 L14.9101356,13.7968272 L15.8082954,17.15212 C15.1662648,17.6285203 14.3381136,17.8820883 13.421171,17.8820883 L13.421171,17.8820883 C13.4023882,17.8820883 13.3836054,17.8820883 13.3639688,17.8812345 L13.3639688,17.8812345 Z M19.732195,15.9611191 C19.6288895,15.5794866 19.3684915,15.4027574 18.2346928,15.0416152 L18.2346928,15.0416152 C16.6210787,14.5225267 15.8612287,14.0819844 15.5615575,12.965261 L15.5615575,12.965261 C15.2140756,11.6632708 16.1369945,10.9674531 17.5474127,10.9674531 L17.5474127,10.9674531 C18.5113124,10.9674531 19.1755408,11.1356446 19.8901413,11.4156793 L19.8901413,11.4156793 L19.9849091,12.8312201 C19.2293279,12.4786155 18.4814306,12.2831035 17.9153851,12.2831035 L17.9153851,12.2831035 C17.3501933,12.2831035 17.1504125,12.4973983 17.2340813,12.8107297 L17.2340813,12.8107297 C17.3254341,13.1539429 17.5738794,13.3212806 18.5796135,13.6440035 L18.5796135,13.6440035 C20.3272685,14.1810211 21.1059014,14.6907182 21.3936198,15.7681684 L21.3936198,15.7681684 C21.7872051,17.2374964 20.7883011,17.882942 19.3240958,17.882942 L19.3240958,17.882942 C18.4361811,17.8889184 17.5115547,17.7156043 16.6125411,17.3740986 L16.6125411,17.3740986 L16.4955754,15.9431901 C17.3544621,16.3145774 18.2671359,16.5689991 19.0073493,16.5689991 L19.0073493,16.5689991 C19.5298529,16.5689991 19.8380617,16.3623882 19.732195,15.9611191 L19.732195,15.9611191 Z" id="Clip-2-Copy" fill="url(#linearGradient-2)"></path>
                </g>
                <g id="illust/package/blue-copy-3" transform="translate(48.387240, 20.197866)">
                    <rect id="Rectangle" fill="#D9F0F0" x="6.83011249" y="8.53764061" width="16.2215172" height="11.9526969"></rect>
                    <path d="M0,0 L7.47641188,27.8967407 L28.9366253,27.8967407 L21.4610672,0 L0,0 Z M13.3639688,17.8812345 C11.0647822,17.8812345 9.4144563,16.4443496 8.84584944,14.3210384 L8.84584944,14.3210384 C8.27724257,12.1994347 9.25224113,10.7301067 11.4899567,10.7301067 L11.4899567,10.7301067 C12.2566369,10.7155927 13.066859,10.8914681 13.8386617,11.2406576 L13.8386617,11.2406576 L13.9957543,12.7287684 C13.3622613,12.3992155 12.6527834,12.1413787 11.9083011,12.1413787 L11.9083011,12.1413787 C10.6635131,12.1413787 10.2895645,13.0181944 10.6353389,14.3065244 L10.6353389,14.3065244 C10.9811134,15.5940006 11.8562215,16.5143582 13.1010095,16.5143582 L13.1010095,16.5143582 C13.4442227,16.5246034 13.7601154,16.4486184 14.0170984,16.2923796 L14.0170984,16.2923796 L13.6875454,15.0655206 L12.4316585,15.0655206 L11.8809807,13.7968272 L14.9101356,13.7968272 L15.8082954,17.15212 C15.1662648,17.6285203 14.3381136,17.8820883 13.421171,17.8820883 L13.421171,17.8820883 C13.4023882,17.8820883 13.3836054,17.8820883 13.3639688,17.8812345 L13.3639688,17.8812345 Z M19.732195,15.9611191 C19.6288895,15.5794866 19.3684915,15.4027574 18.2346928,15.0416152 L18.2346928,15.0416152 C16.6210787,14.5225267 15.8612287,14.0819844 15.5615575,12.965261 L15.5615575,12.965261 C15.2140756,11.6632708 16.1369945,10.9674531 17.5474127,10.9674531 L17.5474127,10.9674531 C18.5113124,10.9674531 19.1755408,11.1356446 19.8901413,11.4156793 L19.8901413,11.4156793 L19.9849091,12.8312201 C19.2293279,12.4786155 18.4814306,12.2831035 17.9153851,12.2831035 L17.9153851,12.2831035 C17.3501933,12.2831035 17.1504125,12.4973983 17.2340813,12.8107297 L17.2340813,12.8107297 C17.3254341,13.1539429 17.5738794,13.3212806 18.5796135,13.6440035 L18.5796135,13.6440035 C20.3272685,14.1810211 21.1059014,14.6907182 21.3936198,15.7681684 L21.3936198,15.7681684 C21.7872051,17.2374964 20.7883011,17.882942 19.3240958,17.882942 L19.3240958,17.882942 C18.4361811,17.8889184 17.5115547,17.7156043 16.6125411,17.3740986 L16.6125411,17.3740986 L16.4955754,15.9431901 C17.3544621,16.3145774 18.2671359,16.5689991 19.0073493,16.5689991 L19.0073493,16.5689991 C19.5298529,16.5689991 19.8380617,16.3623882 19.732195,15.9611191 L19.732195,15.9611191 Z" id="Clip-2-Copy" fill="url(#linearGradient-2)"></path>
                </g>
                <g id="illust/package/blue-copy-6" transform="translate(31.589270, 43.103259)">
                    <rect id="Rectangle" fill="#FEF1DD" x="6.83011249" y="8.53764061" width="16.2215172" height="11.9526969"></rect>
                    <path d="M0,0 L7.47641188,27.8967407 L28.9366253,27.8967407 L21.4610672,0 L0,0 Z M13.3639688,17.8812345 C11.0647822,17.8812345 9.4144563,16.4443496 8.84584944,14.3210384 L8.84584944,14.3210384 C8.27724257,12.1994347 9.25224113,10.7301067 11.4899567,10.7301067 L11.4899567,10.7301067 C12.2566369,10.7155927 13.066859,10.8914681 13.8386617,11.2406576 L13.8386617,11.2406576 L13.9957543,12.7287684 C13.3622613,12.3992155 12.6527834,12.1413787 11.9083011,12.1413787 L11.9083011,12.1413787 C10.6635131,12.1413787 10.2895645,13.0181944 10.6353389,14.3065244 L10.6353389,14.3065244 C10.9811134,15.5940006 11.8562215,16.5143582 13.1010095,16.5143582 L13.1010095,16.5143582 C13.4442227,16.5246034 13.7601154,16.4486184 14.0170984,16.2923796 L14.0170984,16.2923796 L13.6875454,15.0655206 L12.4316585,15.0655206 L11.8809807,13.7968272 L14.9101356,13.7968272 L15.8082954,17.15212 C15.1662648,17.6285203 14.3381136,17.8820883 13.421171,17.8820883 L13.421171,17.8820883 C13.4023882,17.8820883 13.3836054,17.8820883 13.3639688,17.8812345 L13.3639688,17.8812345 Z M19.732195,15.9611191 C19.6288895,15.5794866 19.3684915,15.4027574 18.2346928,15.0416152 L18.2346928,15.0416152 C16.6210787,14.5225267 15.8612287,14.0819844 15.5615575,12.965261 L15.5615575,12.965261 C15.2140756,11.6632708 16.1369945,10.9674531 17.5474127,10.9674531 L17.5474127,10.9674531 C18.5113124,10.9674531 19.1755408,11.1356446 19.8901413,11.4156793 L19.8901413,11.4156793 L19.9849091,12.8312201 C19.2293279,12.4786155 18.4814306,12.2831035 17.9153851,12.2831035 L17.9153851,12.2831035 C17.3501933,12.2831035 17.1504125,12.4973983 17.2340813,12.8107297 L17.2340813,12.8107297 C17.3254341,13.1539429 17.5738794,13.3212806 18.5796135,13.6440035 L18.5796135,13.6440035 C20.3272685,14.1810211 21.1059014,14.6907182 21.3936198,15.7681684 L21.3936198,15.7681684 C21.7872051,17.2374964 20.7883011,17.882942 19.3240958,17.882942 L19.3240958,17.882942 C18.4361811,17.8889184 17.5115547,17.7156043 16.6125411,17.3740986 L16.6125411,17.3740986 L16.4955754,15.9431901 C17.3544621,16.3145774 18.2671359,16.5689991 19.0073493,16.5689991 L19.0073493,16.5689991 C19.5298529,16.5689991 19.8380617,16.3623882 19.732195,15.9611191 L19.732195,15.9611191 Z" id="Clip-2-Copy-2" fill="url(#linearGradient-3)"></path>
                </g>
                <g id="illust/package/blue-copy-6" transform="translate(48.525896, 43.103259)">
                    <rect id="Rectangle" fill="#FEF1DD" x="6.83011249" y="8.53764061" width="16.2215172" height="11.9526969"></rect>
                    <path d="M0,0 L7.47641188,27.8967407 L28.9366253,27.8967407 L21.4610672,0 L0,0 Z M13.3639688,17.8812345 C11.0647822,17.8812345 9.4144563,16.4443496 8.84584944,14.3210384 L8.84584944,14.3210384 C8.27724257,12.1994347 9.25224113,10.7301067 11.4899567,10.7301067 L11.4899567,10.7301067 C12.2566369,10.7155927 13.066859,10.8914681 13.8386617,11.2406576 L13.8386617,11.2406576 L13.9957543,12.7287684 C13.3622613,12.3992155 12.6527834,12.1413787 11.9083011,12.1413787 L11.9083011,12.1413787 C10.6635131,12.1413787 10.2895645,13.0181944 10.6353389,14.3065244 L10.6353389,14.3065244 C10.9811134,15.5940006 11.8562215,16.5143582 13.1010095,16.5143582 L13.1010095,16.5143582 C13.4442227,16.5246034 13.7601154,16.4486184 14.0170984,16.2923796 L14.0170984,16.2923796 L13.6875454,15.0655206 L12.4316585,15.0655206 L11.8809807,13.7968272 L14.9101356,13.7968272 L15.8082954,17.15212 C15.1662648,17.6285203 14.3381136,17.8820883 13.421171,17.8820883 L13.421171,17.8820883 C13.4023882,17.8820883 13.3836054,17.8820883 13.3639688,17.8812345 L13.3639688,17.8812345 Z M19.732195,15.9611191 C19.6288895,15.5794866 19.3684915,15.4027574 18.2346928,15.0416152 L18.2346928,15.0416152 C16.6210787,14.5225267 15.8612287,14.0819844 15.5615575,12.965261 L15.5615575,12.965261 C15.2140756,11.6632708 16.1369945,10.9674531 17.5474127,10.9674531 L17.5474127,10.9674531 C18.5113124,10.9674531 19.1755408,11.1356446 19.8901413,11.4156793 L19.8901413,11.4156793 L19.9849091,12.8312201 C19.2293279,12.4786155 18.4814306,12.2831035 17.9153851,12.2831035 L17.9153851,12.2831035 C17.3501933,12.2831035 17.1504125,12.4973983 17.2340813,12.8107297 L17.2340813,12.8107297 C17.3254341,13.1539429 17.5738794,13.3212806 18.5796135,13.6440035 L18.5796135,13.6440035 C20.3272685,14.1810211 21.1059014,14.6907182 21.3936198,15.7681684 L21.3936198,15.7681684 C21.7872051,17.2374964 20.7883011,17.882942 19.3240958,17.882942 L19.3240958,17.882942 C18.4361811,17.8889184 17.5115547,17.7156043 16.6125411,17.3740986 L16.6125411,17.3740986 L16.4955754,15.9431901 C17.3544621,16.3145774 18.2671359,16.5689991 19.0073493,16.5689991 L19.0073493,16.5689991 C19.5298529,16.5689991 19.8380617,16.3623882 19.732195,15.9611191 L19.732195,15.9611191 Z" id="Clip-2-Copy-2" fill="url(#linearGradient-3)"></path>
                </g>
                <g id="illust/package/blue-copy-6" transform="translate(65.462521, 43.103259)">
                    <rect id="Rectangle" fill="#FEF1DD" x="6.83011249" y="8.53764061" width="16.2215172" height="11.9526969"></rect>
                    <path d="M0,0 L7.47641188,27.8967407 L28.9366253,27.8967407 L21.4610672,0 L0,0 Z M13.3639688,17.8812345 C11.0647822,17.8812345 9.4144563,16.4443496 8.84584944,14.3210384 L8.84584944,14.3210384 C8.27724257,12.1994347 9.25224113,10.7301067 11.4899567,10.7301067 L11.4899567,10.7301067 C12.2566369,10.7155927 13.066859,10.8914681 13.8386617,11.2406576 L13.8386617,11.2406576 L13.9957543,12.7287684 C13.3622613,12.3992155 12.6527834,12.1413787 11.9083011,12.1413787 L11.9083011,12.1413787 C10.6635131,12.1413787 10.2895645,13.0181944 10.6353389,14.3065244 L10.6353389,14.3065244 C10.9811134,15.5940006 11.8562215,16.5143582 13.1010095,16.5143582 L13.1010095,16.5143582 C13.4442227,16.5246034 13.7601154,16.4486184 14.0170984,16.2923796 L14.0170984,16.2923796 L13.6875454,15.0655206 L12.4316585,15.0655206 L11.8809807,13.7968272 L14.9101356,13.7968272 L15.8082954,17.15212 C15.1662648,17.6285203 14.3381136,17.8820883 13.421171,17.8820883 L13.421171,17.8820883 C13.4023882,17.8820883 13.3836054,17.8820883 13.3639688,17.8812345 L13.3639688,17.8812345 Z M19.732195,15.9611191 C19.6288895,15.5794866 19.3684915,15.4027574 18.2346928,15.0416152 L18.2346928,15.0416152 C16.6210787,14.5225267 15.8612287,14.0819844 15.5615575,12.965261 L15.5615575,12.965261 C15.2140756,11.6632708 16.1369945,10.9674531 17.5474127,10.9674531 L17.5474127,10.9674531 C18.5113124,10.9674531 19.1755408,11.1356446 19.8901413,11.4156793 L19.8901413,11.4156793 L19.9849091,12.8312201 C19.2293279,12.4786155 18.4814306,12.2831035 17.9153851,12.2831035 L17.9153851,12.2831035 C17.3501933,12.2831035 17.1504125,12.4973983 17.2340813,12.8107297 L17.2340813,12.8107297 C17.3254341,13.1539429 17.5738794,13.3212806 18.5796135,13.6440035 L18.5796135,13.6440035 C20.3272685,14.1810211 21.1059014,14.6907182 21.3936198,15.7681684 L21.3936198,15.7681684 C21.7872051,17.2374964 20.7883011,17.882942 19.3240958,17.882942 L19.3240958,17.882942 C18.4361811,17.8889184 17.5115547,17.7156043 16.6125411,17.3740986 L16.6125411,17.3740986 L16.4955754,15.9431901 C17.3544621,16.3145774 18.2671359,16.5689991 19.0073493,16.5689991 L19.0073493,16.5689991 C19.5298529,16.5689991 19.8380617,16.3623882 19.732195,15.9611191 L19.732195,15.9611191 Z" id="Clip-2-Copy-2" fill="url(#linearGradient-3)"></path>
                </g>
            </g>
        </g>
    </g>
</svg>