<?xml version="1.0" encoding="UTF-8"?>
<svg width="38px" height="119px" viewBox="0 0 38 119" version="1.1" xmlns="http://www.w3.org/2000/svg" xmlns:xlink="http://www.w3.org/1999/xlink">
    <title>illust_bottle_emerald</title>
    <g id="element" stroke="none" stroke-width="1" fill="none" fill-rule="evenodd">
        <g id="plastic-item" transform="translate(-276.000000, -113.000000)">
            <g id="Group" transform="translate(276.000000, 113.000000)">
                <path d="M36.5317251,41.6654302 C38.1514682,38.0656365 38.6913825,31.9325704 36.8015936,24.5993394 C34.9121593,17.2664589 25.5992128,11.6665657 25.5992128,11.6665657 L25.5992128,9 L12.4006559,9 L12.4006559,11.6665657 C12.4006559,11.6665657 3.08788672,17.2664589 1.1982751,24.5993394 C-0.691336524,31.9325704 -0.151422159,38.0656365 1.46814362,41.6654302 C3.08788672,45.2652238 5.24736687,46.9985616 4.97732103,51.6650517 C4.70762981,56.3315417 1.06334083,60.0646286 1.06334083,67.2643911 L1.06334083,115.529336 C1.06334083,119.262423 6.59706412,118.995836 16.5848593,118.995836 L21.4151867,118.995836 C31.4028046,118.995836 36.9367052,119.262423 36.9367052,115.529336 L36.9367052,67.2643911 C36.9367052,60.0646286 33.2924162,56.3315417 33.0225477,51.6650517 C32.7526792,46.9985616 34.9121593,45.2652238 36.5317251,41.6654302" id="Fill-1-Copy-2" fill="#CDE5F3"></path>
                <path d="M34.7136773,41.7234439 C35.8282772,39.264009 36.5168435,34.7721109 35.513811,29 L2.48626853,29 C1.48305702,34.7721109 2.17180238,39.264009 3.28640224,41.7234439 C3.70312363,42.6430755 4.17625551,43.4580279 4.63380736,44.2464592 C5.91871321,46.4600033 7.2474939,48.7488954 7.01504682,52.7411082 C6.87840805,55.0828668 6.0655596,57.0972394 5.20489652,59.2301664 C4.15297499,61.8364333 3.06523726,64.5313965 3.06523726,68.2615599 L3.06523726,116.658841 C3.06523726,116.909826 3.06523726,117.221756 4.48982627,117.542292 C6.37178803,117.9654 9.45323404,118 12.9907992,118 C13.5319819,118 15.9099979,117.995785 16.5607781,117.995785 L21.4393015,117.995785 C22.0900817,117.995785 24.4680977,118 25.0092803,118 C28.5466665,118 31.6282915,117.9654 33.5102533,117.542292 C34.9346632,117.221756 34.9346632,116.909826 34.9346632,116.658841 L34.9346632,68.2615599 C34.9346632,64.5313965 33.8471046,61.8364333 32.795183,59.2301664 C31.9343409,57.0972394 31.1214924,55.0828668 30.9850327,52.7411082 C30.7525857,48.7488954 32.0813664,46.4600033 33.3662722,44.2464592 C33.8238241,43.4580279 34.2969559,42.6430755 34.7136773,41.7234439" id="Fill-3-Copy-2" fill-opacity="0.8" fill="#009999"></path>
                <polygon id="Fill-6-Copy-2" fill="#009999" points="3 103 33 103 33 64 3.32207233 64 3 65.195302"></polygon>
                <g id="Group-4-Copy-2" opacity="0" transform="translate(8.000000, 79.000000)" fill="#FFFFFF" fill-rule="nonzero">
                    <path d="M4.9822894,9.99836309 C1.76790914,9.99836309 0,7.9884578 0,5.02145477 C0,2.05445173 1.91389558,0.00115802092 5.0412197,0.00115802092 C6.11936396,-0.0190962437 7.18468394,0.226644389 8.13372137,0.71451488 L7.79621144,2.79460733 C7.03279613,2.33392428 6.13946629,1.97277939 5.09881068,1.97277939 C3.35768804,1.97277939 2.5072166,3.19914065 2.5072166,4.99976055 C2.5072166,6.80038046 3.38715319,8.08671984 5.12827583,8.08671984 C5.60311804,8.10165274 6.07347806,7.99500938 6.49036946,7.7778963 L6.49036946,6.06150099 L4.73317493,6.06150099 L4.43986273,4.28767982 L8.67346939,4.28767982 L8.67346939,8.97873495 C7.57536642,9.65780864 6.29132682,10.0129475 4.9822894,9.99963922" id="Path"></path>
                    <path d="M9.71428571,9.28922396 L10.086967,7.28762807 C11.1476753,7.808043 12.3285152,8.16332627 13.363286,8.16332627 C14.0936321,8.16332627 14.6028266,7.87434586 14.6028266,7.31389901 C14.6028266,6.77972311 14.3038625,6.53327661 12.8540914,6.02787365 C10.7941058,5.30229514 9.89721352,4.6868044 9.89721352,3.1255596 C9.89721352,1.30535834 11.4493696,0.333333333 13.4206215,0.333333333 C14.7680077,0.333333333 15.633502,0.567269853 16.527664,0.95883205 L16.1304103,2.93790999 C15.2062154,2.445017 14.2342407,2.17229956 13.4424637,2.17229956 C12.6506866,2.17229956 12.2916566,2.47253894 12.2916566,2.91038805 C12.2916566,3.38952006 12.5756043,3.62345658 13.8601943,4.07506666 C16.1031077,4.82566512 17,5.53748266 17,7.04368357 C17,9.09782135 15.3618405,9.9997905 13.3141412,9.9997905 C12.0717967,10.0081619 10.8427021,9.76555391 9.71428571,9.28922396 Z" id="Path"></path>
                </g>
                <path d="M14.5168148,119.998795 L11,119.998795 C12.2183997,120.003595 13.5549285,119.999895 15,119.998995 C14.8395052,119.998895 14.6802474,119.998795 14.5168148,119.998795" id="Fill-24-Copy-2" fill="#A8DCFF"></path>
                <path d="M27,11 L11,11 L11,1.21791192 C11,0.545263676 11.5264121,0 12.1758046,0 L25.8241954,0 C26.4735879,0 27,0.545263676 27,1.21791192 L27,11 Z" id="Fill-29-Copy-2" fill="#009999"></path>
            </g>
        </g>
    </g>
</svg>