<?xml version="1.0" encoding="UTF-8"?>
<svg width="106px" height="338px" viewBox="0 0 106 338" version="1.1" xmlns="http://www.w3.org/2000/svg" xmlns:xlink="http://www.w3.org/1999/xlink">
    <title>illust_bottle</title>
    <g id="Page-4" stroke="none" stroke-width="1" fill="none" fill-rule="evenodd">
        <g id="1.0MAIN-ver4" transform="translate(-422.000000, -23650.000000)">
            <g id="Group-33" transform="translate(165.000000, 22091.000000)">
                <g id="illust_bottle" transform="translate(257.000000, 1559.000000)">
                    <g id="illust/bottle/emerald-copy-3">
                        <path d="M101.904286,116.455597 C106.422517,106.30929 107.928593,89.0227525 102.657077,68.3534543 C97.3865496,47.6851435 71.4083304,31.9013966 71.4083304,31.9013966 L71.4083304,24.3854677 L34.5913034,24.3854677 L34.5913034,31.9013966 C34.5913034,31.9013966 8.61357874,47.6851435 3.34255685,68.3534543 C-1.92846504,89.0227525 -0.422388129,106.30929 4.095348,116.455597 C8.61357874,126.601903 14.6373918,131.487455 13.884106,144.64033 C13.1318095,157.793206 2.96616127,168.31521 2.96616127,188.608317 L2.96616127,324.646926 C2.96616127,335.16893 18.4023368,334.417535 46.2630285,334.417535 L59.7370999,334.417535 C87.597297,334.417535 103.033967,335.16893 103.033967,324.646926 L103.033967,188.608317 C103.033967,168.31521 92.8683189,157.793206 92.1155278,144.64033 C91.3627366,131.487455 97.3865496,126.601903 101.904286,116.455597" id="Fill-1-Copy-2" fill="#F0F0F0"></path>
                        <path d="M97.1710409,117.723016 C100.304174,110.791777 102.239729,98.1326012 99.4202114,81.8654986 L6.58001232,81.8654986 C3.75999153,98.1326012 5.69605007,110.791777 8.82918278,117.723016 C10.0005838,120.314744 11.3305543,122.611462 12.6167295,124.833439 C16.2285911,131.071702 19.9637847,137.522313 19.3103775,148.773264 C18.9262869,155.372865 16.6413753,161.049818 14.2220572,167.060885 C11.2651129,174.405929 8.20748951,182.00094 8.20748951,192.513377 L8.20748951,328.907766 C8.20748951,329.615096 8.20748951,330.494185 12.2119996,331.397527 C17.5021814,332.58994 26.1641053,332.687452 36.1081772,332.687452 C37.629438,332.687452 44.3140249,332.675572 46.1433637,332.675572 L59.85686,332.675572 C61.6861987,332.675572 68.3707857,332.687452 69.8920465,332.687452 C79.835615,332.687452 88.4980423,332.58994 93.7882241,331.397527 C97.7922308,330.494185 97.7922308,329.615096 97.7922308,328.907766 L97.7922308,192.513377 C97.7922308,182.00094 94.7351108,174.405929 91.7781664,167.060885 C89.3583449,161.049818 87.0734334,155.372865 86.6898461,148.773264 C86.036439,137.522313 89.7716325,131.071702 93.3834942,124.833439 C94.6696694,122.611462 95.9996399,120.314744 97.1710409,117.723016" id="Fill-3-Copy-2" fill-opacity="0.8" fill="#C0C0C0"></path>
                        <polygon id="Fill-6-Copy-2" fill="#A0A0A0" points="8.68852459 289.141974 92.0983607 289.141974 92.0983607 179.407369 9.58399128 179.407369 8.68852459 182.7706"></polygon>
                        <path d="M40.4454682,337.91081 L31.2786885,337.91081 C34.4545172,337.919171 37.9382562,337.912726 41.704918,337.911159 C41.2865792,337.910984 40.8714645,337.91081 40.4454682,337.91081" id="Fill-24-Copy-2" fill="#A8DCFF"></path>
                        <path d="M74.7213115,31.3527441 L29.5409836,31.3527441 L29.5409836,3.47135279 C29.5409836,1.5541375 31.0274504,0 32.8611858,0 L71.4011093,0 C73.2348447,0 74.7213115,1.5541375 74.7213115,3.47135279 L74.7213115,31.3527441 Z" id="Fill-29-Copy-2" fill="#C0C0C0"></path>
                    </g>
                    <g id="illust/bottle/emerald-copy-3" opacity="0.5">
                        <path d="M101.904286,116.455597 C106.422517,106.30929 107.928593,89.0227525 102.657077,68.3534543 C97.3865496,47.6851435 71.4083304,31.9013966 71.4083304,31.9013966 L71.4083304,24.3854677 L34.5913034,24.3854677 L34.5913034,31.9013966 C34.5913034,31.9013966 8.61357874,47.6851435 3.34255685,68.3534543 C-1.92846504,89.0227525 -0.422388129,106.30929 4.095348,116.455597 C8.61357874,126.601903 14.6373918,131.487455 13.884106,144.64033 C13.1318095,157.793206 2.96616127,168.31521 2.96616127,188.608317 L2.96616127,324.646926 C2.96616127,335.16893 18.4023368,334.417535 46.2630285,334.417535 L59.7370999,334.417535 C87.597297,334.417535 103.033967,335.16893 103.033967,324.646926 L103.033967,188.608317 C103.033967,168.31521 92.8683189,157.793206 92.1155278,144.64033 C91.3627366,131.487455 97.3865496,126.601903 101.904286,116.455597" id="Fill-1-Copy-2" fill="#CDE5F3"></path>
                        <path d="M97.1710409,117.723016 C100.304174,110.791777 102.239729,98.1326012 99.4202114,81.8654986 L6.58001232,81.8654986 C3.75999153,98.1326012 5.69605007,110.791777 8.82918278,117.723016 C10.0005838,120.314744 11.3305543,122.611462 12.6167295,124.833439 C16.2285911,131.071702 19.9637847,137.522313 19.3103775,148.773264 C18.9262869,155.372865 16.6413753,161.049818 14.2220572,167.060885 C11.2651129,174.405929 8.20748951,182.00094 8.20748951,192.513377 L8.20748951,328.907766 C8.20748951,329.615096 8.20748951,330.494185 12.2119996,331.397527 C17.5021814,332.58994 26.1641053,332.687452 36.1081772,332.687452 C37.629438,332.687452 44.3140249,332.675572 46.1433637,332.675572 L59.85686,332.675572 C61.6861987,332.675572 68.3707857,332.687452 69.8920465,332.687452 C79.835615,332.687452 88.4980423,332.58994 93.7882241,331.397527 C97.7922308,330.494185 97.7922308,329.615096 97.7922308,328.907766 L97.7922308,192.513377 C97.7922308,182.00094 94.7351108,174.405929 91.7781664,167.060885 C89.3583449,161.049818 87.0734334,155.372865 86.6898461,148.773264 C86.036439,137.522313 89.7716325,131.071702 93.3834942,124.833439 C94.6696694,122.611462 95.9996399,120.314744 97.1710409,117.723016" id="Fill-3-Copy-2" fill-opacity="0.8" fill="#009999"></path>
                        <polygon id="Fill-6-Copy-2" fill="#009999" points="8.68852459 289.141974 92.0983607 289.141974 92.0983607 179.407369 9.58399128 179.407369 8.68852459 182.7706"></polygon>
                        <path d="M40.4454682,337.91081 L31.2786885,337.91081 C34.4545172,337.919171 37.9382562,337.912726 41.704918,337.911159 C41.2865792,337.910984 40.8714645,337.91081 40.4454682,337.91081" id="Fill-24-Copy-2" fill="#A8DCFF"></path>
                        <path d="M74.7213115,31.3527441 L29.5409836,31.3527441 L29.5409836,3.47135279 C29.5409836,1.5541375 31.0274504,0 32.8611858,0 L71.4011093,0 C73.2348447,0 74.7213115,1.5541375 74.7213115,3.47135279 L74.7213115,31.3527441 Z" id="Fill-29-Copy-2" fill="#009999"></path>
                    </g>
                </g>
            </g>
        </g>
    </g>
</svg>