<?xml version="1.0" encoding="UTF-8"?>
<svg width="105px" height="47px" viewBox="0 0 105 47" version="1.1" xmlns="http://www.w3.org/2000/svg" xmlns:xlink="http://www.w3.org/1999/xlink">
    <title>illust_trash_emerald</title>
    <g id="element" stroke="none" stroke-width="1" fill="none" fill-rule="evenodd">
        <g id="Artboard" transform="translate(-423.000000, -309.000000)">
            <g id="illust_trash_emerald" transform="translate(423.705972, 309.737280)">
                <path d="M7.66929908,21.7573063 C9.09189487,16.2545611 12.3138666,11.9979371 17.4340653,9.05490873 L30.8892714,8.35145316 L49.865811,17.6069185 L62.0158965,21.7573063 C67.9569888,9.9292035 76.814904,2.41227833 89.1240107,0.000430687078 L99.8672593,0.000430687078 C102.364323,1.71743651 102.129373,3.98141493 100.973245,6.42915316 C100.39733,7.65086885 100.619387,9.1022843 101.509047,10.1158346 C104.504664,13.5268762 105.123557,16.9422248 101.554891,20.3647514 C100.623685,21.2577093 100.225415,22.5914036 100.605061,23.8246043 C102.577784,30.2475843 100.642309,34.3218841 93.742791,35.412958 L84.2043794,35.4143936 L71.7534428,29.6819486 L72.8579961,35.412958 C68.7392016,40.314177 63.4255986,43.4108171 57.8985346,46.1830062 L42.135371,45.4781151 L26.0699237,40.2467027 L21.2505761,43.5658644 C16.985654,41.5559914 14.0401787,38.1090591 11.7121645,33.9888194 L7.66929908,21.7573063 Z" id="Fill-37" fill-opacity="0.45" fill="#29A7AA"></path>
                <path d="M93.7429343,35.4125273 C100.642452,34.3214534 102.577927,30.2471536 100.605204,23.8256092 C100.225559,22.590973 100.623828,21.2587143 101.555034,20.3657564 C105.123701,16.9417941 104.504807,13.5264455 101.50919,10.1154039 C100.61953,9.10185362 100.397473,7.65043816 100.973388,6.4301581 C102.129516,3.98098424 102.364466,1.71700582 99.8674026,-8.79882553e-13 L94.830296,-8.79882553e-13 L91.2329768,2.42763951 L93.7429343,6.33827819 L88.5224519,6.33827819 L67.5373732,28.0291151 L68.4413591,32.6001407 L50.4676564,33.2031026 L49.7656706,25.2554904 L39.2229894,18.0472243 L30.5885636,28.0291151 L15.8139107,23.2685873 C15.8139107,23.2685873 12.2094283,27.2165522 10.7596127,31.1056565 L11.7123077,33.9883887 C14.040322,38.1086284 16.9857972,41.5555607 21.2507193,43.5668694 L26.070067,40.246272 L42.1355143,45.47912 L57.8986779,46.1825756 C63.4257419,43.4103864 68.7393449,40.3137463 72.8581393,35.4125273 L71.7535861,29.6815179 L84.2045227,35.4125273 L93.7429343,35.4125273 Z" id="Fill-38" fill-opacity="0.45" fill="#008989"></path>
                <path d="M92.7390945,2.51521255 C97.544116,5.91620485 99.9337331,10.5575759 96.453889,18.212321 C98.8907827,27.6572886 96.701733,32.3259366 91.2334065,33.6050772 C97.27335,34.1836335 99.8105274,30.7252163 98.9638465,23.3733878 C101.905024,17.6581703 101.91362,13.4173382 98.9638465,10.6652477 C99.8663997,4.78062658 97.9696053,1.87492442 92.7390945,2.51521255" id="Fill-43" fill-opacity="0.45" fill="#29A7AA"></path>
                <path d="M7.00556431,34.9021631 L10.8449971,33.8929197 C13.4466425,29.4209522 12.7962312,25.4528886 7.77631611,22.1653106 L3.93688337,23.1745539 C9.95533745,23.2822257 11.7919616,31.9131948 7.00556431,34.9021631" id="Fill-54" fill="#46C9CC"></path>
                <path d="M10.103041,34.8055457 C12.4897928,34.1781781 13.6888993,30.8633233 12.7820482,27.3991635 C11.8751971,23.9350038 9.2076509,21.6351348 6.82089906,22.2625023 C4.43414721,22.8884342 3.23504079,26.2061603 4.14189189,29.6688844 C5.04731035,33.1330442 7.71628916,35.4329132 10.103041,34.8055457" id="Fill-55" fill="#005555"></path>
                <path d="M6.26332174,35.8149326 L10.1027545,34.8056892 C12.6399319,30.0867944 11.9207545,25.8502692 6.82061253,22.2626458 L2.98117979,23.2718892 C9.02828636,23.4886684 11.0210666,32.7139856 6.26332174,35.8149326" id="Fill-56" fill="#005555"></path>
                <path d="M6.26332174,35.8149326 C8.65007358,35.1875651 9.84918,31.8712746 8.94232891,28.4071148 C8.03691044,24.9443907 5.36793164,22.6430861 2.98117979,23.2718892 C0.59442795,23.8978211 -0.603245845,27.2141116 0.302172622,30.6782714 C1.20902371,34.1424311 3.87656989,36.4423001 6.26332174,35.8149326" id="Fill-57" fill="#008989"></path>
            </g>
        </g>
    </g>
</svg>