<?xml version="1.0" encoding="UTF-8"?>
<svg width="108px" height="108px" viewBox="0 0 108 108" version="1.1" xmlns="http://www.w3.org/2000/svg" xmlns:xlink="http://www.w3.org/1999/xlink">
    <title>illust_reproduct_top</title>
    <g id="element" stroke="none" stroke-width="1" fill="none" fill-rule="evenodd">
        <g id="Artboard" transform="translate(-327.000000, -452.000000)">
            <g id="illust_reproduct_top" transform="translate(327.000000, 452.000000)">
                <g opacity="0.8" transform="translate(6.000000, 18.000000)" id="Group">
                    <g id="illust/bottle-top/blue">
                        <path d="M15.155775,24.6954741 C18.7443013,23.7524167 20.5347447,18.7222241 19.1559276,13.4565114 C17.7771104,8.19079873 13.7539632,4.68630896 10.1654369,5.62936641 C6.57690467,6.5702432 4.78647314,11.6047971 6.16528435,16.8683291 C7.54194596,22.1340359 11.5672487,25.6385316 15.155775,24.6954741" id="Fill-55" fill="#003C5D" transform="translate(12.660607, 15.162420) rotate(105.000000) translate(-12.660607, -15.162420) "></path>
                        <path d="M15.1840787,18.72717 C18.772605,17.7841125 20.5630425,12.7517393 19.1842253,7.48602663 C17.8075697,2.22250055 13.782261,-1.28417583 10.1937406,-0.338937708 C6.60520839,0.60193908 4.81692645,5.63431824 6.19358806,10.900025 C7.57240522,16.1657377 11.5955524,19.6702275 15.1840787,18.72717" id="Fill-57" fill="#057EC2" transform="translate(12.689347, 9.193830) rotate(105.000000) translate(-12.689347, -9.193830) "></path>
                        <path d="M10.9499516,23.4926513 L16.7226108,21.9755584 C20.5205065,14.8182192 19.4208629,8.38008486 11.7322727,2.90945066 L5.9596135,4.42654361 C15.0590402,4.78089389 18.0956395,18.8021313 10.9499516,23.4926513" id="Fill-56" fill="#003C5D" transform="translate(12.400624, 13.201051) rotate(105.000000) translate(-12.400624, -13.201051) "></path>
                    </g>
                    <g transform="translate(10.000000, 24.000000)" id="illust/bottle-top/blue-copy-2">
                        <path d="M15.155775,24.6954741 C18.7443013,23.7524167 20.5347447,18.7222241 19.1559276,13.4565114 C17.7771104,8.19079873 13.7539632,4.68630896 10.1654369,5.62936641 C6.57690467,6.5702432 4.78647314,11.6047971 6.16528435,16.8683291 C7.54194596,22.1340359 11.5672487,25.6385316 15.155775,24.6954741" id="Fill-55" fill="#005555" transform="translate(12.660607, 15.162420) rotate(105.000000) translate(-12.660607, -15.162420) "></path>
                        <path d="M15.1840787,18.72717 C18.772605,17.7841125 20.5630425,12.7517393 19.1842253,7.48602663 C17.8075697,2.22250055 13.782261,-1.28417583 10.1937406,-0.338937708 C6.60520839,0.60193908 4.81692645,5.63431824 6.19358806,10.900025 C7.57240522,16.1657377 11.5955524,19.6702275 15.1840787,18.72717" id="Fill-57" fill="#008989" transform="translate(12.689347, 9.193830) rotate(105.000000) translate(-12.689347, -9.193830) "></path>
                        <path d="M10.9499516,23.4926513 L16.7226108,21.9755584 C20.5205065,14.8182192 19.4208629,8.38008486 11.7322727,2.90945066 L5.9596135,4.42654361 C15.0590402,4.78089389 18.0956395,18.8021313 10.9499516,23.4926513" id="Fill-56" fill="#005555" transform="translate(12.400624, 13.201051) rotate(105.000000) translate(-12.400624, -13.201051) "></path>
                    </g>
                    <g transform="translate(25.000000, 48.000000)" id="illust/bottle-top/blue-copy-6">
                        <path d="M15.155775,24.6954741 C18.7443013,23.7524167 20.5347447,18.7222241 19.1559276,13.4565114 C17.7771104,8.19079873 13.7539632,4.68630896 10.1654369,5.62936641 C6.57690467,6.5702432 4.78647314,11.6047971 6.16528435,16.8683291 C7.54194596,22.1340359 11.5672487,25.6385316 15.155775,24.6954741" id="Fill-55" fill="#943E10" transform="translate(12.660607, 15.162420) rotate(105.000000) translate(-12.660607, -15.162420) "></path>
                        <path d="M15.1840787,18.72717 C18.772605,17.7841125 20.5630425,12.7517393 19.1842253,7.48602663 C17.8075697,2.22250055 13.782261,-1.28417583 10.1937406,-0.338937708 C6.60520839,0.60193908 4.81692645,5.63431824 6.19358806,10.900025 C7.57240522,16.1657377 11.5955524,19.6702275 15.1840787,18.72717" id="Fill-57" fill="#F36A21" transform="translate(12.689347, 9.193830) rotate(105.000000) translate(-12.689347, -9.193830) "></path>
                        <path d="M10.9499516,23.4926513 L16.7226108,21.9755584 C20.5205065,14.8182192 19.4208629,8.38008486 11.7322727,2.90945066 L5.9596135,4.42654361 C15.0590402,4.78089389 18.0956395,18.8021313 10.9499516,23.4926513" id="Fill-56" fill="#943E10" transform="translate(12.400624, 13.201051) rotate(105.000000) translate(-12.400624, -13.201051) "></path>
                    </g>
                    <g transform="translate(23.000000, 0.000000)" id="illust/bottle-top/blue">
                        <path d="M15.155775,24.6954741 C18.7443013,23.7524167 20.5347447,18.7222241 19.1559276,13.4565114 C17.7771104,8.19079873 13.7539632,4.68630896 10.1654369,5.62936641 C6.57690467,6.5702432 4.78647314,11.6047971 6.16528435,16.8683291 C7.54194596,22.1340359 11.5672487,25.6385316 15.155775,24.6954741" id="Fill-55" fill="#003C5D" transform="translate(12.660607, 15.162420) rotate(105.000000) translate(-12.660607, -15.162420) "></path>
                        <path d="M15.1840787,18.72717 C18.772605,17.7841125 20.5630425,12.7517393 19.1842253,7.48602663 C17.8075697,2.22250055 13.782261,-1.28417583 10.1937406,-0.338937708 C6.60520839,0.60193908 4.81692645,5.63431824 6.19358806,10.900025 C7.57240522,16.1657377 11.5955524,19.6702275 15.1840787,18.72717" id="Fill-57" fill="#057EC2" transform="translate(12.689347, 9.193830) rotate(105.000000) translate(-12.689347, -9.193830) "></path>
                        <path d="M10.9499516,23.4926513 L16.7226108,21.9755584 C20.5205065,14.8182192 19.4208629,8.38008486 11.7322727,2.90945066 L5.9596135,4.42654361 C15.0590402,4.78089389 18.0956395,18.8021313 10.9499516,23.4926513" id="Fill-56" fill="#003C5D" transform="translate(12.400624, 13.201051) rotate(105.000000) translate(-12.400624, -13.201051) "></path>
                    </g>
                    <g transform="translate(33.000000, 24.000000)" id="illust/bottle-top/blue-copy-2">
                        <path d="M15.155775,24.6954741 C18.7443013,23.7524167 20.5347447,18.7222241 19.1559276,13.4565114 C17.7771104,8.19079873 13.7539632,4.68630896 10.1654369,5.62936641 C6.57690467,6.5702432 4.78647314,11.6047971 6.16528435,16.8683291 C7.54194596,22.1340359 11.5672487,25.6385316 15.155775,24.6954741" id="Fill-55" fill="#005555" transform="translate(12.660607, 15.162420) rotate(105.000000) translate(-12.660607, -15.162420) "></path>
                        <path d="M15.1840787,18.72717 C18.772605,17.7841125 20.5630425,12.7517393 19.1842253,7.48602663 C17.8075697,2.22250055 13.782261,-1.28417583 10.1937406,-0.338937708 C6.60520839,0.60193908 4.81692645,5.63431824 6.19358806,10.900025 C7.57240522,16.1657377 11.5955524,19.6702275 15.1840787,18.72717" id="Fill-57" fill="#008989" transform="translate(12.689347, 9.193830) rotate(105.000000) translate(-12.689347, -9.193830) "></path>
                        <path d="M10.9499516,23.4926513 L16.7226108,21.9755584 C20.5205065,14.8182192 19.4208629,8.38008486 11.7322727,2.90945066 L5.9596135,4.42654361 C15.0590402,4.78089389 18.0956395,18.8021313 10.9499516,23.4926513" id="Fill-56" fill="#005555" transform="translate(12.400624, 13.201051) rotate(105.000000) translate(-12.400624, -13.201051) "></path>
                    </g>
                    <g transform="translate(48.000000, 48.000000)" id="illust/bottle-top/blue-copy-6">
                        <path d="M15.155775,24.6954741 C18.7443013,23.7524167 20.5347447,18.7222241 19.1559276,13.4565114 C17.7771104,8.19079873 13.7539632,4.68630896 10.1654369,5.62936641 C6.57690467,6.5702432 4.78647314,11.6047971 6.16528435,16.8683291 C7.54194596,22.1340359 11.5672487,25.6385316 15.155775,24.6954741" id="Fill-55" fill="#943E10" transform="translate(12.660607, 15.162420) rotate(105.000000) translate(-12.660607, -15.162420) "></path>
                        <path d="M15.1840787,18.72717 C18.772605,17.7841125 20.5630425,12.7517393 19.1842253,7.48602663 C17.8075697,2.22250055 13.782261,-1.28417583 10.1937406,-0.338937708 C6.60520839,0.60193908 4.81692645,5.63431824 6.19358806,10.900025 C7.57240522,16.1657377 11.5955524,19.6702275 15.1840787,18.72717" id="Fill-57" fill="#F36A21" transform="translate(12.689347, 9.193830) rotate(105.000000) translate(-12.689347, -9.193830) "></path>
                        <path d="M10.9499516,23.4926513 L16.7226108,21.9755584 C20.5205065,14.8182192 19.4208629,8.38008486 11.7322727,2.90945066 L5.9596135,4.42654361 C15.0590402,4.78089389 18.0956395,18.8021313 10.9499516,23.4926513" id="Fill-56" fill="#943E10" transform="translate(12.400624, 13.201051) rotate(105.000000) translate(-12.400624, -13.201051) "></path>
                    </g>
                    <g transform="translate(46.000000, 0.000000)" id="illust/bottle-top/blue">
                        <path d="M15.155775,24.6954741 C18.7443013,23.7524167 20.5347447,18.7222241 19.1559276,13.4565114 C17.7771104,8.19079873 13.7539632,4.68630896 10.1654369,5.62936641 C6.57690467,6.5702432 4.78647314,11.6047971 6.16528435,16.8683291 C7.54194596,22.1340359 11.5672487,25.6385316 15.155775,24.6954741" id="Fill-55" fill="#003C5D" transform="translate(12.660607, 15.162420) rotate(105.000000) translate(-12.660607, -15.162420) "></path>
                        <path d="M15.1840787,18.72717 C18.772605,17.7841125 20.5630425,12.7517393 19.1842253,7.48602663 C17.8075697,2.22250055 13.782261,-1.28417583 10.1937406,-0.338937708 C6.60520839,0.60193908 4.81692645,5.63431824 6.19358806,10.900025 C7.57240522,16.1657377 11.5955524,19.6702275 15.1840787,18.72717" id="Fill-57" fill="#057EC2" transform="translate(12.689347, 9.193830) rotate(105.000000) translate(-12.689347, -9.193830) "></path>
                        <path d="M10.9499516,23.4926513 L16.7226108,21.9755584 C20.5205065,14.8182192 19.4208629,8.38008486 11.7322727,2.90945066 L5.9596135,4.42654361 C15.0590402,4.78089389 18.0956395,18.8021313 10.9499516,23.4926513" id="Fill-56" fill="#003C5D" transform="translate(12.400624, 13.201051) rotate(105.000000) translate(-12.400624, -13.201051) "></path>
                    </g>
                    <g transform="translate(55.000000, 24.000000)" id="illust/bottle-top/blue-copy-2">
                        <path d="M15.155775,24.6954741 C18.7443013,23.7524167 20.5347447,18.7222241 19.1559276,13.4565114 C17.7771104,8.19079873 13.7539632,4.68630896 10.1654369,5.62936641 C6.57690467,6.5702432 4.78647314,11.6047971 6.16528435,16.8683291 C7.54194596,22.1340359 11.5672487,25.6385316 15.155775,24.6954741" id="Fill-55" fill="#005555" transform="translate(12.660607, 15.162420) rotate(105.000000) translate(-12.660607, -15.162420) "></path>
                        <path d="M15.1840787,18.72717 C18.772605,17.7841125 20.5630425,12.7517393 19.1842253,7.48602663 C17.8075697,2.22250055 13.782261,-1.28417583 10.1937406,-0.338937708 C6.60520839,0.60193908 4.81692645,5.63431824 6.19358806,10.900025 C7.57240522,16.1657377 11.5955524,19.6702275 15.1840787,18.72717" id="Fill-57" fill="#008989" transform="translate(12.689347, 9.193830) rotate(105.000000) translate(-12.689347, -9.193830) "></path>
                        <path d="M10.9499516,23.4926513 L16.7226108,21.9755584 C20.5205065,14.8182192 19.4208629,8.38008486 11.7322727,2.90945066 L5.9596135,4.42654361 C15.0590402,4.78089389 18.0956395,18.8021313 10.9499516,23.4926513" id="Fill-56" fill="#005555" transform="translate(12.400624, 13.201051) rotate(105.000000) translate(-12.400624, -13.201051) "></path>
                    </g>
                    <g transform="translate(71.000000, 48.000000)" id="illust/bottle-top/blue-copy-6">
                        <path d="M15.155775,24.6954741 C18.7443013,23.7524167 20.5347447,18.7222241 19.1559276,13.4565114 C17.7771104,8.19079873 13.7539632,4.68630896 10.1654369,5.62936641 C6.57690467,6.5702432 4.78647314,11.6047971 6.16528435,16.8683291 C7.54194596,22.1340359 11.5672487,25.6385316 15.155775,24.6954741" id="Fill-55" fill="#943E10" transform="translate(12.660607, 15.162420) rotate(105.000000) translate(-12.660607, -15.162420) "></path>
                        <path d="M15.1840787,18.72717 C18.772605,17.7841125 20.5630425,12.7517393 19.1842253,7.48602663 C17.8075697,2.22250055 13.782261,-1.28417583 10.1937406,-0.338937708 C6.60520839,0.60193908 4.81692645,5.63431824 6.19358806,10.900025 C7.57240522,16.1657377 11.5955524,19.6702275 15.1840787,18.72717" id="Fill-57" fill="#F36A21" transform="translate(12.689347, 9.193830) rotate(105.000000) translate(-12.689347, -9.193830) "></path>
                        <path d="M10.9499516,23.4926513 L16.7226108,21.9755584 C20.5205065,14.8182192 19.4208629,8.38008486 11.7322727,2.90945066 L5.9596135,4.42654361 C15.0590402,4.78089389 18.0956395,18.8021313 10.9499516,23.4926513" id="Fill-56" fill="#943E10" transform="translate(12.400624, 13.201051) rotate(105.000000) translate(-12.400624, -13.201051) "></path>
                    </g>
                </g>
                <rect id="Rectangle-Copy" x="0" y="0" width="108" height="108"></rect>
            </g>
        </g>
    </g>
</svg>