<?xml version="1.0" encoding="UTF-8"?>
<svg width="56px" height="56px" viewBox="0 0 56 56" version="1.1" xmlns="http://www.w3.org/2000/svg" xmlns:xlink="http://www.w3.org/1999/xlink">
    <title>icon/c1/astronaut</title>
    <defs>
        <polygon id="path-1" points="0 0 46.9999688 0 46.9999688 11.4865554 0 11.4865554"></polygon>
        <polygon id="path-3" points="0 0 10.6612685 0 10.6612685 9.88218977 0 9.88218977"></polygon>
        <polygon id="path-5" points="0 38 47 38 47 0 0 0"></polygon>
    </defs>
    <g id="element" stroke="none" stroke-width="1" fill="none" fill-rule="evenodd">
        <g id="plastic-item" transform="translate(-591.000000, -1751.000000)">
            <g id="icon/c1/astronaut" transform="translate(591.000000, 1751.000000)">
                <rect id="Rectangle-Copy-18" x="0" y="0" width="56" height="56"></rect>
                <g id="Group-51" transform="translate(5.000000, 9.000000)">
                    <polygon id="Fill-1" fill="#F5FDFF" points="2 35 10 35 10 29 2 29"></polygon>
                    <polygon id="Fill-2" fill="#F5FDFF" points="36 35 44 35 44 29 36 29"></polygon>
                    <polygon id="Fill-3" fill="#3757B7" points="8 7 38 7 38 2 8 2"></polygon>
                    <polygon id="Fill-4" fill="#EFE5ED" points="8 7 12 7 12 2 8 2"></polygon>
                    <polygon id="Fill-5" fill="#EFE5ED" points="34 7 38 7 38 2 34 2"></polygon>
                    <g id="Group-50">
                        <path d="M11.5071509,3.6658532 C11.5071509,4.10270873 11.1550442,4.45689896 10.7207586,4.45689896 C10.286317,4.45689896 9.93436628,4.10270873 9.93436628,3.6658532 C9.93436628,3.22899766 10.286317,2.87480743 10.7207586,2.87480743 C11.1550442,2.87480743 11.5071509,3.22899766 11.5071509,3.6658532" id="Fill-6" fill="#7699DD"></path>
                        <path d="M11.5071509,5.84558191 C11.5071509,6.28243744 11.1550442,6.63662767 10.7207586,6.63662767 C10.286317,6.63662767 9.93436628,6.28243744 9.93436628,5.84558191 C9.93436628,5.40856952 10.286317,5.05453615 10.7207586,5.05453615 C11.1550442,5.05453615 11.5071509,5.40856952 11.5071509,5.84558191" id="Fill-8" fill="#7699DD"></path>
                        <path d="M36.8911398,3.6658532 C36.8911398,4.10270873 36.5390331,4.45689896 36.1047475,4.45689896 C35.6703059,4.45689896 35.3181992,4.10270873 35.3181992,3.6658532 C35.3181992,3.22899766 35.6703059,2.87480743 36.1047475,2.87480743 C36.5390331,2.87480743 36.8911398,3.22899766 36.8911398,3.6658532" id="Fill-10" fill="#7699DD"></path>
                        <path d="M36.8911398,5.84558191 C36.8911398,6.28243744 36.5390331,6.63662767 36.1047475,6.63662767 C35.6703059,6.63662767 35.3181992,6.28243744 35.3181992,5.84558191 C35.3181992,5.40856952 35.6703059,5.05453615 36.1047475,5.05453615 C36.5390331,5.05453615 36.8911398,5.40856952 36.8911398,5.84558191" id="Fill-12" fill="#7699DD"></path>
                        <g id="Group-16" transform="translate(0.000000, 20.395899)">
                            <mask id="mask-2" fill="white">
                                <use xlink:href="#path-1"></use>
                            </mask>
                            <g id="Clip-15"></g>
                            <path d="M46.9999688,11.4865554 C43.1665597,4.60196323 35.8484176,0 27.5252589,0 L19.4746788,0 C11.1515201,0 3.8333779,4.60196323 -3.11874801e-05,11.4865554 L46.9999688,11.4865554 Z" id="Fill-14" fill="#EFE5ED" mask="url(#mask-2)"></path>
                        </g>
                        <g id="Group-19" transform="translate(0.000000, 22.000264)">
                            <mask id="mask-4" fill="white">
                                <use xlink:href="#path-3"></use>
                            </mask>
                            <g id="Clip-18"></g>
                            <polygon id="Fill-17" fill="#7699DD" mask="url(#mask-4)" points="-1.55937398e-05 9.88218977 10.4792895 9.88218977 10.6612685 0 7.80886156 1.70695221 7.43851023 8.39201829"></polygon>
                        </g>
                        <mask id="mask-6" fill="white">
                            <use xlink:href="#path-5"></use>
                        </mask>
                        <g id="Clip-21"></g>
                        <polygon id="Fill-20" fill="#EFE5ED" mask="url(#mask-6)" points="8.90620863 38 38.0937914 38 38.0937914 15.3799813 8.90620863 15.3799813"></polygon>
                        <polygon id="Fill-22" fill="#7699DD" mask="url(#mask-6)" points="29.8155426 38 38.0939473 38 38.0939473 15.3799813 29.8155426 15.3799813"></polygon>
                        <polygon id="Fill-23" fill="#F5FDFF" mask="url(#mask-6)" points="8.90620863 38 17.1844574 38 17.1844574 15.3799813 8.90620863 15.3799813"></polygon>
                        <path d="M38.0938693,15.8565225 C38.0938693,23.9643102 23.5,33.3726254 23.5,33.3726254 C23.5,33.3726254 8.9062866,23.9643102 8.9062866,15.8565225 C8.9062866,7.74889166 15.4400636,1.17645116 23.5,1.17645116 C31.5599364,1.17645116 38.0938693,7.74889166 38.0938693,15.8565225" id="Fill-24" fill="#7699DD" mask="url(#mask-6)"></path>
                        <path d="M38.0938693,15.8565225 C38.0938693,23.9643102 23.5,31.2027789 23.5,31.2027789 C23.5,31.2027789 8.9062866,23.9643102 8.9062866,15.8565225 C8.9062866,7.74889166 15.4400636,1.17645116 23.5,1.17645116 C31.5599364,1.17645116 38.0938693,7.74889166 38.0938693,15.8565225" id="Fill-25" fill="#3757B7" mask="url(#mask-6)"></path>
                        <path d="M38.0938693,14.6801498 C38.0938693,22.7877806 23.5,30.7845113 23.5,30.7845113 C23.5,30.7845113 8.9062866,22.7877806 8.9062866,14.6801498 C8.9062866,6.57251893 15.4400636,-7.84300775e-05 23.5,-7.84300775e-05 C31.5599364,-7.84300775e-05 38.0938693,6.57251893 38.0938693,14.6801498" id="Fill-26" fill="#EFE5ED" mask="url(#mask-6)"></path>
                        <path d="M23.5000156,25.836593 C16.4207695,25.836593 10.6612217,20.8319698 10.6612217,14.6800713 C10.6612217,8.52848663 16.4207695,3.52354966 23.5000156,3.52354966 C30.5792617,3.52354966 36.3388095,8.52848663 36.3388095,14.6800713 C36.3388095,20.8319698 30.5792617,25.836593 23.5000156,25.836593" id="Fill-27" fill="#000B39" mask="url(#mask-6)"></path>
                        <path d="M22.8242609,24.411691 C16.9515025,24.411691 12.1737365,20.2599165 12.1737365,15.156785 C12.1737365,10.0534967 16.9515025,5.90172216 22.8242609,5.90172216 C28.6970193,5.90172216 33.4747853,10.0534967 33.4747853,15.156785 C33.4747853,20.2599165 28.6970193,24.411691 22.8242609,24.411691" id="Fill-28" fill="#0E214F" mask="url(#mask-6)"></path>
                        <path d="M23.0776591,16.7480529 C18.6351586,16.7480529 15.0208415,14.5672261 15.0208415,11.8866429 C15.0208415,9.20605976 18.6351586,7.02523302 23.0776591,7.02523302 C27.5201597,7.02523302 31.1344768,9.20605976 31.1344768,11.8866429 C31.1344768,14.5672261 27.5201597,16.7480529 23.0776591,16.7480529" id="Fill-29" fill="#153F86" mask="url(#mask-6)"></path>
                        <path d="M15.3357571,15.8888514 C15.3357571,11.3293972 19.6045434,7.6199683 24.8513691,7.6199683 C25.7547145,7.6199683 26.6279639,7.73212331 27.4564593,7.93761011 C26.0845221,7.27017015 24.5050321,6.88790195 22.8241829,6.88790195 C17.5773572,6.88790195 13.3085709,10.5973309 13.3085709,15.156785 C13.3085709,18.9313109 16.235204,22.1207485 20.2190927,23.1078694 C17.3086771,21.6922065 15.3357571,18.9876237 15.3357571,15.8888514" id="Fill-30" fill="#153F86" mask="url(#mask-6)"></path>
                        <path d="M20.7806233,10.7279327 C19.740209,11.0024379 18.7606102,10.7149133 18.5968759,10.0873158 C18.4331417,9.45940459 19.1463993,8.72529907 20.1868137,8.45079379 C21.227228,8.17628852 22.2068267,8.46365633 22.370561,9.09156753 C22.5342953,9.71932187 21.8210376,10.4534274 20.7806233,10.7279327" id="Fill-31" fill="#145DB2" mask="url(#mask-6)"></path>
                        <path d="M17.4692458,10.5259595 C17.1628288,10.8012491 16.7800025,10.8748165 16.6158004,10.6898784 C16.4515984,10.5050971 16.5673039,10.1306719 16.8737209,9.85538237 C17.1801379,9.57993594 17.5631201,9.50636852 17.7271663,9.69130665 C17.8913684,9.87624477 17.7756628,10.25067 17.4692458,10.5259595" id="Fill-32" fill="#145DB2" mask="url(#mask-6)"></path>
                        <path d="M28.9659021,20.7865901 C28.3625803,21.0673698 27.7354001,20.9997631 27.5679233,20.6356906 C27.4004466,20.2717751 27.7548923,19.7470779 28.35837,19.4661413 C28.9616918,19.1852048 29.5887161,19.2529684 29.7561929,19.6168839 C29.9238256,19.9809564 29.569068,20.5056536 28.9659021,20.7865901" id="Fill-33" fill="#153F86" mask="url(#mask-6)"></path>
                        <path d="M38.8222373,9.5893946 L37.7801077,9.5893946 C37.3720195,9.5893946 37.0411204,10.0626417 37.0411204,10.6463183 L37.0411204,15.7370578 C37.0411204,16.3207344 37.3720195,16.7939815 37.7801077,16.7939815 L38.8222373,16.7939815 C40.2135108,16.7939815 41.3412501,15.1811454 41.3412501,13.1916881 C41.3412501,11.2022307 40.2135108,9.5893946 38.8222373,9.5893946" id="Fill-34" fill="#7699DD" mask="url(#mask-6)"></path>
                        <path d="M37.7168127,12.9546881 L37.7168127,12.0135271 L40.2454936,12.0135271 C40.0641384,10.6339421 39.2184899,9.58941029 38.2009983,9.58941029 L37.3400679,9.58941029 C37.0027754,9.58941029 36.7292612,9.98046265 36.7292612,10.4628076 L36.7292612,14.4710552 L39.8001364,14.4710552 C40.0463615,14.0487876 40.2105636,13.5269139 40.2629586,12.9546881 L37.7168127,12.9546881 Z" id="Fill-35" fill="#EFE5ED" mask="url(#mask-6)"></path>
                        <path d="M8.17787182,9.5893946 L9.21984552,9.5893946 C9.6279337,9.5893946 9.95883286,10.0626417 9.95883286,10.6463183 L9.95883286,15.7370578 C9.95883286,16.3207344 9.6279337,16.7939815 9.21984552,16.7939815 L8.17787182,16.7939815 C6.78659834,16.7939815 5.65870313,15.1811454 5.65870313,13.1916881 C5.65870313,11.2022307 6.78659834,9.5893946 8.17787182,9.5893946" id="Fill-36" fill="#7699DD" mask="url(#mask-6)"></path>
                        <path d="M9.28321848,12.9546881 L9.28321848,12.0135271 L6.75453761,12.0135271 C6.93589281,10.6339421 7.78154133,9.58941029 8.79903286,9.58941029 L9.66011918,9.58941029 C9.99741177,9.58941029 10.27077,9.98046265 10.27077,10.4628076 L10.27077,14.4710552 L7.19989483,14.4710552 C6.95366967,14.0487876 6.78931165,13.5269139 6.73691669,12.9546881 L9.28321848,12.9546881 Z" id="Fill-37" fill="#EFE5ED" mask="url(#mask-6)"></path>
                        <path d="M39.8568508,29.0157719 C40.7339987,30.1873604 42.1918574,30.8949565 43.6492483,30.8569964 C43.8981244,30.8504082 44.1725743,30.8105658 44.3338135,30.6199807 C44.6088871,30.2946527 44.3759166,29.8011707 44.1298474,29.4532548 C43.5524112,28.6367977 42.9189935,27.86034 42.2361436,27.1306265 C41.6939493,26.5514988 40.9133267,25.5091631 40.1440875,25.2522262 C38.0283288,24.5454143 39.3305621,28.3127247 39.8568508,29.0157719" id="Fill-38" fill="#F5FDFF" mask="url(#mask-6)"></path>
                        <path d="M6.1233498,27.9537502 C5.51238707,28.7700504 4.49661085,29.2632188 3.48130244,29.2365525 C3.30790005,29.2320036 3.1167208,29.2042394 3.00428994,29.0713788 C2.81279881,28.8448727 2.97497371,28.5008784 3.14634891,28.2585295 C3.5486674,27.6895977 3.98997024,27.1487439 4.46589118,26.6403601 C4.84341563,26.2369158 5.38732528,25.5108101 5.92328212,25.3316758 C7.39735835,24.8394487 6.49011456,27.4638759 6.1233498,27.9537502" id="Fill-39" fill="#F5FDFF" mask="url(#mask-6)"></path>
                        <path d="M31.1343988,32.3562501 C31.1343988,32.993416 30.6210529,33.5097996 29.9876352,33.5097996 C29.3543734,33.5097996 28.8408715,32.993416 28.8408715,32.3562501 C28.8408715,31.7190841 29.3543734,31.2027005 29.9876352,31.2027005 C30.6210529,31.2027005 31.1343988,31.7190841 31.1343988,32.3562501" id="Fill-40" fill="#EFE5ED" mask="url(#mask-6)"></path>
                        <path d="M30.7699887,32.3562501 C30.7699887,32.7909095 30.4197533,33.1433743 29.9876508,33.1433743 C29.5555482,33.1433743 29.2053128,32.7909095 29.2053128,32.3562501 C29.2053128,31.9215906 29.5555482,31.5692827 29.9876508,31.5692827 C30.4197533,31.5692827 30.7699887,31.9215906 30.7699887,32.3562501" id="Fill-41" fill="#7699DD" mask="url(#mask-6)"></path>
                        <line x1="31.1343988" y1="32.3562501" x2="34.4156336" y2="32.3562501" id="Stroke-42" stroke="#EFE5ED" stroke-width="3" mask="url(#mask-6)"></line>
                        <path d="M22.3268985,15.187263 C20.4306998,15.2092234 20.4130788,15.2269486 20.3910917,17.1343681 C20.3694164,15.2269486 20.3516395,15.2092234 18.4554407,15.187263 C20.3516395,15.1653025 20.3694164,15.1475773 20.3910917,13.240001 C20.4130788,15.1475773 20.4306998,15.1653025 22.3268985,15.187263" id="Fill-43" fill="#E4FAFE" mask="url(#mask-6)"></path>
                        <path d="M27.1074402,13.578615 C25.9354147,13.592105 25.9244991,13.6032421 25.9109325,14.7820461 C25.8975219,13.6032421 25.8866063,13.592105 24.7145808,13.578615 C25.8866063,13.565125 25.8975219,13.553988 25.9109325,12.3751839 C25.9244991,13.553988 25.9354147,13.565125 27.1074402,13.578615" id="Fill-44" fill="#E4FAFE" mask="url(#mask-6)"></path>
                        <path d="M29.0432627,21.9478729 C28.3187775,21.9561865 28.3122281,21.9630883 28.3038075,22.6915469 C28.2953869,21.9630883 28.2886816,21.9561865 27.5643524,21.9478729 C28.2886816,21.9394024 28.2953869,21.9326575 28.3038075,21.204042 C28.3122281,21.9326575 28.3187775,21.9394024 29.0432627,21.9478729" id="Fill-45" fill="#E4FAFE" mask="url(#mask-6)"></path>
                        <path d="M25.5072574,23.6832952 C25.5124033,23.2241655 25.5167696,23.2199303 25.9730424,23.2147539 C25.5167696,23.2094207 25.5124033,23.2050286 25.5072574,22.7458989 C25.5021115,23.2050286 25.4977452,23.2094207 25.0414724,23.2147539 C25.4977452,23.2199303 25.5021115,23.2241655 25.5072574,23.6832952" id="Fill-46" fill="#E4FAFE" mask="url(#mask-6)"></path>
                        <path d="M20.5567751,22.6258695 C20.562077,22.1667399 20.5662873,22.1625046 21.0225602,22.1573283 C20.5662873,22.151995 20.562077,22.1476029 20.5567751,21.6884733 C20.5514733,22.1476029 20.547263,22.151995 20.0908342,22.1573283 C20.547263,22.1625046 20.5514733,22.1667399 20.5567751,22.6258695" id="Fill-47" fill="#E4FAFE" mask="url(#mask-6)"></path>
                        <path d="M25.1222791,24.8407506 C25.1255538,24.5568337 25.1282048,24.554324 25.4102955,24.5510299 C25.1282048,24.5477358 25.1255538,24.5450692 25.1222791,24.2614661 C25.1190045,24.5450692 25.1165095,24.5477358 24.8344187,24.5510299 C25.1165095,24.554324 25.1190045,24.5568337 25.1222791,24.8407506" id="Fill-48" fill="#E4FAFE" mask="url(#mask-6)"></path>
                        <path d="M27.124796,25.309339 C27.1268232,25.1339693 27.1283826,25.1324007 27.3028765,25.1302047 C27.1283826,25.1283223 27.1268232,25.1267537 27.124796,24.9513841 C27.1227689,25.1267537 27.1212095,25.1283223 26.9467155,25.1302047 C27.1212095,25.1324007 27.1227689,25.1339693 27.124796,25.309339" id="Fill-49" fill="#E4FAFE" mask="url(#mask-6)"></path>
                    </g>
                </g>
            </g>
        </g>
    </g>
</svg>