<?xml version="1.0" encoding="UTF-8"?>
<svg width="56px" height="56px" viewBox="0 0 56 56" version="1.1" xmlns="http://www.w3.org/2000/svg" xmlns:xlink="http://www.w3.org/1999/xlink">
    <title>icon/c1/bomb</title>
    <g id="element" stroke="none" stroke-width="1" fill="none" fill-rule="evenodd">
        <g id="plastic-item" transform="translate(-491.000000, -1752.000000)">
            <g id="icon/c1/bomb" transform="translate(491.000000, 1752.000000)">
                <rect id="Rectangle-Copy-17" x="0" y="0" width="56" height="56"></rect>
                <g id="Asset-1" transform="translate(16.000000, 11.000000)" fill-rule="nonzero">
                    <path d="M17.9425099,6.27444309 C18.0266867,6.39159816 18.1011507,6.49925417 18.1756148,6.61324289 C18.2500788,6.72723161 18.3277805,6.83805397 18.4022445,6.94887634 C18.5479351,7.17685378 18.6903881,7.40166486 18.8296035,7.6296423 C19.1112719,8.08559718 19.3767525,8.54788476 19.6325203,9.01650505 C20.1462145,9.94952383 20.6135034,10.8994298 21.0343873,11.866223 C21.8864661,13.8069063 22.5109827,15.8357566 22.8959888,17.9139579 C23.0847215,18.9525505 23.1929485,20.003605 23.2197456,21.0581467 C23.2197456,21.3241204 23.2197456,21.5869277 23.2197456,21.849735 C23.2197456,22.1125423 23.2003202,22.3721833 23.1906075,22.6318243 L23.1258561,24.1865038 C23.0805302,25.2219013 23.0319667,26.2541325 22.976928,27.28953 C22.9477899,27.808812 22.9154142,28.3280939 22.8830385,28.8410431 C22.8830385,28.9043702 22.8830385,28.9708636 22.8830385,29.027858 L22.8830385,29.081686 C22.8853118,29.0712485 22.8853118,29.0604599 22.8830385,29.0500224 C22.8746005,29.0252702 22.8626096,29.001816 22.8474253,28.9803627 C22.822163,28.9472336 22.7915435,28.9183572 22.7567734,28.8948711 C22.7421876,28.8865018 22.727045,28.879097 22.7114474,28.8727067 C22.7362238,28.8821727 22.7600649,28.8938311 22.7826739,28.9075365 C22.8335052,28.937503 22.8784574,28.9761049 22.9154142,29.0215253 L22.9154142,29.0215253 L22.9154142,29.0215253 L22.9575026,29.0658542 C22.9967673,29.0976549 23.0378423,29.1272549 23.0805302,29.1545121 C23.1743628,29.2130672 23.2741892,29.2618825 23.3783864,29.3001644 L23.5337897,29.3476597 C23.574213,29.3572018 23.6153543,29.3635549 23.6568173,29.3666578 L23.6568173,29.3666578 C23.7459962,29.3614152 23.8334265,29.3924458 23.8984117,29.4524041 C23.963397,29.5123624 24.0001604,29.5959185 24,29.6832931 C23.9895816,29.8636743 23.8350356,30.0036248 23.6503421,30 C23.5544585,30 23.4588862,29.9892582 23.3654362,29.9682649 C23.2818463,29.9507272 23.1996242,29.9274496 23.119381,29.8986051 C22.9664452,29.8444853 22.8199105,29.7744219 22.6823093,29.6896258 C22.6096716,29.6449577 22.5404237,29.5952224 22.475105,29.5408072 C22.4394917,29.51231 22.4071161,29.4806465 22.3715028,29.4458166 L22.3456023,29.4173194 L22.3229393,29.3888223 C22.3375679,29.4083512 22.3563437,29.4245537 22.3779779,29.4363176 C22.3779779,29.4363176 22.4200663,29.4553157 22.4071161,29.4363176 L22.3358896,29.4014877 C22.2924065,29.3742262 22.2549721,29.3386921 22.2258123,29.296998 C22.2074316,29.2691567 22.1922319,29.239426 22.1804863,29.2083401 L22.1804863,29.1545121 C22.1804863,29.1260149 22.1804863,29.1101832 22.1804863,29.0943514 C22.1804863,29.0785196 22.1804863,29.0025271 22.1804863,28.9645309 L22.1804863,28.7618843 C22.2031493,28.2426024 22.2290498,27.7296531 22.2484752,27.2135375 C22.2905636,26.1813063 22.3261769,25.1459088 22.355315,24.1136776 L22.4006409,22.5621645 C22.4006409,22.3025235 22.4006409,22.0428826 22.4006409,21.7927407 C22.4006409,21.5425987 22.4006409,21.2861241 22.4006409,21.0328159 C22.3627862,20.0156998 22.2469882,19.0027924 22.0542212,18.0026157 C21.6492007,15.9912968 21.0149968,14.0307005 20.1634815,12.1575275 C19.7318058,11.2181761 19.2645168,10.2957118 18.7616146,9.39013474 C18.5058467,8.93734622 18.2371286,8.4908904 17.9619353,8.05076729 C17.8227199,7.83228891 17.6802669,7.61381054 17.5345763,7.39849851 C17.4633498,7.2908425 17.3921233,7.18318649 17.3176593,7.08186318 C17.2431952,6.98053987 17.1687312,6.86971751 17.0942671,6.76522785 L17.0942671,6.76522785 C17.0144209,6.65991219 16.9833369,6.52669943 17.0085619,6.397933 C17.033787,6.26916658 17.1130141,6.15662333 17.2270074,6.08762824 C17.4633426,5.93432034 17.780807,5.98699127 17.9522226,6.20794967 L17.9425099,6.27444309 Z" id="Path" fill="#616C3E"></path>
                    <path d="M23.7055937,29.3817503 L23.7055937,29.3817503 C23.6678897,29.3786397 23.630478,29.3722706 23.5937193,29.3627045 L23.4524043,29.31509 C23.3576532,29.276712 23.2668767,29.2277742 23.1815505,29.1690721 C23.1427326,29.1417465 23.1053813,29.1120721 23.0696762,29.0801916 L23.0314033,29.0357514 L23.0314033,29.0357514 L23.0314033,29.0357514 L23.013739,29.0135312 C23.013739,28.9627424 23.013739,28.9087793 23.013739,28.8548161 C23.0431796,28.3405791 23.0726202,27.8199936 23.0991168,27.299408 C23.1491658,26.2614111 23.1933268,25.2265886 23.2345437,24.1885917 L23.2934249,22.6300092 C23.2934249,22.3697164 23.3140334,22.1157723 23.3199215,21.8459566 C23.3258096,21.5761409 23.3199215,21.3190224 23.3199215,21.052381 C23.2955537,19.9951919 23.1971382,18.9414988 23.0255152,17.9002988 C22.6754123,15.8168802 22.1075119,13.7829366 21.3326791,11.8373813 C20.9401374,10.8618124 20.515211,9.90952167 20.0578999,8.98050918 C19.8253189,8.51071244 19.5839058,8.04726429 19.3277723,7.59016476 C19.2011776,7.36161499 19.0716389,7.13623952 18.939156,6.90768975 C18.8714426,6.79658917 18.8037291,6.68231429 18.7330716,6.57121371 C18.6624141,6.46011313 18.5976447,6.34901254 18.5210991,6.23156336 L18.5210991,6.23156336 C18.4069131,6.04844192 18.1985288,5.96212386 18,6.0157108 C18.1094982,6.04364856 18.2064092,6.11218495 18.2737978,6.20934324 L18.2737978,6.20934324 C18.3503435,6.32679243 18.4180569,6.43471871 18.4887144,6.54899359 L18.6918548,6.88546964 C18.8243376,7.11401941 18.9568204,7.33939487 19.0834151,7.56794464 C19.3366045,8.02504418 19.5799804,8.48849232 19.8135427,8.95828907 C20.2787046,9.89365016 20.7026497,10.8459409 21.0853778,11.8151612 C21.8602106,13.7607165 22.428111,15.7946601 22.7782139,17.8780786 C22.9498369,18.9192787 23.0482524,19.9729718 23.0726202,21.0301609 C23.0726202,21.2968023 23.0726202,21.5602694 23.0726202,21.8237364 C23.0726202,22.0872035 23.0549558,22.3474963 23.0461237,22.6077891 L22.9754661,24.1695459 C22.9342493,25.2075427 22.8900883,26.2423653 22.8370952,27.2803622 C22.8105986,27.8009478 22.781158,28.3215333 22.7546614,28.8357703 L22.7546614,28.9944854 L22.7723258,29.0167055 L22.7723258,29.0167055 L22.7723258,29.0167055 C22.7853151,29.0323058 22.799074,29.0471407 22.8135427,29.0611458 C22.8476702,29.0937603 22.8840892,29.123476 22.922473,29.1500262 C23.0087956,29.2088046 23.1005555,29.2577406 23.1962709,29.2960442 L23.3346418,29.3436587 C23.3723463,29.3534964 23.4107568,29.3598678 23.4494603,29.3627045 L23.4494603,29.3627045 C23.6120564,29.3390374 23.7616609,29.4619698 23.7836114,29.6372817 C23.8055619,29.8125935 23.691546,29.9738979 23.52895,29.997565 C23.579936,30.0008117 23.6310552,30.0008117 23.6820412,29.997565 C23.8499911,30.0012706 23.9905266,29.8609688 24,29.6801347 C23.9906438,29.5123018 23.861534,29.3814474 23.7055937,29.3817503 Z" id="Path" fill="#ADAFB1" style="mix-blend-mode: multiply;"></path>
                    <polygon id="Path" fill="#616C3E" points="19 7 8 7 8 1 16.3579379 1.29564315"></polygon>
                    <polygon id="Path" fill="#ADAFB1" style="mix-blend-mode: multiply;" points="15 1 17.7032967 7 18 7 15.2967033 1"></polygon>
                    <path d="M15.9995279,2.31090175 C16.0149318,2.67763305 15.6514794,2.98540481 15.1857612,3 L6.1727815,3 C5.72486786,3 5,2.69044415 5,2.31090175 L5,1.68640646 C5,1.30686406 5.7419638,1 6.1727815,1 L15.110539,1 C15.5757223,1.01315267 15.9396821,1.32015014 15.9243058,1.68640646 L15.9995279,2.31090175 Z" id="Path" fill="#616C3E"></path>
                    <path d="M6.10410095,1.80333333 L6.10410095,1.03 C6.10410095,0.56 6.77287066,0.18 7.18611987,0.18 L15.4321767,0.18 C15.6545781,0.181255478 15.8640353,0.290689091 16,0.476666667 C15.8838084,0.19234513 15.6211102,0.00598566845 15.3280757,0 L7.08201893,0 C6.68454259,0 6,0.38 6,0.85 L6,1.62333333 C6.00513442,1.76297072 6.05648942,1.89627416 6.14511041,2 C6.11920583,1.93797625 6.10526426,1.87111747 6.10410095,1.80333333 L6.10410095,1.80333333 Z" id="Path" fill="#616C3E" style="mix-blend-mode: screen;"></path>
                    <path d="M13,3 L13,7 L14,7 L14,3.12466607 L13.5882353,3.12466607 C13.3852064,3.14633504 13.1807859,3.10301172 13,3 L13,3 Z" id="Path" fill="#ADAFB1"></path>
                    <rect id="Rectangle" fill="#616C3E" x="8" y="1" width="1" height="6"></rect>
                    <path d="M8,2.09621552 L8,7 L9,7 L9,2 C8.66500187,2.0150271 8.33115922,2.04714794 8,2.09621552 Z" id="Path" fill="#616C3E" style="mix-blend-mode: screen;"></path>
                    <polygon id="Path" fill="#4B562F" points="5 10 3.0667237 10.1116928 1 14.052356 1.84858854 16"></polygon>
                    <polygon id="Path" fill="#4B562F" points="5 33 2.9412844 32.7667606 1 28.8219718 2.04587156 27"></polygon>
                    <polygon id="Path" fill="#4B562F" points="2 26 0.482248521 25.4921875 0 22.2109375 1.26923077 21"></polygon>
                    <polygon id="Path" fill="#4B562F" points="2 16 0.482248521 16.504886 0 19.7915309 1.26923077 21"></polygon>
                    <polygon id="Path" fill="#687342" points="1.09238666 14 3.16253208 10.2209205 4.93156544 10.1238494 5 10 3.0667237 10.107113 1 13.8861925"></polygon>
                    <polygon id="Path" fill="#687342" points="2.56353591 26.1616872 2.52486188 26 2 27.8945518 2.97421731 31.9964851 3 32 2.05156538 28.0140598"></polygon>
                    <polygon id="Path" fill="#687342" points="1 21.14708 0.981693364 21 0 22.072819 0.372997712 24.9798125 0.425629291 25 0.0640732265 22.1679885"></polygon>
                    <polygon id="Path" fill="#687342" points="0.565088757 15.6358284 1.97928994 15.1480235 2 15 0.482248521 15.5214466 0 18.9158957 0.0857988166 19"></polygon>
                    <path d="M15.9986206,30 C16.0352381,31.2715008 15.3395064,32.698145 14.3050633,34 L6.67642687,33.9629005 C5.65418958,32.6846543 4.9676123,31.2647555 5.0011783,30.0303541 L15.9986206,30 Z" id="Path" fill="#4D5830"></path>
                    <path d="M14.9987333,11 C15.0305055,9.72727273 14.4617822,8.30639731 13.6102859,7 L7.37339321,7.04377104 C6.5346058,8.31649832 5.9754142,9.73737374 6.000832,10.96633 L14.9987333,11 Z" id="Path" fill="#616C3E"></path>
                    <polygon id="Path" fill="#4B562F" points="15 10 16.9298546 10.1116928 19 14.052356 18.1479897 16"></polygon>
                    <polygon id="Path" fill="#4B562F" points="16 33 18.0587156 32.7667606 20 28.8219718 18.9577982 27"></polygon>
                    <polygon id="Path" fill="#4B562F" points="19 26 20.5184638 25.4921875 21 22.2109375 19.732644 21"></polygon>
                    <polygon id="Path" fill="#4B562F" points="19 16 20.5184638 16.504886 21 19.7915309 19.732644 21"></polygon>
                    <path d="M16.6871202,33 L5.57076252,33 C2.43140641,29.4352276 1.70002631,24.8750337 2.09980611,20.3116079 C2.32293902,15.751414 3.12249862,12.5744681 6.04491996,9 L15.8875606,9 C18.8440717,12.5550768 19.7923866,15.7417183 19.9163493,20.3116079 C20.2262561,24.8685699 19.7861884,29.4319957 16.6871202,33 Z" id="Path" fill="#616C3E"></path>
                    <path d="M7,25 C5.87828627,24.9808917 4.76046738,24.9808917 3.64654333,25 C3.42843233,23.6730361 3.21291788,22.3460722 3,21.0191083 C4.29827978,20.9936306 5.59655956,20.9936306 6.89483934,21.0191083 C6.93638429,22.3460722 6.97143784,23.6730361 7,25 Z" id="Path" fill="#616C3E"></path>
                    <path d="M6.43594836,25.1087516 C5.28666005,25.0937366 4.14134393,25.0937366 3,25.1087516 C3.05163853,25.4047619 3.10327706,25.7039897 3.15888779,26 C4.43396226,25.97426 5.71698113,25.97426 7,26 C7,24.3333333 6.98146309,22.6666667 6.94438928,21 L6.29294935,21 C6.34591195,22.3685114 6.39357829,23.7380952 6.43594836,25.1087516 Z" id="Path" fill="#B1B3B5"></path>
                    <path d="M3.67123288,21.8981748 C4.60273973,21.8810972 5.53652968,21.8810972 6.47260274,21.8981748 C6.64383562,21.6067883 6.81506849,21.3154019 7,21.0240154 C5.66438356,20.9919949 4.33105023,20.9919949 3,21.0240154 C3.23972603,22.6826769 3.48515982,24.3413385 3.73630137,26 C3.84246575,25.7054115 3.95890411,25.4076209 4.07876712,25.1130323 C3.93493151,24.0403458 3.80479452,22.9708614 3.67123288,21.8981748 Z" id="Path" fill="#8A995B"></path>
                    <path d="M3.44634146,25 C3.29634146,23.6876228 3.14634146,22.3713163 3,21.0707269 L3,21.0707269 L3,21.0707269 C3.99756098,21.0497708 4.99756098,21.0497708 6,21.0707269 L6,21.0707269 L5.81341463,21.0707269 L5.62682927,21.0707269 L5.26097561,21.0982318 C5.01707317,21.0982318 4.77317073,21.1100196 4.52926829,21.1335953 L4.16341463,21.1335953 L3.79756098,21.1335953 C3.54878049,21.1335953 3.30365854,21.1335953 3.06585366,21.1335953 C3.09118061,21.0903977 3.11438313,21.0458049 3.13536585,21 C3.16829268,21.3300589 3.20487805,21.6601179 3.23414634,21.9862475 C3.23414634,22.151277 3.26707317,22.3163065 3.28536585,22.481336 L3.29634146,23.0275049 C3.32560976,23.3575639 3.35853659,23.6876228 3.38414634,24.0137525 C3.4097561,24.3398821 3.44268293,24.6738703 3.46463415,25 L3.44634146,25 Z" id="Path" fill="#8A995B"></path>
                    <path d="M15,25 C16.1239024,24.9809221 17.24,24.9809221 18.36,25 C18.5785366,23.6709062 18.7918699,22.3439322 19,21.0190779 C17.7043902,20.9936407 16.4009756,20.9936407 15.097561,21.0190779 C15.055935,22.3481717 15.0234146,23.6751457 15,25 Z" id="Path" fill="#616C3E"></path>
                    <path d="M14.5640516,25.1087516 C15.71334,25.0937366 16.8586561,25.0937366 18,25.1087516 C17.9483615,25.4047619 17.8967229,25.7039897 17.8411122,26 C16.5620655,25.97426 15.2816948,25.97426 14,26 C14,24.3333333 14.0185369,22.6666667 14.0556107,21 L14.7030785,21 C14.6554121,22.3685114 14.6090698,23.7380952 14.5640516,25.1087516 Z" id="Path" fill="#B1B3B5"></path>
                    <path d="M18.3287671,21.8981748 C17.3972603,21.8810972 16.4634703,21.8810972 15.5273973,21.8981748 C15.3561644,21.6067883 15.1849315,21.3154019 15,21.0240154 C16.3356164,20.9919949 17.6689498,20.9919949 19,21.0240154 C18.7716895,22.6826769 18.5262557,24.3413385 18.2636986,26 C18.1541096,25.7054115 18.0410959,25.4076209 17.9212329,25.1130323 C18.0616438,24.0403458 18.1986301,22.9708614 18.3287671,21.8981748 Z" id="Path" fill="#8A995B"></path>
                    <path d="M17.5536585,25 C17.7036585,23.6876228 17.8536585,22.3713163 18,21.0707269 L18,21.0707269 L18,21.0707269 C17,21.0497708 16,21.0497708 15,21.0707269 L15,21.0707269 L15.1865854,21.0707269 L15.3731707,21.0707269 L15.7390244,21.0982318 C15.9829268,21.0982318 16.2268293,21.1100196 16.4707317,21.1335953 L16.8365854,21.1335953 L17.202439,21.1335953 C17.447561,21.1335953 17.6963415,21.1335953 17.9341463,21.1335953 L17.8682927,21 C17.8317073,21.3300589 17.7987805,21.6601179 17.7658537,21.9862475 C17.7658537,22.151277 17.7365854,22.3163065 17.7182927,22.481336 L17.6743902,22.9724951 C17.645122,23.302554 17.6121951,23.632613 17.5865854,23.9587426 C17.5609756,24.2848723 17.5280488,24.6188605 17.5060976,24.9449902 L17.5536585,25 Z" id="Path" fill="#8A995B"></path>
                    <path d="M7,16 C5.87828627,16.0190931 4.76046738,16.0190931 3.64654333,16 C3.42843233,17.3280297 3.21291788,18.6549987 3,19.9809069 C4.29827978,20.0063644 5.59655956,20.0063644 6.89483934,19.9809069 C6.93638429,18.6528772 6.97143784,17.3259082 7,16 Z" id="Path" fill="#616C3E"></path>
                    <path d="M6.43594836,16.8912484 C5.28666005,16.9084084 4.14134393,16.9084084 3,16.8912484 C3.05163853,16.5952381 3.10327706,16.2960103 3.15888779,16 C4.43396226,16.02574 5.71698113,16.02574 7,16 C6.97616683,17.6602317 6.96425025,19.3268983 6.96425025,21 L6.31281033,21 C6.35253227,19.6314886 6.39357829,18.2619048 6.43594836,16.8912484 Z" id="Path" fill="#B1B3B5"></path>
                    <path d="M3.67123288,20.1018252 C4.60273973,20.1167681 5.53652968,20.1167681 6.47260274,20.1018252 C6.64383562,20.3932117 6.81506849,20.6845981 7,20.9759846 C5.66438356,21.0080051 4.33105023,21.0080051 3,20.9759846 C3.23972603,19.3173231 3.48515982,17.6586615 3.73630137,16 C3.84246575,16.2945885 3.95890411,16.5923791 4.07876712,16.8869677 C3.93493151,17.9596542 3.80479452,19.0291386 3.67123288,20.1018252 Z" id="Path" fill="#8A995B"></path>
                    <path d="M3.44634146,16 C3.29634146,17.3137255 3.14634146,18.6235294 3,19.9215686 L3,19.9215686 L3,19.9215686 C3.99878049,19.9215686 4.99756098,19.9215686 6,19.9215686 L6,19.9215686 L5.81341463,19.9215686 L5.62682927,19.9215686 L5.26097561,19.8980392 L4.52926829,19.8627451 L4.16341463,19.8627451 L3.79756098,19.8627451 C3.54878049,19.8627451 3.30365854,19.8627451 3.06585366,19.8627451 L3.13536585,20 C3.16829268,19.6705882 3.20487805,19.3411765 3.23414634,19.0156863 C3.23414634,18.8509804 3.26707317,18.6862745 3.28536585,18.5215686 L3.29634146,17.9686275 C3.32560976,17.6431373 3.35853659,17.3137255 3.38414634,16.9843137 C3.4097561,16.654902 3.44268293,16.3294118 3.46463415,16.0039216 L3.44634146,16 Z" id="Path" fill="#8A995B"></path>
                    <path d="M14,16 C15.1239024,16.0190779 16.2439024,16.0190779 17.36,16 C17.5785366,17.3290938 17.7918699,18.6560678 18,19.9809221 C16.7043902,20.0063593 15.4009756,20.0063593 14.097561,19.9809221 C14.0637398,18.6518283 14.0312195,17.3248543 14,16 Z" id="Path" fill="#616C3E"></path>
                    <path d="M14.5640516,16.8912484 C15.71334,16.9084084 16.8586561,16.9084084 18,16.8912484 C17.9483615,16.5952381 17.8967229,16.2960103 17.8411122,16 C16.5620655,16.02574 15.2816948,16.02574 14,16 C14,17.6666667 14.0185369,19.3333333 14.0556107,21 L14.7070506,21 C14.6487918,19.6314886 14.6011255,18.2619048 14.5640516,16.8912484 Z" id="Path" fill="#B1B3B5"></path>
                    <path d="M18.3287671,20.1018252 C17.3972603,20.1167681 16.4634703,20.1167681 15.5273973,20.1018252 C15.3561644,20.3932117 15.1849315,20.6845981 15,20.9759846 C16.3356164,21.0080051 17.6689498,21.0080051 19,20.9759846 C18.7716895,19.3173231 18.5262557,17.6586615 18.2636986,16 C18.1575342,16.2945885 18.0410959,16.5923791 17.9212329,16.8869677 C18.0582192,17.9596542 18.1883562,19.0291386 18.3287671,20.1018252 Z" id="Path" fill="#8A995B"></path>
                    <path d="M17.5536585,16 C17.7036585,17.3137255 17.8536585,18.6235294 18,19.9215686 L18,19.9215686 L18,19.9215686 C17.0012195,19.9215686 16.002439,19.9215686 15,19.9215686 L15,19.9215686 L15.1865854,19.9215686 L15.3731707,19.9215686 L15.7390244,19.8980392 L16.4707317,19.8627451 L16.8365854,19.8627451 L17.202439,19.8627451 C17.4512195,19.8627451 17.6963415,19.8627451 17.9341463,19.8627451 L17.8682927,20 C17.8353659,19.6705882 17.7987805,19.3411765 17.7695122,19.0156863 C17.7695122,18.8509804 17.7365854,18.6862745 17.7182927,18.5215686 L17.6743902,18.027451 C17.645122,17.7019608 17.6121951,17.372549 17.5865854,17.0431373 C17.5609756,16.7137255 17.5280488,16.3882353 17.5060976,16.0627451 L17.5536585,16 Z" id="Path" fill="#8A995B"></path>
                    <path d="M7,32 C6.02857143,31.9785844 5.06071429,31.9785844 4.09642857,32 C3.72738095,30.342435 3.36190476,28.6837991 3,27.0240925 C4.11666667,26.9919692 5.23928571,26.9919692 6.36785714,27.0240925 C6.58452381,28.6730913 6.7952381,30.3317272 7,32 Z" id="Path" fill="#616C3E"></path>
                    <path d="M6.48780488,30.9303534 C5.65447154,30.9116424 4.82520325,30.9116424 4,30.9303534 C4.07012195,31.2858628 4.14329268,31.6444906 4.21646341,32 C5.14126016,31.968815 6.06910569,31.968815 7,32 C6.79674797,30.002079 6.59349593,28.002079 6.3902439,26 L5.91768293,26 C6.10670732,27.6444906 6.29674797,29.2879418 6.48780488,30.9303534 Z" id="Path" fill="#B1B3B5"></path>
                    <path d="M3.78545455,27.0801862 C4.72121212,27.059493 5.6569697,27.059493 6.59272727,27.0801862 C6.72363636,26.7294361 6.85818182,26.378686 7,26.0279359 C5.6569697,25.990688 4.32363636,25.990688 3,26.0279359 C3.47030303,28.0165546 3.94424242,30.0072426 4.42181818,32 C4.48727273,31.6461459 4.56363636,31.2891878 4.64727273,30.9353337 C4.35636364,29.6502845 4.06909091,28.3652354 3.78545455,27.0801862 Z" id="Path" fill="#8A995B"></path>
                    <path d="M3.91472868,32 C3.60981912,30.6794258 3.30490956,29.3588517 3,28.0382775 L3,28.0382775 C3.99741602,28.0212653 4.99741602,28.0212653 6,28.0382775 L6,28.0542265 L5.81782946,28.0733652 L5.63178295,28.0733652 L5.24418605,28.0988836 L4.51937984,28.1371611 L4.13178295,28.1371611 L3.74418605,28.1371611 C3.49612403,28.1371611 3.24806202,28.1371611 3,28.1371611 L3.0503876,28 L3.27131783,28.9920255 L3.37596899,29.4864434 L3.48062016,29.984051 L3.68992248,30.9728868 C3.75193798,31.291866 3.82170543,31.6331738 3.88372093,31.9649123 L3.91472868,32 Z" id="Path" fill="#8A995B"></path>
                    <path d="M7,10 C6.22272048,10.0154829 5.45022422,10.0154829 4.68251121,10 C4.16113602,11.3271056 3.60029895,12.6542113 3,13.9813169 C4.09775785,14.0045412 5.20269058,14.007859 6.31479821,13.9813169 C6.56113602,12.6564231 6.78953662,11.3293175 7,10 Z" id="Path" fill="#616C3E"></path>
                    <path d="M7.50125945,10.8908238 C6.66246851,10.9064523 5.82871537,10.9064523 5,10.8908238 C5.1209068,10.5961152 5.23803526,10.2980576 5.35516373,10 C6.23425693,10.0267917 7.11586902,10.0267917 8,10 C7.78463476,11.6744809 7.53148615,13.3489618 7.24433249,15 L6.66246851,15 C6.97481108,13.6313909 7.25440806,12.2616656 7.50125945,10.8908238 Z" id="Path" fill="#B1B3B5"></path>
                    <path d="M3.94181818,14.1006834 C4.83636364,14.1162416 5.73454545,14.1162416 6.63636364,14.1006834 C6.74545455,14.3940657 6.86545455,14.684114 7,14.9774962 C5.65818182,15.0075013 4.32363636,15.0075013 3,14.9774962 C3.79272727,13.3172195 4.52,11.6580541 5.18181818,10 C5.18181818,10.2967161 5.20727273,10.5934322 5.22909091,10.8868145 C4.82666667,11.9603267 4.39757576,13.0316164 3.94181818,14.1006834 Z" id="Path" fill="#8A995B"></path>
                    <path d="M4.9516129,11 C4.65322581,11.9837067 4.33870968,12.9643585 4,13.9450102 L4,13.9450102 C4.66397849,13.9450102 5.34408602,13.9450102 6,13.9450102 L6,13.9450102 L5.87903226,13.9450102 L5.75537634,13.9450102 C5.67473118,13.9450102 5.59408602,13.9297352 5.51075269,13.9266802 L5.02150538,13.8991853 L4.77688172,13.8991853 L4.53225806,13.8991853 L4.04032258,13.8991853 C4.04032258,13.9327902 4.05376344,13.9663951 4.05913978,14 C4.14247312,13.7525458 4.22580645,13.5081466 4.30376344,13.2637475 C4.34408602,13.1384929 4.3844086,13.0162933 4.42204301,12.8940937 L4.53494624,12.5274949 C4.60752688,12.2800407 4.6827957,12.0356415 4.75268817,11.7881874 C4.82258065,11.5407332 4.88978495,11.299389 4.9516129,11.0519348 L4.9516129,11 Z" id="Path" fill="#8A995B"></path>
                    <path d="M14,10 C14.7772795,10.0154829 15.5497758,10.0154829 16.3174888,10 C16.838864,11.3271056 17.399701,12.6542113 18,13.9813169 C16.9022422,14.0045412 15.7973094,14.007859 14.6852018,13.9813169 C14.4269058,12.6564231 14.1985052,11.3293175 14,10 Z" id="Path" fill="#616C3E"></path>
                    <path d="M13.514393,10.8908238 C14.3479349,10.9064523 15.1764706,10.9064523 16,10.8908238 C15.8798498,10.5961152 15.7634543,10.2980576 15.6470588,10 C14.7734668,10.0267917 13.8911139,10.0267917 13,10 C13.2102628,11.667783 13.4605757,13.3344497 13.7509387,15 L14.3291615,15 C14.0312891,13.6313909 13.7596996,12.2616656 13.514393,10.8908238 Z" id="Path" fill="#B1B3B5"></path>
                    <path d="M17.0581818,14.1006834 C16.1636364,14.1162416 15.2654545,14.1162416 14.3636364,14.1006834 C14.2545455,14.3940657 14.1345455,14.684114 14,14.9774962 C15.3418182,15.0075013 16.6763636,15.0075013 18,14.9774962 C17.2121212,13.3172195 16.4848485,11.6580541 15.8181818,10 C15.8181818,10.2967161 15.7927273,10.5934322 15.7672727,10.8868145 C16.1648485,11.9603267 16.5951515,13.0316164 17.0581818,14.1006834 Z" id="Path" fill="#8A995B"></path>
                    <path d="M16.0403226,11 C16.3396057,11.9837067 16.6594982,12.9653768 17,13.9450102 L17,13.9450102 L17,13.9450102 C16.3360215,13.9450102 15.655914,13.9450102 15,13.9450102 L15,13.9450102 L15.1209677,13.9450102 L15.2446237,13.9450102 C15.3252688,13.9450102 15.405914,13.9297352 15.4892473,13.9266802 L15.9784946,13.8991853 L16.2231183,13.8991853 L16.4677419,13.8991853 L16.9596774,13.8991853 C16.9596774,13.9327902 16.9462366,13.9663951 16.9408602,14 C16.8575269,13.7525458 16.7741935,13.5081466 16.6962366,13.2637475 C16.655914,13.1384929 16.6155914,13.0162933 16.577957,12.8940937 L16.4623656,12.4755601 C16.3897849,12.2281059 16.3145161,11.9837067 16.2446237,11.7362525 C16.1747312,11.4887984 16.1075269,11.2474542 16.0456989,11 L16.0403226,11 Z" id="Path" fill="#8A995B"></path>
                    <path d="M14,32 C14.9584665,31.9774121 15.9361022,31.9774121 16.9009585,32 C17.2673056,30.3414005 17.6336528,28.6828009 18,27.0242014 C16.8817891,26.9919329 15.7582535,26.9919329 14.629393,27.0242014 C14.4100106,28.6763472 14.200213,30.3349468 14,32 Z" id="Path" fill="#616C3E"></path>
                    <path d="M13.6836364,30.9290188 C14.7745455,30.9070981 15.8981818,30.9133612 17,30.9290188 C16.9018182,31.2860125 16.8072727,31.6430063 16.7127273,32 C15.4787879,31.9686848 14.2412121,31.9686848 13,32 C13.2690909,30 13.5442424,28 13.8254545,26 L14.4545455,26 C14.1927273,27.6430063 13.9357576,29.2860125 13.6836364,30.9290188 Z" id="Path" fill="#B1B3B5"></path>
                    <path d="M17.2103981,27.0815584 C16.278906,27.0587013 15.3430815,27.0587013 14.4029245,27.0815584 C14.2761982,26.7293506 14.1397238,26.3802597 14,26.0280519 C15.338749,25.9906494 16.6720823,25.9906494 18,26.0280519 C17.5320877,28.0207792 17.0587598,30.0114286 16.5800162,32 C16.511779,31.6446753 16.4370431,31.2893506 16.3525589,30.934026 C16.6417547,29.6498701 16.9244517,28.3657143 17.2103981,27.0815584 Z" id="Path" fill="#8A995B"></path>
                    <path d="M17.0809249,32 C17.3907514,30.6826029 17.6971098,29.3683931 18,28.0573705 L18,28.0573705 C17.0057803,28.0403718 16.0057803,28.0403718 15,28.0573705 L15,28.0573705 L15.183815,28.076494 L15.3676301,28.076494 L15.7387283,28.101992 L16.4809249,28.1370518 L16.8520231,28.1370518 L17.2231214,28.1370518 L17.9653179,28.1370518 L17.9132948,28 L17.6947977,28.9880478 C17.6601156,29.1505976 17.6254335,29.3067729 17.5872832,29.4788845 L17.483237,29.9729084 C17.417341,30.2916335 17.3445087,30.6294821 17.2786127,30.9577689 C17.2127168,31.2860558 17.1433526,31.6175299 17.0809249,31.9458167 L17.0809249,32 Z" id="Path" fill="#8A995B"></path>
                    <path d="M12.2261104,32 C11.1045312,31.9793346 9.97510094,31.9793346 8.83781965,32 L8,27.0247985 C9.66442351,26.9917338 11.3310902,26.9917338 13,27.0247985 C12.7442799,28.6821657 12.4863167,30.3405662 12.2261104,32 Z" id="Path" fill="#616C3E"></path>
                    <path d="M11.4889187,30.9298597 C10.3248265,30.9118236 9.16185359,30.9118236 8,30.9298597 C8.06715917,31.2875752 8.13767629,31.6422846 8.20483546,32 C9.42041639,31.9729459 10.6326394,31.9729459 11.8482203,32 C12.2310275,29.995992 12.6149541,27.997996 13,26.006012 L12.1873741,26 C11.9478397,27.6452906 11.7150213,29.2885772 11.4889187,30.9298597 Z" id="Path" fill="#B1B3B5"></path>
                    <path d="M8.9892716,27.0820654 C10.3308865,27.0621103 11.67476,27.0621103 13.0208922,27.0820654 C13.3258046,26.7288601 13.6544325,26.378648 14,26.0314293 C12.0011293,25.9895236 10.0011293,25.9895236 8,26.0314293 C8.38848108,28.0269394 8.77583286,30.016463 9.16205534,32 C9.26708075,31.6438014 9.38565782,31.2905962 9.52795031,30.9373909 L8.9892716,27.0820654 Z" id="Path" fill="#8A995B"></path>
                    <path d="M8.53936348,31 C8.35845896,29.6940848 8.17867113,28.3861386 8,27.0761615 L8,27.0761615 L8,27.0761615 C9.3400335,27.0538208 10.6733668,27.0538208 12,27.0761615 L11.7487437,27.0761615 L11.4974874,27.0761615 L10.9949749,27.1005331 L9.98994975,27.1340442 L9.49413735,27.1340442 L8.99832496,27.1340442 C8.66331658,27.1340442 8.32830821,27.1340442 8.01005025,27.1340442 L8.10050251,27 C8.14070352,27.3259711 8.18090452,27.6519421 8.21775544,27.9809596 C8.23785595,28.1424219 8.25795645,28.3069307 8.27470687,28.4714395 C8.29145729,28.6359482 8.31155779,28.7974105 8.32830821,28.9619193 C8.36180905,29.2878903 8.40201005,29.6169078 8.4321608,29.9428789 C8.46231156,30.26885 8.49916248,30.5978675 8.52931323,30.9238385 L8.53936348,31 Z" id="Path" fill="#8A995B"></path>
                    <rect id="Rectangle" fill="#616C3E" x="8" y="16" width="5" height="4"></rect>
                    <polygon id="Path" fill="#B1B3B5" style="mix-blend-mode: multiply;" points="13.1634446 20.1087516 8 20.1087516 8 21 14 21 14 16 13.1634446 16"></polygon>
                    <polygon id="Path" fill="#8A995B" points="8.8400703 16.8912484 13.1704745 16.8912484 14 16 8 16 8 21 8.8400703 20.1184041"></polygon>
                    <path d="M9.0192926,20 L9,16.0668633 L9,16 L9.03858521,16 C9.68167203,16 10.3569132,16 11.0192926,16 L13,16 L13,16.0471976 C12.6729578,16.1360384 12.3424057,16.2043024 12.0096463,16.2517207 L11.5144695,16.3225172 L11.0192926,16.3933137 C10.85209,16.3933137 10.6977492,16.3933137 10.5241158,16.4247788 C10.3504823,16.4562439 10.2025723,16.4483776 10.0289389,16.4483776 C9.7073955,16.4483776 9.36655949,16.4483776 9.03858521,16.4483776 L9.36012862,16.0550639 C9.36012862,16.3854474 9.36012862,16.7118977 9.33440514,17.0422812 L9.31511254,17.5339233 L9.27974277,18.0294985 C9.27974277,18.1907571 9.25723473,18.3559489 9.23794212,18.5211406 C9.21864952,18.6863324 9.20900322,18.8515241 9.18971061,19.0127827 C9.14790997,19.3431662 9.10610932,19.6735497 9.04501608,20 L9.0192926,20 Z" id="Path" fill="#8A995B"></path>
                    <rect id="Rectangle" fill="#616C3E" x="8" y="21" width="5" height="4"></rect>
                    <polygon id="Path" fill="#B1B3B5" style="mix-blend-mode: multiply;" points="13.1634446 25.1087516 8 25.1087516 8 26 14 26 14 21 13.1634446 21"></polygon>
                    <polygon id="Path" fill="#8A995B" points="8.8400703 21.8912484 13.1704745 21.8912484 14 21 8 21 8 26 8.8400703 25.1184041"></polygon>
                    <path d="M9.0192926,25 L9,21.0435213 L9,21 L9.03858521,21 C9.68167203,21 10.3569132,21 11.0192926,21 L13,21 L13,21.0474777 C12.673008,21.138134 12.3424572,21.2081235 12.0096463,21.2571711 L11.5144695,21.3244313 L11.0192926,21.3758655 L10.511254,21.4154303 C10.3440514,21.4154303 10.1897106,21.4154303 10.0160772,21.4154303 C9.69453376,21.4154303 9.35369775,21.4154303 9.02572347,21.4154303 L9.34726688,21.0197824 C9.34726688,21.3521266 9.34726688,21.6844708 9.32154341,22.0128586 L9.3022508,22.5113749 L9.26688103,23.0059347 C9.26688103,23.1721068 9.24437299,23.3382789 9.22508039,23.5004946 C9.20578778,23.6627102 9.19614148,23.8328388 9.17684887,23.9990109 C9.13504823,24.3273986 9.09324759,24.6597428 9.03215434,24.992087 L9.0192926,25 Z" id="Path" fill="#8A995B"></path>
                    <rect id="Rectangle" fill="#616C3E" x="8" y="10" width="5" height="4"></rect>
                    <polygon id="Path" fill="#B1B3B5" style="mix-blend-mode: multiply;" points="13.1634446 14.1093248 8 14.1093248 8 15 14 15 14 10 13.1634446 10"></polygon>
                    <polygon id="Path" fill="#8A995B" points="8.8400703 10.8906752 13.1704745 10.8906752 14 10 8 10 8 15 8.8400703 14.1189711"></polygon>
                    <path d="M9.0192926,13.9960474 L9,10.0434783 L9,10 L9.03858521,10 C9.68167203,10 10.3569132,10 11.0192926,10 L13,10 L13,10.0474308 C12.6784566,10.1422925 12.3376206,10.1976285 12.0096463,10.2529644 L11.5144695,10.3241107 L11.0192926,10.3754941 C10.85209,10.3754941 10.6977492,10.3754941 10.5241158,10.4071146 C10.3504823,10.4387352 10.2025723,10.43083 10.0289389,10.43083 C9.7073955,10.43083 9.36655949,10.43083 9.03858521,10.43083 L9.36012862,10.0355731 C9.36012862,10.3636364 9.36012862,10.6956522 9.33440514,11.027668 L9.31511254,11.5217391 L9.27974277,12.0197628 C9.27974277,12.1818182 9.25723473,12.3478261 9.23794212,12.513834 C9.21864952,12.6798419 9.20900322,12.8458498 9.18971061,13.0079051 C9.14790997,13.3399209 9.10610932,13.6719368 9.04501608,14 L9.0192926,13.9960474 Z" id="Path" fill="#8A995B"></path>
                    <path d="M12.9921475,9 L7.00623398,8.98156682 C6.96686074,8.29988667 7.11454949,7.62037215 7.43357803,7.01536098 L12.5957704,7 C12.8989595,7.6217902 13.035477,8.31061613 12.9921475,9 L12.9921475,9 Z" id="Path" fill="#616C3E"></path>
                    <path d="M13.0331979,9.47125 L7,9.4525 C7.00204164,9.62495619 7.01676982,9.79686585 7.04401499,9.96625 L13.9606567,10 C14.0930175,8.94975381 13.8887114,7.87858331 13.3884618,7 L12.5867602,7 C12.888264,7.77371295 13.040803,8.61809085 13.0331979,9.47125 L13.0331979,9.47125 Z" id="Path" fill="#B1B3B5"></path>
                    <path d="M8.15778524,7.53207547 L12.4091257,7.53207547 C12.6146107,7.37069239 12.8119572,7.19298408 13,7 L7.5728197,7.02641509 C7.10666163,7.89567059 6.91462555,8.95767594 7.03512411,10 C7.31283502,9.83396226 7.60827216,9.66415094 7.92143553,9.49056604 C7.90837979,8.82497547 7.98841756,8.16174969 8.15778524,7.53207547 L8.15778524,7.53207547 Z" id="Path" fill="#8A995B"></path>
                    <path d="M8.00022058,8.99038462 C7.99477482,8.6531265 8.09020518,8.31792111 8.28217535,8 L8.28217535,8 L9.4591726,8 L13,8 L13,8 C12.8098445,8.01153846 12.6164104,8.01730769 12.4229763,8.025 C12.2295422,8.03269231 12.029551,8.03653846 11.8328384,8.04038462 L11.2394219,8.05384615 L10.6460055,8.05384615 C10.4460143,8.05384615 10.2460231,8.05384615 10.046032,8.05384615 L9.45261552,8.05384615 L8.85592053,8.05384615 C8.65592935,8.05384615 8.45921672,8.05384615 8.26250409,8.05384615 L8.38381021,8.00192308 C8.27927854,8.16514012 8.19705543,8.33297754 8.13791942,8.50384615 C8.10513398,8.58846154 8.07890563,8.67115385 8.05923437,8.75384615 C8.05923437,8.79615385 8.0395631,8.83653846 8.03300601,8.87692308 L8.01333475,9 L8.00022058,8.99038462 Z" id="Path" fill="#8A995B"></path>
                    <path d="M19.6217304,20.2096344 L19.6217304,19.9138712 L21,18.7568195 L20.4466801,15.4839234 L18.8772636,15.0256529 C18.8269618,14.8533952 18.7733065,14.6811376 18.7129443,14.5088799 L19.360161,13.1048172 L17.3480885,9.43540337 L15.711603,9.34764945 C15.5707579,9.18189205 15.4265594,9.02263494 15.2756539,8.8471271 L14.6049631,8.8471271 C14.347059,7.82110797 13.8845383,6.85390059 13.2434608,6 L11,6.01625073 C12.3916834,9.86442252 13.2468142,15.093906 13.2468142,20.8531631 C13.2468142,25.8096344 12.6130114,30.3728381 11.5700872,34 L14.1522468,34 C14.4509126,33.6741822 14.7275878,33.330036 14.98055,32.969704 L16.1240778,32.969704 C16.4489378,32.6247608 16.7534678,32.2623359 17.0362173,31.8841555 L18.1361502,31.7541497 L19.9101274,27.9612304 L19.2796781,26.8041788 C19.397049,26.2679048 19.4875922,25.7218804 19.5546613,25.1791062 L20.4366197,24.9190946 L20.9798793,21.6429483 L19.6384977,20.5086477 L19.6217304,20.2096344 Z" id="Path" fill="#B7B9BB" style="mix-blend-mode: multiply;"></path>
                    <path d="M17.8205703,7 C17.7545438,7.0005839 17.6938909,6.96543239 17.6641158,6.90931921 L15.1676463,3.56735521 C14.8785456,3.54792519 14.0112435,3.49287346 13.5010658,3.49287346 C12.9228644,3.49287346 12.8208288,3.41191502 12.6065542,3.04274458 C12.5725423,2.98121618 12.5283269,2.91321109 12.4773092,2.83225266 C12.1950108,2.38536213 10.9705844,2.3303104 10.0658692,2.3303104 C7.64082455,2.3303104 7.37213096,2.82901433 7.34492148,2.8613977 C7.32477213,2.94590904 7.24161461,3.00286018 7.15105395,2.99416952 C7.05627779,2.98240477 6.98935525,2.89986058 7.00140183,2.8095843 C7.01840775,2.67357414 7.24628712,2 10.062468,2 C11.1916614,2 12.3990819,2.07772009 12.7834158,2.64766744 C12.8378348,2.73186421 12.878649,2.80634597 12.9194632,2.86787437 C13.0793189,3.14637137 13.0793189,3.14637137 13.5078681,3.14637137 C14.1404885,3.14637137 15.2526759,3.2273298 15.3002925,3.23056814 C15.3603658,3.23513225 15.4134157,3.26962677 15.439741,3.32124158 L17.980426,6.74740235 C18.0032042,6.79006156 18.0062419,6.83983833 17.9888062,6.88472229 C17.9713705,6.92960625 17.9350448,6.96552104 17.888594,6.98380097 C17.8674187,6.99382533 17.8442089,6.99934996 17.8205703,7 Z" id="Path" fill="#ADAFB1"></path>
                    <path d="M13,5.99235191 L11.4992359,6.00935191 L10.0015283,6.02035191 C9.50025471,6.02035191 8.99898115,6.03135191 8.50076414,6.02835191 C8.25012736,6.02835191 7.99949058,6.02635191 7.7488538,6.02235191 C7.50127356,6.02235191 7.25063678,6.01535191 7,6.00835191 L7,5.99935191 C7.24758023,5.99135191 7.49821701,5.98635191 7.7488538,5.98235191 L8.49770759,5.97335191 C8.99898115,5.96835191 9.50025471,5.97335191 9.99847173,5.97335191 L11.4992359,5.97835191 L13,5.98535191 L13,5.99235191 Z" id="Path" fill="#CFCF8C"></path>
                    <path d="M16,11 C14.3805865,11 12.9209693,9.90145423 12.3029026,8.21751221 C11.6848359,6.5335702 12.0302894,4.59652459 13.17791,3.31112382 C14.3255305,2.02572304 16.0488459,1.64562897 17.5429359,2.34837461 C19.037026,3.05112024 20.007046,4.69802527 19.9999615,6.51985911 C19.9902352,8.99737107 18.2022437,11 16,11 L16,11 Z M16.0000013,2.55437358 C14.0565156,2.55437358 12.4810091,4.32682783 12.4810091,6.51326096 C12.4810091,8.69969409 14.0565156,10.4721483 16.0000013,10.4721483 C17.9434871,10.4721483 19.5189935,8.69969409 19.5189935,6.51326096 C19.5157582,4.32940501 17.9411989,2.56096869 16.0000013,2.56097172 L16.0000013,2.55437358 Z" id="Shape" fill="#CACCCE"></path>
                    <g id="Group" style="mix-blend-mode: multiply;" transform="translate(13.000000, 2.000000)" fill="#6B6C6F">
                        <path d="M0.00174743742,4.14361346 C-0.0354583545,5.46999561 0.52346627,6.72755723 1.48692096,7.48520398 C0.0566361144,6.04435099 -0.160834274,3.60545605 0.986290014,1.87070959 C2.1334143,0.135963123 4.26362286,-0.317693174 5.89016833,0.826363358 C5.28554655,0.264076902 4.52007365,-0.0289988603 3.73774294,0.0022666339 C2.75594015,-0.011643263 1.80972374,0.417532047 1.10853911,1.19479443 C0.407354475,1.97205681 0.00903448542,3.03329859 0.00174743742,4.14361346 Z" id="Path"></path>
                        <path d="M6.19458277,0.363895576 C7.21936705,1.26611752 7.83218582,2.64062689 7.8642499,4.10884145 C7.89332608,5.34462557 7.47901611,6.5411378 6.71562843,7.42601878 C5.95224075,8.31089977 4.90473061,8.8088566 3.81154038,8.8065405 C2.88026201,8.80886802 1.96752559,8.51224387 1.17943162,7.95114896 C2.37368139,9.03921529 3.99810162,9.30275146 5.4146909,8.63825196 C6.83128017,7.97375246 7.81378957,6.48734706 7.97633226,4.76283097 C8.13887494,3.03831488 7.45549059,1.35111719 6.19458277,0.363895576 Z" id="Path"></path>
                    </g>
                    <g id="Group" style="mix-blend-mode: screen;" transform="translate(12.000000, 2.000000)" fill="#CACCCE">
                        <path d="M9,4.85357877 C8.99857487,3.32165156 8.16677288,1.91468256 6.83534294,1.19212392 C8.60952837,2.40893038 9.16078122,4.80670429 8.10030909,6.6943229 C7.03983696,8.5819415 4.72543057,9.32254467 2.78941452,8.39379339 C3.42836615,8.79138042 4.16354842,9.00123649 4.91310016,9 C7.16789648,8.99428255 8.99437002,7.1412108 9,4.85357877 Z" id="Path"></path>
                        <path d="M0.259428903,4.85357877 C0.261308875,2.2462284 2.34317667,0.132493528 4.91310016,0.128673931 C5.682139,0.127262024 6.43926775,0.321384793 7.11531436,0.693306987 C6.39635364,0.244353406 5.56953139,0.00467828296 4.72531445,0.000505691826 C2.56962302,-0.0313205277 0.674205631,1.44214798 0.143675208,3.562202 C-0.386855215,5.68225602 0.586209533,7.89460335 2.49578596,8.90993035 C1.10056936,8.0494701 0.251881767,6.51010265 0.259428903,4.85357877 L0.259428903,4.85357877 Z" id="Path"></path>
                    </g>
                    <path d="M15.6549296,3 C15.5472122,2.69043209 15.3211849,2.40602244 15,2.17590361 L15.2394366,2 C15.6158964,2.26058009 15.8792026,2.58759208 16,2.94457831 L15.6549296,3 Z" id="Path" fill="#CACCCE"></path>
                    <path d="M16.0188926,2.38333699 C16.0408926,2.65446388 16.0508926,2.92559076 16.0408926,2.98681296 C16.0308926,3.04803516 16.0038926,2.89060665 15.9808926,2.62822579 C15.9578926,2.36584494 15.9488926,2.08597203 15.9598926,2.0160038 C15.9708926,1.94603557 15.9988926,2.11221011 16.0188926,2.38333699 Z" id="Path" fill="#FFFFFF"></path>
                </g>
            </g>
        </g>
    </g>
</svg>