<?xml version="1.0" encoding="UTF-8"?>
<svg width="56px" height="56px" viewBox="0 0 56 56" version="1.1" xmlns="http://www.w3.org/2000/svg" xmlns:xlink="http://www.w3.org/1999/xlink">
    <title>icon/c1/camera</title>
    <defs>
        <polygon id="path-1" points="0 30 45 30 45 0 0 0"></polygon>
    </defs>
    <g id="element" stroke="none" stroke-width="1" fill="none" fill-rule="evenodd">
        <g id="plastic-item" transform="translate(-101.000000, -1751.000000)">
            <g id="icon/c1/camera" transform="translate(101.000000, 1751.000000)">
                <rect id="Rectangle-Copy-15" x="0" y="0" width="56" height="56"></rect>
                <g id="Group-22" transform="translate(6.000000, 13.000000)">
                    <polygon id="Fill-1" fill="#414042" points="0 30 45 30 45 5 0 5"></polygon>
                    <g id="Group-21">
                        <path d="M38.9295652,17.1625732 C38.9295652,23.3016161 33.8889535,28.2785324 27.6710507,28.2785324 C21.4531479,28.2785324 16.4125361,23.3016161 16.4125361,17.1625732 C16.4125361,11.0234014 21.4531479,6.04674274 27.6710507,6.04674274 C33.8889535,6.04674274 38.9295652,11.0234014 38.9295652,17.1625732" id="Fill-2" fill="#D1D3D4"></path>
                        <mask id="mask-2" fill="white">
                            <use xlink:href="#path-1"></use>
                        </mask>
                        <g id="Clip-5"></g>
                        <polygon id="Fill-4" fill="#D1D3D4" mask="url(#mask-2)" points="0 9.18749919 45 9.18749919 45 4.32537825 0 4.32537825"></polygon>
                        <polygon id="Fill-6" fill="#D1D3D4" mask="url(#mask-2)" points="0 30 45 30 45 25.1378791 0 25.1378791"></polygon>
                        <path d="M37.2654248,17.1625732 C37.2654248,22.394204 32.9699174,26.6355793 27.6710637,26.6355793 C22.37221,26.6355793 18.0767027,22.394204 18.0767027,17.1625732 C18.0767027,11.9309424 22.37221,7.68982474 27.6710637,7.68982474 C32.9699174,7.68982474 37.2654248,11.9309424 37.2654248,17.1625732" id="Fill-7" fill="#22363F" mask="url(#mask-2)"></path>
                        <path d="M34.6028444,17.1625732 C34.6028444,20.9425765 31.4992432,24.0067512 27.6710246,24.0067512 C23.8429365,24.0067512 20.7393352,20.9425765 20.7393352,17.1625732 C20.7393352,13.3828275 23.8429365,10.3187817 27.6710246,10.3187817 C31.4992432,10.3187817 34.6028444,13.3828275 34.6028444,17.1625732" id="Fill-8" fill="#4E7387" mask="url(#mask-2)"></path>
                        <path d="M34.6028444,17.1625732 C34.6028444,20.9425765 31.4992432,24.0067512 27.6710246,24.0067512 C23.8429365,24.0067512 20.7393352,20.9425765 20.7393352,17.1625732 C20.7393352,13.3828275 23.8429365,10.3187817 27.6710246,10.3187817 C31.4992432,10.3187817 34.6028444,13.3828275 34.6028444,17.1625732 Z" id="Stroke-9" stroke="#578CA3" stroke-width="5" mask="url(#mask-2)"></path>
                        <path d="M31.4376644,17.1625732 C31.4376644,19.2162646 29.7511969,20.8816357 27.6710376,20.8816357 C25.5907479,20.8816357 23.9045414,19.2162646 23.9045414,17.1625732 C23.9045414,15.1087529 25.5907479,13.4437683 27.6710376,13.4437683 C29.7511969,13.4437683 31.4376644,15.1087529 31.4376644,17.1625732" id="Fill-10" fill="#204856" mask="url(#mask-2)"></path>
                        <path d="M30.0509481,17.1625732 C30.0509481,18.460367 28.9853574,19.5124652 27.6710507,19.5124652 C26.3568744,19.5124652 25.2911533,18.460367 25.2911533,17.1625732 C25.2911533,15.8649082 26.3568744,14.8130677 27.6710507,14.8130677 C28.9853574,14.8130677 30.0509481,15.8649082 30.0509481,17.1625732" id="Fill-11" fill="#092830" mask="url(#mask-2)"></path>
                        <path d="M36.2190685,6.49858063 C36.2190685,6.95222226 35.8321623,7.3200572 35.3550867,7.3200572 L20.4952777,7.3200572 C20.0182021,7.3200572 19.6314263,6.95222226 19.6314263,6.49858063 L19.6314263,0.821553883 C19.6314263,0.368041091 20.0182021,7.73033167e-05 20.4952777,7.73033167e-05 L35.3550867,7.73033167e-05 C35.8321623,7.73033167e-05 36.2190685,0.368041091 36.2190685,0.821553883 L36.2190685,6.49858063 Z" id="Fill-12" fill="#D1D3D4" mask="url(#mask-2)"></path>
                        <path d="M26.2429948,15.6769065 C26.2429948,16.0826201 25.9099814,16.4118034 25.4988038,16.4118034 C25.0877567,16.4118034 24.7550043,16.0826201 24.7550043,15.6769065 C24.7550043,15.2711929 25.0877567,14.9423961 25.4988038,14.9423961 C25.9099814,14.9423961 26.2429948,15.2711929 26.2429948,15.6769065" id="Fill-14" fill="#FFFFFF" mask="url(#mask-2)"></path>
                        <path d="M34.8949227,4.09411249 C34.8949227,4.54775412 34.522501,4.91546023 34.0627807,4.91546023 L27.0751107,4.91546023 C26.6157819,4.91546023 26.2429687,4.54775412 26.2429687,4.09411249 L26.2429687,1.62955392 C26.2429687,1.17578345 26.6157819,0.80781966 27.0751107,0.80781966 L34.0627807,0.80781966 C34.522501,0.80781966 34.8949227,1.17578345 34.8949227,1.62955392 L34.8949227,4.09411249 Z" id="Fill-15" fill="#4E7387" mask="url(#mask-2)"></path>
                        <path d="M24.7549652,2.39618379 C24.7549652,2.84982542 24.382413,3.21766037 23.9228232,3.21766037 L22.460409,3.21766037 C22.0009497,3.21766037 21.628267,2.84982542 21.628267,2.39618379 L21.628267,1.95813166 C21.628267,1.5043612 22.0009497,1.13652625 22.460409,1.13652625 L23.9228232,1.13652625 C24.382413,1.13652625 24.7549652,1.5043612 24.7549652,1.95813166 L24.7549652,2.39618379 Z" id="Fill-16" fill="#22363F" mask="url(#mask-2)"></path>
                        <path d="M24.4869755,4.38155199 C24.4869755,4.69913979 24.2259933,4.95668867 23.9044631,4.95668867 C23.5828024,4.95668867 23.3219506,4.69913979 23.3219506,4.38155199 C23.3219506,4.0639642 23.5828024,3.80641532 23.9044631,3.80641532 C24.2259933,3.80641532 24.4869755,4.0639642 24.4869755,4.38155199" id="Fill-17" fill="#BE1E2D" mask="url(#mask-2)"></path>
                        <polygon id="Fill-18" fill="#939598" mask="url(#mask-2)" points="3.91342928 4.32537825 9.44403525 4.32537825 9.44403525 2.86163995 3.91342928 2.86163995"></polygon>
                        <polygon id="Fill-19" fill="#939598" mask="url(#mask-2)" points="41.3761306 29.9725573 45 29.9725573 45 4.32537825 41.3761306 4.32537825"></polygon>
                        <polygon id="Fill-20" fill="#939598" mask="url(#mask-2)" points="0 29.9725573 1.81186947 29.9725573 1.81186947 4.32537825 0 4.32537825"></polygon>
                    </g>
                </g>
            </g>
        </g>
    </g>
</svg>