<?xml version="1.0" encoding="UTF-8"?>
<svg width="56px" height="56px" viewBox="0 0 56 56" version="1.1" xmlns="http://www.w3.org/2000/svg" xmlns:xlink="http://www.w3.org/1999/xlink">
    <title>icon/c1/container</title>
    <g id="element" stroke="none" stroke-width="1" fill="none" fill-rule="evenodd">
        <g id="plastic-item" transform="translate(-231.000000, -1751.000000)">
            <g id="icon/c1/container" transform="translate(231.000000, 1751.000000)">
                <rect id="Rectangle-Copy-16" x="0" y="0" width="56" height="56"></rect>
                <g id="container" transform="translate(5.000000, 16.000000)" fill-rule="nonzero">
                    <path d="M41.0624286,23.7530225 C29.3336667,24.0823258 17.6151429,24.0823258 5.90685714,23.7530225 L2,2 L45,2 L41.0624286,23.7530225 Z" id="Path" fill="#BFCFD6"></path>
                    <path d="M40.2727273,22.9845741 C34.5285586,23.1382071 28.1161782,21.4789712 22.37814,21.4789712 C16.9404904,21.4789712 12.1710526,23.1382071 6.72727273,22.9907194 C5.48076156,16.3250978 4.23833732,9.6615247 3,3 L44,3 C42.7534888,9.6615247 41.5110646,16.3230494 40.2727273,22.9845741 Z" id="Path" fill="#D0DEE2"></path>
                    <path d="M42.2164304,0.000169644657 L2.80859049,0.000169644657 C1.51918259,-0.0135081347 0.375096536,0.801127542 0,2 L45,2 C44.6275374,0.809800347 43.4966065,-0.00270667939 42.2164304,0.000169644657 Z" id="Path" fill="#C4D14A"></path>
                    <path d="M1.13064125,2 C1.04247414,2.29418161 0.998397658,2.60140807 1,2.910299 L1,4 L46,4 L46,2.910299 C46.0016023,2.60140807 45.9575259,2.29418161 45.8693587,2 L1.13064125,2 Z" id="Path" fill="#B4C737"></path>
                    <path d="M2.00053706,4.46 L2.00053706,3 L45,3 L44.4874319,5 C44.4874319,5 1.82551381,4.28 2.00053706,4.46 Z" id="Path" fill="#BFCFD6" style="mix-blend-mode: multiply;"></path>
                    <g id="Group" opacity="0.57" transform="translate(14.000000, 5.000000)">
                        <path d="M20.873076,8.45156369 C20.873076,12.4957541 17.5552555,15.7742182 13.4625165,15.7742182 C9.36200688,15.7742182 6.05195695,11.4416476 6.05195695,7.39588101 C6.05195695,3.35011442 9.35583141,1.56216629 13.5242712,2.17238749 C17.575377,2.7826087 20.873076,4.4057971 20.873076,8.45156369 Z" id="Path" fill="#B4C737"></path>
                        <path d="M13.3575336,3.30739893 C13.4131128,2.95347063 14.0306594,2.7826087 14.8087681,2.7826087 C14.66664,2.7388176 14.5223615,2.7021575 14.3764855,2.67276888 C13.2093224,2.43478261 12.184195,2.62395118 12.0853875,3.09382151 C11.98658,3.56369184 12.7832152,3.70404272 13.9380274,3.91151793 C14.5926268,4.04576659 13.2587261,3.78337147 13.3575336,3.30739893 Z" id="Path" fill="#7E9D40"></path>
                        <path d="M16.3094064,3.96643783 C16.395863,3.55148741 15.747439,3.06331045 14.8087681,2.78871091 C14.0306594,2.78871091 13.4316392,2.95347063 13.3575336,3.30739893 C13.2587261,3.78337147 14.0553613,3.91762014 15.2101734,4.12509535 C15.3583846,4.15560641 15.562175,3.8504958 15.7042107,3.88100686 C16.0809142,3.8993135 16.2661782,4.17391304 16.3094064,3.96643783 Z" id="Path" fill="#7E9D40" opacity="0.64"></path>
                        <path d="M17.9891333,3.5942029 C18.0523853,3.96517342 18.0833758,4.34081441 18.0817653,4.71700992 C18.0817653,8.7612003 14.7639447,12.0396644 10.6712057,12.0396644 C9.26088864,12.0156634 7.89787436,11.5331151 6.79301291,10.6666667 C7.95400057,13.5225019 10.5476964,15.8779558 13.5860258,15.8779558 C17.6787648,15.8779558 20.9965853,12.5994917 20.9965853,8.5553013 C21.0719646,6.46024299 19.8940279,4.51711653 17.9891333,3.5942029 Z" id="Path" fill="#7E9D40" opacity="0.19"></path>
                        <path d="M14.4567666,14.7734554 C11.8895798,14.7553425 9.4264078,13.7686635 7.57112166,12.0152555 C8.91737331,14.1632342 11.1158393,15.7498095 13.5922013,15.7498095 C15.2380253,15.7501776 16.8371435,15.2091482 18.1373445,14.2120519 C16.9473003,14.5863581 15.7056416,14.77575 14.4567666,14.7734554 Z" id="Path" fill="#7E9D40" opacity="0.19"></path>
                        <path d="M18.8042948,9.09839817 C17.9026767,13.1075515 14.648206,15.7681159 11.0046809,14.9870328 C7.3611558,14.2059497 5.44676126,10.4836003 6.34837934,6.47444699 C6.82295506,3.88406141 9.26243748,2.11097169 11.906299,2.43478261 C12.7091096,2.52021358 13.5613239,3.28299008 14.475293,3.48436308 C18.1496954,4.25934401 19.7120884,5.08924485 18.8042948,9.09839817 Z" id="Path" fill="#F9EEBB"></path>
                        <path d="M14.8211191,8.56750572 C14.8211191,10.5095944 14.0403659,12.3721402 12.6506164,13.7454043 C11.2608669,15.1186684 9.37596212,15.8901602 7.41055954,15.8901602 C3.31622539,15.8901602 0,11.5575896 0,7.51182304 C0,3.46605645 3.32240086,1.64759725 7.4908406,2.2761251 C11.5234201,2.89855072 14.8211191,4.52173913 14.8211191,8.56750572 Z" id="Path" fill="#B4C737"></path>
                        <path d="M7.30557661,3.42334096 C7.3796822,3.06941266 7.97252697,2.87414188 8.75681118,2.89855072 L8.32452854,2.79481312 C7.15736542,2.55072464 6.13223802,2.74599542 6.03343055,3.21586575 C5.93462309,3.68573608 6.73125824,3.78947368 7.88607044,4.03356217 C8.5344944,4.16170862 7.23764648,3.8993135 7.30557661,3.42334096 Z" id="Path" fill="#7E9D40"></path>
                        <path d="M10.251274,4.07627765 C10.3377306,3.66742944 9.69548206,3.17925248 8.75681118,2.89855072 C7.97252697,2.89855072 7.3796822,3.06941266 7.30557661,3.42334096 C7.20676915,3.8993135 8.0034043,4.00305111 9.15821649,4.24103738 C9.30025222,4.24103738 9.51021807,3.96643783 9.65225379,3.99694889 C10.0227818,4.00305111 10.2080458,4.28985507 10.251274,4.07627765 Z" id="Path" fill="#7E9D40" opacity="0.64"></path>
                        <path d="M9.35583141,0 C8.98530344,0 8.80003945,0.366132723 8.42333601,0.366132723 C8.33800909,0.655210781 8.39519077,0.967109461 8.57772266,1.20823799 C8.52926721,2.1558205 8.36546659,3.09418477 8.08986083,4.00305111 L8.515968,4.12509535 C8.82350363,3.19331048 9.01633201,2.22831239 9.09028636,1.25095347 C9.31697021,0.87469309 9.41040013,0.43455502 9.35583141,0 L9.35583141,0 Z" id="Path" fill="#A0853D"></path>
                        <path d="M11.9371763,3.71014493 C12.0004283,4.08111545 12.0314189,4.45675644 12.0298083,4.83295195 C12.0298083,8.87714233 8.7119878,12.1556064 4.61924878,12.1556064 C3.20915373,12.136082 1.84535013,11.6554001 0.741055954,10.7887109 C1.89586815,13.6445461 4.49573945,16 7.53406886,16 C11.6268079,16 14.9446284,12.7215359 14.9446284,8.67734554 C15.0208884,6.58051679 13.8430531,4.6351677 11.9371763,3.71014493 Z" id="Path" fill="#7E9D40" opacity="0.19"></path>
                        <path d="M8.39863414,14.8893974 C5.833338,14.870966 3.37220992,13.8842209 1.5191647,12.1311976 C2.86541635,14.2791762 5.05770688,15.8657617 7.54024433,15.8657617 C9.18458118,15.8684978 10.7825039,15.3271374 12.079212,14.3279939 C10.8892828,14.7027835 9.64754713,14.8921871 8.39863414,14.8893974 Z" id="Path" fill="#7E9D40" opacity="0.19"></path>
                        <path d="M6.07665882,6.80396644 C5.75553457,7.99389779 4.39693199,10.4652937 2.55664304,10.0015256 C0.716354088,9.53775744 0.839863414,6.44393593 1.16098766,5.25400458 C1.48211191,4.06407323 3.63117417,2.27002288 4.71188077,3.7467582 C5.72465724,5.09534706 6.39778307,5.61403509 6.07665882,6.80396644 Z" id="Path" fill="#D8E684" opacity="0.22"></path>
                    </g>
                    <polygon id="Path" fill="#EDDAC0" opacity="0.65" style="mix-blend-mode: soft-light;" points="19 22 8.27927928 22 5 5 19 5"></polygon>
                </g>
            </g>
        </g>
    </g>
</svg>