<?xml version="1.0" encoding="UTF-8"?>
<svg width="56px" height="56px" viewBox="0 0 56 56" version="1.1" xmlns="http://www.w3.org/2000/svg" xmlns:xlink="http://www.w3.org/1999/xlink">
    <title>icon/c1/plug</title>
    <defs>
        <polygon id="path-1" points="0 0 39.9999918 0 39.9999918 39.9996653 0 39.9996653"></polygon>
    </defs>
    <g id="element" stroke="none" stroke-width="1" fill="none" fill-rule="evenodd">
        <g id="plastic-item" transform="translate(-676.000000, -1751.000000)">
            <g id="icon/c1/plug" transform="translate(676.000000, 1751.000000)">
                <rect id="Rectangle-Copy-18" x="0" y="0" width="56" height="56"></rect>
                <g id="Group-50" transform="translate(8.000000, 8.000000)">
                    <g id="Group-3">
                        <mask id="mask-2" fill="white">
                            <use xlink:href="#path-1"></use>
                        </mask>
                        <g id="Clip-2"></g>
                        <path d="M39.9999918,1.54140537 L39.9999918,38.4583905 C39.9999918,39.3091434 39.311013,39.9996734 38.4584232,39.9996734 L1.54156049,39.9996734 C1.12681794,39.9996734 0.750814636,39.8361032 0.4731494,39.5695413 C0.182013195,39.2875899 -8.16422335e-06,38.8946866 -8.16422335e-06,38.4583905 L-8.16422335e-06,1.54140537 C-8.16422335e-06,0.690366727 0.690562668,0 1.54156049,0 L38.4584232,0 C38.8947193,0 39.2894595,0.181858075 39.5698597,0.473157564 C39.8364216,0.750659516 39.9999918,1.12666282 39.9999918,1.54140537" id="Fill-1" fill="#DADADA" mask="url(#mask-2)"></path>
                    </g>
                    <path d="M37.1077912,38.5355833 L2.89373549,38.5355833 C2.10450002,38.5355833 1.4649964,37.8954673 1.4649964,37.1065584 L1.4649964,2.89278844 C1.4649964,2.10387954 2.10450002,1.46437592 2.89373549,1.46437592 L37.1077912,1.46437592 C37.8967001,1.46437592 38.5362037,2.10387954 38.5362037,2.89278844 L38.5362037,37.1065584 C38.5362037,37.8954673 37.8967001,38.5355833 37.1077912,38.5355833" id="Fill-4" fill="#EDEDED"></path>
                    <path d="M37.9560663,3.42960245 L37.9560663,36.5700628 C37.9560663,37.3346832 37.3362384,37.9542252 36.5719447,37.9542252 L3.42964736,37.9542252 C3.07511596,37.9542252 2.75169025,37.8201687 2.50635534,37.601245 C2.2228935,37.3482358 2.04548493,36.9801926 2.04548493,36.5700628 L2.04548493,3.42960245 C2.04548493,2.66510458 2.66502702,2.04531756 3.42964736,2.04531756 L36.5719447,2.04531756 C37.0282023,2.04531756 37.4333927,2.26591488 37.6846058,2.6065671 C37.8558096,2.83606342 37.9560663,3.1213622 37.9560663,3.42960245" id="Fill-6" fill="#FFFFFF"></path>
                    <path d="M37.9560663,3.42960245 L37.9560663,36.5700628 C37.9560663,37.3346832 37.3362384,37.9542252 36.5719447,37.9542252 L3.42964736,37.9542252 C3.07511596,37.9542252 2.75169025,37.8201687 2.50635534,37.601245 C2.45561469,37.5320533 2.41242595,37.4589018 2.37536037,37.380811 C2.28910535,37.1990754 2.23824224,36.9970925 2.23824224,36.7824959 L2.23824224,3.64081091 C2.23824224,2.87635386 2.85778433,2.25656684 3.62240467,2.25656684 L36.7644162,2.25656684 C37.041959,2.25656684 37.3008465,2.33829072 37.518219,2.48002164 C37.5766748,2.51708721 37.6322732,2.56015349 37.6846058,2.6065671 C37.8558096,2.83606342 37.9560663,3.1213622 37.9560663,3.42960245" id="Fill-8" fill="#C6C6C6"></path>
                    <path d="M37.656925,3.08282298 L37.656925,36.2232425 C37.656925,36.9878629 37.037383,37.607405 36.2728034,37.607405 L3.13079188,37.607405 C2.85161626,37.607405 2.59276956,37.5240891 2.37535629,37.3808069 C2.28591722,37.2006225 2.23823816,36.9970884 2.23823816,36.7824918 L2.23823816,3.64080683 C2.23823816,2.87634978 2.85778025,2.25656276 3.62240059,2.25656276 L36.7644122,2.25656276 C37.0419957,2.25656276 37.3008424,2.33828664 37.5182557,2.48001755 C37.6076948,2.66191645 37.656925,2.86696092 37.656925,3.08282298" id="Fill-10" fill="#EDEDED"></path>
                    <path d="M30.6940957,31.5861269 L9.30746363,31.5861269 C8.81401797,31.5861269 8.41433842,31.1862841 8.41433842,30.693165 L8.41433842,9.30636963 C8.41433842,8.81320971 8.81401797,8.41353016 9.30746363,8.41353016 L30.6940957,8.41353016 C31.1872148,8.41353016 31.5868944,8.81320971 31.5868944,9.30636963 L31.5868944,30.693165 C31.5868944,31.1862841 31.1872148,31.5861269 30.6940957,31.5861269" id="Fill-12" fill="#EDEDED"></path>
                    <path d="M31.463039,8.85115702 C31.3307786,8.77245391 31.1733724,8.7283671 31.0096797,8.7283671 L9.62329253,8.7283671 C9.12898963,8.7283671 8.72914679,9.12820994 8.72914679,9.62251285 L8.72914679,31.0089 C8.72914679,31.1725927 8.77323359,31.3268557 8.85193671,31.4591161 C8.59064074,31.3048123 8.41433434,31.0183297 8.41433434,30.6940468 L8.41433434,9.30765957 C8.41433434,8.81339749 8.81417717,8.41355465 9.30843926,8.41355465 L30.6948673,8.41355465 C31.0222526,8.41355465 31.308776,8.58986106 31.463039,8.85115702" id="Fill-14" fill="#FFFFFF"></path>
                    <path d="M29.865472,19.8842395 C29.865472,20.3729091 29.8301209,20.8522306 29.7606433,21.3224899 C29.5742949,22.6248468 29.133182,23.8471535 28.4905351,24.9368732 C26.9198202,27.6037168 24.1407594,29.4763855 20.9051552,29.8016482 C20.7710986,29.8155273 20.6370421,29.8264266 20.499924,29.8339785 C20.3009618,29.8462656 20.098979,29.8525929 19.8969961,29.8525929 C19.6937477,29.8525929 19.4918057,29.8462656 19.2928435,29.8324273 C19.1572766,29.8264266 19.0217097,29.8155273 18.8892043,29.8016482 C15.6535593,29.4763855 12.8745394,27.6037168 11.3037428,24.9354853 C10.6624022,23.8456023 10.2218199,22.6248468 10.0351858,21.3224899 C9.96570822,20.8522306 9.93035713,20.3729091 9.93035713,19.8842395 C9.93035713,19.3956924 9.96570822,18.9162483 10.0351858,18.4461524 C10.2218199,17.1436322 10.6624022,15.9227542 11.3037428,14.8329528 C13.036191,11.8903626 16.2361991,9.91592687 19.8969961,9.91592687 C23.5581196,9.91592687 26.7580869,11.8903626 28.4905351,14.8314016 C29.133182,15.9213663 29.5742949,17.1436322 29.7606433,18.4461524 C29.8301209,18.9162483 29.865472,19.3956924 29.865472,19.8842395" id="Fill-18" fill="#B5B5B5"></path>
                    <path d="M29.865472,19.8850559 C29.865472,20.3730315 29.8308557,20.8515775 29.7615822,21.323837 C29.5758461,22.6272144 29.1350597,23.8487863 28.4896779,24.938057 C26.9186772,27.6046965 24.1418615,29.4779367 20.9054001,29.8021788 C20.7700373,29.8147926 20.6378177,29.8274063 20.4993117,29.8336519 C20.300921,29.8462656 20.0994688,29.8525929 19.8979758,29.8525929 C19.6933395,29.8525929 19.4918057,29.8462656 19.2934967,29.8336519 C19.1581339,29.8274063 19.0227302,29.8147926 18.8905106,29.8021788 C16.425405,29.5566398 14.2278818,28.4106686 12.6253673,26.701121 C14.1901223,28.215462 16.2490986,29.2197431 18.5347546,29.449566 C18.6669742,29.4621389 18.802337,29.4716094 18.9377407,29.4779367 C19.1392337,29.4936528 19.3407267,29.4999393 19.5422198,29.4999393 C19.743672,29.4999393 19.948349,29.4936528 20.1466988,29.4810391 C20.2820617,29.4716094 20.4174245,29.4621389 20.5527873,29.449566 C23.7861055,29.1221807 26.5660644,27.2489404 28.1370651,24.582301 C28.7793445,23.4929895 29.2200493,22.2714584 29.4058262,20.9680809 C29.4750996,20.4989647 29.5128592,20.0204187 29.5128592,19.5292999 C29.5128592,19.0413242 29.4750996,18.5627375 29.4058262,18.093662 C29.2200493,16.7902846 28.7793445,15.5687127 28.1370651,14.479442 C27.7592656,13.8340193 27.3090495,13.2358267 26.7990305,12.6974778 C27.4570261,13.3240003 28.0237048,14.0417988 28.4896779,14.832014 C29.1350597,15.9213663 29.5758461,17.1428974 29.7615822,18.4462748 C29.8308557,18.9185343 29.865472,19.3970803 29.865472,19.8850559" id="Fill-22" fill="#FFFFFF"></path>
                    <path d="M29.6146058,19.8842395 C29.6146058,20.3606219 29.580112,20.8279012 29.5123897,21.2862816 C29.3307766,22.5558591 28.9007261,23.7473867 28.2742852,24.8097154 C26.7430443,27.4094082 24.0339509,29.2349286 20.8797849,29.552027 C20.7490757,29.5655388 20.6184073,29.5761931 20.4847997,29.5835409 C20.2908586,29.5955015 20.0939376,29.6016655 19.8970165,29.6016655 C19.6989116,29.6016655 19.5019905,29.5955015 19.3080902,29.5820305 C19.1759115,29.5761931 19.0437327,29.5655388 18.9145747,29.552027 C15.7604086,29.2349286 13.0513152,27.4094082 11.5200743,24.8083275 C10.8948581,23.7458763 10.4653791,22.5558591 10.2834394,21.2862816 C10.2157172,20.8279012 10.1812233,20.3606219 10.1812233,19.8842395 C10.1812233,19.4079795 10.2157172,18.9406185 10.2834394,18.4823199 C10.4653791,17.212579 10.8948581,16.0224394 11.5200743,14.9601106 C13.2089255,12.0915699 16.3282712,10.1668135 19.8969348,10.1668135 C23.4659251,10.1668135 26.5853932,12.0915699 28.2742852,14.9586002 C28.9007261,16.0210923 29.3307766,17.212579 29.5123897,18.4823199 C29.580112,18.9406185 29.6146058,19.4079795 29.6146058,19.8842395" id="Fill-24" fill="#B5B5B5"></path>
                    <path d="M29.4974859,18.4846222 L28.7110671,18.4846222 C28.4620991,18.4846222 28.2610143,18.2834965 28.2610143,18.0345285 L28.2610143,14.9663726 C28.8867204,16.0272318 29.315832,17.2168816 29.4974859,18.4846222" id="Fill-26" fill="#F6F6F6"></path>
                    <path d="M29.4974859,21.2841793 C29.315832,22.5517566 28.8867204,23.7414064 28.2610143,24.8020615 L28.2610143,21.7342321 C28.2610143,21.4851416 28.4620991,21.2841793 28.7110671,21.2841793 L29.4974859,21.2841793 Z" id="Fill-28" fill="#F6F6F6"></path>
                    <path d="M11.5330432,14.9679075 L11.5330432,18.034553 C11.5330432,18.283521 11.3322441,18.4846058 11.0829495,18.4846058 L10.2983677,18.4846058 C10.4800216,17.2168652 10.9091332,16.0285625 11.5330432,14.9679075" id="Fill-30" fill="#F6F6F6"></path>
                    <path d="M11.5330432,21.7342443 L11.5330432,24.8007266 C10.9091332,23.7399083 10.4800216,22.5517688 10.2983677,21.2841915 L11.0829495,21.2841915 C11.3322441,21.2841915 11.5330432,21.485113 11.5330432,21.7342443" id="Fill-32" fill="#F6F6F6"></path>
                    <path d="M20.9060369,11.9457079 L20.9060369,10.2176684 C20.7717355,10.2036668 20.6376789,10.1930941 20.50052,10.1853789 C20.3015987,10.1729693 20.0999423,10.1668053 19.8979595,10.1668053 C19.6943845,10.1668053 19.4924017,10.1729693 19.2937661,10.1867668 C19.1579134,10.1930941 19.0223057,10.2036668 18.8898003,10.2176684 L18.8898003,11.9457079 C18.8898003,12.1166259 19.0269185,12.2539073 19.198163,12.2539073 L20.5976742,12.2539073 C20.7689596,12.2539073 20.9060369,12.1166259 20.9060369,11.9457079" id="Fill-34" fill="#2A2118"></path>
                    <path d="M20.5005363,13.5009557 L20.5005363,10.185383 C20.301615,10.1729734 20.0999587,10.1668094 19.897935,10.1668094 C19.6944009,10.1668094 19.492418,10.1729734 19.2937824,10.1867709 L19.2937824,13.5009557 C19.2937824,13.6703634 19.434003,13.8091552 19.6018594,13.8091552 L20.1921736,13.8091552 C20.3634182,13.8091552 20.5005363,13.6703634 20.5005363,13.5009557" id="Fill-36" fill="#B19325"></path>
                    <polygon id="Fill-38" fill="#FEF0A7" points="19.2944274 12.2539196 20.501467 12.2539196 20.501467 11.5818407 19.2944274 11.5818407"></polygon>
                    <path d="M18.8897963,27.8227915 L18.8897963,29.5507901 C19.0241385,29.5647918 19.1581951,29.5754053 19.2953132,29.5830796 C19.4942345,29.5955301 19.6959317,29.6016941 19.8979146,29.6016941 C20.1014486,29.6016941 20.3034315,29.5955301 20.5020671,29.5816917 C20.6379606,29.5754053 20.7735275,29.5647918 20.9060329,29.5507901 L20.9060329,27.8227915 C20.9060329,27.6518326 20.7689147,27.5145512 20.5976701,27.5145512 L19.198159,27.5145512 C19.0268736,27.5145512 18.8897963,27.6518326 18.8897963,27.8227915" id="Fill-40" fill="#2A2118"></path>
                    <path d="M19.2953132,26.2675232 L19.2953132,29.583096 C19.4942345,29.5955464 19.6958908,29.6016696 19.8979146,29.6016696 C20.1014486,29.6016696 20.3034315,29.5955464 20.5020671,29.5817081 L20.5020671,26.2675232 C20.5020671,26.0981156 20.3618465,25.9593238 20.1939901,25.9593238 L19.6036759,25.9593238 C19.4324314,25.9593238 19.2953132,26.0981156 19.2953132,26.2675232" id="Fill-41" fill="#B19325"></path>
                    <polygon id="Fill-42" fill="#FEF0A7" points="19.2943866 28.1866464 20.501467 28.1866464 20.501467 27.5145675 19.2943866 27.5145675"></polygon>
                    <path d="M16.4972134,19.8841823 C16.4972134,20.6289636 15.8933875,21.2329528 15.1484021,21.2329528 C14.4037841,21.2329528 13.7996316,20.6289636 13.7996316,19.8841823 C13.7996316,19.1391969 14.4037841,18.5355343 15.1484021,18.5355343 C15.8933875,18.5355343 16.4972134,19.1391969 16.4972134,19.8841823" id="Fill-43" fill="#1D1D1B"></path>
                    <path d="M25.9962383,19.8841823 C25.9962383,20.6289636 25.3923716,21.2329528 24.647427,21.2329528 C23.9027682,21.2329528 23.2986157,20.6289636 23.2986157,19.8841823 C23.2986157,19.1391969 23.9027682,18.5355343 24.647427,18.5355343 C25.3923716,18.5355343 25.9962383,19.1391969 25.9962383,19.8841823" id="Fill-44" fill="#1D1D1B"></path>
                    <path d="M21.3164769,19.574395 C21.2888002,19.4976921 21.2522245,19.4206626 21.209199,19.3477969 C21.165847,19.2749312 21.1160453,19.2059436 21.0619573,19.1447119 C20.6419488,18.6660435 19.9302326,18.5378243 19.3611046,18.8749659 C18.7935278,19.2110054 18.5626436,19.8978207 18.7809549,20.4961358 C18.8083051,20.5728386 18.8448808,20.6497048 18.8882328,20.722693 C18.9312991,20.7955995 18.9811008,20.8647505 19.0355154,20.9256556 C19.4551973,21.4045281 20.1684647,21.5319308 20.7360007,21.1956056 C21.3048021,20.8587498 21.5347883,20.1725468 21.3164769,19.574395" id="Fill-45" fill="#000000"></path>
                    <path d="M21.0583568,19.1969588 C21.1013823,19.2698245 21.137958,19.3468131 21.1656347,19.4235568 C21.3839053,20.0217087 21.1539599,20.7079525 20.5851585,21.0447267 C20.0176225,21.3810927 19.3043143,21.2536492 18.8846732,20.7748175 C18.8302178,20.7139123 18.7804161,20.6447614 18.7373906,20.5718549 C18.6940386,20.4988667 18.6574629,20.4220005 18.6301127,20.3452568 C18.4118014,19.7469826 18.6426856,19.0601264 19.2102216,18.724087 C19.7793496,18.3869862 20.4911066,18.5151645 20.9110743,18.9938738 C20.9652031,19.0550646 21.0150048,19.1240931 21.0583568,19.1969588" id="Fill-46" fill="#4E4E50"></path>
                    <path d="M21.0583568,19.1969588 C21.1013823,19.2698245 21.137958,19.3468131 21.1656347,19.4235568 L18.8846732,20.7748175 C18.8302178,20.7139123 18.7804161,20.6447614 18.7373906,20.5718549 C18.6940386,20.4988667 18.6574629,20.4220005 18.6301127,20.3452568 L20.9110743,18.9938738 C20.9652031,19.0550646 21.0150048,19.1240931 21.0583568,19.1969588" id="Fill-47" fill="#292428"></path>
                    <path d="M19.5770361,19.3428208 C19.6499018,19.2996321 19.7246044,19.2596682 19.7971844,19.2247662 L20.4280747,20.2893401 C20.3625568,20.3365293 20.2915689,20.3826571 20.2187032,20.4260092 C20.1458375,20.4691979 20.0708083,20.5094475 19.9982284,20.5439006 L19.3676646,19.4793267 C19.4328559,19.432464 19.5038846,19.3860096 19.5770361,19.3428208" id="Fill-48" fill="#292428"></path>
                </g>
            </g>
        </g>
    </g>
</svg>