<?xml version="1.0" encoding="UTF-8"?>
<svg width="80px" height="80px" viewBox="0 0 80 80" version="1.1" xmlns="http://www.w3.org/2000/svg" xmlns:xlink="http://www.w3.org/1999/xlink">
    <title>ic_ discharge</title>
    <g id="Page-2" stroke="none" stroke-width="1" fill="none" fill-rule="evenodd">
        <g id="1.0MAIN-Copy" transform="translate(-307.000000, -11077.000000)">
            <g id="ic_-discharge" transform="translate(307.000000, 11077.000000)">
                <rect id="Rectangle" x="0" y="0" width="80" height="80"></rect>
                <g id="noun_Trash_61805" transform="translate(20.000000, 16.000000)" fill="#000000" fill-rule="nonzero">
                    <g id="Group">
                        <path d="M36.029055,43.5871367 C36.029055,43.5871367 48.1190915,19.6488645 25.8734244,9.0700826 C25.8734244,9.0700826 25.8129742,9.0700826 25.752524,9.0700826 C25.752524,9.13053278 25.752524,9.13053278 25.752524,9.13053278 C25.752524,9.13053278 25.6316237,9.13053278 25.3293727,9.13053278 C25.3293727,9.13053278 25.3293727,9.13053278 25.3293727,9.13053278 C26.8406273,12.3343924 28.1705313,14.0269975 30.709439,18.1376099 C30.9512397,18.5607612 28.9563837,18.5607612 28.7750331,18.1376099 C27.8682804,16.3241045 25.9338746,12.3948426 24.9666717,10.2790862 C25.9943248,12.6366434 27.9287306,17.2913074 28.8959335,19.830215 C28.9563837,19.9511154 28.6541328,20.0720158 28.2914317,20.0720158 C27.9891808,20.0720158 27.6869299,20.0720158 27.5055793,20.0115656 C27.3846789,19.9511154 27.2637786,19.9511154 27.2637786,19.8906652 C27.2033284,19.7093147 27.082428,19.5279641 27.0219779,19.3466136 C26.8406273,18.8630121 26.5988266,18.3189605 26.3570258,17.6540085 C25.1480222,14.510599 23.6972178,9.91638515 23.3949669,9.00963242 C21.5210113,8.94918223 18.7403029,8.94918223 16.0200447,8.94918223 C15.9595945,8.94918223 15.9595945,8.88873205 15.8991443,8.82828187 C15.5968934,8.88873205 15.3550927,8.88873205 15.2341923,8.94918223 C-7.31372569,21.0996689 2.47920384,43.1035352 2.47920384,43.1035352 C2.47920384,43.1035352 0.242547095,43.8289374 0.000746365332,46.7305462 C-0.059703817,47.3954982 3.56730712,46.670096 5.25991223,46.670096 L5.25991223,46.670096 C5.25991223,46.670096 7.79881988,46.005144 8.88692316,45.7028931 C10.3377275,45.2192916 6.77116678,46.9118967 6.7107166,46.9118967 C12.4534839,47.9395498 24.1203691,47.8186495 32.4020441,46.8514465 C32.4020441,46.8514465 28.6541328,45.0983912 30.1653873,45.5819927 C31.2534906,45.9446938 33.9737488,46.670096 33.9737488,46.670096 L33.9132986,46.670096 C34.9409517,46.670096 37.7216601,48 37.7216601,48 C39.2933649,46.3678451 36.029055,43.5871367 36.029055,43.5871367 Z" id="Path"></path>
                        <path d="M16.0200447,7.61927822 C18.6194025,7.0147764 20.5538083,7.0147764 25.3293727,7.61927822 C27.4451291,6.83342585 29.0168339,3.69001637 29.6817859,2.29966218 C30.044487,1.51380981 28.412332,1.03020835 26.5383764,0.96975817 C25.8129742,1.99741127 23.8785684,6.04757348 24.2412695,5.01992038 C24.9666717,3.02506437 25.9943248,0.96975817 25.9943248,0.96975817 L25.9943248,0.96975817 C25.8734244,0.848857805 26.0547749,0.0630054353 25.8734244,0.0630054353 C21.1583102,0.244355982 16.2618454,-0.843747299 11.6071814,1.93696109 C11.1235799,2.239212 14.0251887,6.65207531 16.0200447,7.61927822 Z" id="Path"></path>
                        <path d="M32.5833946,46.7909964 C32.5833946,46.7909964 32.5229444,46.7909964 32.5229444,46.7909964 C32.5229444,46.7909964 32.5229444,46.7909964 32.5229444,46.7909964 L32.5833946,46.7909964 Z" id="Path"></path>
                    </g>
                </g>
            </g>
        </g>
    </g>
</svg>