<?xml version="1.0" encoding="UTF-8"?>
<svg width="76px" height="76px" viewBox="0 0 76 76" version="1.1" xmlns="http://www.w3.org/2000/svg" xmlns:xlink="http://www.w3.org/1999/xlink">
    <title>ic_cr_outlined</title>
    <g id="Page-1" stroke="none" stroke-width="1" fill="none" fill-rule="evenodd">
        <g id="ic_cr_outlined">
            <rect id="Rectangle-Copy-37" x="0" y="0" width="76" height="76"></rect>
            <g id="Group-21" transform="translate(7.000000, 10.000000)" fill="#3CDC87" fill-rule="nonzero">
                <path d="M31.3081324,23.8209774 C29.1783948,23.8209774 27.4519119,25.5474603 27.4519119,27.6771979 C27.4519119,29.8069355 29.1783948,31.5334185 31.3081324,31.5334185 C33.4377953,31.5334185 35.1643529,29.8069028 35.1643529,27.6771979 C35.1643529,25.547493 33.4377953,23.8209774 31.3081324,23.8209774 Z M31.3081324,25.4330199 C32.5474976,25.4330199 33.5523105,26.4378083 33.5523105,27.6771979 C33.5523105,28.9165876 32.5474976,29.921376 31.3081324,29.921376 C30.0687013,29.921376 29.0639544,28.9166291 29.0639544,27.6771979 C29.0639544,26.4377668 30.0687013,25.4330199 31.3081324,25.4330199 Z" id="Stroke-109"></path>
                <path d="M31.3081217,17.1105174 C39.0911604,17.1105174 46.4285519,18.0390902 52.0870479,19.6913589 C52.514357,19.8161322 52.7596106,20.2636834 52.6348373,20.6909925 C52.510064,21.1183015 52.0625128,21.3635552 51.6352037,21.2387818 C46.1327741,19.6320841 38.9458998,18.7225599 31.3081217,18.7225599 C23.1869645,18.7225599 15.5835715,19.7516569 9.98553498,21.5430226 C4.60805206,23.2638113 1.61204247,25.5305024 1.61204247,27.6772409 C1.61204247,29.8239256 4.60805715,32.0905912 9.98553328,33.8113647 C15.5835818,35.6027206 23.1869777,36.6318144 31.3081217,36.6318144 C39.4292656,36.6318144 47.0326615,35.6027206 52.63071,33.8113647 C58.0081862,32.0905912 61.0042009,29.8239256 61.0042009,27.6772409 C61.0042009,26.0885668 59.3606423,24.4080711 56.1993147,22.9216258 C55.796471,22.7322101 55.6234534,22.2520889 55.8128691,21.8492451 C56.0022848,21.4464014 56.482406,21.2733838 56.8852498,21.4627995 C60.5519843,23.1868854 62.6162433,25.2975364 62.6162433,27.6772409 C62.6162433,30.7784298 59.1112216,33.4301898 53.1220166,35.3467144 C47.3534124,37.1926475 39.5866173,38.2438569 31.3081217,38.2438569 C23.029626,38.2438569 15.2628309,37.1926475 9.49422675,35.3467144 C3.50502175,33.4301898 0,30.7784298 0,27.6772409 C0,24.576005 3.50501732,21.924214 9.49422505,20.0076739 C15.2628187,18.1617301 23.0296118,17.1105174 31.3081217,17.1105174 Z" id="Stroke-111"></path>
                <path d="M59.2733721,20.6492314 C59.7044281,20.5380913 60.1439649,20.7974344 60.2551049,21.2284904 C60.3640222,21.6509253 60.1171274,22.0815051 59.7015016,22.2031635 L59.6758459,22.2102233 L57.5026297,22.770506 L58.062949,24.9436301 C58.1718518,25.3660687 57.9249424,25.7966401 57.5093124,25.9182843 L57.4836565,25.9253432 C57.0612178,26.0342461 56.6306464,25.7873366 56.5090023,25.3717067 L56.5019433,25.3460507 L55.7405219,22.3924665 C55.6316217,21.9700381 55.8785167,21.539475 56.2941327,21.4178198 L56.3197878,21.4107602 L59.2733721,20.6492314 Z" id="Stroke-113"></path>
                <path d="M15.653976,0.563525146 C18.339691,-0.987067208 22.3887261,0.722495404 27.0431236,4.95103745 C31.5260904,9.02383394 36.3198922,15.2244675 40.4591383,22.3938266 C44.598378,29.5632273 47.5713758,36.8150703 48.8570348,42.7338103 C50.1918511,48.8788542 49.647873,53.2401852 46.9622028,54.7908492 C44.2764856,56.3414429 40.2274437,54.6318964 35.5730563,50.4033781 C31.0900763,46.3305837 26.2962763,40.1299418 22.1570392,32.9605455 C18.2656127,26.2203219 15.4010908,19.4016828 14.0026103,13.6750687 C13.897004,13.2426237 14.1619593,12.8064469 14.5944044,12.7008407 C15.0268494,12.5952345 15.4630262,12.8601897 15.5686324,13.2926348 C16.9285466,18.8613243 19.7343109,25.5400982 23.5531116,32.1545288 C27.6136697,39.1876487 32.3066147,45.2578375 36.6570483,49.2102134 C40.8360471,53.0068404 44.2970848,54.4681254 46.1561649,53.3947891 C48.0152286,52.3213948 48.4802114,48.5934067 47.2817285,43.0759958 C46.0340816,37.3322508 43.1236308,30.2329746 39.0630686,23.1998478 C35.0025005,16.1667626 30.3095522,10.0965799 25.9591295,6.14420035 C21.7801217,2.34755209 18.319088,0.886252402 16.4600133,1.95958561 C15.0842604,2.75392215 14.450701,5.01761405 14.7440847,8.49856897 C14.7814707,8.94214949 14.4521851,9.33204997 14.0086046,9.36943606 C13.565024,9.40682215 13.1751235,9.07753649 13.1377375,8.63395597 C12.79745,4.59649416 13.5931722,1.7533985 15.653976,0.563525146 Z" id="Stroke-115"></path>
                <path d="M11.2498616,5.8326037 C11.5606987,5.52761242 12.0558307,5.52561806 12.3690862,5.82314476 L12.3896964,5.84342357 L13.9613625,7.44524813 L15.5633649,5.87354958 C15.8742019,5.5685583 16.3693339,5.56656394 16.6825895,5.86409064 L16.7031997,5.88436945 C17.008191,6.19520647 17.0101853,6.69033851 16.7126586,7.00359402 L16.6923798,7.02420426 L14.5151553,9.16048294 C14.2043182,9.46547423 13.7091862,9.46746858 13.3959307,9.16994188 L13.3753205,9.14966307 L11.2390418,6.97243851 C10.9272729,6.654694 10.9321171,6.14437257 11.2498616,5.8326037 Z" id="Stroke-117"></path>
                <path d="M35.5730426,4.9510284 C40.2274145,0.722483125 44.2764233,-0.987078014 46.9621384,0.563514399 C49.6478558,2.11410815 50.191846,6.47543369 48.8570103,12.6205143 C47.5713405,18.5392536 44.5983217,25.7911221 40.4590799,32.9605266 C36.567835,39.7006185 32.0949678,45.5906696 27.8345841,49.66519 C27.512874,49.9728652 27.0026564,49.9614877 26.6949812,49.6397776 C26.387306,49.3180675 26.3986836,48.8078499 26.7203937,48.5001747 C30.8632804,44.5380253 35.2443861,38.7688097 39.0630028,32.1545181 C43.123575,25.1213739 46.0340471,18.0220711 47.2817046,12.2783261 C48.4802024,6.7608938 48.0152115,3.03292867 46.1561194,1.95958546 C44.2970284,0.886242831 40.836023,2.34753884 36.6570405,6.14418791 C32.3066533,10.0965599 27.6137285,16.1667393 23.5531546,23.1998348 C19.4925971,30.2329535 16.5821425,37.3322562 15.3344935,43.076025 C14.1360112,48.593446 14.6009944,52.3214275 16.4600378,53.3947673 C17.8359026,54.18912 20.1130432,53.6060078 22.9809313,51.6114129 C23.3463872,51.357241 23.8486948,51.4474545 24.1028667,51.8129104 C24.3570386,52.1783664 24.2668251,52.680674 23.9013692,52.9348459 C20.5749761,55.2483277 17.7149356,55.9807043 15.654012,54.7908344 C12.9683488,53.2402363 12.4243693,48.8789051 13.759187,42.7338403 C15.044848,36.8150766 18.0178496,29.5632067 22.1570848,22.3938136 C26.2963359,15.2244459 31.0901128,9.02381684 35.5730426,4.9510284 Z" id="Stroke-119"></path>
                <path d="M19.7374246,51.2218471 C19.854319,50.8015497 20.2834273,50.5521062 20.7041985,50.654562 L20.7299469,50.661276 L23.6685928,51.4785816 C24.0889003,51.5954788 24.3383438,52.0246037 24.2358716,52.4453815 L24.2291566,52.4711302 L23.4117436,55.4097762 C23.292449,55.838647 22.8480731,56.0896082 22.4192022,55.9703136 C21.9989088,55.8534048 21.7494798,55.4242881 21.8519499,55.0035203 L21.8586648,54.9777722 L22.4600504,52.8156462 L20.2979956,52.2143694 C19.8776982,52.097475 19.6282547,51.6683666 19.7307105,51.2475954 L19.7374246,51.2218471 Z" id="Stroke-121"></path>
            </g>
        </g>
    </g>
</svg>