<?xml version="1.0" encoding="UTF-8"?>
<svg width="193px" height="193px" viewBox="0 0 193 193" version="1.1" xmlns="http://www.w3.org/2000/svg" xmlns:xlink="http://www.w3.org/1999/xlink">
    <title>ic_collect_big</title>
    <g id="Page-4" stroke="none" stroke-width="1" fill="none" fill-rule="evenodd">
        <g id="1.0MAIN-ver4" transform="translate(-613.000000, -21461.000000)">
            <g id="illust_c3_cycle" transform="translate(229.000000, 20693.000000)">
                <g id="diagram/c3-s1/node" transform="translate(384.000000, 768.000000)">
                    <circle id="Oval-Copy-6" fill="#CFF0ED" cx="96.5" cy="96.5" r="96.5"></circle>
                    <g id="ic/cycle/factory" transform="translate(57.000000, 40.000000)">
                        <rect id="Rectangle-Copy-22" x="0" y="0" width="80" height="80"></rect>
                        <path d="M19.2857143,50 C22.0463645,50 24.2857143,52.2402486 24.2857143,54.9980262 C24.2857143,57.7633171 22.0463645,60 19.2857143,60 C16.5231531,60 14.2857143,57.7635718 14.2857143,54.9980262 C14.2857143,52.2402486 16.5228983,50 19.2857143,50 Z M33.5725112,50 C36.3307805,50 38.5715559,52.2402486 38.5714286,54.9980262 C38.5714286,57.7633171 36.3305258,60 33.5725112,60 C30.8101661,60 28.5714286,57.7635718 28.5714286,54.9980262 C28.5714286,52.2402486 30.8101661,50 33.5725112,50 Z M60.7162596,50 C63.47582,50 65.7142857,52.2402486 65.7142857,54.9980262 C65.7142857,57.7633171 63.4759473,60 60.7162596,60 C57.9526241,60 55.7142857,57.7635718 55.7142857,54.9980262 C55.7142857,52.2402486 57.9526241,50 60.7162596,50 Z M47.8810824,20 L47.8810824,45.9165772 L50.4643279,45.9165772 L50.4643279,29.3759378 L62.0102237,29.3759378 L66.7193376,38.7594066 L66.7193376,38.774349 L71.4285714,41.4303905 L71.4285714,52.8571429 L66.7757298,52.8571429 C65.8237805,49.8987867 63.0362029,47.7544925 59.7592126,47.7544925 C56.4785027,47.7544925 53.6947647,49.8987867 52.7386159,52.8571429 L52.7386159,52.8571429 L40.5252517,52.8571429 C39.5710226,49.8987867 36.7853648,47.7544925 33.5065747,47.7544925 C30.2258648,47.7544925 27.4382873,49.8987867 26.485858,52.8571429 L26.485858,52.8571429 L26.4408642,52.8571429 C25.4867551,49.8987867 22.6990576,47.7544925 19.4202675,47.7544925 C16.1395576,47.7544925 13.3556996,49.8987867 12.4014705,52.8571429 L12.4014705,52.8571429 L10,52.8571429 L10,20 L47.8810824,20 Z" id="Combined-Shape" fill="#009999"></path>
                    </g>
                    <text id="생산" font-family="NotoSansCJKkr-Regular, Noto Sans CJK KR" font-size="24" font-weight="normal" fill="#009999">
                        <tspan x="74.92" y="148">수거</tspan>
                    </text>
                </g>
            </g>
        </g>
    </g>
</svg>