<?xml version="1.0" encoding="UTF-8"?>
<svg width="80px" height="80px" viewBox="0 0 80 80" version="1.1" xmlns="http://www.w3.org/2000/svg" xmlns:xlink="http://www.w3.org/1999/xlink">
    <title>ic_collect</title>
    <g id="Page-2" stroke="none" stroke-width="1" fill="none" fill-rule="evenodd">
        <g id="1.0MAIN-Copy" transform="translate(-427.000000, -11077.000000)">
            <g id="ic_collect" transform="translate(427.000000, 11077.000000)">
                <rect id="Rectangle-Copy-15" x="0" y="0" width="80" height="80"></rect>
                <g id="noun_Truck_2160719" transform="translate(12.000000, 22.000000)" fill="#000000" fill-rule="nonzero">
                    <g id="Group">
                        <path d="M8.45894441,27.5078914 C6.12234027,27.5078914 4.23028027,29.4103348 4.23028027,31.7522695 C4.23028027,34.1008009 6.12255576,36 8.45894441,36 C10.7937169,36 12.6876085,34.1005846 12.6876085,31.7522695 C12.6876085,29.4103348 10.7937169,27.5078914 8.45894441,27.5078914 Z" id="Path"></path>
                        <path d="M21.1079813,27.5078914 C18.7712694,27.5078914 16.8774855,29.4103348 16.8774855,31.7522695 C16.8774855,34.1008009 18.7712694,36 21.1079813,36 C23.4410299,36 25.3366454,34.1005846 25.3366454,31.7522695 C25.3367531,29.4103348 23.4412454,27.5078914 21.1079813,27.5078914 Z" id="Path"></path>
                        <path d="M44.6821805,27.5078914 C42.3439602,27.5078914 40.4501763,29.4103348 40.4501763,31.7522695 C40.4501763,34.1008009 42.3439602,36 44.6821805,36 C47.0170607,36 48.9108446,34.1005846 48.9108446,31.7522695 C48.9108446,29.4103348 47.016953,27.5078914 44.6821805,27.5078914 Z" id="Path"></path>
                        <path d="M50.9325184,16.9844335 L50.9325184,16.9709157 L46.7038543,8.48205134 L36.3359344,8.48205134 L36.3359344,23.4457335 L34.0162458,23.4457335 L34.0162458,0 L0,0 L0,29.724597 L2.15645925,29.724597 C3.01333262,27.0482856 5.51316612,25.1084249 8.45915989,25.1084249 C11.4034298,25.1084249 13.906711,27.0482856 14.7634767,29.724597 L14.80388,29.724597 C15.6591372,27.0482856 18.1623107,25.1084249 21.1083045,25.1084249 C24.0525744,25.1084249 26.554024,27.0482856 27.4108974,29.724597 L38.3781869,29.724597 C39.2367842,27.0482856 41.7365099,25.1084249 44.6825037,25.1084249 C47.6251575,25.1084249 50.128331,27.0482856 50.9831573,29.724597 L55.1612903,29.724597 L55.1612903,19.3872524 L50.9325184,16.9844335 Z" id="Path"></path>
                    </g>
                </g>
            </g>
        </g>
    </g>
</svg>