<?xml version="1.0" encoding="UTF-8"?>
<svg width="193px" height="193px" viewBox="0 0 193 193" version="1.1" xmlns="http://www.w3.org/2000/svg" xmlns:xlink="http://www.w3.org/1999/xlink">
    <title>ic_dispose_big</title>
    <g id="Page-4" stroke="none" stroke-width="1" fill="none" fill-rule="evenodd">
        <g id="1.0MAIN-ver4" transform="translate(-997.000000, -21077.000000)">
            <g id="illust_c3_cycle" transform="translate(229.000000, 20693.000000)">
                <g id="diagram/c3-s1/node" transform="translate(768.000000, 384.000000)">
                    <circle id="Oval-Copy-6" fill="#CFF0ED" cx="96.5" cy="96.5" r="96.5"></circle>
                    <g id="ic/cycle/factory" transform="translate(57.000000, 40.000000)">
                        <rect id="Rectangle-Copy-21" x="0" y="0" width="80" height="80"></rect>
                        <path d="M62.9644429,38.2651158 L60.171522,54.981894 L61.5186956,70 L55.3611264,59.0837265 L53.7905191,48.5888291 L44.6165953,70 L48.4215394,38.2651158 L62.9644429,38.2651158 Z M42.2573986,39.634588 L42.2573986,41.4517722 L41.5608113,41.4517722 L37.5652915,70 L22.9961016,70 L19.0071534,41.4517722 L18.3171376,41.4517722 L18.3171376,39.634588 L42.2573986,39.634588 Z M26.7681878,17.1173049 L28.4110824,17.8810491 L18.3171376,39.634588 L16.6676714,38.8642598 L17.1013956,37.9227477 C16.6479566,37.3433556 16.5230966,36.5466915 16.8516756,35.8290354 L16.8516756,35.8290354 L24.5732805,19.2110172 C24.8952878,18.4999451 25.5918752,18.0851531 26.327892,18.0522331 L26.327892,18.0522331 L26.7681878,17.1173049 Z M26.5710404,30.370893 C31.2697191,32.128827 38.6627451,31.2663228 38.6627451,31.2663228 C38.5444567,33.4522111 36.9541346,34.8809393 36.9541346,34.8809393 C34.9760895,36.7507956 34.2597874,38.5811478 34.2597874,38.5811478 C33.8392064,37.2972676 27.8262119,38.1861078 27.8262119,38.1861078 C25.5984468,38.6601558 21.3860648,36.2635795 21.3860648,36.2635795 C23.8175489,36.0397235 26.577612,30.3643147 26.5710404,30.370893 Z M56.5900116,21.0018655 C56.5900116,21.0018655 59.0543536,23.9185779 62.9710145,35.2430594 L62.9710145,35.2430594 L48.6449731,36.2504115 C48.6449731,36.2504115 47.4095163,29.0211785 47.0809373,27.7636344 L47.0809373,27.7636344 L28.9828098,25.9332821 L45.8454806,22.9046417 Z M49.7621414,10 C52.603948,10 54.9076875,12.3080942 54.9076875,15.1552727 C54.9076875,18.0024512 52.603948,20.3105454 49.7621414,20.3105454 C46.9203348,20.3105454 44.6165953,18.0024512 44.6165953,15.1552727 C44.6165953,12.3080942 46.9203348,10 49.7621414,10 Z" id="Combined-Shape" fill="#009999"></path>
                    </g>
                    <text id="생산" font-family="NotoSansCJKkr-Regular, Noto Sans CJK KR" font-size="24" font-weight="normal" fill="#009999">
                        <tspan x="74.92" y="148">소비</tspan>
                    </text>
                </g>
            </g>
        </g>
    </g>
</svg>