<?xml version="1.0" encoding="UTF-8"?>
<svg width="86px" height="86px" viewBox="0 0 86 86" version="1.1" xmlns="http://www.w3.org/2000/svg" xmlns:xlink="http://www.w3.org/1999/xlink">
    <title>ic_electric</title>
    <g id="Page-4" stroke="none" stroke-width="1" fill="none" fill-rule="evenodd">
        <g id="ic_electric">
            <circle id="Oval-Copy-7" stroke="#F0F0F0" stroke-width="4" fill="#D8D8D8" cx="43" cy="43" r="41"></circle>
            <path d="M43,19 C29.7851852,19 19,29.7851852 19,43 C19,56.2148148 29.7851852,67 43,67 C56.2148148,67 67,56.2148148 67,43 C67,29.7851852 56.2148148,19 43,19 Z M48.9173388,41.2300469 L41.6365261,55.6948357 C41.5190936,55.9389671 41.3429449,56 41.10808,56 C40.7557826,56 40.4622015,55.7558685 40.5209177,55.2676056 L41.871391,46.4178404 C41.9301073,46.0516432 41.6365261,45.7464789 41.2842287,45.7464789 L36.5869302,45.7464789 C36.1172004,45.7464789 35.8823354,45.258216 36.0584841,44.8309859 L43.3392968,30.3051643 C43.4567293,30.0610329 43.632878,30 43.8677429,30 C44.2200403,30 44.5136214,30.3051643 44.4549052,30.7323944 L43.1044319,39.5821596 C43.0457156,39.9483568 43.3392968,40.314554 43.6915942,40.314554 L48.3888927,40.314554 C48.8586225,40.314554 49.1522037,40.8028169 48.9173388,41.2300469 Z" id="Shape" fill="#122229" fill-rule="nonzero"></path>
        </g>
    </g>
</svg>