<?xml version="1.0" encoding="UTF-8"?>
<svg width="86px" height="86px" viewBox="0 0 86 86" version="1.1" xmlns="http://www.w3.org/2000/svg" xmlns:xlink="http://www.w3.org/1999/xlink">
    <title>ic_music</title>
    <g id="Page-4" stroke="none" stroke-width="1" fill="none" fill-rule="evenodd">
        <g id="ic_music">
            <circle id="Oval-Copy-6" stroke="#F0F0F0" stroke-width="4" fill="#D8D8D8" cx="43" cy="43" r="41"></circle>
            <path d="M26.4794953,53.8479882 C28.7318612,53.8479882 30.851735,54.6520797 32.3091483,55.777808 L32.3091483,26.1872377 C32.3091483,25.3831461 32.8391167,24.7398729 33.3690852,24.5790546 L58.2776025,17.0205937 C59.2050473,16.8597754 60,17.663867 60,18.6287769 L60,55.1345347 C59.8675079,60.1199025 54.9652997,62.2105406 51.5205047,62.2105406 C46.7507886,62.2105406 43.0410095,58.9941743 43.0410095,55.1345347 C43.0410095,51.2748951 46.7507886,48.0585288 51.5205047,48.0585288 C53.7728707,48.0585288 55.7602524,48.8626203 57.3501577,49.9883486 L57.3501577,30.8509689 L34.9589905,37.6053382 L34.9589905,60.9239941 C34.9589905,65.7485436 29.7917981,68 26.4794953,68 C21.8422713,68 18,64.7836337 18,60.9239941 C18,57.0643545 21.8422713,53.8479882 26.4794953,53.8479882 Z" id="Path" fill="#122229"></path>
        </g>
    </g>
</svg>