<?xml version="1.0" encoding="UTF-8"?>
<svg width="86px" height="86px" viewBox="0 0 86 86" version="1.1" xmlns="http://www.w3.org/2000/svg" xmlns:xlink="http://www.w3.org/1999/xlink">
    <title>ic_medical</title>
    <g id="Page-4" stroke="none" stroke-width="1" fill="none" fill-rule="evenodd">
        <g id="ic_medical">
            <circle id="Oval-Copy-8" stroke="#F0F0F0" stroke-width="4" fill="#D8D8D8" cx="43" cy="43" r="41"></circle>
            <path d="M58.8333333,24 L27.1666667,24 C25.4186667,24 24,25.4186667 24,27.1666667 L24,58.8333333 C24,60.5813333 25.4186667,62 27.1666667,62 L58.8333333,62 C60.5813333,62 62,60.5813333 62,58.8333333 L62,27.1666667 C62,25.4186667 60.5813333,24 58.8333333,24 Z M55,45.625 L45.625,45.625 L45.625,55 L39.375,55 L39.375,45.625 L30,45.625 L30,39.375 L39.375,39.375 L39.375,30 L45.625,30 L45.625,39.375 L55,39.375 L55,45.625 Z" id="Shape" fill="#122229" fill-rule="nonzero"></path>
        </g>
    </g>
</svg>