<?xml version="1.0" encoding="UTF-8"?>
<svg width="80px" height="80px" viewBox="0 0 80 80" version="1.1" xmlns="http://www.w3.org/2000/svg" xmlns:xlink="http://www.w3.org/1999/xlink">
    <title>ic_proceed</title>
    <g id="Page-2" stroke="none" stroke-width="1" fill="none" fill-rule="evenodd">
        <g id="1.0MAIN-Copy" transform="translate(-576.000000, -11077.000000)">
            <g id="ic_proceed" transform="translate(576.000000, 11077.000000)">
                <rect id="Rectangle-Copy-16" x="0" y="0" width="80" height="80"></rect>
                <g id="Group-11" transform="translate(21.000000, 18.000000)" fill="#000000" fill-rule="nonzero">
                    <path d="M28.4390244,5.19727486 L23.1770883,9.01725164 L17.9131047,12.8372284 L17.5507068,9.57019631 C11.2118141,10.2588454 6.4105533,15.5594176 6.4105533,21.8686581 C6.4105533,25.0810034 7.67382746,28.165746 9.93011291,30.4727203 L5.32131205,34.8780488 C1.90821964,31.386193 0,26.7236339 0,21.8666327 C0,12.3227671 7.26024338,4.30810742 16.8504803,3.26500666 L16.4901298,0 L22.4645771,2.59863743 L28.4390244,5.19727486 Z" id="Path"></path>
                    <path d="M9.12195122,38.8044489 L14.3842662,34.9842502 L19.6465812,31.1640516 L20.0110528,34.4312735 C26.3524495,33.7425844 31.1520083,28.4437299 31.1520083,22.1320974 C31.1520083,18.9215912 29.8886432,15.8346438 27.6301477,13.5275355 L32.2392804,9.12195122 C35.6526186,12.6119842 37.5609756,17.2768397 37.5609756,22.1320974 C37.5609756,31.6765173 30.3002095,39.6916424 20.7113297,40.7348037 L21.0737538,44 L15.0988763,41.4032372 L9.12195122,38.8044489 Z" id="Path"></path>
                </g>
            </g>
        </g>
    </g>
</svg>