<?xml version="1.0" encoding="UTF-8"?>
<svg width="86px" height="86px" viewBox="0 0 86 86" version="1.1" xmlns="http://www.w3.org/2000/svg" xmlns:xlink="http://www.w3.org/1999/xlink">
    <title>ic_rocket</title>
    <g id="Page-4" stroke="none" stroke-width="1" fill="none" fill-rule="evenodd">
        <g id="ic_rocket">
            <circle id="Oval-Copy-9" stroke="#F0F0F0" stroke-width="4" fill="#D8D8D8" cx="43" cy="43" r="41"></circle>
            <g id="Group-46" transform="translate(25.000000, 17.000000)" fill="#122229" fill-rule="nonzero">
                <path d="M25.6553102,16.907762 C27.7937146,18.1418437 28.5345909,20.9058588 27.2973126,23.0476165 C26.0630158,25.1856481 23.3029908,25.9226691 21.1601143,24.6885874 C19.026182,23.455251 18.2808336,20.6957072 19.5151305,18.5539494 C20.7524088,16.4151726 23.5169058,15.6744255 25.6553102,16.907762 Z M23.6801371,6 C19.1961214,9.71789468 15.5834179,14.0260023 13.0522149,18.8915334 C9.8531798,25.0395853 9.88970187,29.8559319 10.0626227,33.984442 C10.0909459,34.608935 10.1408843,35.1723201 10.2064749,35.6991895 L11.4877287,36.4406819 L13.8400481,31.5319282 C14.2708595,30.5653799 15.0393136,29.6919839 16.2929896,29.8477345 L11.2894661,39.5616566 C10.7580327,40.5669562 12.4544456,41.5685298 13.1178056,40.6176311 L14.7292487,38.3111801 L16.9175915,39.5728349 C17.4333725,39.3820589 17.9774768,39.1614743 18.564066,38.8931957 C22.3243484,37.1702507 26.4468702,34.6163872 30.146034,28.7604609 C33.1766204,23.9634899 35.2151482,18.3124987 36,13.1123646 C33.7989863,12.701004 31.4928785,11.8544359 29.2568335,10.5629724 C27.0222791,9.27523494 25.1358024,7.69909799 23.6801371,6 Z" id="Shape"></path>
                <path d="M29.575211,33 C29.6548571,33.4550981 29.72062,33.863294 29.7849214,34.3015366 C30.2803348,37.7898891 29.9259462,40.2053534 28.6589154,42.2712495 C26.9081625,45.1249564 23.8523824,46.896248 20.4400216,48.8727368 C19.7809318,49.2464889 18.9632805,48.7503514 19.0012768,47.9918545 L19.3468971,40.6677799 C23.0303469,39.636664 26.4142104,37.076096 29.575211,33 Z" id="Path"></path>
                <path d="M34.4801681,0.0627500944 C33.9417206,-0.0887414745 33.4169433,0.0664814138 32.9491243,0.187376163 C30.1133519,0.914983452 27.4522521,2.17318436 25,3.79780084 C26.2887804,5.23510509 27.969435,6.61196196 29.9675382,7.74628306 C31.9686792,8.88060417 34.0169058,9.62313674 35.9276727,10 C36.1327232,7.09703348 35.9117243,4.20152961 35.1370891,1.42766674 C35.0095021,0.971699507 34.8796368,0.443344676 34.4801681,0.0627500944 Z" id="Path"></path>
                <path d="M9,21 C8.57269603,21.1539531 8.19071217,21.3042055 7.78570858,21.4744421 C4.57877068,22.7993273 2.69834546,24.3299768 1.56678123,26.4808798 C0.00359683479,29.4600211 0,33.0327701 0,37.0266699 C0.00359683479,37.7942151 0.832307569,38.2605154 1.45743746,37.8438057 L7.5109104,33.8395438 C6.57573335,30.0928573 7.088642,25.8295396 9,21 Z" id="Path"></path>
                <path d="M8.07001861,37 C5.4239567,38.4752073 3.75288035,41.2559729 3.15994242,44.0994349 C2.56776859,46.9451097 3.70015777,50.8359688 5.23751745,51.6923266 C6.77182075,52.5449964 10.8276384,51.5507067 13.0840118,49.6307245 C15.3411492,47.7129551 17,44.9285014 17,41.9743988 L15.3847026,41.07526 C15.3205186,45.1129023 10.1315476,48.5737385 7.24250343,48.3399181 C5.58747308,46.0422828 6.09636053,39.9732802 9.69066467,37.8991388 L8.07001861,37 Z" id="Path"></path>
            </g>
        </g>
    </g>
</svg>