<?xml version="1.0" encoding="UTF-8"?>
<svg width="193px" height="193px" viewBox="0 0 193 193" version="1.1" xmlns="http://www.w3.org/2000/svg" xmlns:xlink="http://www.w3.org/1999/xlink">
    <title>ic_recycle_big</title>
    <g id="Page-4" stroke="none" stroke-width="1" fill="none" fill-rule="evenodd">
        <g id="1.0MAIN-ver4" transform="translate(-229.000000, -21077.000000)">
            <g id="illust_c3_cycle" transform="translate(229.000000, 20693.000000)">
                <g id="diagram/c3-s1/node" transform="translate(0.000000, 384.000000)">
                    <circle id="Oval-Copy-6" fill="#CFF0ED" cx="96.5" cy="96.5" r="96.5"></circle>
                    <g id="ic/cycle/factory" transform="translate(57.000000, 40.000000)">
                        <rect id="Rectangle-Copy-20" x="0" y="0" width="80" height="80"></rect>
                        <path d="M60.5140613,20.4878049 C65.6857857,25.7757337 68.5772358,32.8436965 68.5772358,40.2001476 C68.5772358,54.6613898 57.576075,66.8055188 43.0474693,68.3860663 L43.5965966,73.3333333 L34.5437519,69.3988443 L25.4878049,65.4612861 L41.4342139,53.8849267 L41.9864436,58.8352628 C51.5946204,57.7917946 58.8666793,49.7632271 58.8666793,40.2001476 C58.8666793,35.3357442 56.9524897,30.6585512 53.5305269,27.1629326 L60.5140613,20.4878049 Z M36.6517118,6.66666667 L54.7560976,14.5413256 L46.7834671,20.3291691 L38.8077344,26.1170127 L38.2586466,21.1669641 C28.6542638,22.2103718 21.3796262,30.2415418 21.3796262,39.8009971 C21.3796262,44.6681869 23.293678,49.3420394 26.7122923,52.837455 L19.7292607,59.5121951 C14.5579085,54.2215046 11.6666667,47.157021 11.6666667,39.7979283 C11.6666667,25.3375258 22.6670354,13.1941022 37.1976974,11.6136465 L36.6517118,6.66666667 Z" id="Combined-Shape" fill="#009999"></path>
                    </g>
                    <text id="생산" font-family="NotoSansCJKkr-Regular, Noto Sans CJK KR" font-size="24" font-weight="normal" fill="#009999">
                        <tspan x="63.88" y="148">재활용</tspan>
                    </text>
                </g>
            </g>
        </g>
    </g>
</svg>