<?xml version="1.0" encoding="UTF-8"?>
<svg width="108px" height="108px" viewBox="0 0 108 108" version="1.1" xmlns="http://www.w3.org/2000/svg" xmlns:xlink="http://www.w3.org/1999/xlink">
    <title>ic_recycling</title>
    <g id="Page-4" stroke="none" stroke-width="1" fill="none" fill-rule="evenodd">
        <g id="1.0MAIN-ver4" transform="translate(-205.000000, -725.000000)">
            <g id="illust_title" transform="translate(205.000000, 267.000000)">
                <g id="ic_recycling" transform="translate(0.000000, 458.000000)">
                    <circle id="Oval-Copy-6" fill="#020F18" cx="54" cy="54" r="54"></circle>
                    <g id="ic/cycle/factory" transform="translate(16.227979, 16.227979)">
                        <rect id="Rectangle-Copy-20" x="0" y="0" width="76.1036269" height="76.1036269"></rect>
                        <path d="M57.5667443,19.4899532 C62.4865817,24.5203352 65.2372046,31.2440553 65.2372046,38.2422129 C65.2372046,51.9991253 54.7718517,63.5517785 40.9508568,65.0553459 L41.473239,69.761658 L32.8613101,66.0187969 L24.2464299,62.2730163 L31.8313022,56.7667479 L39.4161745,51.2604795 L39.941508,55.9697111 C49.0817218,54.9770647 55.9995975,47.3395259 55.9995975,38.2422129 C55.9995975,33.6147287 54.1786379,29.1653368 50.9233406,25.8399711 L57.5667443,19.4899532 Z M34.8666025,6.34196891 L43.4779114,10.0875321 L52.0892203,13.8330952 L44.5048941,19.3390438 L36.9176168,24.8449924 L36.3952721,20.1360343 C27.2586675,21.1286231 20.3383387,28.7686377 20.3383387,37.862503 C20.3383387,42.4926379 22.1591672,46.938852 25.4112791,50.2640246 L18.7683537,56.6136737 C13.8488705,51.5806645 11.0984456,44.8602542 11.0984456,37.8595836 C11.0984456,24.1034702 21.5630451,12.5514878 35.385996,11.0480077 L34.8666025,6.34196891 Z" id="Combined-Shape" fill="#3DDB87"></path>
                    </g>
                </g>
            </g>
        </g>
    </g>
</svg>