<?xml version="1.0" encoding="UTF-8"?>
<svg width="80px" height="80px" viewBox="0 0 80 80" version="1.1" xmlns="http://www.w3.org/2000/svg" xmlns:xlink="http://www.w3.org/1999/xlink">
    <title>ic_select</title>
    <g id="Page-2" stroke="none" stroke-width="1" fill="none" fill-rule="evenodd">
        <g id="1.0MAIN-Copy" transform="translate(-728.000000, -11077.000000)">
            <g id="ic_select" transform="translate(728.000000, 11077.000000)">
                <rect id="Rectangle-Copy-17" x="0" y="0" width="80" height="80"></rect>
                <g id="noun_sorting_3852550" transform="translate(16.000000, 16.000000)" fill="#000000" fill-rule="nonzero">
                    <path d="M41.8064517,29.4193549 L41.8064517,27.0967742 C41.8064517,26.891429 41.7249556,26.6944788 41.5797546,26.5492777 C41.4345536,26.4040767 41.2376034,26.3225273 41.0322581,26.3225807 L24.7741936,26.3225807 L24.7741936,24.7741936 L23.2258065,24.7741936 L23.2258065,26.3225807 L6.96774195,26.3225807 C6.76239668,26.3225273 6.56544649,26.4040767 6.42024545,26.5492777 C6.27504442,26.6944788 6.19354837,26.891429 6.19354837,27.0967742 L6.19354837,29.4193549 L7.74193549,29.4193549 L7.74193549,27.8709678 L23.2258065,27.8709678 L23.2258065,29.4193549 L24.7741936,29.4193549 L24.7741936,27.8709678 L40.2580646,27.8709678 L40.2580646,29.4193549 L41.8064517,29.4193549 Z" id="Path"></path>
                    <path d="M24.3997626,16.2600465 C24.3096929,16.3885626 23.8465239,16.9844362 23.2034555,17.8064516 C24.4386968,17.77824 27.5795613,17.5025187 29.2451768,15.4897316 C31.3471123,12.9497884 30.2916465,8.60723614 30.2916465,8.60723614 C30.2916465,8.60723614 26.3753187,8.4105213 24.1520594,10.4735381 C24.1469133,9.67429237 23.9406815,8.88919789 23.5523691,8.19060388 C22.1605162,5.82497807 18.4622787,5.41935485 18.4622787,5.41935485 C18.4622787,5.41935485 17.0205368,8.84917163 18.4123742,11.2147974 C19.3554968,12.817711 21.3454684,13.5146942 22.5375639,13.8011923 C22.380041,14.9064998 22.3859807,16.0289685 22.5551923,17.1325471 C23.1720775,16.3699665 23.6164955,15.8240594 23.7142142,15.7123587 C24.3111639,15.0187278 24.9236878,14.3415123 25.5517858,13.6807123 C26.8056,12.3572052 27.9767691,10.8901394 29.3320336,9.68693421 C28.1121446,11.0309961 27.0877007,12.6277239 25.9916671,14.066911 C25.4439097,14.7866478 24.9132749,15.5176929 24.3997626,16.2600465 Z M22.6876878,13.077182 C21.7720516,11.2591183 20.7618481,9.49024518 19.6612258,7.77782711 C20.8354683,9.25770273 21.9107502,10.8134715 22.8800594,12.4349884 C22.80498,12.6456172 22.7407715,12.8599643 22.6876878,13.077182 L22.6876878,13.077182 Z" id="Shape"></path>
                    <path d="M13.6258065,10.0645161 L10.8387097,14.7096774 L12.9709084,14.7096774 C14.2629459,19.3843878 18.3249556,22.7632006 23.1567847,23.1823724 C27.9886138,23.6015443 32.5717992,20.9727214 34.6495588,16.5903484 L33.2508388,15.9257807 C31.4827793,19.6531406 27.6192339,21.9242333 23.502518,21.6560976 C19.3858021,21.3879619 15.8494974,18.6348919 14.5798761,14.7096774 L16.4129032,14.7096774 L13.6258065,10.0645161 Z" id="Path"></path>
                    <path d="M24.1548387,0 C19.3464968,0.0184299328 15.0405537,2.98107264 13.3047871,7.46522324 L14.7503536,8.01864775 C16.3285974,3.89330505 20.4114701,1.2784406 24.818746,1.57037389 C29.2260219,1.86230718 32.9283247,4.9928534 33.9486504,9.29032259 L31.7419355,9.29032259 L34.5290323,13.9354839 L37.3161291,9.29032259 L35.5237394,9.29032259 C34.4034186,3.89741355 29.6628358,0.0235523816 24.1548387,0 Z" id="Path"></path>
                    <path d="M0.774193549,35.6129033 L0.774193549,47.2258065 C0.774193549,47.6533818 1.12081181,48.0000001 1.5483871,48.0000001 L12.3870968,48.0000001 C12.8146721,48.0000001 13.1612903,47.6533818 13.1612903,47.2258065 L13.1612903,35.6129033 C13.5888656,35.6129033 13.9354839,35.266285 13.9354839,34.8387097 L13.9354839,34.0645162 C13.9354839,33.6369409 13.5888656,33.2903226 13.1612903,33.2903226 L9.84805163,33.2903226 L9.25025034,31.4969729 C9.14508661,31.1808481 8.84928708,30.9677419 8.51612904,30.9677419 L5.41935485,30.9677419 C5.08619681,30.9677419 4.79039728,31.1808481 4.68523355,31.4969729 L4.08743226,33.2903226 L0.774193549,33.2903226 C0.346618259,33.2903226 0,33.6369409 0,34.0645162 L0,34.8387097 C0,35.266285 0.346618259,35.6129033 0.774193549,35.6129033 Z M9.29032259,38.7096775 C9.29032259,38.2821022 9.63694085,37.9354839 10.0645161,37.9354839 C10.4920914,37.9354839 10.8387097,38.2821022 10.8387097,38.7096775 L10.8387097,44.9032259 C10.8387097,45.3308012 10.4920914,45.6774194 10.0645161,45.6774194 C9.63694085,45.6774194 9.29032259,45.3308012 9.29032259,44.9032259 L9.29032259,38.7096775 Z M7.74193549,44.9032259 C7.74193549,45.3308012 7.39531724,45.6774194 6.96774195,45.6774194 C6.54016665,45.6774194 6.1935484,45.3308012 6.1935484,44.9032259 L6.1935484,38.7096775 C6.1935484,38.2821022 6.54016665,37.9354839 6.96774195,37.9354839 C7.39531724,37.9354839 7.74193549,38.2821022 7.74193549,38.7096775 L7.74193549,44.9032259 Z M5.97731614,32.5161291 L7.95816775,32.5161291 L8.21635356,33.2903226 L5.71913033,33.2903226 L5.97731614,32.5161291 Z M3.0967742,38.7096775 C3.0967742,38.2821022 3.44339246,37.9354839 3.87096775,37.9354839 C4.29854304,37.9354839 4.6451613,38.2821022 4.6451613,38.7096775 L4.6451613,44.9032259 C4.6451613,45.3308012 4.29854304,45.6774194 3.87096775,45.6774194 C3.44339246,45.6774194 3.0967742,45.3308012 3.0967742,44.9032259 L3.0967742,38.7096775 Z" id="Shape"></path>
                    <path d="M30.1935484,33.2903226 L26.8803097,33.2903226 L26.2825084,31.4969729 C26.1773447,31.1808481 25.8815452,30.9677419 25.5483871,30.9677419 L22.4516129,30.9677419 C22.1184549,30.9677419 21.8226554,31.1808481 21.7174916,31.4969729 L21.1196904,33.2903226 L17.8064516,33.2903226 C17.3788763,33.2903226 17.0322581,33.6369409 17.0322581,34.0645162 L17.0322581,34.8387097 C17.0322581,35.266285 17.3788763,35.6129033 17.8064516,35.6129033 L17.8064516,47.2258065 C17.8064516,47.6533818 18.1530699,48.0000001 18.5806452,48.0000001 L29.4193549,48.0000001 C29.8469302,48.0000001 30.1935484,47.6533818 30.1935484,47.2258065 L30.1935484,35.6129033 C30.6211237,35.6129033 30.967742,35.266285 30.967742,34.8387097 L30.967742,34.0645162 C30.967742,33.6369409 30.6211237,33.2903226 30.1935484,33.2903226 Z M21.6774194,44.9032259 C21.6774194,45.3308012 21.3308011,45.6774194 20.9032258,45.6774194 C20.4756505,45.6774194 20.1290323,45.3308012 20.1290323,44.9032259 L20.1290323,38.7096775 C20.1290323,38.2821022 20.4756505,37.9354839 20.9032258,37.9354839 C21.3308011,37.9354839 21.6774194,38.2821022 21.6774194,38.7096775 L21.6774194,44.9032259 Z M24.7741936,44.9032259 C24.7741936,45.3308012 24.4275753,45.6774194 24,45.6774194 C23.5724247,45.6774194 23.2258065,45.3308012 23.2258065,44.9032259 L23.2258065,38.7096775 C23.2258065,38.2821022 23.5724247,37.9354839 24,37.9354839 C24.4275753,37.9354839 24.7741936,38.2821022 24.7741936,38.7096775 L24.7741936,44.9032259 Z M22.7513884,33.2903226 L23.0095742,32.5161291 L24.9904258,32.5161291 L25.2486116,33.2903226 L22.7513884,33.2903226 Z M27.8709678,44.9032259 C27.8709678,45.3308012 27.5243495,45.6774194 27.0967742,45.6774194 C26.6691989,45.6774194 26.3225807,45.3308012 26.3225807,44.9032259 L26.3225807,38.7096775 C26.3225807,38.2821022 26.6691989,37.9354839 27.0967742,37.9354839 C27.5243495,37.9354839 27.8709678,38.2821022 27.8709678,38.7096775 L27.8709678,44.9032259 Z" id="Shape"></path>
                    <path d="M47.2258065,33.2903226 L43.9125678,33.2903226 L43.3147665,31.4969729 C43.2096028,31.1808481 42.9138033,30.9677419 42.5806452,30.9677419 L39.483871,30.9677419 C39.150713,30.9677419 38.8549135,31.1808481 38.7497497,31.4969729 L38.1519484,33.2903226 L34.8387097,33.2903226 C34.4111344,33.2903226 34.0645162,33.6369409 34.0645162,34.0645162 L34.0645162,34.8387097 C34.0645162,35.266285 34.4111344,35.6129033 34.8387097,35.6129033 L34.8387097,47.2258065 C34.8387097,47.6533818 35.185328,48.0000001 35.6129033,48.0000001 L46.451613,48.0000001 C46.8791883,48.0000001 47.2258065,47.6533818 47.2258065,47.2258065 L47.2258065,35.6129033 C47.6533818,35.6129033 48.0000001,35.266285 48.0000001,34.8387097 L48.0000001,34.0645162 C48.0000001,33.6369409 47.6533818,33.2903226 47.2258065,33.2903226 Z M38.7096775,44.9032259 C38.7096775,45.3308012 38.3630592,45.6774194 37.9354839,45.6774194 C37.5079086,45.6774194 37.1612904,45.3308012 37.1612904,44.9032259 L37.1612904,38.7096775 C37.1612904,38.2821022 37.5079086,37.9354839 37.9354839,37.9354839 C38.3630592,37.9354839 38.7096775,38.2821022 38.7096775,38.7096775 L38.7096775,44.9032259 Z M41.8064517,44.9032259 C41.8064517,45.3308012 41.4598334,45.6774194 41.0322581,45.6774194 C40.6046828,45.6774194 40.2580646,45.3308012 40.2580646,44.9032259 L40.2580646,38.7096775 C40.2580646,38.2821022 40.6046828,37.9354839 41.0322581,37.9354839 C41.4598334,37.9354839 41.8064517,38.2821022 41.8064517,38.7096775 L41.8064517,44.9032259 Z M39.7836465,33.2903226 L40.0418323,32.5161291 L42.0226839,32.5161291 L42.2808697,33.2903226 L39.7836465,33.2903226 Z M44.9032259,44.9032259 C44.9032259,45.3308012 44.5566076,45.6774194 44.1290323,45.6774194 C43.701457,45.6774194 43.3548388,45.3308012 43.3548388,44.9032259 L43.3548388,38.7096775 C43.3548388,38.2821022 43.701457,37.9354839 44.1290323,37.9354839 C44.5566076,37.9354839 44.9032259,38.2821022 44.9032259,38.7096775 L44.9032259,44.9032259 Z" id="Shape"></path>
                </g>
            </g>
        </g>
    </g>
</svg>