<?xml version="1.0" encoding="UTF-8"?>
<svg width="80px" height="80px" viewBox="0 0 80 80" version="1.1" xmlns="http://www.w3.org/2000/svg" xmlns:xlink="http://www.w3.org/1999/xlink">
    <title>ic_throw</title>
    <g id="Page-2" stroke="none" stroke-width="1" fill="none" fill-rule="evenodd">
        <g id="1.0MAIN-Copy" transform="translate(-175.000000, -11077.000000)">
            <g id="ic_throw" transform="translate(175.000000, 11077.000000)">
                <rect id="Rectangle" x="0" y="0" width="80" height="80"></rect>
                <g id="noun_throw-garbage_4285715" transform="translate(21.000000, 15.000000)" fill="#000000" fill-rule="nonzero">
                    <g id="Group">
                        <ellipse id="Oval" cx="27.5795623" cy="4.29606057" rx="4.28795506" ry="4.29606057"></ellipse>
                        <path d="M26.6485887,21.8753429 L38.5869565,21.0358828 C35.3230725,11.5988149 33.2694541,9.16822122 33.2694541,9.16822122 L24.3156782,10.7538681 L10.2634526,13.2777351 L25.3452256,14.8030286 C25.6190413,15.8509821 26.6485887,21.8753429 26.6485887,21.8753429 Z" id="Path"></path>
                        <polygon id="Path" points="26.4623939 23.5542631 23.2916072 50 30.9365437 32.1573576 32.2453831 40.9031055 37.3766908 50 36.2540461 37.4849117 38.5814802 23.5542631"></polygon>
                        <path d="M3.93283181,21.8863163 C3.93283181,21.8863163 7.44315007,23.8834632 9.29962104,23.4884231 C9.29962104,23.4884231 14.3104498,22.747723 14.6609339,23.8176232 C14.6609339,23.8176232 15.2578523,22.2923296 16.9062233,20.7341161 C16.9062233,20.7341161 18.2314917,19.5435093 18.3300654,17.7219357 C18.3300654,17.7219357 12.1692104,18.4406891 8.25364477,16.9757442 C8.25912109,16.9702623 5.95906856,21.6997696 3.93283181,21.8863163 Z" id="Path"></path>
                        <polygon id="Path" points="1.37539246 26.2098102 1.95040559 26.2098102 5.27452912 50 17.4155207 50 20.7451205 26.2098102 21.32561 26.2098102 21.32561 24.69549 1.37539246 24.69549"></polygon>
                        <path d="M8.41793424,5.93108746 L8.0510211,6.71019423 C7.43767376,6.73762757 6.85718431,7.08328761 6.58884485,7.67584769 L0.154174094,21.5241962 C-0.119641683,22.1222429 -0.0155916878,22.7861297 0.362274084,23.2689564 L0.000837258812,24.0535499 L1.37539246,24.69549 L9.78701312,6.56754088 L8.41793424,5.93108746 Z" id="Path"></path>
                    </g>
                </g>
            </g>
        </g>
    </g>
</svg>