<?xml version="1.0" encoding="UTF-8"?>
<svg width="76px" height="76px" viewBox="0 0 76 76" version="1.1" xmlns="http://www.w3.org/2000/svg" xmlns:xlink="http://www.w3.org/1999/xlink">
    <title>ic_tr_outlined</title>
    <g id="Page-1" stroke="none" stroke-width="1" fill="none" fill-rule="evenodd">
        <g id="ic_tr_outlined">
            <rect id="Rectangle-Copy-38" x="0" y="0" width="76" height="76"></rect>
            <g id="Group-22" transform="translate(13.000000, 10.000000)" fill="#3CDC87" fill-rule="nonzero">
                <path d="M48.586552,50.111314 L0.787906192,50.111314 C0.352765304,50.111314 0,50.4640793 0,50.8992202 L0,55.2121844 C0,55.6474838 0.352923534,56 0.787906192,56 L48.586552,56 C49.0216928,56 49.3743676,55.6473253 49.3743676,55.2121844 L49.3743676,50.8992202 C49.3743676,50.4642375 49.0218513,50.111314 48.586552,50.111314 Z M48.0153766,51.4701962 L48.0153766,54.6410272 L1.35886413,54.6410272 L1.35886413,51.4701962 L48.0153766,51.4701962 Z" id="Stroke-87"></path>
                <path d="M25.8746328,17.406503 L10.696318,17.406503 C9.94037965,17.406503 9.32751561,18.019367 9.32751561,18.7753054 L9.32751561,21.0204349 C9.32751561,21.7763733 9.94037965,22.3892373 10.696318,22.3892373 L25.8746328,22.3892373 C26.6306339,22.3892373 27.2435258,21.7764011 27.2435258,21.0204349 L27.2435258,18.7753054 C27.2435258,18.0193392 26.6306339,17.406503 25.8746328,17.406503 Z M10.696318,18.7654305 L25.8746328,18.7654305 C25.8801466,18.7654305 25.8845983,18.7698818 25.8845983,18.7753054 L25.8845983,21.0204349 C25.8845983,21.0258585 25.8801466,21.0303097 25.8746328,21.0303097 L10.696318,21.0303097 C10.6908946,21.0303097 10.6864432,21.0258583 10.6864432,21.0204349 L10.6864432,18.7753054 C10.6864432,18.769882 10.6908946,18.7654305 10.696318,18.7654305 Z" id="Stroke-89"></path>
                <path d="M38.798378,35.311234 C37.0515001,35.311234 35.6353383,36.7273245 35.6353383,38.4741832 L35.6353383,43.2260811 L41.9614178,43.2260811 L41.9614178,38.4741832 C41.9614178,36.7273245 40.545256,35.311234 38.798378,35.311234 Z M38.8294527,36.6704238 C39.8114965,36.687009 40.6024902,37.4882332 40.6024902,38.4741832 L40.6024268,41.8671082 L36.9942024,41.8671082 L36.9942658,38.4741832 C36.9942658,37.4778548 37.8019997,36.6701616 38.798378,36.6701616 L38.8294527,36.6704238 Z" id="Stroke-91"></path>
                <path d="M23.8086281,21.0302644 C24.565798,21.0302644 25.1586933,21.6620023 25.1805578,22.4245918 L25.1811128,22.4536128 L25.2046676,24.8763149 C25.2469944,29.2337778 26.0480651,33.5416839 27.5641355,37.5686849 L27.6149359,37.7028139 L29.2016589,41.8671082 L31.8205025,41.8671535 C32.4981249,41.8671535 33.0238887,42.4324319 33.038166,43.1077386 L33.038464,43.1359389 L33.038464,47.9823275 C33.038464,48.357585 32.7342577,48.6617912 32.3590002,48.6617912 C31.9911007,48.6617912 31.6914934,48.3693977 31.6798855,48.0043177 L31.6795364,47.9823275 L31.6795274,43.2260358 L28.2652535,43.2260811 L26.345065,38.186665 C24.7558822,34.0157332 23.9084932,29.5528534 23.8475139,25.0368015 L23.8458042,24.8895204 L23.8222486,22.4667331 C23.8219677,22.4374434 23.8140883,22.4134097 23.8028373,22.3973896 L23.7969505,22.3900601 L23.7963887,22.3891467 L12.7745803,22.3891467 L12.7740913,22.3900376 C12.7618156,22.4033309 12.7522031,22.4251265 12.7494962,22.4526015 L12.7487379,22.4667992 L12.7252735,24.8894237 C12.6813947,29.4067537 11.8506033,33.8733585 10.2774784,38.0505658 L10.2259178,38.1866762 L8.30573353,43.2260811 L4.89153218,43.2260358 L4.89154124,47.9823275 C4.89154124,48.350227 4.59914765,48.6498343 4.23406773,48.6614421 L4.21207747,48.6617912 C3.84417798,48.6617912 3.54457067,48.3693977 3.53296281,48.0043177 L3.53261369,47.9823275 L3.53261369,43.1359389 C3.53261369,42.4576943 4.0490626,41.8830946 4.72234148,41.8674794 L4.75048456,41.8671535 L7.36921948,41.8671082 L8.95605153,37.7028129 C10.4880776,33.6821242 11.305535,29.3779271 11.364718,25.0214774 L11.3664099,24.8762434 L11.3898748,22.4535561 C11.3973848,21.687708 11.9807817,21.0464781 12.733687,21.0305671 L12.762359,21.0302644 L23.8086281,21.0302644 Z" id="Stroke-93"></path>
                <path d="M24.9126752,41.8671535 C25.2879326,41.8671535 25.5921389,42.1713598 25.5921389,42.5466173 C25.5921389,42.9145168 25.2997453,43.2141241 24.9346654,43.2257319 L24.9126752,43.2260811 L11.6584206,43.2260811 C11.2831631,43.2260811 10.9789568,42.9218748 10.9789568,42.5466173 C10.9789568,42.1787178 11.2713504,41.8791105 11.6364304,41.8675026 L11.6584206,41.8671535 L24.9126752,41.8671535 Z" id="Stroke-95"></path>
                <path d="M22.846906,34.9215842 C23.2221635,34.9215842 23.5263697,35.2257905 23.5263697,35.601048 C23.5263697,35.9689475 23.2339762,36.2685548 22.8688962,36.2801627 L22.846906,36.2805118 L13.7242442,36.2805118 C13.3489867,36.2805118 13.0447804,35.9763055 13.0447804,35.601048 C13.0447804,35.2331485 13.337174,34.9335412 13.7022539,34.9219333 L13.7242442,34.9215842 L22.846906,34.9215842 Z" id="Stroke-97"></path>
                <path d="M21.7345875,27.9759243 C22.109845,27.9759243 22.4140513,28.2801306 22.4140513,28.6553881 C22.4140513,29.0232876 22.1216577,29.3228949 21.7565778,29.3345028 L21.7345875,29.3348519 L14.8365807,29.3348519 C14.4613232,29.3348519 14.1571169,29.0306456 14.1571169,28.6553881 C14.1571169,28.2874886 14.4495105,27.9878813 14.8145905,27.9762734 L14.8365807,27.9759243 L21.7345875,27.9759243 Z" id="Stroke-99"></path>
                <path d="M41.792331,31.0251041 C44.0206753,31.0251041 45.805826,32.9543623 45.8413062,35.3207652 L45.8418445,35.3926066 L45.8418445,47.9823456 C45.8418445,48.3576031 45.5376382,48.6618094 45.1623807,48.6618094 C44.7944812,48.6618094 44.4948739,48.3694158 44.483266,48.0043359 L44.4829169,47.9823456 L44.4829169,35.3926066 C44.4829169,33.734805 43.2882012,32.4107462 41.8364026,32.3844308 L41.792331,32.3840316 L25.2085227,32.3840316 C24.8332653,32.3840316 24.529059,32.0798253 24.529059,31.7045679 C24.529059,31.3366684 24.8214526,31.0370611 25.1865325,31.0254532 L25.2085227,31.0251041 L41.792331,31.0251041 Z" id="Stroke-101"></path>
                <path d="M36.8704856,1.64791654e-13 C37.2457431,1.64791654e-13 37.5499494,0.304206293 37.5499494,0.679463774 C37.5499494,1.04736326 37.2575558,1.34697057 36.8924759,1.35857843 L36.8704856,1.35892755 L28.577585,1.35892755 C26.7339197,1.35892755 25.2102238,3.00583101 25.1795594,5.07837665 L25.1790884,5.14131009 L25.1786354,7.60756924 C25.1783971,9.0578498 24.0936137,10.2592132 22.7162313,10.2830954 L22.6744037,10.2834577 L21.0820124,10.2834577 C18.7627417,10.2834577 16.8565631,12.3694782 16.8565631,14.9716672 C16.8565631,15.3469246 16.5523568,15.6511309 16.1770993,15.6511309 C15.8018418,15.6511309 15.4976355,15.3469246 15.4976355,14.9716672 C15.4976355,11.6782101 17.9340445,8.97899906 20.9892431,8.92534419 L21.0820124,8.92453018 L22.6744037,8.92453018 C23.2838842,8.92453018 23.8049265,8.36371863 23.819399,7.63809014 L23.8197079,7.6073328 L23.8201608,5.1410604 C23.8206752,2.34283398 25.8940831,0.0463425736 28.4985022,0.000692568075 L28.577585,1.64791654e-13 L36.8704856,1.64791654e-13 Z" id="Stroke-103"></path>
                <path d="M39.0447516,7.48578829 C39.4200091,7.48578829 39.7242154,7.78999458 39.7242154,8.16525206 C39.7242154,8.53315155 39.4318218,8.83275886 39.0667418,8.84436672 L39.0447516,8.84471583 L33.4747794,8.84471583 C32.6570776,8.84471583 31.9670919,9.58984078 31.9518599,10.5434063 L31.9516028,10.5756271 C31.9516028,12.2521813 30.7010015,13.6375093 29.117582,13.6650482 L29.0694986,13.665466 L22.1993045,13.665466 C21.5953484,13.665466 21.0788599,14.2215112 21.0646295,14.9411631 L21.0643282,14.9716672 C21.0643282,15.3469246 20.7601219,15.6511309 20.3848645,15.6511309 C20.009607,15.6511309 19.7054007,15.3469246 19.7054007,14.9716672 C19.7054007,13.527342 20.7856755,12.330688 22.1576413,12.3068994 L22.1993045,12.3065385 L29.0694986,12.3065385 C29.8872004,12.3065385 30.577186,11.5614135 30.5924181,10.607848 L30.5926752,10.5756271 C30.5926752,8.89907299 31.8432765,7.513745 33.426696,7.48620609 L33.4747794,7.48578829 L39.0447516,7.48578829 Z" id="Stroke-105"></path>
                <path d="M41.281954,3.74286697 C41.6572115,3.74286697 41.9614178,4.04707326 41.9614178,4.42233074 C41.9614178,4.79023023 41.6690242,5.08983754 41.3039443,5.1014454 L41.281954,5.10179451 L34.0101515,5.10179451 C33.634894,5.10179451 33.3306877,4.79758822 33.3306877,4.42233074 C33.3306877,4.05443125 33.6230813,3.75482394 33.9881613,3.74321608 L34.0101515,3.74286697 L41.281954,3.74286697 Z" id="Stroke-107"></path>
            </g>
        </g>
    </g>
</svg>